<svg version="1.1" xmlns="http://www.w3.org/2000/svg" xmlns:xlink="http://www.w3.org/1999/xlink" width="478.525390625" height="388"><defs/><g><g transform="translate(-102,-94) scale(1,1)"><rect fill="#C0C0C0" stroke="none" x="119" y="111" width="96" height="64" opacity="0.2"/></g><g transform="translate(-102,-94) scale(1,1)"><rect fill="#ffffff" stroke="none" x="112" y="104" width="96" height="64"/></g><g transform="translate(-102,-94) scale(1,1)"><path fill="none" stroke="#000000" d="M 112 104 L 208 104 L 208 168 L 112 168 L 112 104 Z Z" stroke-miterlimit="10"/></g><g transform="translate(-102,-94) scale(1,1)"><path fill="none" stroke="#000000" d="M 112 129 L 208 129" stroke-miterlimit="10"/></g><g transform="translate(-102,-94) scale(1,1)"><path fill="none" stroke="#000000" d="M 112 139 L 208 139" stroke-miterlimit="10"/></g><g transform="translate(-102,-94) scale(1,1)"><g><path fill="none" stroke="none"/><text fill="#000000" stroke="none" font-family="Arial" font-size="13px" font-style="normal" font-weight="bold" text-decoration="none" x="146.2763671875" y="123.5">User</text></g></g><g transform="translate(-102,-94) scale(1,1)"><rect fill="#C0C0C0" stroke="none" x="119" y="231" width="96" height="64" opacity="0.2"/></g><g transform="translate(-102,-94) scale(1,1)"><rect fill="#ffffff" stroke="none" x="112" y="224" width="96" height="64"/></g><g transform="translate(-102,-94) scale(1,1)"><path fill="none" stroke="#000000" d="M 112 224 L 208 224 L 208 288 L 112 288 L 112 224 Z Z" stroke-miterlimit="10"/></g><g transform="translate(-102,-94) scale(1,1)"><path fill="none" stroke="#000000" d="M 112 249 L 208 249" stroke-miterlimit="10"/></g><g transform="translate(-102,-94) scale(1,1)"><path fill="none" stroke="#000000" d="M 112 259 L 208 259" stroke-miterlimit="10"/></g><g transform="translate(-102,-94) scale(1,1)"><g><path fill="none" stroke="none"/><text fill="#000000" stroke="none" font-family="Arial" font-size="13px" font-style="normal" font-weight="bold" text-decoration="none" x="128.925048828125" y="243.5">Passenger</text></g></g><g transform="translate(-102,-94) scale(1,1)"><rect fill="#C0C0C0" stroke="none" x="255" y="415" width="96" height="64" opacity="0.2"/></g><g transform="translate(-102,-94) scale(1,1)"><rect fill="#ffffff" stroke="none" x="248" y="408" width="96" height="64"/></g><g transform="translate(-102,-94) scale(1,1)"><path fill="none" stroke="#000000" d="M 248 408 L 344 408 L 344 472 L 248 472 L 248 408 Z Z" stroke-miterlimit="10"/></g><g transform="translate(-102,-94) scale(1,1)"><path fill="none" stroke="#000000" d="M 248 433 L 344 433" stroke-miterlimit="10"/></g><g transform="translate(-102,-94) scale(1,1)"><path fill="none" stroke="#000000" d="M 248 443 L 344 443" stroke-miterlimit="10"/></g><g transform="translate(-102,-94) scale(1,1)"><g><path fill="none" stroke="none"/><text fill="#000000" stroke="none" font-family="Arial" font-size="13px" font-style="normal" font-weight="bold" text-decoration="none" x="266.38818359375" y="427.5">TaxiDriver</text></g></g><g transform="translate(-102,-94) scale(1,1)"><rect fill="#C0C0C0" stroke="none" x="415" y="231" width="96" height="64" opacity="0.2"/></g><g transform="translate(-102,-94) scale(1,1)"><rect fill="#ffffff" stroke="none" x="408" y="224" width="96" height="64"/></g><g transform="translate(-102,-94) scale(1,1)"><path fill="none" stroke="#000000" d="M 408 224 L 504 224 L 504 288 L 408 288 L 408 224 Z Z" stroke-miterlimit="10"/></g><g transform="translate(-102,-94) scale(1,1)"><path fill="none" stroke="#000000" d="M 408 249 L 504 249" stroke-miterlimit="10"/></g><g transform="translate(-102,-94) scale(1,1)"><path fill="none" stroke="#000000" d="M 408 259 L 504 259" stroke-miterlimit="10"/></g><g transform="translate(-102,-94) scale(1,1)"><g><path fill="none" stroke="none"/><text fill="#000000" stroke="none" font-family="Arial" font-size="13px" font-style="normal" font-weight="bold" text-decoration="none" x="442.6318359375" y="243.5">Ride</text></g></g><g transform="translate(-102,-94) scale(1,1)"><path fill="none" stroke="#000000" d="M 160 223 L 160 169" stroke-miterlimit="10"/></g><g transform="translate(-102,-94) scale(1,1)"><path fill="#FFFFFF" stroke="none" d="M 168.41903551203197 189.3253497152483 L 160 169 L 151.58096448796803 189.3253497152483"/></g><g transform="translate(-102,-94) scale(1,1)"><path fill="none" stroke="#000000" d="M 168.41903551203197 189.3253497152483 L 160 169 L 151.58096448796803 189.3253497152483 L 168.41903551203197 189.3253497152483" stroke-miterlimit="10"/></g><g transform="translate(-102,-94) scale(1,1)"><g><path fill="none" stroke="none"/><text fill="#000000" stroke="none" font-family="Arial" font-size="13px" font-style="normal" font-weight="normal" text-decoration="none" x="373" y="274">0..*</text></g></g><g transform="translate(-102,-94) scale(1,1)"><path fill="none" stroke="#000000" d="M 209 256 L 407 256" stroke-miterlimit="10"/></g><g transform="translate(-102,-94) scale(1,1)"><g><path fill="none" stroke="none"/><text fill="#000000" stroke="none" font-family="Arial" font-size="13px" font-style="normal" font-weight="normal" text-decoration="none" x="275" y="243">+partecipant</text></g></g><g transform="translate(-102,-94) scale(1,1)"><g><path fill="none" stroke="none"/><text fill="#000000" stroke="none" font-family="Arial" font-size="13px" font-style="normal" font-weight="normal" text-decoration="none" x="213" y="274">1..4</text></g></g><g transform="translate(-102,-94) scale(1,1)"><path fill="none" stroke="#000000" d="M 325 407 L 427 289" stroke-miterlimit="10"/></g><g transform="translate(-102,-94) scale(1,1)"><g><path fill="none" stroke="none"/><text fill="#000000" stroke="none" font-family="Arial" font-size="13px" font-style="normal" font-weight="normal" text-decoration="none" x="331" y="344">+driver</text></g></g><g transform="translate(-102,-94) scale(1,1)"><g><path fill="none" stroke="none"/><text fill="#000000" stroke="none" font-family="Arial" font-size="13px" font-style="normal" font-weight="normal" text-decoration="none" x="429" y="306">0..*</text></g></g><g transform="translate(-102,-94) scale(1,1)"><g><path fill="none" stroke="none"/><text fill="#000000" stroke="none" font-family="Arial" font-size="13px" font-style="normal" font-weight="normal" text-decoration="none" x="309" y="402">1</text></g></g><g transform="translate(-102,-94) scale(1,1)"><rect fill="#C0C0C0" stroke="none" x="471" y="415" width="106.525390625" height="56" opacity="0.2"/></g><g transform="translate(-102,-94) scale(1,1)"><rect fill="#ffffff" stroke="none" x="464" y="408" width="106.525390625" height="56"/></g><g transform="translate(-102,-94) scale(1,1)"><path fill="none" stroke="#000000" d="M 464 408 L 570.525390625 408 L 570.525390625 464 L 464 464 L 464 408 Z Z" stroke-miterlimit="10"/></g><g transform="translate(-102,-94) scale(1,1)"><path fill="none" stroke="#000000" d="M 464 433 L 570.525390625 433" stroke-miterlimit="10"/></g><g transform="translate(-102,-94) scale(1,1)"><path fill="none" stroke="#000000" d="M 464 443 L 570.525390625 443" stroke-miterlimit="10"/></g><g transform="translate(-102,-94) scale(1,1)"><g><path fill="none" stroke="none"/><text fill="#000000" stroke="none" font-family="Arial" font-size="13px" font-style="normal" font-weight="bold" text-decoration="none" x="470.286865234375" y="427.5">Queue Manager</text></g></g><g transform="translate(-102,-94) scale(1,1)"><path fill="none" stroke="#000000" d="M 345 439 L 463 437" stroke-miterlimit="10"/></g><g transform="translate(-102,-94) scale(1,1)"><g><path fill="none" stroke="none"/><text fill="#000000" stroke="none" font-family="Arial" font-size="13px" font-style="normal" font-weight="normal" text-decoration="none" x="390" y="430">+isIn</text></g></g><g transform="translate(-102,-94) scale(1,1)"><g><path fill="none" stroke="none"/><text fill="#000000" stroke="none" font-family="Arial" font-size="13px" font-style="normal" font-weight="normal" text-decoration="none" x="349" y="458">0..*</text></g></g><g transform="translate(-102,-94) scale(1,1)"><g><path fill="none" stroke="none"/><text fill="#000000" stroke="none" font-family="Arial" font-size="13px" font-style="normal" font-weight="normal" text-decoration="none" x="445" y="458">1</text></g></g></g></svg>