<svg version="1.1" xmlns="http://www.w3.org/2000/svg" xmlns:xlink="http://www.w3.org/1999/xlink" width="1276" height="1396"><defs/><g><g transform="translate(-14,-46) scale(1,1)"><rect fill="#C0C0C0" stroke="none" x="380" y="1359" width="198" height="80" opacity="0.2"/></g><g transform="translate(-14,-46) scale(1,1)"><rect fill="#ffffff" stroke="none" x="373" y="1352" width="198" height="80"/></g><g transform="translate(-14,-46) scale(1,1)"><path fill="none" stroke="#000000" d="M 373 1352 L 571 1352 L 571 1432 L 373 1432 L 373 1352 Z Z" stroke-miterlimit="10"/></g><g transform="translate(-14,-46) scale(1,1)"><rect fill="#ffffff" stroke="none" x="363" y="1359" width="20" height="10"/></g><g transform="translate(-14,-46) scale(1,1)"><path fill="none" stroke="#000000" d="M 363 1359 L 383 1359 L 383 1369 L 363 1369 L 363 1359 Z Z" stroke-miterlimit="10"/></g><g transform="translate(-14,-46) scale(1,1)"><rect fill="#ffffff" stroke="none" x="363" y="1379" width="20" height="10"/></g><g transform="translate(-14,-46) scale(1,1)"><path fill="none" stroke="#000000" d="M 363 1379 L 383 1379 L 383 1389 L 363 1389 L 363 1379 Z Z" stroke-miterlimit="10"/></g><g transform="translate(-14,-46) scale(1,1)"><g><path fill="none" stroke="none"/><text fill="#000000" stroke="none" font-family="Arial" font-size="13px" font-style="normal" font-weight="bold" text-decoration="none" x="415.221435546875" y="1371.5">Customer mobile app</text></g></g><g transform="translate(-14,-46) scale(1,1)"><rect fill="#C0C0C0" stroke="none" x="104" y="1215" width="198" height="80" opacity="0.2"/></g><g transform="translate(-14,-46) scale(1,1)"><rect fill="#ffffff" stroke="none" x="97" y="1208" width="198" height="80"/></g><g transform="translate(-14,-46) scale(1,1)"><path fill="none" stroke="#000000" d="M 97 1208 L 295 1208 L 295 1288 L 97 1288 L 97 1208 Z Z" stroke-miterlimit="10"/></g><g transform="translate(-14,-46) scale(1,1)"><rect fill="#ffffff" stroke="none" x="87" y="1215" width="20" height="10"/></g><g transform="translate(-14,-46) scale(1,1)"><path fill="none" stroke="#000000" d="M 87 1215 L 107 1215 L 107 1225 L 87 1225 L 87 1215 Z Z" stroke-miterlimit="10"/></g><g transform="translate(-14,-46) scale(1,1)"><rect fill="#ffffff" stroke="none" x="87" y="1235" width="20" height="10"/></g><g transform="translate(-14,-46) scale(1,1)"><path fill="none" stroke="#000000" d="M 87 1235 L 107 1235 L 107 1245 L 87 1245 L 87 1235 Z Z" stroke-miterlimit="10"/></g><g transform="translate(-14,-46) scale(1,1)"><g><path fill="none" stroke="none"/><text fill="#000000" stroke="none" font-family="Arial" font-size="13px" font-style="normal" font-weight="bold" text-decoration="none" x="146.445068359375" y="1227.5">Customer web app</text></g></g><g transform="translate(-14,-46) scale(1,1)"><rect fill="#C0C0C0" stroke="none" x="665" y="1215" width="189" height="79" opacity="0.2"/></g><g transform="translate(-14,-46) scale(1,1)"><rect fill="#ffffff" stroke="none" x="658" y="1208" width="189" height="79"/></g><g transform="translate(-14,-46) scale(1,1)"><path fill="none" stroke="#000000" d="M 658 1208 L 847 1208 L 847 1287 L 658 1287 L 658 1208 Z Z" stroke-miterlimit="10"/></g><g transform="translate(-14,-46) scale(1,1)"><rect fill="#ffffff" stroke="none" x="648" y="1215" width="20" height="10"/></g><g transform="translate(-14,-46) scale(1,1)"><path fill="none" stroke="#000000" d="M 648 1215 L 668 1215 L 668 1225 L 648 1225 L 648 1215 Z Z" stroke-miterlimit="10"/></g><g transform="translate(-14,-46) scale(1,1)"><rect fill="#ffffff" stroke="none" x="648" y="1235" width="20" height="10"/></g><g transform="translate(-14,-46) scale(1,1)"><path fill="none" stroke="#000000" d="M 648 1235 L 668 1235 L 668 1245 L 648 1245 L 648 1235 Z Z" stroke-miterlimit="10"/></g><g transform="translate(-14,-46) scale(1,1)"><g><path fill="none" stroke="none"/><text fill="#000000" stroke="none" font-family="Arial" font-size="13px" font-style="normal" font-weight="bold" text-decoration="none" x="711.615966796875" y="1227.5">Taxi mobile app</text></g></g><g transform="translate(-14,-46) scale(1,1)"><path fill="#C0C0C0" stroke="none" d="M 462.7099609375 986.5 C 462.7099609375 980.1487248 467.8586857375 975 474.2099609375 975 C 480.5612361375 975 485.7099609375 980.1487248 485.7099609375 986.5 C 485.7099609375 992.8512752 480.5612361375 998 474.2099609375 998 C 467.8586857375 998 462.7099609375 992.8512752 462.7099609375 986.5 Z" opacity="0.2"/></g><g transform="translate(-14,-46) scale(1,1)"><path fill="#ffffff" stroke="none" d="M 455.7099609375 979.5 C 455.7099609375 973.1487248 460.8586857375 968 467.2099609375 968 C 473.5612361375 968 478.7099609375 973.1487248 478.7099609375 979.5 C 478.7099609375 985.8512752 473.5612361375 991 467.2099609375 991 C 460.8586857375 991 455.7099609375 985.8512752 455.7099609375 979.5 Z"/></g><g transform="translate(-14,-46) scale(1,1)"><path fill="none" stroke="#000000" d="M 455.7099609375 979.5 C 455.7099609375 973.1487248 460.8586857375 968 467.2099609375 968 C 473.5612361375 968 478.7099609375 973.1487248 478.7099609375 979.5 C 478.7099609375 985.8512752 473.5612361375 991 467.2099609375 991 C 460.8586857375 991 455.7099609375 985.8512752 455.7099609375 979.5 Z" stroke-miterlimit="10"/></g><g transform="translate(-14,-46) scale(1,1)"><g><path fill="none" stroke="none"/><text fill="#000000" stroke="none" font-family="Arial" font-size="13px" font-style="normal" font-weight="bold" text-decoration="none" x="445.904052734375" y="1010.5">HTTPS</text></g></g><g transform="translate(-14,-46) scale(1,1)"><path fill="none" stroke="#000000" d="M 467 1351 L 467 991" stroke-miterlimit="10"/></g><g transform="translate(-14,-46) scale(1,1)"><path fill="none" stroke="#000000" d="M 235 1207 L 458.4736842105263 991" stroke-miterlimit="10"/></g><g transform="translate(-14,-46) scale(1,1)"><path fill="none" stroke="#000000" d="M 703 1207 L 475.5263157894737 991" stroke-miterlimit="10"/></g><g transform="translate(-14,-46) scale(1,1)"><rect fill="#C0C0C0" stroke="none" x="384" y="799" width="190" height="88" opacity="0.2"/></g><g transform="translate(-14,-46) scale(1,1)"><rect fill="#ffffff" stroke="none" x="377" y="792" width="190" height="88"/></g><g transform="translate(-14,-46) scale(1,1)"><path fill="none" stroke="#000000" d="M 377 792 L 567 792 L 567 880 L 377 880 L 377 792 Z Z" stroke-miterlimit="10"/></g><g transform="translate(-14,-46) scale(1,1)"><rect fill="#ffffff" stroke="none" x="367" y="799" width="20" height="10"/></g><g transform="translate(-14,-46) scale(1,1)"><path fill="none" stroke="#000000" d="M 367 799 L 387 799 L 387 809 L 367 809 L 367 799 Z Z" stroke-miterlimit="10"/></g><g transform="translate(-14,-46) scale(1,1)"><rect fill="#ffffff" stroke="none" x="367" y="819" width="20" height="10"/></g><g transform="translate(-14,-46) scale(1,1)"><path fill="none" stroke="#000000" d="M 367 819 L 387 819 L 387 829 L 367 829 L 367 819 Z Z" stroke-miterlimit="10"/></g><g transform="translate(-14,-46) scale(1,1)"><g><path fill="none" stroke="none"/><text fill="#000000" stroke="none" font-family="Arial" font-size="13px" font-style="normal" font-weight="bold" text-decoration="none" x="440.516845703125" y="811.5">RESTful API</text></g></g><g transform="translate(-14,-46) scale(1,1)"><path fill="none" stroke="#000000" d="M 467 881 L 467 968" stroke-miterlimit="10"/></g><g transform="translate(-14,-46) scale(1,1)"><rect fill="#C0C0C0" stroke="none" x="481" y="527" width="205" height="103" opacity="0.2"/></g><g transform="translate(-14,-46) scale(1,1)"><rect fill="#ffffff" stroke="none" x="474" y="520" width="205" height="103"/></g><g transform="translate(-14,-46) scale(1,1)"><path fill="none" stroke="#000000" d="M 474 520 L 679 520 L 679 623 L 474 623 L 474 520 Z Z" stroke-miterlimit="10"/></g><g transform="translate(-14,-46) scale(1,1)"><rect fill="#ffffff" stroke="none" x="464" y="527" width="20" height="10"/></g><g transform="translate(-14,-46) scale(1,1)"><path fill="none" stroke="#000000" d="M 464 527 L 484 527 L 484 537 L 464 537 L 464 527 Z Z" stroke-miterlimit="10"/></g><g transform="translate(-14,-46) scale(1,1)"><rect fill="#ffffff" stroke="none" x="464" y="547" width="20" height="10"/></g><g transform="translate(-14,-46) scale(1,1)"><path fill="none" stroke="#000000" d="M 464 547 L 484 547 L 484 557 L 464 557 L 464 547 Z Z" stroke-miterlimit="10"/></g><g transform="translate(-14,-46) scale(1,1)"><g><path fill="none" stroke="none"/><text fill="#000000" stroke="none" font-family="Arial" font-size="13px" font-style="normal" font-weight="bold" text-decoration="none" x="534.524169921875" y="539.5">Queue manager</text></g></g><g transform="translate(-14,-46) scale(1,1)"><rect fill="#C0C0C0" stroke="none" x="233" y="63" width="198" height="103" opacity="0.2"/></g><g transform="translate(-14,-46) scale(1,1)"><rect fill="#ffffff" stroke="none" x="226" y="56" width="198" height="103"/></g><g transform="translate(-14,-46) scale(1,1)"><path fill="none" stroke="#000000" d="M 226 56 L 424 56 L 424 159 L 226 159 L 226 56 Z Z" stroke-miterlimit="10"/></g><g transform="translate(-14,-46) scale(1,1)"><rect fill="#ffffff" stroke="none" x="216" y="63" width="20" height="10"/></g><g transform="translate(-14,-46) scale(1,1)"><path fill="none" stroke="#000000" d="M 216 63 L 236 63 L 236 73 L 216 73 L 216 63 Z Z" stroke-miterlimit="10"/></g><g transform="translate(-14,-46) scale(1,1)"><rect fill="#ffffff" stroke="none" x="216" y="83" width="20" height="10"/></g><g transform="translate(-14,-46) scale(1,1)"><path fill="none" stroke="#000000" d="M 216 83 L 236 83 L 236 93 L 216 93 L 216 83 Z Z" stroke-miterlimit="10"/></g><g transform="translate(-14,-46) scale(1,1)"><g><path fill="none" stroke="none"/><text fill="#000000" stroke="none" font-family="Arial" font-size="13px" font-style="normal" font-weight="bold" text-decoration="none" x="289.171875" y="75.5">Ride manager</text></g></g><g transform="translate(-14,-46) scale(1,1)"><path fill="#C0C0C0" stroke="none" d="M 318.7099609375 322.5 C 318.7099609375 316.1487248 323.8586857375 311 330.2099609375 311 C 336.5612361375 311 341.7099609375 316.1487248 341.7099609375 322.5 C 341.7099609375 328.8512752 336.5612361375 334 330.2099609375 334 C 323.8586857375 334 318.7099609375 328.8512752 318.7099609375 322.5 Z" opacity="0.2"/></g><g transform="translate(-14,-46) scale(1,1)"><path fill="#ffffff" stroke="none" d="M 311.7099609375 315.5 C 311.7099609375 309.1487248 316.8586857375 304 323.2099609375 304 C 329.5612361375 304 334.7099609375 309.1487248 334.7099609375 315.5 C 334.7099609375 321.8512752 329.5612361375 327 323.2099609375 327 C 316.8586857375 327 311.7099609375 321.8512752 311.7099609375 315.5 Z"/></g><g transform="translate(-14,-46) scale(1,1)"><path fill="none" stroke="#000000" d="M 311.7099609375 315.5 C 311.7099609375 309.1487248 316.8586857375 304 323.2099609375 304 C 329.5612361375 304 334.7099609375 309.1487248 334.7099609375 315.5 C 334.7099609375 321.8512752 329.5612361375 327 323.2099609375 327 C 316.8586857375 327 311.7099609375 321.8512752 311.7099609375 315.5 Z" stroke-miterlimit="10"/></g><g transform="translate(-14,-46) scale(1,1)"><g><path fill="none" stroke="none"/><text fill="#000000" stroke="none" font-family="Arial" font-size="13px" font-style="normal" font-weight="bold" text-decoration="none" x="309.483154296875" y="346.5">SOA</text></g></g><g transform="translate(-14,-46) scale(1,1)"><path fill="none" stroke="#000000" d="M 518 519 L 331.2105263157895 327" stroke-miterlimit="10"/></g><g transform="translate(-14,-46) scale(1,1)"><path fill="none" stroke="#000000" d="M 321 160 L 323 304" stroke-miterlimit="10"/></g><g transform="translate(-14,-46) scale(1,1)"><rect fill="#C0C0C0" stroke="none" x="705" y="279" width="197" height="95" opacity="0.2"/></g><g transform="translate(-14,-46) scale(1,1)"><rect fill="#ffffff" stroke="none" x="698" y="272" width="197" height="95"/></g><g transform="translate(-14,-46) scale(1,1)"><path fill="none" stroke="#000000" d="M 698 272 L 895 272 L 895 367 L 698 367 L 698 272 Z Z" stroke-miterlimit="10"/></g><g transform="translate(-14,-46) scale(1,1)"><rect fill="#ffffff" stroke="none" x="688" y="279" width="20" height="10"/></g><g transform="translate(-14,-46) scale(1,1)"><path fill="none" stroke="#000000" d="M 688 279 L 708 279 L 708 289 L 688 289 L 688 279 Z Z" stroke-miterlimit="10"/></g><g transform="translate(-14,-46) scale(1,1)"><rect fill="#ffffff" stroke="none" x="688" y="299" width="20" height="10"/></g><g transform="translate(-14,-46) scale(1,1)"><path fill="none" stroke="#000000" d="M 688 299 L 708 299 L 708 309 L 688 309 L 688 299 Z Z" stroke-miterlimit="10"/></g><g transform="translate(-14,-46) scale(1,1)"><g><path fill="none" stroke="none"/><text fill="#000000" stroke="none" font-family="Arial" font-size="13px" font-style="normal" font-weight="bold" text-decoration="none" x="782.720458984375" y="291.5">DBMS</text></g></g><g transform="translate(-14,-46) scale(1,1)"><path fill="#C0C0C0" stroke="none" d="M 574.7099609375 330.5 C 574.7099609375 324.1487248 579.8586857375 319 586.2099609375 319 C 592.5612361375 319 597.7099609375 324.1487248 597.7099609375 330.5 C 597.7099609375 336.8512752 592.5612361375 342 586.2099609375 342 C 579.8586857375 342 574.7099609375 336.8512752 574.7099609375 330.5 Z" opacity="0.2"/></g><g transform="translate(-14,-46) scale(1,1)"><path fill="#ffffff" stroke="none" d="M 567.7099609375 323.5 C 567.7099609375 317.1487248 572.8586857375 312 579.2099609375 312 C 585.5612361375 312 590.7099609375 317.1487248 590.7099609375 323.5 C 590.7099609375 329.8512752 585.5612361375 335 579.2099609375 335 C 572.8586857375 335 567.7099609375 329.8512752 567.7099609375 323.5 Z"/></g><g transform="translate(-14,-46) scale(1,1)"><path fill="none" stroke="#000000" d="M 567.7099609375 323.5 C 567.7099609375 317.1487248 572.8586857375 312 579.2099609375 312 C 585.5612361375 312 590.7099609375 317.1487248 590.7099609375 323.5 C 590.7099609375 329.8512752 585.5612361375 335 579.2099609375 335 C 572.8586857375 335 567.7099609375 329.8512752 567.7099609375 323.5 Z" stroke-miterlimit="10"/></g><g transform="translate(-14,-46) scale(1,1)"><g><path fill="none" stroke="none"/><text fill="#000000" stroke="none" font-family="Arial" font-size="13px" font-style="normal" font-weight="bold" text-decoration="none" x="562.236328125" y="354.5">JDBC</text></g></g><g transform="translate(-14,-46) scale(1,1)"><path fill="none" stroke="#000000" d="M 687 327 L 590.7099609375 326.2527669270833" stroke-miterlimit="10"/></g><g transform="translate(-14,-46) scale(1,1)"><path fill="none" stroke="#000000" d="M 380 160 L 567.7099609375 318.16141183035717" stroke-miterlimit="10"/></g><g transform="translate(-14,-46) scale(1,1)"><rect fill="#C0C0C0" stroke="none" x="107" y="799" width="190" height="88" opacity="0.2"/></g><g transform="translate(-14,-46) scale(1,1)"><rect fill="#ffffff" stroke="none" x="100" y="792" width="190" height="88"/></g><g transform="translate(-14,-46) scale(1,1)"><path fill="none" stroke="#000000" d="M 100 792 L 290 792 L 290 880 L 100 880 L 100 792 Z Z" stroke-miterlimit="10"/></g><g transform="translate(-14,-46) scale(1,1)"><rect fill="#ffffff" stroke="none" x="90" y="799" width="20" height="10"/></g><g transform="translate(-14,-46) scale(1,1)"><path fill="none" stroke="#000000" d="M 90 799 L 110 799 L 110 809 L 90 809 L 90 799 Z Z" stroke-miterlimit="10"/></g><g transform="translate(-14,-46) scale(1,1)"><rect fill="#ffffff" stroke="none" x="90" y="819" width="20" height="10"/></g><g transform="translate(-14,-46) scale(1,1)"><path fill="none" stroke="#000000" d="M 90 819 L 110 819 L 110 829 L 90 829 L 90 819 Z Z" stroke-miterlimit="10"/></g><g transform="translate(-14,-46) scale(1,1)"><g><path fill="none" stroke="none"/><text fill="#000000" stroke="none" font-family="Arial" font-size="13px" font-style="normal" font-weight="bold" text-decoration="none" x="163.504150390625" y="811.5">Presentation</text></g></g><g transform="translate(-14,-46) scale(1,1)"><path fill="#C0C0C0" stroke="none" d="M 185.7099609375 978.5 C 185.7099609375 972.1487248 190.8586857375 967 197.2099609375 967 C 203.5612361375 967 208.7099609375 972.1487248 208.7099609375 978.5 C 208.7099609375 984.8512752 203.5612361375 990 197.2099609375 990 C 190.8586857375 990 185.7099609375 984.8512752 185.7099609375 978.5 Z" opacity="0.2"/></g><g transform="translate(-14,-46) scale(1,1)"><path fill="#ffffff" stroke="none" d="M 178.7099609375 971.5 C 178.7099609375 965.1487248 183.8586857375 960 190.2099609375 960 C 196.5612361375 960 201.7099609375 965.1487248 201.7099609375 971.5 C 201.7099609375 977.8512752 196.5612361375 983 190.2099609375 983 C 183.8586857375 983 178.7099609375 977.8512752 178.7099609375 971.5 Z"/></g><g transform="translate(-14,-46) scale(1,1)"><path fill="none" stroke="#000000" d="M 178.7099609375 971.5 C 178.7099609375 965.1487248 183.8586857375 960 190.2099609375 960 C 196.5612361375 960 201.7099609375 965.1487248 201.7099609375 971.5 C 201.7099609375 977.8512752 196.5612361375 983 190.2099609375 983 C 183.8586857375 983 178.7099609375 977.8512752 178.7099609375 971.5 Z" stroke-miterlimit="10"/></g><g transform="translate(-14,-46) scale(1,1)"><g><path fill="none" stroke="none"/><text fill="#000000" stroke="none" font-family="Arial" font-size="13px" font-style="normal" font-weight="bold" text-decoration="none" x="168.904052734375" y="1002.5">HTTPS</text></g></g><g transform="translate(-14,-46) scale(1,1)"><path fill="none" stroke="#000000" d="M 191 1207 L 190 983" stroke-miterlimit="10"/></g><g transform="translate(-14,-46) scale(1,1)"><path fill="none" stroke="#000000" d="M 190 881 L 190 960" stroke-miterlimit="10"/></g><g transform="translate(-14,-46) scale(1,1)"><rect fill="#C0C0C0" stroke="none" x="1089" y="263" width="198" height="96" opacity="0.2"/></g><g transform="translate(-14,-46) scale(1,1)"><rect fill="#ffffff" stroke="none" x="1082" y="256" width="198" height="96"/></g><g transform="translate(-14,-46) scale(1,1)"><path fill="none" stroke="#000000" d="M 1082 256 L 1280 256 L 1280 352 L 1082 352 L 1082 256 Z Z" stroke-miterlimit="10"/></g><g transform="translate(-14,-46) scale(1,1)"><rect fill="#ffffff" stroke="none" x="1072" y="263" width="20" height="10"/></g><g transform="translate(-14,-46) scale(1,1)"><path fill="none" stroke="#000000" d="M 1072 263 L 1092 263 L 1092 273 L 1072 273 L 1072 263 Z Z" stroke-miterlimit="10"/></g><g transform="translate(-14,-46) scale(1,1)"><rect fill="#ffffff" stroke="none" x="1072" y="283" width="20" height="10"/></g><g transform="translate(-14,-46) scale(1,1)"><path fill="none" stroke="#000000" d="M 1072 283 L 1092 283 L 1092 293 L 1072 293 L 1072 283 Z Z" stroke-miterlimit="10"/></g><g transform="translate(-14,-46) scale(1,1)"><g><path fill="none" stroke="none"/><text fill="#000000" stroke="none" font-family="Arial" font-size="13px" font-style="normal" font-weight="bold" text-decoration="none" x="1126.385986328125" y="275.5">Notification manager</text></g></g><g transform="translate(-14,-46) scale(1,1)"><path fill="#C0C0C0" stroke="none" d="M 990.7099609375 313.5 C 990.7099609375 307.1487248 995.8586857375 302 1002.2099609375 302 C 1008.5612361375 302 1013.7099609375 307.1487248 1013.7099609375 313.5 C 1013.7099609375 319.8512752 1008.5612361375 325 1002.2099609375 325 C 995.8586857375 325 990.7099609375 319.8512752 990.7099609375 313.5 Z" opacity="0.2"/></g><g transform="translate(-14,-46) scale(1,1)"><path fill="#ffffff" stroke="none" d="M 983.7099609375 306.5 C 983.7099609375 300.1487248 988.8586857375 295 995.2099609375 295 C 1001.5612361375 295 1006.7099609375 300.1487248 1006.7099609375 306.5 C 1006.7099609375 312.8512752 1001.5612361375 318 995.2099609375 318 C 988.8586857375 318 983.7099609375 312.8512752 983.7099609375 306.5 Z"/></g><g transform="translate(-14,-46) scale(1,1)"><path fill="none" stroke="#000000" d="M 983.7099609375 306.5 C 983.7099609375 300.1487248 988.8586857375 295 995.2099609375 295 C 1001.5612361375 295 1006.7099609375 300.1487248 1006.7099609375 306.5 C 1006.7099609375 312.8512752 1001.5612361375 318 995.2099609375 318 C 988.8586857375 318 983.7099609375 312.8512752 983.7099609375 306.5 Z" stroke-miterlimit="10"/></g><g transform="translate(-14,-46) scale(1,1)"><g><path fill="none" stroke="none"/><text fill="#000000" stroke="none" font-family="Arial" font-size="13px" font-style="normal" font-weight="bold" text-decoration="none" x="966.674072265625" y="337.5">PUB SUB</text></g></g><g transform="translate(-14,-46) scale(1,1)"><path fill="none" stroke="#000000" d="M 425 107 L 992 104 L 995 295" stroke-miterlimit="10"/></g><g transform="translate(-14,-46) scale(1,1)"><path fill="none" stroke="#000000" d="M 680 570 L 992 568 L 995 318" stroke-miterlimit="10"/></g><g transform="translate(-14,-46) scale(1,1)"><path fill="none" stroke="#000000" d="M 1071 313 L 1006.7099609375 309.2527669270833" stroke-miterlimit="10"/></g><g transform="translate(-14,-46) scale(1,1)"><path fill="#C0C0C0" stroke="none" d="M 1176.107666015625 834.5 C 1176.107666015625 828.1487248 1181.256390815625 823 1187.607666015625 823 C 1193.958941215625 823 1199.107666015625 828.1487248 1199.107666015625 834.5 C 1199.107666015625 840.8512752 1193.958941215625 846 1187.607666015625 846 C 1181.256390815625 846 1176.107666015625 840.8512752 1176.107666015625 834.5 Z" opacity="0.2"/></g><g transform="translate(-14,-46) scale(1,1)"><path fill="#ffffff" stroke="none" d="M 1169.107666015625 827.5 C 1169.107666015625 821.1487248 1174.256390815625 816 1180.607666015625 816 C 1186.958941215625 816 1192.107666015625 821.1487248 1192.107666015625 827.5 C 1192.107666015625 833.8512752 1186.958941215625 839 1180.607666015625 839 C 1174.256390815625 839 1169.107666015625 833.8512752 1169.107666015625 827.5 Z"/></g><g transform="translate(-14,-46) scale(1,1)"><path fill="none" stroke="#000000" d="M 1169.107666015625 827.5 C 1169.107666015625 821.1487248 1174.256390815625 816 1180.607666015625 816 C 1186.958941215625 816 1192.107666015625 821.1487248 1192.107666015625 827.5 C 1192.107666015625 833.8512752 1186.958941215625 839 1180.607666015625 839 C 1174.256390815625 839 1169.107666015625 833.8512752 1169.107666015625 827.5 Z" stroke-miterlimit="10"/></g><g transform="translate(-14,-46) scale(1,1)"><g><path fill="none" stroke="none"/><text fill="#000000" stroke="none" font-family="Arial" font-size="13px" font-style="normal" font-weight="bold" text-decoration="none" x="1143.397705078125" y="858.5">Push service</text></g></g><g transform="translate(-14,-46) scale(1,1)"><path fill="none" stroke="#000000" d="M 1176 353 L 1180 816" stroke-miterlimit="10"/></g><g transform="translate(-14,-46) scale(1,1)"><path fill="none" stroke="#000000" d="M 790 1207 L 1171.4736842105262 839" stroke-miterlimit="10"/></g><g transform="translate(-14,-46) scale(1,1)"><path fill="none" stroke="#000000" d="M 572 1392 L 1176 1392 L 1180 839" stroke-miterlimit="10"/></g><g transform="translate(-14,-46) scale(1,1)"><rect fill="#C0C0C0" stroke="none" x="249" y="527" width="182" height="104" opacity="0.2"/></g><g transform="translate(-14,-46) scale(1,1)"><rect fill="#ffffff" stroke="none" x="242" y="520" width="182" height="104"/></g><g transform="translate(-14,-46) scale(1,1)"><path fill="none" stroke="#000000" d="M 242 520 L 424 520 L 424 624 L 242 624 L 242 520 Z Z" stroke-miterlimit="10"/></g><g transform="translate(-14,-46) scale(1,1)"><rect fill="#ffffff" stroke="none" x="232" y="527" width="20" height="10"/></g><g transform="translate(-14,-46) scale(1,1)"><path fill="none" stroke="#000000" d="M 232 527 L 252 527 L 252 537 L 232 537 L 232 527 Z Z" stroke-miterlimit="10"/></g><g transform="translate(-14,-46) scale(1,1)"><rect fill="#ffffff" stroke="none" x="232" y="547" width="20" height="10"/></g><g transform="translate(-14,-46) scale(1,1)"><path fill="none" stroke="#000000" d="M 232 547 L 252 547 L 252 557 L 232 557 L 232 547 Z Z" stroke-miterlimit="10"/></g><g transform="translate(-14,-46) scale(1,1)"><g><path fill="none" stroke="none"/><text fill="#000000" stroke="none" font-family="Arial" font-size="13px" font-style="normal" font-weight="bold" text-decoration="none" x="296.81640625" y="539.5">User manager</text></g></g><g transform="translate(-14,-46) scale(1,1)"><path fill="#C0C0C0" stroke="none" d="M 462.7099609375 714.5 C 462.7099609375 708.1487248 467.8586857375 703 474.2099609375 703 C 480.5612361375 703 485.7099609375 708.1487248 485.7099609375 714.5 C 485.7099609375 720.8512752 480.5612361375 726 474.2099609375 726 C 467.8586857375 726 462.7099609375 720.8512752 462.7099609375 714.5 Z" opacity="0.2"/></g><g transform="translate(-14,-46) scale(1,1)"><path fill="#ffffff" stroke="none" d="M 455.7099609375 707.5 C 455.7099609375 701.1487248 460.8586857375 696 467.2099609375 696 C 473.5612361375 696 478.7099609375 701.1487248 478.7099609375 707.5 C 478.7099609375 713.8512752 473.5612361375 719 467.2099609375 719 C 460.8586857375 719 455.7099609375 713.8512752 455.7099609375 707.5 Z"/></g><g transform="translate(-14,-46) scale(1,1)"><path fill="none" stroke="#000000" d="M 455.7099609375 707.5 C 455.7099609375 701.1487248 460.8586857375 696 467.2099609375 696 C 473.5612361375 696 478.7099609375 701.1487248 478.7099609375 707.5 C 478.7099609375 713.8512752 473.5612361375 719 467.2099609375 719 C 460.8586857375 719 455.7099609375 713.8512752 455.7099609375 707.5 Z" stroke-miterlimit="10"/></g><g transform="translate(-14,-46) scale(1,1)"><g><path fill="none" stroke="none"/><text fill="#000000" stroke="none" font-family="Arial" font-size="13px" font-style="normal" font-weight="bold" text-decoration="none" x="453.483154296875" y="738.5">SOA</text></g></g><g transform="translate(-14,-46) scale(1,1)"><rect fill="#C0C0C0" stroke="none" x="41" y="527" width="173" height="103" opacity="0.2"/></g><g transform="translate(-14,-46) scale(1,1)"><rect fill="#ffffff" stroke="none" x="34" y="520" width="173" height="103"/></g><g transform="translate(-14,-46) scale(1,1)"><path fill="none" stroke="#000000" d="M 34 520 L 207 520 L 207 623 L 34 623 L 34 520 Z Z" stroke-miterlimit="10"/></g><g transform="translate(-14,-46) scale(1,1)"><rect fill="#ffffff" stroke="none" x="24" y="527" width="20" height="10"/></g><g transform="translate(-14,-46) scale(1,1)"><path fill="none" stroke="#000000" d="M 24 527 L 44 527 L 44 537 L 24 537 L 24 527 Z Z" stroke-miterlimit="10"/></g><g transform="translate(-14,-46) scale(1,1)"><rect fill="#ffffff" stroke="none" x="24" y="547" width="20" height="10"/></g><g transform="translate(-14,-46) scale(1,1)"><path fill="none" stroke="#000000" d="M 24 547 L 44 547 L 44 557 L 24 557 L 24 547 Z Z" stroke-miterlimit="10"/></g><g transform="translate(-14,-46) scale(1,1)"><g><path fill="none" stroke="none"/><text fill="#000000" stroke="none" font-family="Arial" font-size="13px" font-style="normal" font-weight="bold" text-decoration="none" x="73.830078125" y="539.5">Request manager</text></g></g><g transform="translate(-14,-46) scale(1,1)"><path fill="none" stroke="#000000" d="M 160 519 L 316.36842105263156 327" stroke-miterlimit="10"/></g><g transform="translate(-14,-46) scale(1,1)"><path fill="none" stroke="#000000" d="M 171 624 L 264 712 L 455.7099609375 710.7633463541666" stroke-miterlimit="10"/></g><g transform="translate(-14,-46) scale(1,1)"><path fill="none" stroke="#000000" d="M 378 625 L 455.7099609375 701.1095448369565" stroke-miterlimit="10"/></g><g transform="translate(-14,-46) scale(1,1)"><path fill="none" stroke="#000000" d="M 534 624 L 478.7099609375 698.7341452205883" stroke-miterlimit="10"/></g><g transform="translate(-14,-46) scale(1,1)"><path fill="none" stroke="#000000" d="M 467 791 L 467 719" stroke-miterlimit="10"/></g><g transform="translate(-14,-46) scale(1,1)"><path fill="none" stroke="#000000" d="M 384 519 L 570.4736842105264 335" stroke-miterlimit="10"/></g></g></svg>