<svg version="1.1" xmlns="http://www.w3.org/2000/svg" xmlns:xlink="http://www.w3.org/1999/xlink" width="447" height="503"><defs/><g><g transform="translate(5,5) scale(1,1)"><path fill="none" stroke="#000000" d="M 5 5 L 432 5 L 432 488 L 5 488 L 5 5" stroke-miterlimit="10"/></g><g transform="translate(5,5) scale(1,1)"><path fill="#ffffff" stroke="none" d="M 5 5 L 5 27 L 166.2470703125 27 L 177.2470703125 16 L 177.2470703125 5 L 5 5"/></g><g transform="translate(5,5) scale(1,1)"><path fill="none" stroke="#000000" d="M 5 5 L 5 27 L 166.2470703125 27 L 177.2470703125 16 L 177.2470703125 5 L 5 5 L 5 5" stroke-miterlimit="10"/></g><g transform="translate(5,5) scale(1,1)"><g><path fill="none" stroke="none"/><text fill="#000000" stroke="none" font-family="Arial" font-size="13px" font-style="normal" font-weight="normal" text-decoration="none" x="75.97900390625" y="22.5">Reply Request</text></g></g><g transform="translate(5,5) scale(1,1)"><g><path fill="none" stroke="none"/><text fill="#000000" stroke="none" font-family="Arial" font-size="13px" font-style="normal" font-weight="bold" text-decoration="none" x="10" y="22.5">interaction</text></g></g><g transform="translate(5,5) scale(1,1)"><rect fill="#C0C0C0" stroke="none" x="295" y="47" width="71.736328125" height="39" opacity="0.2"/></g><g transform="translate(5,5) scale(1,1)"><rect fill="#ffffff" stroke="none" x="288" y="40" width="71.736328125" height="39"/></g><g transform="translate(5,5) scale(1,1)"><path fill="none" stroke="#000000" d="M 288 40 L 359.736328125 40 L 359.736328125 79 L 288 79 L 288 40 Z Z" stroke-miterlimit="10"/></g><g transform="translate(5,5) scale(1,1)"><g><path fill="none" stroke="none"/><text fill="#000000" stroke="none" font-family="Arial" font-size="13px" font-style="normal" font-weight="bold" text-decoration="none" x="302.197265625" y="59.5">System</text></g></g><g transform="translate(5,5) scale(1,1)"><path fill="none" stroke="#000000" d="M 324.5 80 L 324.5 464" stroke-miterlimit="10" stroke-dasharray="3"/></g><g transform="translate(5,5) scale(1,1)"><rect fill="#C0C0C0" stroke="none" x="87" y="47" width="86.20263671875" height="39" opacity="0.2"/></g><g transform="translate(5,5) scale(1,1)"><rect fill="#ffffff" stroke="none" x="80" y="40" width="86.20263671875" height="39"/></g><g transform="translate(5,5) scale(1,1)"><path fill="none" stroke="#000000" d="M 80 40 L 166.20263671875 40 L 166.20263671875 79 L 80 79 L 80 40 Z Z" stroke-miterlimit="10"/></g><g transform="translate(5,5) scale(1,1)"><g><path fill="none" stroke="none"/><text fill="#000000" stroke="none" font-family="Arial" font-size="13px" font-style="normal" font-weight="bold" text-decoration="none" x="91.68359375" y="59.5">Taxi Driver</text></g></g><g transform="translate(5,5) scale(1,1)"><path fill="none" stroke="#000000" d="M 124.5 80 L 124.5 464" stroke-miterlimit="10" stroke-dasharray="3"/></g><g transform="translate(5,5) scale(1,1)"><path fill="none" stroke="#000000" d="M 56 128 L 407 128 L 407 328 L 56 328 L 56 128" stroke-miterlimit="10"/></g><g transform="translate(5,5) scale(1,1)"><path fill="#ffffff" stroke="none" d="M 56 128 L 56 150 L 118.96630859375 150 L 129.96630859375 139 L 129.96630859375 128 L 56 128"/></g><g transform="translate(5,5) scale(1,1)"><path fill="none" stroke="#000000" d="M 56 128 L 56 150 L 118.96630859375 150 L 129.96630859375 139 L 129.96630859375 128 L 56 128 L 56 128" stroke-miterlimit="10"/></g><g transform="translate(5,5) scale(1,1)"><g><path fill="none" stroke="none"/><text fill="#000000" stroke="none" font-family="Arial" font-size="13px" font-style="normal" font-weight="normal" text-decoration="none" x="80.72998046875" y="145.5">Reply</text></g></g><g transform="translate(5,5) scale(1,1)"><g><path fill="none" stroke="none"/><text fill="#000000" stroke="none" font-family="Arial" font-size="13px" font-style="normal" font-weight="bold" text-decoration="none" x="61" y="145.5">alt</text></g></g><g transform="translate(5,5) scale(1,1)"><path fill="none" stroke="#000000" d="M 56 225 L 407 225" stroke-miterlimit="10" stroke-dasharray="10,3"/></g><g transform="translate(5,5) scale(1,1)"><path fill="none" stroke="#000000" d="M 124 182 L 317 182" stroke-miterlimit="10"/></g><g transform="translate(5,5) scale(1,1)"><path fill="#000000" stroke="none" d="M 306.83732514237585 186.209517756016 L 317 182 L 306.83732514237585 177.790482243984"/></g><g transform="translate(5,5) scale(1,1)"><path fill="none" stroke="#000000" d="M 306.83732514237585 186.209517756016 L 317 182 L 306.83732514237585 177.790482243984 L 306.83732514237585 186.209517756016" stroke-miterlimit="10"/></g><g transform="translate(5,5) scale(1,1)"><g><path fill="none" stroke="none"/><text fill="#000000" stroke="none" font-family="Arial" font-size="13px" font-style="normal" font-weight="normal" text-decoration="none" x="158" y="179">1 : ConfirmAvailability</text></g></g><g transform="translate(5,5) scale(1,1)"><rect fill="#ffffff" stroke="none" x="317" y="182" width="13" height="28"/></g><g transform="translate(5,5) scale(1,1)"><path fill="none" stroke="#000000" d="M 317 182 L 330 182 L 330 210 L 317 210 L 317 182 Z Z" stroke-miterlimit="10"/></g><g transform="translate(5,5) scale(1,1)"><path fill="none" stroke="#000000" d="M 124 265 L 317 265" stroke-miterlimit="10"/></g><g transform="translate(5,5) scale(1,1)"><path fill="#000000" stroke="none" d="M 306.83732514237585 269.209517756016 L 317 265 L 306.83732514237585 260.790482243984"/></g><g transform="translate(5,5) scale(1,1)"><path fill="none" stroke="#000000" d="M 306.83732514237585 269.209517756016 L 317 265 L 306.83732514237585 260.790482243984 L 306.83732514237585 269.209517756016" stroke-miterlimit="10"/></g><g transform="translate(5,5) scale(1,1)"><g><path fill="none" stroke="none"/><text fill="#000000" stroke="none" font-family="Arial" font-size="13px" font-style="normal" font-weight="normal" text-decoration="none" x="160" y="262">2 : NegateAvailability</text></g></g><g transform="translate(5,5) scale(1,1)"><rect fill="#ffffff" stroke="none" x="317" y="265" width="13" height="28"/></g><g transform="translate(5,5) scale(1,1)"><path fill="none" stroke="#000000" d="M 317 265 L 330 265 L 330 293 L 317 293 L 317 265 Z Z" stroke-miterlimit="10"/></g><g transform="translate(5,5) scale(1,1)"><path fill="none" stroke="#000000" d="M 324 344 L 354 344 L 354 364 L 330 364" stroke-miterlimit="10"/></g><g transform="translate(5,5) scale(1,1)"><path fill="#000000" stroke="none" d="M 340.16267485762415 359.790482243984 L 330 364 L 340.16267485762415 368.209517756016"/></g><g transform="translate(5,5) scale(1,1)"><path fill="none" stroke="#000000" d="M 340.16267485762415 359.790482243984 L 330 364 L 340.16267485762415 368.209517756016 L 340.16267485762415 359.790482243984" stroke-miterlimit="10"/></g><g transform="translate(5,5) scale(1,1)"><g><path fill="none" stroke="none"/><text fill="#000000" stroke="none" font-family="Arial" font-size="13px" font-style="normal" font-weight="normal" text-decoration="none" x="192" y="364">3 : Update Queue</text></g></g><g transform="translate(5,5) scale(1,1)"><rect fill="#ffffff" stroke="none" x="317" y="364" width="13" height="44"/></g><g transform="translate(5,5) scale(1,1)"><path fill="none" stroke="#000000" d="M 317 364 L 330 364 L 330 408 L 317 408 L 317 364 Z Z" stroke-miterlimit="10"/></g><g transform="translate(5,5) scale(1,1)"><path fill="none" stroke="#000000" d="M 324 408 L 130 408" stroke-miterlimit="10"/></g><g transform="translate(5,5) scale(1,1)"><path fill="#000000" stroke="none" d="M 140.16267485762415 403.790482243984 L 130 408 L 140.16267485762415 412.209517756016"/></g><g transform="translate(5,5) scale(1,1)"><path fill="none" stroke="#000000" d="M 140.16267485762415 403.790482243984 L 130 408 L 140.16267485762415 412.209517756016 L 140.16267485762415 403.790482243984" stroke-miterlimit="10"/></g><g transform="translate(5,5) scale(1,1)"><g><path fill="none" stroke="none"/><text fill="#000000" stroke="none" font-family="Arial" font-size="13px" font-style="normal" font-weight="normal" text-decoration="none" x="171" y="425">4 : ConfirmRequest</text></g></g><g transform="translate(5,5) scale(1,1)"><rect fill="#ffffff" stroke="none" x="117" y="408" width="13" height="28"/></g><g transform="translate(5,5) scale(1,1)"><path fill="none" stroke="#000000" d="M 117 408 L 130 408 L 130 436 L 117 436 L 117 408 Z Z" stroke-miterlimit="10"/></g></g></svg>