<svg version="1.1" xmlns="http://www.w3.org/2000/svg" xmlns:xlink="http://www.w3.org/1999/xlink" width="380" height="679"><defs/><g><g transform="translate(2,5) scale(1,1)"><path fill="none" stroke="#000000" d="M 8 5 L 368 5 L 368 664 L 8 664 L 8 5" stroke-miterlimit="10"/></g><g transform="translate(2,5) scale(1,1)"><path fill="#ffffff" stroke="none" d="M 8 5 L 8 27 L 160.56982421875 27 L 171.56982421875 16 L 171.56982421875 5 L 8 5"/></g><g transform="translate(2,5) scale(1,1)"><path fill="none" stroke="#000000" d="M 8 5 L 8 27 L 160.56982421875 27 L 171.56982421875 16 L 171.56982421875 5 L 8 5 L 8 5" stroke-miterlimit="10"/></g><g transform="translate(2,5) scale(1,1)"><g><path fill="none" stroke="none"/><text fill="#000000" stroke="none" font-family="Arial" font-size="13px" font-style="normal" font-weight="normal" text-decoration="none" x="78.97900390625" y="22.5">Taxi Request</text></g></g><g transform="translate(2,5) scale(1,1)"><g><path fill="none" stroke="none"/><text fill="#000000" stroke="none" font-family="Arial" font-size="13px" font-style="normal" font-weight="bold" text-decoration="none" x="13" y="22.5">interaction</text></g></g><g transform="translate(2,5) scale(1,1)"><rect fill="#C0C0C0" stroke="none" x="55" y="47" width="71.736328125" height="39" opacity="0.2"/></g><g transform="translate(2,5) scale(1,1)"><rect fill="#ffffff" stroke="none" x="48" y="40" width="71.736328125" height="39"/></g><g transform="translate(2,5) scale(1,1)"><path fill="none" stroke="#000000" d="M 48 40 L 119.736328125 40 L 119.736328125 79 L 48 79 L 48 40 Z Z" stroke-miterlimit="10"/></g><g transform="translate(2,5) scale(1,1)"><g><path fill="none" stroke="none"/><text fill="#000000" stroke="none" font-family="Arial" font-size="13px" font-style="normal" font-weight="bold" text-decoration="none" x="70.14453125" y="59.5">User</text></g></g><g transform="translate(2,5) scale(1,1)"><path fill="none" stroke="#000000" d="M 84.5 80 L 84.5 656" stroke-miterlimit="10" stroke-dasharray="3"/></g><g transform="translate(2,5) scale(1,1)"><rect fill="#C0C0C0" stroke="none" x="255" y="47" width="71.736328125" height="39" opacity="0.2"/></g><g transform="translate(2,5) scale(1,1)"><rect fill="#ffffff" stroke="none" x="248" y="40" width="71.736328125" height="39"/></g><g transform="translate(2,5) scale(1,1)"><path fill="none" stroke="#000000" d="M 248 40 L 319.736328125 40 L 319.736328125 79 L 248 79 L 248 40 Z Z" stroke-miterlimit="10"/></g><g transform="translate(2,5) scale(1,1)"><g><path fill="none" stroke="none"/><text fill="#000000" stroke="none" font-family="Arial" font-size="13px" font-style="normal" font-weight="bold" text-decoration="none" x="262.197265625" y="59.5">System</text></g></g><g transform="translate(2,5) scale(1,1)"><path fill="none" stroke="#000000" d="M 284.5 80 L 284.5 656" stroke-miterlimit="10" stroke-dasharray="3"/></g><g transform="translate(2,5) scale(1,1)"><path fill="none" stroke="#000000" d="M 56 408 L 304 408 L 304 640 L 56 640 L 56 408" stroke-miterlimit="10"/></g><g transform="translate(2,5) scale(1,1)"><path fill="#ffffff" stroke="none" d="M 56 408 L 56 430 L 151.49169921875 430 L 162.49169921875 419 L 162.49169921875 408 L 56 408"/></g><g transform="translate(2,5) scale(1,1)"><path fill="none" stroke="#000000" d="M 56 408 L 56 430 L 151.49169921875 430 L 162.49169921875 419 L 162.49169921875 408 L 56 408 L 56 408" stroke-miterlimit="10"/></g><g transform="translate(2,5) scale(1,1)"><g><path fill="none" stroke="none"/><text fill="#000000" stroke="none" font-family="Arial" font-size="13px" font-style="normal" font-weight="normal" text-decoration="none" x="80.72998046875" y="425.5">if exception</text></g></g><g transform="translate(2,5) scale(1,1)"><g><path fill="none" stroke="none"/><text fill="#000000" stroke="none" font-family="Arial" font-size="13px" font-style="normal" font-weight="bold" text-decoration="none" x="61" y="425.5">alt</text></g></g><g transform="translate(2,5) scale(1,1)"><path fill="none" stroke="#000000" d="M 56 513 L 304 513" stroke-miterlimit="10" stroke-dasharray="10,3"/></g><g transform="translate(2,5) scale(1,1)"><g><path fill="none" stroke="none"/><text fill="#000000" stroke="none" font-family="Arial" font-size="13px" font-style="normal" font-weight="normal" text-decoration="none" x="93" y="530">[Incorrect information]</text></g></g><g transform="translate(2,5) scale(1,1)"><path fill="none" stroke="#000000" d="M 40 208 L 327 208 L 327 296 L 40 296 L 40 208" stroke-miterlimit="10"/></g><g transform="translate(2,5) scale(1,1)"><path fill="#ffffff" stroke="none" d="M 40 208 L 40 230 L 144.8798828125 230 L 155.8798828125 219 L 155.8798828125 208 L 40 208"/></g><g transform="translate(2,5) scale(1,1)"><path fill="none" stroke="#000000" d="M 40 208 L 40 230 L 144.8798828125 230 L 155.8798828125 219 L 155.8798828125 208 L 40 208 L 40 208" stroke-miterlimit="10"/></g><g transform="translate(2,5) scale(1,1)"><g><path fill="none" stroke="none"/><text fill="#000000" stroke="none" font-family="Arial" font-size="13px" font-style="normal" font-weight="normal" text-decoration="none" x="69.07177734375" y="225.5">Taxi sharing</text></g></g><g transform="translate(2,5) scale(1,1)"><g><path fill="none" stroke="none"/><text fill="#000000" stroke="none" font-family="Arial" font-size="13px" font-style="normal" font-weight="bold" text-decoration="none" x="45" y="225.5">opt</text></g></g><g transform="translate(2,5) scale(1,1)"><path fill="none" stroke="#000000" d="M 40 304 L 328 304 L 328 369 L 40 369 L 40 304" stroke-miterlimit="10"/></g><g transform="translate(2,5) scale(1,1)"><path fill="#ffffff" stroke="none" d="M 40 304 L 40 326 L 147.78076171875 326 L 158.78076171875 315 L 158.78076171875 304 L 40 304"/></g><g transform="translate(2,5) scale(1,1)"><path fill="none" stroke="#000000" d="M 40 304 L 40 326 L 147.78076171875 326 L 158.78076171875 315 L 158.78076171875 304 L 40 304 L 40 304" stroke-miterlimit="10"/></g><g transform="translate(2,5) scale(1,1)"><g><path fill="none" stroke="none"/><text fill="#000000" stroke="none" font-family="Arial" font-size="13px" font-style="normal" font-weight="normal" text-decoration="none" x="69.07177734375" y="321.5">Taxi booking</text></g></g><g transform="translate(2,5) scale(1,1)"><g><path fill="none" stroke="none"/><text fill="#000000" stroke="none" font-family="Arial" font-size="13px" font-style="normal" font-weight="bold" text-decoration="none" x="45" y="321.5">opt</text></g></g><g transform="translate(2,5) scale(1,1)"><path fill="none" stroke="#000000" d="M 84 120 L 277 120" stroke-miterlimit="10"/></g><g transform="translate(2,5) scale(1,1)"><path fill="#000000" stroke="none" d="M 266.83732514237585 124.20951775601598 L 277 120 L 266.83732514237585 115.79048224398402"/></g><g transform="translate(2,5) scale(1,1)"><path fill="none" stroke="#000000" d="M 266.83732514237585 124.20951775601598 L 277 120 L 266.83732514237585 115.79048224398402 L 266.83732514237585 124.20951775601598" stroke-miterlimit="10"/></g><g transform="translate(2,5) scale(1,1)"><g><path fill="none" stroke="none"/><text fill="#000000" stroke="none" font-family="Arial" font-size="13px" font-style="normal" font-weight="normal" text-decoration="none" x="104" y="116">1 : AskTaxiRequestPage</text></g></g><g transform="translate(2,5) scale(1,1)"><rect fill="#ffffff" stroke="none" x="277" y="120" width="13" height="28"/></g><g transform="translate(2,5) scale(1,1)"><path fill="none" stroke="#000000" d="M 277 120 L 290 120 L 290 148 L 277 148 L 277 120 Z Z" stroke-miterlimit="10"/></g><g transform="translate(2,5) scale(1,1)"><path fill="none" stroke="#000000" d="M 277 144 L 84 144" stroke-miterlimit="10" stroke-dasharray="3"/></g><g transform="translate(2,5) scale(1,1)"><path fill="none" stroke="#000000" d="M 94.16267485762415 139.790482243984 L 84 144 L 94.16267485762415 148.209517756016" stroke-miterlimit="10"/></g><g transform="translate(2,5) scale(1,1)"><g><path fill="none" stroke="none"/><text fill="#000000" stroke="none" font-family="Arial" font-size="13px" font-style="normal" font-weight="normal" text-decoration="none" x="170" y="161">2 : </text></g></g><g transform="translate(2,5) scale(1,1)"><path fill="none" stroke="#000000" d="M 84 152 L 114 152 L 114 172 L 90 172" stroke-miterlimit="10"/></g><g transform="translate(2,5) scale(1,1)"><path fill="#000000" stroke="none" d="M 100.16267485762415 167.790482243984 L 90 172 L 100.16267485762415 176.209517756016"/></g><g transform="translate(2,5) scale(1,1)"><path fill="none" stroke="#000000" d="M 100.16267485762415 167.790482243984 L 90 172 L 100.16267485762415 176.209517756016 L 100.16267485762415 167.790482243984" stroke-miterlimit="10"/></g><g transform="translate(2,5) scale(1,1)"><g><path fill="none" stroke="none"/><text fill="#000000" stroke="none" font-family="Arial" font-size="13px" font-style="normal" font-weight="normal" text-decoration="none" x="119" y="173">3 : Fill the form</text></g></g><g transform="translate(2,5) scale(1,1)"><rect fill="#ffffff" stroke="none" x="77" y="172" width="13" height="28"/></g><g transform="translate(2,5) scale(1,1)"><path fill="none" stroke="#000000" d="M 77 172 L 90 172 L 90 200 L 77 200 L 77 172 Z Z" stroke-miterlimit="10"/></g><g transform="translate(2,5) scale(1,1)"><path fill="none" stroke="#000000" d="M 84 240 L 114 240 L 114 260 L 90 260" stroke-miterlimit="10"/></g><g transform="translate(2,5) scale(1,1)"><path fill="#000000" stroke="none" d="M 100.16267485762415 255.790482243984 L 90 260 L 100.16267485762415 264.209517756016"/></g><g transform="translate(2,5) scale(1,1)"><path fill="none" stroke="#000000" d="M 100.16267485762415 255.790482243984 L 90 260 L 100.16267485762415 264.209517756016 L 100.16267485762415 255.790482243984" stroke-miterlimit="10"/></g><g transform="translate(2,5) scale(1,1)"><g><path fill="none" stroke="none"/><text fill="#000000" stroke="none" font-family="Arial" font-size="13px" font-style="normal" font-weight="normal" text-decoration="none" x="118" y="261">4 : fill Taxi sharing form</text></g></g><g transform="translate(2,5) scale(1,1)"><rect fill="#ffffff" stroke="none" x="77" y="260" width="13" height="28"/></g><g transform="translate(2,5) scale(1,1)"><path fill="none" stroke="#000000" d="M 77 260 L 90 260 L 90 288 L 77 288 L 77 260 Z Z" stroke-miterlimit="10"/></g><g transform="translate(2,5) scale(1,1)"><path fill="none" stroke="#000000" d="M 84 328 L 114 328 L 114 348 L 90 348" stroke-miterlimit="10"/></g><g transform="translate(2,5) scale(1,1)"><path fill="#000000" stroke="none" d="M 100.16267485762415 343.790482243984 L 90 348 L 100.16267485762415 352.209517756016"/></g><g transform="translate(2,5) scale(1,1)"><path fill="none" stroke="#000000" d="M 100.16267485762415 343.790482243984 L 90 348 L 100.16267485762415 352.209517756016 L 100.16267485762415 343.790482243984" stroke-miterlimit="10"/></g><g transform="translate(2,5) scale(1,1)"><g><path fill="none" stroke="none"/><text fill="#000000" stroke="none" font-family="Arial" font-size="13px" font-style="normal" font-weight="normal" text-decoration="none" x="128" y="344">5 : fill Taxi booking form</text></g></g><g transform="translate(2,5) scale(1,1)"><rect fill="#ffffff" stroke="none" x="77" y="348" width="13" height="28"/></g><g transform="translate(2,5) scale(1,1)"><path fill="none" stroke="#000000" d="M 77 348 L 90 348 L 90 376 L 77 376 L 77 348 Z Z" stroke-miterlimit="10"/></g><g transform="translate(2,5) scale(1,1)"><path fill="none" stroke="#000000" d="M 84 384 L 277 384" stroke-miterlimit="10"/></g><g transform="translate(2,5) scale(1,1)"><path fill="#000000" stroke="none" d="M 266.83732514237585 388.209517756016 L 277 384 L 266.83732514237585 379.790482243984"/></g><g transform="translate(2,5) scale(1,1)"><path fill="none" stroke="#000000" d="M 266.83732514237585 388.209517756016 L 277 384 L 266.83732514237585 379.790482243984 L 266.83732514237585 388.209517756016" stroke-miterlimit="10"/></g><g transform="translate(2,5) scale(1,1)"><g><path fill="none" stroke="none"/><text fill="#000000" stroke="none" font-family="Arial" font-size="13px" font-style="normal" font-weight="normal" text-decoration="none" x="130" y="397">6 : SendRequest</text></g></g><g transform="translate(2,5) scale(1,1)"><rect fill="#ffffff" stroke="none" x="277" y="384" width="13" height="64"/></g><g transform="translate(2,5) scale(1,1)"><path fill="none" stroke="#000000" d="M 277 384 L 290 384 L 290 448 L 277 448 L 277 384 Z Z" stroke-miterlimit="10"/></g><g transform="translate(2,5) scale(1,1)"><path fill="none" stroke="#000000" d="M 284 448 L 90 448" stroke-miterlimit="10"/></g><g transform="translate(2,5) scale(1,1)"><path fill="#000000" stroke="none" d="M 100.16267485762415 443.790482243984 L 90 448 L 100.16267485762415 452.209517756016"/></g><g transform="translate(2,5) scale(1,1)"><path fill="none" stroke="#000000" d="M 100.16267485762415 443.790482243984 L 90 448 L 100.16267485762415 452.209517756016 L 100.16267485762415 443.790482243984" stroke-miterlimit="10"/></g><g transform="translate(2,5) scale(1,1)"><g><path fill="none" stroke="none"/><text fill="#000000" stroke="none" font-family="Arial" font-size="13px" font-style="normal" font-weight="normal" text-decoration="none" x="131" y="465">7 : ConfirmRequest</text></g></g><g transform="translate(2,5) scale(1,1)"><rect fill="#ffffff" stroke="none" x="77" y="448" width="13" height="40"/></g><g transform="translate(2,5) scale(1,1)"><path fill="none" stroke="#000000" d="M 77 448 L 90 448 L 90 488 L 77 488 L 77 448 Z Z" stroke-miterlimit="10"/></g><g transform="translate(2,5) scale(1,1)"><path fill="none" stroke="#000000" d="M 284 544 L 90 544" stroke-miterlimit="10"/></g><g transform="translate(2,5) scale(1,1)"><path fill="#000000" stroke="none" d="M 100.16267485762415 539.790482243984 L 90 544 L 100.16267485762415 548.209517756016"/></g><g transform="translate(2,5) scale(1,1)"><path fill="none" stroke="#000000" d="M 100.16267485762415 539.790482243984 L 90 544 L 100.16267485762415 548.209517756016 L 100.16267485762415 539.790482243984" stroke-miterlimit="10"/></g><g transform="translate(2,5) scale(1,1)"><g><path fill="none" stroke="none"/><text fill="#000000" stroke="none" font-family="Arial" font-size="13px" font-style="normal" font-weight="normal" text-decoration="none" x="120" y="561">8 : ShowErrorMessage</text></g></g><g transform="translate(2,5) scale(1,1)"><rect fill="#ffffff" stroke="none" x="77" y="544" width="13" height="56"/></g><g transform="translate(2,5) scale(1,1)"><path fill="none" stroke="#000000" d="M 77 544 L 90 544 L 90 600 L 77 600 L 77 544 Z Z" stroke-miterlimit="10"/></g><g transform="translate(2,5) scale(1,1)"><path fill="none" stroke="#000000" d="M 90 578 L 277 578" stroke-miterlimit="10"/></g><g transform="translate(2,5) scale(1,1)"><path fill="#000000" stroke="none" d="M 266.83732514237585 582.209517756016 L 277 578 L 266.83732514237585 573.790482243984"/></g><g transform="translate(2,5) scale(1,1)"><path fill="none" stroke="#000000" d="M 266.83732514237585 582.209517756016 L 277 578 L 266.83732514237585 573.790482243984 L 266.83732514237585 582.209517756016" stroke-miterlimit="10"/></g><g transform="translate(2,5) scale(1,1)"><g><path fill="none" stroke="none"/><text fill="#000000" stroke="none" font-family="Arial" font-size="13px" font-style="normal" font-weight="normal" text-decoration="none" x="124" y="575">9 : OkButtonPressed</text></g></g><g transform="translate(2,5) scale(1,1)"><rect fill="#ffffff" stroke="none" x="277" y="578" width="13" height="28"/></g><g transform="translate(2,5) scale(1,1)"><path fill="none" stroke="#000000" d="M 277 578 L 290 578 L 290 606 L 277 606 L 277 578 Z Z" stroke-miterlimit="10"/></g></g></svg>