<svg version="1.1" xmlns="http://www.w3.org/2000/svg" xmlns:xlink="http://www.w3.org/1999/xlink" width="953.23583984375" height="1000"><defs/><g><g transform="translate(-38,-78) scale(1,1)"><rect fill="#C0C0C0" stroke="none" x="127" y="95" width="220.15625" height="136" opacity="0.2"/></g><g transform="translate(-38,-78) scale(1,1)"><rect fill="#ffffff" stroke="none" x="120" y="88" width="220.15625" height="136"/></g><g transform="translate(-38,-78) scale(1,1)"><path fill="none" stroke="#000000" d="M 120 88 L 340.15625 88 L 340.15625 224 L 120 224 L 120 88 Z Z" stroke-miterlimit="10"/></g><g transform="translate(-38,-78) scale(1,1)"><path fill="none" stroke="#000000" d="M 120 116 L 340.15625 116" stroke-miterlimit="10"/></g><g transform="translate(-38,-78) scale(1,1)"><path fill="none" stroke="#000000" d="M 120 142 L 340.15625 142" stroke-miterlimit="10"/></g><g transform="translate(-38,-78) scale(1,1)"><g><path fill="none" stroke="none"/><text fill="#000000" stroke="none" font-family="Arial" font-size="16px" font-style="normal" font-weight="bold" text-decoration="none" x="206.05859375" y="110.5">Queue</text></g></g><g transform="translate(-38,-78) scale(1,1)"><g><path fill="none" stroke="none"/><text fill="#000000" stroke="none" font-family="Arial" font-size="16px" font-style="normal" font-weight="normal" text-decoration="none" x="125" y="136.5">-id: long {id}</text></g></g><g transform="translate(-38,-78) scale(1,1)"><g><path fill="none" stroke="none"/><text fill="#000000" stroke="none" font-family="Arial" font-size="16px" font-style="normal" font-weight="normal" text-decoration="none" x="125" y="162.5">+getFirst(int seat): Taxi Driver</text></g></g><g transform="translate(-38,-78) scale(1,1)"><g><path fill="none" stroke="none"/><text fill="#000000" stroke="none" font-family="Arial" font-size="16px" font-style="normal" font-weight="normal" text-decoration="none" x="125" y="180.5">+isEmpty(): boolean</text></g></g><g transform="translate(-38,-78) scale(1,1)"><g><path fill="none" stroke="none"/><text fill="#000000" stroke="none" font-family="Arial" font-size="16px" font-style="normal" font-weight="normal" text-decoration="none" x="125" y="198.5">+pop(Taxi Driver): void</text></g></g><g transform="translate(-38,-78) scale(1,1)"><g><path fill="none" stroke="none"/><text fill="#000000" stroke="none" font-family="Arial" font-size="16px" font-style="normal" font-weight="normal" text-decoration="none" x="125" y="216.5">+push(Taxi Driver): void</text></g></g><g transform="translate(-38,-78) scale(1,1)"><rect fill="#C0C0C0" stroke="none" x="503" y="95" width="383.78125" height="153" opacity="0.2"/></g><g transform="translate(-38,-78) scale(1,1)"><rect fill="#ffffff" stroke="none" x="496" y="88" width="383.78125" height="153"/></g><g transform="translate(-38,-78) scale(1,1)"><path fill="none" stroke="#000000" d="M 496 88 L 879.78125 88 L 879.78125 241 L 496 241 L 496 88 Z Z" stroke-miterlimit="10"/></g><g transform="translate(-38,-78) scale(1,1)"><path fill="none" stroke="#000000" d="M 496 116 L 879.78125 116" stroke-miterlimit="10"/></g><g transform="translate(-38,-78) scale(1,1)"><path fill="none" stroke="#000000" d="M 496 126 L 879.78125 126" stroke-miterlimit="10"/></g><g transform="translate(-38,-78) scale(1,1)"><g><path fill="none" stroke="none"/><text fill="#000000" stroke="none" font-family="Arial" font-size="16px" font-style="normal" font-weight="bold" text-decoration="none" x="632.296875" y="110.5">QueueManager</text></g></g><g transform="translate(-38,-78) scale(1,1)"><g><path fill="none" stroke="none"/><text fill="#000000" stroke="none" font-family="Arial" font-size="16px" font-style="normal" font-weight="normal" text-decoration="none" x="501" y="146.5">+addNewTaxiDriver(Taxi Driver, Position): void</text></g></g><g transform="translate(-38,-78) scale(1,1)"><g><path fill="none" stroke="none"/><text fill="#000000" stroke="none" font-family="Arial" font-size="16px" font-style="normal" font-weight="normal" text-decoration="none" x="501" y="164.5">+getTaxiDriver(Position, int seats): Taxi Driver</text></g></g><g transform="translate(-38,-78) scale(1,1)"><g><path fill="none" stroke="none"/><text fill="#000000" stroke="none" font-family="Arial" font-size="16px" font-style="normal" font-weight="normal" text-decoration="none" x="501" y="182.5">+requestToTaxi(TaxiDriver): boolean</text></g></g><g transform="translate(-38,-78) scale(1,1)"><g><path fill="none" stroke="none"/><text fill="#000000" stroke="none" font-family="Arial" font-size="16px" font-style="normal" font-weight="normal" text-decoration="none" x="501" y="200.5">+removeTaxiDriverFromQueue(Taxi Driver): boolean</text></g></g><g transform="translate(-38,-78) scale(1,1)"><g><path fill="none" stroke="none"/><text fill="#000000" stroke="none" font-family="Arial" font-size="16px" font-style="normal" font-weight="normal" text-decoration="none" x="501" y="218.5">-getQueue(int ID): Queue</text></g></g><g transform="translate(-38,-78) scale(1,1)"><g><path fill="none" stroke="none"/><text fill="#000000" stroke="none" font-family="Arial" font-size="16px" font-style="normal" font-weight="normal" text-decoration="none" x="501" y="236.5">-getQueue(Position): Queue</text></g></g><g transform="translate(-38,-78) scale(1,1)"><path fill="none" stroke="#000000" d="M 341 158 L 495 161" stroke-miterlimit="10"/></g><g transform="translate(-38,-78) scale(1,1)"><path fill="#FFFFFF" stroke="none" d="M 484.75726487642487 165.01078261543557 L 495 161 L 484.9212409509828 156.593344121462 L 473.0041732092987 160.57150986771362"/></g><g transform="translate(-38,-78) scale(1,1)"><path fill="none" stroke="#000000" d="M 484.75726487642487 165.01078261543557 L 495 161 L 484.9212409509828 156.593344121462 L 473.0041732092987 160.57150986771362 L 484.75726487642487 165.01078261543557" stroke-miterlimit="10"/></g><g transform="translate(-38,-78) scale(1,1)"><g><path fill="none" stroke="none"/><text fill="#000000" stroke="none" font-family="Arial" font-size="13px" font-style="normal" font-weight="normal" text-decoration="none" x="360" y="150">+1</text></g></g><g transform="translate(-38,-78) scale(1,1)"><g><path fill="none" stroke="none"/><text fill="#000000" stroke="none" font-family="Arial" font-size="13px" font-style="normal" font-weight="normal" text-decoration="none" x="462" y="152">+n</text></g></g><g transform="translate(-38,-78) scale(1,1)"><rect fill="#C0C0C0" stroke="none" x="271" y="375" width="171.3203125" height="87" opacity="0.2"/></g><g transform="translate(-38,-78) scale(1,1)"><rect fill="#ffffff" stroke="none" x="264" y="368" width="171.3203125" height="87"/></g><g transform="translate(-38,-78) scale(1,1)"><path fill="none" stroke="#000000" d="M 264 368 L 435.3203125 368 L 435.3203125 455 L 264 455 L 264 368 Z Z" stroke-miterlimit="10"/></g><g transform="translate(-38,-78) scale(1,1)"><path fill="none" stroke="#000000" d="M 264 396 L 435.3203125 396" stroke-miterlimit="10"/></g><g transform="translate(-38,-78) scale(1,1)"><path fill="none" stroke="#000000" d="M 264 406 L 435.3203125 406" stroke-miterlimit="10"/></g><g transform="translate(-38,-78) scale(1,1)"><g><path fill="none" stroke="none"/><text fill="#000000" stroke="none" font-family="Arial" font-size="16px" font-style="normal" font-weight="bold" text-decoration="none" x="313.21484375" y="390.5">TaxiDriver</text></g></g><g transform="translate(-38,-78) scale(1,1)"><g><path fill="none" stroke="none"/><text fill="#000000" stroke="none" font-family="Arial" font-size="16px" font-style="normal" font-weight="normal" text-decoration="none" x="269" y="426.5">+isAvailable(): boolean</text></g></g><g transform="translate(-38,-78) scale(1,1)"><g><path fill="none" stroke="none"/><text fill="#000000" stroke="none" font-family="Arial" font-size="16px" font-style="normal" font-weight="normal" text-decoration="none" x="269" y="444.5">+getTypeOfCar(): Car</text></g></g><g transform="translate(-38,-78) scale(1,1)"><path fill="none" stroke="#000000" d="M 328 367 L 262 225" stroke-miterlimit="10"/></g><g transform="translate(-38,-78) scale(1,1)"><path fill="#FFFFFF" stroke="none" d="M 270.1007671965852 232.44161076828996 L 262 225 L 262.4660939803103 235.9901208547276 L 271.2727037188594 244.95036254663688"/></g><g transform="translate(-38,-78) scale(1,1)"><path fill="none" stroke="#000000" d="M 270.1007671965852 232.44161076828996 L 262 225 L 262.4660939803103 235.9901208547276 L 271.2727037188594 244.95036254663688 L 270.1007671965852 232.44161076828996" stroke-miterlimit="10"/></g><g transform="translate(-38,-78) scale(1,1)"><g><path fill="none" stroke="none"/><text fill="#000000" stroke="none" font-family="Arial" font-size="13px" font-style="normal" font-weight="normal" text-decoration="none" x="251" y="264">+n</text></g></g><g transform="translate(-38,-78) scale(1,1)"><g><path fill="none" stroke="none"/><text fill="#000000" stroke="none" font-family="Arial" font-size="13px" font-style="normal" font-weight="normal" text-decoration="none" x="284" y="354">+0,1</text></g></g><g transform="translate(-38,-78) scale(1,1)"><rect fill="#C0C0C0" stroke="none" x="103" y="559" width="104" height="88" opacity="0.2"/></g><g transform="translate(-38,-78) scale(1,1)"><rect fill="#ffffff" stroke="none" x="96" y="552" width="104" height="88"/></g><g transform="translate(-38,-78) scale(1,1)"><path fill="none" stroke="#000000" d="M 96 552 L 200 552 L 200 640 L 96 640 L 96 552 Z Z" stroke-miterlimit="10"/></g><g transform="translate(-38,-78) scale(1,1)"><path fill="none" stroke="#000000" d="M 96 580 L 200 580" stroke-miterlimit="10"/></g><g transform="translate(-38,-78) scale(1,1)"><path fill="none" stroke="#000000" d="M 96 590 L 200 590" stroke-miterlimit="10"/></g><g transform="translate(-38,-78) scale(1,1)"><g><path fill="none" stroke="none"/><text fill="#000000" stroke="none" font-family="Arial" font-size="16px" font-style="normal" font-weight="bold" text-decoration="none" x="131.109375" y="574.5">User</text></g></g><g transform="translate(-38,-78) scale(1,1)"><path fill="none" stroke="#000000" d="M 300 456 L 197 551" stroke-miterlimit="10"/></g><g transform="translate(-38,-78) scale(1,1)"><path fill="#FFFFFF" stroke="none" d="M 206.2327286839324 531.0311061636131 L 197 551 L 217.6486653057676 543.4083848167608"/></g><g transform="translate(-38,-78) scale(1,1)"><path fill="none" stroke="#000000" d="M 206.2327286839324 531.0311061636131 L 197 551 L 217.6486653057676 543.4083848167608 L 206.2327286839324 531.0311061636131" stroke-miterlimit="10"/></g><g transform="translate(-38,-78) scale(1,1)"><rect fill="#C0C0C0" stroke="none" x="287" y="559" width="144" height="80" opacity="0.2"/></g><g transform="translate(-38,-78) scale(1,1)"><rect fill="#ffffff" stroke="none" x="280" y="552" width="144" height="80"/></g><g transform="translate(-38,-78) scale(1,1)"><path fill="none" stroke="#000000" d="M 280 552 L 424 552 L 424 632 L 280 632 L 280 552 Z Z" stroke-miterlimit="10"/></g><g transform="translate(-38,-78) scale(1,1)"><path fill="none" stroke="#000000" d="M 280 580 L 424 580" stroke-miterlimit="10"/></g><g transform="translate(-38,-78) scale(1,1)"><path fill="none" stroke="#000000" d="M 280 606 L 424 606" stroke-miterlimit="10"/></g><g transform="translate(-38,-78) scale(1,1)"><g><path fill="none" stroke="none"/><text fill="#000000" stroke="none" font-family="Arial" font-size="16px" font-style="normal" font-weight="bold" text-decoration="none" x="339.109375" y="574.5">Car</text></g></g><g transform="translate(-38,-78) scale(1,1)"><g><path fill="none" stroke="none"/><text fill="#000000" stroke="none" font-family="Arial" font-size="16px" font-style="normal" font-weight="normal" text-decoration="none" x="285" y="600.5">-id: String {id}</text></g></g><g transform="translate(-38,-78) scale(1,1)"><g><path fill="none" stroke="none"/><text fill="#000000" stroke="none" font-family="Arial" font-size="16px" font-style="normal" font-weight="normal" text-decoration="none" x="285" y="626.5">+getSeats(): int</text></g></g><g transform="translate(-38,-78) scale(1,1)"><path fill="none" stroke="#000000" d="M 351 551 L 350 456" stroke-miterlimit="10"/></g><g transform="translate(-38,-78) scale(1,1)"><path fill="#FFFFFF" stroke="none" d="M 354.31625415980244 466.1178036167929 L 350 456 L 345.8976850375729 466.206420133869 L 350.2315661185759 477.9987812647139"/></g><g transform="translate(-38,-78) scale(1,1)"><path fill="none" stroke="#000000" d="M 354.31625415980244 466.1178036167929 L 350 456 L 345.8976850375729 466.206420133869 L 350.2315661185759 477.9987812647139 L 354.31625415980244 466.1178036167929" stroke-miterlimit="10"/></g><g transform="translate(-38,-78) scale(1,1)"><g><path fill="none" stroke="none"/><text fill="#000000" stroke="none" font-family="Arial" font-size="13px" font-style="normal" font-weight="normal" text-decoration="none" x="327" y="549">+1</text></g></g><g transform="translate(-38,-78) scale(1,1)"><g><path fill="none" stroke="none"/><text fill="#000000" stroke="none" font-family="Arial" font-size="13px" font-style="normal" font-weight="normal" text-decoration="none" x="328" y="489">+1</text></g></g><g transform="translate(-38,-78) scale(1,1)"><rect fill="#C0C0C0" stroke="none" x="263" y="783" width="176" height="72" opacity="0.2"/></g><g transform="translate(-38,-78) scale(1,1)"><rect fill="#ffffff" stroke="none" x="256" y="776" width="176" height="72"/></g><g transform="translate(-38,-78) scale(1,1)"><path fill="none" stroke="#000000" d="M 256 776 L 432 776 L 432 848 L 256 848 L 256 776 Z Z" stroke-miterlimit="10"/></g><g transform="translate(-38,-78) scale(1,1)"><path fill="none" stroke="#000000" d="M 256 801 L 432 801" stroke-miterlimit="10"/></g><g transform="translate(-38,-78) scale(1,1)"><path fill="none" stroke="#000000" d="M 256 811 L 432 811" stroke-miterlimit="10"/></g><g transform="translate(-38,-78) scale(1,1)"><g><path fill="none" stroke="none"/><text fill="#000000" stroke="none" font-family="Arial" font-size="13px" font-style="normal" font-weight="bold" text-decoration="none" x="315.825927734375" y="795.5">Customer</text></g></g><g transform="translate(-38,-78) scale(1,1)"><path fill="none" stroke="#000000" d="M 310 775 L 189 641" stroke-miterlimit="10"/></g><g transform="translate(-38,-78) scale(1,1)"><path fill="#FFFFFF" stroke="none" d="M 208.87033922937536 650.4429666371086 L 189 641 L 196.37326586995056 661.7276373571863"/></g><g transform="translate(-38,-78) scale(1,1)"><path fill="none" stroke="#000000" d="M 208.87033922937536 650.4429666371086 L 189 641 L 196.37326586995056 661.7276373571863 L 208.87033922937536 650.4429666371086" stroke-miterlimit="10"/></g><g transform="translate(-38,-78) scale(1,1)"><rect fill="#C0C0C0" stroke="none" x="487" y="543" width="182.7861328125" height="132" opacity="0.2"/></g><g transform="translate(-38,-78) scale(1,1)"><rect fill="#ffffff" stroke="none" x="480" y="536" width="182.7861328125" height="132"/></g><g transform="translate(-38,-78) scale(1,1)"><path fill="none" stroke="#000000" d="M 480 536 L 662.7861328125 536 L 662.7861328125 668 L 480 668 L 480 536 Z Z" stroke-miterlimit="10"/></g><g transform="translate(-38,-78) scale(1,1)"><path fill="none" stroke="#000000" d="M 480 561 L 662.7861328125 561" stroke-miterlimit="10"/></g><g transform="translate(-38,-78) scale(1,1)"><path fill="none" stroke="#000000" d="M 480 629 L 662.7861328125 629" stroke-miterlimit="10"/></g><g transform="translate(-38,-78) scale(1,1)"><g><path fill="none" stroke="none"/><text fill="#000000" stroke="none" font-family="Arial" font-size="13px" font-style="normal" font-weight="bold" text-decoration="none" x="558.02490234375" y="555.5">Ride</text></g></g><g transform="translate(-38,-78) scale(1,1)"><g><path fill="none" stroke="none"/><text fill="#000000" stroke="none" font-family="Arial" font-size="13px" font-style="normal" font-weight="normal" text-decoration="none" x="485" y="578.5">-numberOfPassengers: int</text></g></g><g transform="translate(-38,-78) scale(1,1)"><g><path fill="none" stroke="none"/><text fill="#000000" stroke="none" font-family="Arial" font-size="13px" font-style="normal" font-weight="normal" text-decoration="none" x="485" y="593.5">-startTime: Date</text></g></g><g transform="translate(-38,-78) scale(1,1)"><g><path fill="none" stroke="none"/><text fill="#000000" stroke="none" font-family="Arial" font-size="13px" font-style="normal" font-weight="normal" text-decoration="none" x="485" y="608.5">-endTime: Date</text></g></g><g transform="translate(-38,-78) scale(1,1)"><g><path fill="none" stroke="none"/><text fill="#000000" stroke="none" font-family="Arial" font-size="13px" font-style="normal" font-weight="normal" text-decoration="none" x="485" y="623.5">-succesfullRide: boolean</text></g></g><g transform="translate(-38,-78) scale(1,1)"><path fill="none" stroke="#000000" d="M 401 456 L 493 535" stroke-miterlimit="10"/></g><g transform="translate(-38,-78) scale(1,1)"><path fill="#FFFFFF" stroke="none" d="M 482.54746531205285 531.5729723378325 L 493 535 L 488.03221634079745 525.1856673423324 L 476.3091676950195 520.6676548685493"/></g><g transform="translate(-38,-78) scale(1,1)"><path fill="none" stroke="#000000" d="M 482.54746531205285 531.5729723378325 L 493 535 L 488.03221634079745 525.1856673423324 L 476.3091676950195 520.6676548685493 L 482.54746531205285 531.5729723378325" stroke-miterlimit="10"/></g><g transform="translate(-38,-78) scale(1,1)"><g><path fill="none" stroke="none"/><text fill="#000000" stroke="none" font-family="Arial" font-size="13px" font-style="normal" font-weight="normal" text-decoration="none" x="416" y="465">+n</text></g></g><g transform="translate(-38,-78) scale(1,1)"><g><path fill="none" stroke="none"/><text fill="#000000" stroke="none" font-family="Arial" font-size="13px" font-style="normal" font-weight="normal" text-decoration="none" x="476" y="513">+1</text></g></g><g transform="translate(-38,-78) scale(1,1)"><rect fill="#C0C0C0" stroke="none" x="487" y="951" width="233.34521484375" height="117" opacity="0.2"/></g><g transform="translate(-38,-78) scale(1,1)"><rect fill="#ffffff" stroke="none" x="480" y="944" width="233.34521484375" height="117"/></g><g transform="translate(-38,-78) scale(1,1)"><path fill="none" stroke="#000000" d="M 480 944 L 713.34521484375 944 L 713.34521484375 1061 L 480 1061 L 480 944 Z Z" stroke-miterlimit="10"/></g><g transform="translate(-38,-78) scale(1,1)"><path fill="none" stroke="#000000" d="M 480 969 L 713.34521484375 969" stroke-miterlimit="10"/></g><g transform="translate(-38,-78) scale(1,1)"><path fill="none" stroke="#000000" d="M 480 1037 L 713.34521484375 1037" stroke-miterlimit="10"/></g><g transform="translate(-38,-78) scale(1,1)"><g><path fill="none" stroke="none"/><text fill="#000000" stroke="none" font-family="Arial" font-size="13px" font-style="normal" font-weight="bold" text-decoration="none" x="572.462646484375" y="963.5">Request</text></g></g><g transform="translate(-38,-78) scale(1,1)"><g><path fill="none" stroke="none"/><text fill="#000000" stroke="none" font-family="Arial" font-size="13px" font-style="normal" font-weight="normal" text-decoration="none" x="485" y="986.5">+destination: Position</text></g></g><g transform="translate(-38,-78) scale(1,1)"><g><path fill="none" stroke="none"/><text fill="#000000" stroke="none" font-family="Arial" font-size="13px" font-style="normal" font-weight="normal" text-decoration="none" x="485" y="1001.5">+start: Position</text></g></g><g transform="translate(-38,-78) scale(1,1)"><g><path fill="none" stroke="none"/><text fill="#000000" stroke="none" font-family="Arial" font-size="13px" font-style="normal" font-weight="normal" text-decoration="none" x="485" y="1016.5">+numberOfPassengerForCustomer: int</text></g></g><g transform="translate(-38,-78) scale(1,1)"><g><path fill="none" stroke="none"/><text fill="#000000" stroke="none" font-family="Arial" font-size="13px" font-style="normal" font-weight="normal" text-decoration="none" x="485" y="1031.5">+isShared: boolean</text></g></g><g transform="translate(-38,-78) scale(1,1)"><path fill="none" stroke="#000000" d="M 384 775 L 499 669" stroke-miterlimit="10"/></g><g transform="translate(-38,-78) scale(1,1)"><path fill="#FFFFFF" stroke="none" d="M 494.3804467023427 678.9829718686423 L 499 669 L 488.6744554324623 672.7925096418853 L 482.8235426381064 683.9104737422672"/></g><g transform="translate(-38,-78) scale(1,1)"><path fill="none" stroke="#000000" d="M 494.3804467023427 678.9829718686423 L 499 669 L 488.6744554324623 672.7925096418853 L 482.8235426381064 683.9104737422672 L 494.3804467023427 678.9829718686423" stroke-miterlimit="10"/></g><g transform="translate(-38,-78) scale(1,1)"><g><path fill="none" stroke="none"/><text fill="#000000" stroke="none" font-family="Arial" font-size="13px" font-style="normal" font-weight="normal" text-decoration="none" x="385" y="753">+n</text></g></g><g transform="translate(-38,-78) scale(1,1)"><g><path fill="none" stroke="none"/><text fill="#000000" stroke="none" font-family="Arial" font-size="13px" font-style="normal" font-weight="normal" text-decoration="none" x="440" y="688">+1..7</text></g></g><g transform="translate(-38,-78) scale(1,1)"><path fill="none" stroke="#000000" d="M 393 849 L 518 943" stroke-miterlimit="10"/></g><g transform="translate(-38,-78) scale(1,1)"><path fill="#FFFFFF" stroke="none" d="M 507.34764920667595 940.2563851261577 L 518 943 L 512.4076792007207 933.5276218362045 L 500.4168941718548 929.7775044172348"/></g><g transform="translate(-38,-78) scale(1,1)"><path fill="none" stroke="#000000" d="M 507.34764920667595 940.2563851261577 L 518 943 L 512.4076792007207 933.5276218362045 L 500.4168941718548 929.7775044172348 L 507.34764920667595 940.2563851261577" stroke-miterlimit="10"/></g><g transform="translate(-38,-78) scale(1,1)"><g><path fill="none" stroke="none"/><text fill="#000000" stroke="none" font-family="Arial" font-size="13px" font-style="normal" font-weight="normal" text-decoration="none" x="402" y="854">+n</text></g></g><g transform="translate(-38,-78) scale(1,1)"><g><path fill="none" stroke="none"/><text fill="#000000" stroke="none" font-family="Arial" font-size="13px" font-style="normal" font-weight="normal" text-decoration="none" x="499" y="922">+1</text></g></g><g transform="translate(-38,-78) scale(1,1)"><rect fill="#C0C0C0" stroke="none" x="567" y="751" width="421.23583984375" height="117" opacity="0.2"/></g><g transform="translate(-38,-78) scale(1,1)"><rect fill="#ffffff" stroke="none" x="560" y="744" width="421.23583984375" height="117"/></g><g transform="translate(-38,-78) scale(1,1)"><path fill="none" stroke="#000000" d="M 560 744 L 981.23583984375 744 L 981.23583984375 861 L 560 861 L 560 744 Z Z" stroke-miterlimit="10"/></g><g transform="translate(-38,-78) scale(1,1)"><path fill="none" stroke="#000000" d="M 560 769 L 981.23583984375 769" stroke-miterlimit="10"/></g><g transform="translate(-38,-78) scale(1,1)"><path fill="none" stroke="#000000" d="M 560 792 L 981.23583984375 792" stroke-miterlimit="10"/></g><g transform="translate(-38,-78) scale(1,1)"><g><path fill="none" stroke="none"/><text fill="#000000" stroke="none" font-family="Arial" font-size="13px" font-style="normal" font-weight="bold" text-decoration="none" x="720.75390625" y="763.5">RequestManager</text></g></g><g transform="translate(-38,-78) scale(1,1)"><g><path fill="none" stroke="none"/><text fill="#000000" stroke="none" font-family="Arial" font-size="13px" font-style="normal" font-weight="normal" text-decoration="none" x="565" y="786.5">-Requests: List&lt;Request&gt;</text></g></g><g transform="translate(-38,-78) scale(1,1)"><g><path fill="none" stroke="none"/><text fill="#000000" stroke="none" font-family="Arial" font-size="13px" font-style="normal" font-weight="normal" text-decoration="none" x="565" y="809.5">+modifyRequest(Request, destination, start, numberOfPassenger): void</text></g></g><g transform="translate(-38,-78) scale(1,1)"><g><path fill="none" stroke="none"/><text fill="#000000" stroke="none" font-family="Arial" font-size="13px" font-style="normal" font-weight="normal" text-decoration="none" x="565" y="824.5">+cancelRequest(Request): void</text></g></g><g transform="translate(-38,-78) scale(1,1)"><g><path fill="none" stroke="none"/><text fill="#000000" stroke="none" font-family="Arial" font-size="13px" font-style="normal" font-weight="normal" text-decoration="none" x="565" y="839.5">+requestIsReadyNotification()</text></g></g><g transform="translate(-38,-78) scale(1,1)"><g><path fill="none" stroke="none"/><text fill="#000000" stroke="none" font-family="Arial" font-size="13px" font-style="normal" font-weight="normal" text-decoration="none" x="565" y="854.5">+addRequesr(Request): void</text></g></g><g transform="translate(-38,-78) scale(1,1)"><path fill="none" stroke="#000000" d="M 647 943 L 718 862" stroke-miterlimit="10"/></g><g transform="translate(-38,-78) scale(1,1)"><path fill="#FFFFFF" stroke="none" d="M 714.4667174915496 872.4170972307778 L 718 862 L 708.1355918862644 866.8675920705895 L 703.4984441686152 878.5440284836925"/></g><g transform="translate(-38,-78) scale(1,1)"><path fill="none" stroke="#000000" d="M 714.4667174915496 872.4170972307778 L 718 862 L 708.1355918862644 866.8675920705895 L 703.4984441686152 878.5440284836925 L 714.4667174915496 872.4170972307778" stroke-miterlimit="10"/></g><g transform="translate(-38,-78) scale(1,1)"><g><path fill="none" stroke="none"/><text fill="#000000" stroke="none" font-family="Arial" font-size="13px" font-style="normal" font-weight="normal" text-decoration="none" x="688" y="862">+n</text></g></g><g transform="translate(-38,-78) scale(1,1)"><g><path fill="none" stroke="none"/><text fill="#000000" stroke="none" font-family="Arial" font-size="13px" font-style="normal" font-weight="normal" text-decoration="none" x="617" y="938">+1</text></g></g><g transform="translate(-38,-78) scale(1,1)"><rect fill="#C0C0C0" stroke="none" x="575" y="367" width="276.67431640625" height="87" opacity="0.2"/></g><g transform="translate(-38,-78) scale(1,1)"><rect fill="#ffffff" stroke="none" x="568" y="360" width="276.67431640625" height="87"/></g><g transform="translate(-38,-78) scale(1,1)"><path fill="none" stroke="#000000" d="M 568 360 L 844.67431640625 360 L 844.67431640625 447 L 568 447 L 568 360 Z Z" stroke-miterlimit="10"/></g><g transform="translate(-38,-78) scale(1,1)"><path fill="none" stroke="#000000" d="M 568 385 L 844.67431640625 385" stroke-miterlimit="10"/></g><g transform="translate(-38,-78) scale(1,1)"><path fill="none" stroke="#000000" d="M 568 395 L 844.67431640625 395" stroke-miterlimit="10"/></g><g transform="translate(-38,-78) scale(1,1)"><g><path fill="none" stroke="none"/><text fill="#000000" stroke="none" font-family="Arial" font-size="13px" font-style="normal" font-weight="bold" text-decoration="none" x="667.31494140625" y="379.5">RideManager</text></g></g><g transform="translate(-38,-78) scale(1,1)"><g><path fill="none" stroke="none"/><text fill="#000000" stroke="none" font-family="Arial" font-size="13px" font-style="normal" font-weight="normal" text-decoration="none" x="573" y="412.5">+createRide(Request, Taxi Driver)</text></g></g><g transform="translate(-38,-78) scale(1,1)"><g><path fill="none" stroke="none"/><text fill="#000000" stroke="none" font-family="Arial" font-size="13px" font-style="normal" font-weight="normal" text-decoration="none" x="573" y="427.5">+onRideProblem(TaxiDriver): void</text></g></g><g transform="translate(-38,-78) scale(1,1)"><g><path fill="none" stroke="none"/><text fill="#000000" stroke="none" font-family="Arial" font-size="13px" font-style="normal" font-weight="normal" text-decoration="none" x="573" y="442.5">+onRequestReady(Request): void</text></g></g><g transform="translate(-38,-78) scale(1,1)"><path fill="none" stroke="#000000" d="M 761 743 L 713 448" stroke-miterlimit="10"/></g><g transform="translate(-38,-78) scale(1,1)"><path fill="none" stroke="#000000" d="M 703 359 L 693 242" stroke-miterlimit="10"/></g><g transform="translate(-38,-78) scale(1,1)"><path fill="none" stroke="#000000" d="M 616 535 L 675 448" stroke-miterlimit="10"/></g><g transform="translate(-38,-78) scale(1,1)"><path fill="#FFFFFF" stroke="none" d="M 672.7799463868052 458.7736420004816 L 675 448 L 665.8120697188956 454.04830035212905 L 662.6520872117493 466.20793919623407"/></g><g transform="translate(-38,-78) scale(1,1)"><path fill="none" stroke="#000000" d="M 672.7799463868052 458.7736420004816 L 675 448 L 665.8120697188956 454.04830035212905 L 662.6520872117493 466.20793919623407 L 672.7799463868052 458.7736420004816" stroke-miterlimit="10"/></g><g transform="translate(-38,-78) scale(1,1)"><g><path fill="none" stroke="none"/><text fill="#000000" stroke="none" font-family="Arial" font-size="13px" font-style="normal" font-weight="normal" text-decoration="none" x="681" y="464">+n</text></g></g><g transform="translate(-38,-78) scale(1,1)"><g><path fill="none" stroke="none"/><text fill="#000000" stroke="none" font-family="Arial" font-size="13px" font-style="normal" font-weight="normal" text-decoration="none" x="595" y="528">+1</text></g></g><g transform="translate(-38,-78) scale(1,1)"><rect fill="#C0C0C0" stroke="none" x="55" y="943" width="181.326171875" height="132" opacity="0.2"/></g><g transform="translate(-38,-78) scale(1,1)"><rect fill="#ffffff" stroke="none" x="48" y="936" width="181.326171875" height="132"/></g><g transform="translate(-38,-78) scale(1,1)"><path fill="none" stroke="#000000" d="M 48 936 L 229.326171875 936 L 229.326171875 1068 L 48 1068 L 48 936 Z Z" stroke-miterlimit="10"/></g><g transform="translate(-38,-78) scale(1,1)"><path fill="none" stroke="#000000" d="M 48 961 L 229.326171875 961" stroke-miterlimit="10"/></g><g transform="translate(-38,-78) scale(1,1)"><path fill="none" stroke="#000000" d="M 48 971 L 229.326171875 971" stroke-miterlimit="10"/></g><g transform="translate(-38,-78) scale(1,1)"><g><path fill="none" stroke="none"/><text fill="#000000" stroke="none" font-family="Arial" font-size="13px" font-style="normal" font-weight="bold" text-decoration="none" x="99.285400390625" y="955.5">UserManager</text></g></g><g transform="translate(-38,-78) scale(1,1)"><g><path fill="none" stroke="none"/><text fill="#000000" stroke="none" font-family="Arial" font-size="13px" font-style="normal" font-weight="normal" text-decoration="none" x="53" y="988.5">+Login(Username, Password)</text></g></g><g transform="translate(-38,-78) scale(1,1)"><g><path fill="none" stroke="none"/><text fill="#000000" stroke="none" font-family="Arial" font-size="13px" font-style="normal" font-weight="normal" text-decoration="none" x="53" y="1003.5">+signupCustomer()</text></g></g><g transform="translate(-38,-78) scale(1,1)"><g><path fill="none" stroke="none"/><text fill="#000000" stroke="none" font-family="Arial" font-size="13px" font-style="normal" font-weight="normal" text-decoration="none" x="53" y="1018.5">+signupTaxiDriver()</text></g></g><g transform="translate(-38,-78) scale(1,1)"><g><path fill="none" stroke="none"/><text fill="#000000" stroke="none" font-family="Arial" font-size="13px" font-style="normal" font-weight="normal" text-decoration="none" x="53" y="1033.5">+editInformation()</text></g></g><g transform="translate(-38,-78) scale(1,1)"><g><path fill="none" stroke="none"/><text fill="#000000" stroke="none" font-family="Arial" font-size="13px" font-style="normal" font-weight="normal" text-decoration="none" x="53" y="1048.5">+signupException()</text></g></g><g transform="translate(-38,-78) scale(1,1)"><g><path fill="none" stroke="none"/><text fill="#000000" stroke="none" font-family="Arial" font-size="13px" font-style="normal" font-weight="normal" text-decoration="none" x="53" y="1063.5">+loginException()</text></g></g><g transform="translate(-38,-78) scale(1,1)"><path fill="none" stroke="#000000" d="M 147 641 L 140 935" stroke-miterlimit="10"/></g><g transform="translate(-38,-78) scale(1,1)"><path fill="#FFFFFF" stroke="none" d="M 136.03357480386518 924.7400062785854 L 140 935 L 144.45022498208755 924.9404027114002 L 140.52366111481837 913.006233177629"/></g><g transform="translate(-38,-78) scale(1,1)"><path fill="none" stroke="#000000" d="M 136.03357480386518 924.7400062785854 L 140 935 L 144.45022498208755 924.9404027114002 L 140.52366111481837 913.006233177629 L 136.03357480386518 924.7400062785854" stroke-miterlimit="10"/></g><g transform="translate(-38,-78) scale(1,1)"><g><path fill="none" stroke="none"/><text fill="#000000" stroke="none" font-family="Arial" font-size="13px" font-style="normal" font-weight="normal" text-decoration="none" x="155" y="897">+n</text></g></g><g transform="translate(-38,-78) scale(1,1)"><g><path fill="none" stroke="none"/><text fill="#000000" stroke="none" font-family="Arial" font-size="13px" font-style="normal" font-weight="normal" text-decoration="none" x="154" y="674">+1</text></g></g></g></svg>