<svg version="1.1" xmlns="http://www.w3.org/2000/svg" xmlns:xlink="http://www.w3.org/1999/xlink" width="1425.23583984375" height="1008"><defs/><g><g transform="translate(-86,-78) scale(1,1)"><rect fill="#C0C0C0" stroke="none" x="127" y="95" width="179.2734375" height="136" opacity="0.2"/></g><g transform="translate(-86,-78) scale(1,1)"><rect fill="#ffffff" stroke="none" x="120" y="88" width="179.2734375" height="136"/></g><g transform="translate(-86,-78) scale(1,1)"><path fill="none" stroke="#000000" d="M 120 88 L 299.2734375 88 L 299.2734375 224 L 120 224 L 120 88 Z Z" stroke-miterlimit="10"/></g><g transform="translate(-86,-78) scale(1,1)"><path fill="none" stroke="#000000" d="M 120 116 L 299.2734375 116" stroke-miterlimit="10"/></g><g transform="translate(-86,-78) scale(1,1)"><path fill="none" stroke="#000000" d="M 120 142 L 299.2734375 142" stroke-miterlimit="10"/></g><g transform="translate(-86,-78) scale(1,1)"><g><path fill="none" stroke="none"/><text fill="#000000" stroke="none" font-family="Arial" font-size="16px" font-style="normal" font-weight="bold" text-decoration="none" x="185.6171875" y="110.5">Queue</text></g></g><g transform="translate(-86,-78) scale(1,1)"><g><path fill="none" stroke="none"/><text fill="#000000" stroke="none" font-family="Arial" font-size="16px" font-style="normal" font-weight="normal" text-decoration="none" x="125" y="136.5">-id: long {id}</text></g></g><g transform="translate(-86,-78) scale(1,1)"><g><path fill="none" stroke="none"/><text fill="#000000" stroke="none" font-family="Arial" font-size="16px" font-style="normal" font-weight="normal" text-decoration="none" x="125" y="162.5">+getFirst(): Taxi Driver</text></g></g><g transform="translate(-86,-78) scale(1,1)"><g><path fill="none" stroke="none"/><text fill="#000000" stroke="none" font-family="Arial" font-size="16px" font-style="normal" font-weight="normal" text-decoration="none" x="125" y="180.5">+isEmpty(): boolean</text></g></g><g transform="translate(-86,-78) scale(1,1)"><g><path fill="none" stroke="none"/><text fill="#000000" stroke="none" font-family="Arial" font-size="16px" font-style="normal" font-weight="normal" text-decoration="none" x="125" y="198.5">+pop(Taxi Driver): void</text></g></g><g transform="translate(-86,-78) scale(1,1)"><g><path fill="none" stroke="none"/><text fill="#000000" stroke="none" font-family="Arial" font-size="16px" font-style="normal" font-weight="normal" text-decoration="none" x="125" y="216.5">+push(Taxi Driver): void</text></g></g><g transform="translate(-86,-78) scale(1,1)"><rect fill="#C0C0C0" stroke="none" x="503" y="95" width="383.78125" height="144" opacity="0.2"/></g><g transform="translate(-86,-78) scale(1,1)"><rect fill="#ffffff" stroke="none" x="496" y="88" width="383.78125" height="144"/></g><g transform="translate(-86,-78) scale(1,1)"><path fill="none" stroke="#000000" d="M 496 88 L 879.78125 88 L 879.78125 232 L 496 232 L 496 88 Z Z" stroke-miterlimit="10"/></g><g transform="translate(-86,-78) scale(1,1)"><path fill="none" stroke="#000000" d="M 496 116 L 879.78125 116" stroke-miterlimit="10"/></g><g transform="translate(-86,-78) scale(1,1)"><path fill="none" stroke="#000000" d="M 496 126 L 879.78125 126" stroke-miterlimit="10"/></g><g transform="translate(-86,-78) scale(1,1)"><g><path fill="none" stroke="none"/><text fill="#000000" stroke="none" font-family="Arial" font-size="16px" font-style="normal" font-weight="bold" text-decoration="none" x="632.296875" y="110.5">QueueManager</text></g></g><g transform="translate(-86,-78) scale(1,1)"><g><path fill="none" stroke="none"/><text fill="#000000" stroke="none" font-family="Arial" font-size="16px" font-style="normal" font-weight="normal" text-decoration="none" x="501" y="146.5">+newTaxiAvailable(Taxi Driver, Position): void</text></g></g><g transform="translate(-86,-78) scale(1,1)"><g><path fill="none" stroke="none"/><text fill="#000000" stroke="none" font-family="Arial" font-size="16px" font-style="normal" font-weight="normal" text-decoration="none" x="501" y="164.5">+getTaxiDriverIntoCorrectZone(Position): Taxi Driver</text></g></g><g transform="translate(-86,-78) scale(1,1)"><g><path fill="none" stroke="none"/><text fill="#000000" stroke="none" font-family="Arial" font-size="16px" font-style="normal" font-weight="normal" text-decoration="none" x="501" y="182.5">+removeTaxiDriverFromQueue(Taxi Driver): boolean</text></g></g><g transform="translate(-86,-78) scale(1,1)"><g><path fill="none" stroke="none"/><text fill="#000000" stroke="none" font-family="Arial" font-size="16px" font-style="normal" font-weight="normal" text-decoration="none" x="501" y="200.5">+noTaxiDriverAvailableException(Taxi Driver): void</text></g></g><g transform="translate(-86,-78) scale(1,1)"><path fill="none" stroke="#000000" d="M 300 157 L 495 158" stroke-miterlimit="10"/></g><g transform="translate(-86,-78) scale(1,1)"><path fill="#FFFFFF" stroke="none" d="M 484.81587178453776 162.157346809087 L 495 158 L 484.8590457579237 153.73842199882307 L 473.00028927766056 157.88718097065467"/></g><g transform="translate(-86,-78) scale(1,1)"><path fill="none" stroke="#000000" d="M 484.81587178453776 162.157346809087 L 495 158 L 484.8590457579237 153.73842199882307 L 473.00028927766056 157.88718097065467 L 484.81587178453776 162.157346809087" stroke-miterlimit="10"/></g><g transform="translate(-86,-78) scale(1,1)"><g><path fill="none" stroke="none"/><text fill="#000000" stroke="none" font-family="Arial" font-size="13px" font-style="normal" font-weight="normal" text-decoration="none" x="319" y="149">+1</text></g></g><g transform="translate(-86,-78) scale(1,1)"><g><path fill="none" stroke="none"/><text fill="#000000" stroke="none" font-family="Arial" font-size="13px" font-style="normal" font-weight="normal" text-decoration="none" x="462" y="149">+n</text></g></g><g transform="translate(-86,-78) scale(1,1)"><rect fill="#C0C0C0" stroke="none" x="271" y="375" width="171.3203125" height="87" opacity="0.2"/></g><g transform="translate(-86,-78) scale(1,1)"><rect fill="#ffffff" stroke="none" x="264" y="368" width="171.3203125" height="87"/></g><g transform="translate(-86,-78) scale(1,1)"><path fill="none" stroke="#000000" d="M 264 368 L 435.3203125 368 L 435.3203125 455 L 264 455 L 264 368 Z Z" stroke-miterlimit="10"/></g><g transform="translate(-86,-78) scale(1,1)"><path fill="none" stroke="#000000" d="M 264 396 L 435.3203125 396" stroke-miterlimit="10"/></g><g transform="translate(-86,-78) scale(1,1)"><path fill="none" stroke="#000000" d="M 264 406 L 435.3203125 406" stroke-miterlimit="10"/></g><g transform="translate(-86,-78) scale(1,1)"><g><path fill="none" stroke="none"/><text fill="#000000" stroke="none" font-family="Arial" font-size="16px" font-style="normal" font-weight="bold" text-decoration="none" x="313.21484375" y="390.5">TaxiDriver</text></g></g><g transform="translate(-86,-78) scale(1,1)"><g><path fill="none" stroke="none"/><text fill="#000000" stroke="none" font-family="Arial" font-size="16px" font-style="normal" font-weight="normal" text-decoration="none" x="269" y="426.5">+isAvailable(): boolean</text></g></g><g transform="translate(-86,-78) scale(1,1)"><g><path fill="none" stroke="none"/><text fill="#000000" stroke="none" font-family="Arial" font-size="16px" font-style="normal" font-weight="normal" text-decoration="none" x="269" y="444.5">+getTypeOfCar(): Car</text></g></g><g transform="translate(-86,-78) scale(1,1)"><path fill="none" stroke="#000000" d="M 325 367 L 247 225" stroke-miterlimit="10"/></g><g transform="translate(-86,-78) scale(1,1)"><path fill="#FFFFFF" stroke="none" d="M 255.5823099372979 231.88069445188185 L 247 225 L 248.2032238487097 235.93399526110636 L 257.5917854456723 244.2824811959676"/></g><g transform="translate(-86,-78) scale(1,1)"><path fill="none" stroke="#000000" d="M 255.5823099372979 231.88069445188185 L 247 225 L 248.2032238487097 235.93399526110636 L 257.5917854456723 244.2824811959676 L 255.5823099372979 231.88069445188185" stroke-miterlimit="10"/></g><g transform="translate(-86,-78) scale(1,1)"><g><path fill="none" stroke="none"/><text fill="#000000" stroke="none" font-family="Arial" font-size="13px" font-style="normal" font-weight="normal" text-decoration="none" x="240" y="267">+n</text></g></g><g transform="translate(-86,-78) scale(1,1)"><g><path fill="none" stroke="none"/><text fill="#000000" stroke="none" font-family="Arial" font-size="13px" font-style="normal" font-weight="normal" text-decoration="none" x="280" y="356">+0,1</text></g></g><g transform="translate(-86,-78) scale(1,1)"><rect fill="#C0C0C0" stroke="none" x="103" y="559" width="104" height="88" opacity="0.2"/></g><g transform="translate(-86,-78) scale(1,1)"><rect fill="#ffffff" stroke="none" x="96" y="552" width="104" height="88"/></g><g transform="translate(-86,-78) scale(1,1)"><path fill="none" stroke="#000000" d="M 96 552 L 200 552 L 200 640 L 96 640 L 96 552 Z Z" stroke-miterlimit="10"/></g><g transform="translate(-86,-78) scale(1,1)"><path fill="none" stroke="#000000" d="M 96 580 L 200 580" stroke-miterlimit="10"/></g><g transform="translate(-86,-78) scale(1,1)"><path fill="none" stroke="#000000" d="M 96 590 L 200 590" stroke-miterlimit="10"/></g><g transform="translate(-86,-78) scale(1,1)"><g><path fill="none" stroke="none"/><text fill="#000000" stroke="none" font-family="Arial" font-size="16px" font-style="normal" font-weight="bold" text-decoration="none" x="131.109375" y="574.5">User</text></g></g><g transform="translate(-86,-78) scale(1,1)"><path fill="none" stroke="#000000" d="M 300 456 L 197 551" stroke-miterlimit="10"/></g><g transform="translate(-86,-78) scale(1,1)"><path fill="#FFFFFF" stroke="none" d="M 206.2327286839324 531.0311061636131 L 197 551 L 217.6486653057676 543.4083848167608"/></g><g transform="translate(-86,-78) scale(1,1)"><path fill="none" stroke="#000000" d="M 206.2327286839324 531.0311061636131 L 197 551 L 217.6486653057676 543.4083848167608 L 206.2327286839324 531.0311061636131" stroke-miterlimit="10"/></g><g transform="translate(-86,-78) scale(1,1)"><rect fill="#C0C0C0" stroke="none" x="287" y="559" width="144" height="80" opacity="0.2"/></g><g transform="translate(-86,-78) scale(1,1)"><rect fill="#ffffff" stroke="none" x="280" y="552" width="144" height="80"/></g><g transform="translate(-86,-78) scale(1,1)"><path fill="none" stroke="#000000" d="M 280 552 L 424 552 L 424 632 L 280 632 L 280 552 Z Z" stroke-miterlimit="10"/></g><g transform="translate(-86,-78) scale(1,1)"><path fill="none" stroke="#000000" d="M 280 580 L 424 580" stroke-miterlimit="10"/></g><g transform="translate(-86,-78) scale(1,1)"><path fill="none" stroke="#000000" d="M 280 606 L 424 606" stroke-miterlimit="10"/></g><g transform="translate(-86,-78) scale(1,1)"><g><path fill="none" stroke="none"/><text fill="#000000" stroke="none" font-family="Arial" font-size="16px" font-style="normal" font-weight="bold" text-decoration="none" x="339.109375" y="574.5">Car</text></g></g><g transform="translate(-86,-78) scale(1,1)"><g><path fill="none" stroke="none"/><text fill="#000000" stroke="none" font-family="Arial" font-size="16px" font-style="normal" font-weight="normal" text-decoration="none" x="285" y="600.5">+id: String {id}</text></g></g><g transform="translate(-86,-78) scale(1,1)"><g><path fill="none" stroke="none"/><text fill="#000000" stroke="none" font-family="Arial" font-size="16px" font-style="normal" font-weight="normal" text-decoration="none" x="285" y="626.5">+getSeats(): int</text></g></g><g transform="translate(-86,-78) scale(1,1)"><path fill="none" stroke="#000000" d="M 351 551 L 350 456" stroke-miterlimit="10"/></g><g transform="translate(-86,-78) scale(1,1)"><path fill="#FFFFFF" stroke="none" d="M 354.31625415980244 466.1178036167929 L 350 456 L 345.8976850375729 466.206420133869 L 350.2315661185759 477.9987812647139"/></g><g transform="translate(-86,-78) scale(1,1)"><path fill="none" stroke="#000000" d="M 354.31625415980244 466.1178036167929 L 350 456 L 345.8976850375729 466.206420133869 L 350.2315661185759 477.9987812647139 L 354.31625415980244 466.1178036167929" stroke-miterlimit="10"/></g><g transform="translate(-86,-78) scale(1,1)"><g><path fill="none" stroke="none"/><text fill="#000000" stroke="none" font-family="Arial" font-size="13px" font-style="normal" font-weight="normal" text-decoration="none" x="327" y="549">+1</text></g></g><g transform="translate(-86,-78) scale(1,1)"><g><path fill="none" stroke="none"/><text fill="#000000" stroke="none" font-family="Arial" font-size="13px" font-style="normal" font-weight="normal" text-decoration="none" x="328" y="489">+1</text></g></g><g transform="translate(-86,-78) scale(1,1)"><rect fill="#C0C0C0" stroke="none" x="263" y="743" width="176" height="72" opacity="0.2"/></g><g transform="translate(-86,-78) scale(1,1)"><rect fill="#ffffff" stroke="none" x="256" y="736" width="176" height="72"/></g><g transform="translate(-86,-78) scale(1,1)"><path fill="none" stroke="#000000" d="M 256 736 L 432 736 L 432 808 L 256 808 L 256 736 Z Z" stroke-miterlimit="10"/></g><g transform="translate(-86,-78) scale(1,1)"><path fill="none" stroke="#000000" d="M 256 761 L 432 761" stroke-miterlimit="10"/></g><g transform="translate(-86,-78) scale(1,1)"><path fill="none" stroke="#000000" d="M 256 771 L 432 771" stroke-miterlimit="10"/></g><g transform="translate(-86,-78) scale(1,1)"><g><path fill="none" stroke="none"/><text fill="#000000" stroke="none" font-family="Arial" font-size="13px" font-style="normal" font-weight="bold" text-decoration="none" x="315.825927734375" y="755.5">Customer</text></g></g><g transform="translate(-86,-78) scale(1,1)"><path fill="none" stroke="#000000" d="M 303 735 L 198 641" stroke-miterlimit="10"/></g><g transform="translate(-86,-78) scale(1,1)"><path fill="#FFFFFF" stroke="none" d="M 218.7590333372866 648.2844035377939 L 198 641 L 207.52800210519968 660.8297043821462"/></g><g transform="translate(-86,-78) scale(1,1)"><path fill="none" stroke="#000000" d="M 218.7590333372866 648.2844035377939 L 198 641 L 207.52800210519968 660.8297043821462 L 218.7590333372866 648.2844035377939" stroke-miterlimit="10"/></g><g transform="translate(-86,-78) scale(1,1)"><rect fill="#C0C0C0" stroke="none" x="559" y="519" width="182.7861328125" height="132" opacity="0.2"/></g><g transform="translate(-86,-78) scale(1,1)"><rect fill="#ffffff" stroke="none" x="552" y="512" width="182.7861328125" height="132"/></g><g transform="translate(-86,-78) scale(1,1)"><path fill="none" stroke="#000000" d="M 552 512 L 734.7861328125 512 L 734.7861328125 644 L 552 644 L 552 512 Z Z" stroke-miterlimit="10"/></g><g transform="translate(-86,-78) scale(1,1)"><path fill="none" stroke="#000000" d="M 552 537 L 734.7861328125 537" stroke-miterlimit="10"/></g><g transform="translate(-86,-78) scale(1,1)"><path fill="none" stroke="#000000" d="M 552 605 L 734.7861328125 605" stroke-miterlimit="10"/></g><g transform="translate(-86,-78) scale(1,1)"><g><path fill="none" stroke="none"/><text fill="#000000" stroke="none" font-family="Arial" font-size="13px" font-style="normal" font-weight="bold" text-decoration="none" x="630.02490234375" y="531.5">Ride</text></g></g><g transform="translate(-86,-78) scale(1,1)"><g><path fill="none" stroke="none"/><text fill="#000000" stroke="none" font-family="Arial" font-size="13px" font-style="normal" font-weight="normal" text-decoration="none" x="557" y="554.5">+numberOfPassengers: int</text></g></g><g transform="translate(-86,-78) scale(1,1)"><g><path fill="none" stroke="none"/><text fill="#000000" stroke="none" font-family="Arial" font-size="13px" font-style="normal" font-weight="normal" text-decoration="none" x="557" y="569.5">+startTime: Date</text></g></g><g transform="translate(-86,-78) scale(1,1)"><g><path fill="none" stroke="none"/><text fill="#000000" stroke="none" font-family="Arial" font-size="13px" font-style="normal" font-weight="normal" text-decoration="none" x="557" y="584.5">+endTime: Date</text></g></g><g transform="translate(-86,-78) scale(1,1)"><g><path fill="none" stroke="none"/><text fill="#000000" stroke="none" font-family="Arial" font-size="13px" font-style="normal" font-weight="normal" text-decoration="none" x="557" y="599.5">+succesfullRide: boolean</text></g></g><g transform="translate(-86,-78) scale(1,1)"><path fill="none" stroke="#000000" d="M 428 456 L 551 526" stroke-miterlimit="10"/></g><g transform="translate(-86,-78) scale(1,1)"><path fill="#FFFFFF" stroke="none" d="M 540.085406770726 524.63191570454 L 551 526 L 544.2495987962421 517.3148354311329 L 531.8795478074777 515.118441841654"/></g><g transform="translate(-86,-78) scale(1,1)"><path fill="none" stroke="#000000" d="M 540.085406770726 524.63191570454 L 551 526 L 544.2495987962421 517.3148354311329 L 531.8795478074777 515.118441841654 L 540.085406770726 524.63191570454" stroke-miterlimit="10"/></g><g transform="translate(-86,-78) scale(1,1)"><g><path fill="none" stroke="none"/><text fill="#000000" stroke="none" font-family="Arial" font-size="13px" font-style="normal" font-weight="normal" text-decoration="none" x="443" y="460">+n</text></g></g><g transform="translate(-86,-78) scale(1,1)"><g><path fill="none" stroke="none"/><text fill="#000000" stroke="none" font-family="Arial" font-size="13px" font-style="normal" font-weight="normal" text-decoration="none" x="528" y="507">+1</text></g></g><g transform="translate(-86,-78) scale(1,1)"><rect fill="#C0C0C0" stroke="none" x="743" y="727" width="233.34521484375" height="117" opacity="0.2"/></g><g transform="translate(-86,-78) scale(1,1)"><rect fill="#ffffff" stroke="none" x="736" y="720" width="233.34521484375" height="117"/></g><g transform="translate(-86,-78) scale(1,1)"><path fill="none" stroke="#000000" d="M 736 720 L 969.34521484375 720 L 969.34521484375 837 L 736 837 L 736 720 Z Z" stroke-miterlimit="10"/></g><g transform="translate(-86,-78) scale(1,1)"><path fill="none" stroke="#000000" d="M 736 745 L 969.34521484375 745" stroke-miterlimit="10"/></g><g transform="translate(-86,-78) scale(1,1)"><path fill="none" stroke="#000000" d="M 736 813 L 969.34521484375 813" stroke-miterlimit="10"/></g><g transform="translate(-86,-78) scale(1,1)"><g><path fill="none" stroke="none"/><text fill="#000000" stroke="none" font-family="Arial" font-size="13px" font-style="normal" font-weight="bold" text-decoration="none" x="828.462646484375" y="739.5">Request</text></g></g><g transform="translate(-86,-78) scale(1,1)"><g><path fill="none" stroke="none"/><text fill="#000000" stroke="none" font-family="Arial" font-size="13px" font-style="normal" font-weight="normal" text-decoration="none" x="741" y="762.5">+destination: Position</text></g></g><g transform="translate(-86,-78) scale(1,1)"><g><path fill="none" stroke="none"/><text fill="#000000" stroke="none" font-family="Arial" font-size="13px" font-style="normal" font-weight="normal" text-decoration="none" x="741" y="777.5">+start: Position</text></g></g><g transform="translate(-86,-78) scale(1,1)"><g><path fill="none" stroke="none"/><text fill="#000000" stroke="none" font-family="Arial" font-size="13px" font-style="normal" font-weight="normal" text-decoration="none" x="741" y="792.5">+numberOfPassengerForCustomer: int</text></g></g><g transform="translate(-86,-78) scale(1,1)"><g><path fill="none" stroke="none"/><text fill="#000000" stroke="none" font-family="Arial" font-size="13px" font-style="normal" font-weight="normal" text-decoration="none" x="741" y="807.5">+isShared: boolean</text></g></g><g transform="translate(-86,-78) scale(1,1)"><path fill="none" stroke="#000000" d="M 401 735 L 551 638" stroke-miterlimit="10"/></g><g transform="translate(-86,-78) scale(1,1)"><path fill="#FFFFFF" stroke="none" d="M 544.7520441371715 647.0533445497312 L 551 638 L 540.1803467173065 639.983709364373 L 532.5261529832479 649.946421070833"/></g><g transform="translate(-86,-78) scale(1,1)"><path fill="none" stroke="#000000" d="M 544.7520441371715 647.0533445497312 L 551 638 L 540.1803467173065 639.983709364373 L 532.5261529832479 649.946421070833 L 544.7520441371715 647.0533445497312" stroke-miterlimit="10"/></g><g transform="translate(-86,-78) scale(1,1)"><g><path fill="none" stroke="none"/><text fill="#000000" stroke="none" font-family="Arial" font-size="13px" font-style="normal" font-weight="normal" text-decoration="none" x="407" y="715">+n</text></g></g><g transform="translate(-86,-78) scale(1,1)"><g><path fill="none" stroke="none"/><text fill="#000000" stroke="none" font-family="Arial" font-size="13px" font-style="normal" font-weight="normal" text-decoration="none" x="490" y="649">+1..7</text></g></g><g transform="translate(-86,-78) scale(1,1)"><path fill="none" stroke="#000000" d="M 433 773 L 735 777" stroke-miterlimit="10"/></g><g transform="translate(-86,-78) scale(1,1)"><path fill="#FFFFFF" stroke="none" d="M 724.7824661365977 781.0745554052224 L 735 777 L 724.893966760832 772.6562582755382 L 713.0019294860588 776.7086348276299"/></g><g transform="translate(-86,-78) scale(1,1)"><path fill="none" stroke="#000000" d="M 724.7824661365977 781.0745554052224 L 735 777 L 724.893966760832 772.6562582755382 L 713.0019294860588 776.7086348276299 L 724.7824661365977 781.0745554052224" stroke-miterlimit="10"/></g><g transform="translate(-86,-78) scale(1,1)"><g><path fill="none" stroke="none"/><text fill="#000000" stroke="none" font-family="Arial" font-size="13px" font-style="normal" font-weight="normal" text-decoration="none" x="438" y="768">+n</text></g></g><g transform="translate(-86,-78) scale(1,1)"><g><path fill="none" stroke="none"/><text fill="#000000" stroke="none" font-family="Arial" font-size="13px" font-style="normal" font-weight="normal" text-decoration="none" x="702" y="768">+1</text></g></g><g transform="translate(-86,-78) scale(1,1)"><rect fill="#C0C0C0" stroke="none" x="1087" y="447" width="421.23583984375" height="117" opacity="0.2"/></g><g transform="translate(-86,-78) scale(1,1)"><rect fill="#ffffff" stroke="none" x="1080" y="440" width="421.23583984375" height="117"/></g><g transform="translate(-86,-78) scale(1,1)"><path fill="none" stroke="#000000" d="M 1080 440 L 1501.23583984375 440 L 1501.23583984375 557 L 1080 557 L 1080 440 Z Z" stroke-miterlimit="10"/></g><g transform="translate(-86,-78) scale(1,1)"><path fill="none" stroke="#000000" d="M 1080 465 L 1501.23583984375 465" stroke-miterlimit="10"/></g><g transform="translate(-86,-78) scale(1,1)"><path fill="none" stroke="#000000" d="M 1080 488 L 1501.23583984375 488" stroke-miterlimit="10"/></g><g transform="translate(-86,-78) scale(1,1)"><g><path fill="none" stroke="none"/><text fill="#000000" stroke="none" font-family="Arial" font-size="13px" font-style="normal" font-weight="bold" text-decoration="none" x="1240.75390625" y="459.5">RequestManager</text></g></g><g transform="translate(-86,-78) scale(1,1)"><g><path fill="none" stroke="none"/><text fill="#000000" stroke="none" font-family="Arial" font-size="13px" font-style="normal" font-weight="normal" text-decoration="none" x="1085" y="482.5">+Requests: List&lt;Request&gt;</text></g></g><g transform="translate(-86,-78) scale(1,1)"><g><path fill="none" stroke="none"/><text fill="#000000" stroke="none" font-family="Arial" font-size="13px" font-style="normal" font-weight="normal" text-decoration="none" x="1085" y="505.5">+modifyRequest(Request, destination, start, numberOfPassenger): void</text></g></g><g transform="translate(-86,-78) scale(1,1)"><g><path fill="none" stroke="none"/><text fill="#000000" stroke="none" font-family="Arial" font-size="13px" font-style="normal" font-weight="normal" text-decoration="none" x="1085" y="520.5">+cancelRequest(Request): void</text></g></g><g transform="translate(-86,-78) scale(1,1)"><g><path fill="none" stroke="none"/><text fill="#000000" stroke="none" font-family="Arial" font-size="13px" font-style="normal" font-weight="normal" text-decoration="none" x="1085" y="535.5">+requestIsReadyNotification()</text></g></g><g transform="translate(-86,-78) scale(1,1)"><g><path fill="none" stroke="none"/><text fill="#000000" stroke="none" font-family="Arial" font-size="13px" font-style="normal" font-weight="normal" text-decoration="none" x="1085" y="550.5">+addRequesr(Request): void</text></g></g><g transform="translate(-86,-78) scale(1,1)"><path fill="none" stroke="#000000" d="M 944 719 L 1196 558" stroke-miterlimit="10"/></g><g transform="translate(-86,-78) scale(1,1)"><path fill="#FFFFFF" stroke="none" d="M 1189.7023111294036 567.0188200386284 L 1196 558 L 1185.169592686183 559.9241303014135 L 1177.4606822841329 569.8445640962484"/></g><g transform="translate(-86,-78) scale(1,1)"><path fill="none" stroke="#000000" d="M 1189.7023111294036 567.0188200386284 L 1196 558 L 1185.169592686183 559.9241303014135 L 1177.4606822841329 569.8445640962484 L 1189.7023111294036 567.0188200386284" stroke-miterlimit="10"/></g><g transform="translate(-86,-78) scale(1,1)"><g><path fill="none" stroke="none"/><text fill="#000000" stroke="none" font-family="Arial" font-size="13px" font-style="normal" font-weight="normal" text-decoration="none" x="1088" y="603">+n</text></g></g><g transform="translate(-86,-78) scale(1,1)"><g><path fill="none" stroke="none"/><text fill="#000000" stroke="none" font-family="Arial" font-size="13px" font-style="normal" font-weight="normal" text-decoration="none" x="932" y="709">+1</text></g></g><g transform="translate(-86,-78) scale(1,1)"><rect fill="#C0C0C0" stroke="none" x="759" y="367" width="276.67431640625" height="73" opacity="0.2"/></g><g transform="translate(-86,-78) scale(1,1)"><rect fill="#ffffff" stroke="none" x="752" y="360" width="276.67431640625" height="73"/></g><g transform="translate(-86,-78) scale(1,1)"><path fill="none" stroke="#000000" d="M 752 360 L 1028.67431640625 360 L 1028.67431640625 433 L 752 433 L 752 360 Z Z" stroke-miterlimit="10"/></g><g transform="translate(-86,-78) scale(1,1)"><path fill="none" stroke="#000000" d="M 752 385 L 1028.67431640625 385" stroke-miterlimit="10"/></g><g transform="translate(-86,-78) scale(1,1)"><path fill="none" stroke="#000000" d="M 752 395 L 1028.67431640625 395" stroke-miterlimit="10"/></g><g transform="translate(-86,-78) scale(1,1)"><g><path fill="none" stroke="none"/><text fill="#000000" stroke="none" font-family="Arial" font-size="13px" font-style="normal" font-weight="bold" text-decoration="none" x="851.31494140625" y="379.5">RideManager</text></g></g><g transform="translate(-86,-78) scale(1,1)"><g><path fill="none" stroke="none"/><text fill="#000000" stroke="none" font-family="Arial" font-size="13px" font-style="normal" font-weight="normal" text-decoration="none" x="757" y="412.5">+createRide(Request, Taxi Driver)</text></g></g><g transform="translate(-86,-78) scale(1,1)"><g><path fill="none" stroke="none"/><text fill="#000000" stroke="none" font-family="Arial" font-size="13px" font-style="normal" font-weight="normal" text-decoration="none" x="757" y="427.5">+changeTaxiDriver(ride, Taxi Driver): void</text></g></g><g transform="translate(-86,-78) scale(1,1)"><path fill="none" stroke="#000000" d="M 1079 444 L 1030 432" stroke-miterlimit="10"/></g><g transform="translate(-86,-78) scale(1,1)"><path fill="none" stroke="#000000" d="M 858 359 L 750 233" stroke-miterlimit="10"/></g><g transform="translate(-86,-78) scale(1,1)"><path fill="none" stroke="#000000" d="M 734 511 L 838 434" stroke-miterlimit="10"/></g><g transform="translate(-86,-78) scale(1,1)"><path fill="#FFFFFF" stroke="none" d="M 832.337161405062 443.43039018533597 L 838 434 L 827.3274755794683 436.6640612780406 L 820.3187304831108 447.09093993077374"/></g><g transform="translate(-86,-78) scale(1,1)"><path fill="none" stroke="#000000" d="M 832.337161405062 443.43039018533597 L 838 434 L 827.3274755794683 436.6640612780406 L 820.3187304831108 447.09093993077374 L 832.337161405062 443.43039018533597" stroke-miterlimit="10"/></g><g transform="translate(-86,-78) scale(1,1)"><g><path fill="none" stroke="none"/><text fill="#000000" stroke="none" font-family="Arial" font-size="13px" font-style="normal" font-weight="normal" text-decoration="none" x="830" y="460">+n</text></g></g><g transform="translate(-86,-78) scale(1,1)"><g><path fill="none" stroke="none"/><text fill="#000000" stroke="none" font-family="Arial" font-size="13px" font-style="normal" font-weight="normal" text-decoration="none" x="719" y="500">+1</text></g></g><g transform="translate(-86,-78) scale(1,1)"><rect fill="#C0C0C0" stroke="none" x="199" y="951" width="181.326171875" height="132" opacity="0.2"/></g><g transform="translate(-86,-78) scale(1,1)"><rect fill="#ffffff" stroke="none" x="192" y="944" width="181.326171875" height="132"/></g><g transform="translate(-86,-78) scale(1,1)"><path fill="none" stroke="#000000" d="M 192 944 L 373.326171875 944 L 373.326171875 1076 L 192 1076 L 192 944 Z Z" stroke-miterlimit="10"/></g><g transform="translate(-86,-78) scale(1,1)"><path fill="none" stroke="#000000" d="M 192 969 L 373.326171875 969" stroke-miterlimit="10"/></g><g transform="translate(-86,-78) scale(1,1)"><path fill="none" stroke="#000000" d="M 192 979 L 373.326171875 979" stroke-miterlimit="10"/></g><g transform="translate(-86,-78) scale(1,1)"><g><path fill="none" stroke="none"/><text fill="#000000" stroke="none" font-family="Arial" font-size="13px" font-style="normal" font-weight="bold" text-decoration="none" x="243.285400390625" y="963.5">UserManager</text></g></g><g transform="translate(-86,-78) scale(1,1)"><g><path fill="none" stroke="none"/><text fill="#000000" stroke="none" font-family="Arial" font-size="13px" font-style="normal" font-weight="normal" text-decoration="none" x="197" y="996.5">+Login(Username, Password)</text></g></g><g transform="translate(-86,-78) scale(1,1)"><g><path fill="none" stroke="none"/><text fill="#000000" stroke="none" font-family="Arial" font-size="13px" font-style="normal" font-weight="normal" text-decoration="none" x="197" y="1011.5">+signupCustomer()</text></g></g><g transform="translate(-86,-78) scale(1,1)"><g><path fill="none" stroke="none"/><text fill="#000000" stroke="none" font-family="Arial" font-size="13px" font-style="normal" font-weight="normal" text-decoration="none" x="197" y="1026.5">+signupTaxiDriver()</text></g></g><g transform="translate(-86,-78) scale(1,1)"><g><path fill="none" stroke="none"/><text fill="#000000" stroke="none" font-family="Arial" font-size="13px" font-style="normal" font-weight="normal" text-decoration="none" x="197" y="1041.5">+editInformation()</text></g></g><g transform="translate(-86,-78) scale(1,1)"><g><path fill="none" stroke="none"/><text fill="#000000" stroke="none" font-family="Arial" font-size="13px" font-style="normal" font-weight="normal" text-decoration="none" x="197" y="1056.5">+signupException()</text></g></g><g transform="translate(-86,-78) scale(1,1)"><g><path fill="none" stroke="none"/><text fill="#000000" stroke="none" font-family="Arial" font-size="13px" font-style="normal" font-weight="normal" text-decoration="none" x="197" y="1071.5">+loginException()</text></g></g><g transform="translate(-86,-78) scale(1,1)"><path fill="none" stroke="#000000" d="M 163 641 L 260 943" stroke-miterlimit="10"/></g><g transform="translate(-86,-78) scale(1,1)"><path fill="#FFFFFF" stroke="none" d="M 252.8843452768746 934.6114686707825 L 260 943 L 260.9000596797814 932.0368849056105 L 253.2722884049084 922.0539288482715"/></g><g transform="translate(-86,-78) scale(1,1)"><path fill="none" stroke="#000000" d="M 252.8843452768746 934.6114686707825 L 260 943 L 260.9000596797814 932.0368849056105 L 253.2722884049084 922.0539288482715 L 252.8843452768746 934.6114686707825" stroke-miterlimit="10"/></g><g transform="translate(-86,-78) scale(1,1)"><g><path fill="none" stroke="none"/><text fill="#000000" stroke="none" font-family="Arial" font-size="13px" font-style="normal" font-weight="normal" text-decoration="none" x="255" y="890">+n</text></g></g><g transform="translate(-86,-78) scale(1,1)"><g><path fill="none" stroke="none"/><text fill="#000000" stroke="none" font-family="Arial" font-size="13px" font-style="normal" font-weight="normal" text-decoration="none" x="178" y="668">+1</text></g></g></g></svg>