<svg version="1.1" xmlns="http://www.w3.org/2000/svg" xmlns:xlink="http://www.w3.org/1999/xlink" width="1423" height="773"><defs/><g><g transform="translate(-380,-86) scale(1,1)"><rect fill="#C0C0C0" stroke="none" x="735" y="439" width="89.57080078125" height="70" opacity="0.2"/></g><g transform="translate(-380,-86) scale(1,1)"><rect fill="#ffc1ad" stroke="none" x="728" y="432" width="89.57080078125" height="70"/></g><g transform="translate(-380,-86) scale(1,1)"><path fill="none" stroke="#000000" d="M 728 432 L 817.57080078125 432 L 817.57080078125 502 L 728 502 L 728 432 Z Z" stroke-miterlimit="10"/></g><g transform="translate(-380,-86) scale(1,1)"><path fill="none" stroke="#000000" d="M 728 470 L 817.57080078125 470" stroke-miterlimit="10"/></g><g transform="translate(-380,-86) scale(1,1)"><path fill="none" stroke="#000000" d="M 728 480 L 817.57080078125 480" stroke-miterlimit="10"/></g><g transform="translate(-380,-86) scale(1,1)"><g><path fill="none" stroke="none"/><text fill="#000000" stroke="none" font-family="Arial" font-size="13px" font-style="normal" font-weight="normal" text-decoration="none" x="746.0458984375" y="449.5">«screen»</text></g></g><g transform="translate(-380,-86) scale(1,1)"><g><path fill="none" stroke="none"/><text fill="#000000" stroke="none" font-family="Arial" font-size="13px" font-style="normal" font-weight="bold" text-decoration="none" x="740.266357421875" y="464.5">HomePage</text></g></g><g transform="translate(-380,-86) scale(1,1)"><g><path fill="none" stroke="none"/><text fill="#000000" stroke="none" font-family="Arial" font-size="13px" font-style="normal" font-weight="normal" text-decoration="none" x="733" y="497.5">+registration()</text></g></g><g transform="translate(-380,-86) scale(1,1)"><rect fill="#C0C0C0" stroke="none" x="551" y="439" width="115.91357421875" height="57" opacity="0.2"/></g><g transform="translate(-380,-86) scale(1,1)"><rect fill="#ffadad" stroke="none" x="544" y="432" width="115.91357421875" height="57"/></g><g transform="translate(-380,-86) scale(1,1)"><path fill="none" stroke="#000000" d="M 544 432 L 659.91357421875 432 L 659.91357421875 489 L 544 489 L 544 432 Z Z" stroke-miterlimit="10"/></g><g transform="translate(-380,-86) scale(1,1)"><path fill="none" stroke="#000000" d="M 544 470 L 659.91357421875 470" stroke-miterlimit="10"/></g><g transform="translate(-380,-86) scale(1,1)"><path fill="none" stroke="#000000" d="M 544 480 L 659.91357421875 480" stroke-miterlimit="10"/></g><g transform="translate(-380,-86) scale(1,1)"><g><path fill="none" stroke="none"/><text fill="#000000" stroke="none" font-family="Arial" font-size="13px" font-style="normal" font-weight="normal" text-decoration="none" x="575.21728515625" y="449.5">«screen»</text></g></g><g transform="translate(-380,-86) scale(1,1)"><g><path fill="none" stroke="none"/><text fill="#000000" stroke="none" font-family="Arial" font-size="13px" font-style="italic" font-weight="bold" text-decoration="none" x="552.0927734375" y="464.5">RegistrationPage</text></g></g><g transform="translate(-380,-86) scale(1,1)"><rect fill="#C0C0C0" stroke="none" x="527" y="295" width="152.04443359375" height="57" opacity="0.2"/></g><g transform="translate(-380,-86) scale(1,1)"><rect fill="#ffc1ad" stroke="none" x="520" y="288" width="152.04443359375" height="57"/></g><g transform="translate(-380,-86) scale(1,1)"><path fill="none" stroke="#000000" d="M 520 288 L 672.04443359375 288 L 672.04443359375 345 L 520 345 L 520 288 Z Z" stroke-miterlimit="10"/></g><g transform="translate(-380,-86) scale(1,1)"><path fill="none" stroke="#000000" d="M 520 326 L 672.04443359375 326" stroke-miterlimit="10"/></g><g transform="translate(-380,-86) scale(1,1)"><path fill="none" stroke="#000000" d="M 520 336 L 672.04443359375 336" stroke-miterlimit="10"/></g><g transform="translate(-380,-86) scale(1,1)"><g><path fill="none" stroke="none"/><text fill="#000000" stroke="none" font-family="Arial" font-size="13px" font-style="normal" font-weight="normal" text-decoration="none" x="569.28271484375" y="305.5">«screen»</text></g></g><g transform="translate(-380,-86) scale(1,1)"><g><path fill="none" stroke="none"/><text fill="#000000" stroke="none" font-family="Arial" font-size="13px" font-style="normal" font-weight="bold" text-decoration="none" x="531.726806640625" y="320.5">RegistrationTaxiDriver</text></g></g><g transform="translate(-380,-86) scale(1,1)"><rect fill="#C0C0C0" stroke="none" x="535" y="567" width="149.130859375" height="57" opacity="0.2"/></g><g transform="translate(-380,-86) scale(1,1)"><rect fill="#ffc1ad" stroke="none" x="528" y="560" width="149.130859375" height="57"/></g><g transform="translate(-380,-86) scale(1,1)"><path fill="none" stroke="#000000" d="M 528 560 L 677.130859375 560 L 677.130859375 617 L 528 617 L 528 560 Z Z" stroke-miterlimit="10"/></g><g transform="translate(-380,-86) scale(1,1)"><path fill="none" stroke="#000000" d="M 528 598 L 677.130859375 598" stroke-miterlimit="10"/></g><g transform="translate(-380,-86) scale(1,1)"><path fill="none" stroke="#000000" d="M 528 608 L 677.130859375 608" stroke-miterlimit="10"/></g><g transform="translate(-380,-86) scale(1,1)"><g><path fill="none" stroke="none"/><text fill="#000000" stroke="none" font-family="Arial" font-size="13px" font-style="normal" font-weight="normal" text-decoration="none" x="575.825927734375" y="577.5">«screen»</text></g></g><g transform="translate(-380,-86) scale(1,1)"><g><path fill="none" stroke="none"/><text fill="#000000" stroke="none" font-family="Arial" font-size="13px" font-style="normal" font-weight="bold" text-decoration="none" x="539.707763671875" y="592.5">RegistrationCustomer</text></g></g><g transform="translate(-380,-86) scale(1,1)"><path fill="none" stroke="#000000" d="M 597 346 L 600 431" stroke-miterlimit="10"/></g><g transform="translate(-380,-86) scale(1,1)"><path fill="#FFFFFF" stroke="none" d="M 590.869284384882 410.98425538842383 L 600 431 L 607.6968778168077 410.39034032612057"/></g><g transform="translate(-380,-86) scale(1,1)"><path fill="none" stroke="#000000" d="M 590.869284384882 410.98425538842383 L 600 431 L 607.6968778168077 410.39034032612057 L 590.869284384882 410.98425538842383" stroke-miterlimit="10"/></g><g transform="translate(-380,-86) scale(1,1)"><path fill="none" stroke="#000000" d="M 602 559 L 601 490" stroke-miterlimit="10"/></g><g transform="translate(-380,-86) scale(1,1)"><path fill="#FFFFFF" stroke="none" d="M 609.7126908394127 510.20121328873125 L 601 490 L 592.876387870273 510.4452176795884"/></g><g transform="translate(-380,-86) scale(1,1)"><path fill="none" stroke="#000000" d="M 609.7126908394127 510.20121328873125 L 601 490 L 592.876387870273 510.4452176795884 L 609.7126908394127 510.20121328873125" stroke-miterlimit="10"/></g><g transform="translate(-380,-86) scale(1,1)"><rect fill="#C0C0C0" stroke="none" x="511" y="175" width="180.9326171875" height="57" opacity="0.2"/></g><g transform="translate(-380,-86) scale(1,1)"><rect fill="#ffc1ad" stroke="none" x="504" y="168" width="180.9326171875" height="57"/></g><g transform="translate(-380,-86) scale(1,1)"><path fill="none" stroke="#000000" d="M 504 168 L 684.9326171875 168 L 684.9326171875 225 L 504 225 L 504 168 Z Z" stroke-miterlimit="10"/></g><g transform="translate(-380,-86) scale(1,1)"><path fill="none" stroke="#000000" d="M 504 206 L 684.9326171875 206" stroke-miterlimit="10"/></g><g transform="translate(-380,-86) scale(1,1)"><path fill="none" stroke="#000000" d="M 504 216 L 684.9326171875 216" stroke-miterlimit="10"/></g><g transform="translate(-380,-86) scale(1,1)"><g><path fill="none" stroke="none"/><text fill="#000000" stroke="none" font-family="Arial" font-size="13px" font-style="normal" font-weight="normal" text-decoration="none" x="558.33544921875" y="185.5">«input form»</text></g></g><g transform="translate(-380,-86) scale(1,1)"><g><path fill="none" stroke="none"/><text fill="#000000" stroke="none" font-family="Arial" font-size="13px" font-style="normal" font-weight="bold" text-decoration="none" x="515.00634765625" y="200.5">TaxiDriverRegistrationForm</text></g></g><g transform="translate(-380,-86) scale(1,1)"><path fill="none" stroke="#000000" d="M 595 226 L 596 287" stroke-miterlimit="10"/></g><g transform="translate(-380,-86) scale(1,1)"><path fill="#000000" stroke="none" d="M 591.6244689282767 276.9076896678519 L 596 287 L 600.0423733815929 276.769691234191 L 595.6393927147353 265.00295559885797"/></g><g transform="translate(-380,-86) scale(1,1)"><path fill="none" stroke="#000000" d="M 591.6244689282767 276.9076896678519 L 596 287 L 600.0423733815929 276.769691234191 L 595.6393927147353 265.00295559885797 L 591.6244689282767 276.9076896678519" stroke-miterlimit="10"/></g><g transform="translate(-380,-86) scale(1,1)"><rect fill="#C0C0C0" stroke="none" x="519" y="711" width="178.01904296875" height="57" opacity="0.2"/></g><g transform="translate(-380,-86) scale(1,1)"><rect fill="#ffc1ad" stroke="none" x="512" y="704" width="178.01904296875" height="57"/></g><g transform="translate(-380,-86) scale(1,1)"><path fill="none" stroke="#000000" d="M 512 704 L 690.01904296875 704 L 690.01904296875 761 L 512 761 L 512 704 Z Z" stroke-miterlimit="10"/></g><g transform="translate(-380,-86) scale(1,1)"><path fill="none" stroke="#000000" d="M 512 742 L 690.01904296875 742" stroke-miterlimit="10"/></g><g transform="translate(-380,-86) scale(1,1)"><path fill="none" stroke="#000000" d="M 512 752 L 690.01904296875 752" stroke-miterlimit="10"/></g><g transform="translate(-380,-86) scale(1,1)"><g><path fill="none" stroke="none"/><text fill="#000000" stroke="none" font-family="Arial" font-size="13px" font-style="normal" font-weight="normal" text-decoration="none" x="564.878662109375" y="721.5">«input form»</text></g></g><g transform="translate(-380,-86) scale(1,1)"><g><path fill="none" stroke="none"/><text fill="#000000" stroke="none" font-family="Arial" font-size="13px" font-style="normal" font-weight="bold" text-decoration="none" x="522.9873046875" y="736.5">CustomerRegistrationForm</text></g></g><g transform="translate(-380,-86) scale(1,1)"><path fill="none" stroke="#000000" d="M 601 703 L 602 618" stroke-miterlimit="10"/></g><g transform="translate(-380,-86) scale(1,1)"><path fill="#000000" stroke="none" d="M 606.0896738627179 628.2114919427379 L 602 618 L 597.6712209224274 628.112451319911 L 601.741194380392 639.9984776666764"/></g><g transform="translate(-380,-86) scale(1,1)"><path fill="none" stroke="#000000" d="M 606.0896738627179 628.2114919427379 L 602 618 L 597.6712209224274 628.112451319911 L 601.741194380392 639.9984776666764 L 606.0896738627179 628.2114919427379" stroke-miterlimit="10"/></g><g transform="translate(-380,-86) scale(1,1)"><path fill="none" stroke="#000000" d="M 503 199 L 464 200 L 464 320 L 519 318" stroke-miterlimit="10"/></g><g transform="translate(-380,-86) scale(1,1)"><path fill="none" stroke="#000000" d="M 508.9970098776579 322.5760450841667 L 519 318 L 508.6910653423202 314.16257036237954" stroke-miterlimit="10"/></g><g transform="translate(-380,-86) scale(1,1)"><g><path fill="none" stroke="none"/><text fill="#000000" stroke="none" font-family="Arial" font-size="13px" font-style="normal" font-weight="normal" text-decoration="none" x="390" y="272">+ERROR</text></g></g><g transform="translate(-380,-86) scale(1,1)"><path fill="none" stroke="#000000" d="M 511 735 L 472 736 L 472 592 L 527 590" stroke-miterlimit="10"/></g><g transform="translate(-380,-86) scale(1,1)"><path fill="none" stroke="#000000" d="M 516.9970098776579 594.5760450841667 L 527 590 L 516.6910653423201 586.1625703623795" stroke-miterlimit="10"/></g><g transform="translate(-380,-86) scale(1,1)"><g><path fill="none" stroke="none"/><text fill="#000000" stroke="none" font-family="Arial" font-size="13px" font-style="normal" font-weight="normal" text-decoration="none" x="405" y="669">+ERROR</text></g></g><g transform="translate(-380,-86) scale(1,1)"><path fill="none" stroke="#000000" d="M 661 462 L 727 465" stroke-miterlimit="10"/></g><g transform="translate(-380,-86) scale(1,1)"><path fill="#FFFFFF" stroke="none" d="M 716.656663177951 468.74371251375516 L 727 465 L 717.0389518877435 460.33336089832187 L 705.0226921153734 464.0010314597897"/></g><g transform="translate(-380,-86) scale(1,1)"><path fill="none" stroke="#000000" d="M 716.656663177951 468.74371251375516 L 727 465 L 717.0389518877435 460.33336089832187 L 705.0226921153734 464.0010314597897 L 716.656663177951 468.74371251375516" stroke-miterlimit="10"/></g><g transform="translate(-380,-86) scale(1,1)"><rect fill="#C0C0C0" stroke="none" x="887" y="447" width="81.26171875" height="57" opacity="0.2"/></g><g transform="translate(-380,-86) scale(1,1)"><rect fill="#ffc1ad" stroke="none" x="880" y="440" width="81.26171875" height="57"/></g><g transform="translate(-380,-86) scale(1,1)"><path fill="none" stroke="#000000" d="M 880 440 L 961.26171875 440 L 961.26171875 497 L 880 497 L 880 440 Z Z" stroke-miterlimit="10"/></g><g transform="translate(-380,-86) scale(1,1)"><path fill="none" stroke="#000000" d="M 880 478 L 961.26171875 478" stroke-miterlimit="10"/></g><g transform="translate(-380,-86) scale(1,1)"><path fill="none" stroke="#000000" d="M 880 488 L 961.26171875 488" stroke-miterlimit="10"/></g><g transform="translate(-380,-86) scale(1,1)"><g><path fill="none" stroke="none"/><text fill="#000000" stroke="none" font-family="Arial" font-size="13px" font-style="normal" font-weight="normal" text-decoration="none" x="884.5" y="457.5">«input form»</text></g></g><g transform="translate(-380,-86) scale(1,1)"><g><path fill="none" stroke="none"/><text fill="#000000" stroke="none" font-family="Arial" font-size="13px" font-style="normal" font-weight="bold" text-decoration="none" x="889.562255859375" y="472.5">LoginForm</text></g></g><g transform="translate(-380,-86) scale(1,1)"><path fill="none" stroke="#000000" d="M 879 468 L 819 467" stroke-miterlimit="10"/></g><g transform="translate(-380,-86) scale(1,1)"><path fill="#000000" stroke="none" d="M 829.2314125560383 462.96042117193616 L 819 467 L 829.0911147819534 471.37828761703037 L 840.9969450808712 467.36661575134787"/></g><g transform="translate(-380,-86) scale(1,1)"><path fill="none" stroke="#000000" d="M 829.2314125560383 462.96042117193616 L 819 467 L 829.0911147819534 471.37828761703037 L 840.9969450808712 467.36661575134787 L 829.2314125560383 462.96042117193616" stroke-miterlimit="10"/></g><g transform="translate(-380,-86) scale(1,1)"><path fill="none" stroke="#000000" d="M 920 439 L 920 400 L 768 400 L 770 431" stroke-miterlimit="10"/></g><g transform="translate(-380,-86) scale(1,1)"><path fill="none" stroke="#000000" d="M 765.1449195348331 421.1294278951646 L 770 431 L 773.546488149394 420.5873912103542" stroke-miterlimit="10"/></g><g transform="translate(-380,-86) scale(1,1)"><g><path fill="none" stroke="none"/><text fill="#000000" stroke="none" font-family="Arial" font-size="13px" font-style="normal" font-weight="normal" text-decoration="none" x="815" y="388">+ERROR</text></g></g><g transform="translate(-380,-86) scale(1,1)"><rect fill="#C0C0C0" stroke="none" x="1055" y="439" width="93.91259765625" height="70" opacity="0.2"/></g><g transform="translate(-380,-86) scale(1,1)"><rect fill="#ffc082" stroke="none" x="1048" y="432" width="93.91259765625" height="70"/></g><g transform="translate(-380,-86) scale(1,1)"><path fill="none" stroke="#000000" d="M 1048 432 L 1141.91259765625 432 L 1141.91259765625 502 L 1048 502 L 1048 432 Z Z" stroke-miterlimit="10"/></g><g transform="translate(-380,-86) scale(1,1)"><path fill="none" stroke="#000000" d="M 1048 470 L 1141.91259765625 470" stroke-miterlimit="10"/></g><g transform="translate(-380,-86) scale(1,1)"><path fill="none" stroke="#000000" d="M 1048 480 L 1141.91259765625 480" stroke-miterlimit="10"/></g><g transform="translate(-380,-86) scale(1,1)"><g><path fill="none" stroke="none"/><text fill="#000000" stroke="none" font-family="Arial" font-size="13px" font-style="normal" font-weight="normal" text-decoration="none" x="1068.216796875" y="449.5">«screen»</text></g></g><g transform="translate(-380,-86) scale(1,1)"><g><path fill="none" stroke="none"/><text fill="#000000" stroke="none" font-family="Arial" font-size="13px" font-style="italic" font-weight="bold" text-decoration="none" x="1076.5322265625" y="464.5">Profile</text></g></g><g transform="translate(-380,-86) scale(1,1)"><g><path fill="none" stroke="none"/><text fill="#000000" stroke="none" font-family="Arial" font-size="13px" font-style="normal" font-weight="normal" text-decoration="none" x="1053" y="497.5">+manageInfo()</text></g></g><g transform="translate(-380,-86) scale(1,1)"><path fill="none" stroke="#000000" d="M 962 468 L 1047 467" stroke-miterlimit="10"/></g><g transform="translate(-380,-86) scale(1,1)"><path fill="none" stroke="#000000" d="M 1036.887548680089 471.3287790775726 L 1047 467 L 1036.788508057262 462.9103261372821" stroke-miterlimit="10"/></g><g transform="translate(-380,-86) scale(1,1)"><g><path fill="none" stroke="none"/><text fill="#000000" stroke="none" font-family="Arial" font-size="13px" font-style="normal" font-weight="normal" text-decoration="none" x="962" y="517">+CORRECT</text></g></g><g transform="translate(-380,-86) scale(1,1)"><rect fill="#C0C0C0" stroke="none" x="1023" y="567" width="160" height="100" opacity="0.2"/></g><g transform="translate(-380,-86) scale(1,1)"><rect fill="#ffff91" stroke="none" x="1016" y="560" width="160" height="100"/></g><g transform="translate(-380,-86) scale(1,1)"><path fill="none" stroke="#000000" d="M 1016 560 L 1176 560 L 1176 660 L 1016 660 L 1016 560 Z Z" stroke-miterlimit="10"/></g><g transform="translate(-380,-86) scale(1,1)"><path fill="none" stroke="#000000" d="M 1016 598 L 1176 598" stroke-miterlimit="10"/></g><g transform="translate(-380,-86) scale(1,1)"><path fill="none" stroke="#000000" d="M 1016 608 L 1176 608" stroke-miterlimit="10"/></g><g transform="translate(-380,-86) scale(1,1)"><g><path fill="none" stroke="none"/><text fill="#000000" stroke="none" font-family="Arial" font-size="13px" font-style="normal" font-weight="normal" text-decoration="none" x="1069.260498046875" y="577.5">«screen»</text></g></g><g transform="translate(-380,-86) scale(1,1)"><g><path fill="none" stroke="none"/><text fill="#000000" stroke="none" font-family="Arial" font-size="13px" font-style="normal" font-weight="bold" text-decoration="none" x="1049.40185546875" y="592.5">CustomerProfile</text></g></g><g transform="translate(-380,-86) scale(1,1)"><g><path fill="none" stroke="none"/><text fill="#000000" stroke="none" font-family="Arial" font-size="13px" font-style="normal" font-weight="normal" text-decoration="none" x="1021" y="625.5">+manageRequest()</text></g></g><g transform="translate(-380,-86) scale(1,1)"><g><path fill="none" stroke="none"/><text fill="#000000" stroke="none" font-family="Arial" font-size="13px" font-style="normal" font-weight="normal" text-decoration="none" x="1021" y="640.5">+requestTaxi()</text></g></g><g transform="translate(-380,-86) scale(1,1)"><g><path fill="none" stroke="none"/><text fill="#000000" stroke="none" font-family="Arial" font-size="13px" font-style="normal" font-weight="normal" text-decoration="none" x="1021" y="655.5">+reportTaxi()</text></g></g><g transform="translate(-380,-86) scale(1,1)"><rect fill="#C0C0C0" stroke="none" x="1039" y="303" width="120" height="85" opacity="0.2"/></g><g transform="translate(-380,-86) scale(1,1)"><rect fill="#a3ffa3" stroke="none" x="1032" y="296" width="120" height="85"/></g><g transform="translate(-380,-86) scale(1,1)"><path fill="none" stroke="#000000" d="M 1032 296 L 1152 296 L 1152 381 L 1032 381 L 1032 296 Z Z" stroke-miterlimit="10"/></g><g transform="translate(-380,-86) scale(1,1)"><path fill="none" stroke="#000000" d="M 1032 334 L 1152 334" stroke-miterlimit="10"/></g><g transform="translate(-380,-86) scale(1,1)"><path fill="none" stroke="#000000" d="M 1032 344 L 1152 344" stroke-miterlimit="10"/></g><g transform="translate(-380,-86) scale(1,1)"><g><path fill="none" stroke="none"/><text fill="#000000" stroke="none" font-family="Arial" font-size="13px" font-style="normal" font-weight="normal" text-decoration="none" x="1065.260498046875" y="313.5">«screen»</text></g></g><g transform="translate(-380,-86) scale(1,1)"><g><path fill="none" stroke="none"/><text fill="#000000" stroke="none" font-family="Arial" font-size="13px" font-style="normal" font-weight="bold" text-decoration="none" x="1043.964111328125" y="328.5">TaxiDriverProfile</text></g></g><g transform="translate(-380,-86) scale(1,1)"><g><path fill="none" stroke="none"/><text fill="#000000" stroke="none" font-family="Arial" font-size="13px" font-style="normal" font-weight="normal" text-decoration="none" x="1037" y="361.5">+notifyProblem()</text></g></g><g transform="translate(-380,-86) scale(1,1)"><g><path fill="none" stroke="none"/><text fill="#000000" stroke="none" font-family="Arial" font-size="13px" font-style="normal" font-weight="normal" text-decoration="none" x="1037" y="376.5">+reportCustomer()</text></g></g><g transform="translate(-380,-86) scale(1,1)"><path fill="none" stroke="#000000" d="M 691 730 L 776 728 L 776 592 L 1015 605" stroke-miterlimit="10"/></g><g transform="translate(-380,-86) scale(1,1)"><path fill="none" stroke="#000000" d="M 1004.6236940541879 608.6513387844603 L 1015 605 L 1005.0809572871486 600.2447301169512" stroke-miterlimit="10"/></g><g transform="translate(-380,-86) scale(1,1)"><g><path fill="none" stroke="none"/><text fill="#000000" stroke="none" font-family="Arial" font-size="13px" font-style="normal" font-weight="normal" text-decoration="none" x="783" y="612">+CORRECT</text></g></g><g transform="translate(-380,-86) scale(1,1)"><path fill="none" stroke="#000000" d="M 1095 559 L 1095 503" stroke-miterlimit="10"/></g><g transform="translate(-380,-86) scale(1,1)"><path fill="#FFFFFF" stroke="none" d="M 1103.419035512032 523.3253497152483 L 1095 503 L 1086.580964487968 523.3253497152483"/></g><g transform="translate(-380,-86) scale(1,1)"><path fill="none" stroke="#000000" d="M 1103.419035512032 523.3253497152483 L 1095 503 L 1086.580964487968 523.3253497152483 L 1103.419035512032 523.3253497152483" stroke-miterlimit="10"/></g><g transform="translate(-380,-86) scale(1,1)"><path fill="none" stroke="#000000" d="M 1093 382 L 1093 431" stroke-miterlimit="10"/></g><g transform="translate(-380,-86) scale(1,1)"><path fill="#FFFFFF" stroke="none" d="M 1084.580964487968 410.6746502847517 L 1093 431 L 1101.419035512032 410.6746502847517"/></g><g transform="translate(-380,-86) scale(1,1)"><path fill="none" stroke="#000000" d="M 1084.580964487968 410.6746502847517 L 1093 431 L 1101.419035512032 410.6746502847517 L 1084.580964487968 410.6746502847517" stroke-miterlimit="10"/></g><g transform="translate(-380,-86) scale(1,1)"><path fill="none" stroke="#000000" d="M 686 194 L 784 192 L 784 328 L 1031 336" stroke-miterlimit="10"/></g><g transform="translate(-380,-86) scale(1,1)"><path fill="none" stroke="#000000" d="M 1020.7063822051483 339.87832859535035 L 1031 336 L 1020.978920604876 331.46370550375974" stroke-miterlimit="10"/></g><g transform="translate(-380,-86) scale(1,1)"><g><path fill="none" stroke="none"/><text fill="#000000" stroke="none" font-family="Arial" font-size="13px" font-style="normal" font-weight="normal" text-decoration="none" x="792" y="316">+CORRECT</text></g></g><g transform="translate(-380,-86) scale(1,1)"><rect fill="#C0C0C0" stroke="none" x="1247" y="671" width="117.37353515625" height="57" opacity="0.2"/></g><g transform="translate(-380,-86) scale(1,1)"><rect fill="#ffff91" stroke="none" x="1240" y="664" width="117.37353515625" height="57"/></g><g transform="translate(-380,-86) scale(1,1)"><path fill="none" stroke="#000000" d="M 1240 664 L 1357.37353515625 664 L 1357.37353515625 721 L 1240 721 L 1240 664 Z Z" stroke-miterlimit="10"/></g><g transform="translate(-380,-86) scale(1,1)"><path fill="none" stroke="#000000" d="M 1240 702 L 1357.37353515625 702" stroke-miterlimit="10"/></g><g transform="translate(-380,-86) scale(1,1)"><path fill="none" stroke="#000000" d="M 1240 712 L 1357.37353515625 712" stroke-miterlimit="10"/></g><g transform="translate(-380,-86) scale(1,1)"><g><path fill="none" stroke="none"/><text fill="#000000" stroke="none" font-family="Arial" font-size="13px" font-style="normal" font-weight="normal" text-decoration="none" x="1271.947265625" y="681.5">«screen»</text></g></g><g transform="translate(-380,-86) scale(1,1)"><g><path fill="none" stroke="none"/><text fill="#000000" stroke="none" font-family="Arial" font-size="13px" font-style="normal" font-weight="bold" text-decoration="none" x="1247.016845703125" y="696.5">RequestTaxiPage</text></g></g><g transform="translate(-380,-86) scale(1,1)"><path fill="none" stroke="#000000" d="M 1239 668 L 1177 643" stroke-miterlimit="10"/></g><g transform="translate(-380,-86) scale(1,1)"><path fill="#FFFFFF" stroke="none" d="M 1187.9995124782038 642.8964372565163 L 1177 643 L 1184.8510597812797 650.7045999448884 L 1197.4037123847131 651.2273033809327"/></g><g transform="translate(-380,-86) scale(1,1)"><path fill="none" stroke="#000000" d="M 1187.9995124782038 642.8964372565163 L 1177 643 L 1184.8510597812797 650.7045999448884 L 1197.4037123847131 651.2273033809327 L 1187.9995124782038 642.8964372565163" stroke-miterlimit="10"/></g><g transform="translate(-380,-86) scale(1,1)"><rect fill="#C0C0C0" stroke="none" x="1263" y="791" width="118.8017578125" height="57" opacity="0.2"/></g><g transform="translate(-380,-86) scale(1,1)"><rect fill="#ffff91" stroke="none" x="1256" y="784" width="118.8017578125" height="57"/></g><g transform="translate(-380,-86) scale(1,1)"><path fill="none" stroke="#000000" d="M 1256 784 L 1374.8017578125 784 L 1374.8017578125 841 L 1256 841 L 1256 784 Z Z" stroke-miterlimit="10"/></g><g transform="translate(-380,-86) scale(1,1)"><path fill="none" stroke="#000000" d="M 1256 822 L 1374.8017578125 822" stroke-miterlimit="10"/></g><g transform="translate(-380,-86) scale(1,1)"><path fill="none" stroke="#000000" d="M 1256 832 L 1374.8017578125 832" stroke-miterlimit="10"/></g><g transform="translate(-380,-86) scale(1,1)"><g><path fill="none" stroke="none"/><text fill="#000000" stroke="none" font-family="Arial" font-size="13px" font-style="normal" font-weight="normal" text-decoration="none" x="1279.27001953125" y="801.5">«input form»</text></g></g><g transform="translate(-380,-86) scale(1,1)"><g><path fill="none" stroke="none"/><text fill="#000000" stroke="none" font-family="Arial" font-size="13px" font-style="normal" font-weight="bold" text-decoration="none" x="1263.746826171875" y="816.5">RequestTaxiForm</text></g></g><g transform="translate(-380,-86) scale(1,1)"><path fill="none" stroke="#000000" d="M 1311 783 L 1302 722" stroke-miterlimit="10"/></g><g transform="translate(-380,-86) scale(1,1)"><path fill="#000000" stroke="none" d="M 1307.64778824875 731.4394114168882 L 1302 722 L 1299.3189175461055 732.6682611926883 L 1305.2111392129138 743.7643879986387"/></g><g transform="translate(-380,-86) scale(1,1)"><path fill="none" stroke="#000000" d="M 1307.64778824875 731.4394114168882 L 1302 722 L 1299.3189175461055 732.6682611926883 L 1305.2111392129138 743.7643879986387 L 1307.64778824875 731.4394114168882" stroke-miterlimit="10"/></g><g transform="translate(-380,-86) scale(1,1)"><path fill="none" stroke="#000000" d="M 1376 810 L 1424 808 L 1424 688 L 1358 690" stroke-miterlimit="10"/></g><g transform="translate(-380,-86) scale(1,1)"><path fill="none" stroke="#000000" d="M 1368.0305093940522 685.4845951127468 L 1358 690 L 1368.2855146268694 693.8997677957101" stroke-miterlimit="10"/></g><g transform="translate(-380,-86) scale(1,1)"><g><path fill="none" stroke="none"/><text fill="#000000" stroke="none" font-family="Arial" font-size="13px" font-style="normal" font-weight="normal" text-decoration="none" x="1430" y="753">+ERROR</text></g></g><g transform="translate(-380,-86) scale(1,1)"><path fill="none" stroke="#000000" d="M 1282 783 L 1256 760 L 1150 661" stroke-miterlimit="10"/></g><g transform="translate(-380,-86) scale(1,1)"><path fill="none" stroke="#000000" d="M 1160.300411238895 664.8602497729607 L 1150 661 L 1154.5538818444984 671.0130994275672" stroke-miterlimit="10"/></g><g transform="translate(-380,-86) scale(1,1)"><g><path fill="none" stroke="none"/><text fill="#000000" stroke="none" font-family="Arial" font-size="13px" font-style="normal" font-weight="normal" text-decoration="none" x="1184" y="783">+CONFIRM</text></g></g><g transform="translate(-380,-86) scale(1,1)"><rect fill="#C0C0C0" stroke="none" x="895" y="695" width="185.2998046875" height="57" opacity="0.2"/></g><g transform="translate(-380,-86) scale(1,1)"><rect fill="#ffff91" stroke="none" x="888" y="688" width="185.2998046875" height="57"/></g><g transform="translate(-380,-86) scale(1,1)"><path fill="none" stroke="#000000" d="M 888 688 L 1073.2998046875 688 L 1073.2998046875 745 L 888 745 L 888 688 Z Z" stroke-miterlimit="10"/></g><g transform="translate(-380,-86) scale(1,1)"><path fill="none" stroke="#000000" d="M 888 726 L 1073.2998046875 726" stroke-miterlimit="10"/></g><g transform="translate(-380,-86) scale(1,1)"><path fill="none" stroke="#000000" d="M 888 736 L 1073.2998046875 736" stroke-miterlimit="10"/></g><g transform="translate(-380,-86) scale(1,1)"><g><path fill="none" stroke="none"/><text fill="#000000" stroke="none" font-family="Arial" font-size="13px" font-style="normal" font-weight="normal" text-decoration="none" x="953.910400390625" y="705.5">«screen»</text></g></g><g transform="translate(-380,-86) scale(1,1)"><g><path fill="none" stroke="none"/><text fill="#000000" stroke="none" font-family="Arial" font-size="13px" font-style="normal" font-weight="bold" text-decoration="none" x="917.77001953125" y="720.5">ManageRequestPage</text></g></g><g transform="translate(-380,-86) scale(1,1)"><path fill="none" stroke="#000000" d="M 1012 687 L 1040 661" stroke-miterlimit="10"/></g><g transform="translate(-380,-86) scale(1,1)"><path fill="#FFFFFF" stroke="none" d="M 1035.417228991706 670.9999104938764 L 1040 661 L 1029.6884870219317 664.8304960648887 L 1023.8785431842214 675.9699241860801"/></g><g transform="translate(-380,-86) scale(1,1)"><path fill="none" stroke="#000000" d="M 1035.417228991706 670.9999104938764 L 1040 661 L 1029.6884870219317 664.8304960648887 L 1023.8785431842214 675.9699241860801 L 1035.417228991706 670.9999104938764" stroke-miterlimit="10"/></g><g transform="translate(-380,-86) scale(1,1)"><path fill="none" stroke="#000000" d="M 1054 818 L 1104 816 L 1098 661" stroke-miterlimit="10"/></g><g transform="translate(-380,-86) scale(1,1)"><path fill="none" stroke="#000000" d="M 1102.5994669008342 670.9922422022353 L 1098 661 L 1094.186732014964 671.3178964558819" stroke-miterlimit="10"/></g><g transform="translate(-380,-86) scale(1,1)"><g><path fill="none" stroke="none"/><text fill="#000000" stroke="none" font-family="Arial" font-size="13px" font-style="normal" font-weight="normal" text-decoration="none" x="1109" y="738">+CONFIRM</text></g></g><g transform="translate(-380,-86) scale(1,1)"><rect fill="#C0C0C0" stroke="none" x="919" y="799" width="141.18994140625" height="57" opacity="0.2"/></g><g transform="translate(-380,-86) scale(1,1)"><rect fill="#ffff91" stroke="none" x="912" y="792" width="141.18994140625" height="57"/></g><g transform="translate(-380,-86) scale(1,1)"><path fill="none" stroke="#000000" d="M 912 792 L 1053.18994140625 792 L 1053.18994140625 849 L 912 849 L 912 792 Z Z" stroke-miterlimit="10"/></g><g transform="translate(-380,-86) scale(1,1)"><path fill="none" stroke="#000000" d="M 912 830 L 1053.18994140625 830" stroke-miterlimit="10"/></g><g transform="translate(-380,-86) scale(1,1)"><path fill="none" stroke="#000000" d="M 912 840 L 1053.18994140625 840" stroke-miterlimit="10"/></g><g transform="translate(-380,-86) scale(1,1)"><g><path fill="none" stroke="none"/><text fill="#000000" stroke="none" font-family="Arial" font-size="13px" font-style="normal" font-weight="normal" text-decoration="none" x="946.464111328125" y="809.5">«input form»</text></g></g><g transform="translate(-380,-86) scale(1,1)"><g><path fill="none" stroke="none"/><text fill="#000000" stroke="none" font-family="Arial" font-size="13px" font-style="normal" font-weight="bold" text-decoration="none" x="919.73095703125" y="824.5">ManageRequestForm</text></g></g><g transform="translate(-380,-86) scale(1,1)"><path fill="none" stroke="#000000" d="M 981 791 L 981 746" stroke-miterlimit="10"/></g><g transform="translate(-380,-86) scale(1,1)"><path fill="#000000" stroke="none" d="M 985.209517756016 756.1626748576241 L 981 746 L 976.790482243984 756.1626748576241 L 981 768"/></g><g transform="translate(-380,-86) scale(1,1)"><path fill="none" stroke="#000000" d="M 985.209517756016 756.1626748576241 L 981 746 L 976.790482243984 756.1626748576241 L 981 768 L 985.209517756016 756.1626748576241" stroke-miterlimit="10"/></g><g transform="translate(-380,-86) scale(1,1)"><path fill="none" stroke="#000000" d="M 911 818 L 848 816 L 848 720 L 887 719" stroke-miterlimit="10"/></g><g transform="translate(-380,-86) scale(1,1)"><path fill="none" stroke="#000000" d="M 876.9485651713802 723.4686304262053 L 887 719 L 876.732763395042 715.0523611490146" stroke-miterlimit="10"/></g><g transform="translate(-380,-86) scale(1,1)"><g><path fill="none" stroke="none"/><text fill="#000000" stroke="none" font-family="Arial" font-size="13px" font-style="normal" font-weight="normal" text-decoration="none" x="782" y="774">+ERROR</text></g></g><g transform="translate(-380,-86) scale(1,1)"><rect fill="#C0C0C0" stroke="none" x="1255" y="439" width="110.83544921875" height="57" opacity="0.2"/></g><g transform="translate(-380,-86) scale(1,1)"><rect fill="#ffc082" stroke="none" x="1248" y="432" width="110.83544921875" height="57"/></g><g transform="translate(-380,-86) scale(1,1)"><path fill="none" stroke="#000000" d="M 1248 432 L 1358.83544921875 432 L 1358.83544921875 489 L 1248 489 L 1248 432 Z Z" stroke-miterlimit="10"/></g><g transform="translate(-380,-86) scale(1,1)"><path fill="none" stroke="#000000" d="M 1248 470 L 1358.83544921875 470" stroke-miterlimit="10"/></g><g transform="translate(-380,-86) scale(1,1)"><path fill="none" stroke="#000000" d="M 1248 480 L 1358.83544921875 480" stroke-miterlimit="10"/></g><g transform="translate(-380,-86) scale(1,1)"><g><path fill="none" stroke="none"/><text fill="#000000" stroke="none" font-family="Arial" font-size="13px" font-style="normal" font-weight="normal" text-decoration="none" x="1276.67822265625" y="449.5">«screen»</text></g></g><g transform="translate(-380,-86) scale(1,1)"><g><path fill="none" stroke="none"/><text fill="#000000" stroke="none" font-family="Arial" font-size="13px" font-style="normal" font-weight="bold" text-decoration="none" x="1255.3564453125" y="464.5">ManageYourInfo</text></g></g><g transform="translate(-380,-86) scale(1,1)"><path fill="none" stroke="#000000" d="M 1247 462 L 1143 465" stroke-miterlimit="10"/></g><g transform="translate(-380,-86) scale(1,1)"><path fill="#FFFFFF" stroke="none" d="M 1153.037071402626 460.49920033120895 L 1143 465 L 1153.2798272186146 468.914735285486 L 1164.990852601762 464.36564848264146"/></g><g transform="translate(-380,-86) scale(1,1)"><path fill="none" stroke="#000000" d="M 1153.037071402626 460.49920033120895 L 1143 465 L 1153.2798272186146 468.914735285486 L 1164.990852601762 464.36564848264146 L 1153.037071402626 460.49920033120895" stroke-miterlimit="10"/></g><g transform="translate(-380,-86) scale(1,1)"><rect fill="#C0C0C0" stroke="none" x="1479" y="439" width="113.7236328125" height="57" opacity="0.2"/></g><g transform="translate(-380,-86) scale(1,1)"><rect fill="#ffc082" stroke="none" x="1472" y="432" width="113.7236328125" height="57"/></g><g transform="translate(-380,-86) scale(1,1)"><path fill="none" stroke="#000000" d="M 1472 432 L 1585.7236328125 432 L 1585.7236328125 489 L 1472 489 L 1472 432 Z Z" stroke-miterlimit="10"/></g><g transform="translate(-380,-86) scale(1,1)"><path fill="none" stroke="#000000" d="M 1472 470 L 1585.7236328125 470" stroke-miterlimit="10"/></g><g transform="translate(-380,-86) scale(1,1)"><path fill="none" stroke="#000000" d="M 1472 480 L 1585.7236328125 480" stroke-miterlimit="10"/></g><g transform="translate(-380,-86) scale(1,1)"><g><path fill="none" stroke="none"/><text fill="#000000" stroke="none" font-family="Arial" font-size="13px" font-style="normal" font-weight="normal" text-decoration="none" x="1492.73095703125" y="449.5">«input form»</text></g></g><g transform="translate(-380,-86) scale(1,1)"><g><path fill="none" stroke="none"/><text fill="#000000" stroke="none" font-family="Arial" font-size="13px" font-style="normal" font-weight="bold" text-decoration="none" x="1479.365966796875" y="464.5">ManageInfoForm</text></g></g><g transform="translate(-380,-86) scale(1,1)"><path fill="none" stroke="#000000" d="M 1471 460 L 1360 460" stroke-miterlimit="10"/></g><g transform="translate(-380,-86) scale(1,1)"><path fill="#000000" stroke="none" d="M 1370.162674857624 455.790482243984 L 1360 460 L 1370.162674857624 464.209517756016 L 1382 460"/></g><g transform="translate(-380,-86) scale(1,1)"><path fill="none" stroke="#000000" d="M 1370.162674857624 455.790482243984 L 1360 460 L 1370.162674857624 464.209517756016 L 1382 460 L 1370.162674857624 455.790482243984" stroke-miterlimit="10"/></g><g transform="translate(-380,-86) scale(1,1)"><path fill="none" stroke="#000000" d="M 1528 490 L 1528 528 L 1304 528 L 1303 490" stroke-miterlimit="10"/></g><g transform="translate(-380,-86) scale(1,1)"><path fill="none" stroke="#000000" d="M 1307.4754071800323 500.0484193071803 L 1303 490 L 1299.059285333259 500.2698961978849" stroke-miterlimit="10"/></g><g transform="translate(-380,-86) scale(1,1)"><g><path fill="none" stroke="none"/><text fill="#000000" stroke="none" font-family="Arial" font-size="13px" font-style="normal" font-weight="normal" text-decoration="none" x="1386" y="521">+ERROR</text></g></g><g transform="translate(-380,-86) scale(1,1)"><path fill="none" stroke="#000000" d="M 1528 431 L 1528 400 L 1160 400 L 1129 431" stroke-miterlimit="10"/></g><g transform="translate(-380,-86) scale(1,1)"><path fill="none" stroke="#000000" d="M 1133.2095177560159 420.83732514237585 L 1129 431 L 1139.162674857624 426.790482243984" stroke-miterlimit="10"/></g><g transform="translate(-380,-86) scale(1,1)"><g><path fill="none" stroke="none"/><text fill="#000000" stroke="none" font-family="Arial" font-size="13px" font-style="normal" font-weight="normal" text-decoration="none" x="1308" y="396">+CORRECT</text></g></g><g transform="translate(-380,-86) scale(1,1)"><rect fill="#C0C0C0" stroke="none" x="919" y="207" width="128.91357421875" height="57" opacity="0.2"/></g><g transform="translate(-380,-86) scale(1,1)"><rect fill="#a3ffa3" stroke="none" x="912" y="200" width="128.91357421875" height="57"/></g><g transform="translate(-380,-86) scale(1,1)"><path fill="none" stroke="#000000" d="M 912 200 L 1040.91357421875 200 L 1040.91357421875 257 L 912 257 L 912 200 Z Z" stroke-miterlimit="10"/></g><g transform="translate(-380,-86) scale(1,1)"><path fill="none" stroke="#000000" d="M 912 238 L 1040.91357421875 238" stroke-miterlimit="10"/></g><g transform="translate(-380,-86) scale(1,1)"><path fill="none" stroke="#000000" d="M 912 248 L 1040.91357421875 248" stroke-miterlimit="10"/></g><g transform="translate(-380,-86) scale(1,1)"><g><path fill="none" stroke="none"/><text fill="#000000" stroke="none" font-family="Arial" font-size="13px" font-style="normal" font-weight="normal" text-decoration="none" x="949.71728515625" y="217.5">«screen»</text></g></g><g transform="translate(-380,-86) scale(1,1)"><g><path fill="none" stroke="none"/><text fill="#000000" stroke="none" font-family="Arial" font-size="13px" font-style="normal" font-weight="bold" text-decoration="none" x="920.457763671875" y="232.5">NotifyProblemPage</text></g></g><g transform="translate(-380,-86) scale(1,1)"><path fill="none" stroke="#000000" d="M 1008 258 L 1047 295" stroke-miterlimit="10"/></g><g transform="translate(-380,-86) scale(1,1)"><path fill="#FFFFFF" stroke="none" d="M 1036.730103802115 291.0592853332588 L 1047 295 L 1042.5245928199677 284.9515806928197 L 1031.0397986327973 279.858270497782"/></g><g transform="translate(-380,-86) scale(1,1)"><path fill="none" stroke="#000000" d="M 1036.730103802115 291.0592853332588 L 1047 295 L 1042.5245928199677 284.9515806928197 L 1031.0397986327973 279.858270497782 L 1036.730103802115 291.0592853332588" stroke-miterlimit="10"/></g><g transform="translate(-380,-86) scale(1,1)"><rect fill="#C0C0C0" stroke="none" x="919" y="103" width="128" height="64" opacity="0.2"/></g><g transform="translate(-380,-86) scale(1,1)"><rect fill="#a3ffa3" stroke="none" x="912" y="96" width="128" height="64"/></g><g transform="translate(-380,-86) scale(1,1)"><path fill="none" stroke="#000000" d="M 912 96 L 1040 96 L 1040 160 L 912 160 L 912 96 Z Z" stroke-miterlimit="10"/></g><g transform="translate(-380,-86) scale(1,1)"><path fill="none" stroke="#000000" d="M 912 134 L 1040 134" stroke-miterlimit="10"/></g><g transform="translate(-380,-86) scale(1,1)"><path fill="none" stroke="#000000" d="M 912 144 L 1040 144" stroke-miterlimit="10"/></g><g transform="translate(-380,-86) scale(1,1)"><g><path fill="none" stroke="none"/><text fill="#000000" stroke="none" font-family="Arial" font-size="13px" font-style="normal" font-weight="normal" text-decoration="none" x="939.869140625" y="113.5">«input form»</text></g></g><g transform="translate(-380,-86) scale(1,1)"><g><path fill="none" stroke="none"/><text fill="#000000" stroke="none" font-family="Arial" font-size="13px" font-style="normal" font-weight="bold" text-decoration="none" x="936.6318359375" y="128.5">ProblemForm</text></g></g><g transform="translate(-380,-86) scale(1,1)"><path fill="none" stroke="#000000" d="M 976 161 L 976 199" stroke-miterlimit="10"/></g><g transform="translate(-380,-86) scale(1,1)"><path fill="#000000" stroke="none" d="M 971.790482243984 188.83732514237585 L 976 199 L 980.209517756016 188.83732514237585 L 976 177"/></g><g transform="translate(-380,-86) scale(1,1)"><path fill="none" stroke="#000000" d="M 971.790482243984 188.83732514237585 L 976 199 L 980.209517756016 188.83732514237585 L 976 177 L 971.790482243984 188.83732514237585" stroke-miterlimit="10"/></g><g transform="translate(-380,-86) scale(1,1)"><path fill="none" stroke="#000000" d="M 911 128 L 872 128 L 872 224 L 911 226" stroke-miterlimit="10"/></g><g transform="translate(-380,-86) scale(1,1)"><path fill="none" stroke="#000000" d="M 900.6350725839661 229.68351457990175 L 911 226 L 901.066251399568 221.2755276756641" stroke-miterlimit="10"/></g><g transform="translate(-380,-86) scale(1,1)"><g><path fill="none" stroke="none"/><text fill="#000000" stroke="none" font-family="Arial" font-size="13px" font-style="normal" font-weight="normal" text-decoration="none" x="806" y="188">+ERROR</text></g></g><g transform="translate(-380,-86) scale(1,1)"><path fill="none" stroke="#000000" d="M 1041 128 L 1096 128 L 1093 295" stroke-miterlimit="10"/></g><g transform="translate(-380,-86) scale(1,1)"><path fill="none" stroke="#000000" d="M 1088.9736948731654 284.76335665241646 L 1093 295 L 1097.3913722693535 284.91457241402463" stroke-miterlimit="10"/></g><g transform="translate(-380,-86) scale(1,1)"><g><path fill="none" stroke="none"/><text fill="#000000" stroke="none" font-family="Arial" font-size="13px" font-style="normal" font-weight="normal" text-decoration="none" x="1101" y="237">+CONFIRM</text></g></g><g transform="translate(-380,-86) scale(1,1)"><rect fill="#C0C0C0" stroke="none" x="1591" y="311" width="142.63720703125" height="57" opacity="0.2"/></g><g transform="translate(-380,-86) scale(1,1)"><rect fill="#a3ffa3" stroke="none" x="1584" y="304" width="142.63720703125" height="57"/></g><g transform="translate(-380,-86) scale(1,1)"><path fill="none" stroke="#000000" d="M 1584 304 L 1726.63720703125 304 L 1726.63720703125 361 L 1584 361 L 1584 304 Z Z" stroke-miterlimit="10"/></g><g transform="translate(-380,-86) scale(1,1)"><path fill="none" stroke="#000000" d="M 1584 342 L 1726.63720703125 342" stroke-miterlimit="10"/></g><g transform="translate(-380,-86) scale(1,1)"><path fill="none" stroke="#000000" d="M 1584 352 L 1726.63720703125 352" stroke-miterlimit="10"/></g><g transform="translate(-380,-86) scale(1,1)"><g><path fill="none" stroke="none"/><text fill="#000000" stroke="none" font-family="Arial" font-size="13px" font-style="normal" font-weight="normal" text-decoration="none" x="1628.5791015625" y="321.5">«screen»</text></g></g><g transform="translate(-380,-86) scale(1,1)"><g><path fill="none" stroke="none"/><text fill="#000000" stroke="none" font-family="Arial" font-size="13px" font-style="normal" font-weight="bold" text-decoration="none" x="1592.45458984375" y="336.5">ReportCustomerPage</text></g></g><g transform="translate(-380,-86) scale(1,1)"><rect fill="#C0C0C0" stroke="none" x="1591" y="575" width="107.97265625" height="57" opacity="0.2"/></g><g transform="translate(-380,-86) scale(1,1)"><rect fill="#ffff91" stroke="none" x="1584" y="568" width="107.97265625" height="57"/></g><g transform="translate(-380,-86) scale(1,1)"><path fill="none" stroke="#000000" d="M 1584 568 L 1691.97265625 568 L 1691.97265625 625 L 1584 625 L 1584 568 Z Z" stroke-miterlimit="10"/></g><g transform="translate(-380,-86) scale(1,1)"><path fill="none" stroke="#000000" d="M 1584 606 L 1691.97265625 606" stroke-miterlimit="10"/></g><g transform="translate(-380,-86) scale(1,1)"><path fill="none" stroke="#000000" d="M 1584 616 L 1691.97265625 616" stroke-miterlimit="10"/></g><g transform="translate(-380,-86) scale(1,1)"><g><path fill="none" stroke="none"/><text fill="#000000" stroke="none" font-family="Arial" font-size="13px" font-style="normal" font-weight="normal" text-decoration="none" x="1611.246826171875" y="585.5">«screen»</text></g></g><g transform="translate(-380,-86) scale(1,1)"><g><path fill="none" stroke="none"/><text fill="#000000" stroke="none" font-family="Arial" font-size="13px" font-style="normal" font-weight="bold" text-decoration="none" x="1591.016845703125" y="600.5">ReportTaxiPage</text></g></g><g transform="translate(-380,-86) scale(1,1)"><path fill="none" stroke="#000000" d="M 1583 333 L 1153 337" stroke-miterlimit="10"/></g><g transform="translate(-380,-86) scale(1,1)"><path fill="#FFFFFF" stroke="none" d="M 1163.1230785708906 332.69613194352166 L 1153 337 L 1163.201391792029 341.114803215893 L 1174.9990481958982 336.79535769120093"/></g><g transform="translate(-380,-86) scale(1,1)"><path fill="none" stroke="#000000" d="M 1163.1230785708906 332.69613194352166 L 1153 337 L 1163.201391792029 341.114803215893 L 1174.9990481958982 336.79535769120093 L 1163.1230785708906 332.69613194352166" stroke-miterlimit="10"/></g><g transform="translate(-380,-86) scale(1,1)"><path fill="none" stroke="#000000" d="M 1583 597 L 1177 608" stroke-miterlimit="10"/></g><g transform="translate(-380,-86) scale(1,1)"><path fill="#FFFFFF" stroke="none" d="M 1187.0449377519717 603.5167840160201 L 1177 608 L 1187.2729560248122 611.9327311772198 L 1198.9919297503602 607.4041595387833"/></g><g transform="translate(-380,-86) scale(1,1)"><path fill="none" stroke="#000000" d="M 1187.0449377519717 603.5167840160201 L 1177 608 L 1187.2729560248122 611.9327311772198 L 1198.9919297503602 607.4041595387833 L 1187.0449377519717 603.5167840160201" stroke-miterlimit="10"/></g><g transform="translate(-380,-86) scale(1,1)"><rect fill="#C0C0C0" stroke="none" x="1591" y="687" width="109.40087890625" height="57" opacity="0.2"/></g><g transform="translate(-380,-86) scale(1,1)"><rect fill="#ffff91" stroke="none" x="1584" y="680" width="109.40087890625" height="57"/></g><g transform="translate(-380,-86) scale(1,1)"><path fill="none" stroke="#000000" d="M 1584 680 L 1693.40087890625 680 L 1693.40087890625 737 L 1584 737 L 1584 680 Z Z" stroke-miterlimit="10"/></g><g transform="translate(-380,-86) scale(1,1)"><path fill="none" stroke="#000000" d="M 1584 718 L 1693.40087890625 718" stroke-miterlimit="10"/></g><g transform="translate(-380,-86) scale(1,1)"><path fill="none" stroke="#000000" d="M 1584 728 L 1693.40087890625 728" stroke-miterlimit="10"/></g><g transform="translate(-380,-86) scale(1,1)"><g><path fill="none" stroke="none"/><text fill="#000000" stroke="none" font-family="Arial" font-size="13px" font-style="normal" font-weight="normal" text-decoration="none" x="1602.569580078125" y="697.5">«input form»</text></g></g><g transform="translate(-380,-86) scale(1,1)"><g><path fill="none" stroke="none"/><text fill="#000000" stroke="none" font-family="Arial" font-size="13px" font-style="normal" font-weight="bold" text-decoration="none" x="1591.746826171875" y="712.5">ReportTaxiForm</text></g></g><g transform="translate(-380,-86) scale(1,1)"><rect fill="#C0C0C0" stroke="none" x="1591" y="207" width="144.0654296875" height="57" opacity="0.2"/></g><g transform="translate(-380,-86) scale(1,1)"><rect fill="#a3ffa3" stroke="none" x="1584" y="200" width="144.0654296875" height="57"/></g><g transform="translate(-380,-86) scale(1,1)"><path fill="none" stroke="#000000" d="M 1584 200 L 1728.0654296875 200 L 1728.0654296875 257 L 1584 257 L 1584 200 Z Z" stroke-miterlimit="10"/></g><g transform="translate(-380,-86) scale(1,1)"><path fill="none" stroke="#000000" d="M 1584 238 L 1728.0654296875 238" stroke-miterlimit="10"/></g><g transform="translate(-380,-86) scale(1,1)"><path fill="none" stroke="#000000" d="M 1584 248 L 1728.0654296875 248" stroke-miterlimit="10"/></g><g transform="translate(-380,-86) scale(1,1)"><g><path fill="none" stroke="none"/><text fill="#000000" stroke="none" font-family="Arial" font-size="13px" font-style="normal" font-weight="normal" text-decoration="none" x="1619.90185546875" y="217.5">«input form»</text></g></g><g transform="translate(-380,-86) scale(1,1)"><g><path fill="none" stroke="none"/><text fill="#000000" stroke="none" font-family="Arial" font-size="13px" font-style="normal" font-weight="bold" text-decoration="none" x="1593.1845703125" y="232.5">ReportCustomerForm</text></g></g><g transform="translate(-380,-86) scale(1,1)"><path fill="none" stroke="#000000" d="M 1656 258 L 1655 303" stroke-miterlimit="10"/></g><g transform="translate(-380,-86) scale(1,1)"><path fill="#000000" stroke="none" d="M 1651.0173027237106 292.74631176573826 L 1655 303 L 1659.4342602311417 292.9333552659034 L 1655.4887682202732 281.00543008770455"/></g><g transform="translate(-380,-86) scale(1,1)"><path fill="none" stroke="#000000" d="M 1651.0173027237106 292.74631176573826 L 1655 303 L 1659.4342602311417 292.9333552659034 L 1655.4887682202732 281.00543008770455 L 1651.0173027237106 292.74631176573826" stroke-miterlimit="10"/></g><g transform="translate(-380,-86) scale(1,1)"><path fill="none" stroke="#000000" d="M 1638 679 L 1637 626" stroke-miterlimit="10"/></g><g transform="translate(-380,-86) scale(1,1)"><path fill="#000000" stroke="none" d="M 1641.4004831250716 636.0814556620539 L 1637 626 L 1632.9829457953654 636.240277121105 L 1637.4150204728476 647.9960850609175"/></g><g transform="translate(-380,-86) scale(1,1)"><path fill="none" stroke="#000000" d="M 1641.4004831250716 636.0814556620539 L 1637 626 L 1632.9829457953654 636.240277121105 L 1637.4150204728476 647.9960850609175 L 1641.4004831250716 636.0814556620539" stroke-miterlimit="10"/></g><g transform="translate(-380,-86) scale(1,1)"><path fill="none" stroke="#000000" d="M 1694 710 L 1768 712 L 1768 600 L 1693 598" stroke-miterlimit="10"/></g><g transform="translate(-380,-86) scale(1,1)"><path fill="none" stroke="#000000" d="M 1703.2712773037588 594.0628865206484 L 1693 598 L 1703.0468494724857 602.4789301933847" stroke-miterlimit="10"/></g><g transform="translate(-380,-86) scale(1,1)"><g><path fill="none" stroke="none"/><text fill="#000000" stroke="none" font-family="Arial" font-size="13px" font-style="normal" font-weight="normal" text-decoration="none" x="1694" y="662">+ERROR</text></g></g><g transform="translate(-380,-86) scale(1,1)"><path fill="none" stroke="#000000" d="M 1583 698 L 1177 625" stroke-miterlimit="10"/></g><g transform="translate(-380,-86) scale(1,1)"><path fill="none" stroke="#000000" d="M 1187.7472164950798 622.6553598127038 L 1177 625 L 1186.2573406384306 630.9415186866712" stroke-miterlimit="10"/></g><g transform="translate(-380,-86) scale(1,1)"><g><path fill="none" stroke="none"/><text fill="#000000" stroke="none" font-family="Arial" font-size="13px" font-style="normal" font-weight="normal" text-decoration="none" x="1390" y="661">+CONFIRM</text></g></g><g transform="translate(-380,-86) scale(1,1)"><path fill="none" stroke="#000000" d="M 1729 230 L 1792 232 L 1792 336 L 1728 334" stroke-miterlimit="10"/></g><g transform="translate(-380,-86) scale(1,1)"><path fill="none" stroke="#000000" d="M 1738.2891994902807 330.1099648010322 L 1728 334 L 1738.0262330008031 338.5248924643141" stroke-miterlimit="10"/></g><g transform="translate(-380,-86) scale(1,1)"><g><path fill="none" stroke="none"/><text fill="#000000" stroke="none" font-family="Arial" font-size="13px" font-style="normal" font-weight="normal" text-decoration="none" x="1727" y="289">+ERROR</text></g></g><g transform="translate(-380,-86) scale(1,1)"><path fill="none" stroke="#000000" d="M 1583 242 L 1153 326" stroke-miterlimit="10"/></g><g transform="translate(-380,-86) scale(1,1)"><path fill="none" stroke="#000000" d="M 1162.1670749364723 319.92013675243436 L 1153 326 L 1163.7812133822654 328.18298832018434" stroke-miterlimit="10"/></g><g transform="translate(-380,-86) scale(1,1)"><g><path fill="none" stroke="none"/><text fill="#000000" stroke="none" font-family="Arial" font-size="13px" font-style="normal" font-weight="normal" text-decoration="none" x="1359" y="304">+CONFIRM</text></g></g></g></svg>