<svg version="1.1" xmlns="http://www.w3.org/2000/svg" xmlns:xlink="http://www.w3.org/1999/xlink" width="1180" height="695"><defs/><g><g transform="translate(10,10) scale(1,1)"><path fill="none" stroke="#000000" d="M 0 0 L 1160 0 L 1160 675 L 0 675 L 0 0" stroke-miterlimit="10"/></g><g transform="translate(10,10) scale(1,1)"><path fill="#ffffff" stroke="none" d="M 0 0 L 0 22 L 178.56982421875 22 L 189.56982421875 11 L 189.56982421875 0 L 0 0"/></g><g transform="translate(10,10) scale(1,1)"><path fill="none" stroke="#000000" d="M 0 0 L 0 22 L 178.56982421875 22 L 189.56982421875 11 L 189.56982421875 0 L 0 0 L 0 0" stroke-miterlimit="10"/></g><g transform="translate(10,10) scale(1,1)"><g><path fill="none" stroke="none"/><text fill="#000000" stroke="none" font-family="Arial" font-size="13px" font-style="normal" font-weight="normal" text-decoration="none" x="70.97900390625" y="17.5">Report  Customer</text></g></g><g transform="translate(10,10) scale(1,1)"><g><path fill="none" stroke="none"/><text fill="#000000" stroke="none" font-family="Arial" font-size="13px" font-style="normal" font-weight="bold" text-decoration="none" x="5" y="17.5">interaction</text></g></g><g transform="translate(10,10) scale(1,1)"><path fill="#a3ffa3" stroke="none" d="M 78.0108504971591 47.3 C 78.0108504971591 43.82060576 80.88925221934092 41 84.43994140625 41 C 87.99063059315908 41 90.8690323153409 43.82060576 90.8690323153409 47.3 C 90.8690323153409 50.779394239999995 87.99063059315908 53.6 84.43994140625 53.6 C 80.88925221934092 53.6 78.0108504971591 50.779394239999995 78.0108504971591 47.3 Z"/></g><g transform="translate(10,10) scale(1,1)"><path fill="none" stroke="#000000" d="M 78.0108504971591 47.3 C 78.0108504971591 43.82060576 80.88925221934092 41 84.43994140625 41 C 87.99063059315908 41 90.8690323153409 43.82060576 90.8690323153409 47.3 C 90.8690323153409 50.779394239999995 87.99063059315908 53.6 84.43994140625 53.6 C 80.88925221934092 53.6 78.0108504971591 50.779394239999995 78.0108504971591 47.3 Z" stroke-miterlimit="10"/></g><g transform="translate(10,10) scale(1,1)"><path fill="none" stroke="#000000" d="M 84.43994140625 53.6 L 84.43994140625 66.4" stroke-miterlimit="10"/></g><g transform="translate(10,10) scale(1,1)"><path fill="none" stroke="#000000" d="M 77.63266867897727 58.4 L 91.24721413352273 58.4" stroke-miterlimit="10"/></g><g transform="translate(10,10) scale(1,1)"><path fill="none" stroke="#000000" d="M 84.43994140625 66.4 L 74.98539595170455 79" stroke-miterlimit="10"/></g><g transform="translate(10,10) scale(1,1)"><path fill="none" stroke="#000000" d="M 84.43994140625 66.4 L 93.89448686079545 79" stroke-miterlimit="10"/></g><g transform="translate(10,10) scale(1,1)"><g><path fill="none" stroke="none"/><text fill="#000000" stroke="none" font-family="Arial" font-size="13px" font-style="normal" font-weight="bold" text-decoration="none" x="25.197265625" y="99.5">Lifeline1: Taxi Driver</text></g></g><g transform="translate(10,10) scale(1,1)"><path fill="none" stroke="#000000" d="M 85.5 105 L 85.5 654" stroke-miterlimit="10" stroke-dasharray="3"/></g><g transform="translate(10,10) scale(1,1)"><rect fill="#C0C0C0" stroke="none" x="311" y="47" width="123.04443359375" height="39" opacity="0.2"/></g><g transform="translate(10,10) scale(1,1)"><rect fill="#a3ffa3" stroke="none" x="304" y="40" width="123.04443359375" height="39"/></g><g transform="translate(10,10) scale(1,1)"><path fill="none" stroke="#000000" d="M 304 40 L 427.04443359375 40 L 427.04443359375 79 L 304 79 L 304 40 Z Z" stroke-miterlimit="10"/></g><g transform="translate(10,10) scale(1,1)"><g><path fill="none" stroke="none"/><text fill="#000000" stroke="none" font-family="Arial" font-size="13px" font-style="normal" font-weight="normal" text-decoration="none" x="338.78271484375" y="57.5">«screen»</text></g></g><g transform="translate(10,10) scale(1,1)"><g><path fill="none" stroke="none"/><text fill="#000000" stroke="none" font-family="Arial" font-size="13px" font-style="normal" font-weight="bold" text-decoration="none" x="317.486328125" y="72.5">TaxiDriverProfile</text></g></g><g transform="translate(10,10) scale(1,1)"><path fill="none" stroke="#000000" d="M 366.5 80 L 366.5 672" stroke-miterlimit="10" stroke-dasharray="3"/></g><g transform="translate(10,10) scale(1,1)"><rect fill="#C0C0C0" stroke="none" x="487" y="47" width="152.63720703125" height="39" opacity="0.2"/></g><g transform="translate(10,10) scale(1,1)"><rect fill="#a3ffa3" stroke="none" x="480" y="40" width="152.63720703125" height="39"/></g><g transform="translate(10,10) scale(1,1)"><path fill="none" stroke="#000000" d="M 480 40 L 632.63720703125 40 L 632.63720703125 79 L 480 79 L 480 40 Z Z" stroke-miterlimit="10"/></g><g transform="translate(10,10) scale(1,1)"><g><path fill="none" stroke="none"/><text fill="#000000" stroke="none" font-family="Arial" font-size="13px" font-style="normal" font-weight="normal" text-decoration="none" x="529.5791015625" y="57.5">«screen»</text></g></g><g transform="translate(10,10) scale(1,1)"><g><path fill="none" stroke="none"/><text fill="#000000" stroke="none" font-family="Arial" font-size="13px" font-style="normal" font-weight="bold" text-decoration="none" x="493.45458984375" y="72.5">ReportCustomerPage</text></g></g><g transform="translate(10,10) scale(1,1)"><path fill="none" stroke="#000000" d="M 557.5 80 L 557.5 582" stroke-miterlimit="10" stroke-dasharray="3"/></g><g transform="translate(10,10) scale(1,1)"><rect fill="#C0C0C0" stroke="none" x="671" y="47" width="103.51904296875" height="39" opacity="0.2"/></g><g transform="translate(10,10) scale(1,1)"><rect fill="#ffffff" stroke="none" x="664" y="40" width="103.51904296875" height="39"/></g><g transform="translate(10,10) scale(1,1)"><path fill="none" stroke="#000000" d="M 664 40 L 767.51904296875 40 L 767.51904296875 79 L 664 79 L 664 40 Z Z" stroke-miterlimit="10"/></g><g transform="translate(10,10) scale(1,1)"><g><path fill="none" stroke="none"/><text fill="#000000" stroke="none" font-family="Arial" font-size="13px" font-style="normal" font-weight="normal" text-decoration="none" x="686.490478515625" y="57.5">«session»</text></g></g><g transform="translate(10,10) scale(1,1)"><g><path fill="none" stroke="none"/><text fill="#000000" stroke="none" font-family="Arial" font-size="13px" font-style="normal" font-weight="bold" text-decoration="none" x="676.02001953125" y="72.5">Check Report</text></g></g><g transform="translate(10,10) scale(1,1)"><path fill="none" stroke="#000000" d="M 716.5 80 L 716.5 670" stroke-miterlimit="10" stroke-dasharray="3"/></g><g transform="translate(10,10) scale(1,1)"><rect fill="#C0C0C0" stroke="none" x="799" y="47" width="72.47900390625" height="39" opacity="0.2"/></g><g transform="translate(10,10) scale(1,1)"><rect fill="#a3ffa3" stroke="none" x="792" y="40" width="72.47900390625" height="39"/></g><g transform="translate(10,10) scale(1,1)"><path fill="none" stroke="#000000" d="M 792 40 L 864.47900390625 40 L 864.47900390625 79 L 792 79 L 792 40 Z Z" stroke-miterlimit="10"/></g><g transform="translate(10,10) scale(1,1)"><g><path fill="none" stroke="none"/><text fill="#000000" stroke="none" font-family="Arial" font-size="13px" font-style="normal" font-weight="normal" text-decoration="none" x="801.5" y="57.5">«screen»</text></g></g><g transform="translate(10,10) scale(1,1)"><g><path fill="none" stroke="none"/><text fill="#000000" stroke="none" font-family="Arial" font-size="13px" font-style="normal" font-weight="bold" text-decoration="none" x="813.79541015625" y="72.5">Error</text></g></g><g transform="translate(10,10) scale(1,1)"><path fill="none" stroke="#000000" d="M 829.5 80 L 829.5 670" stroke-miterlimit="10" stroke-dasharray="3"/></g><g transform="translate(10,10) scale(1,1)"><rect fill="#C0C0C0" stroke="none" x="927" y="47" width="123.72998046875" height="39" opacity="0.2"/></g><g transform="translate(10,10) scale(1,1)"><rect fill="#a3ffa3" stroke="none" x="920" y="40" width="123.72998046875" height="39"/></g><g transform="translate(10,10) scale(1,1)"><path fill="none" stroke="#000000" d="M 920 40 L 1043.72998046875 40 L 1043.72998046875 79 L 920 79 L 920 40 Z Z" stroke-miterlimit="10"/></g><g transform="translate(10,10) scale(1,1)"><g><path fill="none" stroke="none"/><text fill="#000000" stroke="none" font-family="Arial" font-size="13px" font-style="normal" font-weight="normal" text-decoration="none" x="955.12548828125" y="57.5">«screen»</text></g></g><g transform="translate(10,10) scale(1,1)"><g><path fill="none" stroke="none"/><text fill="#000000" stroke="none" font-family="Arial" font-size="13px" font-style="normal" font-weight="bold" text-decoration="none" x="933.095947265625" y="72.5">Confirm Request</text></g></g><g transform="translate(10,10) scale(1,1)"><path fill="none" stroke="#000000" d="M 982.5 80 L 982.5 672" stroke-miterlimit="10" stroke-dasharray="3"/></g><g transform="translate(10,10) scale(1,1)"><path fill="none" stroke="#000000" d="M 464 352 L 1016 352 L 1016 656 L 464 656 L 464 352" stroke-miterlimit="10"/></g><g transform="translate(10,10) scale(1,1)"><path fill="#ffffff" stroke="none" d="M 464 352 L 464 374 L 526.96630859375 374 L 537.96630859375 363 L 537.96630859375 352 L 464 352"/></g><g transform="translate(10,10) scale(1,1)"><path fill="none" stroke="#000000" d="M 464 352 L 464 374 L 526.96630859375 374 L 537.96630859375 363 L 537.96630859375 352 L 464 352 L 464 352" stroke-miterlimit="10"/></g><g transform="translate(10,10) scale(1,1)"><g><path fill="none" stroke="none"/><text fill="#000000" stroke="none" font-family="Arial" font-size="13px" font-style="normal" font-weight="normal" text-decoration="none" x="488.72998046875" y="369.5">Reply</text></g></g><g transform="translate(10,10) scale(1,1)"><g><path fill="none" stroke="none"/><text fill="#000000" stroke="none" font-family="Arial" font-size="13px" font-style="normal" font-weight="bold" text-decoration="none" x="469" y="369.5">alt</text></g></g><g transform="translate(10,10) scale(1,1)"><g><path fill="none" stroke="none"/><text fill="#000000" stroke="none" font-family="Arial" font-size="13px" font-style="normal" font-weight="normal" text-decoration="none" x="483.5" y="402.5">[Confirm]</text></g></g><g transform="translate(10,10) scale(1,1)"><path fill="none" stroke="#000000" d="M 464 505 L 1016 505" stroke-miterlimit="10" stroke-dasharray="10,3"/></g><g transform="translate(10,10) scale(1,1)"><g><path fill="none" stroke="none"/><text fill="#000000" stroke="none" font-family="Arial" font-size="13px" font-style="normal" font-weight="normal" text-decoration="none" x="483.5" y="532.5">[Error]</text></g></g><g transform="translate(10,10) scale(1,1)"><rect fill="#C0C0C0" stroke="none" x="1063" y="47" width="86.20263671875" height="39" opacity="0.2"/></g><g transform="translate(10,10) scale(1,1)"><rect fill="#91ffec" stroke="none" x="1056" y="40" width="86.20263671875" height="39"/></g><g transform="translate(10,10) scale(1,1)"><path fill="none" stroke="#000000" d="M 1056 40 L 1142.20263671875 40 L 1142.20263671875 79 L 1056 79 L 1056 40 Z Z" stroke-miterlimit="10"/></g><g transform="translate(10,10) scale(1,1)"><g><path fill="none" stroke="none"/><text fill="#000000" stroke="none" font-family="Arial" font-size="13px" font-style="normal" font-weight="bold" text-decoration="none" x="1070.92724609375" y="59.5">Customer</text></g></g><g transform="translate(10,10) scale(1,1)"><path fill="none" stroke="#000000" d="M 1100.5 80 L 1100.5 672" stroke-miterlimit="10" stroke-dasharray="3"/></g><g transform="translate(10,10) scale(1,1)"><path fill="none" stroke="#000000" d="M 85 138 L 359 138" stroke-miterlimit="10"/></g><g transform="translate(10,10) scale(1,1)"><path fill="#000000" stroke="none" d="M 348.83732514237585 142.209517756016 L 359 138 L 348.83732514237585 133.790482243984"/></g><g transform="translate(10,10) scale(1,1)"><path fill="none" stroke="#000000" d="M 348.83732514237585 142.209517756016 L 359 138 L 348.83732514237585 133.790482243984 L 348.83732514237585 142.209517756016" stroke-miterlimit="10"/></g><g transform="translate(10,10) scale(1,1)"><g><path fill="none" stroke="none"/><text fill="#000000" stroke="none" font-family="Arial" font-size="13px" font-style="normal" font-weight="normal" text-decoration="none" x="95" y="157">1 : after Taxi Driver finishes Ride</text></g></g><g transform="translate(10,10) scale(1,1)"><rect fill="#ffffff" stroke="none" x="359" y="138" width="13" height="38"/></g><g transform="translate(10,10) scale(1,1)"><path fill="none" stroke="#000000" d="M 359 138 L 372 138 L 372 176 L 359 176 L 359 138 Z Z" stroke-miterlimit="10"/></g><g transform="translate(10,10) scale(1,1)"><path fill="none" stroke="#000000" d="M 366 176 L 550 176" stroke-miterlimit="10"/></g><g transform="translate(10,10) scale(1,1)"><path fill="#000000" stroke="none" d="M 539.8373251423759 180.209517756016 L 550 176 L 539.8373251423758 171.790482243984"/></g><g transform="translate(10,10) scale(1,1)"><path fill="none" stroke="#000000" d="M 539.8373251423759 180.209517756016 L 550 176 L 539.8373251423758 171.790482243984 L 539.8373251423759 180.209517756016" stroke-miterlimit="10"/></g><g transform="translate(10,10) scale(1,1)"><g><path fill="none" stroke="none"/><text fill="#000000" stroke="none" font-family="Arial" font-size="13px" font-style="normal" font-weight="normal" text-decoration="none" x="400" y="165">2 : Report Customer</text></g></g><g transform="translate(10,10) scale(1,1)"><rect fill="#ffffff" stroke="none" x="550" y="176" width="13" height="88"/></g><g transform="translate(10,10) scale(1,1)"><path fill="none" stroke="#000000" d="M 550 176 L 563 176 L 563 264 L 550 264 L 550 176 Z Z" stroke-miterlimit="10"/></g><g transform="translate(10,10) scale(1,1)"><path fill="none" stroke="#000000" d="M 85 210 L 557 210" stroke-miterlimit="10"/></g><g transform="translate(10,10) scale(1,1)"><path fill="#000000" stroke="none" d="M 546.8373251423759 214.209517756016 L 557 210 L 546.8373251423758 205.790482243984"/></g><g transform="translate(10,10) scale(1,1)"><path fill="none" stroke="#000000" d="M 546.8373251423759 214.209517756016 L 557 210 L 546.8373251423758 205.790482243984 L 546.8373251423759 214.209517756016" stroke-miterlimit="10"/></g><g transform="translate(10,10) scale(1,1)"><g><path fill="none" stroke="none"/><text fill="#000000" stroke="none" font-family="Arial" font-size="13px" font-style="normal" font-weight="normal" text-decoration="none" x="95" y="231">3 : ReportCustomer(Ride,Passenger , text)</text></g></g><g transform="translate(10,10) scale(1,1)"><rect fill="#ffffff" stroke="none" x="557" y="210" width="13" height="44"/></g><g transform="translate(10,10) scale(1,1)"><path fill="none" stroke="#000000" d="M 557 210 L 570 210 L 570 254 L 557 254 L 557 210 Z Z" stroke-miterlimit="10"/></g><g transform="translate(10,10) scale(1,1)"><path fill="none" stroke="#000000" d="M 563 256 L 709 256" stroke-miterlimit="10"/></g><g transform="translate(10,10) scale(1,1)"><path fill="#000000" stroke="none" d="M 698.8373251423759 260.209517756016 L 709 256 L 698.8373251423758 251.790482243984"/></g><g transform="translate(10,10) scale(1,1)"><path fill="none" stroke="#000000" d="M 698.8373251423759 260.209517756016 L 709 256 L 698.8373251423758 251.790482243984 L 698.8373251423759 260.209517756016" stroke-miterlimit="10"/></g><g transform="translate(10,10) scale(1,1)"><g><path fill="none" stroke="none"/><text fill="#000000" stroke="none" font-family="Arial" font-size="13px" font-style="normal" font-weight="normal" text-decoration="none" x="600" y="245">4 : sendData</text></g></g><g transform="translate(10,10) scale(1,1)"><rect fill="#ffffff" stroke="none" x="709" y="256" width="13" height="304"/></g><g transform="translate(10,10) scale(1,1)"><path fill="none" stroke="#000000" d="M 709 256 L 722 256 L 722 560 L 709 560 L 709 256 Z Z" stroke-miterlimit="10"/></g><g transform="translate(10,10) scale(1,1)"><path fill="none" stroke="#000000" d="M 722 272 L 752 272 L 752 292 L 729 292" stroke-miterlimit="10"/></g><g transform="translate(10,10) scale(1,1)"><path fill="#000000" stroke="none" d="M 739.1626748576241 287.790482243984 L 729 292 L 739.1626748576241 296.209517756016"/></g><g transform="translate(10,10) scale(1,1)"><path fill="none" stroke="#000000" d="M 739.1626748576241 287.790482243984 L 729 292 L 739.1626748576241 296.209517756016 L 739.1626748576241 287.790482243984" stroke-miterlimit="10"/></g><g transform="translate(10,10) scale(1,1)"><g><path fill="none" stroke="none"/><text fill="#000000" stroke="none" font-family="Arial" font-size="13px" font-style="normal" font-weight="normal" text-decoration="none" x="608" y="286">5 : checkReport</text></g></g><g transform="translate(10,10) scale(1,1)"><rect fill="#ffffff" stroke="none" x="716" y="292" width="13" height="28"/></g><g transform="translate(10,10) scale(1,1)"><path fill="none" stroke="#000000" d="M 716 292 L 729 292 L 729 320 L 716 320 L 716 292 Z Z" stroke-miterlimit="10"/></g><g transform="translate(10,10) scale(1,1)"><path fill="none" stroke="#000000" d="M 722 392 L 975 392" stroke-miterlimit="10"/></g><g transform="translate(10,10) scale(1,1)"><path fill="#000000" stroke="none" d="M 964.8373251423759 396.209517756016 L 975 392 L 964.8373251423758 387.790482243984"/></g><g transform="translate(10,10) scale(1,1)"><path fill="none" stroke="#000000" d="M 964.8373251423759 396.209517756016 L 975 392 L 964.8373251423758 387.790482243984 L 964.8373251423759 396.209517756016" stroke-miterlimit="10"/></g><g transform="translate(10,10) scale(1,1)"><g><path fill="none" stroke="none"/><text fill="#000000" stroke="none" font-family="Arial" font-size="13px" font-style="normal" font-weight="normal" text-decoration="none" x="736" y="380">6 : Confirm</text></g></g><g transform="translate(10,10) scale(1,1)"><rect fill="#ffffff" stroke="none" x="975" y="392" width="13" height="28"/></g><g transform="translate(10,10) scale(1,1)"><path fill="none" stroke="#000000" d="M 975 392 L 988 392 L 988 420 L 975 420 L 975 392 Z Z" stroke-miterlimit="10"/></g><g transform="translate(10,10) scale(1,1)"><path fill="none" stroke="#000000" d="M 722 456 L 1093 456" stroke-miterlimit="10"/></g><g transform="translate(10,10) scale(1,1)"><path fill="#000000" stroke="none" d="M 1082.837325142376 460.209517756016 L 1093 456 L 1082.837325142376 451.790482243984"/></g><g transform="translate(10,10) scale(1,1)"><path fill="none" stroke="#000000" d="M 1082.837325142376 460.209517756016 L 1093 456 L 1082.837325142376 451.790482243984 L 1082.837325142376 460.209517756016" stroke-miterlimit="10"/></g><g transform="translate(10,10) scale(1,1)"><g><path fill="none" stroke="none"/><text fill="#000000" stroke="none" font-family="Arial" font-size="13px" font-style="normal" font-weight="normal" text-decoration="none" x="846" y="484">7 : addNegativeReport</text></g></g><g transform="translate(10,10) scale(1,1)"><rect fill="#ffffff" stroke="none" x="1093" y="456" width="13" height="28"/></g><g transform="translate(10,10) scale(1,1)"><path fill="none" stroke="#000000" d="M 1093 456 L 1106 456 L 1106 484 L 1093 484 L 1093 456 Z Z" stroke-miterlimit="10"/></g><g transform="translate(10,10) scale(1,1)"><path fill="none" stroke="#000000" d="M 716 560 L 822 560" stroke-miterlimit="10"/></g><g transform="translate(10,10) scale(1,1)"><path fill="#000000" stroke="none" d="M 811.8373251423759 564.209517756016 L 822 560 L 811.8373251423758 555.790482243984"/></g><g transform="translate(10,10) scale(1,1)"><path fill="none" stroke="#000000" d="M 811.8373251423759 564.209517756016 L 822 560 L 811.8373251423758 555.790482243984 L 811.8373251423759 564.209517756016" stroke-miterlimit="10"/></g><g transform="translate(10,10) scale(1,1)"><g><path fill="none" stroke="none"/><text fill="#000000" stroke="none" font-family="Arial" font-size="13px" font-style="normal" font-weight="normal" text-decoration="none" x="745" y="548">8 : Error</text></g></g><g transform="translate(10,10) scale(1,1)"><rect fill="#ffffff" stroke="none" x="822" y="560" width="13" height="80"/></g><g transform="translate(10,10) scale(1,1)"><path fill="none" stroke="#000000" d="M 822 560 L 835 560 L 835 640 L 822 640 L 822 560 Z Z" stroke-miterlimit="10"/></g><g transform="translate(10,10) scale(1,1)"><path fill="none" stroke="#000000" d="M 85 600 L 829 600" stroke-miterlimit="10"/></g><g transform="translate(10,10) scale(1,1)"><path fill="#000000" stroke="none" d="M 818.8373251423759 604.209517756016 L 829 600 L 818.8373251423758 595.790482243984"/></g><g transform="translate(10,10) scale(1,1)"><path fill="none" stroke="#000000" d="M 818.8373251423759 604.209517756016 L 829 600 L 818.8373251423758 595.790482243984 L 818.8373251423759 604.209517756016" stroke-miterlimit="10"/></g><g transform="translate(10,10) scale(1,1)"><g><path fill="none" stroke="none"/><text fill="#000000" stroke="none" font-family="Arial" font-size="13px" font-style="normal" font-weight="normal" text-decoration="none" x="96" y="621">9 : OkButtonPressed</text></g></g><g transform="translate(10,10) scale(1,1)"><rect fill="#ffffff" stroke="none" x="829" y="600" width="13" height="28"/></g><g transform="translate(10,10) scale(1,1)"><path fill="none" stroke="#000000" d="M 829 600 L 842 600 L 842 628 L 829 628 L 829 600 Z Z" stroke-miterlimit="10"/></g></g></svg>