<svg version="1.1" xmlns="http://www.w3.org/2000/svg" xmlns:xlink="http://www.w3.org/1999/xlink" width="831" height="735"><defs/><g><g transform="translate(5,5) scale(1,1)"><path fill="none" stroke="#000000" d="M 5 5 L 816 5 L 816 720 L 5 720 L 5 5" stroke-miterlimit="10"/></g><g transform="translate(5,5) scale(1,1)"><path fill="#ffffff" stroke="none" d="M 5 5 L 5 27 L 112.787109375 27 L 123.787109375 16 L 123.787109375 5 L 5 5"/></g><g transform="translate(5,5) scale(1,1)"><path fill="none" stroke="#000000" d="M 5 5 L 5 27 L 112.787109375 27 L 123.787109375 16 L 123.787109375 5 L 5 5 L 5 5" stroke-miterlimit="10"/></g><g transform="translate(5,5) scale(1,1)"><g><path fill="none" stroke="none"/><text fill="#000000" stroke="none" font-family="Arial" font-size="13px" font-style="normal" font-weight="normal" text-decoration="none" x="75.97900390625" y="22.5">Login</text></g></g><g transform="translate(5,5) scale(1,1)"><g><path fill="none" stroke="none"/><text fill="#000000" stroke="none" font-family="Arial" font-size="13px" font-style="normal" font-weight="bold" text-decoration="none" x="10" y="22.5">interaction</text></g></g><g transform="translate(5,5) scale(1,1)"><path fill="#ffadad" stroke="none" d="M 78.8304305752841 47.3 C 78.8304305752841 43.82060576 81.70883229746592 41 85.259521484375 41 C 88.81021067128408 41 91.6886123934659 43.82060576 91.6886123934659 47.3 C 91.6886123934659 50.779394239999995 88.81021067128408 53.6 85.259521484375 53.6 C 81.70883229746592 53.6 78.8304305752841 50.779394239999995 78.8304305752841 47.3 Z"/></g><g transform="translate(5,5) scale(1,1)"><path fill="none" stroke="#000000" d="M 78.8304305752841 47.3 C 78.8304305752841 43.82060576 81.70883229746592 41 85.259521484375 41 C 88.81021067128408 41 91.6886123934659 43.82060576 91.6886123934659 47.3 C 91.6886123934659 50.779394239999995 88.81021067128408 53.6 85.259521484375 53.6 C 81.70883229746592 53.6 78.8304305752841 50.779394239999995 78.8304305752841 47.3 Z" stroke-miterlimit="10"/></g><g transform="translate(5,5) scale(1,1)"><path fill="none" stroke="#000000" d="M 85.259521484375 53.6 L 85.259521484375 66.4" stroke-miterlimit="10"/></g><g transform="translate(5,5) scale(1,1)"><path fill="none" stroke="#000000" d="M 78.45224875710227 58.4 L 92.06679421164773 58.4" stroke-miterlimit="10"/></g><g transform="translate(5,5) scale(1,1)"><path fill="none" stroke="#000000" d="M 85.259521484375 66.4 L 75.80497602982955 79" stroke-miterlimit="10"/></g><g transform="translate(5,5) scale(1,1)"><path fill="none" stroke="#000000" d="M 85.259521484375 66.4 L 94.71406693892045 79" stroke-miterlimit="10"/></g><g transform="translate(5,5) scale(1,1)"><g><path fill="none" stroke="none"/><text fill="#000000" stroke="none" font-family="Arial" font-size="13px" font-style="normal" font-weight="bold" text-decoration="none" x="40.0927734375" y="99.5">Lifeline1: Guest</text></g></g><g transform="translate(5,5) scale(1,1)"><path fill="none" stroke="#000000" d="M 86.5 105 L 86.5 674" stroke-miterlimit="10" stroke-dasharray="3"/></g><g transform="translate(5,5) scale(1,1)"><rect fill="#C0C0C0" stroke="none" x="287" y="47" width="86.18994140625" height="39" opacity="0.2"/></g><g transform="translate(5,5) scale(1,1)"><rect fill="#ffadad" stroke="none" x="280" y="40" width="86.18994140625" height="39"/></g><g transform="translate(5,5) scale(1,1)"><path fill="none" stroke="#000000" d="M 280 40 L 366.18994140625 40 L 366.18994140625 79 L 280 79 L 280 40 Z Z" stroke-miterlimit="10"/></g><g transform="translate(5,5) scale(1,1)"><g><path fill="none" stroke="none"/><text fill="#000000" stroke="none" font-family="Arial" font-size="13px" font-style="normal" font-weight="normal" text-decoration="none" x="296.35546875" y="57.5">«screen»</text></g></g><g transform="translate(5,5) scale(1,1)"><g><path fill="none" stroke="none"/><text fill="#000000" stroke="none" font-family="Arial" font-size="13px" font-style="normal" font-weight="bold" text-decoration="none" x="290.575927734375" y="72.5">HomePage</text></g></g><g transform="translate(5,5) scale(1,1)"><path fill="none" stroke="#000000" d="M 324.5 80 L 324.5 638" stroke-miterlimit="10" stroke-dasharray="3"/></g><g transform="translate(5,5) scale(1,1)"><path fill="none" stroke="#000000" d="M 40 152 L 431 152 L 431 303 L 40 303 L 40 152" stroke-miterlimit="10"/></g><g transform="translate(5,5) scale(1,1)"><path fill="#ffffff" stroke="none" d="M 40 152 L 40 174 L 182.4453125 174 L 193.4453125 163 L 193.4453125 152 L 40 152"/></g><g transform="translate(5,5) scale(1,1)"><path fill="none" stroke="#000000" d="M 40 152 L 40 174 L 182.4453125 174 L 193.4453125 163 L 193.4453125 152 L 40 152 L 40 152" stroke-miterlimit="10"/></g><g transform="translate(5,5) scale(1,1)"><g><path fill="none" stroke="none"/><text fill="#000000" stroke="none" font-family="Arial" font-size="13px" font-style="normal" font-weight="normal" text-decoration="none" x="69.07177734375" y="169.5">PasswordRetrieval</text></g></g><g transform="translate(5,5) scale(1,1)"><g><path fill="none" stroke="none"/><text fill="#000000" stroke="none" font-family="Arial" font-size="13px" font-style="normal" font-weight="bold" text-decoration="none" x="45" y="169.5">opt</text></g></g><g transform="translate(5,5) scale(1,1)"><rect fill="#C0C0C0" stroke="none" x="463" y="47" width="93.39453125" height="39" opacity="0.2"/></g><g transform="translate(5,5) scale(1,1)"><rect fill="#ffffff" stroke="none" x="456" y="40" width="93.39453125" height="39"/></g><g transform="translate(5,5) scale(1,1)"><path fill="none" stroke="#000000" d="M 456 40 L 549.39453125 40 L 549.39453125 79 L 456 79 L 456 40 Z Z" stroke-miterlimit="10"/></g><g transform="translate(5,5) scale(1,1)"><g><path fill="none" stroke="none"/><text fill="#000000" stroke="none" font-family="Arial" font-size="13px" font-style="normal" font-weight="normal" text-decoration="none" x="473.42822265625" y="57.5">«session»</text></g></g><g transform="translate(5,5) scale(1,1)"><g><path fill="none" stroke="none"/><text fill="#000000" stroke="none" font-family="Arial" font-size="13px" font-style="normal" font-weight="bold" text-decoration="none" x="468.369140625" y="72.5">CheckLogin</text></g></g><g transform="translate(5,5) scale(1,1)"><path fill="none" stroke="#000000" d="M 503.5 80 L 503.5 709" stroke-miterlimit="10" stroke-dasharray="3"/></g><g transform="translate(5,5) scale(1,1)"><path fill="none" stroke="#000000" d="M 72 464 L 791 464 L 791 704 L 72 704 L 72 464" stroke-miterlimit="10"/></g><g transform="translate(5,5) scale(1,1)"><path fill="#ffffff" stroke="none" d="M 72 464 L 72 486 L 138.578125 486 L 149.578125 475 L 149.578125 464 L 72 464"/></g><g transform="translate(5,5) scale(1,1)"><path fill="none" stroke="#000000" d="M 72 464 L 72 486 L 138.578125 486 L 149.578125 475 L 149.578125 464 L 72 464 L 72 464" stroke-miterlimit="10"/></g><g transform="translate(5,5) scale(1,1)"><g><path fill="none" stroke="none"/><text fill="#000000" stroke="none" font-family="Arial" font-size="13px" font-style="normal" font-weight="normal" text-decoration="none" x="96.72998046875" y="481.5">Check</text></g></g><g transform="translate(5,5) scale(1,1)"><g><path fill="none" stroke="none"/><text fill="#000000" stroke="none" font-family="Arial" font-size="13px" font-style="normal" font-weight="bold" text-decoration="none" x="77" y="481.5">alt</text></g></g><g transform="translate(5,5) scale(1,1)"><g><path fill="none" stroke="none"/><text fill="#000000" stroke="none" font-family="Arial" font-size="13px" font-style="normal" font-weight="normal" text-decoration="none" x="91.5" y="514.5">[Confirm]</text></g></g><g transform="translate(5,5) scale(1,1)"><path fill="none" stroke="#000000" d="M 72 577 L 791 577" stroke-miterlimit="10" stroke-dasharray="10,3"/></g><g transform="translate(5,5) scale(1,1)"><g><path fill="none" stroke="none"/><text fill="#000000" stroke="none" font-family="Arial" font-size="13px" font-style="normal" font-weight="normal" text-decoration="none" x="91.5" y="604.5">[Error]</text></g></g><g transform="translate(5,5) scale(1,1)"><rect fill="#C0C0C0" stroke="none" x="703" y="47" width="72.47900390625" height="39" opacity="0.2"/></g><g transform="translate(5,5) scale(1,1)"><rect fill="#ffadad" stroke="none" x="696" y="40" width="72.47900390625" height="39"/></g><g transform="translate(5,5) scale(1,1)"><path fill="none" stroke="#000000" d="M 696 40 L 768.47900390625 40 L 768.47900390625 79 L 696 79 L 696 40 Z Z" stroke-miterlimit="10"/></g><g transform="translate(5,5) scale(1,1)"><g><path fill="none" stroke="none"/><text fill="#000000" stroke="none" font-family="Arial" font-size="13px" font-style="normal" font-weight="normal" text-decoration="none" x="705.5" y="57.5">«screen»</text></g></g><g transform="translate(5,5) scale(1,1)"><g><path fill="none" stroke="none"/><text fill="#000000" stroke="none" font-family="Arial" font-size="13px" font-style="normal" font-weight="bold" text-decoration="none" x="713.8154296875" y="72.5">Profile</text></g></g><g transform="translate(5,5) scale(1,1)"><path fill="none" stroke="#000000" d="M 733.5 80 L 733.5 530" stroke-miterlimit="10" stroke-dasharray="3"/></g><g transform="translate(5,5) scale(1,1)"><rect fill="#C0C0C0" stroke="none" x="591" y="47" width="72.47900390625" height="39" opacity="0.2"/></g><g transform="translate(5,5) scale(1,1)"><rect fill="#ffadad" stroke="none" x="584" y="40" width="72.47900390625" height="39"/></g><g transform="translate(5,5) scale(1,1)"><path fill="none" stroke="#000000" d="M 584 40 L 656.47900390625 40 L 656.47900390625 79 L 584 79 L 584 40 Z Z" stroke-miterlimit="10"/></g><g transform="translate(5,5) scale(1,1)"><g><path fill="none" stroke="none"/><text fill="#000000" stroke="none" font-family="Arial" font-size="13px" font-style="normal" font-weight="normal" text-decoration="none" x="593.5" y="57.5">«screen»</text></g></g><g transform="translate(5,5) scale(1,1)"><g><path fill="none" stroke="none"/><text fill="#000000" stroke="none" font-family="Arial" font-size="13px" font-style="normal" font-weight="bold" text-decoration="none" x="605.79541015625" y="72.5">Error</text></g></g><g transform="translate(5,5) scale(1,1)"><path fill="none" stroke="#000000" d="M 621.5 80 L 621.5 709" stroke-miterlimit="10" stroke-dasharray="3"/></g><g transform="translate(5,5) scale(1,1)"><path fill="none" stroke="#000000" d="M 86 129 L 317 129" stroke-miterlimit="10"/></g><g transform="translate(5,5) scale(1,1)"><path fill="#000000" stroke="none" d="M 306.83732514237585 133.209517756016 L 317 129 L 306.83732514237585 124.79048224398402"/></g><g transform="translate(5,5) scale(1,1)"><path fill="none" stroke="#000000" d="M 306.83732514237585 133.209517756016 L 317 129 L 306.83732514237585 124.79048224398402 L 306.83732514237585 133.209517756016" stroke-miterlimit="10"/></g><g transform="translate(5,5) scale(1,1)"><g><path fill="none" stroke="none"/><text fill="#000000" stroke="none" font-family="Arial" font-size="13px" font-style="normal" font-weight="normal" text-decoration="none" x="134" y="117">1 : Request HomePage</text></g></g><g transform="translate(5,5) scale(1,1)"><rect fill="#ffffff" stroke="none" x="317" y="129" width="13" height="244"/></g><g transform="translate(5,5) scale(1,1)"><path fill="none" stroke="#000000" d="M 317 129 L 330 129 L 330 373 L 317 373 L 317 129 Z Z" stroke-miterlimit="10"/></g><g transform="translate(5,5) scale(1,1)"><path fill="none" stroke="#000000" d="M 86 209 L 324 209" stroke-miterlimit="10"/></g><g transform="translate(5,5) scale(1,1)"><path fill="#000000" stroke="none" d="M 313.83732514237585 213.209517756016 L 324 209 L 313.83732514237585 204.790482243984"/></g><g transform="translate(5,5) scale(1,1)"><path fill="none" stroke="#000000" d="M 313.83732514237585 213.209517756016 L 324 209 L 313.83732514237585 204.790482243984 L 313.83732514237585 213.209517756016" stroke-miterlimit="10"/></g><g transform="translate(5,5) scale(1,1)"><g><path fill="none" stroke="none"/><text fill="#000000" stroke="none" font-family="Arial" font-size="13px" font-style="normal" font-weight="normal" text-decoration="none" x="121" y="196">2 : PasswordRetrieval(email)</text></g></g><g transform="translate(5,5) scale(1,1)"><rect fill="#ffffff" stroke="none" x="324" y="209" width="13" height="79"/></g><g transform="translate(5,5) scale(1,1)"><path fill="none" stroke="#000000" d="M 324 209 L 337 209 L 337 288 L 324 288 L 324 209 Z Z" stroke-miterlimit="10"/></g><g transform="translate(5,5) scale(1,1)"><path fill="none" stroke="#000000" d="M 337 232 L 367 232 L 367 252 L 344 252" stroke-miterlimit="10"/></g><g transform="translate(5,5) scale(1,1)"><path fill="#000000" stroke="none" d="M 354.16267485762415 247.790482243984 L 344 252 L 354.16267485762415 256.209517756016"/></g><g transform="translate(5,5) scale(1,1)"><path fill="none" stroke="#000000" d="M 354.16267485762415 247.790482243984 L 344 252 L 354.16267485762415 256.209517756016 L 354.16267485762415 247.790482243984" stroke-miterlimit="10"/></g><g transform="translate(5,5) scale(1,1)"><g><path fill="none" stroke="none"/><text fill="#000000" stroke="none" font-family="Arial" font-size="13px" font-style="normal" font-weight="normal" text-decoration="none" x="198" y="251">3 : SendDataToMail</text></g></g><g transform="translate(5,5) scale(1,1)"><rect fill="#ffffff" stroke="none" x="331" y="252" width="13" height="28"/></g><g transform="translate(5,5) scale(1,1)"><path fill="none" stroke="#000000" d="M 331 252 L 344 252 L 344 280 L 331 280 L 331 252 Z Z" stroke-miterlimit="10"/></g><g transform="translate(5,5) scale(1,1)"><path fill="none" stroke="#000000" d="M 86 342 L 324 342" stroke-miterlimit="10"/></g><g transform="translate(5,5) scale(1,1)"><path fill="#000000" stroke="none" d="M 313.83732514237585 346.209517756016 L 324 342 L 313.83732514237585 337.790482243984"/></g><g transform="translate(5,5) scale(1,1)"><path fill="none" stroke="#000000" d="M 313.83732514237585 346.209517756016 L 324 342 L 313.83732514237585 337.790482243984 L 313.83732514237585 346.209517756016" stroke-miterlimit="10"/></g><g transform="translate(5,5) scale(1,1)"><g><path fill="none" stroke="none"/><text fill="#000000" stroke="none" font-family="Arial" font-size="13px" font-style="normal" font-weight="normal" text-decoration="none" x="104" y="333">4 : sendData(Username,Password)</text></g></g><g transform="translate(5,5) scale(1,1)"><rect fill="#ffffff" stroke="none" x="324" y="342" width="13" height="28"/></g><g transform="translate(5,5) scale(1,1)"><path fill="none" stroke="#000000" d="M 324 342 L 337 342 L 337 370 L 324 370 L 324 342 Z Z" stroke-miterlimit="10"/></g><g transform="translate(5,5) scale(1,1)"><path fill="none" stroke="#000000" d="M 337 368 L 496 368" stroke-miterlimit="10"/></g><g transform="translate(5,5) scale(1,1)"><path fill="#000000" stroke="none" d="M 485.83732514237585 372.209517756016 L 496 368 L 485.83732514237585 363.790482243984"/></g><g transform="translate(5,5) scale(1,1)"><path fill="none" stroke="#000000" d="M 485.83732514237585 372.209517756016 L 496 368 L 485.83732514237585 363.790482243984 L 485.83732514237585 372.209517756016" stroke-miterlimit="10"/></g><g transform="translate(5,5) scale(1,1)"><g><path fill="none" stroke="none"/><text fill="#000000" stroke="none" font-family="Arial" font-size="13px" font-style="normal" font-weight="normal" text-decoration="none" x="379" y="357">5 : SendData</text></g></g><g transform="translate(5,5) scale(1,1)"><rect fill="#ffffff" stroke="none" x="496" y="368" width="13" height="256"/></g><g transform="translate(5,5) scale(1,1)"><path fill="none" stroke="#000000" d="M 496 368 L 509 368 L 509 624 L 496 624 L 496 368 Z Z" stroke-miterlimit="10"/></g><g transform="translate(5,5) scale(1,1)"><path fill="none" stroke="#000000" d="M 509 384 L 539 384 L 539 404 L 516 404" stroke-miterlimit="10"/></g><g transform="translate(5,5) scale(1,1)"><path fill="#000000" stroke="none" d="M 526.1626748576241 399.790482243984 L 516 404 L 526.1626748576241 408.209517756016"/></g><g transform="translate(5,5) scale(1,1)"><path fill="none" stroke="#000000" d="M 526.1626748576241 399.790482243984 L 516 404 L 526.1626748576241 408.209517756016 L 526.1626748576241 399.790482243984" stroke-miterlimit="10"/></g><g transform="translate(5,5) scale(1,1)"><g><path fill="none" stroke="none"/><text fill="#000000" stroke="none" font-family="Arial" font-size="13px" font-style="normal" font-weight="normal" text-decoration="none" x="390" y="404">6 : CheckData</text></g></g><g transform="translate(5,5) scale(1,1)"><rect fill="#ffffff" stroke="none" x="503" y="404" width="13" height="28"/></g><g transform="translate(5,5) scale(1,1)"><path fill="none" stroke="#000000" d="M 503 404 L 516 404 L 516 432 L 503 432 L 503 404 Z Z" stroke-miterlimit="10"/></g><g transform="translate(5,5) scale(1,1)"><path fill="none" stroke="#000000" d="M 509 488 L 726 488" stroke-miterlimit="10"/></g><g transform="translate(5,5) scale(1,1)"><path fill="#000000" stroke="none" d="M 715.8373251423759 492.209517756016 L 726 488 L 715.8373251423758 483.790482243984"/></g><g transform="translate(5,5) scale(1,1)"><path fill="none" stroke="#000000" d="M 715.8373251423759 492.209517756016 L 726 488 L 715.8373251423758 483.790482243984 L 715.8373251423759 492.209517756016" stroke-miterlimit="10"/></g><g transform="translate(5,5) scale(1,1)"><g><path fill="none" stroke="none"/><text fill="#000000" stroke="none" font-family="Arial" font-size="13px" font-style="normal" font-weight="normal" text-decoration="none" x="632" y="508">7 : Confirm</text></g></g><g transform="translate(5,5) scale(1,1)"><rect fill="#ffffff" stroke="none" x="726" y="488" width="13" height="28"/></g><g transform="translate(5,5) scale(1,1)"><path fill="none" stroke="#000000" d="M 726 488 L 739 488 L 739 516 L 726 516 L 726 488 Z Z" stroke-miterlimit="10"/></g><g transform="translate(5,5) scale(1,1)"><path fill="none" stroke="#000000" d="M 503 624 L 614 624" stroke-miterlimit="10"/></g><g transform="translate(5,5) scale(1,1)"><path fill="#000000" stroke="none" d="M 603.8373251423759 628.209517756016 L 614 624 L 603.8373251423758 619.790482243984"/></g><g transform="translate(5,5) scale(1,1)"><path fill="none" stroke="#000000" d="M 603.8373251423759 628.209517756016 L 614 624 L 603.8373251423758 619.790482243984 L 603.8373251423759 628.209517756016" stroke-miterlimit="10"/></g><g transform="translate(5,5) scale(1,1)"><g><path fill="none" stroke="none"/><text fill="#000000" stroke="none" font-family="Arial" font-size="13px" font-style="normal" font-weight="normal" text-decoration="none" x="534" y="612">8 : Error</text></g></g><g transform="translate(5,5) scale(1,1)"><rect fill="#ffffff" stroke="none" x="614" y="624" width="13" height="71"/></g><g transform="translate(5,5) scale(1,1)"><path fill="none" stroke="#000000" d="M 614 624 L 627 624 L 627 695 L 614 695 L 614 624 Z Z" stroke-miterlimit="10"/></g><g transform="translate(5,5) scale(1,1)"><path fill="none" stroke="#000000" d="M 86 648 L 621 648" stroke-miterlimit="10"/></g><g transform="translate(5,5) scale(1,1)"><path fill="#000000" stroke="none" d="M 610.8373251423759 652.209517756016 L 621 648 L 610.8373251423758 643.790482243984"/></g><g transform="translate(5,5) scale(1,1)"><path fill="none" stroke="#000000" d="M 610.8373251423759 652.209517756016 L 621 648 L 610.8373251423758 643.790482243984 L 610.8373251423759 652.209517756016" stroke-miterlimit="10"/></g><g transform="translate(5,5) scale(1,1)"><g><path fill="none" stroke="none"/><text fill="#000000" stroke="none" font-family="Arial" font-size="13px" font-style="normal" font-weight="normal" text-decoration="none" x="160" y="636">9 : OkButtonPressed</text></g></g><g transform="translate(5,5) scale(1,1)"><rect fill="#ffffff" stroke="none" x="621" y="648" width="13" height="28"/></g><g transform="translate(5,5) scale(1,1)"><path fill="none" stroke="#000000" d="M 621 648 L 634 648 L 634 676 L 621 676 L 621 648 Z Z" stroke-miterlimit="10"/></g></g></svg>