<svg version="1.1" xmlns="http://www.w3.org/2000/svg" xmlns:xlink="http://www.w3.org/1999/xlink" width="796" height="671"><defs/><g><g transform="translate(10,5) scale(1,1)"><path fill="none" stroke="#000000" d="M 0 5 L 776 5 L 776 656 L 0 656 L 0 5" stroke-miterlimit="10"/></g><g transform="translate(10,5) scale(1,1)"><path fill="#ffffff" stroke="none" d="M 0 5 L 0 27 L 128.734375 27 L 139.734375 16 L 139.734375 5 L 0 5"/></g><g transform="translate(10,5) scale(1,1)"><path fill="none" stroke="#000000" d="M 0 5 L 0 27 L 128.734375 27 L 139.734375 16 L 139.734375 5 L 0 5 L 0 5" stroke-miterlimit="10"/></g><g transform="translate(10,5) scale(1,1)"><g><path fill="none" stroke="none"/><text fill="#000000" stroke="none" font-family="Arial" font-size="13px" font-style="normal" font-weight="normal" text-decoration="none" x="70.97900390625" y="22.5">Available</text></g></g><g transform="translate(10,5) scale(1,1)"><g><path fill="none" stroke="none"/><text fill="#000000" stroke="none" font-family="Arial" font-size="13px" font-style="normal" font-weight="bold" text-decoration="none" x="5" y="22.5">interaction</text></g></g><g transform="translate(10,5) scale(1,1)"><path fill="#d1ffa3" stroke="none" d="M 86.0108504971591 47.3 C 86.0108504971591 43.82060576 88.88925221934092 41 92.43994140625 41 C 95.99063059315908 41 98.8690323153409 43.82060576 98.8690323153409 47.3 C 98.8690323153409 50.779394239999995 95.99063059315908 53.6 92.43994140625 53.6 C 88.88925221934092 53.6 86.0108504971591 50.779394239999995 86.0108504971591 47.3 Z"/></g><g transform="translate(10,5) scale(1,1)"><path fill="none" stroke="#000000" d="M 86.0108504971591 47.3 C 86.0108504971591 43.82060576 88.88925221934092 41 92.43994140625 41 C 95.99063059315908 41 98.8690323153409 43.82060576 98.8690323153409 47.3 C 98.8690323153409 50.779394239999995 95.99063059315908 53.6 92.43994140625 53.6 C 88.88925221934092 53.6 86.0108504971591 50.779394239999995 86.0108504971591 47.3 Z" stroke-miterlimit="10"/></g><g transform="translate(10,5) scale(1,1)"><path fill="none" stroke="#000000" d="M 92.43994140625 53.6 L 92.43994140625 66.4" stroke-miterlimit="10"/></g><g transform="translate(10,5) scale(1,1)"><path fill="none" stroke="#000000" d="M 85.63266867897727 58.4 L 99.24721413352273 58.4" stroke-miterlimit="10"/></g><g transform="translate(10,5) scale(1,1)"><path fill="none" stroke="#000000" d="M 92.43994140625 66.4 L 82.98539595170455 79" stroke-miterlimit="10"/></g><g transform="translate(10,5) scale(1,1)"><path fill="none" stroke="#000000" d="M 92.43994140625 66.4 L 101.89448686079545 79" stroke-miterlimit="10"/></g><g transform="translate(10,5) scale(1,1)"><g><path fill="none" stroke="none"/><text fill="#000000" stroke="none" font-family="Arial" font-size="13px" font-style="normal" font-weight="bold" text-decoration="none" x="33.197265625" y="99.5">Lifeline1: Taxi Driver</text></g></g><g transform="translate(10,5) scale(1,1)"><path fill="none" stroke="#000000" d="M 93.5 105 L 93.5 648" stroke-miterlimit="10" stroke-dasharray="3"/></g><g transform="translate(10,5) scale(1,1)"><rect fill="#C0C0C0" stroke="none" x="239" y="47" width="86.18994140625" height="39" opacity="0.2"/></g><g transform="translate(10,5) scale(1,1)"><rect fill="#d1ffa3" stroke="none" x="232" y="40" width="86.18994140625" height="39"/></g><g transform="translate(10,5) scale(1,1)"><path fill="none" stroke="#000000" d="M 232 40 L 318.18994140625 40 L 318.18994140625 79 L 232 79 L 232 40 Z Z" stroke-miterlimit="10"/></g><g transform="translate(10,5) scale(1,1)"><g><path fill="none" stroke="none"/><text fill="#000000" stroke="none" font-family="Arial" font-size="13px" font-style="normal" font-weight="normal" text-decoration="none" x="248.35546875" y="57.5">«screen»</text></g></g><g transform="translate(10,5) scale(1,1)"><g><path fill="none" stroke="none"/><text fill="#000000" stroke="none" font-family="Arial" font-size="13px" font-style="normal" font-weight="bold" text-decoration="none" x="244.391357421875" y="72.5">TaxiProfile</text></g></g><g transform="translate(10,5) scale(1,1)"><path fill="none" stroke="#000000" d="M 276.5 80 L 276.5 648" stroke-miterlimit="10" stroke-dasharray="3"/></g><g transform="translate(10,5) scale(1,1)"><rect fill="#C0C0C0" stroke="none" x="455" y="47" width="77.5380859375" height="39" opacity="0.2"/></g><g transform="translate(10,5) scale(1,1)"><rect fill="#ffffff" stroke="none" x="448" y="40" width="77.5380859375" height="39"/></g><g transform="translate(10,5) scale(1,1)"><path fill="none" stroke="#000000" d="M 448 40 L 525.5380859375 40 L 525.5380859375 79 L 448 79 L 448 40 Z Z" stroke-miterlimit="10"/></g><g transform="translate(10,5) scale(1,1)"><g><path fill="none" stroke="none"/><text fill="#000000" stroke="none" font-family="Arial" font-size="13px" font-style="normal" font-weight="normal" text-decoration="none" x="457.5" y="57.5">«session»</text></g></g><g transform="translate(10,5) scale(1,1)"><g><path fill="none" stroke="none"/><text fill="#000000" stroke="none" font-family="Arial" font-size="13px" font-style="normal" font-weight="bold" text-decoration="none" x="461.114990234375" y="72.5">Manager</text></g></g><g transform="translate(10,5) scale(1,1)"><path fill="none" stroke="#000000" d="M 487.5 80 L 487.5 648" stroke-miterlimit="10" stroke-dasharray="3"/></g><g transform="translate(10,5) scale(1,1)"><path fill="none" stroke="#000000" d="M 112 168 L 768 168 L 768 640 L 112 640 L 112 168" stroke-miterlimit="10"/></g><g transform="translate(10,5) scale(1,1)"><path fill="#ffffff" stroke="none" d="M 112 168 L 112 190 L 258.076171875 190 L 269.076171875 179 L 269.076171875 168 L 112 168"/></g><g transform="translate(10,5) scale(1,1)"><path fill="none" stroke="#000000" d="M 112 168 L 112 190 L 258.076171875 190 L 269.076171875 179 L 269.076171875 168 L 112 168 L 112 168" stroke-miterlimit="10"/></g><g transform="translate(10,5) scale(1,1)"><g><path fill="none" stroke="none"/><text fill="#000000" stroke="none" font-family="Arial" font-size="13px" font-style="normal" font-weight="normal" text-decoration="none" x="141.07177734375" y="185.5">Manage Availability</text></g></g><g transform="translate(10,5) scale(1,1)"><g><path fill="none" stroke="none"/><text fill="#000000" stroke="none" font-family="Arial" font-size="13px" font-style="normal" font-weight="bold" text-decoration="none" x="117" y="185.5">opt</text></g></g><g transform="translate(10,5) scale(1,1)"><g><path fill="none" stroke="none"/><text fill="#000000" stroke="none" font-family="Arial" font-size="13px" font-style="normal" font-weight="normal" text-decoration="none" x="131.5" y="218.5">[Available]</text></g></g><g transform="translate(10,5) scale(1,1)"><path fill="none" stroke="#000000" d="M 112 441 L 768 441" stroke-miterlimit="10" stroke-dasharray="10,3"/></g><g transform="translate(10,5) scale(1,1)"><g><path fill="none" stroke="none"/><text fill="#000000" stroke="none" font-family="Arial" font-size="13px" font-style="normal" font-weight="normal" text-decoration="none" x="131.5" y="468.5">[Unavailable]</text></g></g><g transform="translate(10,5) scale(1,1)"><rect fill="#C0C0C0" stroke="none" x="711" y="47" width="29" height="39" opacity="0.2"/></g><g transform="translate(10,5) scale(1,1)"><rect fill="#ffffff" stroke="none" x="704" y="40" width="29" height="39"/></g><g transform="translate(10,5) scale(1,1)"><path fill="none" stroke="#000000" d="M 704 40 L 733 40 L 733 79 L 704 79 L 704 40 Z Z" stroke-miterlimit="10"/></g><g transform="translate(10,5) scale(1,1)"><g><path fill="none" stroke="none"/><text fill="#000000" stroke="none" font-family="Arial" font-size="13px" font-style="normal" font-weight="bold" text-decoration="none" x="714.885009765625" y="59.5">a</text></g></g><g transform="translate(10,5) scale(1,1)"><path fill="none" stroke="#000000" d="M 719.5 80 L 719.5 648" stroke-miterlimit="10" stroke-dasharray="3"/></g><g transform="translate(10,5) scale(1,1)"><rect fill="#91ffec" stroke="none" x="696" y="32" width="49" height="49"/></g><g transform="translate(10,5) scale(1,1)"><path fill="none" stroke="#000000" d="M 696 32 L 745 32 L 745 81 L 696 81 L 696 32 Z Z" stroke-miterlimit="10"/></g><g transform="translate(10,5) scale(1,1)"><g><path fill="none" stroke="none"/><text fill="#000000" stroke="none" font-family="Arial" font-size="13px" font-style="normal" font-weight="normal" text-decoration="none" x="669" y="26">Queue Manager</text></g></g><g transform="translate(10,5) scale(1,1)"><path fill="none" stroke="#000000" d="M 93 138 L 269 138" stroke-miterlimit="10"/></g><g transform="translate(10,5) scale(1,1)"><path fill="#000000" stroke="none" d="M 258.83732514237585 142.209517756016 L 269 138 L 258.83732514237585 133.790482243984"/></g><g transform="translate(10,5) scale(1,1)"><path fill="none" stroke="#000000" d="M 258.83732514237585 142.209517756016 L 269 138 L 258.83732514237585 133.790482243984 L 258.83732514237585 142.209517756016" stroke-miterlimit="10"/></g><g transform="translate(10,5) scale(1,1)"><g><path fill="none" stroke="none"/><text fill="#000000" stroke="none" font-family="Arial" font-size="13px" font-style="normal" font-weight="normal" text-decoration="none" x="111" y="124">1 : After login procedure</text></g></g><g transform="translate(10,5) scale(1,1)"><rect fill="#ffffff" stroke="none" x="269" y="138" width="13" height="462"/></g><g transform="translate(10,5) scale(1,1)"><path fill="none" stroke="#000000" d="M 269 138 L 282 138 L 282 600 L 269 600 L 269 138 Z Z" stroke-miterlimit="10"/></g><g transform="translate(10,5) scale(1,1)"><path fill="none" stroke="#000000" d="M 282 240 L 480 240" stroke-miterlimit="10"/></g><g transform="translate(10,5) scale(1,1)"><path fill="#000000" stroke="none" d="M 469.83732514237585 244.209517756016 L 480 240 L 469.83732514237585 235.790482243984"/></g><g transform="translate(10,5) scale(1,1)"><path fill="none" stroke="#000000" d="M 469.83732514237585 244.209517756016 L 480 240 L 469.83732514237585 235.790482243984 L 469.83732514237585 244.209517756016" stroke-miterlimit="10"/></g><g transform="translate(10,5) scale(1,1)"><g><path fill="none" stroke="none"/><text fill="#000000" stroke="none" font-family="Arial" font-size="13px" font-style="normal" font-weight="normal" text-decoration="none" x="289" y="228">2 : RequestAvailability(Position)</text></g></g><g transform="translate(10,5) scale(1,1)"><rect fill="#ffffff" stroke="none" x="480" y="240" width="13" height="80"/></g><g transform="translate(10,5) scale(1,1)"><path fill="none" stroke="#000000" d="M 480 240 L 493 240 L 493 320 L 480 320 L 480 240 Z Z" stroke-miterlimit="10"/></g><g transform="translate(10,5) scale(1,1)"><path fill="none" stroke="#000000" d="M 493 256 L 523 256 L 523 276 L 500 276" stroke-miterlimit="10"/></g><g transform="translate(10,5) scale(1,1)"><path fill="#000000" stroke="none" d="M 510.16267485762415 271.790482243984 L 500 276 L 510.16267485762415 280.209517756016"/></g><g transform="translate(10,5) scale(1,1)"><path fill="none" stroke="#000000" d="M 510.16267485762415 271.790482243984 L 500 276 L 510.16267485762415 280.209517756016 L 510.16267485762415 271.790482243984" stroke-miterlimit="10"/></g><g transform="translate(10,5) scale(1,1)"><g><path fill="none" stroke="none"/><text fill="#000000" stroke="none" font-family="Arial" font-size="13px" font-style="normal" font-weight="normal" text-decoration="none" x="352" y="271">3 : FindCorrectQueue</text></g></g><g transform="translate(10,5) scale(1,1)"><rect fill="#ffffff" stroke="none" x="487" y="276" width="13" height="28"/></g><g transform="translate(10,5) scale(1,1)"><path fill="none" stroke="#000000" d="M 487 276 L 500 276 L 500 304 L 487 304 L 487 276 Z Z" stroke-miterlimit="10"/></g><g transform="translate(10,5) scale(1,1)"><path fill="none" stroke="#000000" d="M 493 312 L 712 312" stroke-miterlimit="10"/></g><g transform="translate(10,5) scale(1,1)"><path fill="#000000" stroke="none" d="M 701.8373251423759 316.209517756016 L 712 312 L 701.8373251423758 307.790482243984"/></g><g transform="translate(10,5) scale(1,1)"><path fill="none" stroke="#000000" d="M 701.8373251423759 316.209517756016 L 712 312 L 701.8373251423758 307.790482243984 L 701.8373251423759 316.209517756016" stroke-miterlimit="10"/></g><g transform="translate(10,5) scale(1,1)"><g><path fill="none" stroke="none"/><text fill="#000000" stroke="none" font-family="Arial" font-size="13px" font-style="normal" font-weight="normal" text-decoration="none" x="513" y="301">4 : addQueue(TaxiDriver,Zone)</text></g></g><g transform="translate(10,5) scale(1,1)"><rect fill="#ffffff" stroke="none" x="712" y="312" width="13" height="28"/></g><g transform="translate(10,5) scale(1,1)"><path fill="none" stroke="#000000" d="M 712 312 L 725 312 L 725 340 L 712 340 L 712 312 Z Z" stroke-miterlimit="10"/></g><g transform="translate(10,5) scale(1,1)"><path fill="none" stroke="#000000" d="M 282 520 L 480 520" stroke-miterlimit="10"/></g><g transform="translate(10,5) scale(1,1)"><path fill="#000000" stroke="none" d="M 469.83732514237585 524.209517756016 L 480 520 L 469.83732514237585 515.790482243984"/></g><g transform="translate(10,5) scale(1,1)"><path fill="none" stroke="#000000" d="M 469.83732514237585 524.209517756016 L 480 520 L 469.83732514237585 515.790482243984 L 469.83732514237585 524.209517756016" stroke-miterlimit="10"/></g><g transform="translate(10,5) scale(1,1)"><g><path fill="none" stroke="none"/><text fill="#000000" stroke="none" font-family="Arial" font-size="13px" font-style="normal" font-weight="normal" text-decoration="none" x="283" y="501">5 : RequestUnavailability(Position)</text></g></g><g transform="translate(10,5) scale(1,1)"><rect fill="#ffffff" stroke="none" x="480" y="520" width="13" height="80"/></g><g transform="translate(10,5) scale(1,1)"><path fill="none" stroke="#000000" d="M 480 520 L 493 520 L 493 600 L 480 600 L 480 520 Z Z" stroke-miterlimit="10"/></g><g transform="translate(10,5) scale(1,1)"><path fill="none" stroke="#000000" d="M 493 528 L 523 528 L 523 548 L 500 548" stroke-miterlimit="10"/></g><g transform="translate(10,5) scale(1,1)"><path fill="#000000" stroke="none" d="M 510.16267485762415 543.790482243984 L 500 548 L 510.16267485762415 552.209517756016"/></g><g transform="translate(10,5) scale(1,1)"><path fill="none" stroke="#000000" d="M 510.16267485762415 543.790482243984 L 500 548 L 510.16267485762415 552.209517756016 L 510.16267485762415 543.790482243984" stroke-miterlimit="10"/></g><g transform="translate(10,5) scale(1,1)"><g><path fill="none" stroke="none"/><text fill="#000000" stroke="none" font-family="Arial" font-size="13px" font-style="normal" font-weight="normal" text-decoration="none" x="528" y="541">6 : FindCorrectQueue</text></g></g><g transform="translate(10,5) scale(1,1)"><rect fill="#ffffff" stroke="none" x="487" y="548" width="13" height="28"/></g><g transform="translate(10,5) scale(1,1)"><path fill="none" stroke="#000000" d="M 487 548 L 500 548 L 500 576 L 487 576 L 487 548 Z Z" stroke-miterlimit="10"/></g><g transform="translate(10,5) scale(1,1)"><path fill="none" stroke="#000000" d="M 487 600 L 712 600" stroke-miterlimit="10"/></g><g transform="translate(10,5) scale(1,1)"><path fill="#000000" stroke="none" d="M 701.8373251423759 604.209517756016 L 712 600 L 701.8373251423758 595.790482243984"/></g><g transform="translate(10,5) scale(1,1)"><path fill="none" stroke="#000000" d="M 701.8373251423759 604.209517756016 L 712 600 L 701.8373251423758 595.790482243984 L 701.8373251423759 604.209517756016" stroke-miterlimit="10"/></g><g transform="translate(10,5) scale(1,1)"><g><path fill="none" stroke="none"/><text fill="#000000" stroke="none" font-family="Arial" font-size="13px" font-style="normal" font-weight="normal" text-decoration="none" x="512" y="588">7 : deQueue(TaxiDriver,Zone)</text></g></g><g transform="translate(10,5) scale(1,1)"><rect fill="#ffffff" stroke="none" x="712" y="600" width="13" height="28"/></g><g transform="translate(10,5) scale(1,1)"><path fill="none" stroke="#000000" d="M 712 600 L 725 600 L 725 628 L 712 628 L 712 600 Z Z" stroke-miterlimit="10"/></g></g></svg>