<svg version="1.1" xmlns="http://www.w3.org/2000/svg" xmlns:xlink="http://www.w3.org/1999/xlink" width="1268" height="807"><defs/><g><g transform="translate(10,5) scale(1,1)"><path fill="none" stroke="#000000" d="M 5 5 L 1248 5 L 1248 792 L 5 792 L 5 5" stroke-miterlimit="10"/></g><g transform="translate(10,5) scale(1,1)"><path fill="#ffffff" stroke="none" d="M 5 5 L 5 27 L 260.1796875 27 L 271.1796875 16 L 271.1796875 5 L 5 5"/></g><g transform="translate(10,5) scale(1,1)"><path fill="none" stroke="#000000" d="M 5 5 L 5 27 L 260.1796875 27 L 271.1796875 16 L 271.1796875 5 L 5 5 L 5 5" stroke-miterlimit="10"/></g><g transform="translate(10,5) scale(1,1)"><g><path fill="none" stroke="none"/><text fill="#000000" stroke="none" font-family="Arial" font-size="13px" font-style="normal" font-weight="normal" text-decoration="none" x="75.97900390625" y="22.5">Manage Reserve Taxi Request</text></g></g><g transform="translate(10,5) scale(1,1)"><g><path fill="none" stroke="none"/><text fill="#000000" stroke="none" font-family="Arial" font-size="13px" font-style="normal" font-weight="bold" text-decoration="none" x="10" y="22.5">interaction</text></g></g><g transform="translate(10,5) scale(1,1)"><path fill="#ffff91" stroke="none" d="M 58.74815518465909 47.3 C 58.74815518465909 43.82060576 61.62655690684091 41 65.17724609375 41 C 68.7279352806591 41 71.6063370028409 43.82060576 71.6063370028409 47.3 C 71.6063370028409 50.779394239999995 68.7279352806591 53.6 65.17724609375 53.6 C 61.62655690684091 53.6 58.74815518465909 50.779394239999995 58.74815518465909 47.3 Z"/></g><g transform="translate(10,5) scale(1,1)"><path fill="none" stroke="#000000" d="M 58.74815518465909 47.3 C 58.74815518465909 43.82060576 61.62655690684091 41 65.17724609375 41 C 68.7279352806591 41 71.6063370028409 43.82060576 71.6063370028409 47.3 C 71.6063370028409 50.779394239999995 68.7279352806591 53.6 65.17724609375 53.6 C 61.62655690684091 53.6 58.74815518465909 50.779394239999995 58.74815518465909 47.3 Z" stroke-miterlimit="10"/></g><g transform="translate(10,5) scale(1,1)"><path fill="none" stroke="#000000" d="M 65.17724609375 53.6 L 65.17724609375 66.4" stroke-miterlimit="10"/></g><g transform="translate(10,5) scale(1,1)"><path fill="none" stroke="#000000" d="M 58.369973366477275 58.4 L 71.98451882102273 58.4" stroke-miterlimit="10"/></g><g transform="translate(10,5) scale(1,1)"><path fill="none" stroke="#000000" d="M 65.17724609375 66.4 L 55.72270063920455 79" stroke-miterlimit="10"/></g><g transform="translate(10,5) scale(1,1)"><path fill="none" stroke="#000000" d="M 65.17724609375 66.4 L 74.63179154829545 79" stroke-miterlimit="10"/></g><g transform="translate(10,5) scale(1,1)"><g><path fill="none" stroke="none"/><text fill="#000000" stroke="none" font-family="Arial" font-size="13px" font-style="normal" font-weight="bold" text-decoration="none" x="9.17822265625" y="99.5">Lifeline1: Customer</text></g></g><g transform="translate(10,5) scale(1,1)"><path fill="none" stroke="#000000" d="M 66.5 105 L 66.5 634" stroke-miterlimit="10" stroke-dasharray="3"/></g><g transform="translate(10,5) scale(1,1)"><rect fill="#C0C0C0" stroke="none" x="199" y="47" width="120.130859375" height="39" opacity="0.2"/></g><g transform="translate(10,5) scale(1,1)"><rect fill="#ffff91" stroke="none" x="192" y="40" width="120.130859375" height="39"/></g><g transform="translate(10,5) scale(1,1)"><path fill="none" stroke="#000000" d="M 192 40 L 312.130859375 40 L 312.130859375 79 L 192 79 L 192 40 Z Z" stroke-miterlimit="10"/></g><g transform="translate(10,5) scale(1,1)"><g><path fill="none" stroke="none"/><text fill="#000000" stroke="none" font-family="Arial" font-size="13px" font-style="normal" font-weight="normal" text-decoration="none" x="225.325927734375" y="57.5">«screen»</text></g></g><g transform="translate(10,5) scale(1,1)"><g><path fill="none" stroke="none"/><text fill="#000000" stroke="none" font-family="Arial" font-size="13px" font-style="normal" font-weight="bold" text-decoration="none" x="205.46728515625" y="72.5">CustomerProfile</text></g></g><g transform="translate(10,5) scale(1,1)"><path fill="none" stroke="#000000" d="M 253.5 80 L 253.5 502" stroke-miterlimit="10" stroke-dasharray="3"/></g><g transform="translate(10,5) scale(1,1)"><rect fill="#C0C0C0" stroke="none" x="439" y="47" width="149.76171875" height="39" opacity="0.2"/></g><g transform="translate(10,5) scale(1,1)"><rect fill="#ffff91" stroke="none" x="432" y="40" width="149.76171875" height="39"/></g><g transform="translate(10,5) scale(1,1)"><path fill="none" stroke="#000000" d="M 432 40 L 581.76171875 40 L 581.76171875 79 L 432 79 L 432 40 Z Z" stroke-miterlimit="10"/></g><g transform="translate(10,5) scale(1,1)"><g><path fill="none" stroke="none"/><text fill="#000000" stroke="none" font-family="Arial" font-size="13px" font-style="normal" font-weight="normal" text-decoration="none" x="480.141357421875" y="57.5">«screen»</text></g></g><g transform="translate(10,5) scale(1,1)"><g><path fill="none" stroke="none"/><text fill="#000000" stroke="none" font-family="Arial" font-size="13px" font-style="normal" font-weight="bold" text-decoration="none" x="444.0009765625" y="72.5">ManageRequestPage</text></g></g><g transform="translate(10,5) scale(1,1)"><path fill="none" stroke="#000000" d="M 507.5 80 L 507.5 766" stroke-miterlimit="10" stroke-dasharray="3"/></g><g transform="translate(10,5) scale(1,1)"><rect fill="#C0C0C0" stroke="none" x="607" y="47" width="211.8671875" height="39" opacity="0.2"/></g><g transform="translate(10,5) scale(1,1)"><rect fill="#ffffff" stroke="none" x="600" y="40" width="211.8671875" height="39"/></g><g transform="translate(10,5) scale(1,1)"><path fill="none" stroke="#000000" d="M 600 40 L 811.8671875 40 L 811.8671875 79 L 600 79 L 600 40 Z Z" stroke-miterlimit="10"/></g><g transform="translate(10,5) scale(1,1)"><g><path fill="none" stroke="none"/><text fill="#000000" stroke="none" font-family="Arial" font-size="13px" font-style="normal" font-weight="normal" text-decoration="none" x="676.66455078125" y="57.5">«session»</text></g></g><g transform="translate(10,5) scale(1,1)"><g><path fill="none" stroke="none"/><text fill="#000000" stroke="none" font-family="Arial" font-size="13px" font-style="normal" font-weight="bold" text-decoration="none" x="616.33642578125" y="72.5">CheckRequestTaxiModification</text></g></g><g transform="translate(10,5) scale(1,1)"><path fill="none" stroke="#000000" d="M 706.5 80 L 706.5 786" stroke-miterlimit="10" stroke-dasharray="3"/></g><g transform="translate(10,5) scale(1,1)"><path fill="none" stroke="#000000" d="M 0 240 L 1232 240 L 1232 776 L 0 776 L 0 240" stroke-miterlimit="10"/></g><g transform="translate(10,5) scale(1,1)"><path fill="#ffffff" stroke="none" d="M 0 240 L 0 262 L 126.5634765625 262 L 137.5634765625 251 L 137.5634765625 240 L 0 240"/></g><g transform="translate(10,5) scale(1,1)"><path fill="none" stroke="#000000" d="M 0 240 L 0 262 L 126.5634765625 262 L 137.5634765625 251 L 137.5634765625 240 L 0 240 L 0 240" stroke-miterlimit="10"/></g><g transform="translate(10,5) scale(1,1)"><g><path fill="none" stroke="none"/><text fill="#000000" stroke="none" font-family="Arial" font-size="13px" font-style="normal" font-weight="normal" text-decoration="none" x="29.07177734375" y="257.5">Modify or delete</text></g></g><g transform="translate(10,5) scale(1,1)"><g><path fill="none" stroke="none"/><text fill="#000000" stroke="none" font-family="Arial" font-size="13px" font-style="normal" font-weight="bold" text-decoration="none" x="5" y="257.5">opt</text></g></g><g transform="translate(10,5) scale(1,1)"><g><path fill="none" stroke="none"/><text fill="#000000" stroke="none" font-family="Arial" font-size="13px" font-style="normal" font-weight="normal" text-decoration="none" x="19.5" y="290.5">[Modify]</text></g></g><g transform="translate(10,5) scale(1,1)"><path fill="none" stroke="#000000" d="M 0 593 L 1232 593" stroke-miterlimit="10" stroke-dasharray="10,3"/></g><g transform="translate(10,5) scale(1,1)"><g><path fill="none" stroke="none"/><text fill="#000000" stroke="none" font-family="Arial" font-size="13px" font-style="normal" font-weight="normal" text-decoration="none" x="19.5" y="620.5">[delete]</text></g></g><g transform="translate(10,5) scale(1,1)"><path fill="none" stroke="#000000" d="M 544 408 L 1216 408 L 1216 576 L 544 576 L 544 408" stroke-miterlimit="10"/></g><g transform="translate(10,5) scale(1,1)"><path fill="#ffffff" stroke="none" d="M 544 408 L 544 430 L 606.96630859375 430 L 617.96630859375 419 L 617.96630859375 408 L 544 408"/></g><g transform="translate(10,5) scale(1,1)"><path fill="none" stroke="#000000" d="M 544 408 L 544 430 L 606.96630859375 430 L 617.96630859375 419 L 617.96630859375 408 L 544 408 L 544 408" stroke-miterlimit="10"/></g><g transform="translate(10,5) scale(1,1)"><g><path fill="none" stroke="none"/><text fill="#000000" stroke="none" font-family="Arial" font-size="13px" font-style="normal" font-weight="normal" text-decoration="none" x="568.72998046875" y="425.5">Reply</text></g></g><g transform="translate(10,5) scale(1,1)"><g><path fill="none" stroke="none"/><text fill="#000000" stroke="none" font-family="Arial" font-size="13px" font-style="normal" font-weight="bold" text-decoration="none" x="549" y="425.5">alt</text></g></g><g transform="translate(10,5) scale(1,1)"><g><path fill="none" stroke="none"/><text fill="#000000" stroke="none" font-family="Arial" font-size="13px" font-style="normal" font-weight="normal" text-decoration="none" x="563.5" y="458.5">[Error]</text></g></g><g transform="translate(10,5) scale(1,1)"><path fill="none" stroke="#000000" d="M 544 481 L 1216 481" stroke-miterlimit="10" stroke-dasharray="10,3"/></g><g transform="translate(10,5) scale(1,1)"><g><path fill="none" stroke="none"/><text fill="#000000" stroke="none" font-family="Arial" font-size="13px" font-style="normal" font-weight="normal" text-decoration="none" x="563.5" y="508.5">[Confirm]</text></g></g><g transform="translate(10,5) scale(1,1)"><rect fill="#C0C0C0" stroke="none" x="839" y="47" width="72.47900390625" height="39" opacity="0.2"/></g><g transform="translate(10,5) scale(1,1)"><rect fill="#ffff91" stroke="none" x="832" y="40" width="72.47900390625" height="39"/></g><g transform="translate(10,5) scale(1,1)"><path fill="none" stroke="#000000" d="M 832 40 L 904.47900390625 40 L 904.47900390625 79 L 832 79 L 832 40 Z Z" stroke-miterlimit="10"/></g><g transform="translate(10,5) scale(1,1)"><g><path fill="none" stroke="none"/><text fill="#000000" stroke="none" font-family="Arial" font-size="13px" font-style="normal" font-weight="normal" text-decoration="none" x="841.5" y="57.5">«screen»</text></g></g><g transform="translate(10,5) scale(1,1)"><g><path fill="none" stroke="none"/><text fill="#000000" stroke="none" font-family="Arial" font-size="13px" font-style="normal" font-weight="bold" text-decoration="none" x="853.79541015625" y="72.5">Error</text></g></g><g transform="translate(10,5) scale(1,1)"><path fill="none" stroke="#000000" d="M 869.5 80 L 869.5 490" stroke-miterlimit="10" stroke-dasharray="3"/></g><g transform="translate(10,5) scale(1,1)"><rect fill="#C0C0C0" stroke="none" x="919" y="47" width="120.1181640625" height="39" opacity="0.2"/></g><g transform="translate(10,5) scale(1,1)"><rect fill="#ffff91" stroke="none" x="912" y="40" width="120.1181640625" height="39"/></g><g transform="translate(10,5) scale(1,1)"><path fill="none" stroke="#000000" d="M 912 40 L 1032.1181640625 40 L 1032.1181640625 79 L 912 79 L 912 40 Z Z" stroke-miterlimit="10"/></g><g transform="translate(10,5) scale(1,1)"><g><path fill="none" stroke="none"/><text fill="#000000" stroke="none" font-family="Arial" font-size="13px" font-style="normal" font-weight="normal" text-decoration="none" x="945.319580078125" y="57.5">«screen»</text></g></g><g transform="translate(10,5) scale(1,1)"><g><path fill="none" stroke="none"/><text fill="#000000" stroke="none" font-family="Arial" font-size="13px" font-style="normal" font-weight="bold" text-decoration="none" x="925.095947265625" y="72.5">ConfirmRequest</text></g></g><g transform="translate(10,5) scale(1,1)"><path fill="none" stroke="#000000" d="M 973.5 80 L 973.5 746" stroke-miterlimit="10" stroke-dasharray="3"/></g><g transform="translate(10,5) scale(1,1)"><rect fill="#C0C0C0" stroke="none" x="1151" y="47" width="71.736328125" height="39" opacity="0.2"/></g><g transform="translate(10,5) scale(1,1)"><rect fill="#91ffec" stroke="none" x="1144" y="40" width="71.736328125" height="39"/></g><g transform="translate(10,5) scale(1,1)"><path fill="none" stroke="#000000" d="M 1144 40 L 1215.736328125 40 L 1215.736328125 79 L 1144 79 L 1144 40 Z Z" stroke-miterlimit="10"/></g><g transform="translate(10,5) scale(1,1)"><g><path fill="none" stroke="none"/><text fill="#000000" stroke="none" font-family="Arial" font-size="13px" font-style="normal" font-weight="bold" text-decoration="none" x="1166.5" y="59.5">Ride</text></g></g><g transform="translate(10,5) scale(1,1)"><path fill="none" stroke="#000000" d="M 1180.5 80 L 1180.5 786" stroke-miterlimit="10" stroke-dasharray="3"/></g><g transform="translate(10,5) scale(1,1)"><path fill="none" stroke="#000000" d="M 66 128 L 246 128" stroke-miterlimit="10"/></g><g transform="translate(10,5) scale(1,1)"><path fill="#000000" stroke="none" d="M 235.83732514237585 132.209517756016 L 246 128 L 235.83732514237585 123.79048224398402"/></g><g transform="translate(10,5) scale(1,1)"><path fill="none" stroke="#000000" d="M 235.83732514237585 132.209517756016 L 246 128 L 235.83732514237585 123.79048224398402 L 235.83732514237585 132.209517756016" stroke-miterlimit="10"/></g><g transform="translate(10,5) scale(1,1)"><g><path fill="none" stroke="none"/><text fill="#000000" stroke="none" font-family="Arial" font-size="13px" font-style="normal" font-weight="normal" text-decoration="none" x="86" y="149">1 : After login procedure</text></g></g><g transform="translate(10,5) scale(1,1)"><rect fill="#ffffff" stroke="none" x="246" y="128" width="13" height="32"/></g><g transform="translate(10,5) scale(1,1)"><path fill="none" stroke="#000000" d="M 246 128 L 259 128 L 259 160 L 246 160 L 246 128 Z Z" stroke-miterlimit="10"/></g><g transform="translate(10,5) scale(1,1)"><path fill="none" stroke="#000000" d="M 253 160 L 500 160" stroke-miterlimit="10"/></g><g transform="translate(10,5) scale(1,1)"><path fill="#000000" stroke="none" d="M 489.83732514237585 164.209517756016 L 500 160 L 489.83732514237585 155.790482243984"/></g><g transform="translate(10,5) scale(1,1)"><path fill="none" stroke="#000000" d="M 489.83732514237585 164.209517756016 L 500 160 L 489.83732514237585 155.790482243984 L 489.83732514237585 164.209517756016" stroke-miterlimit="10"/></g><g transform="translate(10,5) scale(1,1)"><g><path fill="none" stroke="none"/><text fill="#000000" stroke="none" font-family="Arial" font-size="13px" font-style="normal" font-weight="normal" text-decoration="none" x="331" y="149">2 : requestPage</text></g></g><g transform="translate(10,5) scale(1,1)"><rect fill="#ffffff" stroke="none" x="500" y="160" width="13" height="328"/></g><g transform="translate(10,5) scale(1,1)"><path fill="none" stroke="#000000" d="M 500 160 L 513 160 L 513 488 L 500 488 L 500 160 Z Z" stroke-miterlimit="10"/></g><g transform="translate(10,5) scale(1,1)"><path fill="none" stroke="#000000" d="M 66 288 L 507 288" stroke-miterlimit="10"/></g><g transform="translate(10,5) scale(1,1)"><path fill="#000000" stroke="none" d="M 496.83732514237585 292.209517756016 L 507 288 L 496.83732514237585 283.790482243984"/></g><g transform="translate(10,5) scale(1,1)"><path fill="none" stroke="#000000" d="M 496.83732514237585 292.209517756016 L 507 288 L 496.83732514237585 283.790482243984 L 496.83732514237585 292.209517756016" stroke-miterlimit="10"/></g><g transform="translate(10,5) scale(1,1)"><g><path fill="none" stroke="none"/><text fill="#000000" stroke="none" font-family="Arial" font-size="13px" font-style="normal" font-weight="normal" text-decoration="none" x="71" y="309">3 : SendModify(ride,destination,date,startingPoint,NumberOfPassengers)</text></g></g><g transform="translate(10,5) scale(1,1)"><rect fill="#ffffff" stroke="none" x="507" y="288" width="13" height="32"/></g><g transform="translate(10,5) scale(1,1)"><path fill="none" stroke="#000000" d="M 507 288 L 520 288 L 520 320 L 507 320 L 507 288 Z Z" stroke-miterlimit="10"/></g><g transform="translate(10,5) scale(1,1)"><path fill="none" stroke="#000000" d="M 513 328 L 699 328" stroke-miterlimit="10"/></g><g transform="translate(10,5) scale(1,1)"><path fill="#000000" stroke="none" d="M 688.8373251423759 332.209517756016 L 699 328 L 688.8373251423758 323.790482243984"/></g><g transform="translate(10,5) scale(1,1)"><path fill="none" stroke="#000000" d="M 688.8373251423759 332.209517756016 L 699 328 L 688.8373251423758 323.790482243984 L 688.8373251423759 332.209517756016" stroke-miterlimit="10"/></g><g transform="translate(10,5) scale(1,1)"><g><path fill="none" stroke="none"/><text fill="#000000" stroke="none" font-family="Arial" font-size="13px" font-style="normal" font-weight="normal" text-decoration="none" x="557" y="317">4 : sendNewData</text></g></g><g transform="translate(10,5) scale(1,1)"><rect fill="#ffffff" stroke="none" x="699" y="328" width="13" height="216"/></g><g transform="translate(10,5) scale(1,1)"><path fill="none" stroke="#000000" d="M 699 328 L 712 328 L 712 544 L 699 544 L 699 328 Z Z" stroke-miterlimit="10"/></g><g transform="translate(10,5) scale(1,1)"><path fill="none" stroke="#000000" d="M 712 344 L 742 344 L 742 364 L 719 364" stroke-miterlimit="10"/></g><g transform="translate(10,5) scale(1,1)"><path fill="#000000" stroke="none" d="M 729.1626748576241 359.790482243984 L 719 364 L 729.1626748576241 368.209517756016"/></g><g transform="translate(10,5) scale(1,1)"><path fill="none" stroke="#000000" d="M 729.1626748576241 359.790482243984 L 719 364 L 729.1626748576241 368.209517756016 L 729.1626748576241 359.790482243984" stroke-miterlimit="10"/></g><g transform="translate(10,5) scale(1,1)"><g><path fill="none" stroke="none"/><text fill="#000000" stroke="none" font-family="Arial" font-size="13px" font-style="normal" font-weight="normal" text-decoration="none" x="584" y="359">5 : checkNewData</text></g></g><g transform="translate(10,5) scale(1,1)"><rect fill="#ffffff" stroke="none" x="706" y="364" width="13" height="28"/></g><g transform="translate(10,5) scale(1,1)"><path fill="none" stroke="#000000" d="M 706 364 L 719 364 L 719 392 L 706 392 L 706 364 Z Z" stroke-miterlimit="10"/></g><g transform="translate(10,5) scale(1,1)"><path fill="none" stroke="#000000" d="M 712 440 L 862 440" stroke-miterlimit="10"/></g><g transform="translate(10,5) scale(1,1)"><path fill="none" stroke="#000000" d="M 851.8373251423759 444.209517756016 L 862 440 L 851.8373251423758 435.790482243984" stroke-miterlimit="10"/></g><g transform="translate(10,5) scale(1,1)"><g><path fill="none" stroke="none"/><text fill="#000000" stroke="none" font-family="Arial" font-size="13px" font-style="normal" font-weight="normal" text-decoration="none" x="765" y="429">6 : error</text></g></g><g transform="translate(10,5) scale(1,1)"><rect fill="#ffffff" stroke="none" x="862" y="440" width="13" height="28"/></g><g transform="translate(10,5) scale(1,1)"><path fill="none" stroke="#000000" d="M 862 440 L 875 440 L 875 468 L 862 468 L 862 440 Z Z" stroke-miterlimit="10"/></g><g transform="translate(10,5) scale(1,1)"><path fill="none" stroke="#000000" d="M 712 512 L 966 512" stroke-miterlimit="10"/></g><g transform="translate(10,5) scale(1,1)"><path fill="#000000" stroke="none" d="M 955.8373251423759 516.209517756016 L 966 512 L 955.8373251423758 507.790482243984"/></g><g transform="translate(10,5) scale(1,1)"><path fill="none" stroke="#000000" d="M 955.8373251423759 516.209517756016 L 966 512 L 955.8373251423758 507.790482243984 L 955.8373251423759 516.209517756016" stroke-miterlimit="10"/></g><g transform="translate(10,5) scale(1,1)"><g><path fill="none" stroke="none"/><text fill="#000000" stroke="none" font-family="Arial" font-size="13px" font-style="normal" font-weight="normal" text-decoration="none" x="785" y="501">7 : confirmRequest</text></g></g><g transform="translate(10,5) scale(1,1)"><rect fill="#ffffff" stroke="none" x="966" y="512" width="13" height="28"/></g><g transform="translate(10,5) scale(1,1)"><path fill="none" stroke="#000000" d="M 966 512 L 979 512 L 979 540 L 966 540 L 966 512 Z Z" stroke-miterlimit="10"/></g><g transform="translate(10,5) scale(1,1)"><path fill="none" stroke="#000000" d="M 706 544 L 1173 544" stroke-miterlimit="10"/></g><g transform="translate(10,5) scale(1,1)"><path fill="none" stroke="#000000" d="M 1162.837325142376 548.209517756016 L 1173 544 L 1162.837325142376 539.790482243984" stroke-miterlimit="10"/></g><g transform="translate(10,5) scale(1,1)"><g><path fill="none" stroke="none"/><text fill="#000000" stroke="none" font-family="Arial" font-size="13px" font-style="normal" font-weight="normal" text-decoration="none" x="776" y="565">8 : ModifyRide</text></g></g><g transform="translate(10,5) scale(1,1)"><rect fill="#ffffff" stroke="none" x="1173" y="544" width="13" height="28"/></g><g transform="translate(10,5) scale(1,1)"><path fill="none" stroke="#000000" d="M 1173 544 L 1186 544 L 1186 572 L 1173 572 L 1173 544 Z Z" stroke-miterlimit="10"/></g><g transform="translate(10,5) scale(1,1)"><path fill="none" stroke="#000000" d="M 66 600 L 500 600" stroke-miterlimit="10"/></g><g transform="translate(10,5) scale(1,1)"><path fill="#000000" stroke="none" d="M 489.83732514237585 604.209517756016 L 500 600 L 489.83732514237585 595.790482243984"/></g><g transform="translate(10,5) scale(1,1)"><path fill="none" stroke="#000000" d="M 489.83732514237585 604.209517756016 L 500 600 L 489.83732514237585 595.790482243984 L 489.83732514237585 604.209517756016" stroke-miterlimit="10"/></g><g transform="translate(10,5) scale(1,1)"><g><path fill="none" stroke="none"/><text fill="#000000" stroke="none" font-family="Arial" font-size="13px" font-style="normal" font-weight="normal" text-decoration="none" x="88" y="622">9 : delete(ride)</text></g></g><g transform="translate(10,5) scale(1,1)"><rect fill="#ffffff" stroke="none" x="500" y="600" width="13" height="32"/></g><g transform="translate(10,5) scale(1,1)"><path fill="none" stroke="#000000" d="M 500 600 L 513 600 L 513 632 L 500 632 L 500 600 Z Z" stroke-miterlimit="10"/></g><g transform="translate(10,5) scale(1,1)"><path fill="none" stroke="#000000" d="M 507 632 L 699 632" stroke-miterlimit="10"/></g><g transform="translate(10,5) scale(1,1)"><path fill="#000000" stroke="none" d="M 688.8373251423759 636.209517756016 L 699 632 L 688.8373251423758 627.790482243984"/></g><g transform="translate(10,5) scale(1,1)"><path fill="none" stroke="#000000" d="M 688.8373251423759 636.209517756016 L 699 632 L 688.8373251423758 627.790482243984 L 688.8373251423759 636.209517756016" stroke-miterlimit="10"/></g><g transform="translate(10,5) scale(1,1)"><g><path fill="none" stroke="none"/><text fill="#000000" stroke="none" font-family="Arial" font-size="13px" font-style="normal" font-weight="normal" text-decoration="none" x="540" y="621">10 : sendRideToDelete</text></g></g><g transform="translate(10,5) scale(1,1)"><rect fill="#ffffff" stroke="none" x="699" y="632" width="13" height="120"/></g><g transform="translate(10,5) scale(1,1)"><path fill="none" stroke="#000000" d="M 699 632 L 712 632 L 712 752 L 699 752 L 699 632 Z Z" stroke-miterlimit="10"/></g><g transform="translate(10,5) scale(1,1)"><path fill="none" stroke="#000000" d="M 712 648 L 742 648 L 742 668 L 719 668" stroke-miterlimit="10"/></g><g transform="translate(10,5) scale(1,1)"><path fill="#000000" stroke="none" d="M 729.1626748576241 663.790482243984 L 719 668 L 729.1626748576241 672.209517756016"/></g><g transform="translate(10,5) scale(1,1)"><path fill="none" stroke="#000000" d="M 729.1626748576241 663.790482243984 L 719 668 L 729.1626748576241 672.209517756016 L 729.1626748576241 663.790482243984" stroke-miterlimit="10"/></g><g transform="translate(10,5) scale(1,1)"><g><path fill="none" stroke="none"/><text fill="#000000" stroke="none" font-family="Arial" font-size="13px" font-style="normal" font-weight="normal" text-decoration="none" x="583" y="668">11 : checkRequest</text></g></g><g transform="translate(10,5) scale(1,1)"><rect fill="#ffffff" stroke="none" x="706" y="668" width="13" height="28"/></g><g transform="translate(10,5) scale(1,1)"><path fill="none" stroke="#000000" d="M 706 668 L 719 668 L 719 696 L 706 696 L 706 668 Z Z" stroke-miterlimit="10"/></g><g transform="translate(10,5) scale(1,1)"><path fill="none" stroke="#000000" d="M 712 704 L 966 704" stroke-miterlimit="10"/></g><g transform="translate(10,5) scale(1,1)"><path fill="#000000" stroke="none" d="M 955.8373251423759 708.209517756016 L 966 704 L 955.8373251423758 699.790482243984"/></g><g transform="translate(10,5) scale(1,1)"><path fill="none" stroke="#000000" d="M 955.8373251423759 708.209517756016 L 966 704 L 955.8373251423758 699.790482243984 L 955.8373251423759 708.209517756016" stroke-miterlimit="10"/></g><g transform="translate(10,5) scale(1,1)"><g><path fill="none" stroke="none"/><text fill="#000000" stroke="none" font-family="Arial" font-size="13px" font-style="normal" font-weight="normal" text-decoration="none" x="780" y="692">12 : confirmRequest</text></g></g><g transform="translate(10,5) scale(1,1)"><rect fill="#ffffff" stroke="none" x="966" y="704" width="13" height="28"/></g><g transform="translate(10,5) scale(1,1)"><path fill="none" stroke="#000000" d="M 966 704 L 979 704 L 979 732 L 966 732 L 966 704 Z Z" stroke-miterlimit="10"/></g><g transform="translate(10,5) scale(1,1)"><path fill="none" stroke="#000000" d="M 712 744 L 1173 744" stroke-miterlimit="10"/></g><g transform="translate(10,5) scale(1,1)"><path fill="#000000" stroke="none" d="M 1162.837325142376 748.209517756016 L 1173 744 L 1162.837325142376 739.790482243984"/></g><g transform="translate(10,5) scale(1,1)"><path fill="none" stroke="#000000" d="M 1162.837325142376 748.209517756016 L 1173 744 L 1162.837325142376 739.790482243984 L 1162.837325142376 748.209517756016" stroke-miterlimit="10"/></g><g transform="translate(10,5) scale(1,1)"><g><path fill="none" stroke="none"/><text fill="#000000" stroke="none" font-family="Arial" font-size="13px" font-style="normal" font-weight="normal" text-decoration="none" x="783" y="765">13 : CancelRide</text></g></g><g transform="translate(10,5) scale(1,1)"><rect fill="#ffffff" stroke="none" x="1173" y="744" width="13" height="28"/></g><g transform="translate(10,5) scale(1,1)"><path fill="none" stroke="#000000" d="M 1173 744 L 1186 744 L 1186 772 L 1173 772 L 1173 744 Z Z" stroke-miterlimit="10"/></g></g></svg>