<svg version="1.1" xmlns="http://www.w3.org/2000/svg" xmlns:xlink="http://www.w3.org/1999/xlink" width="1012" height="1500"><defs/><g><g transform="translate(-38,-22) scale(1,1)"><rect fill="#ffffff" stroke="none" x="48" y="32" width="208" height="21"/></g><g transform="translate(-38,-22) scale(1,1)"><path fill="none" stroke="#000000" d="M 48 32 L 256 32 L 256 53 L 48 53 L 48 32 Z Z" stroke-miterlimit="10" stroke-width="2"/></g><g transform="translate(-38,-22) scale(1,1)"><path fill="none" stroke="#000000" d="M 48 1504 L 48 32 L 256 32 L 256 1504" stroke-miterlimit="10" stroke-width="2"/></g><g transform="translate(-38,-22) scale(1,1)"><g><path fill="none" stroke="none"/><text fill="#000000" stroke="none" font-family="Arial" font-size="13px" font-style="normal" font-weight="normal" text-decoration="none" x="123.825927734375" y="49">Customer</text></g></g><g transform="translate(-38,-22) scale(1,1)"><rect fill="#ffffff" stroke="none" x="256" y="32" width="488" height="21"/></g><g transform="translate(-38,-22) scale(1,1)"><path fill="none" stroke="#000000" d="M 256 32 L 744 32 L 744 53 L 256 53 L 256 32 Z Z" stroke-miterlimit="10" stroke-width="2"/></g><g transform="translate(-38,-22) scale(1,1)"><path fill="none" stroke="#000000" d="M 256 1512 L 256 32 L 744 32 L 744 1512" stroke-miterlimit="10" stroke-width="2"/></g><g transform="translate(-38,-22) scale(1,1)"><g><path fill="none" stroke="none"/><text fill="#000000" stroke="none" font-family="Arial" font-size="13px" font-style="normal" font-weight="normal" text-decoration="none" x="478.3291015625" y="49">System</text></g></g><g transform="translate(-38,-22) scale(1,1)"><rect fill="#ffffff" stroke="none" x="744" y="32" width="296" height="21"/></g><g transform="translate(-38,-22) scale(1,1)"><path fill="none" stroke="#000000" d="M 744 32 L 1040 32 L 1040 53 L 744 53 L 744 32 Z Z" stroke-miterlimit="10" stroke-width="2"/></g><g transform="translate(-38,-22) scale(1,1)"><path fill="none" stroke="#000000" d="M 744 1504 L 744 32 L 1040 32 L 1040 1504" stroke-miterlimit="10" stroke-width="2"/></g><g transform="translate(-38,-22) scale(1,1)"><g><path fill="none" stroke="none"/><text fill="#000000" stroke="none" font-family="Arial" font-size="13px" font-style="normal" font-weight="normal" text-decoration="none" x="860.582275390625" y="49">Taxi Driver</text></g></g><g transform="translate(-38,-22) scale(1,1)"><path fill="#C0C0C0" stroke="none" d="M 143 108.5 C 143 101.0441552 148.3725824 95 155 95 C 161.6274176 95 167 101.0441552 167 108.5 C 167 115.9558448 161.6274176 122 155 122 C 148.3725824 122 143 115.9558448 143 108.5 Z" opacity="0.2"/></g><g transform="translate(-38,-22) scale(1,1)"><path fill="#000000" stroke="none" d="M 136 101.5 C 136 94.0441552 141.3725824 88 148 88 C 154.6274176 88 160 94.0441552 160 101.5 C 160 108.9558448 154.6274176 115 148 115 C 141.3725824 115 136 108.9558448 136 101.5 Z"/></g><g transform="translate(-38,-22) scale(1,1)"><path fill="#C0C0C0" stroke="none" d="M 87 263 L 87 303 L 212.75 303 L 223 283.5 L 212.75 263" opacity="0.2"/></g><g transform="translate(-38,-22) scale(1,1)"><path fill="#ffffff" stroke="none" d="M 80 256 L 80 296 L 205.75 296 L 216 276.5 L 205.75 256"/></g><g transform="translate(-38,-22) scale(1,1)"><path fill="none" stroke="#000000" d="M 80 256 L 80 296 L 205.75 296 L 216 276.5 L 205.75 256 L 80 256" stroke-miterlimit="10"/></g><g transform="translate(-38,-22) scale(1,1)"><g><path fill="none" stroke="none"/><text fill="#000000" stroke="none" font-family="Arial" font-size="13px" font-style="normal" font-weight="bold" text-decoration="none" x="106.8037109375" y="275.5">Send Request</text></g></g><g transform="translate(-38,-22) scale(1,1)"><path fill="#C0C0C0" stroke="none" d="M 121 175 L 190.91357421875 175 Q 200.91357421875 175 200.91357421875 185 L 200.91357421875 205 Q 200.91357421875 215 190.91357421875 215 L 121 215 Q 111 215 111 205 L 111 185 Q 111 175 121 175 Z" opacity="0.2"/></g><g transform="translate(-38,-22) scale(1,1)"><path fill="#ffffff" stroke="none" d="M 114 168 L 183.91357421875 168 Q 193.91357421875 168 193.91357421875 178 L 193.91357421875 198 Q 193.91357421875 208 183.91357421875 208 L 114 208 Q 104 208 104 198 L 104 178 Q 104 168 114 168 Z"/></g><g transform="translate(-38,-22) scale(1,1)"><path fill="none" stroke="#000000" d="M 114 168 L 183.91357421875 168 Q 193.91357421875 168 193.91357421875 178 L 193.91357421875 198 Q 193.91357421875 208 183.91357421875 208 L 114 208 Q 104 208 104 198 L 104 178 Q 104 168 114 168 Z" stroke-miterlimit="10"/></g><g transform="translate(-38,-22) scale(1,1)"><g><path fill="none" stroke="none"/><text fill="#000000" stroke="none" font-family="Arial" font-size="13px" font-style="normal" font-weight="bold" text-decoration="none" x="110.661376953125" y="187.5">Request Taxi</text></g></g><g transform="translate(-38,-22) scale(1,1)"><path fill="none" stroke="#000000" d="M 148 116 L 148 167" stroke-miterlimit="10"/></g><g transform="translate(-38,-22) scale(1,1)"><path fill="none" stroke="#000000" d="M 143.790482243984 156.83732514237585 L 148 167 L 152.209517756016 156.83732514237585" stroke-miterlimit="10"/></g><g transform="translate(-38,-22) scale(1,1)"><path fill="none" stroke="#000000" d="M 148 209 L 148 255" stroke-miterlimit="10"/></g><g transform="translate(-38,-22) scale(1,1)"><path fill="none" stroke="#000000" d="M 143.790482243984 244.83732514237585 L 148 255 L 152.209517756016 244.83732514237585" stroke-miterlimit="10"/></g><g transform="translate(-38,-22) scale(1,1)"><path fill="#C0C0C0" stroke="none" d="M 415 263 L 559 263 L 559 303 L 415 303 L 425.25 283.5" opacity="0.2"/></g><g transform="translate(-38,-22) scale(1,1)"><path fill="#ffffff" stroke="none" d="M 408 256 L 552 256 L 552 296 L 408 296 L 418.25 276.5"/></g><g transform="translate(-38,-22) scale(1,1)"><path fill="none" stroke="#000000" d="M 408 256 L 552 256 L 552 296 L 408 296 L 418.25 276.5 L 408 256" stroke-miterlimit="10"/></g><g transform="translate(-38,-22) scale(1,1)"><g><path fill="none" stroke="none"/><text fill="#000000" stroke="none" font-family="Arial" font-size="13px" font-style="normal" font-weight="bold" text-decoration="none" x="434.115966796875" y="275.5">Recive Request</text></g></g><g transform="translate(-38,-22) scale(1,1)"><path fill="none" stroke="#000000" d="M 217 276 L 407 276" stroke-miterlimit="10"/></g><g transform="translate(-38,-22) scale(1,1)"><path fill="none" stroke="#000000" d="M 396.83732514237585 280.209517756016 L 407 276 L 396.83732514237585 271.790482243984" stroke-miterlimit="10"/></g><g transform="translate(-38,-22) scale(1,1)"><path fill="#C0C0C0" stroke="none" d="M 393 399 L 581 399 Q 591 399 591 409 L 591 437 Q 591 447 581 447 L 393 447 Q 383 447 383 437 L 383 409 Q 383 399 393 399 Z" opacity="0.2"/></g><g transform="translate(-38,-22) scale(1,1)"><path fill="#ffffff" stroke="none" d="M 386 392 L 574 392 Q 584 392 584 402 L 584 430 Q 584 440 574 440 L 386 440 Q 376 440 376 430 L 376 402 Q 376 392 386 392 Z"/></g><g transform="translate(-38,-22) scale(1,1)"><path fill="none" stroke="#000000" d="M 386 392 L 574 392 Q 584 392 584 402 L 584 430 Q 584 440 574 440 L 386 440 Q 376 440 376 430 L 376 402 Q 376 392 386 392 Z" stroke-miterlimit="10"/></g><g transform="translate(-38,-22) scale(1,1)"><g><path fill="none" stroke="none"/><text fill="#000000" stroke="none" font-family="Arial" font-size="13px" font-style="normal" font-weight="bold" text-decoration="none" x="401.2509765625" y="411.5">Extract Zone From Position</text></g></g><g transform="translate(-38,-22) scale(1,1)"><path fill="none" stroke="#000000" d="M 480 297 L 480 391" stroke-miterlimit="10"/></g><g transform="translate(-38,-22) scale(1,1)"><path fill="none" stroke="#000000" d="M 475.790482243984 380.83732514237585 L 480 391 L 484.209517756016 380.83732514237585" stroke-miterlimit="10"/></g><g transform="translate(-38,-22) scale(1,1)"><path fill="#C0C0C0" stroke="none" d="M 447 519.5 L 487.5 495 L 527 519.5 L 487.5 543 L 447 519.5" opacity="0.2"/></g><g transform="translate(-38,-22) scale(1,1)"><path fill="#ffffff" stroke="none" d="M 440 512 L 480 488 L 520 512 L 480 536 L 440 512"/></g><g transform="translate(-38,-22) scale(1,1)"><path fill="none" stroke="#000000" d="M 440 512 L 480 488 L 520 512 L 480 536 L 440 512 L 440 512" stroke-miterlimit="10"/></g><g transform="translate(-38,-22) scale(1,1)"><path fill="none" stroke="#000000" d="M 480 441 L 480 487" stroke-miterlimit="10"/></g><g transform="translate(-38,-22) scale(1,1)"><path fill="none" stroke="#000000" d="M 475.790482243984 476.83732514237585 L 480 487 L 484.209517756016 476.83732514237585" stroke-miterlimit="10"/></g><g transform="translate(-38,-22) scale(1,1)"><g><path fill="none" stroke="none"/><text fill="#000000" stroke="none" font-family="Arial" font-size="16px" font-style="normal" font-weight="normal" text-decoration="none" x="487" y="474">is queue empty?</text></g></g><g transform="translate(-38,-22) scale(1,1)"><path fill="#C0C0C0" stroke="none" d="M 553 663 L 679.287109375 663 Q 689.287109375 663 689.287109375 673 L 689.287109375 693 Q 689.287109375 703 679.287109375 703 L 553 703 Q 543 703 543 693 L 543 673 Q 543 663 553 663 Z" opacity="0.2"/></g><g transform="translate(-38,-22) scale(1,1)"><path fill="#ffffff" stroke="none" d="M 546 656 L 672.287109375 656 Q 682.287109375 656 682.287109375 666 L 682.287109375 686 Q 682.287109375 696 672.287109375 696 L 546 696 Q 536 696 536 686 L 536 666 Q 536 656 546 656 Z"/></g><g transform="translate(-38,-22) scale(1,1)"><path fill="none" stroke="#000000" d="M 546 656 L 672.287109375 656 Q 682.287109375 656 682.287109375 666 L 682.287109375 686 Q 682.287109375 696 672.287109375 696 L 546 696 Q 536 696 536 686 L 536 666 Q 536 656 546 656 Z" stroke-miterlimit="10"/></g><g transform="translate(-38,-22) scale(1,1)"><g><path fill="none" stroke="none"/><text fill="#000000" stroke="none" font-family="Arial" font-size="13px" font-style="normal" font-weight="bold" text-decoration="none" x="545.578125" y="675.5">Select first Taxi Driver</text></g></g><g transform="translate(-38,-22) scale(1,1)"><path fill="none" stroke="#000000" d="M 520 512 L 608 512 L 608 656" stroke-miterlimit="10"/></g><g transform="translate(-38,-22) scale(1,1)"><path fill="none" stroke="#000000" d="M 603.790482243984 645.8373251423759 L 608 656 L 612.209517756016 645.8373251423759" stroke-miterlimit="10"/></g><g transform="translate(-38,-22) scale(1,1)"><g><path fill="none" stroke="none"/><text fill="#000000" stroke="none" font-family="Arial" font-size="16px" font-style="normal" font-weight="normal" text-decoration="none" x="615" y="519">no</text></g></g><g transform="translate(-38,-22) scale(1,1)"><path fill="#ffffff" stroke="none" d="M 352.5 552 L 383.5 552 L 352.5 583 L 383.5 583 L 352.5 552"/></g><g transform="translate(-38,-22) scale(1,1)"><path fill="none" stroke="#000000" d="M 352.5 552 L 383.5 552 L 352.5 583 L 383.5 583 L 352.5 552 L 352.5 552" stroke-miterlimit="10"/></g><g transform="translate(-38,-22) scale(1,1)"><g><path fill="none" stroke="none"/><text fill="#000000" stroke="none" font-family="Arial" font-size="13px" font-style="normal" font-weight="bold" text-decoration="none" x="352.10546875" y="602.5">1 min</text></g></g><g transform="translate(-38,-22) scale(1,1)"><path fill="none" stroke="#000000" d="M 440 512 L 368 512 L 368 552" stroke-miterlimit="10"/></g><g transform="translate(-38,-22) scale(1,1)"><path fill="none" stroke="#000000" d="M 363.790482243984 541.8373251423759 L 368 552 L 372.209517756016 541.8373251423759" stroke-miterlimit="10"/></g><g transform="translate(-38,-22) scale(1,1)"><g><path fill="none" stroke="none"/><text fill="#000000" stroke="none" font-family="Arial" font-size="16px" font-style="normal" font-weight="normal" text-decoration="none" x="336" y="525">yes</text></g></g><g transform="translate(-38,-22) scale(1,1)"><path fill="#C0C0C0" stroke="none" d="M 343 683.5 L 375.5 663 L 407 683.5 L 375.5 703 L 343 683.5" opacity="0.2"/></g><g transform="translate(-38,-22) scale(1,1)"><path fill="#ffffff" stroke="none" d="M 336 676 L 368 656 L 400 676 L 368 696 L 336 676"/></g><g transform="translate(-38,-22) scale(1,1)"><path fill="none" stroke="#000000" d="M 336 676 L 368 656 L 400 676 L 368 696 L 336 676 L 336 676" stroke-miterlimit="10"/></g><g transform="translate(-38,-22) scale(1,1)"><path fill="none" stroke="#000000" d="M 368 609 L 368 655" stroke-miterlimit="10"/></g><g transform="translate(-38,-22) scale(1,1)"><path fill="none" stroke="#000000" d="M 363.790482243984 644.8373251423759 L 368 655 L 372.209517756016 644.8373251423759" stroke-miterlimit="10"/></g><g transform="translate(-38,-22) scale(1,1)"><g><path fill="none" stroke="none"/><text fill="#000000" stroke="none" font-family="Arial" font-size="16px" font-style="normal" font-weight="normal" text-decoration="none" x="376" y="639">is queue empty?</text></g></g><g transform="translate(-38,-22) scale(1,1)"><path fill="#C0C0C0" stroke="none" d="M 311 767 L 311 807 L 428.75 807 L 439 787.5 L 428.75 767" opacity="0.2"/></g><g transform="translate(-38,-22) scale(1,1)"><path fill="#ffffff" stroke="none" d="M 304 760 L 304 800 L 421.75 800 L 432 780.5 L 421.75 760"/></g><g transform="translate(-38,-22) scale(1,1)"><path fill="none" stroke="#000000" d="M 304 760 L 304 800 L 421.75 800 L 432 780.5 L 421.75 760 L 304 760" stroke-miterlimit="10"/></g><g transform="translate(-38,-22) scale(1,1)"><g><path fill="none" stroke="none"/><text fill="#000000" stroke="none" font-family="Arial" font-size="13px" font-style="normal" font-weight="bold" text-decoration="none" x="323.56005859375" y="779.5">Reject Request</text></g></g><g transform="translate(-38,-22) scale(1,1)"><path fill="none" stroke="#000000" d="M 368 697 L 368 759" stroke-miterlimit="10"/></g><g transform="translate(-38,-22) scale(1,1)"><path fill="none" stroke="#000000" d="M 363.790482243984 748.8373251423759 L 368 759 L 372.209517756016 748.8373251423759" stroke-miterlimit="10"/></g><g transform="translate(-38,-22) scale(1,1)"><g><path fill="none" stroke="none"/><text fill="#000000" stroke="none" font-family="Arial" font-size="16px" font-style="normal" font-weight="normal" text-decoration="none" x="375" y="734">yes</text></g></g><g transform="translate(-38,-22) scale(1,1)"><path fill="#C0C0C0" stroke="none" d="M 63 767 L 231 767 L 231 807 L 63 807 L 73.25 787.5" opacity="0.2"/></g><g transform="translate(-38,-22) scale(1,1)"><path fill="#ffffff" stroke="none" d="M 56 760 L 224 760 L 224 800 L 56 800 L 66.25 780.5"/></g><g transform="translate(-38,-22) scale(1,1)"><path fill="none" stroke="#000000" d="M 56 760 L 224 760 L 224 800 L 56 800 L 66.25 780.5 L 56 760" stroke-miterlimit="10"/></g><g transform="translate(-38,-22) scale(1,1)"><g><path fill="none" stroke="none"/><text fill="#000000" stroke="none" font-family="Arial" font-size="13px" font-style="normal" font-weight="bold" text-decoration="none" x="76.77734375" y="779.5">Recive Negative reply</text></g></g><g transform="translate(-38,-22) scale(1,1)"><path fill="none" stroke="#000000" d="M 303 780 L 225 780" stroke-miterlimit="10"/></g><g transform="translate(-38,-22) scale(1,1)"><path fill="none" stroke="#000000" d="M 235.16267485762415 775.790482243984 L 225 780 L 235.16267485762415 784.209517756016" stroke-miterlimit="10"/></g><g transform="translate(-38,-22) scale(1,1)"><path fill="none" stroke="#000000" d="M 401 676 L 535 676" stroke-miterlimit="10"/></g><g transform="translate(-38,-22) scale(1,1)"><path fill="none" stroke="#000000" d="M 524.8373251423759 680.209517756016 L 535 676 L 524.8373251423758 671.790482243984" stroke-miterlimit="10"/></g><g transform="translate(-38,-22) scale(1,1)"><g><path fill="none" stroke="none"/><text fill="#000000" stroke="none" font-family="Arial" font-size="16px" font-style="normal" font-weight="normal" text-decoration="none" x="460" y="669">no</text></g></g><g transform="translate(-38,-22) scale(1,1)"><path fill="#C0C0C0" stroke="none" d="M 135 867.5 C 135 860.59644 140.59644 855 147.5 855 C 154.40356 855 160 860.59644 160 867.5 C 160 874.40356 154.40356 880 147.5 880 C 140.59644 880 135 874.40356 135 867.5 Z" opacity="0.2"/></g><g transform="translate(-38,-22) scale(1,1)"><path fill="none" stroke="#000000" d="M 128 860.5 C 128 853.59644 133.59644 848 140.5 848 C 147.40356 848 153 853.59644 153 860.5 C 153 867.40356 147.40356 873 140.5 873 C 133.59644 873 128 867.40356 128 860.5 Z" stroke-miterlimit="10"/></g><g transform="translate(-38,-22) scale(1,1)"><path fill="#000000" stroke="none" d="M 133 860.5 C 133 856.357864 136.357864 853 140.5 853 C 144.642136 853 148 856.357864 148 860.5 C 148 864.642136 144.642136 868 140.5 868 C 136.357864 868 133 864.642136 133 860.5 Z"/></g><g transform="translate(-38,-22) scale(1,1)"><path fill="none" stroke="#000000" d="M 140 801 L 140 847" stroke-miterlimit="10"/></g><g transform="translate(-38,-22) scale(1,1)"><path fill="none" stroke="#000000" d="M 135.790482243984 836.8373251423759 L 140 847 L 144.209517756016 836.8373251423759" stroke-miterlimit="10"/></g><g transform="translate(-38,-22) scale(1,1)"><path fill="none" stroke="#000000" d="M 609 697 L 610 767" stroke-miterlimit="10"/></g><g transform="translate(-38,-22) scale(1,1)"><path fill="none" stroke="#000000" d="M 605.6457454636101 756.8984918238746 L 610 767 L 614.063922021856 756.7782321587569" stroke-miterlimit="10"/></g><g transform="translate(-38,-22) scale(1,1)"><path fill="#C0C0C0" stroke="none" d="M 586 775 L 649 775 Q 652 775 652 778 L 652 777 Q 652 780 649 780 L 586 780 Q 583 780 583 777 L 583 778 Q 583 775 586 775 Z" opacity="0.2"/></g><g transform="translate(-38,-22) scale(1,1)"><path fill="#000000" stroke="none" d="M 579 768 L 642 768 Q 645 768 645 771 L 645 771 Q 645 774 642 774 L 579 774 Q 576 774 576 771 L 576 771 Q 576 768 579 768 Z"/></g><g transform="translate(-38,-22) scale(1,1)"><path fill="#C0C0C0" stroke="none" d="M 607 887 L 607 927 L 724.43359375 927 L 734.68359375 907.5 L 724.43359375 887" opacity="0.2"/></g><g transform="translate(-38,-22) scale(1,1)"><path fill="#ffffff" stroke="none" d="M 600 880 L 600 920 L 717.43359375 920 L 727.68359375 900.5 L 717.43359375 880"/></g><g transform="translate(-38,-22) scale(1,1)"><path fill="none" stroke="#000000" d="M 600 880 L 600 920 L 717.43359375 920 L 727.68359375 900.5 L 717.43359375 880 L 600 880" stroke-miterlimit="10"/></g><g transform="translate(-38,-22) scale(1,1)"><g><path fill="none" stroke="none"/><text fill="#000000" stroke="none" font-family="Arial" font-size="13px" font-style="normal" font-weight="bold" text-decoration="none" x="622.6455078125" y="899.5">Send Request</text></g></g><g transform="translate(-38,-22) scale(1,1)"><path fill="#ffffff" stroke="none" d="M 532.83544921875 872 L 563.83544921875 872 L 532.83544921875 903 L 563.83544921875 903 L 532.83544921875 872"/></g><g transform="translate(-38,-22) scale(1,1)"><path fill="none" stroke="#000000" d="M 532.83544921875 872 L 563.83544921875 872 L 532.83544921875 903 L 563.83544921875 903 L 532.83544921875 872 L 532.83544921875 872" stroke-miterlimit="10"/></g><g transform="translate(-38,-22) scale(1,1)"><g><path fill="none" stroke="none"/><text fill="#000000" stroke="none" font-family="Arial" font-size="13px" font-style="normal" font-weight="bold" text-decoration="none" x="532.44091796875" y="922.5">2 min</text></g></g><g transform="translate(-38,-22) scale(1,1)"><path fill="none" stroke="#000000" d="M 608 774 L 562 871" stroke-miterlimit="10"/></g><g transform="translate(-38,-22) scale(1,1)"><path fill="none" stroke="#000000" d="M 562.5510695130466 860.0138121993209 L 562 871 L 570.1580728828296 863.6212570963313" stroke-miterlimit="10"/></g><g transform="translate(-38,-22) scale(1,1)"><path fill="none" stroke="#000000" d="M 612 774 L 654 879" stroke-miterlimit="10"/></g><g transform="translate(-38,-22) scale(1,1)"><path fill="none" stroke="#000000" d="M 646.3172381947317 871.1275689241817 L 654 879 L 654.1341164273886 868.0008176311189" stroke-miterlimit="10"/></g><g transform="translate(-38,-22) scale(1,1)"><path fill="#C0C0C0" stroke="none" d="M 63 1399 L 249.11181640625 1399 L 249.11181640625 1439 L 63 1439 L 73.25 1419.5" opacity="0.2"/></g><g transform="translate(-38,-22) scale(1,1)"><path fill="#ffffff" stroke="none" d="M 56 1392 L 242.11181640625 1392 L 242.11181640625 1432 L 56 1432 L 66.25 1412.5"/></g><g transform="translate(-38,-22) scale(1,1)"><path fill="none" stroke="#000000" d="M 56 1392 L 242.11181640625 1392 L 242.11181640625 1432 L 56 1432 L 66.25 1412.5 L 56 1392" stroke-miterlimit="10"/></g><g transform="translate(-38,-22) scale(1,1)"><g><path fill="none" stroke="none"/><text fill="#000000" stroke="none" font-family="Arial" font-size="13px" font-style="normal" font-weight="bold" text-decoration="none" x="78.61279296875" y="1411.5">Taxi Coming Notification</text></g></g><g transform="translate(-38,-22) scale(1,1)"><path fill="#C0C0C0" stroke="none" d="M 839 887 L 984.82080078125 887 L 984.82080078125 927 L 839 927 L 849.25 907.5" opacity="0.2"/></g><g transform="translate(-38,-22) scale(1,1)"><path fill="#ffffff" stroke="none" d="M 832 880 L 977.82080078125 880 L 977.82080078125 920 L 832 920 L 842.25 900.5"/></g><g transform="translate(-38,-22) scale(1,1)"><path fill="none" stroke="#000000" d="M 832 880 L 977.82080078125 880 L 977.82080078125 920 L 832 920 L 842.25 900.5 L 832 880" stroke-miterlimit="10"/></g><g transform="translate(-38,-22) scale(1,1)"><g><path fill="none" stroke="none"/><text fill="#000000" stroke="none" font-family="Arial" font-size="13px" font-style="normal" font-weight="bold" text-decoration="none" x="859.0263671875" y="899.5">Recive Request</text></g></g><g transform="translate(-38,-22) scale(1,1)"><path fill="none" stroke="#000000" d="M 729 900 L 831 900" stroke-miterlimit="10"/></g><g transform="translate(-38,-22) scale(1,1)"><path fill="none" stroke="#000000" d="M 820.8373251423759 904.209517756016 L 831 900 L 820.8373251423758 895.790482243984" stroke-miterlimit="10"/></g><g transform="translate(-38,-22) scale(1,1)"><path fill="none" stroke="#000000" d="M 904 921 L 904 959" stroke-miterlimit="10"/></g><g transform="translate(-38,-22) scale(1,1)"><path fill="none" stroke="#000000" d="M 899.790482243984 948.8373251423759 L 904 959 L 908.209517756016 948.8373251423759" stroke-miterlimit="10"/></g><g transform="translate(-38,-22) scale(1,1)"><path fill="#C0C0C0" stroke="none" d="M 879 987.5 L 911.5 967 L 943 987.5 L 911.5 1007 L 879 987.5" opacity="0.2"/></g><g transform="translate(-38,-22) scale(1,1)"><path fill="#ffffff" stroke="none" d="M 872 980 L 904 960 L 936 980 L 904 1000 L 872 980"/></g><g transform="translate(-38,-22) scale(1,1)"><path fill="none" stroke="#000000" d="M 872 980 L 904 960 L 936 980 L 904 1000 L 872 980 L 872 980" stroke-miterlimit="10"/></g><g transform="translate(-38,-22) scale(1,1)"><path fill="#C0C0C0" stroke="none" d="M 775 1079 L 775 1119 L 884.75 1119 L 895 1099.5 L 884.75 1079" opacity="0.2"/></g><g transform="translate(-38,-22) scale(1,1)"><path fill="#ffffff" stroke="none" d="M 768 1072 L 768 1112 L 877.75 1112 L 888 1092.5 L 877.75 1072"/></g><g transform="translate(-38,-22) scale(1,1)"><path fill="none" stroke="#000000" d="M 768 1072 L 768 1112 L 877.75 1112 L 888 1092.5 L 877.75 1072 L 768 1072" stroke-miterlimit="10"/></g><g transform="translate(-38,-22) scale(1,1)"><g><path fill="none" stroke="none"/><text fill="#000000" stroke="none" font-family="Arial" font-size="13px" font-style="normal" font-weight="bold" text-decoration="none" x="805.246826171875" y="1091.5">Confirm</text></g></g><g transform="translate(-38,-22) scale(1,1)"><path fill="none" stroke="#000000" d="M 872 980 L 816 980 L 816 1072" stroke-miterlimit="10"/></g><g transform="translate(-38,-22) scale(1,1)"><path fill="none" stroke="#000000" d="M 811.790482243984 1061.837325142376 L 816 1072 L 820.209517756016 1061.837325142376" stroke-miterlimit="10"/></g><g transform="translate(-38,-22) scale(1,1)"><path fill="#C0C0C0" stroke="none" d="M 855 1191 L 855 1239 L 954.75 1239 L 967 1215.5 L 954.75 1191" opacity="0.2"/></g><g transform="translate(-38,-22) scale(1,1)"><path fill="#ffffff" stroke="none" d="M 848 1184 L 848 1232 L 947.75 1232 L 960 1208.5 L 947.75 1184"/></g><g transform="translate(-38,-22) scale(1,1)"><path fill="none" stroke="#000000" d="M 848 1184 L 848 1232 L 947.75 1232 L 960 1208.5 L 947.75 1184 L 848 1184" stroke-miterlimit="10"/></g><g transform="translate(-38,-22) scale(1,1)"><g><path fill="none" stroke="none"/><text fill="#000000" stroke="none" font-family="Arial" font-size="13px" font-style="normal" font-weight="bold" text-decoration="none" x="885.575927734375" y="1203.5">Reject</text></g></g><g transform="translate(-38,-22) scale(1,1)"><path fill="none" stroke="#000000" d="M 904 1001 L 904 1183" stroke-miterlimit="10"/></g><g transform="translate(-38,-22) scale(1,1)"><path fill="none" stroke="#000000" d="M 899.790482243984 1172.837325142376 L 904 1183 L 908.209517756016 1172.837325142376" stroke-miterlimit="10"/></g><g transform="translate(-38,-22) scale(1,1)"><path fill="#C0C0C0" stroke="none" d="M 369 1007 L 572.5380859375 1007 Q 582.5380859375 1007 582.5380859375 1017 L 582.5380859375 1037 Q 582.5380859375 1047 572.5380859375 1047 L 369 1047 Q 359 1047 359 1037 L 359 1017 Q 359 1007 369 1007 Z" opacity="0.2"/></g><g transform="translate(-38,-22) scale(1,1)"><path fill="#ffffff" stroke="none" d="M 362 1000 L 565.5380859375 1000 Q 575.5380859375 1000 575.5380859375 1010 L 575.5380859375 1030 Q 575.5380859375 1040 565.5380859375 1040 L 362 1040 Q 352 1040 352 1030 L 352 1010 Q 352 1000 362 1000 Z"/></g><g transform="translate(-38,-22) scale(1,1)"><path fill="none" stroke="#000000" d="M 362 1000 L 565.5380859375 1000 Q 575.5380859375 1000 575.5380859375 1010 L 575.5380859375 1030 Q 575.5380859375 1040 565.5380859375 1040 L 362 1040 Q 352 1040 352 1030 L 352 1010 Q 352 1000 362 1000 Z" stroke-miterlimit="10"/></g><g transform="translate(-38,-22) scale(1,1)"><g><path fill="none" stroke="none"/><text fill="#000000" stroke="none" font-family="Arial" font-size="13px" font-style="normal" font-weight="bold" text-decoration="none" x="362.9619140625" y="1019.5">Put Taxi Driver at the end of queue</text></g></g><g transform="translate(-38,-22) scale(1,1)"><path fill="none" stroke="#000000" d="M 488 1000 L 488 824 L 552 824 L 552 696" stroke-miterlimit="10"/></g><g transform="translate(-38,-22) scale(1,1)"><path fill="none" stroke="#000000" d="M 556.209517756016 706.1626748576241 L 552 696 L 547.790482243984 706.1626748576241" stroke-miterlimit="10"/></g><g transform="translate(-38,-22) scale(1,1)"><path fill="none" stroke="#000000" d="M 548 928 L 548 1000" stroke-miterlimit="10"/></g><g transform="translate(-38,-22) scale(1,1)"><path fill="none" stroke="#000000" d="M 543.790482243984 989.8373251423759 L 548 1000 L 552.209517756016 989.8373251423759" stroke-miterlimit="10"/></g><g transform="translate(-38,-22) scale(1,1)"><path fill="#C0C0C0" stroke="none" d="M 319 1079 L 486.41357421875 1079 L 486.41357421875 1119 L 319 1119 L 329.25 1099.5" opacity="0.2"/></g><g transform="translate(-38,-22) scale(1,1)"><path fill="#ffffff" stroke="none" d="M 312 1072 L 479.41357421875 1072 L 479.41357421875 1112 L 312 1112 L 322.25 1092.5"/></g><g transform="translate(-38,-22) scale(1,1)"><path fill="none" stroke="#000000" d="M 312 1072 L 479.41357421875 1072 L 479.41357421875 1112 L 312 1112 L 322.25 1092.5 L 312 1072" stroke-miterlimit="10"/></g><g transform="translate(-38,-22) scale(1,1)"><g><path fill="none" stroke="none"/><text fill="#000000" stroke="none" font-family="Arial" font-size="13px" font-style="normal" font-weight="bold" text-decoration="none" x="337.1845703125" y="1091.5">Recive Confirmation</text></g></g><g transform="translate(-38,-22) scale(1,1)"><path fill="none" stroke="#000000" d="M 767 1092 L 480 1092" stroke-miterlimit="10"/></g><g transform="translate(-38,-22) scale(1,1)"><path fill="none" stroke="#000000" d="M 490.16267485762415 1087.7904822439841 L 480 1092 L 490.16267485762415 1096.2095177560159" stroke-miterlimit="10"/></g><g transform="translate(-38,-22) scale(1,1)"><path fill="#C0C0C0" stroke="none" d="M 337 1191 L 466.8798828125 1191 Q 476.8798828125 1191 476.8798828125 1201 L 476.8798828125 1229 Q 476.8798828125 1239 466.8798828125 1239 L 337 1239 Q 327 1239 327 1229 L 327 1201 Q 327 1191 337 1191 Z" opacity="0.2"/></g><g transform="translate(-38,-22) scale(1,1)"><path fill="#ffffff" stroke="none" d="M 330 1184 L 459.8798828125 1184 Q 469.8798828125 1184 469.8798828125 1194 L 469.8798828125 1222 Q 469.8798828125 1232 459.8798828125 1232 L 330 1232 Q 320 1232 320 1222 L 320 1194 Q 320 1184 330 1184 Z"/></g><g transform="translate(-38,-22) scale(1,1)"><path fill="none" stroke="#000000" d="M 330 1184 L 459.8798828125 1184 Q 469.8798828125 1184 469.8798828125 1194 L 469.8798828125 1222 Q 469.8798828125 1232 459.8798828125 1232 L 330 1232 Q 320 1232 320 1222 L 320 1194 Q 320 1184 330 1184 Z" stroke-miterlimit="10"/></g><g transform="translate(-38,-22) scale(1,1)"><g><path fill="none" stroke="none"/><text fill="#000000" stroke="none" font-family="Arial" font-size="13px" font-style="normal" font-weight="bold" text-decoration="none" x="329.197265625" y="1203.5">Set Taxi Driver to busy</text></g></g><g transform="translate(-38,-22) scale(1,1)"><path fill="none" stroke="#000000" d="M 395 1113 L 394 1183" stroke-miterlimit="10"/></g><g transform="translate(-38,-22) scale(1,1)"><path fill="none" stroke="#000000" d="M 389.93607797814394 1172.7782321587567 L 394 1183 L 398.3542545363899 1172.8984918238746" stroke-miterlimit="10"/></g><g transform="translate(-38,-22) scale(1,1)"><path fill="#C0C0C0" stroke="none" d="M 327 1399 L 327 1439 L 451.75634765625 1439 L 462.00634765625 1419.5 L 451.75634765625 1399" opacity="0.2"/></g><g transform="translate(-38,-22) scale(1,1)"><path fill="#ffffff" stroke="none" d="M 320 1392 L 320 1432 L 444.75634765625 1432 L 455.00634765625 1412.5 L 444.75634765625 1392"/></g><g transform="translate(-38,-22) scale(1,1)"><path fill="none" stroke="#000000" d="M 320 1392 L 320 1432 L 444.75634765625 1432 L 455.00634765625 1412.5 L 444.75634765625 1392 L 320 1392" stroke-miterlimit="10"/></g><g transform="translate(-38,-22) scale(1,1)"><g><path fill="none" stroke="none"/><text fill="#000000" stroke="none" font-family="Arial" font-size="13px" font-style="normal" font-weight="bold" text-decoration="none" x="351.02001953125" y="1411.5">Taxi Coming</text></g></g><g transform="translate(-38,-22) scale(1,1)"><path fill="#C0C0C0" stroke="none" d="M 535 1191 L 704.04443359375 1191 L 704.04443359375 1239 L 535 1239 L 547.25 1215.5" opacity="0.2"/></g><g transform="translate(-38,-22) scale(1,1)"><path fill="#ffffff" stroke="none" d="M 528 1184 L 697.04443359375 1184 L 697.04443359375 1232 L 528 1232 L 540.25 1208.5"/></g><g transform="translate(-38,-22) scale(1,1)"><path fill="none" stroke="#000000" d="M 528 1184 L 697.04443359375 1184 L 697.04443359375 1232 L 528 1232 L 540.25 1208.5 L 528 1184" stroke-miterlimit="10"/></g><g transform="translate(-38,-22) scale(1,1)"><g><path fill="none" stroke="none"/><text fill="#000000" stroke="none" font-family="Arial" font-size="13px" font-style="normal" font-weight="bold" text-decoration="none" x="563.75" y="1203.5">Recive Rejection</text></g></g><g transform="translate(-38,-22) scale(1,1)"><path fill="none" stroke="#000000" d="M 847 1208 L 698 1208" stroke-miterlimit="10"/></g><g transform="translate(-38,-22) scale(1,1)"><path fill="none" stroke="#000000" d="M 708.1626748576241 1203.7904822439841 L 698 1208 L 708.1626748576241 1212.2095177560159" stroke-miterlimit="10"/></g><g transform="translate(-38,-22) scale(1,1)"><path fill="none" stroke="#000000" d="M 527 1208 L 471 1208" stroke-miterlimit="10"/></g><g transform="translate(-38,-22) scale(1,1)"><path fill="none" stroke="#000000" d="M 481.16267485762415 1203.7904822439841 L 471 1208 L 481.16267485762415 1212.2095177560159" stroke-miterlimit="10"/></g><g transform="translate(-38,-22) scale(1,1)"><path fill="#C0C0C0" stroke="none" d="M 359 1307.5 L 399.5 1287 L 439 1307.5 L 399.5 1327 L 359 1307.5" opacity="0.2"/></g><g transform="translate(-38,-22) scale(1,1)"><path fill="#ffffff" stroke="none" d="M 352 1300 L 392 1280 L 432 1300 L 392 1320 L 352 1300"/></g><g transform="translate(-38,-22) scale(1,1)"><path fill="none" stroke="#000000" d="M 352 1300 L 392 1280 L 432 1300 L 392 1320 L 352 1300 L 352 1300" stroke-miterlimit="10"/></g><g transform="translate(-38,-22) scale(1,1)"><path fill="none" stroke="#000000" d="M 393 1233 L 392 1279" stroke-miterlimit="10"/></g><g transform="translate(-38,-22) scale(1,1)"><path fill="none" stroke="#000000" d="M 388.0123521078249 1268.7482360401718 L 392 1279 L 396.42939894957703 1268.9312153193405" stroke-miterlimit="10"/></g><g transform="translate(-38,-22) scale(1,1)"><g><path fill="none" stroke="none"/><text fill="#000000" stroke="none" font-family="Arial" font-size="13px" font-style="normal" font-weight="normal" text-decoration="none" x="400" y="1262">Taxi Driver rejects?</text></g></g><g transform="translate(-38,-22) scale(1,1)"><path fill="none" stroke="#000000" d="M 352 1300 L 296 1300 L 296 880 L 472 880 L 472 720 L 536 720 L 536 696" stroke-miterlimit="10"/></g><g transform="translate(-38,-22) scale(1,1)"><path fill="none" stroke="#000000" d="M 540.209517756016 706.1626748576241 L 536 696 L 531.790482243984 706.1626748576241" stroke-miterlimit="10"/></g><g transform="translate(-38,-22) scale(1,1)"><g><path fill="none" stroke="none"/><text fill="#000000" stroke="none" font-family="Arial" font-size="13px" font-style="normal" font-weight="normal" text-decoration="none" x="303" y="1293">Yes</text></g></g><g transform="translate(-38,-22) scale(1,1)"><path fill="none" stroke="#000000" d="M 391 1321 L 388 1391" stroke-miterlimit="10"/></g><g transform="translate(-38,-22) scale(1,1)"><path fill="none" stroke="#000000" d="M 384.22948658000973 1380.6664029230053 L 388 1391 L 392.6408009593624 1381.0268878249776" stroke-miterlimit="10"/></g><g transform="translate(-38,-22) scale(1,1)"><g><path fill="none" stroke="none"/><text fill="#000000" stroke="none" font-family="Arial" font-size="13px" font-style="normal" font-weight="normal" text-decoration="none" x="395" y="1363">No</text></g></g><g transform="translate(-38,-22) scale(1,1)"><path fill="none" stroke="#000000" d="M 319 1412 L 243 1412" stroke-miterlimit="10"/></g><g transform="translate(-38,-22) scale(1,1)"><path fill="none" stroke="#000000" d="M 253.16267485762415 1407.7904822439841 L 243 1412 L 253.16267485762415 1416.2095177560159" stroke-miterlimit="10"/></g><g transform="translate(-38,-22) scale(1,1)"><path fill="#C0C0C0" stroke="none" d="M 143 1499.5 C 143 1492.59644 148.59644 1487 155.5 1487 C 162.40356 1487 168 1492.59644 168 1499.5 C 168 1506.40356 162.40356 1512 155.5 1512 C 148.59644 1512 143 1506.40356 143 1499.5 Z" opacity="0.2"/></g><g transform="translate(-38,-22) scale(1,1)"><path fill="none" stroke="#000000" d="M 136 1492.5 C 136 1485.59644 141.59644 1480 148.5 1480 C 155.40356 1480 161 1485.59644 161 1492.5 C 161 1499.40356 155.40356 1505 148.5 1505 C 141.59644 1505 136 1499.40356 136 1492.5 Z" stroke-miterlimit="10"/></g><g transform="translate(-38,-22) scale(1,1)"><path fill="#000000" stroke="none" d="M 141 1492.5 C 141 1488.357864 144.357864 1485 148.5 1485 C 152.642136 1485 156 1488.357864 156 1492.5 C 156 1496.642136 152.642136 1500 148.5 1500 C 144.357864 1500 141 1496.642136 141 1492.5 Z"/></g><g transform="translate(-38,-22) scale(1,1)"><path fill="none" stroke="#000000" d="M 149 1433 L 148 1479" stroke-miterlimit="10"/></g><g transform="translate(-38,-22) scale(1,1)"><path fill="none" stroke="#000000" d="M 144.01235210782485 1468.7482360401718 L 148 1479 L 152.42939894957703 1468.9312153193405" stroke-miterlimit="10"/></g></g></svg>