<svg version="1.1" xmlns="http://www.w3.org/2000/svg" xmlns:xlink="http://www.w3.org/1999/xlink" width="1795.736328125" height="1204"><defs/><g><g transform="translate(2,10) scale(1,1)"><path fill="none" stroke="#000000" d="M 8 0 L 1752 0 L 1752 1184 L 8 1184 L 8 0" stroke-miterlimit="10"/></g><g transform="translate(2,10) scale(1,1)"><path fill="#ffffff" stroke="none" d="M 8 0 L 8 22 L 160.56982421875 22 L 171.56982421875 11 L 171.56982421875 0 L 8 0"/></g><g transform="translate(2,10) scale(1,1)"><path fill="none" stroke="#000000" d="M 8 0 L 8 22 L 160.56982421875 22 L 171.56982421875 11 L 171.56982421875 0 L 8 0 L 8 0" stroke-miterlimit="10"/></g><g transform="translate(2,10) scale(1,1)"><g><path fill="none" stroke="none"/><text fill="#000000" stroke="none" font-family="Arial" font-size="13px" font-style="normal" font-weight="normal" text-decoration="none" x="78.97900390625" y="17.5">Taxi Request</text></g></g><g transform="translate(2,10) scale(1,1)"><g><path fill="none" stroke="none"/><text fill="#000000" stroke="none" font-family="Arial" font-size="13px" font-style="normal" font-weight="bold" text-decoration="none" x="13" y="17.5">interaction</text></g></g><g transform="translate(2,10) scale(1,1)"><path fill="#ffff91" stroke="none" d="M 74.7481551846591 47.3 C 74.7481551846591 43.82060576 77.62655690684092 41 81.17724609375 41 C 84.72793528065908 41 87.6063370028409 43.82060576 87.6063370028409 47.3 C 87.6063370028409 50.779394239999995 84.72793528065908 53.6 81.17724609375 53.6 C 77.62655690684092 53.6 74.7481551846591 50.779394239999995 74.7481551846591 47.3 Z"/></g><g transform="translate(2,10) scale(1,1)"><path fill="none" stroke="#000000" d="M 74.7481551846591 47.3 C 74.7481551846591 43.82060576 77.62655690684092 41 81.17724609375 41 C 84.72793528065908 41 87.6063370028409 43.82060576 87.6063370028409 47.3 C 87.6063370028409 50.779394239999995 84.72793528065908 53.6 81.17724609375 53.6 C 77.62655690684092 53.6 74.7481551846591 50.779394239999995 74.7481551846591 47.3 Z" stroke-miterlimit="10"/></g><g transform="translate(2,10) scale(1,1)"><path fill="none" stroke="#000000" d="M 81.17724609375 53.6 L 81.17724609375 66.4" stroke-miterlimit="10"/></g><g transform="translate(2,10) scale(1,1)"><path fill="none" stroke="#000000" d="M 74.36997336647727 58.4 L 87.98451882102273 58.4" stroke-miterlimit="10"/></g><g transform="translate(2,10) scale(1,1)"><path fill="none" stroke="#000000" d="M 81.17724609375 66.4 L 71.72270063920455 79" stroke-miterlimit="10"/></g><g transform="translate(2,10) scale(1,1)"><path fill="none" stroke="#000000" d="M 81.17724609375 66.4 L 90.63179154829545 79" stroke-miterlimit="10"/></g><g transform="translate(2,10) scale(1,1)"><g><path fill="none" stroke="none"/><text fill="#000000" stroke="none" font-family="Arial" font-size="13px" font-style="normal" font-weight="bold" text-decoration="none" x="25.17822265625" y="99.5">Lifeline1: Customer</text></g></g><g transform="translate(2,10) scale(1,1)"><path fill="none" stroke="#000000" d="M 82.5 105 L 82.5 1176" stroke-miterlimit="10" stroke-dasharray="3"/></g><g transform="translate(2,10) scale(1,1)"><path fill="#d1ffa3" stroke="none" d="M 1462.010850497159 47.3 C 1462.010850497159 43.82060576 1464.889252219341 41 1468.43994140625 41 C 1471.990630593159 41 1474.869032315341 43.82060576 1474.869032315341 47.3 C 1474.869032315341 50.779394239999995 1471.990630593159 53.6 1468.43994140625 53.6 C 1464.889252219341 53.6 1462.010850497159 50.779394239999995 1462.010850497159 47.3 Z"/></g><g transform="translate(2,10) scale(1,1)"><path fill="none" stroke="#000000" d="M 1462.010850497159 47.3 C 1462.010850497159 43.82060576 1464.889252219341 41 1468.43994140625 41 C 1471.990630593159 41 1474.869032315341 43.82060576 1474.869032315341 47.3 C 1474.869032315341 50.779394239999995 1471.990630593159 53.6 1468.43994140625 53.6 C 1464.889252219341 53.6 1462.010850497159 50.779394239999995 1462.010850497159 47.3 Z" stroke-miterlimit="10"/></g><g transform="translate(2,10) scale(1,1)"><path fill="none" stroke="#000000" d="M 1468.43994140625 53.6 L 1468.43994140625 66.4" stroke-miterlimit="10"/></g><g transform="translate(2,10) scale(1,1)"><path fill="none" stroke="#000000" d="M 1461.6326686789773 58.4 L 1475.2472141335227 58.4" stroke-miterlimit="10"/></g><g transform="translate(2,10) scale(1,1)"><path fill="none" stroke="#000000" d="M 1468.43994140625 66.4 L 1458.9853959517045 79" stroke-miterlimit="10"/></g><g transform="translate(2,10) scale(1,1)"><path fill="none" stroke="#000000" d="M 1468.43994140625 66.4 L 1477.8944868607955 79" stroke-miterlimit="10"/></g><g transform="translate(2,10) scale(1,1)"><g><path fill="none" stroke="none"/><text fill="#000000" stroke="none" font-family="Arial" font-size="13px" font-style="normal" font-weight="bold" text-decoration="none" x="1409.197265625" y="99.5">Lifeline2: Taxi Driver</text></g></g><g transform="translate(2,10) scale(1,1)"><path fill="none" stroke="#000000" d="M 1469.5 105 L 1469.5 1160" stroke-miterlimit="10" stroke-dasharray="3"/></g><g transform="translate(2,10) scale(1,1)"><rect fill="#C0C0C0" stroke="none" x="431" y="47" width="120.130859375" height="39" opacity="0.2"/></g><g transform="translate(2,10) scale(1,1)"><rect fill="#ffff91" stroke="none" x="424" y="40" width="120.130859375" height="39"/></g><g transform="translate(2,10) scale(1,1)"><path fill="none" stroke="#000000" d="M 424 40 L 544.130859375 40 L 544.130859375 79 L 424 79 L 424 40 Z Z" stroke-miterlimit="10"/></g><g transform="translate(2,10) scale(1,1)"><g><path fill="none" stroke="none"/><text fill="#000000" stroke="none" font-family="Arial" font-size="13px" font-style="normal" font-weight="normal" text-decoration="none" x="457.325927734375" y="57.5">«screen»</text></g></g><g transform="translate(2,10) scale(1,1)"><g><path fill="none" stroke="none"/><text fill="#000000" stroke="none" font-family="Arial" font-size="13px" font-style="normal" font-weight="bold" text-decoration="none" x="437.46728515625" y="72.5">CustomerProfile</text></g></g><g transform="translate(2,10) scale(1,1)"><path fill="none" stroke="#000000" d="M 485.5 80 L 485.5 1176" stroke-miterlimit="10" stroke-dasharray="3"/></g><g transform="translate(2,10) scale(1,1)"><rect fill="#C0C0C0" stroke="none" x="559" y="47" width="127.37353515625" height="39" opacity="0.2"/></g><g transform="translate(2,10) scale(1,1)"><rect fill="#ffff91" stroke="none" x="552" y="40" width="127.37353515625" height="39"/></g><g transform="translate(2,10) scale(1,1)"><path fill="none" stroke="#000000" d="M 552 40 L 679.37353515625 40 L 679.37353515625 79 L 552 79 L 552 40 Z Z" stroke-miterlimit="10"/></g><g transform="translate(2,10) scale(1,1)"><g><path fill="none" stroke="none"/><text fill="#000000" stroke="none" font-family="Arial" font-size="13px" font-style="normal" font-weight="normal" text-decoration="none" x="588.947265625" y="57.5">«screen»</text></g></g><g transform="translate(2,10) scale(1,1)"><g><path fill="none" stroke="none"/><text fill="#000000" stroke="none" font-family="Arial" font-size="13px" font-style="normal" font-weight="bold" text-decoration="none" x="564.016845703125" y="72.5">RequestTaxiPage</text></g></g><g transform="translate(2,10) scale(1,1)"><path fill="none" stroke="#000000" d="M 616.5 80 L 616.5 1176" stroke-miterlimit="10" stroke-dasharray="3"/></g><g transform="translate(2,10) scale(1,1)"><path fill="none" stroke="#000000" d="M 64 168 L 648 168 L 648 368 L 64 368 L 64 168" stroke-miterlimit="10"/></g><g transform="translate(2,10) scale(1,1)"><path fill="#ffffff" stroke="none" d="M 64 168 L 64 190 L 184.7744140625 190 L 195.7744140625 179 L 195.7744140625 168 L 64 168"/></g><g transform="translate(2,10) scale(1,1)"><path fill="none" stroke="#000000" d="M 64 168 L 64 190 L 184.7744140625 190 L 195.7744140625 179 L 195.7744140625 168 L 64 168 L 64 168" stroke-miterlimit="10"/></g><g transform="translate(2,10) scale(1,1)"><g><path fill="none" stroke="none"/><text fill="#000000" stroke="none" font-family="Arial" font-size="13px" font-style="normal" font-weight="normal" text-decoration="none" x="88.72998046875" y="185.5">TypeOfRequest</text></g></g><g transform="translate(2,10) scale(1,1)"><g><path fill="none" stroke="none"/><text fill="#000000" stroke="none" font-family="Arial" font-size="13px" font-style="normal" font-weight="bold" text-decoration="none" x="69" y="185.5">alt</text></g></g><g transform="translate(2,10) scale(1,1)"><g><path fill="none" stroke="none"/><text fill="#000000" stroke="none" font-family="Arial" font-size="13px" font-style="normal" font-weight="normal" text-decoration="none" x="83.5" y="218.5">[Normal]</text></g></g><g transform="translate(2,10) scale(1,1)"><path fill="none" stroke="#000000" d="M 64 273 L 648 273" stroke-miterlimit="10" stroke-dasharray="10,3"/></g><g transform="translate(2,10) scale(1,1)"><g><path fill="none" stroke="none"/><text fill="#000000" stroke="none" font-family="Arial" font-size="13px" font-style="normal" font-weight="normal" text-decoration="none" x="83.5" y="300.5">[Sharing or Reservation]</text></g></g><g transform="translate(2,10) scale(1,1)"><rect fill="#C0C0C0" stroke="none" x="703" y="47" width="109.30810546875" height="39" opacity="0.2"/></g><g transform="translate(2,10) scale(1,1)"><rect fill="#ffffff" stroke="none" x="696" y="40" width="109.30810546875" height="39"/></g><g transform="translate(2,10) scale(1,1)"><path fill="none" stroke="#000000" d="M 696 40 L 805.30810546875 40 L 805.30810546875 79 L 696 79 L 696 40 Z Z" stroke-miterlimit="10"/></g><g transform="translate(2,10) scale(1,1)"><g><path fill="none" stroke="none"/><text fill="#000000" stroke="none" font-family="Arial" font-size="13px" font-style="normal" font-weight="normal" text-decoration="none" x="721.385009765625" y="57.5">«session»</text></g></g><g transform="translate(2,10) scale(1,1)"><g><path fill="none" stroke="none"/><text fill="#000000" stroke="none" font-family="Arial" font-size="13px" font-style="normal" font-weight="bold" text-decoration="none" x="708.02001953125" y="72.5">CheckRequest</text></g></g><g transform="translate(2,10) scale(1,1)"><path fill="none" stroke="#000000" d="M 751.5 80 L 751.5 1006" stroke-miterlimit="10" stroke-dasharray="3"/></g><g transform="translate(2,10) scale(1,1)"><rect fill="#C0C0C0" stroke="none" x="823" y="47" width="72.47900390625" height="39" opacity="0.2"/></g><g transform="translate(2,10) scale(1,1)"><rect fill="#ffff91" stroke="none" x="816" y="40" width="72.47900390625" height="39"/></g><g transform="translate(2,10) scale(1,1)"><path fill="none" stroke="#000000" d="M 816 40 L 888.47900390625 40 L 888.47900390625 79 L 816 79 L 816 40 Z Z" stroke-miterlimit="10"/></g><g transform="translate(2,10) scale(1,1)"><g><path fill="none" stroke="none"/><text fill="#000000" stroke="none" font-family="Arial" font-size="13px" font-style="normal" font-weight="normal" text-decoration="none" x="825.5" y="57.5">«screen»</text></g></g><g transform="translate(2,10) scale(1,1)"><g><path fill="none" stroke="none"/><text fill="#000000" stroke="none" font-family="Arial" font-size="13px" font-style="normal" font-weight="bold" text-decoration="none" x="837.79541015625" y="72.5">Error</text></g></g><g transform="translate(2,10) scale(1,1)"><path fill="none" stroke="#000000" d="M 853.5 80 L 853.5 682" stroke-miterlimit="10" stroke-dasharray="3"/></g><g transform="translate(2,10) scale(1,1)"><path fill="none" stroke="#000000" d="M 640 448 L 1696 448 L 1696 1136 L 640 1136 L 640 448" stroke-miterlimit="10"/></g><g transform="translate(2,10) scale(1,1)"><path fill="#ffffff" stroke="none" d="M 640 448 L 640 470 L 702.96630859375 470 L 713.96630859375 459 L 713.96630859375 448 L 640 448"/></g><g transform="translate(2,10) scale(1,1)"><path fill="none" stroke="#000000" d="M 640 448 L 640 470 L 702.96630859375 470 L 713.96630859375 459 L 713.96630859375 448 L 640 448 L 640 448" stroke-miterlimit="10"/></g><g transform="translate(2,10) scale(1,1)"><g><path fill="none" stroke="none"/><text fill="#000000" stroke="none" font-family="Arial" font-size="13px" font-style="normal" font-weight="normal" text-decoration="none" x="664.72998046875" y="465.5">Reply</text></g></g><g transform="translate(2,10) scale(1,1)"><g><path fill="none" stroke="none"/><text fill="#000000" stroke="none" font-family="Arial" font-size="13px" font-style="normal" font-weight="bold" text-decoration="none" x="645" y="465.5">alt</text></g></g><g transform="translate(2,10) scale(1,1)"><g><path fill="none" stroke="none"/><text fill="#000000" stroke="none" font-family="Arial" font-size="13px" font-style="normal" font-weight="normal" text-decoration="none" x="659.5" y="498.5">[Incorrect]</text></g></g><g transform="translate(2,10) scale(1,1)"><path fill="none" stroke="#000000" d="M 640 537 L 1696 537" stroke-miterlimit="10" stroke-dasharray="10,3"/></g><g transform="translate(2,10) scale(1,1)"><g><path fill="none" stroke="none"/><text fill="#000000" stroke="none" font-family="Arial" font-size="13px" font-style="normal" font-weight="normal" text-decoration="none" x="659.5" y="564.5">[Correct]</text></g></g><g transform="translate(2,10) scale(1,1)"><rect fill="#C0C0C0" stroke="none" x="903" y="47" width="120.1181640625" height="39" opacity="0.2"/></g><g transform="translate(2,10) scale(1,1)"><rect fill="#ffff91" stroke="none" x="896" y="40" width="120.1181640625" height="39"/></g><g transform="translate(2,10) scale(1,1)"><path fill="none" stroke="#000000" d="M 896 40 L 1016.1181640625 40 L 1016.1181640625 79 L 896 79 L 896 40 Z Z" stroke-miterlimit="10"/></g><g transform="translate(2,10) scale(1,1)"><g><path fill="none" stroke="none"/><text fill="#000000" stroke="none" font-family="Arial" font-size="13px" font-style="normal" font-weight="normal" text-decoration="none" x="929.319580078125" y="57.5">«screen»</text></g></g><g transform="translate(2,10) scale(1,1)"><g><path fill="none" stroke="none"/><text fill="#000000" stroke="none" font-family="Arial" font-size="13px" font-style="normal" font-weight="bold" text-decoration="none" x="909.095947265625" y="72.5">ConfirmRequest</text></g></g><g transform="translate(2,10) scale(1,1)"><path fill="none" stroke="#000000" d="M 957.5 80 L 957.5 786" stroke-miterlimit="10" stroke-dasharray="3"/></g><g transform="translate(2,10) scale(1,1)"><rect fill="#C0C0C0" stroke="none" x="1263" y="47" width="118.6708984375" height="39" opacity="0.2"/></g><g transform="translate(2,10) scale(1,1)"><rect fill="#d1ffa3" stroke="none" x="1256" y="40" width="118.6708984375" height="39"/></g><g transform="translate(2,10) scale(1,1)"><path fill="none" stroke="#000000" d="M 1256 40 L 1374.6708984375 40 L 1374.6708984375 79 L 1256 79 L 1256 40 Z Z" stroke-miterlimit="10"/></g><g transform="translate(2,10) scale(1,1)"><g><path fill="none" stroke="none"/><text fill="#000000" stroke="none" font-family="Arial" font-size="13px" font-style="normal" font-weight="normal" text-decoration="none" x="1288.595947265625" y="57.5">«screen»</text></g></g><g transform="translate(2,10) scale(1,1)"><g><path fill="none" stroke="none"/><text fill="#000000" stroke="none" font-family="Arial" font-size="13px" font-style="normal" font-weight="bold" text-decoration="none" x="1268.727783203125" y="72.5">RequestComing</text></g></g><g transform="translate(2,10) scale(1,1)"><path fill="none" stroke="#000000" d="M 1316.5 80 L 1316.5 1152" stroke-miterlimit="10" stroke-dasharray="3"/></g><g transform="translate(2,10) scale(1,1)"><path fill="none" stroke="#000000" d="M 768 616 L 1688 616 L 1688 840 L 768 840 L 768 616" stroke-miterlimit="10"/></g><g transform="translate(2,10) scale(1,1)"><path fill="#ffffff" stroke="none" d="M 768 616 L 768 638 L 1008.76416015625 638 L 1019.76416015625 627 L 1019.76416015625 616 L 768 616"/></g><g transform="translate(2,10) scale(1,1)"><path fill="none" stroke="#000000" d="M 768 616 L 768 638 L 1008.76416015625 638 L 1019.76416015625 627 L 1019.76416015625 616 L 768 616 L 768 616" stroke-miterlimit="10"/></g><g transform="translate(2,10) scale(1,1)"><g><path fill="none" stroke="none"/><text fill="#000000" stroke="none" font-family="Arial" font-size="13px" font-style="normal" font-weight="normal" text-decoration="none" x="803.578125" y="633.5">Until repeated queue or Taxi found</text></g></g><g transform="translate(2,10) scale(1,1)"><g><path fill="none" stroke="none"/><text fill="#000000" stroke="none" font-family="Arial" font-size="13px" font-style="normal" font-weight="bold" text-decoration="none" x="773" y="633.5">loop</text></g></g><g transform="translate(2,10) scale(1,1)"><rect fill="#C0C0C0" stroke="none" x="1135" y="47" width="77.5380859375" height="39" opacity="0.2"/></g><g transform="translate(2,10) scale(1,1)"><rect fill="#ffffff" stroke="none" x="1128" y="40" width="77.5380859375" height="39"/></g><g transform="translate(2,10) scale(1,1)"><path fill="none" stroke="#000000" d="M 1128 40 L 1205.5380859375 40 L 1205.5380859375 79 L 1128 79 L 1128 40 Z Z" stroke-miterlimit="10"/></g><g transform="translate(2,10) scale(1,1)"><g><path fill="none" stroke="none"/><text fill="#000000" stroke="none" font-family="Arial" font-size="13px" font-style="normal" font-weight="normal" text-decoration="none" x="1137.5" y="57.5">«session»</text></g></g><g transform="translate(2,10) scale(1,1)"><g><path fill="none" stroke="none"/><text fill="#000000" stroke="none" font-family="Arial" font-size="13px" font-style="normal" font-weight="bold" text-decoration="none" x="1141.114990234375" y="72.5">Manager</text></g></g><g transform="translate(2,10) scale(1,1)"><path fill="none" stroke="#000000" d="M 1167.5 80 L 1167.5 1152" stroke-miterlimit="10" stroke-dasharray="3"/></g><g transform="translate(2,10) scale(1,1)"><rect fill="#C0C0C0" stroke="none" x="1599" y="47" width="32" height="39" opacity="0.2"/></g><g transform="translate(2,10) scale(1,1)"><rect fill="#ffffff" stroke="none" x="1592" y="40" width="32" height="39"/></g><g transform="translate(2,10) scale(1,1)"><path fill="none" stroke="#000000" d="M 1592 40 L 1624 40 L 1624 79 L 1592 79 L 1592 40 Z Z" stroke-miterlimit="10"/></g><g transform="translate(2,10) scale(1,1)"><g><path fill="none" stroke="none"/><text fill="#000000" stroke="none" font-family="Arial" font-size="13px" font-style="normal" font-weight="bold" text-decoration="none" x="1604.385009765625" y="59.5">a</text></g></g><g transform="translate(2,10) scale(1,1)"><path fill="none" stroke="#000000" d="M 1609.5 80 L 1609.5 1160" stroke-miterlimit="10" stroke-dasharray="3"/></g><g transform="translate(2,10) scale(1,1)"><rect fill="#91ffec" stroke="none" x="1584" y="32" width="49" height="49"/></g><g transform="translate(2,10) scale(1,1)"><path fill="none" stroke="#000000" d="M 1584 32 L 1633 32 L 1633 81 L 1584 81 L 1584 32 Z Z" stroke-miterlimit="10"/></g><g transform="translate(2,10) scale(1,1)"><g><path fill="none" stroke="none"/><text fill="#000000" stroke="none" font-family="Arial" font-size="13px" font-style="normal" font-weight="normal" text-decoration="none" x="1565" y="26">Queue Manager</text></g></g><g transform="translate(2,10) scale(1,1)"><path fill="#ffffff" stroke="none" d="M 984 312 L 1141 312 L 1151 322 L 1151 399 L 984 399 L 984 312"/></g><g transform="translate(2,10) scale(1,1)"><path fill="none" stroke="#000000" d="M 984 312 L 1141 312 L 1151 322 L 1151 399 L 984 399 L 984 312 L 984 312" stroke-miterlimit="10"/></g><g transform="translate(2,10) scale(1,1)"><path fill="none" stroke="#000000" d="M 1141 312 L 1141 322 L 1151 322 L 1141 312" stroke-miterlimit="10"/></g><g transform="translate(2,10) scale(1,1)"><g><path fill="none" stroke="none"/><text fill="#000000" stroke="none" font-family="Arial" font-size="15px" font-style="normal" font-weight="normal" text-decoration="none" x="989" y="332">If Customer request the</text><text fill="#000000" stroke="none" font-family="Arial" font-size="15px" font-style="normal" font-weight="normal" text-decoration="none" x="989" y="347">reservation taxi, the</text><text fill="#000000" stroke="none" font-family="Arial" font-size="15px" font-style="normal" font-weight="normal" text-decoration="none" x="989" y="362">systemsends a request</text><text fill="#000000" stroke="none" font-family="Arial" font-size="15px" font-style="normal" font-weight="normal" text-decoration="none" x="989" y="377">10 min before starting</text><text fill="#000000" stroke="none" font-family="Arial" font-size="15px" font-style="normal" font-weight="normal" text-decoration="none" x="989" y="392">time</text></g></g><g transform="translate(2,10) scale(1,1)"><path fill="none" stroke="#000000" d="M 1074 401 L 1106 664" stroke-miterlimit="10" stroke-dasharray="3"/></g><g transform="translate(2,10) scale(1,1)"><path fill="none" stroke="#000000" d="M 1000 856 L 1687 856 L 1687 1128 L 1000 1128 L 1000 856" stroke-miterlimit="10"/></g><g transform="translate(2,10) scale(1,1)"><path fill="#ffffff" stroke="none" d="M 1000 856 L 1000 878 L 1129.41357421875 878 L 1140.41357421875 867 L 1140.41357421875 856 L 1000 856"/></g><g transform="translate(2,10) scale(1,1)"><path fill="none" stroke="#000000" d="M 1000 856 L 1000 878 L 1129.41357421875 878 L 1140.41357421875 867 L 1140.41357421875 856 L 1000 856 L 1000 856" stroke-miterlimit="10"/></g><g transform="translate(2,10) scale(1,1)"><g><path fill="none" stroke="none"/><text fill="#000000" stroke="none" font-family="Arial" font-size="13px" font-style="normal" font-weight="normal" text-decoration="none" x="1024.72998046875" y="873.5">Taxi Driver Reply</text></g></g><g transform="translate(2,10) scale(1,1)"><g><path fill="none" stroke="none"/><text fill="#000000" stroke="none" font-family="Arial" font-size="13px" font-style="normal" font-weight="bold" text-decoration="none" x="1005" y="873.5">alt</text></g></g><g transform="translate(2,10) scale(1,1)"><g><path fill="none" stroke="none"/><text fill="#000000" stroke="none" font-family="Arial" font-size="13px" font-style="normal" font-weight="normal" text-decoration="none" x="1019.5" y="906.5">[No Taxi Driver]</text></g></g><g transform="translate(2,10) scale(1,1)"><path fill="none" stroke="#000000" d="M 1000 929 L 1687 929" stroke-miterlimit="10" stroke-dasharray="10,3"/></g><g transform="translate(2,10) scale(1,1)"><g><path fill="none" stroke="none"/><text fill="#000000" stroke="none" font-family="Arial" font-size="13px" font-style="normal" font-weight="normal" text-decoration="none" x="1019.5" y="956.5">[Taxi Driver coming]</text></g></g><g transform="translate(2,10) scale(1,1)"><rect fill="#C0C0C0" stroke="none" x="1719" y="1099" width="71.736328125" height="39" opacity="0.2"/></g><g transform="translate(2,10) scale(1,1)"><rect fill="#91ffec" stroke="none" x="1712" y="1092" width="71.736328125" height="39"/></g><g transform="translate(2,10) scale(1,1)"><path fill="none" stroke="#000000" d="M 1712 1092 L 1783.736328125 1092 L 1783.736328125 1131 L 1712 1131 L 1712 1092 Z Z" stroke-miterlimit="10"/></g><g transform="translate(2,10) scale(1,1)"><g><path fill="none" stroke="none"/><text fill="#000000" stroke="none" font-family="Arial" font-size="13px" font-style="normal" font-weight="bold" text-decoration="none" x="1734.5" y="1111.5">Ride</text></g></g><g transform="translate(2,10) scale(1,1)"><path fill="none" stroke="#000000" d="M 1748.5 1132 L 1748.5 1181" stroke-miterlimit="10" stroke-dasharray="3"/></g><g transform="translate(2,10) scale(1,1)"><path fill="none" stroke="#000000" d="M 82 120 L 478 120" stroke-miterlimit="10"/></g><g transform="translate(2,10) scale(1,1)"><path fill="#000000" stroke="none" d="M 467.83732514237585 124.20951775601598 L 478 120 L 467.83732514237585 115.79048224398402"/></g><g transform="translate(2,10) scale(1,1)"><path fill="none" stroke="#000000" d="M 467.83732514237585 124.20951775601598 L 478 120 L 467.83732514237585 115.79048224398402 L 467.83732514237585 124.20951775601598" stroke-miterlimit="10"/></g><g transform="translate(2,10) scale(1,1)"><g><path fill="none" stroke="none"/><text fill="#000000" stroke="none" font-family="Arial" font-size="13px" font-style="normal" font-weight="normal" text-decoration="none" x="96" y="139">1 : after login procedure</text></g></g><g transform="translate(2,10) scale(1,1)"><rect fill="#ffffff" stroke="none" x="478" y="120" width="13" height="28"/></g><g transform="translate(2,10) scale(1,1)"><path fill="none" stroke="#000000" d="M 478 120 L 491 120 L 491 148 L 478 148 L 478 120 Z Z" stroke-miterlimit="10"/></g><g transform="translate(2,10) scale(1,1)"><path fill="none" stroke="#000000" d="M 491 144 L 609 144" stroke-miterlimit="10"/></g><g transform="translate(2,10) scale(1,1)"><path fill="#000000" stroke="none" d="M 598.8373251423759 148.209517756016 L 609 144 L 598.8373251423758 139.790482243984"/></g><g transform="translate(2,10) scale(1,1)"><path fill="none" stroke="#000000" d="M 598.8373251423759 148.209517756016 L 609 144 L 598.8373251423758 139.790482243984 L 598.8373251423759 148.209517756016" stroke-miterlimit="10"/></g><g transform="translate(2,10) scale(1,1)"><g><path fill="none" stroke="none"/><text fill="#000000" stroke="none" font-family="Arial" font-size="13px" font-style="normal" font-weight="normal" text-decoration="none" x="505" y="133">2 : RequestTaxi</text></g></g><g transform="translate(2,10) scale(1,1)"><rect fill="#ffffff" stroke="none" x="609" y="144" width="13" height="240"/></g><g transform="translate(2,10) scale(1,1)"><path fill="none" stroke="#000000" d="M 609 144 L 622 144 L 622 384 L 609 384 L 609 144 Z Z" stroke-miterlimit="10"/></g><g transform="translate(2,10) scale(1,1)"><path fill="none" stroke="#000000" d="M 82 232 L 616 232" stroke-miterlimit="10"/></g><g transform="translate(2,10) scale(1,1)"><path fill="#000000" stroke="none" d="M 605.8373251423759 236.209517756016 L 616 232 L 605.8373251423758 227.790482243984"/></g><g transform="translate(2,10) scale(1,1)"><path fill="none" stroke="#000000" d="M 605.8373251423759 236.209517756016 L 616 232 L 605.8373251423758 227.790482243984 L 605.8373251423759 236.209517756016" stroke-miterlimit="10"/></g><g transform="translate(2,10) scale(1,1)"><g><path fill="none" stroke="none"/><text fill="#000000" stroke="none" font-family="Arial" font-size="13px" font-style="normal" font-weight="normal" text-decoration="none" x="95" y="253">3 : SendRequest(numberOfPassenger,Position, Date)</text></g></g><g transform="translate(2,10) scale(1,1)"><rect fill="#ffffff" stroke="none" x="616" y="232" width="13" height="28"/></g><g transform="translate(2,10) scale(1,1)"><path fill="none" stroke="#000000" d="M 616 232 L 629 232 L 629 260 L 616 260 L 616 232 Z Z" stroke-miterlimit="10"/></g><g transform="translate(2,10) scale(1,1)"><path fill="none" stroke="#000000" d="M 82 320 L 616 320" stroke-miterlimit="10"/></g><g transform="translate(2,10) scale(1,1)"><path fill="#000000" stroke="none" d="M 605.8373251423759 324.209517756016 L 616 320 L 605.8373251423758 315.790482243984"/></g><g transform="translate(2,10) scale(1,1)"><path fill="none" stroke="#000000" d="M 605.8373251423759 324.209517756016 L 616 320 L 605.8373251423758 315.790482243984 L 605.8373251423759 324.209517756016" stroke-miterlimit="10"/></g><g transform="translate(2,10) scale(1,1)"><g><path fill="none" stroke="none"/><text fill="#000000" stroke="none" font-family="Arial" font-size="13px" font-style="normal" font-weight="normal" text-decoration="none" x="96" y="341">4 : SendRequest(numberOfPassenger,Position.Date,Destination)</text></g></g><g transform="translate(2,10) scale(1,1)"><rect fill="#ffffff" stroke="none" x="616" y="320" width="13" height="28"/></g><g transform="translate(2,10) scale(1,1)"><path fill="none" stroke="#000000" d="M 616 320 L 629 320 L 629 348 L 616 348 L 616 320 Z Z" stroke-miterlimit="10"/></g><g transform="translate(2,10) scale(1,1)"><path fill="none" stroke="#000000" d="M 616 384 L 744 384" stroke-miterlimit="10"/></g><g transform="translate(2,10) scale(1,1)"><path fill="#000000" stroke="none" d="M 733.8373251423759 388.209517756016 L 744 384 L 733.8373251423758 379.790482243984"/></g><g transform="translate(2,10) scale(1,1)"><path fill="none" stroke="#000000" d="M 733.8373251423759 388.209517756016 L 744 384 L 733.8373251423758 379.790482243984 L 733.8373251423759 388.209517756016" stroke-miterlimit="10"/></g><g transform="translate(2,10) scale(1,1)"><g><path fill="none" stroke="none"/><text fill="#000000" stroke="none" font-family="Arial" font-size="13px" font-style="normal" font-weight="normal" text-decoration="none" x="643" y="381">5 : SendData</text></g></g><g transform="translate(2,10) scale(1,1)"><rect fill="#ffffff" stroke="none" x="744" y="384" width="13" height="280"/></g><g transform="translate(2,10) scale(1,1)"><path fill="none" stroke="#000000" d="M 744 384 L 757 384 L 757 664 L 744 664 L 744 384 Z Z" stroke-miterlimit="10"/></g><g transform="translate(2,10) scale(1,1)"><path fill="none" stroke="#000000" d="M 757 400 L 787 400 L 787 420 L 764 420" stroke-miterlimit="10"/></g><g transform="translate(2,10) scale(1,1)"><path fill="#000000" stroke="none" d="M 774.1626748576241 415.790482243984 L 764 420 L 774.1626748576241 424.209517756016"/></g><g transform="translate(2,10) scale(1,1)"><path fill="none" stroke="#000000" d="M 774.1626748576241 415.790482243984 L 764 420 L 774.1626748576241 424.209517756016 L 774.1626748576241 415.790482243984" stroke-miterlimit="10"/></g><g transform="translate(2,10) scale(1,1)"><g><path fill="none" stroke="none"/><text fill="#000000" stroke="none" font-family="Arial" font-size="13px" font-style="normal" font-weight="normal" text-decoration="none" x="656" y="415">6 : checkData</text></g></g><g transform="translate(2,10) scale(1,1)"><rect fill="#ffffff" stroke="none" x="751" y="420" width="13" height="28"/></g><g transform="translate(2,10) scale(1,1)"><path fill="none" stroke="#000000" d="M 751 420 L 764 420 L 764 448 L 751 448 L 751 420 Z Z" stroke-miterlimit="10"/></g><g transform="translate(2,10) scale(1,1)"><path fill="none" stroke="#000000" d="M 757 504 L 846 504" stroke-miterlimit="10"/></g><g transform="translate(2,10) scale(1,1)"><path fill="#000000" stroke="none" d="M 835.8373251423759 508.209517756016 L 846 504 L 835.8373251423758 499.790482243984"/></g><g transform="translate(2,10) scale(1,1)"><path fill="none" stroke="#000000" d="M 835.8373251423759 508.209517756016 L 846 504 L 835.8373251423758 499.790482243984 L 835.8373251423759 508.209517756016" stroke-miterlimit="10"/></g><g transform="translate(2,10) scale(1,1)"><g><path fill="none" stroke="none"/><text fill="#000000" stroke="none" font-family="Arial" font-size="13px" font-style="normal" font-weight="normal" text-decoration="none" x="779" y="493">7 : error</text></g></g><g transform="translate(2,10) scale(1,1)"><rect fill="#ffffff" stroke="none" x="846" y="504" width="13" height="28"/></g><g transform="translate(2,10) scale(1,1)"><path fill="none" stroke="#000000" d="M 846 504 L 859 504 L 859 532 L 846 532 L 846 504 Z Z" stroke-miterlimit="10"/></g><g transform="translate(2,10) scale(1,1)"><path fill="none" stroke="#000000" d="M 757 576 L 950 576" stroke-miterlimit="10"/></g><g transform="translate(2,10) scale(1,1)"><path fill="#000000" stroke="none" d="M 939.8373251423759 580.209517756016 L 950 576 L 939.8373251423758 571.790482243984"/></g><g transform="translate(2,10) scale(1,1)"><path fill="none" stroke="#000000" d="M 939.8373251423759 580.209517756016 L 950 576 L 939.8373251423758 571.790482243984 L 939.8373251423759 580.209517756016" stroke-miterlimit="10"/></g><g transform="translate(2,10) scale(1,1)"><g><path fill="none" stroke="none"/><text fill="#000000" stroke="none" font-family="Arial" font-size="13px" font-style="normal" font-weight="normal" text-decoration="none" x="775" y="564">8 : confirm</text></g></g><g transform="translate(2,10) scale(1,1)"><rect fill="#ffffff" stroke="none" x="950" y="576" width="13" height="28"/></g><g transform="translate(2,10) scale(1,1)"><path fill="none" stroke="#000000" d="M 950 576 L 963 576 L 963 604 L 950 604 L 950 576 Z Z" stroke-miterlimit="10"/></g><g transform="translate(2,10) scale(1,1)"><path fill="none" stroke="#000000" d="M 751 664 L 1462 664" stroke-miterlimit="10"/></g><g transform="translate(2,10) scale(1,1)"><path fill="#000000" stroke="none" d="M 1451.837325142376 668.209517756016 L 1462 664 L 1451.837325142376 659.790482243984"/></g><g transform="translate(2,10) scale(1,1)"><path fill="none" stroke="#000000" d="M 1451.837325142376 668.209517756016 L 1462 664 L 1451.837325142376 659.790482243984 L 1451.837325142376 668.209517756016" stroke-miterlimit="10"/></g><g transform="translate(2,10) scale(1,1)"><g><path fill="none" stroke="none"/><text fill="#000000" stroke="none" font-family="Arial" font-size="13px" font-style="normal" font-weight="normal" text-decoration="none" x="968" y="685">9 : SendRequestNotification</text></g></g><g transform="translate(2,10) scale(1,1)"><rect fill="#ffffff" stroke="none" x="1462" y="664" width="13" height="40"/></g><g transform="translate(2,10) scale(1,1)"><path fill="none" stroke="#000000" d="M 1462 664 L 1475 664 L 1475 704 L 1462 704 L 1462 664 Z Z" stroke-miterlimit="10"/></g><g transform="translate(2,10) scale(1,1)"><path fill="none" stroke="#000000" d="M 1462 696 L 1322 696" stroke-miterlimit="10"/></g><g transform="translate(2,10) scale(1,1)"><path fill="#000000" stroke="none" d="M 1332.162674857624 691.790482243984 L 1322 696 L 1332.162674857624 700.209517756016"/></g><g transform="translate(2,10) scale(1,1)"><path fill="none" stroke="#000000" d="M 1332.162674857624 691.790482243984 L 1322 696 L 1332.162674857624 700.209517756016 L 1332.162674857624 691.790482243984" stroke-miterlimit="10"/></g><g transform="translate(2,10) scale(1,1)"><g><path fill="none" stroke="none"/><text fill="#000000" stroke="none" font-family="Arial" font-size="13px" font-style="normal" font-weight="normal" text-decoration="none" x="1332" y="717">10 : click notification</text></g></g><g transform="translate(2,10) scale(1,1)"><rect fill="#ffffff" stroke="none" x="1309" y="696" width="13" height="280"/></g><g transform="translate(2,10) scale(1,1)"><path fill="none" stroke="#000000" d="M 1309 696 L 1322 696 L 1322 976 L 1309 976 L 1309 696 Z Z" stroke-miterlimit="10"/></g><g transform="translate(2,10) scale(1,1)"><path fill="none" stroke="#000000" d="M 1309 728 L 1173 728" stroke-miterlimit="10"/></g><g transform="translate(2,10) scale(1,1)"><path fill="#000000" stroke="none" d="M 1183.162674857624 723.790482243984 L 1173 728 L 1183.162674857624 732.209517756016"/></g><g transform="translate(2,10) scale(1,1)"><path fill="none" stroke="#000000" d="M 1183.162674857624 723.790482243984 L 1173 728 L 1183.162674857624 732.209517756016 L 1183.162674857624 723.790482243984" stroke-miterlimit="10"/></g><g transform="translate(2,10) scale(1,1)"><g><path fill="none" stroke="none"/><text fill="#000000" stroke="none" font-family="Arial" font-size="13px" font-style="normal" font-weight="normal" text-decoration="none" x="1183" y="716">11 : RejectRequest</text></g></g><g transform="translate(2,10) scale(1,1)"><rect fill="#ffffff" stroke="none" x="1160" y="728" width="13" height="72"/></g><g transform="translate(2,10) scale(1,1)"><path fill="none" stroke="#000000" d="M 1160 728 L 1173 728 L 1173 800 L 1160 800 L 1160 728 Z Z" stroke-miterlimit="10"/></g><g transform="translate(2,10) scale(1,1)"><path fill="none" stroke="#000000" d="M 1173 744 L 1203 744 L 1203 764 L 1180 764" stroke-miterlimit="10"/></g><g transform="translate(2,10) scale(1,1)"><path fill="#000000" stroke="none" d="M 1190.162674857624 759.790482243984 L 1180 764 L 1190.162674857624 768.209517756016"/></g><g transform="translate(2,10) scale(1,1)"><path fill="none" stroke="#000000" d="M 1190.162674857624 759.790482243984 L 1180 764 L 1190.162674857624 768.209517756016 L 1190.162674857624 759.790482243984" stroke-miterlimit="10"/></g><g transform="translate(2,10) scale(1,1)"><g><path fill="none" stroke="none"/><text fill="#000000" stroke="none" font-family="Arial" font-size="13px" font-style="normal" font-weight="normal" text-decoration="none" x="1015" y="759">12 : FindCorrectQueue</text></g></g><g transform="translate(2,10) scale(1,1)"><rect fill="#ffffff" stroke="none" x="1167" y="764" width="13" height="28"/></g><g transform="translate(2,10) scale(1,1)"><path fill="none" stroke="#000000" d="M 1167 764 L 1180 764 L 1180 792 L 1167 792 L 1167 764 Z Z" stroke-miterlimit="10"/></g><g transform="translate(2,10) scale(1,1)"><path fill="none" stroke="#000000" d="M 1167 800 L 1602 800" stroke-miterlimit="10"/></g><g transform="translate(2,10) scale(1,1)"><path fill="#000000" stroke="none" d="M 1591.837325142376 804.209517756016 L 1602 800 L 1591.837325142376 795.790482243984"/></g><g transform="translate(2,10) scale(1,1)"><path fill="none" stroke="#000000" d="M 1591.837325142376 804.209517756016 L 1602 800 L 1591.837325142376 795.790482243984 L 1591.837325142376 804.209517756016" stroke-miterlimit="10"/></g><g transform="translate(2,10) scale(1,1)"><g><path fill="none" stroke="none"/><text fill="#000000" stroke="none" font-family="Arial" font-size="13px" font-style="normal" font-weight="normal" text-decoration="none" x="1335" y="828">13 : deQueue(TaxiDriver,zone)</text></g></g><g transform="translate(2,10) scale(1,1)"><rect fill="#ffffff" stroke="none" x="1602" y="800" width="13" height="28"/></g><g transform="translate(2,10) scale(1,1)"><path fill="none" stroke="#000000" d="M 1602 800 L 1615 800 L 1615 828 L 1602 828 L 1602 800 Z Z" stroke-miterlimit="10"/></g><g transform="translate(2,10) scale(1,1)"><path fill="none" stroke="#000000" d="M 1167 912 L 88 912" stroke-miterlimit="10"/></g><g transform="translate(2,10) scale(1,1)"><path fill="#000000" stroke="none" d="M 98.16267485762415 907.790482243984 L 88 912 L 98.16267485762415 916.209517756016"/></g><g transform="translate(2,10) scale(1,1)"><path fill="none" stroke="#000000" d="M 98.16267485762415 907.790482243984 L 88 912 L 98.16267485762415 916.209517756016 L 98.16267485762415 907.790482243984" stroke-miterlimit="10"/></g><g transform="translate(2,10) scale(1,1)"><g><path fill="none" stroke="none"/><text fill="#000000" stroke="none" font-family="Arial" font-size="13px" font-style="normal" font-weight="normal" text-decoration="none" x="768" y="940">14 : NoTaxiAvailableNotification</text></g></g><g transform="translate(2,10) scale(1,1)"><rect fill="#ffffff" stroke="none" x="75" y="912" width="13" height="28"/></g><g transform="translate(2,10) scale(1,1)"><path fill="none" stroke="#000000" d="M 75 912 L 88 912 L 88 940 L 75 940 L 75 912 Z Z" stroke-miterlimit="10"/></g><g transform="translate(2,10) scale(1,1)"><path fill="none" stroke="#000000" d="M 1316 976 L 1173 976" stroke-miterlimit="10"/></g><g transform="translate(2,10) scale(1,1)"><path fill="#000000" stroke="none" d="M 1183.162674857624 971.790482243984 L 1173 976 L 1183.162674857624 980.209517756016"/></g><g transform="translate(2,10) scale(1,1)"><path fill="none" stroke="#000000" d="M 1183.162674857624 971.790482243984 L 1173 976 L 1183.162674857624 980.209517756016 L 1183.162674857624 971.790482243984" stroke-miterlimit="10"/></g><g transform="translate(2,10) scale(1,1)"><g><path fill="none" stroke="none"/><text fill="#000000" stroke="none" font-family="Arial" font-size="13px" font-style="normal" font-weight="normal" text-decoration="none" x="1184" y="964">15 : ConfirmRequest</text></g></g><g transform="translate(2,10) scale(1,1)"><rect fill="#ffffff" stroke="none" x="1160" y="976" width="13" height="80"/></g><g transform="translate(2,10) scale(1,1)"><path fill="none" stroke="#000000" d="M 1160 976 L 1173 976 L 1173 1056 L 1160 1056 L 1160 976 Z Z" stroke-miterlimit="10"/></g><g transform="translate(2,10) scale(1,1)"><path fill="none" stroke="#000000" d="M 1173 1000 L 1203 1000 L 1203 1020 L 1180 1020" stroke-miterlimit="10"/></g><g transform="translate(2,10) scale(1,1)"><path fill="#000000" stroke="none" d="M 1190.162674857624 1015.790482243984 L 1180 1020 L 1190.162674857624 1024.2095177560159"/></g><g transform="translate(2,10) scale(1,1)"><path fill="none" stroke="#000000" d="M 1190.162674857624 1015.790482243984 L 1180 1020 L 1190.162674857624 1024.2095177560159 L 1190.162674857624 1015.790482243984" stroke-miterlimit="10"/></g><g transform="translate(2,10) scale(1,1)"><g><path fill="none" stroke="none"/><text fill="#000000" stroke="none" font-family="Arial" font-size="13px" font-style="normal" font-weight="normal" text-decoration="none" x="1015" y="1015">16 : FindCorrectQueue</text></g></g><g transform="translate(2,10) scale(1,1)"><rect fill="#ffffff" stroke="none" x="1167" y="1020" width="13" height="28"/></g><g transform="translate(2,10) scale(1,1)"><path fill="none" stroke="#000000" d="M 1167 1020 L 1180 1020 L 1180 1048 L 1167 1048 L 1167 1020 Z Z" stroke-miterlimit="10"/></g><g transform="translate(2,10) scale(1,1)"><path fill="none" stroke="#000000" d="M 1167 1056 L 88 1056" stroke-miterlimit="10"/></g><g transform="translate(2,10) scale(1,1)"><path fill="#000000" stroke="none" d="M 98.16267485762415 1051.7904822439841 L 88 1056 L 98.16267485762415 1060.2095177560159"/></g><g transform="translate(2,10) scale(1,1)"><path fill="none" stroke="#000000" d="M 98.16267485762415 1051.7904822439841 L 88 1056 L 98.16267485762415 1060.2095177560159 L 98.16267485762415 1051.7904822439841" stroke-miterlimit="10"/></g><g transform="translate(2,10) scale(1,1)"><g><path fill="none" stroke="none"/><text fill="#000000" stroke="none" font-family="Arial" font-size="13px" font-style="normal" font-weight="normal" text-decoration="none" x="654" y="1084">17 : TaxiComingNotification</text></g></g><g transform="translate(2,10) scale(1,1)"><rect fill="#ffffff" stroke="none" x="75" y="1056" width="13" height="28"/></g><g transform="translate(2,10) scale(1,1)"><path fill="none" stroke="#000000" d="M 75 1056 L 88 1056 L 88 1084 L 75 1084 L 75 1056 Z Z" stroke-miterlimit="10"/></g><g transform="translate(2,10) scale(1,1)"><path fill="none" stroke="#000000" d="M 1167 1056 L 1602 1056" stroke-miterlimit="10"/></g><g transform="translate(2,10) scale(1,1)"><path fill="#000000" stroke="none" d="M 1591.837325142376 1060.2095177560159 L 1602 1056 L 1591.837325142376 1051.7904822439841"/></g><g transform="translate(2,10) scale(1,1)"><path fill="none" stroke="#000000" d="M 1591.837325142376 1060.2095177560159 L 1602 1056 L 1591.837325142376 1051.7904822439841 L 1591.837325142376 1060.2095177560159" stroke-miterlimit="10"/></g><g transform="translate(2,10) scale(1,1)"><g><path fill="none" stroke="none"/><text fill="#000000" stroke="none" font-family="Arial" font-size="13px" font-style="normal" font-weight="normal" text-decoration="none" x="1342" y="1037">18 : deQueue(TaxiDriver,zone)</text></g></g><g transform="translate(2,10) scale(1,1)"><rect fill="#ffffff" stroke="none" x="1602" y="1056" width="13" height="43"/></g><g transform="translate(2,10) scale(1,1)"><path fill="none" stroke="#000000" d="M 1602 1056 L 1615 1056 L 1615 1099 L 1602 1099 L 1602 1056 Z Z" stroke-miterlimit="10"/></g><g transform="translate(2,10) scale(1,1)"><path fill="none" stroke="#000000" d="M 1167 1112 L 1712 1112" stroke-miterlimit="10" stroke-dasharray="3"/></g><g transform="translate(2,10) scale(1,1)"><path fill="none" stroke="#000000" d="M 1701.837325142376 1116.2095177560159 L 1712 1112 L 1701.837325142376 1107.7904822439841" stroke-miterlimit="10"/></g><g transform="translate(2,10) scale(1,1)"><g><path fill="none" stroke="none"/><text fill="#000000" stroke="none" font-family="Arial" font-size="13px" font-style="normal" font-weight="normal" text-decoration="none" x="1376" y="1100">19 : newRide</text></g></g><g transform="translate(2,10) scale(1,1)"><g><path fill="none" stroke="none"/><text fill="#000000" stroke="none" font-family="Arial" font-size="13px" font-style="normal" font-weight="normal" text-decoration="none" x="1382" y="1084">«create»</text></g></g></g></svg>