<svg version="1.1" xmlns="http://www.w3.org/2000/svg" xmlns:xlink="http://www.w3.org/1999/xlink" width="447" height="1084"><defs/><g><g transform="translate(5,10) scale(1,1)"><path fill="none" stroke="#000000" d="M 5 0 L 432 0 L 432 1064 L 5 1064 L 5 0" stroke-miterlimit="10"/></g><g transform="translate(5,10) scale(1,1)"><path fill="#ffffff" stroke="none" d="M 5 0 L 5 22 L 166.2470703125 22 L 177.2470703125 11 L 177.2470703125 0 L 5 0"/></g><g transform="translate(5,10) scale(1,1)"><path fill="none" stroke="#000000" d="M 5 0 L 5 22 L 166.2470703125 22 L 177.2470703125 11 L 177.2470703125 0 L 5 0 L 5 0" stroke-miterlimit="10"/></g><g transform="translate(5,10) scale(1,1)"><g><path fill="none" stroke="none"/><text fill="#000000" stroke="none" font-family="Arial" font-size="13px" font-style="normal" font-weight="normal" text-decoration="none" x="75.97900390625" y="17.5">Reply Request</text></g></g><g transform="translate(5,10) scale(1,1)"><g><path fill="none" stroke="none"/><text fill="#000000" stroke="none" font-family="Arial" font-size="13px" font-style="normal" font-weight="bold" text-decoration="none" x="10" y="17.5">interaction</text></g></g><g transform="translate(5,10) scale(1,1)"><rect fill="#C0C0C0" stroke="none" x="295" y="47" width="71.736328125" height="39" opacity="0.2"/></g><g transform="translate(5,10) scale(1,1)"><rect fill="#ffffff" stroke="none" x="288" y="40" width="71.736328125" height="39"/></g><g transform="translate(5,10) scale(1,1)"><path fill="none" stroke="#000000" d="M 288 40 L 359.736328125 40 L 359.736328125 79 L 288 79 L 288 40 Z Z" stroke-miterlimit="10"/></g><g transform="translate(5,10) scale(1,1)"><g><path fill="none" stroke="none"/><text fill="#000000" stroke="none" font-family="Arial" font-size="13px" font-style="normal" font-weight="bold" text-decoration="none" x="302.197265625" y="59.5">System</text></g></g><g transform="translate(5,10) scale(1,1)"><path fill="none" stroke="#000000" d="M 324.5 80 L 324.5 1056" stroke-miterlimit="10" stroke-dasharray="3"/></g><g transform="translate(5,10) scale(1,1)"><rect fill="#C0C0C0" stroke="none" x="87" y="47" width="86.20263671875" height="39" opacity="0.2"/></g><g transform="translate(5,10) scale(1,1)"><rect fill="#ffffff" stroke="none" x="80" y="40" width="86.20263671875" height="39"/></g><g transform="translate(5,10) scale(1,1)"><path fill="none" stroke="#000000" d="M 80 40 L 166.20263671875 40 L 166.20263671875 79 L 80 79 L 80 40 Z Z" stroke-miterlimit="10"/></g><g transform="translate(5,10) scale(1,1)"><g><path fill="none" stroke="none"/><text fill="#000000" stroke="none" font-family="Arial" font-size="13px" font-style="normal" font-weight="bold" text-decoration="none" x="91.68359375" y="59.5">Taxi Driver</text></g></g><g transform="translate(5,10) scale(1,1)"><path fill="none" stroke="#000000" d="M 124.5 80 L 124.5 1056" stroke-miterlimit="10" stroke-dasharray="3"/></g><g transform="translate(5,10) scale(1,1)"><path fill="none" stroke="#000000" d="M 56 168 L 407 168 L 407 1048 L 56 1048 L 56 168" stroke-miterlimit="10"/></g><g transform="translate(5,10) scale(1,1)"><path fill="#ffffff" stroke="none" d="M 56 168 L 56 190 L 118.96630859375 190 L 129.96630859375 179 L 129.96630859375 168 L 56 168"/></g><g transform="translate(5,10) scale(1,1)"><path fill="none" stroke="#000000" d="M 56 168 L 56 190 L 118.96630859375 190 L 129.96630859375 179 L 129.96630859375 168 L 56 168 L 56 168" stroke-miterlimit="10"/></g><g transform="translate(5,10) scale(1,1)"><g><path fill="none" stroke="none"/><text fill="#000000" stroke="none" font-family="Arial" font-size="13px" font-style="normal" font-weight="normal" text-decoration="none" x="80.72998046875" y="185.5">Reply</text></g></g><g transform="translate(5,10) scale(1,1)"><g><path fill="none" stroke="none"/><text fill="#000000" stroke="none" font-family="Arial" font-size="13px" font-style="normal" font-weight="bold" text-decoration="none" x="61" y="185.5">alt</text></g></g><g transform="translate(5,10) scale(1,1)"><path fill="none" stroke="#000000" d="M 56 825 L 407 825" stroke-miterlimit="10" stroke-dasharray="10,3"/></g><g transform="translate(5,10) scale(1,1)"><path fill="none" stroke="#000000" d="M 72 328 L 383 328 L 383 784 L 72 784 L 72 328" stroke-miterlimit="10"/></g><g transform="translate(5,10) scale(1,1)"><path fill="#ffffff" stroke="none" d="M 72 328 L 72 350 L 168.22802734375 350 L 179.22802734375 339 L 179.22802734375 328 L 72 328"/></g><g transform="translate(5,10) scale(1,1)"><path fill="none" stroke="#000000" d="M 72 328 L 72 350 L 168.22802734375 350 L 179.22802734375 339 L 179.22802734375 328 L 72 328 L 72 328" stroke-miterlimit="10"/></g><g transform="translate(5,10) scale(1,1)"><g><path fill="none" stroke="none"/><text fill="#000000" stroke="none" font-family="Arial" font-size="13px" font-style="normal" font-weight="normal" text-decoration="none" x="96.72998046875" y="345.5">Run ending</text></g></g><g transform="translate(5,10) scale(1,1)"><g><path fill="none" stroke="none"/><text fill="#000000" stroke="none" font-family="Arial" font-size="13px" font-style="normal" font-weight="bold" text-decoration="none" x="77" y="345.5">alt</text></g></g><g transform="translate(5,10) scale(1,1)"><path fill="none" stroke="#000000" d="M 72 481 L 383 481" stroke-miterlimit="10" stroke-dasharray="10,3"/></g><g transform="translate(5,10) scale(1,1)"><path fill="none" stroke="#000000" d="M 96 488 L 360 488 L 360 688 L 96 688 L 96 488" stroke-miterlimit="10"/></g><g transform="translate(5,10) scale(1,1)"><path fill="#ffffff" stroke="none" d="M 96 488 L 96 510 L 204.498046875 510 L 215.498046875 499 L 215.498046875 488 L 96 488"/></g><g transform="translate(5,10) scale(1,1)"><path fill="none" stroke="#000000" d="M 96 488 L 96 510 L 204.498046875 510 L 215.498046875 499 L 215.498046875 488 L 96 488 L 96 488" stroke-miterlimit="10"/></g><g transform="translate(5,10) scale(1,1)"><g><path fill="none" stroke="none"/><text fill="#000000" stroke="none" font-family="Arial" font-size="13px" font-style="normal" font-weight="normal" text-decoration="none" x="125.07177734375" y="505.5">Run problem</text></g></g><g transform="translate(5,10) scale(1,1)"><g><path fill="none" stroke="none"/><text fill="#000000" stroke="none" font-family="Arial" font-size="13px" font-style="normal" font-weight="bold" text-decoration="none" x="101" y="505.5">opt</text></g></g><g transform="translate(5,10) scale(1,1)"><path fill="none" stroke="#000000" d="M 96 569 L 360 569" stroke-miterlimit="10" stroke-dasharray="10,3"/></g><g transform="translate(5,10) scale(1,1)"><path fill="none" stroke="#000000" d="M 124 107 L 317 107" stroke-miterlimit="10"/></g><g transform="translate(5,10) scale(1,1)"><path fill="none" stroke="#000000" d="M 306.83732514237585 111.20951775601598 L 317 107 L 306.83732514237585 102.79048224398402" stroke-miterlimit="10"/></g><g transform="translate(5,10) scale(1,1)"><g><path fill="none" stroke="none"/><text fill="#000000" stroke="none" font-family="Arial" font-size="13px" font-style="normal" font-weight="normal" text-decoration="none" x="161" y="104">1 : AskRequestPage</text></g></g><g transform="translate(5,10) scale(1,1)"><rect fill="#ffffff" stroke="none" x="317" y="107" width="13" height="37"/></g><g transform="translate(5,10) scale(1,1)"><path fill="none" stroke="#000000" d="M 317 107 L 330 107 L 330 144 L 317 144 L 317 107 Z Z" stroke-miterlimit="10"/></g><g transform="translate(5,10) scale(1,1)"><path fill="none" stroke="#000000" d="M 324 144 L 124 144" stroke-miterlimit="10" stroke-dasharray="3"/></g><g transform="translate(5,10) scale(1,1)"><path fill="none" stroke="#000000" d="M 134.16267485762415 139.790482243984 L 124 144 L 134.16267485762415 148.209517756016" stroke-miterlimit="10"/></g><g transform="translate(5,10) scale(1,1)"><g><path fill="none" stroke="none"/><text fill="#000000" stroke="none" font-family="Arial" font-size="13px" font-style="normal" font-weight="normal" text-decoration="none" x="214" y="161">2 : </text></g></g><g transform="translate(5,10) scale(1,1)"><path fill="none" stroke="#000000" d="M 124 198 L 317 198" stroke-miterlimit="10"/></g><g transform="translate(5,10) scale(1,1)"><path fill="#000000" stroke="none" d="M 306.83732514237585 202.209517756016 L 317 198 L 306.83732514237585 193.790482243984"/></g><g transform="translate(5,10) scale(1,1)"><path fill="none" stroke="#000000" d="M 306.83732514237585 202.209517756016 L 317 198 L 306.83732514237585 193.790482243984 L 306.83732514237585 202.209517756016" stroke-miterlimit="10"/></g><g transform="translate(5,10) scale(1,1)"><g><path fill="none" stroke="none"/><text fill="#000000" stroke="none" font-family="Arial" font-size="13px" font-style="normal" font-weight="normal" text-decoration="none" x="158" y="195">3 : ConfirmAvailability</text></g></g><g transform="translate(5,10) scale(1,1)"><rect fill="#ffffff" stroke="none" x="317" y="198" width="13" height="98"/></g><g transform="translate(5,10) scale(1,1)"><path fill="none" stroke="#000000" d="M 317 198 L 330 198 L 330 296 L 317 296 L 317 198 Z Z" stroke-miterlimit="10"/></g><g transform="translate(5,10) scale(1,1)"><path fill="none" stroke="#000000" d="M 330 232 L 360 232 L 360 252 L 337 252" stroke-miterlimit="10"/></g><g transform="translate(5,10) scale(1,1)"><path fill="#000000" stroke="none" d="M 347.16267485762415 247.790482243984 L 337 252 L 347.16267485762415 256.209517756016"/></g><g transform="translate(5,10) scale(1,1)"><path fill="none" stroke="#000000" d="M 347.16267485762415 247.790482243984 L 337 252 L 347.16267485762415 256.209517756016 L 347.16267485762415 247.790482243984" stroke-miterlimit="10"/></g><g transform="translate(5,10) scale(1,1)"><g><path fill="none" stroke="none"/><text fill="#000000" stroke="none" font-family="Arial" font-size="13px" font-style="normal" font-weight="normal" text-decoration="none" x="199" y="245">4 : Update Queue</text></g></g><g transform="translate(5,10) scale(1,1)"><rect fill="#ffffff" stroke="none" x="324" y="252" width="13" height="28"/></g><g transform="translate(5,10) scale(1,1)"><path fill="none" stroke="#000000" d="M 324 252 L 337 252 L 337 280 L 324 280 L 324 252 Z Z" stroke-miterlimit="10"/></g><g transform="translate(5,10) scale(1,1)"><path fill="none" stroke="#000000" d="M 324 296 L 130 296" stroke-miterlimit="10"/></g><g transform="translate(5,10) scale(1,1)"><path fill="#000000" stroke="none" d="M 140.16267485762415 291.790482243984 L 130 296 L 140.16267485762415 300.209517756016"/></g><g transform="translate(5,10) scale(1,1)"><path fill="none" stroke="#000000" d="M 140.16267485762415 291.790482243984 L 130 296 L 140.16267485762415 300.209517756016 L 140.16267485762415 291.790482243984" stroke-miterlimit="10"/></g><g transform="translate(5,10) scale(1,1)"><g><path fill="none" stroke="none"/><text fill="#000000" stroke="none" font-family="Arial" font-size="13px" font-style="normal" font-weight="normal" text-decoration="none" x="171" y="313">5 : ConfirmRequest</text></g></g><g transform="translate(5,10) scale(1,1)"><rect fill="#ffffff" stroke="none" x="117" y="296" width="13" height="28"/></g><g transform="translate(5,10) scale(1,1)"><path fill="none" stroke="#000000" d="M 117 296 L 130 296 L 130 324 L 117 324 L 117 296 Z Z" stroke-miterlimit="10"/></g><g transform="translate(5,10) scale(1,1)"><path fill="none" stroke="#000000" d="M 124 372 L 317 372" stroke-miterlimit="10"/></g><g transform="translate(5,10) scale(1,1)"><path fill="#000000" stroke="none" d="M 306.83732514237585 376.209517756016 L 317 372 L 306.83732514237585 367.790482243984"/></g><g transform="translate(5,10) scale(1,1)"><path fill="none" stroke="#000000" d="M 306.83732514237585 376.209517756016 L 317 372 L 306.83732514237585 367.790482243984 L 306.83732514237585 376.209517756016" stroke-miterlimit="10"/></g><g transform="translate(5,10) scale(1,1)"><g><path fill="none" stroke="none"/><text fill="#000000" stroke="none" font-family="Arial" font-size="13px" font-style="normal" font-weight="normal" text-decoration="none" x="188" y="369">6 : EndRun</text></g></g><g transform="translate(5,10) scale(1,1)"><rect fill="#ffffff" stroke="none" x="317" y="372" width="13" height="86"/></g><g transform="translate(5,10) scale(1,1)"><path fill="none" stroke="#000000" d="M 317 372 L 330 372 L 330 458 L 317 458 L 317 372 Z Z" stroke-miterlimit="10"/></g><g transform="translate(5,10) scale(1,1)"><path fill="none" stroke="#000000" d="M 330 384 L 360 384 L 360 404 L 337 404" stroke-miterlimit="10"/></g><g transform="translate(5,10) scale(1,1)"><path fill="#000000" stroke="none" d="M 347.16267485762415 399.790482243984 L 337 404 L 347.16267485762415 408.209517756016"/></g><g transform="translate(5,10) scale(1,1)"><path fill="none" stroke="#000000" d="M 347.16267485762415 399.790482243984 L 337 404 L 347.16267485762415 408.209517756016 L 347.16267485762415 399.790482243984" stroke-miterlimit="10"/></g><g transform="translate(5,10) scale(1,1)"><g><path fill="none" stroke="none"/><text fill="#000000" stroke="none" font-family="Arial" font-size="13px" font-style="normal" font-weight="normal" text-decoration="none" x="204" y="412">7 : Update Queue</text></g></g><g transform="translate(5,10) scale(1,1)"><rect fill="#ffffff" stroke="none" x="324" y="404" width="13" height="35"/></g><g transform="translate(5,10) scale(1,1)"><path fill="none" stroke="#000000" d="M 324 404 L 337 404 L 337 439 L 324 439 L 324 404 Z Z" stroke-miterlimit="10"/></g><g transform="translate(5,10) scale(1,1)"><path fill="none" stroke="#000000" d="M 124 528 L 317 528" stroke-miterlimit="10"/></g><g transform="translate(5,10) scale(1,1)"><path fill="#000000" stroke="none" d="M 306.83732514237585 532.209517756016 L 317 528 L 306.83732514237585 523.790482243984"/></g><g transform="translate(5,10) scale(1,1)"><path fill="none" stroke="#000000" d="M 306.83732514237585 532.209517756016 L 317 528 L 306.83732514237585 523.790482243984 L 306.83732514237585 532.209517756016" stroke-miterlimit="10"/></g><g transform="translate(5,10) scale(1,1)"><g><path fill="none" stroke="none"/><text fill="#000000" stroke="none" font-family="Arial" font-size="13px" font-style="normal" font-weight="normal" text-decoration="none" x="171" y="525">8 : NotifyProblem</text></g></g><g transform="translate(5,10) scale(1,1)"><rect fill="#ffffff" stroke="none" x="317" y="528" width="13" height="28"/></g><g transform="translate(5,10) scale(1,1)"><path fill="none" stroke="#000000" d="M 317 528 L 330 528 L 330 556 L 317 556 L 317 528 Z Z" stroke-miterlimit="10"/></g><g transform="translate(5,10) scale(1,1)"><path fill="none" stroke="#000000" d="M 317 548 L 124 548" stroke-miterlimit="10" stroke-dasharray="3"/></g><g transform="translate(5,10) scale(1,1)"><path fill="none" stroke="#000000" d="M 134.16267485762415 543.790482243984 L 124 548 L 134.16267485762415 552.209517756016" stroke-miterlimit="10"/></g><g transform="translate(5,10) scale(1,1)"><g><path fill="none" stroke="none"/><text fill="#000000" stroke="none" font-family="Arial" font-size="13px" font-style="normal" font-weight="normal" text-decoration="none" x="210" y="565">9 : </text></g></g><g transform="translate(5,10) scale(1,1)"><path fill="none" stroke="#000000" d="M 324 584 L 354 584 L 354 604 L 330 604" stroke-miterlimit="10"/></g><g transform="translate(5,10) scale(1,1)"><path fill="#000000" stroke="none" d="M 340.16267485762415 599.790482243984 L 330 604 L 340.16267485762415 608.209517756016"/></g><g transform="translate(5,10) scale(1,1)"><path fill="none" stroke="#000000" d="M 340.16267485762415 599.790482243984 L 330 604 L 340.16267485762415 608.209517756016 L 340.16267485762415 599.790482243984" stroke-miterlimit="10"/></g><g transform="translate(5,10) scale(1,1)"><g><path fill="none" stroke="none"/><text fill="#000000" stroke="none" font-family="Arial" font-size="13px" font-style="normal" font-weight="normal" text-decoration="none" x="240" y="599">10 : TimeOut</text></g></g><g transform="translate(5,10) scale(1,1)"><rect fill="#ffffff" stroke="none" x="317" y="604" width="13" height="28"/></g><g transform="translate(5,10) scale(1,1)"><path fill="none" stroke="#000000" d="M 317 604 L 330 604 L 330 632 L 317 632 L 317 604 Z Z" stroke-miterlimit="10"/></g><g transform="translate(5,10) scale(1,1)"><path fill="none" stroke="#000000" d="M 317 627 L 130 627" stroke-miterlimit="10"/></g><g transform="translate(5,10) scale(1,1)"><path fill="#000000" stroke="none" d="M 140.16267485762415 622.790482243984 L 130 627 L 140.16267485762415 631.209517756016"/></g><g transform="translate(5,10) scale(1,1)"><path fill="none" stroke="#000000" d="M 140.16267485762415 622.790482243984 L 130 627 L 140.16267485762415 631.209517756016 L 140.16267485762415 622.790482243984" stroke-miterlimit="10"/></g><g transform="translate(5,10) scale(1,1)"><g><path fill="none" stroke="none"/><text fill="#000000" stroke="none" font-family="Arial" font-size="13px" font-style="normal" font-weight="normal" text-decoration="none" x="178" y="644">11 : CancelRun</text></g></g><g transform="translate(5,10) scale(1,1)"><rect fill="#ffffff" stroke="none" x="117" y="627" width="13" height="28"/></g><g transform="translate(5,10) scale(1,1)"><path fill="none" stroke="#000000" d="M 117 627 L 130 627 L 130 655 L 117 655 L 117 627 Z Z" stroke-miterlimit="10"/></g><g transform="translate(5,10) scale(1,1)"><path fill="none" stroke="#000000" d="M 324 712 L 354 712 L 354 732 L 330 732" stroke-miterlimit="10"/></g><g transform="translate(5,10) scale(1,1)"><path fill="#000000" stroke="none" d="M 340.16267485762415 727.790482243984 L 330 732 L 340.16267485762415 736.209517756016"/></g><g transform="translate(5,10) scale(1,1)"><path fill="none" stroke="#000000" d="M 340.16267485762415 727.790482243984 L 330 732 L 340.16267485762415 736.209517756016 L 340.16267485762415 727.790482243984" stroke-miterlimit="10"/></g><g transform="translate(5,10) scale(1,1)"><g><path fill="none" stroke="none"/><text fill="#000000" stroke="none" font-family="Arial" font-size="13px" font-style="normal" font-weight="normal" text-decoration="none" x="199" y="724">12 : Update Queue</text></g></g><g transform="translate(5,10) scale(1,1)"><rect fill="#ffffff" stroke="none" x="317" y="732" width="13" height="28"/></g><g transform="translate(5,10) scale(1,1)"><path fill="none" stroke="#000000" d="M 317 732 L 330 732 L 330 760 L 317 760 L 317 732 Z Z" stroke-miterlimit="10"/></g><g transform="translate(5,10) scale(1,1)"><path fill="none" stroke="#000000" d="M 124 857 L 317 857" stroke-miterlimit="10"/></g><g transform="translate(5,10) scale(1,1)"><path fill="#000000" stroke="none" d="M 306.83732514237585 861.209517756016 L 317 857 L 306.83732514237585 852.790482243984"/></g><g transform="translate(5,10) scale(1,1)"><path fill="none" stroke="#000000" d="M 306.83732514237585 861.209517756016 L 317 857 L 306.83732514237585 852.790482243984 L 306.83732514237585 861.209517756016" stroke-miterlimit="10"/></g><g transform="translate(5,10) scale(1,1)"><g><path fill="none" stroke="none"/><text fill="#000000" stroke="none" font-family="Arial" font-size="13px" font-style="normal" font-weight="normal" text-decoration="none" x="156" y="854">13 : NegateAvailability</text></g></g><g transform="translate(5,10) scale(1,1)"><rect fill="#ffffff" stroke="none" x="317" y="857" width="13" height="146"/></g><g transform="translate(5,10) scale(1,1)"><path fill="none" stroke="#000000" d="M 317 857 L 330 857 L 330 1003 L 317 1003 L 317 857 Z Z" stroke-miterlimit="10"/></g><g transform="translate(5,10) scale(1,1)"><path fill="none" stroke="#000000" d="M 330 936 L 360 936 L 360 956 L 337 956" stroke-miterlimit="10"/></g><g transform="translate(5,10) scale(1,1)"><path fill="#000000" stroke="none" d="M 347.16267485762415 951.790482243984 L 337 956 L 347.16267485762415 960.209517756016"/></g><g transform="translate(5,10) scale(1,1)"><path fill="none" stroke="#000000" d="M 347.16267485762415 951.790482243984 L 337 956 L 347.16267485762415 960.209517756016 L 347.16267485762415 951.790482243984" stroke-miterlimit="10"/></g><g transform="translate(5,10) scale(1,1)"><g><path fill="none" stroke="none"/><text fill="#000000" stroke="none" font-family="Arial" font-size="13px" font-style="normal" font-weight="normal" text-decoration="none" x="195" y="956">14 : Update Queue</text></g></g><g transform="translate(5,10) scale(1,1)"><rect fill="#ffffff" stroke="none" x="324" y="956" width="13" height="44"/></g><g transform="translate(5,10) scale(1,1)"><path fill="none" stroke="#000000" d="M 324 956 L 337 956 L 337 1000 L 324 1000 L 324 956 Z Z" stroke-miterlimit="10"/></g><g transform="translate(5,10) scale(1,1)"><path fill="none" stroke="#000000" d="M 317 1000 L 130 1000" stroke-miterlimit="10"/></g><g transform="translate(5,10) scale(1,1)"><path fill="#000000" stroke="none" d="M 140.16267485762415 995.790482243984 L 130 1000 L 140.16267485762415 1004.209517756016"/></g><g transform="translate(5,10) scale(1,1)"><path fill="none" stroke="#000000" d="M 140.16267485762415 995.790482243984 L 130 1000 L 140.16267485762415 1004.209517756016 L 140.16267485762415 995.790482243984" stroke-miterlimit="10"/></g><g transform="translate(5,10) scale(1,1)"><g><path fill="none" stroke="none"/><text fill="#000000" stroke="none" font-family="Arial" font-size="13px" font-style="normal" font-weight="normal" text-decoration="none" x="163" y="1017">15 : ConfirmRequest</text></g></g><g transform="translate(5,10) scale(1,1)"><rect fill="#ffffff" stroke="none" x="117" y="1000" width="13" height="28"/></g><g transform="translate(5,10) scale(1,1)"><path fill="none" stroke="#000000" d="M 117 1000 L 130 1000 L 130 1028 L 117 1028 L 117 1000 Z Z" stroke-miterlimit="10"/></g></g></svg>