<svg version="1.1" xmlns="http://www.w3.org/2000/svg" xmlns:xlink="http://www.w3.org/1999/xlink" width="828" height="1300"><defs/><g><g transform="translate(-222,-134) scale(1,1)"><path fill="#C0C0C0" stroke="none" d="M 591 171 C 591 159.954304 599.954304 151 611 151 C 622.045696 151 631 159.954304 631 171 C 631 182.045696 622.045696 191 611 191 C 599.954304 191 591 182.045696 591 171 Z" opacity="0.2"/></g><g transform="translate(-222,-134) scale(1,1)"><path fill="#000000" stroke="none" d="M 584 164 C 584 152.954304 592.954304 144 604 144 C 615.045696 144 624 152.954304 624 164 C 624 175.045696 615.045696 184 604 184 C 592.954304 184 584 175.045696 584 164 Z"/></g><g transform="translate(-222,-134) scale(1,1)"><path fill="#C0C0C0" stroke="none" d="M 553 343 L 672 343 Q 682 343 682 353 L 682 414 Q 682 424 672 424 L 553 424 Q 543 424 543 414 L 543 353 Q 543 343 553 343 Z" opacity="0.2"/></g><g transform="translate(-222,-134) scale(1,1)"><path fill="#ffffff" stroke="none" d="M 546 336 L 665 336 Q 675 336 675 346 L 675 407 Q 675 417 665 417 L 546 417 Q 536 417 536 407 L 536 346 Q 536 336 546 336 Z"/></g><g transform="translate(-222,-134) scale(1,1)"><path fill="none" stroke="#000000" d="M 546 336 L 665 336 Q 675 336 675 346 L 675 407 Q 675 417 665 417 L 546 417 Q 536 417 536 407 L 536 346 Q 536 336 546 336 Z" stroke-miterlimit="10"/></g><g transform="translate(-222,-134) scale(1,1)"><path fill="none" stroke="#000000" d="M 536 368 L 675 368" stroke-miterlimit="10"/></g><g transform="translate(-222,-134) scale(1,1)"><g><path fill="none" stroke="none"/><text fill="#000000" stroke="none" font-family="Arial" font-size="20px" font-style="normal" font-weight="bold" text-decoration="none" x="585.4951171875" y="362.5">New</text></g></g><g transform="translate(-222,-134) scale(1,1)"><path fill="none" stroke="#000000" d="M 604 185 L 605 335" stroke-miterlimit="10"/></g><g transform="translate(-222,-134) scale(1,1)"><path fill="none" stroke="#000000" d="M 600.7228261255187 324.8656138001626 L 605 335 L 609.1416745541088 324.809488143972" stroke-miterlimit="10"/></g><g transform="translate(-222,-134) scale(1,1)"><g><path fill="none" stroke="none"/><text fill="#000000" stroke="none" font-family="Arial" font-size="13px" font-style="normal" font-weight="normal" text-decoration="none" x="637" y="250">The System Create a Set of</text><text fill="#000000" stroke="none" font-family="Arial" font-size="13px" font-style="normal" font-weight="normal" text-decoration="none" x="637" y="263">Queue Object needs to</text><text fill="#000000" stroke="none" font-family="Arial" font-size="13px" font-style="normal" font-weight="normal" text-decoration="none" x="637" y="276">manage all the zones</text></g></g><g transform="translate(-222,-134) scale(1,1)"><path fill="#C0C0C0" stroke="none" d="M 551 539.5 L 607.5 511 L 663 539.5 L 607.5 567 L 551 539.5" opacity="0.2"/></g><g transform="translate(-222,-134) scale(1,1)"><path fill="#ffffff" stroke="none" d="M 544 532 L 600 504 L 656 532 L 600 560 L 544 532"/></g><g transform="translate(-222,-134) scale(1,1)"><path fill="none" stroke="#000000" d="M 544 532 L 600 504 L 656 532 L 600 560 L 544 532 L 544 532" stroke-miterlimit="10"/></g><g transform="translate(-222,-134) scale(1,1)"><path fill="none" stroke="#000000" d="M 604 418 L 601 503" stroke-miterlimit="10"/></g><g transform="translate(-222,-134) scale(1,1)"><path fill="none" stroke="#000000" d="M 597.1515610915961 492.69517016306025 L 601 503 L 605.5653578075589 492.9921276942119" stroke-miterlimit="10"/></g><g transform="translate(-222,-134) scale(1,1)"><g><path fill="none" stroke="none"/><text fill="#000000" stroke="none" font-family="Arial" font-size="13px" font-style="normal" font-weight="normal" text-decoration="none" x="612" y="471">Manage The Queue Object</text></g></g><g transform="translate(-222,-134) scale(1,1)"><path fill="#C0C0C0" stroke="none" d="M 273 687 L 421 687 Q 431 687 431 697 L 431 758 Q 431 768 421 768 L 273 768 Q 263 768 263 758 L 263 697 Q 263 687 273 687 Z" opacity="0.2"/></g><g transform="translate(-222,-134) scale(1,1)"><path fill="#ffffff" stroke="none" d="M 266 680 L 414 680 Q 424 680 424 690 L 424 751 Q 424 761 414 761 L 266 761 Q 256 761 256 751 L 256 690 Q 256 680 266 680 Z"/></g><g transform="translate(-222,-134) scale(1,1)"><path fill="none" stroke="#000000" d="M 266 680 L 414 680 Q 424 680 424 690 L 424 751 Q 424 761 414 761 L 266 761 Q 256 761 256 751 L 256 690 Q 256 680 266 680 Z" stroke-miterlimit="10"/></g><g transform="translate(-222,-134) scale(1,1)"><path fill="none" stroke="#000000" d="M 256 712 L 424 712" stroke-miterlimit="10"/></g><g transform="translate(-222,-134) scale(1,1)"><g><path fill="none" stroke="none"/><text fill="#000000" stroke="none" font-family="Arial" font-size="20px" font-style="normal" font-weight="bold" text-decoration="none" x="299.4091796875" y="706.5">Dequeue</text></g></g><g transform="translate(-222,-134) scale(1,1)"><path fill="none" stroke="#000000" d="M 560 561 L 397 679" stroke-miterlimit="10"/></g><g transform="translate(-222,-134) scale(1,1)"><path fill="none" stroke="#000000" d="M 402.7635553930943 669.6308255843574 L 397 679 L 407.70045586562173 676.4504423387808" stroke-miterlimit="10"/></g><g transform="translate(-222,-134) scale(1,1)"><g><path fill="none" stroke="none"/><text fill="#000000" stroke="none" font-family="Arial" font-size="13px" font-style="normal" font-weight="normal" text-decoration="none" x="413" y="538">The Taxi Driver</text><text fill="#000000" stroke="none" font-family="Arial" font-size="13px" font-style="normal" font-weight="normal" text-decoration="none" x="413" y="551">closes the application</text><text fill="#000000" stroke="none" font-family="Arial" font-size="13px" font-style="normal" font-weight="normal" text-decoration="none" x="413" y="564">or confirms request</text><text fill="#000000" stroke="none" font-family="Arial" font-size="13px" font-style="normal" font-weight="normal" text-decoration="none" x="413" y="577">with no sharing</text></g></g><g transform="translate(-222,-134) scale(1,1)"><path fill="#C0C0C0" stroke="none" d="M 537 839 L 690.47265625 839 Q 700.47265625 839 700.47265625 849 L 700.47265625 910 Q 700.47265625 920 690.47265625 920 L 537 920 Q 527 920 527 910 L 527 849 Q 527 839 537 839 Z" opacity="0.2"/></g><g transform="translate(-222,-134) scale(1,1)"><path fill="#ffffff" stroke="none" d="M 530 832 L 683.47265625 832 Q 693.47265625 832 693.47265625 842 L 693.47265625 903 Q 693.47265625 913 683.47265625 913 L 530 913 Q 520 913 520 903 L 520 842 Q 520 832 530 832 Z"/></g><g transform="translate(-222,-134) scale(1,1)"><path fill="none" stroke="#000000" d="M 530 832 L 683.47265625 832 Q 693.47265625 832 693.47265625 842 L 693.47265625 903 Q 693.47265625 913 683.47265625 913 L 530 913 Q 520 913 520 903 L 520 842 Q 520 832 530 832 Z" stroke-miterlimit="10"/></g><g transform="translate(-222,-134) scale(1,1)"><path fill="none" stroke="#000000" d="M 520 864 L 693.47265625 864" stroke-miterlimit="10"/></g><g transform="translate(-222,-134) scale(1,1)"><g><path fill="none" stroke="none"/><text fill="#000000" stroke="none" font-family="Arial" font-size="20px" font-style="normal" font-weight="bold" text-decoration="none" x="528.8994140625" y="858.5">Dequeue Sharing</text></g></g><g transform="translate(-222,-134) scale(1,1)"><path fill="none" stroke="#000000" d="M 601 561 L 605 831" stroke-miterlimit="10"/></g><g transform="translate(-222,-134) scale(1,1)"><path fill="none" stroke="#000000" d="M 600.640402491177 820.9007965877964 L 605 831 L 609.0585142556188 820.7760838209158" stroke-miterlimit="10"/></g><g transform="translate(-222,-134) scale(1,1)"><g><path fill="none" stroke="none"/><text fill="#000000" stroke="none" font-family="Arial" font-size="13px" font-style="normal" font-weight="normal" text-decoration="none" x="605" y="618">The Taxi Driver</text><text fill="#000000" stroke="none" font-family="Arial" font-size="13px" font-style="normal" font-weight="normal" text-decoration="none" x="605" y="631">confirm request with </text><text fill="#000000" stroke="none" font-family="Arial" font-size="13px" font-style="normal" font-weight="normal" text-decoration="none" x="605" y="644">sharing option</text></g></g><g transform="translate(-222,-134) scale(1,1)"><path fill="none" stroke="#000000" d="M 328 680 L 328 656 L 232 656 L 232 720 L 256 720" stroke-miterlimit="10"/></g><g transform="translate(-222,-134) scale(1,1)"><path fill="none" stroke="#000000" d="M 245.83732514237585 724.209517756016 L 256 720 L 245.83732514237585 715.790482243984" stroke-miterlimit="10"/></g><g transform="translate(-222,-134) scale(1,1)"><path fill="none" stroke="#000000" d="M 630 832 L 630 812 L 746 812 L 746 872 L 693 872" stroke-miterlimit="10"/></g><g transform="translate(-222,-134) scale(1,1)"><path fill="none" stroke="#000000" d="M 703.1626748576241 867.790482243984 L 693 872 L 703.1626748576241 876.209517756016" stroke-miterlimit="10"/></g><g transform="translate(-222,-134) scale(1,1)"><g><path fill="none" stroke="none"/><text fill="#000000" stroke="none" font-family="Arial" font-size="13px" font-style="normal" font-weight="normal" text-decoration="none" x="637" y="762">Queue Manager deletes</text><text fill="#000000" stroke="none" font-family="Arial" font-size="13px" font-style="normal" font-weight="normal" text-decoration="none" x="637" y="775">Taxi driver from his</text><text fill="#000000" stroke="none" font-family="Arial" font-size="13px" font-style="normal" font-weight="normal" text-decoration="none" x="637" y="788">queue and adds in</text><text fill="#000000" stroke="none" font-family="Arial" font-size="13px" font-style="normal" font-weight="normal" text-decoration="none" x="637" y="801">queue sharing</text></g></g><g transform="translate(-222,-134) scale(1,1)"><path fill="none" stroke="#000000" d="M 630 832 L 630 812 L 746 812 L 746 872 L 693 872" stroke-miterlimit="10"/></g><g transform="translate(-222,-134) scale(1,1)"><path fill="none" stroke="#000000" d="M 703.1626748576241 867.790482243984 L 693 872 L 703.1626748576241 876.209517756016" stroke-miterlimit="10"/></g><g transform="translate(-222,-134) scale(1,1)"><path fill="none" stroke="#000000" d="M 630 832 L 630 812 L 746 812 L 746 872 L 693 872" stroke-miterlimit="10"/></g><g transform="translate(-222,-134) scale(1,1)"><path fill="none" stroke="#000000" d="M 703.1626748576241 867.790482243984 L 693 872 L 703.1626748576241 876.209517756016" stroke-miterlimit="10"/></g><g transform="translate(-222,-134) scale(1,1)"><path fill="none" stroke="#000000" d="M 630 832 L 630 812 L 746 812 L 746 872 L 693 872" stroke-miterlimit="10"/></g><g transform="translate(-222,-134) scale(1,1)"><path fill="none" stroke="#000000" d="M 703.1626748576241 867.790482243984 L 693 872 L 703.1626748576241 876.209517756016" stroke-miterlimit="10"/></g><g transform="translate(-222,-134) scale(1,1)"><path fill="#C0C0C0" stroke="none" d="M 849 687 L 997 687 Q 1007 687 1007 697 L 1007 758 Q 1007 768 997 768 L 849 768 Q 839 768 839 758 L 839 697 Q 839 687 849 687 Z" opacity="0.2"/></g><g transform="translate(-222,-134) scale(1,1)"><path fill="#ffffff" stroke="none" d="M 842 680 L 990 680 Q 1000 680 1000 690 L 1000 751 Q 1000 761 990 761 L 842 761 Q 832 761 832 751 L 832 690 Q 832 680 842 680 Z"/></g><g transform="translate(-222,-134) scale(1,1)"><path fill="none" stroke="#000000" d="M 842 680 L 990 680 Q 1000 680 1000 690 L 1000 751 Q 1000 761 990 761 L 842 761 Q 832 761 832 751 L 832 690 Q 832 680 842 680 Z" stroke-miterlimit="10"/></g><g transform="translate(-222,-134) scale(1,1)"><path fill="none" stroke="#000000" d="M 832 712 L 1000 712" stroke-miterlimit="10"/></g><g transform="translate(-222,-134) scale(1,1)"><g><path fill="none" stroke="none"/><text fill="#000000" stroke="none" font-family="Arial" font-size="20px" font-style="normal" font-weight="bold" text-decoration="none" x="885.9755859375" y="706.5">Queue</text></g></g><g transform="translate(-222,-134) scale(1,1)"><path fill="none" stroke="#000000" d="M 649 561 L 847 679" stroke-miterlimit="10"/></g><g transform="translate(-222,-134) scale(1,1)"><path fill="none" stroke="#000000" d="M 836.1150288772376 677.4133671954017 L 847 679 L 840.4250819214594 670.1812442906904" stroke-miterlimit="10"/></g><g transform="translate(-222,-134) scale(1,1)"><g><path fill="none" stroke="none"/><text fill="#000000" stroke="none" font-family="Arial" font-size="13px" font-style="normal" font-weight="normal" text-decoration="none" x="685" y="538">The Taxi</text><text fill="#000000" stroke="none" font-family="Arial" font-size="13px" font-style="normal" font-weight="normal" text-decoration="none" x="685" y="551">Driver send</text><text fill="#000000" stroke="none" font-family="Arial" font-size="13px" font-style="normal" font-weight="normal" text-decoration="none" x="685" y="564">availability</text></g></g><g transform="translate(-222,-134) scale(1,1)"><path fill="none" stroke="#000000" d="M 916 680 L 916 660 L 1030 660 L 1030 720 L 1000 720" stroke-miterlimit="10"/></g><g transform="translate(-222,-134) scale(1,1)"><path fill="none" stroke="#000000" d="M 1010.1626748576241 715.790482243984 L 1000 720 L 1010.1626748576241 724.209517756016" stroke-miterlimit="10"/></g><g transform="translate(-222,-134) scale(1,1)"><g><path fill="none" stroke="none"/><text fill="#000000" stroke="none" font-family="Arial" font-size="13px" font-style="normal" font-weight="normal" text-decoration="none" x="917" y="626">Queue Manage</text><text fill="#000000" stroke="none" font-family="Arial" font-size="13px" font-style="normal" font-weight="normal" text-decoration="none" x="917" y="639">adds Taxi Driver in</text><text fill="#000000" stroke="none" font-family="Arial" font-size="13px" font-style="normal" font-weight="normal" text-decoration="none" x="917" y="652">correct queue</text></g></g><g transform="translate(-222,-134) scale(1,1)"><g><path fill="none" stroke="none"/><text fill="#000000" stroke="none" font-family="Arial" font-size="13px" font-style="normal" font-weight="normal" text-decoration="none" x="237" y="626">Queue Manager</text><text fill="#000000" stroke="none" font-family="Arial" font-size="13px" font-style="normal" font-weight="normal" text-decoration="none" x="237" y="639">removes Taxi driver</text><text fill="#000000" stroke="none" font-family="Arial" font-size="13px" font-style="normal" font-weight="normal" text-decoration="none" x="237" y="652">from his queue</text></g></g><g transform="translate(-222,-134) scale(1,1)"><path fill="#C0C0C0" stroke="none" d="M 578 1191 L 641 1191 Q 644 1191 644 1194 L 644 1193 Q 644 1196 641 1196 L 578 1196 Q 575 1196 575 1193 L 575 1194 Q 575 1191 578 1191 Z" opacity="0.2"/></g><g transform="translate(-222,-134) scale(1,1)"><path fill="#000000" stroke="none" d="M 571 1184 L 634 1184 Q 637 1184 637 1187 L 637 1187 Q 637 1190 634 1190 L 571 1190 Q 568 1190 568 1187 L 568 1187 Q 568 1184 571 1184 Z"/></g><g transform="translate(-222,-134) scale(1,1)"><path fill="none" stroke="#000000" d="M 364 762 L 600 1183" stroke-miterlimit="10"/></g><g transform="translate(-222,-134) scale(1,1)"><path fill="none" stroke="#000000" d="M 591.3586993223909 1176.1935381732392 L 600 1183 L 598.7025730061806 1172.0767823790006" stroke-miterlimit="10"/></g><g transform="translate(-222,-134) scale(1,1)"><path fill="none" stroke="#000000" d="M 605 914 L 602 1183" stroke-miterlimit="10"/></g><g transform="translate(-222,-134) scale(1,1)"><path fill="none" stroke="#000000" d="M 597.904075335539 1172.7910137063927 L 602 1183 L 606.3225873317806 1172.8849004572803" stroke-miterlimit="10"/></g><g transform="translate(-222,-134) scale(1,1)"><path fill="none" stroke="#000000" d="M 888 762 L 604 1183" stroke-miterlimit="10"/></g><g transform="translate(-222,-134) scale(1,1)"><path fill="none" stroke="#000000" d="M 606.193608870663 1172.2209425216047 L 604 1183 L 613.1730603454896 1176.9291710699438" stroke-miterlimit="10"/></g><g transform="translate(-222,-134) scale(1,1)"><path fill="#C0C0C0" stroke="none" d="M 583 1407 C 583 1393.7451648 593.7451648 1383 607 1383 C 620.2548352 1383 631 1393.7451648 631 1407 C 631 1420.2548352 620.2548352 1431 607 1431 C 593.7451648 1431 583 1420.2548352 583 1407 Z" opacity="0.2"/></g><g transform="translate(-222,-134) scale(1,1)"><path fill="none" stroke="#000000" d="M 576 1400 C 576 1386.7451648 586.7451648 1376 600 1376 C 613.2548352 1376 624 1386.7451648 624 1400 C 624 1413.2548352 613.2548352 1424 600 1424 C 586.7451648 1424 576 1413.2548352 576 1400 Z" stroke-miterlimit="10"/></g><g transform="translate(-222,-134) scale(1,1)"><path fill="#000000" stroke="none" d="M 581 1400 C 581 1389.5065888 589.5065888 1381 600 1381 C 610.4934112 1381 619 1389.5065888 619 1400 C 619 1410.4934112 610.4934112 1419 600 1419 C 589.5065888 1419 581 1410.4934112 581 1400 Z"/></g><g transform="translate(-222,-134) scale(1,1)"><path fill="none" stroke="#000000" d="M 602 1190 L 600 1375" stroke-miterlimit="10"/></g><g transform="translate(-222,-134) scale(1,1)"><path fill="none" stroke="#000000" d="M 595.9005885487519 1364.7924133237393 L 600 1375 L 604.3191321222821 1364.8834246056153" stroke-miterlimit="10"/></g></g></svg>