<svg version="1.1" xmlns="http://www.w3.org/2000/svg" xmlns:xlink="http://www.w3.org/1999/xlink" width="585.916015625" height="1124"><defs/><g><g transform="translate(-126,-102) scale(1,1)"><path fill="#C0C0C0" stroke="none" d="M 399 151 C 399 133.3268864 413.3268864 119 431 119 C 448.6731136 119 463 133.3268864 463 151 C 463 168.6731136 448.6731136 183 431 183 C 413.3268864 183 399 168.6731136 399 151 Z" opacity="0.2"/></g><g transform="translate(-126,-102) scale(1,1)"><path fill="#000000" stroke="none" d="M 392 144 C 392 126.3268864 406.3268864 112 424 112 C 441.6731136 112 456 126.3268864 456 144 C 456 161.6731136 441.6731136 176 424 176 C 406.3268864 176 392 161.6731136 392 144 Z"/></g><g transform="translate(-126,-102) scale(1,1)"><path fill="#C0C0C0" stroke="none" d="M 383 279.5 L 431.5 247 L 479 279.5 L 431.5 311 L 383 279.5" opacity="0.2"/></g><g transform="translate(-126,-102) scale(1,1)"><path fill="#ffffff" stroke="none" d="M 376 272 L 424 240 L 472 272 L 424 304 L 376 272"/></g><g transform="translate(-126,-102) scale(1,1)"><path fill="none" stroke="#000000" d="M 376 272 L 424 240 L 472 272 L 424 304 L 376 272 L 376 272" stroke-miterlimit="10"/></g><g transform="translate(-126,-102) scale(1,1)"><path fill="#C0C0C0" stroke="none" d="M 394 543 L 457 543 Q 460 543 460 546 L 460 545 Q 460 548 457 548 L 394 548 Q 391 548 391 545 L 391 546 Q 391 543 394 543 Z" opacity="0.2"/></g><g transform="translate(-126,-102) scale(1,1)"><path fill="#000000" stroke="none" d="M 387 536 L 450 536 Q 453 536 453 539 L 453 539 Q 453 542 450 542 L 387 542 Q 384 542 384 539 L 384 539 Q 384 536 387 536 Z"/></g><g transform="translate(-126,-102) scale(1,1)"><path fill="none" stroke="#000000" d="M 424 177 L 424 239" stroke-miterlimit="10"/></g><g transform="translate(-126,-102) scale(1,1)"><path fill="none" stroke="#000000" d="M 419.790482243984 228.83732514237585 L 424 239 L 428.209517756016 228.83732514237585" stroke-miterlimit="10"/></g><g transform="translate(-126,-102) scale(1,1)"><path fill="#C0C0C0" stroke="none" d="M 217 367 L 333 367 Q 343 367 343 377 L 343 438 Q 343 448 333 448 L 217 448 Q 207 448 207 438 L 207 377 Q 207 367 217 367 Z" opacity="0.2"/></g><g transform="translate(-126,-102) scale(1,1)"><path fill="#ffffff" stroke="none" d="M 210 360 L 326 360 Q 336 360 336 370 L 336 431 Q 336 441 326 441 L 210 441 Q 200 441 200 431 L 200 370 Q 200 360 210 360 Z"/></g><g transform="translate(-126,-102) scale(1,1)"><path fill="none" stroke="#000000" d="M 210 360 L 326 360 Q 336 360 336 370 L 336 431 Q 336 441 326 441 L 210 441 Q 200 441 200 431 L 200 370 Q 200 360 210 360 Z" stroke-miterlimit="10"/></g><g transform="translate(-126,-102) scale(1,1)"><path fill="none" stroke="#000000" d="M 200 392 L 336 392" stroke-miterlimit="10"/></g><g transform="translate(-126,-102) scale(1,1)"><g><path fill="none" stroke="none"/><text fill="#000000" stroke="none" font-family="Arial" font-size="20px" font-style="normal" font-weight="bold" text-decoration="none" x="247.9951171875" y="386.5">New</text></g></g><g transform="translate(-126,-102) scale(1,1)"><path fill="none" stroke="#000000" d="M 384 305 L 318 359" stroke-miterlimit="10"/></g><g transform="translate(-126,-102) scale(1,1)"><path fill="none" stroke="#000000" d="M 323.19985066362 349.30662323666047 L 318 359 L 328.53110210735656 355.8225972234496" stroke-miterlimit="10"/></g><g transform="translate(-126,-102) scale(1,1)"><path fill="none" stroke="#000000" d="M 423 305 L 418 535" stroke-miterlimit="10"/></g><g transform="translate(-126,-102) scale(1,1)"><path fill="none" stroke="#000000" d="M 414.0123521078249 524.7482360401718 L 418 535 L 422.42939894957703 524.9312153193404" stroke-miterlimit="10"/></g><g transform="translate(-126,-102) scale(1,1)"><g><path fill="none" stroke="none"/><text fill="#000000" stroke="none" font-family="Arial" font-size="16px" font-style="normal" font-weight="normal" text-decoration="none" x="437" y="389">If User is</text><text fill="#000000" stroke="none" font-family="Arial" font-size="16px" font-style="normal" font-weight="normal" text-decoration="none" x="437" y="405">alredy  been</text><text fill="#000000" stroke="none" font-family="Arial" font-size="16px" font-style="normal" font-weight="normal" text-decoration="none" x="437" y="421">create</text></g></g><g transform="translate(-126,-102) scale(1,1)"><path fill="none" stroke="#000000" d="M 314 442 L 415 535" stroke-miterlimit="10"/></g><g transform="translate(-126,-102) scale(1,1)"><path fill="none" stroke="#000000" d="M 404.6725139939835 531.2127803343966 L 415 535 L 410.37533331992773 525.0193959051453" stroke-miterlimit="10"/></g><g transform="translate(-126,-102) scale(1,1)"><path fill="#C0C0C0" stroke="none" d="M 367 667.5 L 423.5 631 L 479 667.5 L 423.5 703 L 367 667.5" opacity="0.2"/></g><g transform="translate(-126,-102) scale(1,1)"><path fill="#ffffff" stroke="none" d="M 360 660 L 416 624 L 472 660 L 416 696 L 360 660"/></g><g transform="translate(-126,-102) scale(1,1)"><path fill="none" stroke="#000000" d="M 360 660 L 416 624 L 472 660 L 416 696 L 360 660 L 360 660" stroke-miterlimit="10"/></g><g transform="translate(-126,-102) scale(1,1)"><path fill="none" stroke="#000000" d="M 418 542 L 417 623" stroke-miterlimit="10"/></g><g transform="translate(-126,-102) scale(1,1)"><path fill="none" stroke="#000000" d="M 412.9162585671644 612.7861341349251 L 417 623 L 421.33465255555376 612.8900649249052" stroke-miterlimit="10"/></g><g transform="translate(-126,-102) scale(1,1)"><path fill="#C0C0C0" stroke="none" d="M 153 823 L 333 823 Q 343 823 343 833 L 343 909 Q 343 919 333 919 L 153 919 Q 143 919 143 909 L 143 833 Q 143 823 153 823 Z" opacity="0.2"/></g><g transform="translate(-126,-102) scale(1,1)"><path fill="#ffffff" stroke="none" d="M 146 816 L 326 816 Q 336 816 336 826 L 336 902 Q 336 912 326 912 L 146 912 Q 136 912 136 902 L 136 826 Q 136 816 146 816 Z"/></g><g transform="translate(-126,-102) scale(1,1)"><path fill="none" stroke="#000000" d="M 146 816 L 326 816 Q 336 816 336 826 L 336 902 Q 336 912 326 912 L 146 912 Q 136 912 136 902 L 136 826 Q 136 816 146 816 Z" stroke-miterlimit="10"/></g><g transform="translate(-126,-102) scale(1,1)"><path fill="none" stroke="#000000" d="M 136 848 L 336 848" stroke-miterlimit="10"/></g><g transform="translate(-126,-102) scale(1,1)"><g><path fill="none" stroke="none"/><text fill="#000000" stroke="none" font-family="Arial" font-size="20px" font-style="normal" font-weight="bold" text-decoration="none" x="179.30078125" y="842.5">Modified info</text></g></g><g transform="translate(-126,-102) scale(1,1)"><path fill="none" stroke="#000000" d="M 383 697 L 279 815" stroke-miterlimit="10"/></g><g transform="translate(-126,-102) scale(1,1)"><path fill="none" stroke="#000000" d="M 282.56155331826545 804.5925345082892 L 279 815 L 288.8775879270567 810.1592090787492" stroke-miterlimit="10"/></g><g transform="translate(-126,-102) scale(1,1)"><g><path fill="none" stroke="none"/><text fill="#000000" stroke="none" font-family="Arial" font-size="16px" font-style="normal" font-weight="normal" text-decoration="none" x="144" y="742">The user changes his info</text></g></g><g transform="translate(-126,-102) scale(1,1)"><path fill="#C0C0C0" stroke="none" d="M 521 823 L 698.916015625 823 Q 708.916015625 823 708.916015625 833 L 708.916015625 909 Q 708.916015625 919 698.916015625 919 L 521 919 Q 511 919 511 909 L 511 833 Q 511 823 521 823 Z" opacity="0.2"/></g><g transform="translate(-126,-102) scale(1,1)"><path fill="#ffffff" stroke="none" d="M 514 816 L 691.916015625 816 Q 701.916015625 816 701.916015625 826 L 701.916015625 902 Q 701.916015625 912 691.916015625 912 L 514 912 Q 504 912 504 902 L 504 826 Q 504 816 514 816 Z"/></g><g transform="translate(-126,-102) scale(1,1)"><path fill="none" stroke="#000000" d="M 514 816 L 691.916015625 816 Q 701.916015625 816 701.916015625 826 L 701.916015625 902 Q 701.916015625 912 691.916015625 912 L 514 912 Q 504 912 504 902 L 504 826 Q 504 816 514 816 Z" stroke-miterlimit="10"/></g><g transform="translate(-126,-102) scale(1,1)"><path fill="none" stroke="#000000" d="M 504 848 L 701.916015625 848" stroke-miterlimit="10"/></g><g transform="translate(-126,-102) scale(1,1)"><g><path fill="none" stroke="none"/><text fill="#000000" stroke="none" font-family="Arial" font-size="20px" font-style="normal" font-weight="bold" text-decoration="none" x="515.677734375" y="842.5">Add negative report</text></g></g><g transform="translate(-126,-102) scale(1,1)"><path fill="none" stroke="#000000" d="M 450 697 L 557 815" stroke-miterlimit="10"/></g><g transform="translate(-126,-102) scale(1,1)"><path fill="none" stroke="#000000" d="M 547.0550015821111 810.2992546901384 L 557 815 L 553.2917530650553 804.6438952945872" stroke-miterlimit="10"/></g><g transform="translate(-126,-102) scale(1,1)"><g><path fill="none" stroke="none"/><text fill="#000000" stroke="none" font-family="Arial" font-size="16px" font-style="normal" font-weight="normal" text-decoration="none" x="504" y="752">The taxi driver reports user</text></g></g><g transform="translate(-126,-102) scale(1,1)"><path fill="#C0C0C0" stroke="none" d="M 394 1039 L 457 1039 Q 460 1039 460 1042 L 460 1041 Q 460 1044 457 1044 L 394 1044 Q 391 1044 391 1041 L 391 1042 Q 391 1039 394 1039 Z" opacity="0.2"/></g><g transform="translate(-126,-102) scale(1,1)"><path fill="#000000" stroke="none" d="M 387 1032 L 450 1032 Q 453 1032 453 1035 L 453 1035 Q 453 1038 450 1038 L 387 1038 Q 384 1038 384 1035 L 384 1035 Q 384 1032 387 1032 Z"/></g><g transform="translate(-126,-102) scale(1,1)"><path fill="none" stroke="#000000" d="M 416 697 L 418 1031" stroke-miterlimit="10"/></g><g transform="translate(-126,-102) scale(1,1)"><path fill="none" stroke="#000000" d="M 413.7297044616113 1020.8627135773513 L 418 1031 L 422.1485890394199 1020.8123010948494" stroke-miterlimit="10"/></g><g transform="translate(-126,-102) scale(1,1)"><path fill="none" stroke="#000000" d="M 288 913 L 415 1031" stroke-miterlimit="10"/></g><g transform="translate(-126,-102) scale(1,1)"><path fill="none" stroke="#000000" d="M 404.6896440426381 1027.166390730331 L 415 1031 L 410.4202484971049 1020.9987062750997" stroke-miterlimit="10"/></g><g transform="translate(-126,-102) scale(1,1)"><path fill="none" stroke="#000000" d="M 549 913 L 421 1031" stroke-miterlimit="10"/></g><g transform="translate(-126,-102) scale(1,1)"><path fill="none" stroke="#000000" d="M 425.6188199980023 1021.0166888345573 L 421 1031 L 431.32526596544744 1027.2067319178875" stroke-miterlimit="10"/></g><g transform="translate(-126,-102) scale(1,1)"><path fill="#C0C0C0" stroke="none" d="M 391 1191 C 391 1173.3268864 405.3268864 1159 423 1159 C 440.6731136 1159 455 1173.3268864 455 1191 C 455 1208.6731136 440.6731136 1223 423 1223 C 405.3268864 1223 391 1208.6731136 391 1191 Z" opacity="0.2"/></g><g transform="translate(-126,-102) scale(1,1)"><path fill="none" stroke="#000000" d="M 384 1184 C 384 1166.3268864 398.3268864 1152 416 1152 C 433.6731136 1152 448 1166.3268864 448 1184 C 448 1201.6731136 433.6731136 1216 416 1216 C 398.3268864 1216 384 1201.6731136 384 1184 Z" stroke-miterlimit="10"/></g><g transform="translate(-126,-102) scale(1,1)"><path fill="#000000" stroke="none" d="M 389 1184 C 389 1169.0883104 401.0883104 1157 416 1157 C 430.9116896 1157 443 1169.0883104 443 1184 C 443 1198.9116896 430.9116896 1211 416 1211 C 401.0883104 1211 389 1198.9116896 389 1184 Z"/></g><g transform="translate(-126,-102) scale(1,1)"><path fill="none" stroke="#000000" d="M 418 1038 L 416 1151" stroke-miterlimit="10"/></g><g transform="translate(-126,-102) scale(1,1)"><path fill="none" stroke="#000000" d="M 411.9709836081976 1140.76442346936 L 416 1151 L 420.38870076201414 1140.9134096136754" stroke-miterlimit="10"/></g></g></svg>