<svg version="1.1" xmlns="http://www.w3.org/2000/svg" xmlns:xlink="http://www.w3.org/1999/xlink" width="468" height="1084"><defs/><g><g transform="translate(-1,2) scale(1,1)"><path fill="none" stroke="#000000" d="M 32 8 L 459 8 L 459 1072 L 32 1072 L 32 8" stroke-miterlimit="10"/></g><g transform="translate(-1,2) scale(1,1)"><path fill="#ffffff" stroke="none" d="M 32 8 L 32 30 L 193.2470703125 30 L 204.2470703125 19 L 204.2470703125 8 L 32 8"/></g><g transform="translate(-1,2) scale(1,1)"><path fill="none" stroke="#000000" d="M 32 8 L 32 30 L 193.2470703125 30 L 204.2470703125 19 L 204.2470703125 8 L 32 8 L 32 8" stroke-miterlimit="10"/></g><g transform="translate(-1,2) scale(1,1)"><g><path fill="none" stroke="none"/><text fill="#000000" stroke="none" font-family="Arial" font-size="13px" font-style="normal" font-weight="normal" text-decoration="none" x="102.97900390625" y="25.5">Reply Request</text></g></g><g transform="translate(-1,2) scale(1,1)"><g><path fill="none" stroke="none"/><text fill="#000000" stroke="none" font-family="Arial" font-size="13px" font-style="normal" font-weight="bold" text-decoration="none" x="37" y="25.5">interaction</text></g></g><g transform="translate(-1,2) scale(1,1)"><rect fill="#C0C0C0" stroke="none" x="111" y="47" width="71.736328125" height="39" opacity="0.2"/></g><g transform="translate(-1,2) scale(1,1)"><rect fill="#ffffff" stroke="none" x="104" y="40" width="71.736328125" height="39"/></g><g transform="translate(-1,2) scale(1,1)"><path fill="none" stroke="#000000" d="M 104 40 L 175.736328125 40 L 175.736328125 79 L 104 79 L 104 40 Z Z" stroke-miterlimit="10"/></g><g transform="translate(-1,2) scale(1,1)"><g><path fill="none" stroke="none"/><text fill="#000000" stroke="none" font-family="Arial" font-size="13px" font-style="normal" font-weight="bold" text-decoration="none" x="118.197265625" y="59.5">System</text></g></g><g transform="translate(-1,2) scale(1,1)"><path fill="none" stroke="#000000" d="M 140.5 80 L 140.5 1056" stroke-miterlimit="10" stroke-dasharray="3"/></g><g transform="translate(-1,2) scale(1,1)"><rect fill="#C0C0C0" stroke="none" x="303" y="47" width="86.20263671875" height="39" opacity="0.2"/></g><g transform="translate(-1,2) scale(1,1)"><rect fill="#ffffff" stroke="none" x="296" y="40" width="86.20263671875" height="39"/></g><g transform="translate(-1,2) scale(1,1)"><path fill="none" stroke="#000000" d="M 296 40 L 382.20263671875 40 L 382.20263671875 79 L 296 79 L 296 40 Z Z" stroke-miterlimit="10"/></g><g transform="translate(-1,2) scale(1,1)"><g><path fill="none" stroke="none"/><text fill="#000000" stroke="none" font-family="Arial" font-size="13px" font-style="normal" font-weight="bold" text-decoration="none" x="307.68359375" y="59.5">Taxi Driver</text></g></g><g transform="translate(-1,2) scale(1,1)"><path fill="none" stroke="#000000" d="M 340.5 80 L 340.5 1056" stroke-miterlimit="10" stroke-dasharray="3"/></g><g transform="translate(-1,2) scale(1,1)"><path fill="none" stroke="#000000" d="M 56 168 L 407 168 L 407 1048 L 56 1048 L 56 168" stroke-miterlimit="10"/></g><g transform="translate(-1,2) scale(1,1)"><path fill="#ffffff" stroke="none" d="M 56 168 L 56 190 L 118.96630859375 190 L 129.96630859375 179 L 129.96630859375 168 L 56 168"/></g><g transform="translate(-1,2) scale(1,1)"><path fill="none" stroke="#000000" d="M 56 168 L 56 190 L 118.96630859375 190 L 129.96630859375 179 L 129.96630859375 168 L 56 168 L 56 168" stroke-miterlimit="10"/></g><g transform="translate(-1,2) scale(1,1)"><g><path fill="none" stroke="none"/><text fill="#000000" stroke="none" font-family="Arial" font-size="13px" font-style="normal" font-weight="normal" text-decoration="none" x="80.72998046875" y="185.5">Reply</text></g></g><g transform="translate(-1,2) scale(1,1)"><g><path fill="none" stroke="none"/><text fill="#000000" stroke="none" font-family="Arial" font-size="13px" font-style="normal" font-weight="bold" text-decoration="none" x="61" y="185.5">alt</text></g></g><g transform="translate(-1,2) scale(1,1)"><path fill="none" stroke="#000000" d="M 56 825 L 407 825" stroke-miterlimit="10" stroke-dasharray="10,3"/></g><g transform="translate(-1,2) scale(1,1)"><path fill="none" stroke="#000000" d="M 72 328 L 383 328 L 383 784 L 72 784 L 72 328" stroke-miterlimit="10"/></g><g transform="translate(-1,2) scale(1,1)"><path fill="#ffffff" stroke="none" d="M 72 328 L 72 350 L 168.22802734375 350 L 179.22802734375 339 L 179.22802734375 328 L 72 328"/></g><g transform="translate(-1,2) scale(1,1)"><path fill="none" stroke="#000000" d="M 72 328 L 72 350 L 168.22802734375 350 L 179.22802734375 339 L 179.22802734375 328 L 72 328 L 72 328" stroke-miterlimit="10"/></g><g transform="translate(-1,2) scale(1,1)"><g><path fill="none" stroke="none"/><text fill="#000000" stroke="none" font-family="Arial" font-size="13px" font-style="normal" font-weight="normal" text-decoration="none" x="96.72998046875" y="345.5">Run ending</text></g></g><g transform="translate(-1,2) scale(1,1)"><g><path fill="none" stroke="none"/><text fill="#000000" stroke="none" font-family="Arial" font-size="13px" font-style="normal" font-weight="bold" text-decoration="none" x="77" y="345.5">alt</text></g></g><g transform="translate(-1,2) scale(1,1)"><path fill="none" stroke="#000000" d="M 72 481 L 383 481" stroke-miterlimit="10" stroke-dasharray="10,3"/></g><g transform="translate(-1,2) scale(1,1)"><path fill="none" stroke="#000000" d="M 96 488 L 360 488 L 360 688 L 96 688 L 96 488" stroke-miterlimit="10"/></g><g transform="translate(-1,2) scale(1,1)"><path fill="#ffffff" stroke="none" d="M 96 488 L 96 510 L 204.498046875 510 L 215.498046875 499 L 215.498046875 488 L 96 488"/></g><g transform="translate(-1,2) scale(1,1)"><path fill="none" stroke="#000000" d="M 96 488 L 96 510 L 204.498046875 510 L 215.498046875 499 L 215.498046875 488 L 96 488 L 96 488" stroke-miterlimit="10"/></g><g transform="translate(-1,2) scale(1,1)"><g><path fill="none" stroke="none"/><text fill="#000000" stroke="none" font-family="Arial" font-size="13px" font-style="normal" font-weight="normal" text-decoration="none" x="125.07177734375" y="505.5">Run problem</text></g></g><g transform="translate(-1,2) scale(1,1)"><g><path fill="none" stroke="none"/><text fill="#000000" stroke="none" font-family="Arial" font-size="13px" font-style="normal" font-weight="bold" text-decoration="none" x="101" y="505.5">opt</text></g></g><g transform="translate(-1,2) scale(1,1)"><path fill="none" stroke="#000000" d="M 96 569 L 360 569" stroke-miterlimit="10" stroke-dasharray="10,3"/></g><g transform="translate(-1,2) scale(1,1)"><path fill="none" stroke="#000000" d="M 340 107 L 146 107" stroke-miterlimit="10"/></g><g transform="translate(-1,2) scale(1,1)"><path fill="none" stroke="#000000" d="M 156.16267485762415 102.79048224398402 L 146 107 L 156.16267485762415 111.20951775601598" stroke-miterlimit="10"/></g><g transform="translate(-1,2) scale(1,1)"><g><path fill="none" stroke="none"/><text fill="#000000" stroke="none" font-family="Arial" font-size="13px" font-style="normal" font-weight="normal" text-decoration="none" x="182" y="100">1 : AskRequestPage</text></g></g><g transform="translate(-1,2) scale(1,1)"><rect fill="#ffffff" stroke="none" x="133" y="107" width="13" height="37"/></g><g transform="translate(-1,2) scale(1,1)"><path fill="none" stroke="#000000" d="M 133 107 L 146 107 L 146 144 L 133 144 L 133 107 Z Z" stroke-miterlimit="10"/></g><g transform="translate(-1,2) scale(1,1)"><path fill="none" stroke="#000000" d="M 140 144 L 340 144" stroke-miterlimit="10" stroke-dasharray="3"/></g><g transform="translate(-1,2) scale(1,1)"><path fill="none" stroke="#000000" d="M 329.83732514237585 148.209517756016 L 340 144 L 329.83732514237585 139.790482243984" stroke-miterlimit="10"/></g><g transform="translate(-1,2) scale(1,1)"><g><path fill="none" stroke="none"/><text fill="#000000" stroke="none" font-family="Arial" font-size="13px" font-style="normal" font-weight="normal" text-decoration="none" x="231" y="141">2 : </text></g></g><g transform="translate(-1,2) scale(1,1)"><path fill="none" stroke="#000000" d="M 340 198 L 146 198" stroke-miterlimit="10"/></g><g transform="translate(-1,2) scale(1,1)"><path fill="#000000" stroke="none" d="M 156.16267485762415 193.790482243984 L 146 198 L 156.16267485762415 202.209517756016"/></g><g transform="translate(-1,2) scale(1,1)"><path fill="none" stroke="#000000" d="M 156.16267485762415 193.790482243984 L 146 198 L 156.16267485762415 202.209517756016 L 156.16267485762415 193.790482243984" stroke-miterlimit="10"/></g><g transform="translate(-1,2) scale(1,1)"><g><path fill="none" stroke="none"/><text fill="#000000" stroke="none" font-family="Arial" font-size="13px" font-style="normal" font-weight="normal" text-decoration="none" x="179" y="196">3 : ConfirmAvailability</text></g></g><g transform="translate(-1,2) scale(1,1)"><rect fill="#ffffff" stroke="none" x="133" y="198" width="13" height="98"/></g><g transform="translate(-1,2) scale(1,1)"><path fill="none" stroke="#000000" d="M 133 198 L 146 198 L 146 296 L 133 296 L 133 198 Z Z" stroke-miterlimit="10"/></g><g transform="translate(-1,2) scale(1,1)"><path fill="none" stroke="#000000" d="M 146 232 L 176 232 L 176 252 L 153 252" stroke-miterlimit="10"/></g><g transform="translate(-1,2) scale(1,1)"><path fill="#000000" stroke="none" d="M 163.16267485762415 247.790482243984 L 153 252 L 163.16267485762415 256.209517756016"/></g><g transform="translate(-1,2) scale(1,1)"><path fill="none" stroke="#000000" d="M 163.16267485762415 247.790482243984 L 153 252 L 163.16267485762415 256.209517756016 L 163.16267485762415 247.790482243984" stroke-miterlimit="10"/></g><g transform="translate(-1,2) scale(1,1)"><g><path fill="none" stroke="none"/><text fill="#000000" stroke="none" font-family="Arial" font-size="13px" font-style="normal" font-weight="normal" text-decoration="none" x="183" y="245">4 : Update Queue</text></g></g><g transform="translate(-1,2) scale(1,1)"><rect fill="#ffffff" stroke="none" x="140" y="252" width="13" height="28"/></g><g transform="translate(-1,2) scale(1,1)"><path fill="none" stroke="#000000" d="M 140 252 L 153 252 L 153 280 L 140 280 L 140 252 Z Z" stroke-miterlimit="10"/></g><g transform="translate(-1,2) scale(1,1)"><path fill="none" stroke="#000000" d="M 140 296 L 333 296" stroke-miterlimit="10"/></g><g transform="translate(-1,2) scale(1,1)"><path fill="#000000" stroke="none" d="M 322.83732514237585 300.209517756016 L 333 296 L 322.83732514237585 291.790482243984"/></g><g transform="translate(-1,2) scale(1,1)"><path fill="none" stroke="#000000" d="M 322.83732514237585 300.209517756016 L 333 296 L 322.83732514237585 291.790482243984 L 322.83732514237585 300.209517756016" stroke-miterlimit="10"/></g><g transform="translate(-1,2) scale(1,1)"><g><path fill="none" stroke="none"/><text fill="#000000" stroke="none" font-family="Arial" font-size="13px" font-style="normal" font-weight="normal" text-decoration="none" x="181" y="293">5 : ConfirmRequest</text></g></g><g transform="translate(-1,2) scale(1,1)"><rect fill="#ffffff" stroke="none" x="333" y="296" width="13" height="28"/></g><g transform="translate(-1,2) scale(1,1)"><path fill="none" stroke="#000000" d="M 333 296 L 346 296 L 346 324 L 333 324 L 333 296 Z Z" stroke-miterlimit="10"/></g><g transform="translate(-1,2) scale(1,1)"><path fill="none" stroke="#000000" d="M 340 372 L 146 372" stroke-miterlimit="10"/></g><g transform="translate(-1,2) scale(1,1)"><path fill="#000000" stroke="none" d="M 156.16267485762415 367.790482243984 L 146 372 L 156.16267485762415 376.209517756016"/></g><g transform="translate(-1,2) scale(1,1)"><path fill="none" stroke="#000000" d="M 156.16267485762415 367.790482243984 L 146 372 L 156.16267485762415 376.209517756016 L 156.16267485762415 367.790482243984" stroke-miterlimit="10"/></g><g transform="translate(-1,2) scale(1,1)"><g><path fill="none" stroke="none"/><text fill="#000000" stroke="none" font-family="Arial" font-size="13px" font-style="normal" font-weight="normal" text-decoration="none" x="210" y="364">6 : EndRun</text></g></g><g transform="translate(-1,2) scale(1,1)"><rect fill="#ffffff" stroke="none" x="133" y="372" width="13" height="86"/></g><g transform="translate(-1,2) scale(1,1)"><path fill="none" stroke="#000000" d="M 133 372 L 146 372 L 146 458 L 133 458 L 133 372 Z Z" stroke-miterlimit="10"/></g><g transform="translate(-1,2) scale(1,1)"><path fill="none" stroke="#000000" d="M 146 384 L 176 384 L 176 404 L 153 404" stroke-miterlimit="10"/></g><g transform="translate(-1,2) scale(1,1)"><path fill="#000000" stroke="none" d="M 163.16267485762415 399.790482243984 L 153 404 L 163.16267485762415 408.209517756016"/></g><g transform="translate(-1,2) scale(1,1)"><path fill="none" stroke="#000000" d="M 163.16267485762415 399.790482243984 L 153 404 L 163.16267485762415 408.209517756016 L 163.16267485762415 399.790482243984" stroke-miterlimit="10"/></g><g transform="translate(-1,2) scale(1,1)"><g><path fill="none" stroke="none"/><text fill="#000000" stroke="none" font-family="Arial" font-size="13px" font-style="normal" font-weight="normal" text-decoration="none" x="182" y="413">7 : Update Queue</text></g></g><g transform="translate(-1,2) scale(1,1)"><rect fill="#ffffff" stroke="none" x="140" y="404" width="13" height="35"/></g><g transform="translate(-1,2) scale(1,1)"><path fill="none" stroke="#000000" d="M 140 404 L 153 404 L 153 439 L 140 439 L 140 404 Z Z" stroke-miterlimit="10"/></g><g transform="translate(-1,2) scale(1,1)"><path fill="none" stroke="#000000" d="M 340 528 L 146 528" stroke-miterlimit="10"/></g><g transform="translate(-1,2) scale(1,1)"><path fill="#000000" stroke="none" d="M 156.16267485762415 523.790482243984 L 146 528 L 156.16267485762415 532.209517756016"/></g><g transform="translate(-1,2) scale(1,1)"><path fill="none" stroke="#000000" d="M 156.16267485762415 523.790482243984 L 146 528 L 156.16267485762415 532.209517756016 L 156.16267485762415 523.790482243984" stroke-miterlimit="10"/></g><g transform="translate(-1,2) scale(1,1)"><g><path fill="none" stroke="none"/><text fill="#000000" stroke="none" font-family="Arial" font-size="13px" font-style="normal" font-weight="normal" text-decoration="none" x="192" y="524">8 : NotifyProblem</text></g></g><g transform="translate(-1,2) scale(1,1)"><rect fill="#ffffff" stroke="none" x="133" y="528" width="13" height="28"/></g><g transform="translate(-1,2) scale(1,1)"><path fill="none" stroke="#000000" d="M 133 528 L 146 528 L 146 556 L 133 556 L 133 528 Z Z" stroke-miterlimit="10"/></g><g transform="translate(-1,2) scale(1,1)"><path fill="none" stroke="#000000" d="M 146 548 L 340 548" stroke-miterlimit="10" stroke-dasharray="3"/></g><g transform="translate(-1,2) scale(1,1)"><path fill="none" stroke="#000000" d="M 329.83732514237585 552.209517756016 L 340 548 L 329.83732514237585 543.790482243984" stroke-miterlimit="10"/></g><g transform="translate(-1,2) scale(1,1)"><g><path fill="none" stroke="none"/><text fill="#000000" stroke="none" font-family="Arial" font-size="13px" font-style="normal" font-weight="normal" text-decoration="none" x="234" y="545">9 : </text></g></g><g transform="translate(-1,2) scale(1,1)"><path fill="none" stroke="#000000" d="M 140 584 L 170 584 L 170 604 L 146 604" stroke-miterlimit="10"/></g><g transform="translate(-1,2) scale(1,1)"><path fill="#000000" stroke="none" d="M 156.16267485762415 599.790482243984 L 146 604 L 156.16267485762415 608.209517756016"/></g><g transform="translate(-1,2) scale(1,1)"><path fill="none" stroke="#000000" d="M 156.16267485762415 599.790482243984 L 146 604 L 156.16267485762415 608.209517756016 L 156.16267485762415 599.790482243984" stroke-miterlimit="10"/></g><g transform="translate(-1,2) scale(1,1)"><g><path fill="none" stroke="none"/><text fill="#000000" stroke="none" font-family="Arial" font-size="13px" font-style="normal" font-weight="normal" text-decoration="none" x="176" y="599">10 : TimeOut</text></g></g><g transform="translate(-1,2) scale(1,1)"><rect fill="#ffffff" stroke="none" x="133" y="604" width="13" height="28"/></g><g transform="translate(-1,2) scale(1,1)"><path fill="none" stroke="#000000" d="M 133 604 L 146 604 L 146 632 L 133 632 L 133 604 Z Z" stroke-miterlimit="10"/></g><g transform="translate(-1,2) scale(1,1)"><path fill="none" stroke="#000000" d="M 146 627 L 333 627" stroke-miterlimit="10"/></g><g transform="translate(-1,2) scale(1,1)"><path fill="#000000" stroke="none" d="M 322.83732514237585 631.209517756016 L 333 627 L 322.83732514237585 622.790482243984"/></g><g transform="translate(-1,2) scale(1,1)"><path fill="none" stroke="#000000" d="M 322.83732514237585 631.209517756016 L 333 627 L 322.83732514237585 622.790482243984 L 322.83732514237585 631.209517756016" stroke-miterlimit="10"/></g><g transform="translate(-1,2) scale(1,1)"><g><path fill="none" stroke="none"/><text fill="#000000" stroke="none" font-family="Arial" font-size="13px" font-style="normal" font-weight="normal" text-decoration="none" x="195" y="624">11 : CancelRun</text></g></g><g transform="translate(-1,2) scale(1,1)"><rect fill="#ffffff" stroke="none" x="333" y="627" width="13" height="28"/></g><g transform="translate(-1,2) scale(1,1)"><path fill="none" stroke="#000000" d="M 333 627 L 346 627 L 346 655 L 333 655 L 333 627 Z Z" stroke-miterlimit="10"/></g><g transform="translate(-1,2) scale(1,1)"><path fill="none" stroke="#000000" d="M 140 712 L 170 712 L 170 732 L 146 732" stroke-miterlimit="10"/></g><g transform="translate(-1,2) scale(1,1)"><path fill="#000000" stroke="none" d="M 156.16267485762415 727.790482243984 L 146 732 L 156.16267485762415 736.209517756016"/></g><g transform="translate(-1,2) scale(1,1)"><path fill="none" stroke="#000000" d="M 156.16267485762415 727.790482243984 L 146 732 L 156.16267485762415 736.209517756016 L 156.16267485762415 727.790482243984" stroke-miterlimit="10"/></g><g transform="translate(-1,2) scale(1,1)"><g><path fill="none" stroke="none"/><text fill="#000000" stroke="none" font-family="Arial" font-size="13px" font-style="normal" font-weight="normal" text-decoration="none" x="175" y="725">12 : Update Queue</text></g></g><g transform="translate(-1,2) scale(1,1)"><rect fill="#ffffff" stroke="none" x="133" y="732" width="13" height="28"/></g><g transform="translate(-1,2) scale(1,1)"><path fill="none" stroke="#000000" d="M 133 732 L 146 732 L 146 760 L 133 760 L 133 732 Z Z" stroke-miterlimit="10"/></g><g transform="translate(-1,2) scale(1,1)"><path fill="none" stroke="#000000" d="M 340 857 L 146 857" stroke-miterlimit="10"/></g><g transform="translate(-1,2) scale(1,1)"><path fill="#000000" stroke="none" d="M 156.16267485762415 852.790482243984 L 146 857 L 156.16267485762415 861.209517756016"/></g><g transform="translate(-1,2) scale(1,1)"><path fill="none" stroke="#000000" d="M 156.16267485762415 852.790482243984 L 146 857 L 156.16267485762415 861.209517756016 L 156.16267485762415 852.790482243984" stroke-miterlimit="10"/></g><g transform="translate(-1,2) scale(1,1)"><g><path fill="none" stroke="none"/><text fill="#000000" stroke="none" font-family="Arial" font-size="13px" font-style="normal" font-weight="normal" text-decoration="none" x="178" y="874">13 : NegateAvailability</text></g></g><g transform="translate(-1,2) scale(1,1)"><rect fill="#ffffff" stroke="none" x="133" y="857" width="13" height="146"/></g><g transform="translate(-1,2) scale(1,1)"><path fill="none" stroke="#000000" d="M 133 857 L 146 857 L 146 1003 L 133 1003 L 133 857 Z Z" stroke-miterlimit="10"/></g><g transform="translate(-1,2) scale(1,1)"><path fill="none" stroke="#000000" d="M 146 936 L 176 936 L 176 956 L 153 956" stroke-miterlimit="10"/></g><g transform="translate(-1,2) scale(1,1)"><path fill="#000000" stroke="none" d="M 163.16267485762415 951.790482243984 L 153 956 L 163.16267485762415 960.209517756016"/></g><g transform="translate(-1,2) scale(1,1)"><path fill="none" stroke="#000000" d="M 163.16267485762415 951.790482243984 L 153 956 L 163.16267485762415 960.209517756016 L 163.16267485762415 951.790482243984" stroke-miterlimit="10"/></g><g transform="translate(-1,2) scale(1,1)"><g><path fill="none" stroke="none"/><text fill="#000000" stroke="none" font-family="Arial" font-size="13px" font-style="normal" font-weight="normal" text-decoration="none" x="11" y="956">14 : Update Queue</text></g></g><g transform="translate(-1,2) scale(1,1)"><rect fill="#ffffff" stroke="none" x="140" y="956" width="13" height="44"/></g><g transform="translate(-1,2) scale(1,1)"><path fill="none" stroke="#000000" d="M 140 956 L 153 956 L 153 1000 L 140 1000 L 140 956 Z Z" stroke-miterlimit="10"/></g><g transform="translate(-1,2) scale(1,1)"><path fill="none" stroke="#000000" d="M 146 1000 L 333 1000" stroke-miterlimit="10"/></g><g transform="translate(-1,2) scale(1,1)"><path fill="#000000" stroke="none" d="M 322.83732514237585 1004.209517756016 L 333 1000 L 322.83732514237585 995.790482243984"/></g><g transform="translate(-1,2) scale(1,1)"><path fill="none" stroke="#000000" d="M 322.83732514237585 1004.209517756016 L 333 1000 L 322.83732514237585 995.790482243984 L 322.83732514237585 1004.209517756016" stroke-miterlimit="10"/></g><g transform="translate(-1,2) scale(1,1)"><g><path fill="none" stroke="none"/><text fill="#000000" stroke="none" font-family="Arial" font-size="13px" font-style="normal" font-weight="normal" text-decoration="none" x="180" y="997">15 : ConfirmRequest</text></g></g><g transform="translate(-1,2) scale(1,1)"><rect fill="#ffffff" stroke="none" x="333" y="1000" width="13" height="28"/></g><g transform="translate(-1,2) scale(1,1)"><path fill="none" stroke="#000000" d="M 333 1000 L 346 1000 L 346 1028 L 333 1028 L 333 1000 Z Z" stroke-miterlimit="10"/></g></g></svg>