<svg version="1.1" xmlns="http://www.w3.org/2000/svg" xmlns:xlink="http://www.w3.org/1999/xlink" width="618" height="780"><defs/><g><g transform="translate(5,10) scale(1,1)"><path fill="none" stroke="#000000" d="M 5 0 L 584 0 L 584 760 L 5 760 L 5 0" stroke-miterlimit="10"/></g><g transform="translate(5,10) scale(1,1)"><path fill="#ffffff" stroke="none" d="M 5 0 L 5 22 L 237.07421875 22 L 248.07421875 11 L 248.07421875 0 L 5 0"/></g><g transform="translate(5,10) scale(1,1)"><path fill="none" stroke="#000000" d="M 5 0 L 5 22 L 237.07421875 22 L 248.07421875 11 L 248.07421875 0 L 5 0 L 5 0" stroke-miterlimit="10"/></g><g transform="translate(5,10) scale(1,1)"><g><path fill="none" stroke="none"/><text fill="#000000" stroke="none" font-family="Arial" font-size="13px" font-style="normal" font-weight="normal" text-decoration="none" x="75.97900390625" y="17.5">Manage your Personal Info</text></g></g><g transform="translate(5,10) scale(1,1)"><g><path fill="none" stroke="none"/><text fill="#000000" stroke="none" font-family="Arial" font-size="13px" font-style="normal" font-weight="bold" text-decoration="none" x="10" y="17.5">interaction</text></g></g><g transform="translate(5,10) scale(1,1)"><rect fill="#C0C0C0" stroke="none" x="31" y="47" width="135.33349609375" height="39" opacity="0.2"/></g><g transform="translate(5,10) scale(1,1)"><rect fill="#ffffff" stroke="none" x="24" y="40" width="135.33349609375" height="39"/></g><g transform="translate(5,10) scale(1,1)"><path fill="none" stroke="#000000" d="M 24 40 L 159.33349609375 40 L 159.33349609375 79 L 24 79 L 24 40 Z Z" stroke-miterlimit="10"/></g><g transform="translate(5,10) scale(1,1)"><g><path fill="none" stroke="none"/><text fill="#000000" stroke="none" font-family="Arial" font-size="13px" font-style="normal" font-weight="bold" text-decoration="none" x="37.134033203125" y="59.5">User or Taxi Driver</text></g></g><g transform="translate(5,10) scale(1,1)"><path fill="none" stroke="#000000" d="M 92.5 80 L 92.5 736" stroke-miterlimit="10" stroke-dasharray="3"/></g><g transform="translate(5,10) scale(1,1)"><rect fill="#C0C0C0" stroke="none" x="279" y="47" width="71.736328125" height="39" opacity="0.2"/></g><g transform="translate(5,10) scale(1,1)"><rect fill="#ffffff" stroke="none" x="272" y="40" width="71.736328125" height="39"/></g><g transform="translate(5,10) scale(1,1)"><path fill="none" stroke="#000000" d="M 272 40 L 343.736328125 40 L 343.736328125 79 L 272 79 L 272 40 Z Z" stroke-miterlimit="10"/></g><g transform="translate(5,10) scale(1,1)"><g><path fill="none" stroke="none"/><text fill="#000000" stroke="none" font-family="Arial" font-size="13px" font-style="normal" font-weight="bold" text-decoration="none" x="286.197265625" y="59.5">System</text></g></g><g transform="translate(5,10) scale(1,1)"><path fill="none" stroke="#000000" d="M 308.5 80 L 308.5 736" stroke-miterlimit="10" stroke-dasharray="3"/></g><g transform="translate(5,10) scale(1,1)"><path fill="none" stroke="#000000" d="M 64 232 L 359 232 L 359 728 L 64 728 L 64 232" stroke-miterlimit="10"/></g><g transform="translate(5,10) scale(1,1)"><path fill="#ffffff" stroke="none" d="M 64 232 L 64 254 L 175.3798828125 254 L 186.3798828125 243 L 186.3798828125 232 L 64 232"/></g><g transform="translate(5,10) scale(1,1)"><path fill="none" stroke="#000000" d="M 64 232 L 64 254 L 175.3798828125 254 L 186.3798828125 243 L 186.3798828125 232 L 64 232 L 64 232" stroke-miterlimit="10"/></g><g transform="translate(5,10) scale(1,1)"><g><path fill="none" stroke="none"/><text fill="#000000" stroke="none" font-family="Arial" font-size="13px" font-style="normal" font-weight="normal" text-decoration="none" x="93.07177734375" y="249.5">Modify profile</text></g></g><g transform="translate(5,10) scale(1,1)"><g><path fill="none" stroke="none"/><text fill="#000000" stroke="none" font-family="Arial" font-size="13px" font-style="normal" font-weight="bold" text-decoration="none" x="69" y="249.5">opt</text></g></g><g transform="translate(5,10) scale(1,1)"><path fill="none" stroke="#000000" d="M 72 400 L 344 400 L 344 712 L 72 712 L 72 400" stroke-miterlimit="10"/></g><g transform="translate(5,10) scale(1,1)"><path fill="#ffffff" stroke="none" d="M 72 400 L 72 422 L 209.3798828125 422 L 220.3798828125 411 L 220.3798828125 400 L 72 400"/></g><g transform="translate(5,10) scale(1,1)"><path fill="none" stroke="#000000" d="M 72 400 L 72 422 L 209.3798828125 422 L 220.3798828125 411 L 220.3798828125 400 L 72 400 L 72 400" stroke-miterlimit="10"/></g><g transform="translate(5,10) scale(1,1)"><g><path fill="none" stroke="none"/><text fill="#000000" stroke="none" font-family="Arial" font-size="13px" font-style="normal" font-weight="normal" text-decoration="none" x="96.72998046875" y="417.5">Check correctness</text></g></g><g transform="translate(5,10) scale(1,1)"><g><path fill="none" stroke="none"/><text fill="#000000" stroke="none" font-family="Arial" font-size="13px" font-style="normal" font-weight="bold" text-decoration="none" x="77" y="417.5">alt</text></g></g><g transform="translate(5,10) scale(1,1)"><path fill="none" stroke="#000000" d="M 72 593 L 344 593" stroke-miterlimit="10" stroke-dasharray="10,3"/></g><g transform="translate(5,10) scale(1,1)"><g><path fill="none" stroke="none"/><text fill="#000000" stroke="none" font-family="Arial" font-size="9px" font-style="normal" font-weight="normal" text-decoration="none" x="101" y="438">[correct informations]</text></g></g><g transform="translate(5,10) scale(1,1)"><g><path fill="none" stroke="none"/><text fill="#000000" stroke="none" font-family="Arial" font-size="9px" font-style="normal" font-weight="normal" text-decoration="none" x="117" y="614">[wrong informations]</text></g></g><g transform="translate(5,10) scale(1,1)"><rect fill="#C0C0C0" stroke="none" x="463" y="47" width="40" height="39" opacity="0.2"/></g><g transform="translate(5,10) scale(1,1)"><rect fill="#ffffff" stroke="none" x="456" y="40" width="40" height="39"/></g><g transform="translate(5,10) scale(1,1)"><path fill="none" stroke="#000000" d="M 456 40 L 496 40 L 496 79 L 456 79 L 456 40 Z Z" stroke-miterlimit="10"/></g><g transform="translate(5,10) scale(1,1)"><g><path fill="none" stroke="none"/><text fill="#000000" stroke="none" font-family="Arial" font-size="13px" font-style="normal" font-weight="bold" text-decoration="none" x="472.385009765625" y="59.5">a</text></g></g><g transform="translate(5,10) scale(1,1)"><path fill="none" stroke="#000000" d="M 477.5 80 L 477.5 736" stroke-miterlimit="10" stroke-dasharray="3"/></g><g transform="translate(5,10) scale(1,1)"><g><path fill="none" stroke="none"/><text fill="#000000" stroke="none" font-family="Arial" font-size="13px" font-style="normal" font-weight="normal" text-decoration="none" x="461" y="26"> User    Taxi Driver</text></g></g><g transform="translate(5,10) scale(1,1)"><rect fill="#ffffff" stroke="none" x="456" y="32" width="49" height="49"/></g><g transform="translate(5,10) scale(1,1)"><path fill="none" stroke="#000000" d="M 456 32 L 505 32 L 505 81 L 456 81 L 456 32 Z Z" stroke-miterlimit="10"/></g><g transform="translate(5,10) scale(1,1)"><rect fill="#C0C0C0" stroke="none" x="527" y="47" width="29" height="39" opacity="0.2"/></g><g transform="translate(5,10) scale(1,1)"><rect fill="#ffffff" stroke="none" x="520" y="40" width="29" height="39"/></g><g transform="translate(5,10) scale(1,1)"><path fill="none" stroke="#000000" d="M 520 40 L 549 40 L 549 79 L 520 79 L 520 40 Z Z" stroke-miterlimit="10"/></g><g transform="translate(5,10) scale(1,1)"><g><path fill="none" stroke="none"/><text fill="#000000" stroke="none" font-family="Arial" font-size="13px" font-style="normal" font-weight="bold" text-decoration="none" x="530.885009765625" y="59.5">a</text></g></g><g transform="translate(5,10) scale(1,1)"><path fill="none" stroke="#000000" d="M 535.5 80 L 535.5 736" stroke-miterlimit="10" stroke-dasharray="3"/></g><g transform="translate(5,10) scale(1,1)"><rect fill="#ffffff" stroke="none" x="512" y="32" width="49" height="49"/></g><g transform="translate(5,10) scale(1,1)"><path fill="none" stroke="#000000" d="M 512 32 L 561 32 L 561 81 L 512 81 L 512 32 Z Z" stroke-miterlimit="10"/></g><g transform="translate(5,10) scale(1,1)"><path fill="none" stroke="#000000" d="M 296 416 L 552 416 L 552 552 L 296 552 L 296 416" stroke-miterlimit="10"/></g><g transform="translate(5,10) scale(1,1)"><path fill="#ffffff" stroke="none" d="M 296 416 L 296 438 L 437.67724609375 438 L 448.67724609375 427 L 448.67724609375 416 L 296 416"/></g><g transform="translate(5,10) scale(1,1)"><path fill="none" stroke="#000000" d="M 296 416 L 296 438 L 437.67724609375 438 L 448.67724609375 427 L 448.67724609375 416 L 296 416 L 296 416" stroke-miterlimit="10"/></g><g transform="translate(5,10) scale(1,1)"><g><path fill="none" stroke="none"/><text fill="#000000" stroke="none" font-family="Arial" font-size="13px" font-style="normal" font-weight="normal" text-decoration="none" x="320.72998046875" y="433.5">User Or Taxi Driver</text></g></g><g transform="translate(5,10) scale(1,1)"><g><path fill="none" stroke="none"/><text fill="#000000" stroke="none" font-family="Arial" font-size="13px" font-style="normal" font-weight="bold" text-decoration="none" x="301" y="433.5">alt</text></g></g><g transform="translate(5,10) scale(1,1)"><path fill="none" stroke="#000000" d="M 296 497 L 552 497" stroke-miterlimit="10" stroke-dasharray="10,3"/></g><g transform="translate(5,10) scale(1,1)"><path fill="none" stroke="#000000" d="M 92 133 L 301 133" stroke-miterlimit="10"/></g><g transform="translate(5,10) scale(1,1)"><path fill="#000000" stroke="none" d="M 290.83732514237585 137.209517756016 L 301 133 L 290.83732514237585 128.790482243984"/></g><g transform="translate(5,10) scale(1,1)"><path fill="none" stroke="#000000" d="M 290.83732514237585 137.209517756016 L 301 133 L 290.83732514237585 128.790482243984 L 290.83732514237585 137.209517756016" stroke-miterlimit="10"/></g><g transform="translate(5,10) scale(1,1)"><g><path fill="none" stroke="none"/><text fill="#000000" stroke="none" font-family="Arial" font-size="13px" font-style="normal" font-weight="normal" text-decoration="none" x="143" y="130">1 : AskProfilePage</text></g></g><g transform="translate(5,10) scale(1,1)"><rect fill="#ffffff" stroke="none" x="301" y="133" width="13" height="51"/></g><g transform="translate(5,10) scale(1,1)"><path fill="none" stroke="#000000" d="M 301 133 L 314 133 L 314 184 L 301 184 L 301 133 Z Z" stroke-miterlimit="10"/></g><g transform="translate(5,10) scale(1,1)"><path fill="none" stroke="#000000" d="M 308 184 L 92 184" stroke-miterlimit="10" stroke-dasharray="3"/></g><g transform="translate(5,10) scale(1,1)"><path fill="none" stroke="#000000" d="M 102.16267485762415 179.790482243984 L 92 184 L 102.16267485762415 188.209517756016" stroke-miterlimit="10"/></g><g transform="translate(5,10) scale(1,1)"><g><path fill="none" stroke="none"/><text fill="#000000" stroke="none" font-family="Arial" font-size="13px" font-style="normal" font-weight="normal" text-decoration="none" x="190" y="201">2 : </text></g></g><g transform="translate(5,10) scale(1,1)"><path fill="none" stroke="#000000" d="M 92 264 L 301 264" stroke-miterlimit="10"/></g><g transform="translate(5,10) scale(1,1)"><path fill="#000000" stroke="none" d="M 290.83732514237585 268.209517756016 L 301 264 L 290.83732514237585 259.790482243984"/></g><g transform="translate(5,10) scale(1,1)"><path fill="none" stroke="#000000" d="M 290.83732514237585 268.209517756016 L 301 264 L 290.83732514237585 259.790482243984 L 290.83732514237585 268.209517756016" stroke-miterlimit="10"/></g><g transform="translate(5,10) scale(1,1)"><g><path fill="none" stroke="none"/><text fill="#000000" stroke="none" font-family="Arial" font-size="13px" font-style="normal" font-weight="normal" text-decoration="none" x="128" y="277">3 : RequestToModify</text></g></g><g transform="translate(5,10) scale(1,1)"><rect fill="#ffffff" stroke="none" x="301" y="264" width="13" height="64"/></g><g transform="translate(5,10) scale(1,1)"><path fill="none" stroke="#000000" d="M 301 264 L 314 264 L 314 328 L 301 328 L 301 264 Z Z" stroke-miterlimit="10"/></g><g transform="translate(5,10) scale(1,1)"><path fill="none" stroke="#000000" d="M 308 328 L 98 328" stroke-miterlimit="10"/></g><g transform="translate(5,10) scale(1,1)"><path fill="#000000" stroke="none" d="M 108.16267485762415 323.790482243984 L 98 328 L 108.16267485762415 332.209517756016"/></g><g transform="translate(5,10) scale(1,1)"><path fill="none" stroke="#000000" d="M 108.16267485762415 323.790482243984 L 98 328 L 108.16267485762415 332.209517756016 L 108.16267485762415 323.790482243984" stroke-miterlimit="10"/></g><g transform="translate(5,10) scale(1,1)"><g><path fill="none" stroke="none"/><text fill="#000000" stroke="none" font-family="Arial" font-size="13px" font-style="normal" font-weight="normal" text-decoration="none" x="147" y="345">4 : ConfirmRequest</text></g></g><g transform="translate(5,10) scale(1,1)"><rect fill="#ffffff" stroke="none" x="85" y="328" width="13" height="28"/></g><g transform="translate(5,10) scale(1,1)"><path fill="none" stroke="#000000" d="M 85 328 L 98 328 L 98 356 L 85 356 L 85 328 Z Z" stroke-miterlimit="10"/></g><g transform="translate(5,10) scale(1,1)"><path fill="none" stroke="#000000" d="M 98 344 L 128 344 L 128 364 L 98 364" stroke-miterlimit="10"/></g><g transform="translate(5,10) scale(1,1)"><path fill="#000000" stroke="none" d="M 108.16267485762415 359.790482243984 L 98 364 L 108.16267485762415 368.209517756016"/></g><g transform="translate(5,10) scale(1,1)"><path fill="none" stroke="#000000" d="M 108.16267485762415 359.790482243984 L 98 364 L 108.16267485762415 368.209517756016 L 108.16267485762415 359.790482243984" stroke-miterlimit="10"/></g><g transform="translate(5,10) scale(1,1)"><g><path fill="none" stroke="none"/><text fill="#000000" stroke="none" font-family="Arial" font-size="13px" font-style="normal" font-weight="normal" text-decoration="none" x="142" y="365">5 : Fill form</text></g></g><g transform="translate(5,10) scale(1,1)"><rect fill="#ffffff" stroke="none" x="85" y="364" width="13" height="28"/></g><g transform="translate(5,10) scale(1,1)"><path fill="none" stroke="#000000" d="M 85 364 L 98 364 L 98 392 L 85 392 L 85 364 Z Z" stroke-miterlimit="10"/></g><g transform="translate(5,10) scale(1,1)"><path fill="none" stroke="#000000" d="M 92 392 L 301 392" stroke-miterlimit="10"/></g><g transform="translate(5,10) scale(1,1)"><path fill="#000000" stroke="none" d="M 290.83732514237585 396.209517756016 L 301 392 L 290.83732514237585 387.790482243984"/></g><g transform="translate(5,10) scale(1,1)"><path fill="none" stroke="#000000" d="M 290.83732514237585 396.209517756016 L 301 392 L 290.83732514237585 387.790482243984 L 290.83732514237585 396.209517756016" stroke-miterlimit="10"/></g><g transform="translate(5,10) scale(1,1)"><g><path fill="none" stroke="none"/><text fill="#000000" stroke="none" font-family="Arial" font-size="13px" font-style="normal" font-weight="normal" text-decoration="none" x="127" y="389">6 : SendNewInformation</text></g></g><g transform="translate(5,10) scale(1,1)"><rect fill="#ffffff" stroke="none" x="301" y="392" width="13" height="28"/></g><g transform="translate(5,10) scale(1,1)"><path fill="none" stroke="#000000" d="M 301 392 L 314 392 L 314 420 L 301 420 L 301 392 Z Z" stroke-miterlimit="10"/></g><g transform="translate(5,10) scale(1,1)"><path fill="none" stroke="#000000" d="M 308 464 L 470 464" stroke-miterlimit="10"/></g><g transform="translate(5,10) scale(1,1)"><path fill="none" stroke="#000000" d="M 459.83732514237585 468.209517756016 L 470 464 L 459.83732514237585 459.790482243984" stroke-miterlimit="10"/></g><g transform="translate(5,10) scale(1,1)"><g><path fill="none" stroke="none"/><text fill="#000000" stroke="none" font-family="Arial" font-size="13px" font-style="normal" font-weight="normal" text-decoration="none" x="368" y="461">7 : UpdateProfile{}</text></g></g><g transform="translate(5,10) scale(1,1)"><rect fill="#ffffff" stroke="none" x="470" y="464" width="13" height="28"/></g><g transform="translate(5,10) scale(1,1)"><path fill="none" stroke="#000000" d="M 470 464 L 483 464 L 483 492 L 470 492 L 470 464 Z Z" stroke-miterlimit="10"/></g><g transform="translate(5,10) scale(1,1)"><path fill="none" stroke="#000000" d="M 308 520 L 528 520" stroke-miterlimit="10"/></g><g transform="translate(5,10) scale(1,1)"><path fill="none" stroke="#000000" d="M 517.8373251423759 524.209517756016 L 528 520 L 517.8373251423758 515.790482243984" stroke-miterlimit="10"/></g><g transform="translate(5,10) scale(1,1)"><g><path fill="none" stroke="none"/><text fill="#000000" stroke="none" font-family="Arial" font-size="13px" font-style="normal" font-weight="normal" text-decoration="none" x="360" y="516">8 : UpdateProfile{}</text></g></g><g transform="translate(5,10) scale(1,1)"><rect fill="#ffffff" stroke="none" x="528" y="520" width="13" height="28"/></g><g transform="translate(5,10) scale(1,1)"><path fill="none" stroke="#000000" d="M 528 520 L 541 520 L 541 548 L 528 548 L 528 520 Z Z" stroke-miterlimit="10"/></g><g transform="translate(5,10) scale(1,1)"><path fill="none" stroke="#000000" d="M 308 560 L 98 560" stroke-miterlimit="10"/></g><g transform="translate(5,10) scale(1,1)"><path fill="#000000" stroke="none" d="M 108.16267485762415 555.790482243984 L 98 560 L 108.16267485762415 564.209517756016"/></g><g transform="translate(5,10) scale(1,1)"><path fill="none" stroke="#000000" d="M 108.16267485762415 555.790482243984 L 98 560 L 108.16267485762415 564.209517756016 L 108.16267485762415 555.790482243984" stroke-miterlimit="10"/></g><g transform="translate(5,10) scale(1,1)"><g><path fill="none" stroke="none"/><text fill="#000000" stroke="none" font-family="Arial" font-size="13px" font-style="normal" font-weight="normal" text-decoration="none" x="147" y="577">9 : ConfirmUpdates</text></g></g><g transform="translate(5,10) scale(1,1)"><rect fill="#ffffff" stroke="none" x="85" y="560" width="13" height="28"/></g><g transform="translate(5,10) scale(1,1)"><path fill="none" stroke="#000000" d="M 85 560 L 98 560 L 98 588 L 85 588 L 85 560 Z Z" stroke-miterlimit="10"/></g><g transform="translate(5,10) scale(1,1)"><path fill="none" stroke="#000000" d="M 308 624 L 98 624" stroke-miterlimit="10"/></g><g transform="translate(5,10) scale(1,1)"><path fill="#000000" stroke="none" d="M 108.16267485762415 619.790482243984 L 98 624 L 108.16267485762415 628.209517756016"/></g><g transform="translate(5,10) scale(1,1)"><path fill="none" stroke="#000000" d="M 108.16267485762415 619.790482243984 L 98 624 L 108.16267485762415 628.209517756016 L 108.16267485762415 619.790482243984" stroke-miterlimit="10"/></g><g transform="translate(5,10) scale(1,1)"><g><path fill="none" stroke="none"/><text fill="#000000" stroke="none" font-family="Arial" font-size="13px" font-style="normal" font-weight="normal" text-decoration="none" x="134" y="641">10 : SendErrorMessage</text></g></g><g transform="translate(5,10) scale(1,1)"><rect fill="#ffffff" stroke="none" x="85" y="624" width="13" height="32"/></g><g transform="translate(5,10) scale(1,1)"><path fill="none" stroke="#000000" d="M 85 624 L 98 624 L 98 656 L 85 656 L 85 624 Z Z" stroke-miterlimit="10"/></g><g transform="translate(5,10) scale(1,1)"><path fill="none" stroke="#000000" d="M 92 656 L 301 656" stroke-miterlimit="10"/></g><g transform="translate(5,10) scale(1,1)"><path fill="#000000" stroke="none" d="M 290.83732514237585 660.209517756016 L 301 656 L 290.83732514237585 651.790482243984"/></g><g transform="translate(5,10) scale(1,1)"><path fill="none" stroke="#000000" d="M 290.83732514237585 660.209517756016 L 301 656 L 290.83732514237585 651.790482243984 L 290.83732514237585 660.209517756016" stroke-miterlimit="10"/></g><g transform="translate(5,10) scale(1,1)"><g><path fill="none" stroke="none"/><text fill="#000000" stroke="none" font-family="Arial" font-size="13px" font-style="normal" font-weight="normal" text-decoration="none" x="133" y="668">11 : OkButtonPressed</text></g></g><g transform="translate(5,10) scale(1,1)"><rect fill="#ffffff" stroke="none" x="301" y="656" width="13" height="28"/></g><g transform="translate(5,10) scale(1,1)"><path fill="none" stroke="#000000" d="M 301 656 L 314 656 L 314 684 L 301 684 L 301 656 Z Z" stroke-miterlimit="10"/></g></g></svg>