<svg version="1.1" xmlns="http://www.w3.org/2000/svg" xmlns:xlink="http://www.w3.org/1999/xlink" width="804" height="1063"><defs/><g><g transform="translate(-6,10) scale(1,1)"><path fill="none" stroke="#000000" d="M 16 0 L 800 0 L 800 1043 L 16 1043 L 16 0" stroke-miterlimit="10"/></g><g transform="translate(-6,10) scale(1,1)"><path fill="#ffffff" stroke="none" d="M 16 0 L 16 22 L 168.56982421875 22 L 179.56982421875 11 L 179.56982421875 0 L 16 0"/></g><g transform="translate(-6,10) scale(1,1)"><path fill="none" stroke="#000000" d="M 16 0 L 16 22 L 168.56982421875 22 L 179.56982421875 11 L 179.56982421875 0 L 16 0 L 16 0" stroke-miterlimit="10"/></g><g transform="translate(-6,10) scale(1,1)"><g><path fill="none" stroke="none"/><text fill="#000000" stroke="none" font-family="Arial" font-size="13px" font-style="normal" font-weight="normal" text-decoration="none" x="86.97900390625" y="17.5">Taxi Request</text></g></g><g transform="translate(-6,10) scale(1,1)"><g><path fill="none" stroke="none"/><text fill="#000000" stroke="none" font-family="Arial" font-size="13px" font-style="normal" font-weight="bold" text-decoration="none" x="21" y="17.5">interaction</text></g></g><g transform="translate(-6,10) scale(1,1)"><rect fill="#C0C0C0" stroke="none" x="55" y="47" width="71.736328125" height="39" opacity="0.2"/></g><g transform="translate(-6,10) scale(1,1)"><rect fill="#ffffff" stroke="none" x="48" y="40" width="71.736328125" height="39"/></g><g transform="translate(-6,10) scale(1,1)"><path fill="none" stroke="#000000" d="M 48 40 L 119.736328125 40 L 119.736328125 79 L 48 79 L 48 40 Z Z" stroke-miterlimit="10"/></g><g transform="translate(-6,10) scale(1,1)"><g><path fill="none" stroke="none"/><text fill="#000000" stroke="none" font-family="Arial" font-size="13px" font-style="normal" font-weight="bold" text-decoration="none" x="70.14453125" y="59.5">User</text></g></g><g transform="translate(-6,10) scale(1,1)"><path fill="none" stroke="#000000" d="M 84.5 80 L 84.5 1018" stroke-miterlimit="10" stroke-dasharray="3"/></g><g transform="translate(-6,10) scale(1,1)"><rect fill="#C0C0C0" stroke="none" x="343" y="47" width="71.736328125" height="39" opacity="0.2"/></g><g transform="translate(-6,10) scale(1,1)"><rect fill="#ffffff" stroke="none" x="336" y="40" width="71.736328125" height="39"/></g><g transform="translate(-6,10) scale(1,1)"><path fill="none" stroke="#000000" d="M 336 40 L 407.736328125 40 L 407.736328125 79 L 336 79 L 336 40 Z Z" stroke-miterlimit="10"/></g><g transform="translate(-6,10) scale(1,1)"><g><path fill="none" stroke="none"/><text fill="#000000" stroke="none" font-family="Arial" font-size="13px" font-style="normal" font-weight="bold" text-decoration="none" x="350.197265625" y="59.5">System</text></g></g><g transform="translate(-6,10) scale(1,1)"><path fill="none" stroke="#000000" d="M 372.5 80 L 372.5 1018" stroke-miterlimit="10" stroke-dasharray="3"/></g><g transform="translate(-6,10) scale(1,1)"><path fill="none" stroke="#000000" d="M 40 408 L 416 408 L 416 1008 L 40 1008 L 40 408" stroke-miterlimit="10"/></g><g transform="translate(-6,10) scale(1,1)"><path fill="#ffffff" stroke="none" d="M 40 408 L 40 430 L 102.96630859375 430 L 113.96630859375 419 L 113.96630859375 408 L 40 408"/></g><g transform="translate(-6,10) scale(1,1)"><path fill="none" stroke="#000000" d="M 40 408 L 40 430 L 102.96630859375 430 L 113.96630859375 419 L 113.96630859375 408 L 40 408 L 40 408" stroke-miterlimit="10"/></g><g transform="translate(-6,10) scale(1,1)"><g><path fill="none" stroke="none"/><text fill="#000000" stroke="none" font-family="Arial" font-size="13px" font-style="normal" font-weight="normal" text-decoration="none" x="64.72998046875" y="425.5">Reply</text></g></g><g transform="translate(-6,10) scale(1,1)"><g><path fill="none" stroke="none"/><text fill="#000000" stroke="none" font-family="Arial" font-size="13px" font-style="normal" font-weight="bold" text-decoration="none" x="45" y="425.5">alt</text></g></g><g transform="translate(-6,10) scale(1,1)"><path fill="none" stroke="#000000" d="M 40 857 L 416 857" stroke-miterlimit="10" stroke-dasharray="10,3"/></g><g transform="translate(-6,10) scale(1,1)"><g><path fill="none" stroke="none"/><text fill="#000000" stroke="none" font-family="Arial" font-size="13px" font-style="normal" font-weight="normal" text-decoration="none" x="93" y="874">[Incorrect information]</text></g></g><g transform="translate(-6,10) scale(1,1)"><path fill="none" stroke="#000000" d="M 40 208 L 280 208 L 280 296 L 40 296 L 40 208" stroke-miterlimit="10"/></g><g transform="translate(-6,10) scale(1,1)"><path fill="#ffffff" stroke="none" d="M 40 208 L 40 230 L 144.8798828125 230 L 155.8798828125 219 L 155.8798828125 208 L 40 208"/></g><g transform="translate(-6,10) scale(1,1)"><path fill="none" stroke="#000000" d="M 40 208 L 40 230 L 144.8798828125 230 L 155.8798828125 219 L 155.8798828125 208 L 40 208 L 40 208" stroke-miterlimit="10"/></g><g transform="translate(-6,10) scale(1,1)"><g><path fill="none" stroke="none"/><text fill="#000000" stroke="none" font-family="Arial" font-size="13px" font-style="normal" font-weight="normal" text-decoration="none" x="69.07177734375" y="225.5">Taxi sharing</text></g></g><g transform="translate(-6,10) scale(1,1)"><g><path fill="none" stroke="none"/><text fill="#000000" stroke="none" font-family="Arial" font-size="13px" font-style="normal" font-weight="bold" text-decoration="none" x="45" y="225.5">opt</text></g></g><g transform="translate(-6,10) scale(1,1)"><path fill="none" stroke="#000000" d="M 40 304 L 280 304 L 280 376 L 40 376 L 40 304" stroke-miterlimit="10"/></g><g transform="translate(-6,10) scale(1,1)"><path fill="#ffffff" stroke="none" d="M 40 304 L 40 326 L 147.78076171875 326 L 158.78076171875 315 L 158.78076171875 304 L 40 304"/></g><g transform="translate(-6,10) scale(1,1)"><path fill="none" stroke="#000000" d="M 40 304 L 40 326 L 147.78076171875 326 L 158.78076171875 315 L 158.78076171875 304 L 40 304 L 40 304" stroke-miterlimit="10"/></g><g transform="translate(-6,10) scale(1,1)"><g><path fill="none" stroke="none"/><text fill="#000000" stroke="none" font-family="Arial" font-size="13px" font-style="normal" font-weight="normal" text-decoration="none" x="69.07177734375" y="321.5">Taxi booking</text></g></g><g transform="translate(-6,10) scale(1,1)"><g><path fill="none" stroke="none"/><text fill="#000000" stroke="none" font-family="Arial" font-size="13px" font-style="normal" font-weight="bold" text-decoration="none" x="45" y="321.5">opt</text></g></g><g transform="translate(-6,10) scale(1,1)"><rect fill="#C0C0C0" stroke="none" x="543" y="47" width="82.5908203125" height="39" opacity="0.2"/></g><g transform="translate(-6,10) scale(1,1)"><rect fill="#ffffff" stroke="none" x="536" y="40" width="82.5908203125" height="39"/></g><g transform="translate(-6,10) scale(1,1)"><path fill="none" stroke="#000000" d="M 536 40 L 618.5908203125 40 L 618.5908203125 79 L 536 79 L 536 40 Z Z" stroke-miterlimit="10"/></g><g transform="translate(-6,10) scale(1,1)"><g><path fill="none" stroke="none"/><text fill="#000000" stroke="none" font-family="Arial" font-size="13px" font-style="normal" font-weight="bold" text-decoration="none" x="547.68359375" y="59.5">TaxiDriver</text></g></g><g transform="translate(-6,10) scale(1,1)"><path fill="none" stroke="#000000" d="M 578.5 80 L 578.5 857" stroke-miterlimit="10" stroke-dasharray="3"/></g><g transform="translate(-6,10) scale(1,1)"><path fill="none" stroke="#000000" d="M 336 504 L 616 504 L 616 664 L 336 664 L 336 504" stroke-miterlimit="10"/></g><g transform="translate(-6,10) scale(1,1)"><path fill="#ffffff" stroke="none" d="M 336 504 L 336 526 L 576.76416015625 526 L 587.76416015625 515 L 587.76416015625 504 L 336 504"/></g><g transform="translate(-6,10) scale(1,1)"><path fill="none" stroke="#000000" d="M 336 504 L 336 526 L 576.76416015625 526 L 587.76416015625 515 L 587.76416015625 504 L 336 504 L 336 504" stroke-miterlimit="10"/></g><g transform="translate(-6,10) scale(1,1)"><g><path fill="none" stroke="none"/><text fill="#000000" stroke="none" font-family="Arial" font-size="13px" font-style="normal" font-weight="normal" text-decoration="none" x="371.578125" y="521.5">Until repeated queue or Taxi found</text></g></g><g transform="translate(-6,10) scale(1,1)"><g><path fill="none" stroke="none"/><text fill="#000000" stroke="none" font-family="Arial" font-size="13px" font-style="normal" font-weight="bold" text-decoration="none" x="341" y="521.5">loop</text></g></g><g transform="translate(-6,10) scale(1,1)"><path fill="none" stroke="#000000" d="M 336 680 L 616 680 L 616 848 L 336 848 L 336 680" stroke-miterlimit="10"/></g><g transform="translate(-6,10) scale(1,1)"><path fill="#ffffff" stroke="none" d="M 336 680 L 336 702 L 465.41357421875 702 L 476.41357421875 691 L 476.41357421875 680 L 336 680"/></g><g transform="translate(-6,10) scale(1,1)"><path fill="none" stroke="#000000" d="M 336 680 L 336 702 L 465.41357421875 702 L 476.41357421875 691 L 476.41357421875 680 L 336 680 L 336 680" stroke-miterlimit="10"/></g><g transform="translate(-6,10) scale(1,1)"><g><path fill="none" stroke="none"/><text fill="#000000" stroke="none" font-family="Arial" font-size="13px" font-style="normal" font-weight="normal" text-decoration="none" x="360.72998046875" y="697.5">Taxi Driver Reply</text></g></g><g transform="translate(-6,10) scale(1,1)"><g><path fill="none" stroke="none"/><text fill="#000000" stroke="none" font-family="Arial" font-size="13px" font-style="normal" font-weight="bold" text-decoration="none" x="341" y="697.5">alt</text></g></g><g transform="translate(-6,10) scale(1,1)"><path fill="none" stroke="#000000" d="M 336 746 L 616 746" stroke-miterlimit="10" stroke-dasharray="10,3"/></g><g transform="translate(-6,10) scale(1,1)"><rect fill="#C0C0C0" stroke="none" x="663" y="47" width="48" height="39" opacity="0.2"/></g><g transform="translate(-6,10) scale(1,1)"><rect fill="#ffffff" stroke="none" x="656" y="40" width="48" height="39"/></g><g transform="translate(-6,10) scale(1,1)"><path fill="none" stroke="#000000" d="M 656 40 L 704 40 L 704 79 L 656 79 L 656 40 Z Z" stroke-miterlimit="10"/></g><g transform="translate(-6,10) scale(1,1)"><g><path fill="none" stroke="none"/><text fill="#000000" stroke="none" font-family="Arial" font-size="13px" font-style="normal" font-weight="bold" text-decoration="none" x="676.385009765625" y="59.5">a</text></g></g><g transform="translate(-6,10) scale(1,1)"><path fill="none" stroke="#000000" d="M 681.5 80 L 681.5 992" stroke-miterlimit="10" stroke-dasharray="3"/></g><g transform="translate(-6,10) scale(1,1)"><rect fill="#C0C0C0" stroke="none" x="735" y="47" width="48" height="39" opacity="0.2"/></g><g transform="translate(-6,10) scale(1,1)"><rect fill="#ffffff" stroke="none" x="728" y="40" width="48" height="39"/></g><g transform="translate(-6,10) scale(1,1)"><path fill="none" stroke="#000000" d="M 728 40 L 776 40 L 776 79 L 728 79 L 728 40 Z Z" stroke-miterlimit="10"/></g><g transform="translate(-6,10) scale(1,1)"><g><path fill="none" stroke="none"/><text fill="#000000" stroke="none" font-family="Arial" font-size="13px" font-style="normal" font-weight="bold" text-decoration="none" x="748.385009765625" y="59.5">b</text></g></g><g transform="translate(-6,10) scale(1,1)"><path fill="none" stroke="#000000" d="M 753.5 80 L 753.5 839" stroke-miterlimit="10" stroke-dasharray="3"/></g><g transform="translate(-6,10) scale(1,1)"><rect fill="#ffffff" stroke="none" x="656" y="32" width="55" height="48"/></g><g transform="translate(-6,10) scale(1,1)"><path fill="none" stroke="#000000" d="M 656 32 L 711 32 L 711 80 L 656 80 L 656 32 Z Z" stroke-miterlimit="10"/></g><g transform="translate(-6,10) scale(1,1)"><rect fill="#ffffff" stroke="none" x="728" y="32" width="49" height="48"/></g><g transform="translate(-6,10) scale(1,1)"><path fill="none" stroke="#000000" d="M 728 32 L 777 32 L 777 80 L 728 80 L 728 32 Z Z" stroke-miterlimit="10"/></g><g transform="translate(-6,10) scale(1,1)"><g><path fill="none" stroke="none"/><text fill="#000000" stroke="none" font-family="Arial" font-size="13px" font-style="normal" font-weight="normal" text-decoration="none" x="637" y="26">Queue Manager</text></g></g><g transform="translate(-6,10) scale(1,1)"><g><path fill="none" stroke="none"/><text fill="#000000" stroke="none" font-family="Arial" font-size="13px" font-style="normal" font-weight="normal" text-decoration="none" x="741" y="26">Ride</text></g></g><g transform="translate(-6,10) scale(1,1)"><path fill="#ffffff" stroke="none" d="M 432 216 L 502.8798828125 216 L 512.8798828125 226 L 512.8798828125 291 L 432 291 L 432 216"/></g><g transform="translate(-6,10) scale(1,1)"><path fill="none" stroke="#000000" d="M 432 216 L 502.8798828125 216 L 512.8798828125 226 L 512.8798828125 291 L 432 291 L 432 216 L 432 216" stroke-miterlimit="10"/></g><g transform="translate(-6,10) scale(1,1)"><path fill="none" stroke="#000000" d="M 502.8798828125 216 L 502.8798828125 226 L 512.8798828125 226 L 502.8798828125 216" stroke-miterlimit="10"/></g><g transform="translate(-6,10) scale(1,1)"><g><path fill="none" stroke="none"/><text fill="#000000" stroke="none" font-family="Arial" font-size="13px" font-style="normal" font-weight="normal" text-decoration="none" x="437" y="234">User must</text><text fill="#000000" stroke="none" font-family="Arial" font-size="13px" font-style="normal" font-weight="normal" text-decoration="none" x="437" y="247">compiles</text><text fill="#000000" stroke="none" font-family="Arial" font-size="13px" font-style="normal" font-weight="normal" text-decoration="none" x="437" y="260">the</text><text fill="#000000" stroke="none" font-family="Arial" font-size="13px" font-style="normal" font-weight="normal" text-decoration="none" x="437" y="273">destination</text></g></g><g transform="translate(-6,10) scale(1,1)"><path fill="none" stroke="#000000" d="M 281 253 L 431 254" stroke-miterlimit="10" stroke-dasharray="3"/></g><g transform="translate(-6,10) scale(1,1)"><path fill="none" stroke="#000000" d="M 281 307 L 431 265" stroke-miterlimit="10" stroke-dasharray="3"/></g><g transform="translate(-6,10) scale(1,1)"><path fill="none" stroke="#000000" d="M 84 120 L 365 120" stroke-miterlimit="10"/></g><g transform="translate(-6,10) scale(1,1)"><path fill="#000000" stroke="none" d="M 354.83732514237585 124.20951775601598 L 365 120 L 354.83732514237585 115.79048224398402"/></g><g transform="translate(-6,10) scale(1,1)"><path fill="none" stroke="#000000" d="M 354.83732514237585 124.20951775601598 L 365 120 L 354.83732514237585 115.79048224398402 L 354.83732514237585 124.20951775601598" stroke-miterlimit="10"/></g><g transform="translate(-6,10) scale(1,1)"><g><path fill="none" stroke="none"/><text fill="#000000" stroke="none" font-family="Arial" font-size="13px" font-style="normal" font-weight="normal" text-decoration="none" x="148" y="116">1 : AskTaxiRequestPage</text></g></g><g transform="translate(-6,10) scale(1,1)"><rect fill="#ffffff" stroke="none" x="365" y="120" width="13" height="28"/></g><g transform="translate(-6,10) scale(1,1)"><path fill="none" stroke="#000000" d="M 365 120 L 378 120 L 378 148 L 365 148 L 365 120 Z Z" stroke-miterlimit="10"/></g><g transform="translate(-6,10) scale(1,1)"><path fill="none" stroke="#000000" d="M 365 144 L 84 144" stroke-miterlimit="10" stroke-dasharray="3"/></g><g transform="translate(-6,10) scale(1,1)"><path fill="none" stroke="#000000" d="M 94.16267485762415 139.790482243984 L 84 144 L 94.16267485762415 148.209517756016" stroke-miterlimit="10"/></g><g transform="translate(-6,10) scale(1,1)"><g><path fill="none" stroke="none"/><text fill="#000000" stroke="none" font-family="Arial" font-size="13px" font-style="normal" font-weight="normal" text-decoration="none" x="214" y="161">2 : </text></g></g><g transform="translate(-6,10) scale(1,1)"><path fill="none" stroke="#000000" d="M 84 152 L 114 152 L 114 172 L 90 172" stroke-miterlimit="10"/></g><g transform="translate(-6,10) scale(1,1)"><path fill="#000000" stroke="none" d="M 100.16267485762415 167.790482243984 L 90 172 L 100.16267485762415 176.209517756016"/></g><g transform="translate(-6,10) scale(1,1)"><path fill="none" stroke="#000000" d="M 100.16267485762415 167.790482243984 L 90 172 L 100.16267485762415 176.209517756016 L 100.16267485762415 167.790482243984" stroke-miterlimit="10"/></g><g transform="translate(-6,10) scale(1,1)"><g><path fill="none" stroke="none"/><text fill="#000000" stroke="none" font-family="Arial" font-size="13px" font-style="normal" font-weight="normal" text-decoration="none" x="119" y="173">3 : Fill the form</text></g></g><g transform="translate(-6,10) scale(1,1)"><rect fill="#ffffff" stroke="none" x="77" y="172" width="13" height="28"/></g><g transform="translate(-6,10) scale(1,1)"><path fill="none" stroke="#000000" d="M 77 172 L 90 172 L 90 200 L 77 200 L 77 172 Z Z" stroke-miterlimit="10"/></g><g transform="translate(-6,10) scale(1,1)"><path fill="none" stroke="#000000" d="M 84 240 L 114 240 L 114 260 L 90 260" stroke-miterlimit="10"/></g><g transform="translate(-6,10) scale(1,1)"><path fill="#000000" stroke="none" d="M 100.16267485762415 255.790482243984 L 90 260 L 100.16267485762415 264.209517756016"/></g><g transform="translate(-6,10) scale(1,1)"><path fill="none" stroke="#000000" d="M 100.16267485762415 255.790482243984 L 90 260 L 100.16267485762415 264.209517756016 L 100.16267485762415 255.790482243984" stroke-miterlimit="10"/></g><g transform="translate(-6,10) scale(1,1)"><g><path fill="none" stroke="none"/><text fill="#000000" stroke="none" font-family="Arial" font-size="13px" font-style="normal" font-weight="normal" text-decoration="none" x="118" y="261">4 : fill Taxi sharing form</text></g></g><g transform="translate(-6,10) scale(1,1)"><rect fill="#ffffff" stroke="none" x="77" y="260" width="13" height="28"/></g><g transform="translate(-6,10) scale(1,1)"><path fill="none" stroke="#000000" d="M 77 260 L 90 260 L 90 288 L 77 288 L 77 260 Z Z" stroke-miterlimit="10"/></g><g transform="translate(-6,10) scale(1,1)"><path fill="none" stroke="#000000" d="M 84 328 L 114 328 L 114 348 L 90 348" stroke-miterlimit="10"/></g><g transform="translate(-6,10) scale(1,1)"><path fill="#000000" stroke="none" d="M 100.16267485762415 343.790482243984 L 90 348 L 100.16267485762415 352.209517756016"/></g><g transform="translate(-6,10) scale(1,1)"><path fill="none" stroke="#000000" d="M 100.16267485762415 343.790482243984 L 90 348 L 100.16267485762415 352.209517756016 L 100.16267485762415 343.790482243984" stroke-miterlimit="10"/></g><g transform="translate(-6,10) scale(1,1)"><g><path fill="none" stroke="none"/><text fill="#000000" stroke="none" font-family="Arial" font-size="13px" font-style="normal" font-weight="normal" text-decoration="none" x="128" y="344">5 : fill Taxi booking form</text></g></g><g transform="translate(-6,10) scale(1,1)"><rect fill="#ffffff" stroke="none" x="77" y="348" width="13" height="28"/></g><g transform="translate(-6,10) scale(1,1)"><path fill="none" stroke="#000000" d="M 77 348 L 90 348 L 90 376 L 77 376 L 77 348 Z Z" stroke-miterlimit="10"/></g><g transform="translate(-6,10) scale(1,1)"><path fill="none" stroke="#000000" d="M 84 384 L 365 384" stroke-miterlimit="10"/></g><g transform="translate(-6,10) scale(1,1)"><path fill="#000000" stroke="none" d="M 354.83732514237585 388.209517756016 L 365 384 L 354.83732514237585 379.790482243984"/></g><g transform="translate(-6,10) scale(1,1)"><path fill="none" stroke="#000000" d="M 354.83732514237585 388.209517756016 L 365 384 L 354.83732514237585 379.790482243984 L 354.83732514237585 388.209517756016" stroke-miterlimit="10"/></g><g transform="translate(-6,10) scale(1,1)"><g><path fill="none" stroke="none"/><text fill="#000000" stroke="none" font-family="Arial" font-size="13px" font-style="normal" font-weight="normal" text-decoration="none" x="174" y="397">6 : SendRequest</text></g></g><g transform="translate(-6,10) scale(1,1)"><rect fill="#ffffff" stroke="none" x="365" y="384" width="13" height="275"/></g><g transform="translate(-6,10) scale(1,1)"><path fill="none" stroke="#000000" d="M 365 384 L 378 384 L 378 659 L 365 659 L 365 384 Z Z" stroke-miterlimit="10"/></g><g transform="translate(-6,10) scale(1,1)"><path fill="none" stroke="#000000" d="M 365 456 L 90 456" stroke-miterlimit="10"/></g><g transform="translate(-6,10) scale(1,1)"><path fill="#000000" stroke="none" d="M 100.16267485762415 451.790482243984 L 90 456 L 100.16267485762415 460.209517756016"/></g><g transform="translate(-6,10) scale(1,1)"><path fill="none" stroke="#000000" d="M 100.16267485762415 451.790482243984 L 90 456 L 100.16267485762415 460.209517756016 L 100.16267485762415 451.790482243984" stroke-miterlimit="10"/></g><g transform="translate(-6,10) scale(1,1)"><g><path fill="none" stroke="none"/><text fill="#000000" stroke="none" font-family="Arial" font-size="13px" font-style="normal" font-weight="normal" text-decoration="none" x="100" y="477">7 : ConfirmRequest</text></g></g><g transform="translate(-6,10) scale(1,1)"><rect fill="#ffffff" stroke="none" x="77" y="456" width="13" height="379"/></g><g transform="translate(-6,10) scale(1,1)"><path fill="none" stroke="#000000" d="M 77 456 L 90 456 L 90 835 L 77 835 L 77 456 Z Z" stroke-miterlimit="10"/></g><g transform="translate(-6,10) scale(1,1)"><path fill="none" stroke="#000000" d="M 378 544 L 571 544" stroke-miterlimit="10"/></g><g transform="translate(-6,10) scale(1,1)"><path fill="#000000" stroke="none" d="M 560.8373251423759 548.209517756016 L 571 544 L 560.8373251423758 539.790482243984"/></g><g transform="translate(-6,10) scale(1,1)"><path fill="none" stroke="#000000" d="M 560.8373251423759 548.209517756016 L 571 544 L 560.8373251423758 539.790482243984 L 560.8373251423759 548.209517756016" stroke-miterlimit="10"/></g><g transform="translate(-6,10) scale(1,1)"><g><path fill="none" stroke="none"/><text fill="#000000" stroke="none" font-family="Arial" font-size="13px" font-style="normal" font-weight="normal" text-decoration="none" x="458" y="555">8 : SendRequest</text></g></g><g transform="translate(-6,10) scale(1,1)"><rect fill="#ffffff" stroke="none" x="571" y="544" width="13" height="248"/></g><g transform="translate(-6,10) scale(1,1)"><path fill="none" stroke="#000000" d="M 571 544 L 584 544 L 584 792 L 571 792 L 571 544 Z Z" stroke-miterlimit="10"/></g><g transform="translate(-6,10) scale(1,1)"><path fill="none" stroke="#000000" d="M 571 576 L 385 576" stroke-miterlimit="10"/></g><g transform="translate(-6,10) scale(1,1)"><path fill="#000000" stroke="none" d="M 395.16267485762415 571.790482243984 L 385 576 L 395.16267485762415 580.209517756016"/></g><g transform="translate(-6,10) scale(1,1)"><path fill="none" stroke="#000000" d="M 395.16267485762415 571.790482243984 L 385 576 L 395.16267485762415 580.209517756016 L 395.16267485762415 571.790482243984" stroke-miterlimit="10"/></g><g transform="translate(-6,10) scale(1,1)"><g><path fill="none" stroke="none"/><text fill="#000000" stroke="none" font-family="Arial" font-size="13px" font-style="normal" font-weight="normal" text-decoration="none" x="452" y="595">9 : RejectRequest</text></g></g><g transform="translate(-6,10) scale(1,1)"><rect fill="#ffffff" stroke="none" x="372" y="576" width="13" height="28"/></g><g transform="translate(-6,10) scale(1,1)"><path fill="none" stroke="#000000" d="M 372 576 L 385 576 L 385 604 L 372 604 L 372 576 Z Z" stroke-miterlimit="10"/></g><g transform="translate(-6,10) scale(1,1)"><path fill="none" stroke="#000000" d="M 378 608 L 408 608 L 408 628 L 385 628" stroke-miterlimit="10"/></g><g transform="translate(-6,10) scale(1,1)"><path fill="#000000" stroke="none" d="M 395.16267485762415 623.790482243984 L 385 628 L 395.16267485762415 632.209517756016"/></g><g transform="translate(-6,10) scale(1,1)"><path fill="none" stroke="#000000" d="M 395.16267485762415 623.790482243984 L 385 628 L 395.16267485762415 632.209517756016 L 395.16267485762415 623.790482243984" stroke-miterlimit="10"/></g><g transform="translate(-6,10) scale(1,1)"><g><path fill="none" stroke="none"/><text fill="#000000" stroke="none" font-family="Arial" font-size="13px" font-style="normal" font-weight="normal" text-decoration="none" x="453" y="629">10 : Update Queue</text></g></g><g transform="translate(-6,10) scale(1,1)"><rect fill="#ffffff" stroke="none" x="372" y="628" width="13" height="28"/></g><g transform="translate(-6,10) scale(1,1)"><path fill="none" stroke="#000000" d="M 372 628 L 385 628 L 385 656 L 372 656 L 372 628 Z Z" stroke-miterlimit="10"/></g><g transform="translate(-6,10) scale(1,1)"><path fill="none" stroke="#000000" d="M 385 648 L 674 648" stroke-miterlimit="10"/></g><g transform="translate(-6,10) scale(1,1)"><path fill="none" stroke="#000000" d="M 663.8373251423759 652.209517756016 L 674 648 L 663.8373251423758 643.790482243984" stroke-miterlimit="10"/></g><g transform="translate(-6,10) scale(1,1)"><g><path fill="none" stroke="none"/><text fill="#000000" stroke="none" font-family="Arial" font-size="13px" font-style="normal" font-weight="normal" text-decoration="none" x="406" y="661">11 : DeQueue(Taxi Driver)</text></g></g><g transform="translate(-6,10) scale(1,1)"><rect fill="#ffffff" stroke="none" x="674" y="648" width="13" height="28"/></g><g transform="translate(-6,10) scale(1,1)"><path fill="none" stroke="#000000" d="M 674 648 L 687 648 L 687 676 L 674 676 L 674 648 Z Z" stroke-miterlimit="10"/></g><g transform="translate(-6,10) scale(1,1)"><path fill="none" stroke="#000000" d="M 372 712 L 97 712" stroke-miterlimit="10"/></g><g transform="translate(-6,10) scale(1,1)"><path fill="#000000" stroke="none" d="M 107.16267485762415 707.790482243984 L 97 712 L 107.16267485762415 716.209517756016"/></g><g transform="translate(-6,10) scale(1,1)"><path fill="none" stroke="#000000" d="M 107.16267485762415 707.790482243984 L 97 712 L 107.16267485762415 716.209517756016 L 107.16267485762415 707.790482243984" stroke-miterlimit="10"/></g><g transform="translate(-6,10) scale(1,1)"><g><path fill="none" stroke="none"/><text fill="#000000" stroke="none" font-family="Arial" font-size="13px" font-style="normal" font-weight="normal" text-decoration="none" x="174" y="729">12 : NoTaxiAvailable</text></g></g><g transform="translate(-6,10) scale(1,1)"><rect fill="#ffffff" stroke="none" x="84" y="712" width="13" height="28"/></g><g transform="translate(-6,10) scale(1,1)"><path fill="none" stroke="#000000" d="M 84 712 L 97 712 L 97 740 L 84 740 L 84 712 Z Z" stroke-miterlimit="10"/></g><g transform="translate(-6,10) scale(1,1)"><path fill="none" stroke="#000000" d="M 571 760 L 378 760" stroke-miterlimit="10"/></g><g transform="translate(-6,10) scale(1,1)"><path fill="#000000" stroke="none" d="M 388.16267485762415 755.790482243984 L 378 760 L 388.16267485762415 764.209517756016"/></g><g transform="translate(-6,10) scale(1,1)"><path fill="none" stroke="#000000" d="M 388.16267485762415 755.790482243984 L 378 760 L 388.16267485762415 764.209517756016 L 388.16267485762415 755.790482243984" stroke-miterlimit="10"/></g><g transform="translate(-6,10) scale(1,1)"><g><path fill="none" stroke="none"/><text fill="#000000" stroke="none" font-family="Arial" font-size="13px" font-style="normal" font-weight="normal" text-decoration="none" x="432" y="775">13 : ConfirmRequest</text></g></g><g transform="translate(-6,10) scale(1,1)"><rect fill="#ffffff" stroke="none" x="365" y="760" width="13" height="83"/></g><g transform="translate(-6,10) scale(1,1)"><path fill="none" stroke="#000000" d="M 365 760 L 378 760 L 378 843 L 365 843 L 365 760 Z Z" stroke-miterlimit="10"/></g><g transform="translate(-6,10) scale(1,1)"><path fill="none" stroke="#000000" d="M 365 768 L 97 768" stroke-miterlimit="10"/></g><g transform="translate(-6,10) scale(1,1)"><path fill="#000000" stroke="none" d="M 107.16267485762415 763.790482243984 L 97 768 L 107.16267485762415 772.209517756016"/></g><g transform="translate(-6,10) scale(1,1)"><path fill="none" stroke="#000000" d="M 107.16267485762415 763.790482243984 L 97 768 L 107.16267485762415 772.209517756016 L 107.16267485762415 763.790482243984" stroke-miterlimit="10"/></g><g transform="translate(-6,10) scale(1,1)"><g><path fill="none" stroke="none"/><text fill="#000000" stroke="none" font-family="Arial" font-size="13px" font-style="normal" font-weight="normal" text-decoration="none" x="183" y="785">14 : TaxiComing</text></g></g><g transform="translate(-6,10) scale(1,1)"><rect fill="#ffffff" stroke="none" x="84" y="768" width="13" height="28"/></g><g transform="translate(-6,10) scale(1,1)"><path fill="none" stroke="#000000" d="M 84 768 L 97 768 L 97 796 L 84 796 L 84 768 Z Z" stroke-miterlimit="10"/></g><g transform="translate(-6,10) scale(1,1)"><path fill="none" stroke="#000000" d="M 378 792 L 408 792 L 408 812 L 385 812" stroke-miterlimit="10"/></g><g transform="translate(-6,10) scale(1,1)"><path fill="#000000" stroke="none" d="M 395.16267485762415 807.790482243984 L 385 812 L 395.16267485762415 816.209517756016"/></g><g transform="translate(-6,10) scale(1,1)"><path fill="none" stroke="#000000" d="M 395.16267485762415 807.790482243984 L 385 812 L 395.16267485762415 816.209517756016 L 395.16267485762415 807.790482243984" stroke-miterlimit="10"/></g><g transform="translate(-6,10) scale(1,1)"><g><path fill="none" stroke="none"/><text fill="#000000" stroke="none" font-family="Arial" font-size="13px" font-style="normal" font-weight="normal" text-decoration="none" x="230" y="804">15 : Update Queue</text></g></g><g transform="translate(-6,10) scale(1,1)"><rect fill="#ffffff" stroke="none" x="372" y="812" width="13" height="28"/></g><g transform="translate(-6,10) scale(1,1)"><path fill="none" stroke="#000000" d="M 372 812 L 385 812 L 385 840 L 372 840 L 372 812 Z Z" stroke-miterlimit="10"/></g><g transform="translate(-6,10) scale(1,1)"><path fill="none" stroke="#000000" d="M 378 797 L 746 797" stroke-miterlimit="10"/></g><g transform="translate(-6,10) scale(1,1)"><path fill="none" stroke="#000000" d="M 735.8373251423759 801.209517756016 L 746 797 L 735.8373251423758 792.790482243984" stroke-miterlimit="10"/></g><g transform="translate(-6,10) scale(1,1)"><g><path fill="none" stroke="none"/><text fill="#000000" stroke="none" font-family="Arial" font-size="13px" font-style="normal" font-weight="normal" text-decoration="none" x="619" y="789">16 : New{}</text></g></g><g transform="translate(-6,10) scale(1,1)"><rect fill="#ffffff" stroke="none" x="746" y="797" width="13" height="28"/></g><g transform="translate(-6,10) scale(1,1)"><path fill="none" stroke="#000000" d="M 746 797 L 759 797 L 759 825 L 746 825 L 746 797 Z Z" stroke-miterlimit="10"/></g><g transform="translate(-6,10) scale(1,1)"><path fill="none" stroke="#000000" d="M 385 824 L 674 824" stroke-miterlimit="10"/></g><g transform="translate(-6,10) scale(1,1)"><path fill="none" stroke="#000000" d="M 663.8373251423759 828.209517756016 L 674 824 L 663.8373251423758 819.790482243984" stroke-miterlimit="10"/></g><g transform="translate(-6,10) scale(1,1)"><g><path fill="none" stroke="none"/><text fill="#000000" stroke="none" font-family="Arial" font-size="13px" font-style="normal" font-weight="normal" text-decoration="none" x="411" y="819">17 : DeQueue(Taxi Driver)</text></g></g><g transform="translate(-6,10) scale(1,1)"><rect fill="#ffffff" stroke="none" x="674" y="824" width="13" height="28"/></g><g transform="translate(-6,10) scale(1,1)"><path fill="none" stroke="#000000" d="M 674 824 L 687 824 L 687 852 L 674 852 L 674 824 Z Z" stroke-miterlimit="10"/></g><g transform="translate(-6,10) scale(1,1)"><path fill="none" stroke="#000000" d="M 372 888 L 90 888" stroke-miterlimit="10"/></g><g transform="translate(-6,10) scale(1,1)"><path fill="#000000" stroke="none" d="M 100.16267485762415 883.790482243984 L 90 888 L 100.16267485762415 892.209517756016"/></g><g transform="translate(-6,10) scale(1,1)"><path fill="none" stroke="#000000" d="M 100.16267485762415 883.790482243984 L 90 888 L 100.16267485762415 892.209517756016 L 100.16267485762415 883.790482243984" stroke-miterlimit="10"/></g><g transform="translate(-6,10) scale(1,1)"><g><path fill="none" stroke="none"/><text fill="#000000" stroke="none" font-family="Arial" font-size="13px" font-style="normal" font-weight="normal" text-decoration="none" x="160" y="909">18 : ShowErrorMessage</text></g></g><g transform="translate(-6,10) scale(1,1)"><rect fill="#ffffff" stroke="none" x="77" y="888" width="13" height="56"/></g><g transform="translate(-6,10) scale(1,1)"><path fill="none" stroke="#000000" d="M 77 888 L 90 888 L 90 944 L 77 944 L 77 888 Z Z" stroke-miterlimit="10"/></g><g transform="translate(-6,10) scale(1,1)"><path fill="none" stroke="#000000" d="M 84 944 L 365 944" stroke-miterlimit="10"/></g><g transform="translate(-6,10) scale(1,1)"><path fill="#000000" stroke="none" d="M 354.83732514237585 948.209517756016 L 365 944 L 354.83732514237585 939.790482243984"/></g><g transform="translate(-6,10) scale(1,1)"><path fill="none" stroke="#000000" d="M 354.83732514237585 948.209517756016 L 365 944 L 354.83732514237585 939.790482243984 L 354.83732514237585 948.209517756016" stroke-miterlimit="10"/></g><g transform="translate(-6,10) scale(1,1)"><g><path fill="none" stroke="none"/><text fill="#000000" stroke="none" font-family="Arial" font-size="13px" font-style="normal" font-weight="normal" text-decoration="none" x="161" y="941">19 : OkButtonPressed</text></g></g><g transform="translate(-6,10) scale(1,1)"><rect fill="#ffffff" stroke="none" x="365" y="944" width="13" height="28"/></g><g transform="translate(-6,10) scale(1,1)"><path fill="none" stroke="#000000" d="M 365 944 L 378 944 L 378 972 L 365 972 L 365 944 Z Z" stroke-miterlimit="10"/></g></g></svg>