<svg version="1.1" xmlns="http://www.w3.org/2000/svg" xmlns:xlink="http://www.w3.org/1999/xlink" width="535" height="388"><defs/><g><g transform="translate(-102,-94) scale(1,1)"><rect fill="#C0C0C0" stroke="none" x="119" y="111" width="96" height="64" opacity="0.2"/></g><g transform="translate(-102,-94) scale(1,1)"><rect fill="#ffffff" stroke="none" x="112" y="104" width="96" height="64"/></g><g transform="translate(-102,-94) scale(1,1)"><path fill="none" stroke="#000000" d="M 112 104 L 208 104 L 208 168 L 112 168 L 112 104 Z Z" stroke-miterlimit="10"/></g><g transform="translate(-102,-94) scale(1,1)"><path fill="none" stroke="#000000" d="M 112 129 L 208 129" stroke-miterlimit="10"/></g><g transform="translate(-102,-94) scale(1,1)"><path fill="none" stroke="#000000" d="M 112 139 L 208 139" stroke-miterlimit="10"/></g><g transform="translate(-102,-94) scale(1,1)"><g><path fill="none" stroke="none"/><text fill="#000000" stroke="none" font-family="Arial" font-size="13px" font-style="normal" font-weight="bold" text-decoration="none" x="146.2763671875" y="123.5">User</text></g></g><g transform="translate(-102,-94) scale(1,1)"><rect fill="#C0C0C0" stroke="none" x="119" y="231" width="96" height="64" opacity="0.2"/></g><g transform="translate(-102,-94) scale(1,1)"><rect fill="#ffffff" stroke="none" x="112" y="224" width="96" height="64"/></g><g transform="translate(-102,-94) scale(1,1)"><path fill="none" stroke="#000000" d="M 112 224 L 208 224 L 208 288 L 112 288 L 112 224 Z Z" stroke-miterlimit="10"/></g><g transform="translate(-102,-94) scale(1,1)"><path fill="none" stroke="#000000" d="M 112 249 L 208 249" stroke-miterlimit="10"/></g><g transform="translate(-102,-94) scale(1,1)"><path fill="none" stroke="#000000" d="M 112 259 L 208 259" stroke-miterlimit="10"/></g><g transform="translate(-102,-94) scale(1,1)"><g><path fill="none" stroke="none"/><text fill="#000000" stroke="none" font-family="Arial" font-size="13px" font-style="normal" font-weight="bold" text-decoration="none" x="128.925048828125" y="243.5">Passenger</text></g></g><g transform="translate(-102,-94) scale(1,1)"><rect fill="#C0C0C0" stroke="none" x="255" y="415" width="96" height="64" opacity="0.2"/></g><g transform="translate(-102,-94) scale(1,1)"><rect fill="#ffffff" stroke="none" x="248" y="408" width="96" height="64"/></g><g transform="translate(-102,-94) scale(1,1)"><path fill="none" stroke="#000000" d="M 248 408 L 344 408 L 344 472 L 248 472 L 248 408 Z Z" stroke-miterlimit="10"/></g><g transform="translate(-102,-94) scale(1,1)"><path fill="none" stroke="#000000" d="M 248 433 L 344 433" stroke-miterlimit="10"/></g><g transform="translate(-102,-94) scale(1,1)"><path fill="none" stroke="#000000" d="M 248 443 L 344 443" stroke-miterlimit="10"/></g><g transform="translate(-102,-94) scale(1,1)"><g><path fill="none" stroke="none"/><text fill="#000000" stroke="none" font-family="Arial" font-size="13px" font-style="normal" font-weight="bold" text-decoration="none" x="266.38818359375" y="427.5">TaxiDriver</text></g></g><g transform="translate(-102,-94) scale(1,1)"><rect fill="#C0C0C0" stroke="none" x="367" y="231" width="96" height="64" opacity="0.2"/></g><g transform="translate(-102,-94) scale(1,1)"><rect fill="#ffffff" stroke="none" x="360" y="224" width="96" height="64"/></g><g transform="translate(-102,-94) scale(1,1)"><path fill="none" stroke="#000000" d="M 360 224 L 456 224 L 456 288 L 360 288 L 360 224 Z Z" stroke-miterlimit="10"/></g><g transform="translate(-102,-94) scale(1,1)"><path fill="none" stroke="#000000" d="M 360 249 L 456 249" stroke-miterlimit="10"/></g><g transform="translate(-102,-94) scale(1,1)"><path fill="none" stroke="#000000" d="M 360 259 L 456 259" stroke-miterlimit="10"/></g><g transform="translate(-102,-94) scale(1,1)"><g><path fill="none" stroke="none"/><text fill="#000000" stroke="none" font-family="Arial" font-size="13px" font-style="normal" font-weight="bold" text-decoration="none" x="394.6318359375" y="243.5">Ride</text></g></g><g transform="translate(-102,-94) scale(1,1)"><path fill="none" stroke="#000000" d="M 160 223 L 160 169" stroke-miterlimit="10"/></g><g transform="translate(-102,-94) scale(1,1)"><path fill="#FFFFFF" stroke="none" d="M 168.41903551203197 189.3253497152483 L 160 169 L 151.58096448796803 189.3253497152483"/></g><g transform="translate(-102,-94) scale(1,1)"><path fill="none" stroke="#000000" d="M 168.41903551203197 189.3253497152483 L 160 169 L 151.58096448796803 189.3253497152483 L 168.41903551203197 189.3253497152483" stroke-miterlimit="10"/></g><g transform="translate(-102,-94) scale(1,1)"><g><path fill="none" stroke="none"/><text fill="#000000" stroke="none" font-family="Arial" font-size="13px" font-style="normal" font-weight="normal" text-decoration="none" x="333" y="274">0..*</text></g></g><g transform="translate(-102,-94) scale(1,1)"><path fill="none" stroke="#000000" d="M 209 256 L 359 256" stroke-miterlimit="10"/></g><g transform="translate(-102,-94) scale(1,1)"><g><path fill="none" stroke="none"/><text fill="#000000" stroke="none" font-family="Arial" font-size="13px" font-style="normal" font-weight="normal" text-decoration="none" x="251" y="243">+partecipant</text></g></g><g transform="translate(-102,-94) scale(1,1)"><g><path fill="none" stroke="none"/><text fill="#000000" stroke="none" font-family="Arial" font-size="13px" font-style="normal" font-weight="normal" text-decoration="none" x="213" y="274">1..4</text></g></g><g transform="translate(-102,-94) scale(1,1)"><path fill="none" stroke="#000000" d="M 316 407 L 388 289" stroke-miterlimit="10"/></g><g transform="translate(-102,-94) scale(1,1)"><g><path fill="none" stroke="none"/><text fill="#000000" stroke="none" font-family="Arial" font-size="13px" font-style="normal" font-weight="normal" text-decoration="none" x="305" y="348">+driver</text></g></g><g transform="translate(-102,-94) scale(1,1)"><g><path fill="none" stroke="none"/><text fill="#000000" stroke="none" font-family="Arial" font-size="13px" font-style="normal" font-weight="normal" text-decoration="none" x="389" y="306">0..*</text></g></g><g transform="translate(-102,-94) scale(1,1)"><g><path fill="none" stroke="none"/><text fill="#000000" stroke="none" font-family="Arial" font-size="13px" font-style="normal" font-weight="normal" text-decoration="none" x="309" y="402">1</text></g></g><g transform="translate(-102,-94) scale(1,1)"><rect fill="#C0C0C0" stroke="none" x="519" y="423" width="106.525390625" height="56" opacity="0.2"/></g><g transform="translate(-102,-94) scale(1,1)"><rect fill="#ffffff" stroke="none" x="512" y="416" width="106.525390625" height="56"/></g><g transform="translate(-102,-94) scale(1,1)"><path fill="none" stroke="#000000" d="M 512 416 L 618.525390625 416 L 618.525390625 472 L 512 472 L 512 416 Z Z" stroke-miterlimit="10"/></g><g transform="translate(-102,-94) scale(1,1)"><path fill="none" stroke="#000000" d="M 512 441 L 618.525390625 441" stroke-miterlimit="10"/></g><g transform="translate(-102,-94) scale(1,1)"><path fill="none" stroke="#000000" d="M 512 451 L 618.525390625 451" stroke-miterlimit="10"/></g><g transform="translate(-102,-94) scale(1,1)"><g><path fill="none" stroke="none"/><text fill="#000000" stroke="none" font-family="Arial" font-size="13px" font-style="normal" font-weight="bold" text-decoration="none" x="545.746826171875" y="435.5">Queue</text></g></g><g transform="translate(-102,-94) scale(1,1)"><path fill="none" stroke="#000000" d="M 345 441 L 511 443" stroke-miterlimit="10"/></g><g transform="translate(-102,-94) scale(1,1)"><g><path fill="none" stroke="none"/><text fill="#000000" stroke="none" font-family="Arial" font-size="13px" font-style="normal" font-weight="normal" text-decoration="none" x="415" y="434">+isIn</text></g></g><g transform="translate(-102,-94) scale(1,1)"><g><path fill="none" stroke="none"/><text fill="#000000" stroke="none" font-family="Arial" font-size="13px" font-style="normal" font-weight="normal" text-decoration="none" x="349" y="458">0..*</text></g></g><g transform="translate(-102,-94) scale(1,1)"><g><path fill="none" stroke="none"/><text fill="#000000" stroke="none" font-family="Arial" font-size="13px" font-style="normal" font-weight="normal" text-decoration="none" x="501" y="458">1</text></g></g><g transform="translate(-102,-94) scale(1,1)"><rect fill="#C0C0C0" stroke="none" x="519" y="271" width="106.525390625" height="60" opacity="0.2"/></g><g transform="translate(-102,-94) scale(1,1)"><rect fill="#ffffff" stroke="none" x="512" y="264" width="106.525390625" height="60"/></g><g transform="translate(-102,-94) scale(1,1)"><path fill="none" stroke="#000000" d="M 512 264 L 618.525390625 264 L 618.525390625 324 L 512 324 L 512 264 Z Z" stroke-miterlimit="10"/></g><g transform="translate(-102,-94) scale(1,1)"><path fill="none" stroke="#000000" d="M 512 289 L 618.525390625 289" stroke-miterlimit="10"/></g><g transform="translate(-102,-94) scale(1,1)"><path fill="none" stroke="#000000" d="M 512 299 L 618.525390625 299" stroke-miterlimit="10"/></g><g transform="translate(-102,-94) scale(1,1)"><g><path fill="none" stroke="none"/><text fill="#000000" stroke="none" font-family="Arial" font-size="13px" font-style="normal" font-weight="bold" text-decoration="none" x="520.0927734375" y="283.5">QueueManager</text></g></g><g transform="translate(-102,-94) scale(1,1)"><path fill="none" stroke="#000000" d="M 565 415 L 565 325" stroke-miterlimit="10"/></g><g transform="translate(-102,-94) scale(1,1)"><g><path fill="none" stroke="none"/><text fill="#000000" stroke="none" font-family="Arial" font-size="13px" font-style="normal" font-weight="normal" text-decoration="none" x="500" y="377">+manage</text></g></g><g transform="translate(-102,-94) scale(1,1)"><g><path fill="none" stroke="none"/><text fill="#000000" stroke="none" font-family="Arial" font-size="13px" font-style="normal" font-weight="normal" text-decoration="none" x="573" y="346">N</text></g></g><g transform="translate(-102,-94) scale(1,1)"><g><path fill="none" stroke="none"/><text fill="#000000" stroke="none" font-family="Arial" font-size="13px" font-style="normal" font-weight="normal" text-decoration="none" x="573" y="402">1</text></g></g></g></svg>