<svg version="1.1" xmlns="http://www.w3.org/2000/svg" xmlns:xlink="http://www.w3.org/1999/xlink" width="1675.90087890625" height="734"><defs/><g><g transform="translate(-22,-22) scale(1,1)"><path fill="#ffffff" stroke="none" d="M 48.40935031960227 113.68 C 48.40935031960227 108.886167936 52.295192644547726 105 57.088623046875 105 C 61.882053449202274 105 65.76789577414773 108.886167936 65.76789577414773 113.68 C 65.76789577414773 118.473832064 61.882053449202274 122.36 57.088623046875 122.36 C 52.295192644547726 122.36 48.40935031960227 118.473832064 48.40935031960227 113.68 Z"/></g><g transform="translate(-22,-22) scale(1,1)"><path fill="none" stroke="#000000" d="M 48.40935031960227 113.68 C 48.40935031960227 108.886167936 52.295192644547726 105 57.088623046875 105 C 61.882053449202274 105 65.76789577414773 108.886167936 65.76789577414773 113.68 C 65.76789577414773 118.473832064 61.882053449202274 122.36 57.088623046875 122.36 C 52.295192644547726 122.36 48.40935031960227 118.473832064 48.40935031960227 113.68 Z" stroke-miterlimit="10"/></g><g transform="translate(-22,-22) scale(1,1)"><path fill="none" stroke="#000000" d="M 57.088623046875 122.36 L 57.088623046875 139.64" stroke-miterlimit="10"/></g><g transform="translate(-22,-22) scale(1,1)"><path fill="none" stroke="#000000" d="M 47.89880486505682 128.84 L 66.27844122869318 128.84" stroke-miterlimit="10"/></g><g transform="translate(-22,-22) scale(1,1)"><path fill="none" stroke="#000000" d="M 57.088623046875 139.64 L 44.324986683238635 157" stroke-miterlimit="10"/></g><g transform="translate(-22,-22) scale(1,1)"><path fill="none" stroke="#000000" d="M 57.088623046875 139.64 L 69.85225941051137 157" stroke-miterlimit="10"/></g><g transform="translate(-22,-22) scale(1,1)"><g><path fill="none" stroke="none"/><text fill="#000000" stroke="none" font-family="Arial" font-size="13px" font-style="normal" font-weight="bold" text-decoration="none" x="39.746826171875" y="177.5">Guest</text></g></g><g transform="translate(-22,-22) scale(1,1)"><path fill="#ffffff" stroke="none" d="M 56.40935031960227 249.68 C 56.40935031960227 244.886167936 60.295192644547726 241 65.088623046875 241 C 69.88205344920227 241 73.76789577414773 244.886167936 73.76789577414773 249.68 C 73.76789577414773 254.47383206400002 69.88205344920227 258.36 65.088623046875 258.36 C 60.295192644547726 258.36 56.40935031960227 254.47383206400002 56.40935031960227 249.68 Z"/></g><g transform="translate(-22,-22) scale(1,1)"><path fill="none" stroke="#000000" d="M 56.40935031960227 249.68 C 56.40935031960227 244.886167936 60.295192644547726 241 65.088623046875 241 C 69.88205344920227 241 73.76789577414773 244.886167936 73.76789577414773 249.68 C 73.76789577414773 254.47383206400002 69.88205344920227 258.36 65.088623046875 258.36 C 60.295192644547726 258.36 56.40935031960227 254.47383206400002 56.40935031960227 249.68 Z" stroke-miterlimit="10"/></g><g transform="translate(-22,-22) scale(1,1)"><path fill="none" stroke="#000000" d="M 65.088623046875 258.36 L 65.088623046875 275.64" stroke-miterlimit="10"/></g><g transform="translate(-22,-22) scale(1,1)"><path fill="none" stroke="#000000" d="M 55.89880486505682 264.84 L 74.27844122869318 264.84" stroke-miterlimit="10"/></g><g transform="translate(-22,-22) scale(1,1)"><path fill="none" stroke="#000000" d="M 65.088623046875 275.64 L 52.324986683238635 293" stroke-miterlimit="10"/></g><g transform="translate(-22,-22) scale(1,1)"><path fill="none" stroke="#000000" d="M 65.088623046875 275.64 L 77.85225941051137 293" stroke-miterlimit="10"/></g><g transform="translate(-22,-22) scale(1,1)"><g><path fill="none" stroke="none"/><text fill="#000000" stroke="none" font-family="Arial" font-size="13px" font-style="normal" font-weight="bold" text-decoration="none" x="51.364990234375" y="313.5">User</text></g></g><g transform="translate(-22,-22) scale(1,1)"><path fill="#C0C0C0" stroke="none" d="M 175 152 C 175 142.6111584 202.0867696 135 235.5 135 C 268.9132304 135 296 142.6111584 296 152 C 296 161.3888416 268.9132304 169 235.5 169 C 202.0867696 169 175 161.3888416 175 152 Z" opacity="0.2"/></g><g transform="translate(-22,-22) scale(1,1)"><path fill="#ffffff" stroke="none" d="M 168 145 C 168 135.6111584 195.0867696 128 228.5 128 C 261.9132304 128 289 135.6111584 289 145 C 289 154.3888416 261.9132304 162 228.5 162 C 195.0867696 162 168 154.3888416 168 145 Z"/></g><g transform="translate(-22,-22) scale(1,1)"><path fill="none" stroke="#000000" d="M 168 145 C 168 135.6111584 195.0867696 128 228.5 128 C 261.9132304 128 289 135.6111584 289 145 C 289 154.3888416 261.9132304 162 228.5 162 C 195.0867696 162 168 154.3888416 168 145 Z" stroke-miterlimit="10"/></g><g transform="translate(-22,-22) scale(1,1)"><g><path fill="none" stroke="none"/><text fill="#000000" stroke="none" font-family="Arial" font-size="13px" font-style="normal" font-weight="bold" text-decoration="none" x="192.73095703125" y="152">User Signup</text></g></g><g transform="translate(-22,-22) scale(1,1)"><path fill="#C0C0C0" stroke="none" d="M 175 288 C 175 278.6111584 199.4004784 271 229.5 271 C 259.5995216 271 284 278.6111584 284 288 C 284 297.3888416 259.5995216 305 229.5 305 C 199.4004784 305 175 297.3888416 175 288 Z" opacity="0.2"/></g><g transform="translate(-22,-22) scale(1,1)"><path fill="#ffffff" stroke="none" d="M 168 281 C 168 271.6111584 192.4004784 264 222.5 264 C 252.5995216 264 277 271.6111584 277 281 C 277 290.3888416 252.5995216 298 222.5 298 C 192.4004784 298 168 290.3888416 168 281 Z"/></g><g transform="translate(-22,-22) scale(1,1)"><path fill="none" stroke="#000000" d="M 168 281 C 168 271.6111584 192.4004784 264 222.5 264 C 252.5995216 264 277 271.6111584 277 281 C 277 290.3888416 252.5995216 298 222.5 298 C 192.4004784 298 168 290.3888416 168 281 Z" stroke-miterlimit="10"/></g><g transform="translate(-22,-22) scale(1,1)"><g><path fill="none" stroke="none"/><text fill="#000000" stroke="none" font-family="Arial" font-size="13px" font-style="normal" font-weight="bold" text-decoration="none" x="191.06640625" y="288">User Login</text></g></g><g transform="translate(-22,-22) scale(1,1)"><path fill="#C0C0C0" stroke="none" d="M 215 547 C 215 531.5360256 256.413656 519 307.5 519 C 358.586344 519 400 531.5360256 400 547 C 400 562.4639744 358.586344 575 307.5 575 C 256.413656 575 215 562.4639744 215 547 Z" opacity="0.2"/></g><g transform="translate(-22,-22) scale(1,1)"><path fill="#ffffff" stroke="none" d="M 208 540 C 208 524.5360256 249.413656 512 300.5 512 C 351.586344 512 393 524.5360256 393 540 C 393 555.4639744 351.586344 568 300.5 568 C 249.413656 568 208 555.4639744 208 540 Z"/></g><g transform="translate(-22,-22) scale(1,1)"><path fill="none" stroke="#000000" d="M 208 540 C 208 524.5360256 249.413656 512 300.5 512 C 351.586344 512 393 524.5360256 393 540 C 393 555.4639744 351.586344 568 300.5 568 C 249.413656 568 208 555.4639744 208 540 Z" stroke-miterlimit="10"/></g><g transform="translate(-22,-22) scale(1,1)"><g><path fill="none" stroke="none"/><text fill="#000000" stroke="none" font-family="Arial" font-size="10px" font-style="normal" font-weight="bold" text-decoration="none" x="244.63818359375" y="545.5">Modify your personal info</text></g></g><g transform="translate(-22,-22) scale(1,1)"><path fill="#C0C0C0" stroke="none" d="M 215 408 C 215 394.19288 252.6080768 383 299 383 C 345.3919232 383 383 394.19288 383 408 C 383 421.80712 345.3919232 433 299 433 C 252.6080768 433 215 421.80712 215 408 Z" opacity="0.2"/></g><g transform="translate(-22,-22) scale(1,1)"><path fill="#ffffff" stroke="none" d="M 208 401 C 208 387.19288 245.6080768 376 292 376 C 338.3919232 376 376 387.19288 376 401 C 376 414.80712 338.3919232 426 292 426 C 245.6080768 426 208 414.80712 208 401 Z"/></g><g transform="translate(-22,-22) scale(1,1)"><path fill="none" stroke="#000000" d="M 208 401 C 208 387.19288 245.6080768 376 292 376 C 338.3919232 376 376 387.19288 376 401 C 376 414.80712 338.3919232 426 292 426 C 245.6080768 426 208 414.80712 208 401 Z" stroke-miterlimit="10"/></g><g transform="translate(-22,-22) scale(1,1)"><g><path fill="none" stroke="none"/><text fill="#000000" stroke="none" font-family="Arial" font-size="13px" font-style="normal" font-weight="bold" text-decoration="none" x="241.780517578125" y="408">Show your profile</text></g></g><g transform="translate(-22,-22) scale(1,1)"><path fill="#C0C0C0" stroke="none" d="M 495 336 C 495 326.6111584 524.7730607999999 319 561.5 319 C 598.2269392000001 319 628 326.6111584 628 336 C 628 345.3888416 598.2269392000001 353 561.5 353 C 524.7730607999999 353 495 345.3888416 495 336 Z" opacity="0.2"/></g><g transform="translate(-22,-22) scale(1,1)"><path fill="#ffffff" stroke="none" d="M 488 329 C 488 319.6111584 517.7730607999999 312 554.5 312 C 591.2269392000001 312 621 319.6111584 621 329 C 621 338.3888416 591.2269392000001 346 554.5 346 C 517.7730607999999 346 488 338.3888416 488 329 Z"/></g><g transform="translate(-22,-22) scale(1,1)"><path fill="none" stroke="#000000" d="M 488 329 C 488 319.6111584 517.7730607999999 312 554.5 312 C 591.2269392000001 312 621 319.6111584 621 329 C 621 338.3888416 591.2269392000001 346 554.5 346 C 517.7730607999999 346 488 338.3888416 488 329 Z" stroke-miterlimit="10"/></g><g transform="translate(-22,-22) scale(1,1)"><g><path fill="none" stroke="none"/><text fill="#000000" stroke="none" font-family="Arial" font-size="13px" font-style="normal" font-weight="bold" text-decoration="none" x="525.59912109375" y="336">Book Taxi</text></g></g><g transform="translate(-22,-22) scale(1,1)"><path fill="#C0C0C0" stroke="none" d="M 591 240 C 591 230.6111584 616.743624 223 648.5 223 C 680.256376 223 706 230.6111584 706 240 C 706 249.3888416 680.256376 257 648.5 257 C 616.743624 257 591 249.3888416 591 240 Z" opacity="0.2"/></g><g transform="translate(-22,-22) scale(1,1)"><path fill="#ffffff" stroke="none" d="M 584 233 C 584 223.6111584 609.743624 216 641.5 216 C 673.256376 216 699 223.6111584 699 233 C 699 242.3888416 673.256376 250 641.5 250 C 609.743624 250 584 242.3888416 584 233 Z"/></g><g transform="translate(-22,-22) scale(1,1)"><path fill="none" stroke="#000000" d="M 584 233 C 584 223.6111584 609.743624 216 641.5 216 C 673.256376 216 699 223.6111584 699 233 C 699 242.3888416 673.256376 250 641.5 250 C 609.743624 250 584 242.3888416 584 233 Z" stroke-miterlimit="10"/></g><g transform="translate(-22,-22) scale(1,1)"><g><path fill="none" stroke="none"/><text fill="#000000" stroke="none" font-family="Arial" font-size="13px" font-style="normal" font-weight="bold" text-decoration="none" x="607.90185546875" y="240">Car sharing</text></g></g><g transform="translate(-22,-22) scale(1,1)"><path fill="#C0C0C0" stroke="none" d="M 287 72 C 287 62.6111584 327.5182256 55 377.5 55 C 427.4817744 55 468 62.6111584 468 72 C 468 81.3888416 427.4817744 89 377.5 89 C 327.5182256 89 287 81.3888416 287 72 Z" opacity="0.2"/></g><g transform="translate(-22,-22) scale(1,1)"><path fill="#ffffff" stroke="none" d="M 280 65 C 280 55.6111584 320.5182256 48 370.5 48 C 420.4817744 48 461 55.6111584 461 65 C 461 74.3888416 420.4817744 82 370.5 82 C 320.5182256 82 280 74.3888416 280 65 Z"/></g><g transform="translate(-22,-22) scale(1,1)"><path fill="none" stroke="#000000" d="M 280 65 C 280 55.6111584 320.5182256 48 370.5 48 C 420.4817744 48 461 55.6111584 461 65 C 461 74.3888416 420.4817744 82 370.5 82 C 320.5182256 82 280 74.3888416 280 65 Z" stroke-miterlimit="10"/></g><g transform="translate(-22,-22) scale(1,1)"><g><path fill="none" stroke="none"/><text fill="#000000" stroke="none" font-family="Arial" font-size="13px" font-style="normal" font-weight="bold" text-decoration="none" x="326.780517578125" y="72">Cancel request</text></g></g><g transform="translate(-22,-22) scale(1,1)"><path fill="#C0C0C0" stroke="none" d="M 399 504 C 399 494.6111584 438.3989376 487 487 487 C 535.6010624 487 575 494.6111584 575 504 C 575 513.3888416 535.6010624 521 487 521 C 438.3989376 521 399 513.3888416 399 504 Z" opacity="0.2"/></g><g transform="translate(-22,-22) scale(1,1)"><path fill="#ffffff" stroke="none" d="M 392 497 C 392 487.6111584 431.3989376 480 480 480 C 528.6010624 480 568 487.6111584 568 497 C 568 506.3888416 528.6010624 514 480 514 C 431.3989376 514 392 506.3888416 392 497 Z"/></g><g transform="translate(-22,-22) scale(1,1)"><path fill="none" stroke="#000000" d="M 392 497 C 392 487.6111584 431.3989376 480 480 480 C 528.6010624 480 568 487.6111584 568 497 C 568 506.3888416 528.6010624 514 480 514 C 431.3989376 514 392 506.3888416 392 497 Z" stroke-miterlimit="10"/></g><g transform="translate(-22,-22) scale(1,1)"><g><path fill="none" stroke="none"/><text fill="#000000" stroke="none" font-family="Arial" font-size="13px" font-style="normal" font-weight="bold" text-decoration="none" x="433.3955078125" y="504">User notification</text></g></g><g transform="translate(-22,-22) scale(1,1)"><path fill="#C0C0C0" stroke="none" d="M 311 736 C 311 726.6111584 342.340064 719 381 719 C 419.659936 719 451 726.6111584 451 736 C 451 745.3888416 419.659936 753 381 753 C 342.340064 753 311 745.3888416 311 736 Z" opacity="0.2"/></g><g transform="translate(-22,-22) scale(1,1)"><path fill="#ffffff" stroke="none" d="M 304 729 C 304 719.6111584 335.340064 712 374 712 C 412.659936 712 444 719.6111584 444 729 C 444 738.3888416 412.659936 746 374 746 C 335.340064 746 304 738.3888416 304 729 Z"/></g><g transform="translate(-22,-22) scale(1,1)"><path fill="none" stroke="#000000" d="M 304 729 C 304 719.6111584 335.340064 712 374 712 C 412.659936 712 444 719.6111584 444 729 C 444 738.3888416 412.659936 746 374 746 C 335.340064 746 304 738.3888416 304 729 Z" stroke-miterlimit="10"/></g><g transform="translate(-22,-22) scale(1,1)"><g><path fill="none" stroke="none"/><text fill="#000000" stroke="none" font-family="Arial" font-size="13px" font-style="normal" font-weight="bold" text-decoration="none" x="333.5400390625" y="736">Incoming Taxi</text></g></g><g transform="translate(-22,-22) scale(1,1)"><path fill="#C0C0C0" stroke="none" d="M 503 736 C 503 726.6111584 544.6375136 719 596 719 C 647.3624864 719 689 726.6111584 689 736 C 689 745.3888416 647.3624864 753 596 753 C 544.6375136 753 503 745.3888416 503 736 Z" opacity="0.2"/></g><g transform="translate(-22,-22) scale(1,1)"><path fill="#ffffff" stroke="none" d="M 496 729 C 496 719.6111584 537.6375136 712 589 712 C 640.3624864 712 682 719.6111584 682 729 C 682 738.3888416 640.3624864 746 589 746 C 537.6375136 746 496 738.3888416 496 729 Z"/></g><g transform="translate(-22,-22) scale(1,1)"><path fill="none" stroke="#000000" d="M 496 729 C 496 719.6111584 537.6375136 712 589 712 C 640.3624864 712 682 719.6111584 682 729 C 682 738.3888416 640.3624864 746 589 746 C 537.6375136 746 496 738.3888416 496 729 Z" stroke-miterlimit="10"/></g><g transform="translate(-22,-22) scale(1,1)"><g><path fill="none" stroke="none"/><text fill="#000000" stroke="none" font-family="Arial" font-size="13px" font-style="normal" font-weight="bold" text-decoration="none" x="539.142333984375" y="736">No Taxi available</text></g></g><g transform="translate(-22,-22) scale(1,1)"><path fill="#ffffff" stroke="none" d="M 1628.6984128196023 289.68 C 1628.6984128196023 284.886167936 1632.5842551445478 281 1637.377685546875 281 C 1642.1711159492022 281 1646.0569582741477 284.886167936 1646.0569582741477 289.68 C 1646.0569582741477 294.473832064 1642.1711159492022 298.36 1637.377685546875 298.36 C 1632.5842551445478 298.36 1628.6984128196023 294.473832064 1628.6984128196023 289.68 Z"/></g><g transform="translate(-22,-22) scale(1,1)"><path fill="none" stroke="#000000" d="M 1628.6984128196023 289.68 C 1628.6984128196023 284.886167936 1632.5842551445478 281 1637.377685546875 281 C 1642.1711159492022 281 1646.0569582741477 284.886167936 1646.0569582741477 289.68 C 1646.0569582741477 294.473832064 1642.1711159492022 298.36 1637.377685546875 298.36 C 1632.5842551445478 298.36 1628.6984128196023 294.473832064 1628.6984128196023 289.68 Z" stroke-miterlimit="10"/></g><g transform="translate(-22,-22) scale(1,1)"><path fill="none" stroke="#000000" d="M 1637.377685546875 298.36 L 1637.377685546875 315.64" stroke-miterlimit="10"/></g><g transform="translate(-22,-22) scale(1,1)"><path fill="none" stroke="#000000" d="M 1628.1878673650567 304.84 L 1646.5675037286933 304.84" stroke-miterlimit="10"/></g><g transform="translate(-22,-22) scale(1,1)"><path fill="none" stroke="#000000" d="M 1637.377685546875 315.64 L 1624.6140491832386 333" stroke-miterlimit="10"/></g><g transform="translate(-22,-22) scale(1,1)"><path fill="none" stroke="#000000" d="M 1637.377685546875 315.64 L 1650.1413219105114 333" stroke-miterlimit="10"/></g><g transform="translate(-22,-22) scale(1,1)"><g><path fill="none" stroke="none"/><text fill="#000000" stroke="none" font-family="Arial" font-size="13px" font-style="normal" font-weight="bold" text-decoration="none" x="1607.0390625" y="353.5">Taxi driver</text></g></g><g transform="translate(-22,-22) scale(1,1)"><path fill="#C0C0C0" stroke="none" d="M 1415 328 C 1415 318.6111584 1438.505048 311 1467.5 311 C 1496.494952 311 1520 318.6111584 1520 328 C 1520 337.3888416 1496.494952 345 1467.5 345 C 1438.505048 345 1415 337.3888416 1415 328 Z" opacity="0.2"/></g><g transform="translate(-22,-22) scale(1,1)"><path fill="#ffffff" stroke="none" d="M 1408 321 C 1408 311.6111584 1431.505048 304 1460.5 304 C 1489.494952 304 1513 311.6111584 1513 321 C 1513 330.3888416 1489.494952 338 1460.5 338 C 1431.505048 338 1408 330.3888416 1408 321 Z"/></g><g transform="translate(-22,-22) scale(1,1)"><path fill="none" stroke="#000000" d="M 1408 321 C 1408 311.6111584 1431.505048 304 1460.5 304 C 1489.494952 304 1513 311.6111584 1513 321 C 1513 330.3888416 1489.494952 338 1460.5 338 C 1431.505048 338 1408 330.3888416 1408 321 Z" stroke-miterlimit="10"/></g><g transform="translate(-22,-22) scale(1,1)"><g><path fill="none" stroke="none"/><text fill="#000000" stroke="none" font-family="Arial" font-size="13px" font-style="normal" font-weight="bold" text-decoration="none" x="1430.510498046875" y="328">Taxi Login</text></g></g><g transform="translate(-22,-22) scale(1,1)"><path fill="#C0C0C0" stroke="none" d="M 1415 464 C 1415 454.6111584 1441.1913392 447 1473.5 447 C 1505.8086608 447 1532 454.6111584 1532 464 C 1532 473.3888416 1505.8086608 481 1473.5 481 C 1441.1913392 481 1415 473.3888416 1415 464 Z" opacity="0.2"/></g><g transform="translate(-22,-22) scale(1,1)"><path fill="#ffffff" stroke="none" d="M 1408 457 C 1408 447.6111584 1434.1913392 440 1466.5 440 C 1498.8086608 440 1525 447.6111584 1525 457 C 1525 466.3888416 1498.8086608 474 1466.5 474 C 1434.1913392 474 1408 466.3888416 1408 457 Z"/></g><g transform="translate(-22,-22) scale(1,1)"><path fill="none" stroke="#000000" d="M 1408 457 C 1408 447.6111584 1434.1913392 440 1466.5 440 C 1498.8086608 440 1525 447.6111584 1525 457 C 1525 466.3888416 1498.8086608 474 1466.5 474 C 1434.1913392 474 1408 466.3888416 1408 457 Z" stroke-miterlimit="10"/></g><g transform="translate(-22,-22) scale(1,1)"><g><path fill="none" stroke="none"/><text fill="#000000" stroke="none" font-family="Arial" font-size="13px" font-style="normal" font-weight="bold" text-decoration="none" x="1432.175048828125" y="464">Taxi Signup</text></g></g><g transform="translate(-22,-22) scale(1,1)"><path fill="#C0C0C0" stroke="none" d="M 1143 512 C 1143 502.6111584 1169.4151968 495 1202 495 C 1234.5848032 495 1261 502.6111584 1261 512 C 1261 521.3888416 1234.5848032 529 1202 529 C 1169.4151968 529 1143 521.3888416 1143 512 Z" opacity="0.2"/></g><g transform="translate(-22,-22) scale(1,1)"><path fill="#ffffff" stroke="none" d="M 1136 505 C 1136 495.6111584 1162.4151968 488 1195 488 C 1227.5848032 488 1254 495.6111584 1254 505 C 1254 514.3888416 1227.5848032 522 1195 522 C 1162.4151968 522 1136 514.3888416 1136 505 Z"/></g><g transform="translate(-22,-22) scale(1,1)"><path fill="none" stroke="#000000" d="M 1136 505 C 1136 495.6111584 1162.4151968 488 1195 488 C 1227.5848032 488 1254 495.6111584 1254 505 C 1254 514.3888416 1227.5848032 522 1195 522 C 1162.4151968 522 1136 514.3888416 1136 505 Z" stroke-miterlimit="10"/></g><g transform="translate(-22,-22) scale(1,1)"><g><path fill="none" stroke="none"/><text fill="#000000" stroke="none" font-family="Arial" font-size="13px" font-style="normal" font-weight="bold" text-decoration="none" x="1159.9609375" y="512">Report User</text></g></g><g transform="translate(-22,-22) scale(1,1)"><path fill="#C0C0C0" stroke="none" d="M 1015 416 C 1015 406.6111584 1062.6816688 399 1121.5 399 C 1180.3183312 399 1228 406.6111584 1228 416 C 1228 425.3888416 1180.3183312 433 1121.5 433 C 1062.6816688 433 1015 425.3888416 1015 416 Z" opacity="0.2"/></g><g transform="translate(-22,-22) scale(1,1)"><path fill="#ffffff" stroke="none" d="M 1008 409 C 1008 399.6111584 1055.6816688 392 1114.5 392 C 1173.3183312 392 1221 399.6111584 1221 409 C 1221 418.3888416 1173.3183312 426 1114.5 426 C 1055.6816688 426 1008 418.3888416 1008 409 Z"/></g><g transform="translate(-22,-22) scale(1,1)"><path fill="none" stroke="#000000" d="M 1008 409 C 1008 399.6111584 1055.6816688 392 1114.5 392 C 1173.3183312 392 1221 399.6111584 1221 409 C 1221 418.3888416 1173.3183312 426 1114.5 426 C 1055.6816688 426 1008 418.3888416 1008 409 Z" stroke-miterlimit="10"/></g><g transform="translate(-22,-22) scale(1,1)"><g><path fill="none" stroke="none"/><text fill="#000000" stroke="none" font-family="Arial" font-size="13px" font-style="normal" font-weight="bold" text-decoration="none" x="1088.122314453125" y="416">Available</text></g></g><g transform="translate(-22,-22) scale(1,1)"><path fill="#C0C0C0" stroke="none" d="M 639 424 C 639 414.6111584 686.6816688 407 745.5 407 C 804.3183312 407 852 414.6111584 852 424 C 852 433.3888416 804.3183312 441 745.5 441 C 686.6816688 441 639 433.3888416 639 424 Z" opacity="0.2"/></g><g transform="translate(-22,-22) scale(1,1)"><path fill="#ffffff" stroke="none" d="M 632 417 C 632 407.6111584 679.6816688 400 738.5 400 C 797.3183312 400 845 407.6111584 845 417 C 845 426.3888416 797.3183312 434 738.5 434 C 679.6816688 434 632 426.3888416 632 417 Z"/></g><g transform="translate(-22,-22) scale(1,1)"><path fill="none" stroke="#000000" d="M 632 417 C 632 407.6111584 679.6816688 400 738.5 400 C 797.3183312 400 845 407.6111584 845 417 C 845 426.3888416 797.3183312 434 738.5 434 C 679.6816688 434 632 426.3888416 632 417 Z" stroke-miterlimit="10"/></g><g transform="translate(-22,-22) scale(1,1)"><g><path fill="none" stroke="none"/><text fill="#000000" stroke="none" font-family="Arial" font-size="13px" font-style="normal" font-weight="bold" text-decoration="none" x="691.168701171875" y="424">Reply of request</text></g></g><g transform="translate(-22,-22) scale(1,1)"><path fill="#C0C0C0" stroke="none" d="M 959 632 C 959 622.6111584 996.3842192 615 1042.5 615 C 1088.6157808 615 1126 622.6111584 1126 632 C 1126 641.3888416 1088.6157808 649 1042.5 649 C 996.3842192 649 959 641.3888416 959 632 Z" opacity="0.2"/></g><g transform="translate(-22,-22) scale(1,1)"><path fill="#ffffff" stroke="none" d="M 952 625 C 952 615.6111584 989.3842192 608 1035.5 608 C 1081.6157808 608 1119 615.6111584 1119 625 C 1119 634.3888416 1081.6157808 642 1035.5 642 C 989.3842192 642 952 634.3888416 952 625 Z"/></g><g transform="translate(-22,-22) scale(1,1)"><path fill="none" stroke="#000000" d="M 952 625 C 952 615.6111584 989.3842192 608 1035.5 608 C 1081.6157808 608 1119 615.6111584 1119 625 C 1119 634.3888416 1081.6157808 642 1035.5 642 C 989.3842192 642 952 634.3888416 952 625 Z" stroke-miterlimit="10"/></g><g transform="translate(-22,-22) scale(1,1)"><g><path fill="none" stroke="none"/><text fill="#000000" stroke="none" font-family="Arial" font-size="13px" font-style="normal" font-weight="bold" text-decoration="none" x="984.5537109375" y="632">User has not paid</text></g></g><g transform="translate(-22,-22) scale(1,1)"><path fill="#C0C0C0" stroke="none" d="M 1111 680 C 1111 670.6111584 1145.4740704 663 1188 663 C 1230.5259296 663 1265 670.6111584 1265 680 C 1265 689.3888416 1230.5259296 697 1188 697 C 1145.4740704 697 1111 689.3888416 1111 680 Z" opacity="0.2"/></g><g transform="translate(-22,-22) scale(1,1)"><path fill="#ffffff" stroke="none" d="M 1104 673 C 1104 663.6111584 1138.4740704 656 1181 656 C 1223.5259296 656 1258 663.6111584 1258 673 C 1258 682.3888416 1223.5259296 690 1181 690 C 1138.4740704 690 1104 682.3888416 1104 673 Z"/></g><g transform="translate(-22,-22) scale(1,1)"><path fill="none" stroke="#000000" d="M 1104 673 C 1104 663.6111584 1138.4740704 656 1181 656 C 1223.5259296 656 1258 663.6111584 1258 673 C 1258 682.3888416 1223.5259296 690 1181 690 C 1138.4740704 690 1104 682.3888416 1104 673 Z" stroke-miterlimit="10"/></g><g transform="translate(-22,-22) scale(1,1)"><g><path fill="none" stroke="none"/><text fill="#000000" stroke="none" font-family="Arial" font-size="13px" font-style="normal" font-weight="bold" text-decoration="none" x="1134.0400390625" y="680">User is not Here</text></g></g><g transform="translate(-22,-22) scale(1,1)"><path fill="#C0C0C0" stroke="none" d="M 1263 608 C 1263 598.6111584 1285.6096176 591 1313.5 591 C 1341.3903824 591 1364 598.6111584 1364 608 C 1364 617.3888416 1341.3903824 625 1313.5 625 C 1285.6096176 625 1263 617.3888416 1263 608 Z" opacity="0.2"/></g><g transform="translate(-22,-22) scale(1,1)"><path fill="#ffffff" stroke="none" d="M 1256 601 C 1256 591.6111584 1278.6096176 584 1306.5 584 C 1334.3903824 584 1357 591.6111584 1357 601 C 1357 610.3888416 1334.3903824 618 1306.5 618 C 1278.6096176 618 1256 610.3888416 1256 601 Z"/></g><g transform="translate(-22,-22) scale(1,1)"><path fill="none" stroke="#000000" d="M 1256 601 C 1256 591.6111584 1278.6096176 584 1306.5 584 C 1334.3903824 584 1357 591.6111584 1357 601 C 1357 610.3888416 1334.3903824 618 1306.5 618 C 1278.6096176 618 1256 610.3888416 1256 601 Z" stroke-miterlimit="10"/></g><g transform="translate(-22,-22) scale(1,1)"><g><path fill="none" stroke="none"/><text fill="#000000" stroke="none" font-family="Arial" font-size="13px" font-style="normal" font-weight="bold" text-decoration="none" x="1280.484130859375" y="608">Bad user</text></g></g><g transform="translate(-22,-22) scale(1,1)"><path fill="none" stroke="#000000" d="M 1067 608 L 1067 568 L 1184 568 L 1184 522" stroke-miterlimit="10"/></g><g transform="translate(-22,-22) scale(1,1)"><path fill="#FFFFFF" stroke="none" d="M 1192.419035512032 542.3253497152483 L 1184 522 L 1175.580964487968 542.3253497152483"/></g><g transform="translate(-22,-22) scale(1,1)"><path fill="none" stroke="#000000" d="M 1192.419035512032 542.3253497152483 L 1184 522 L 1175.580964487968 542.3253497152483 L 1192.419035512032 542.3253497152483" stroke-miterlimit="10"/></g><g transform="translate(-22,-22) scale(1,1)"><path fill="none" stroke="#000000" d="M 1184 656 L 1184 522" stroke-miterlimit="10"/></g><g transform="translate(-22,-22) scale(1,1)"><path fill="#FFFFFF" stroke="none" d="M 1192.419035512032 542.3253497152483 L 1184 522 L 1175.580964487968 542.3253497152483"/></g><g transform="translate(-22,-22) scale(1,1)"><path fill="none" stroke="#000000" d="M 1192.419035512032 542.3253497152483 L 1184 522 L 1175.580964487968 542.3253497152483 L 1192.419035512032 542.3253497152483" stroke-miterlimit="10"/></g><g transform="translate(-22,-22) scale(1,1)"><path fill="none" stroke="#000000" d="M 1282 584 L 1282 568 L 1184 568 L 1184 522" stroke-miterlimit="10"/></g><g transform="translate(-22,-22) scale(1,1)"><path fill="#FFFFFF" stroke="none" d="M 1192.419035512032 542.3253497152483 L 1184 522 L 1175.580964487968 542.3253497152483"/></g><g transform="translate(-22,-22) scale(1,1)"><path fill="none" stroke="#000000" d="M 1192.419035512032 542.3253497152483 L 1184 522 L 1175.580964487968 542.3253497152483 L 1192.419035512032 542.3253497152483" stroke-miterlimit="10"/></g><g transform="translate(-22,-22) scale(1,1)"><path fill="none" stroke="#000000" d="M 1221 487 L 1434 339" stroke-miterlimit="10" stroke-dasharray="3"/></g><g transform="translate(-22,-22) scale(1,1)"><path fill="none" stroke="#000000" d="M 1428.0562177983486 348.2558874852351 L 1434 339 L 1423.252210492607 341.34201210602583" stroke-miterlimit="10"/></g><g transform="translate(-22,-22) scale(1,1)"><g><path fill="none" stroke="none"/><text fill="#000000" stroke="none" font-family="Arial" font-size="13px" font-style="normal" font-weight="normal" text-decoration="none" x="1282" y="395">«include»</text></g></g><g transform="translate(-22,-22) scale(1,1)"><path fill="none" stroke="#000000" d="M 1461 339 L 1465 439" stroke-miterlimit="10" stroke-dasharray="3"/></g><g transform="translate(-22,-22) scale(1,1)"><path fill="none" stroke="#000000" d="M 1460.387663643996 429.0136917061868 L 1465 439 L 1468.799971999131 428.67719937198143" stroke-miterlimit="10"/></g><g transform="translate(-22,-22) scale(1,1)"><g><path fill="none" stroke="none"/><text fill="#000000" stroke="none" font-family="Arial" font-size="13px" font-style="normal" font-weight="normal" text-decoration="none" x="1466" y="394">«extend»</text></g></g><g transform="translate(-22,-22) scale(1,1)"><path fill="none" stroke="#000000" d="M 1185 391 L 1407 334" stroke-miterlimit="10" stroke-dasharray="3"/></g><g transform="translate(-22,-22) scale(1,1)"><path fill="none" stroke="#000000" d="M 1398.2034712127277 340.6046257497825 L 1407 334 L 1396.1097391887465 332.4500904984876" stroke-miterlimit="10"/></g><g transform="translate(-22,-22) scale(1,1)"><g><path fill="none" stroke="none"/><text fill="#000000" stroke="none" font-family="Arial" font-size="13px" font-style="normal" font-weight="normal" text-decoration="none" x="1261" y="339">«include»</text></g></g><g transform="translate(-22,-22) scale(1,1)"><path fill="none" stroke="#000000" d="M 846 415 L 1007 411" stroke-miterlimit="10" stroke-dasharray="3"/></g><g transform="translate(-22,-22) scale(1,1)"><path fill="none" stroke="#000000" d="M 996.9450122272799 415.4606301001597 L 1007 411 L 996.7359081689741 407.04419175334954" stroke-miterlimit="10"/></g><g transform="translate(-22,-22) scale(1,1)"><g><path fill="none" stroke="none"/><text fill="#000000" stroke="none" font-family="Arial" font-size="13px" font-style="normal" font-weight="normal" text-decoration="none" x="898" y="390">«include»</text></g></g><g transform="translate(-22,-22) scale(1,1)"><path fill="none" stroke="#000000" d="M 600 712 L 600 592 L 480 592 L 480 514" stroke-miterlimit="10"/></g><g transform="translate(-22,-22) scale(1,1)"><path fill="#FFFFFF" stroke="none" d="M 488.419035512032 534.3253497152483 L 480 514 L 471.580964487968 534.3253497152483"/></g><g transform="translate(-22,-22) scale(1,1)"><path fill="none" stroke="#000000" d="M 488.419035512032 534.3253497152483 L 480 514 L 471.580964487968 534.3253497152483 L 488.419035512032 534.3253497152483" stroke-miterlimit="10"/></g><g transform="translate(-22,-22) scale(1,1)"><path fill="none" stroke="#000000" d="M 368 712 L 368 592 L 480 592 L 480 514" stroke-miterlimit="10"/></g><g transform="translate(-22,-22) scale(1,1)"><path fill="#FFFFFF" stroke="none" d="M 488.419035512032 534.3253497152483 L 480 514 L 471.580964487968 534.3253497152483"/></g><g transform="translate(-22,-22) scale(1,1)"><path fill="none" stroke="#000000" d="M 488.419035512032 534.3253497152483 L 480 514 L 471.580964487968 534.3253497152483 L 488.419035512032 534.3253497152483" stroke-miterlimit="10"/></g><g transform="translate(-22,-22) scale(1,1)"><path fill="none" stroke="#000000" d="M 277 375 L 233 299" stroke-miterlimit="10" stroke-dasharray="3"/></g><g transform="translate(-22,-22) scale(1,1)"><path fill="none" stroke="#000000" d="M 241.73489602464772 305.6859248753328 L 233 299 L 234.4488413941362 309.9041670298394" stroke-miterlimit="10"/></g><g transform="translate(-22,-22) scale(1,1)"><g><path fill="none" stroke="none"/><text fill="#000000" stroke="none" font-family="Arial" font-size="13px" font-style="normal" font-weight="normal" text-decoration="none" x="202" y="359">«include»</text></g></g><g transform="translate(-22,-22) scale(1,1)"><path fill="none" stroke="#000000" d="M 223 263 L 227 163" stroke-miterlimit="10" stroke-dasharray="3"/></g><g transform="translate(-22,-22) scale(1,1)"><path fill="none" stroke="#000000" d="M 230.79997199913095 173.32280062801857 L 227 163 L 222.3876636439958 172.98630829381318" stroke-miterlimit="10"/></g><g transform="translate(-22,-22) scale(1,1)"><g><path fill="none" stroke="none"/><text fill="#000000" stroke="none" font-family="Arial" font-size="13px" font-style="normal" font-weight="normal" text-decoration="none" x="169" y="218">«extend»</text></g></g><g transform="translate(-22,-22) scale(1,1)"><path fill="none" stroke="#000000" d="M 91 279 L 167 280" stroke-miterlimit="10"/></g><g transform="translate(-22,-22) scale(1,1)"><path fill="none" stroke="#000000" d="M 156.7828211636479 284.0754455739218 L 167 280 L 156.89358835854296 275.65713876189653" stroke-miterlimit="10"/></g><g transform="translate(-22,-22) scale(1,1)"><path fill="none" stroke="#000000" d="M 83 143 L 167 144" stroke-miterlimit="10"/></g><g transform="translate(-22,-22) scale(1,1)"><path fill="none" stroke="#000000" d="M 156.7879354541487 148.08824384196532 L 167 144 L 156.88815496591602 139.66980485351166" stroke-miterlimit="10"/></g><g transform="translate(-22,-22) scale(1,1)"><path fill="none" stroke="#000000" d="M 1599 319 L 1514 320" stroke-miterlimit="10"/></g><g transform="translate(-22,-22) scale(1,1)"><path fill="none" stroke="#000000" d="M 1524.112451319911 315.67122092242744 L 1514 320 L 1524.211491942738 324.0896738627179" stroke-miterlimit="10"/></g><g transform="translate(-22,-22) scale(1,1)"><path fill="#C0C0C0" stroke="none" d="M 343 224 C 343 214.6111584 370.0867696 207 403.5 207 C 436.9132304 207 464 214.6111584 464 224 C 464 233.3888416 436.9132304 241 403.5 241 C 370.0867696 241 343 233.3888416 343 224 Z" opacity="0.2"/></g><g transform="translate(-22,-22) scale(1,1)"><path fill="#ffffff" stroke="none" d="M 336 217 C 336 207.6111584 363.0867696 200 396.5 200 C 429.9132304 200 457 207.6111584 457 217 C 457 226.3888416 429.9132304 234 396.5 234 C 363.0867696 234 336 226.3888416 336 217 Z"/></g><g transform="translate(-22,-22) scale(1,1)"><path fill="none" stroke="#000000" d="M 336 217 C 336 207.6111584 363.0867696 200 396.5 200 C 429.9132304 200 457 207.6111584 457 217 C 457 226.3888416 429.9132304 234 396.5 234 C 363.0867696 234 336 226.3888416 336 217 Z" stroke-miterlimit="10"/></g><g transform="translate(-22,-22) scale(1,1)"><g><path fill="none" stroke="none"/><text fill="#000000" stroke="none" font-family="Arial" font-size="13px" font-style="normal" font-weight="bold" text-decoration="none" x="360.734130859375" y="224">Taxi request</text></g></g><g transform="translate(-22,-22) scale(1,1)"><path fill="none" stroke="#000000" d="M 347 235 L 271 263" stroke-miterlimit="10" stroke-dasharray="3"/></g><g transform="translate(-22,-22) scale(1,1)"><path fill="none" stroke="#000000" d="M 279.08082315476827 255.53673683022228 L 271 263 L 281.99132884743557 263.4366808531763" stroke-miterlimit="10"/></g><g transform="translate(-22,-22) scale(1,1)"><g><path fill="none" stroke="none"/><text fill="#000000" stroke="none" font-family="Arial" font-size="13px" font-style="normal" font-weight="normal" text-decoration="none" x="292" y="284">«include»</text></g></g><g transform="translate(-22,-22) scale(1,1)"><path fill="none" stroke="#000000" d="M 475 479 L 401 235" stroke-miterlimit="10" stroke-dasharray="3"/></g><g transform="translate(-22,-22) scale(1,1)"><path fill="none" stroke="#000000" d="M 407.97779665187323 243.5035494874262 L 401 235 L 399.92112982356593 245.94696483699482" stroke-miterlimit="10"/></g><g transform="translate(-22,-22) scale(1,1)"><g><path fill="none" stroke="none"/><text fill="#000000" stroke="none" font-family="Arial" font-size="13px" font-style="normal" font-weight="normal" text-decoration="none" x="382" y="372">«include»</text></g></g><g transform="translate(-22,-22) scale(1,1)"><path fill="none" stroke="#000000" d="M 293 427 L 298 511" stroke-miterlimit="10" stroke-dasharray="3"/></g><g transform="translate(-22,-22) scale(1,1)"><path fill="none" stroke="#000000" d="M 293.19406750448667 501.10540486686955 L 298 511 L 301.59822785822973 500.60515722676575" stroke-miterlimit="10"/></g><g transform="translate(-22,-22) scale(1,1)"><g><path fill="none" stroke="none"/><text fill="#000000" stroke="none" font-family="Arial" font-size="13px" font-style="normal" font-weight="normal" text-decoration="none" x="289" y="450">«extend»</text></g></g><g transform="translate(-22,-22) scale(1,1)"><path fill="#ffffff" stroke="none" d="M 1647.2711667258523 425.68 C 1647.2711667258523 420.886167936 1651.1570090507978 417 1655.950439453125 417 C 1660.7438698554522 417 1664.6297121803977 420.886167936 1664.6297121803977 425.68 C 1664.6297121803977 430.473832064 1660.7438698554522 434.36 1655.950439453125 434.36 C 1651.1570090507978 434.36 1647.2711667258523 430.473832064 1647.2711667258523 425.68 Z"/></g><g transform="translate(-22,-22) scale(1,1)"><path fill="none" stroke="#000000" d="M 1647.2711667258523 425.68 C 1647.2711667258523 420.886167936 1651.1570090507978 417 1655.950439453125 417 C 1660.7438698554522 417 1664.6297121803977 420.886167936 1664.6297121803977 425.68 C 1664.6297121803977 430.473832064 1660.7438698554522 434.36 1655.950439453125 434.36 C 1651.1570090507978 434.36 1647.2711667258523 430.473832064 1647.2711667258523 425.68 Z" stroke-miterlimit="10"/></g><g transform="translate(-22,-22) scale(1,1)"><path fill="none" stroke="#000000" d="M 1655.950439453125 434.36 L 1655.950439453125 451.64" stroke-miterlimit="10"/></g><g transform="translate(-22,-22) scale(1,1)"><path fill="none" stroke="#000000" d="M 1646.7606212713067 440.84 L 1665.1402576349433 440.84" stroke-miterlimit="10"/></g><g transform="translate(-22,-22) scale(1,1)"><path fill="none" stroke="#000000" d="M 1655.950439453125 451.64 L 1643.1868030894886 469" stroke-miterlimit="10"/></g><g transform="translate(-22,-22) scale(1,1)"><path fill="none" stroke="#000000" d="M 1655.950439453125 451.64 L 1668.7140758167614 469" stroke-miterlimit="10"/></g><g transform="translate(-22,-22) scale(1,1)"><g><path fill="none" stroke="none"/><text fill="#000000" stroke="none" font-family="Arial" font-size="13px" font-style="normal" font-weight="bold" text-decoration="none" x="1630.299560546875" y="489.5">Operator</text></g></g><g transform="translate(-22,-22) scale(1,1)"><path fill="none" stroke="#000000" d="M 1623 455 L 1526 456" stroke-miterlimit="10"/></g><g transform="translate(-22,-22) scale(1,1)"><path fill="none" stroke="#000000" d="M 1536.1187400656224 451.68594164569276 L 1526 456 L 1536.2055296342307 460.1045298007005" stroke-miterlimit="10"/></g><g transform="translate(-22,-22) scale(1,1)"><path fill="#C0C0C0" stroke="none" d="M 847 312 C 847 302.6111584 900.0542512 295 965.5 295 C 1030.9457488 295 1084 302.6111584 1084 312 C 1084 321.3888416 1030.9457488 329 965.5 329 C 900.0542512 329 847 321.3888416 847 312 Z" opacity="0.2"/></g><g transform="translate(-22,-22) scale(1,1)"><path fill="#ffffff" stroke="none" d="M 840 305 C 840 295.6111584 893.0542512 288 958.5 288 C 1023.9457488 288 1077 295.6111584 1077 305 C 1077 314.3888416 1023.9457488 322 958.5 322 C 893.0542512 322 840 314.3888416 840 305 Z"/></g><g transform="translate(-22,-22) scale(1,1)"><path fill="none" stroke="#000000" d="M 840 305 C 840 295.6111584 893.0542512 288 958.5 288 C 1023.9457488 288 1077 295.6111584 1077 305 C 1077 314.3888416 1023.9457488 322 958.5 322 C 893.0542512 322 840 314.3888416 840 305 Z" stroke-miterlimit="10"/></g><g transform="translate(-22,-22) scale(1,1)"><g><path fill="none" stroke="none"/><text fill="#000000" stroke="none" font-family="Arial" font-size="13px" font-style="normal" font-weight="bold" text-decoration="none" x="886.24462890625" y="312">Notification Unavailability</text></g></g><g transform="translate(-22,-22) scale(1,1)"><path fill="none" stroke="#000000" d="M 985 323 L 1087 391" stroke-miterlimit="10" stroke-dasharray="3"/></g><g transform="translate(-22,-22) scale(1,1)"><path fill="none" stroke="#000000" d="M 1076.2091230681783 388.86529275021616 L 1087 391 L 1080.8791637187296 381.8602317743892" stroke-miterlimit="10"/></g><g transform="translate(-22,-22) scale(1,1)"><g><path fill="none" stroke="none"/><text fill="#000000" stroke="none" font-family="Arial" font-size="13px" font-style="normal" font-weight="normal" text-decoration="none" x="1025" y="339">«include»</text></g></g><g transform="translate(-22,-22) scale(1,1)"><path fill="#C0C0C0" stroke="none" d="M 63 544 C 63 534.6111584 88.5197664 527 120 527 C 151.4802336 527 177 534.6111584 177 544 C 177 553.3888416 151.4802336 561 120 561 C 88.5197664 561 63 553.3888416 63 544 Z" opacity="0.2"/></g><g transform="translate(-22,-22) scale(1,1)"><path fill="#ffffff" stroke="none" d="M 56 537 C 56 527.6111584 81.5197664 520 113 520 C 144.4802336 520 170 527.6111584 170 537 C 170 546.3888416 144.4802336 554 113 554 C 81.5197664 554 56 546.3888416 56 537 Z"/></g><g transform="translate(-22,-22) scale(1,1)"><path fill="none" stroke="#000000" d="M 56 537 C 56 527.6111584 81.5197664 520 113 520 C 144.4802336 520 170 527.6111584 170 537 C 170 546.3888416 144.4802336 554 113 554 C 81.5197664 554 56 546.3888416 56 537 Z" stroke-miterlimit="10"/></g><g transform="translate(-22,-22) scale(1,1)"><g><path fill="none" stroke="none"/><text fill="#000000" stroke="none" font-family="Arial" font-size="13px" font-style="normal" font-weight="bold" text-decoration="none" x="79.405029296875" y="544">Report Taxi</text></g></g><g transform="translate(-22,-22) scale(1,1)"><path fill="none" stroke="#000000" d="M 121 519 L 214 299" stroke-miterlimit="10" stroke-dasharray="3"/></g><g transform="translate(-22,-22) scale(1,1)"><path fill="none" stroke="#000000" d="M 213.9203060111459 309.99971130839987 L 214 299 L 206.16567738279753 306.7216182973254" stroke-miterlimit="10"/></g><g transform="translate(-22,-22) scale(1,1)"><g><path fill="none" stroke="none"/><text fill="#000000" stroke="none" font-family="Arial" font-size="13px" font-style="normal" font-weight="normal" text-decoration="none" x="112" y="404">«include»</text></g></g><g transform="translate(-22,-22) scale(1,1)"><path fill="#C0C0C0" stroke="none" d="M 1047 56 C 1047 46.6111584 1088.1897984 39 1139 39 C 1189.8102016 39 1231 46.6111584 1231 56 C 1231 65.3888416 1189.8102016 73 1139 73 C 1088.1897984 73 1047 65.3888416 1047 56 Z" opacity="0.2"/></g><g transform="translate(-22,-22) scale(1,1)"><path fill="#ffffff" stroke="none" d="M 1040 49 C 1040 39.6111584 1081.1897984 32 1132 32 C 1182.8102016 32 1224 39.6111584 1224 49 C 1224 58.3888416 1182.8102016 66 1132 66 C 1081.1897984 66 1040 58.3888416 1040 49 Z"/></g><g transform="translate(-22,-22) scale(1,1)"><path fill="none" stroke="#000000" d="M 1040 49 C 1040 39.6111584 1081.1897984 32 1132 32 C 1182.8102016 32 1224 39.6111584 1224 49 C 1224 58.3888416 1182.8102016 66 1132 66 C 1081.1897984 66 1040 58.3888416 1040 49 Z" stroke-miterlimit="10"/></g><g transform="translate(-22,-22) scale(1,1)"><g><path fill="none" stroke="none"/><text fill="#000000" stroke="none" font-family="Arial" font-size="13px" font-style="normal" font-weight="bold" text-decoration="none" x="1086.839599609375" y="56">Taxi notification</text></g></g><g transform="translate(-22,-22) scale(1,1)"><path fill="none" stroke="#000000" d="M 1154 67 L 1438 303" stroke-miterlimit="10" stroke-dasharray="3"/></g><g transform="translate(-22,-22) scale(1,1)"><path fill="none" stroke="#000000" d="M 1427.493421082514 299.7424242985555 L 1438 303 L 1432.8741806690941 293.2672729316542" stroke-miterlimit="10"/></g><g transform="translate(-22,-22) scale(1,1)"><g><path fill="none" stroke="none"/><text fill="#000000" stroke="none" font-family="Arial" font-size="13px" font-style="normal" font-weight="normal" text-decoration="none" x="1288" y="168">«include»</text></g></g><g transform="translate(-22,-22) scale(1,1)"><path fill="#C0C0C0" stroke="none" d="M 783 168 C 783 158.6111584 833.36796 151 895.5 151 C 957.63204 151 1008 158.6111584 1008 168 C 1008 177.3888416 957.63204 185 895.5 185 C 833.36796 185 783 177.3888416 783 168 Z" opacity="0.2"/></g><g transform="translate(-22,-22) scale(1,1)"><path fill="#ffffff" stroke="none" d="M 776 161 C 776 151.6111584 826.36796 144 888.5 144 C 950.63204 144 1001 151.6111584 1001 161 C 1001 170.3888416 950.63204 178 888.5 178 C 826.36796 178 776 170.3888416 776 161 Z"/></g><g transform="translate(-22,-22) scale(1,1)"><path fill="none" stroke="#000000" d="M 776 161 C 776 151.6111584 826.36796 144 888.5 144 C 950.63204 144 1001 151.6111584 1001 161 C 1001 170.3888416 950.63204 178 888.5 178 C 826.36796 178 776 170.3888416 776 161 Z" stroke-miterlimit="10"/></g><g transform="translate(-22,-22) scale(1,1)"><g><path fill="none" stroke="none"/><text fill="#000000" stroke="none" font-family="Arial" font-size="13px" font-style="normal" font-weight="bold" text-decoration="none" x="819.853271484375" y="168">Taxi request notification</text></g></g><g transform="translate(-22,-22) scale(1,1)"><path fill="#C0C0C0" stroke="none" d="M 1047 208 C 1047 198.6111584 1084.3842192 191 1130.5 191 C 1176.6157808 191 1214 198.6111584 1214 208 C 1214 217.3888416 1176.6157808 225 1130.5 225 C 1084.3842192 225 1047 217.3888416 1047 208 Z" opacity="0.2"/></g><g transform="translate(-22,-22) scale(1,1)"><path fill="#ffffff" stroke="none" d="M 1040 201 C 1040 191.6111584 1077.3842192 184 1123.5 184 C 1169.6157808 184 1207 191.6111584 1207 201 C 1207 210.3888416 1169.6157808 218 1123.5 218 C 1077.3842192 218 1040 210.3888416 1040 201 Z"/></g><g transform="translate(-22,-22) scale(1,1)"><path fill="none" stroke="#000000" d="M 1040 201 C 1040 191.6111584 1077.3842192 184 1123.5 184 C 1169.6157808 184 1207 191.6111584 1207 201 C 1207 210.3888416 1169.6157808 218 1123.5 218 C 1077.3842192 218 1040 210.3888416 1040 201 Z" stroke-miterlimit="10"/></g><g transform="translate(-22,-22) scale(1,1)"><g><path fill="none" stroke="none"/><text fill="#000000" stroke="none" font-family="Arial" font-size="13px" font-style="normal" font-weight="bold" text-decoration="none" x="1072.91552734375" y="208">First of the queue</text></g></g><g transform="translate(-22,-22) scale(1,1)"><path fill="#C0C0C0" stroke="none" d="M 1063 136 C 1063 126.6111584 1094.1162064 119 1132.5 119 C 1170.8837936 119 1202 126.6111584 1202 136 C 1202 145.3888416 1170.8837936 153 1132.5 153 C 1094.1162064 153 1063 145.3888416 1063 136 Z" opacity="0.2"/></g><g transform="translate(-22,-22) scale(1,1)"><path fill="#ffffff" stroke="none" d="M 1056 129 C 1056 119.6111584 1087.1162064 112 1125.5 112 C 1163.8837936 112 1195 119.6111584 1195 129 C 1195 138.3888416 1163.8837936 146 1125.5 146 C 1087.1162064 146 1056 138.3888416 1056 129 Z"/></g><g transform="translate(-22,-22) scale(1,1)"><path fill="none" stroke="#000000" d="M 1056 129 C 1056 119.6111584 1087.1162064 112 1125.5 112 C 1163.8837936 112 1195 119.6111584 1195 129 C 1195 138.3888416 1163.8837936 146 1125.5 146 C 1087.1162064 146 1056 138.3888416 1056 129 Z" stroke-miterlimit="10"/></g><g transform="translate(-22,-22) scale(1,1)"><g><path fill="none" stroke="none"/><text fill="#000000" stroke="none" font-family="Arial" font-size="13px" font-style="normal" font-weight="bold" text-decoration="none" x="1082.853271484375" y="136">Queue change</text></g></g><g transform="translate(-22,-22) scale(1,1)"><path fill="none" stroke="#000000" d="M 1124 183 L 1125 147" stroke-miterlimit="10"/></g><g transform="translate(-22,-22) scale(1,1)"><path fill="#FFFFFF" stroke="none" d="M 1132.8514139535876 167.55128460533334 L 1125 147 L 1116.0198353419585 167.08374075501033"/></g><g transform="translate(-22,-22) scale(1,1)"><path fill="none" stroke="#000000" d="M 1132.8514139535876 167.55128460533334 L 1125 147 L 1116.0198353419585 167.08374075501033 L 1132.8514139535876 167.55128460533334" stroke-miterlimit="10"/></g><g transform="translate(-22,-22) scale(1,1)"><path fill="none" stroke="#000000" d="M 775 174 L 458 210" stroke-miterlimit="10" stroke-dasharray="3"/></g><g transform="translate(-22,-22) scale(1,1)"><path fill="none" stroke="#000000" d="M 467.62276904999493 204.6706176895948 L 458 210 L 468.5727676202666 213.03588287782028" stroke-miterlimit="10"/></g><g transform="translate(-22,-22) scale(1,1)"><path fill="none" stroke="#000000" d="M 749 399 L 877 179" stroke-miterlimit="10" stroke-dasharray="3"/></g><g transform="translate(-22,-22) scale(1,1)"><path fill="none" stroke="#000000" d="M 875.5277457506835 189.90103056712388 L 877 179 L 868.2507664007425 185.66715167261273" stroke-miterlimit="10"/></g><g transform="translate(-22,-22) scale(1,1)"><path fill="none" stroke="#000000" d="M 949 287 L 897 179" stroke-miterlimit="10" stroke-dasharray="3"/></g><g transform="translate(-22,-22) scale(1,1)"><path fill="none" stroke="#000000" d="M 905.201509608799 186.3304324658766 L 897 179 L 897.6159445546971 189.98274156599976" stroke-miterlimit="10"/></g><g transform="translate(-22,-22) scale(1,1)"><path fill="none" stroke="#000000" d="M 395 711 L 717 435" stroke-miterlimit="10" stroke-dasharray="3"/></g><g transform="translate(-22,-22) scale(1,1)"><path fill="none" stroke="#000000" d="M 712.023439858682 444.80988527760877 L 717 435 L 706.5444041746322 438.4176769795506" stroke-miterlimit="10"/></g><g transform="translate(-22,-22) scale(1,1)"><path fill="none" stroke="#000000" d="M 529 311 L 421 235" stroke-miterlimit="10" stroke-dasharray="3"/></g><g transform="translate(-22,-22) scale(1,1)"><path fill="none" stroke="#000000" d="M 431.7336504475937 237.4059817266288 L 421 235 L 426.8885510240694 244.29112301268967" stroke-miterlimit="10"/></g><g transform="translate(-22,-22) scale(1,1)"><g><path fill="none" stroke="none"/><text fill="#000000" stroke="none" font-family="Arial" font-size="13px" font-style="normal" font-weight="normal" text-decoration="none" x="431" y="304">«extend»</text></g></g><g transform="translate(-22,-22) scale(1,1)"><path fill="none" stroke="#000000" d="M 625 251 L 570 311" stroke-miterlimit="10" stroke-dasharray="3"/></g><g transform="translate(-22,-22) scale(1,1)"><path fill="none" stroke="#000000" d="M 573.764106250815 300.6640673312673 L 570 311 L 579.9702331350064 306.3530169751094" stroke-miterlimit="10"/></g><g transform="translate(-22,-22) scale(1,1)"><g><path fill="none" stroke="none"/><text fill="#000000" stroke="none" font-family="Arial" font-size="13px" font-style="normal" font-weight="normal" text-decoration="none" x="593" y="308">«extend»</text></g></g><g transform="translate(-22,-22) scale(1,1)"><path fill="none" stroke="#000000" d="M 583 229 L 458 221" stroke-miterlimit="10" stroke-dasharray="3"/></g><g transform="translate(-22,-22) scale(1,1)"><path fill="none" stroke="#000000" d="M 468.4107844957596 217.4481601693133 L 458 221 L 467.8730663443904 225.8500062844563" stroke-miterlimit="10"/></g><g transform="translate(-22,-22) scale(1,1)"><g><path fill="none" stroke="none"/><text fill="#000000" stroke="none" font-family="Arial" font-size="13px" font-style="normal" font-weight="normal" text-decoration="none" x="492" y="261">«extend»</text></g></g><g transform="translate(-22,-22) scale(1,1)"><path fill="none" stroke="#000000" d="M 358 83 L 234 263" stroke-miterlimit="10" stroke-dasharray="3"/></g><g transform="translate(-22,-22) scale(1,1)"><path fill="none" stroke="#000000" d="M 236.2987687923849 252.24287854306937 L 234 263 L 243.23190852971834 257.0190414732324" stroke-miterlimit="10"/></g><g transform="translate(-22,-22) scale(1,1)"><g><path fill="none" stroke="none"/><text fill="#000000" stroke="none" font-family="Arial" font-size="13px" font-style="normal" font-weight="normal" text-decoration="none" x="293" y="197">«include»</text></g></g><g transform="translate(-22,-22) scale(1,1)"><path fill="none" stroke="#000000" d="M 373 83 L 393 199" stroke-miterlimit="10" stroke-dasharray="3"/></g><g transform="translate(-22,-22) scale(1,1)"><path fill="none" stroke="#000000" d="M 387.1249793963999 189.70031544044238 L 393 199 L 395.4216031065427 188.26986307662466" stroke-miterlimit="10"/></g><g transform="translate(-22,-22) scale(1,1)"><path fill="none" stroke="#000000" d="M 1127 111 L 1130 67" stroke-miterlimit="10"/></g><g transform="translate(-22,-22) scale(1,1)"><path fill="#FFFFFF" stroke="none" d="M 1137.016925123078 87.85096548884769 L 1130 67 L 1120.2178562461559 86.70557442905755"/></g><g transform="translate(-22,-22) scale(1,1)"><path fill="none" stroke="#000000" d="M 1137.016925123078 87.85096548884769 L 1130 67 L 1120.2178562461559 86.70557442905755 L 1137.016925123078 87.85096548884769" stroke-miterlimit="10"/></g><g transform="translate(-22,-22) scale(1,1)"><path fill="none" stroke="#000000" d="M 927 143 L 1093 67" stroke-miterlimit="10"/></g><g transform="translate(-22,-22) scale(1,1)"><path fill="#FFFFFF" stroke="none" d="M 1078.0240819852013 83.11588904199911 L 1093 67 L 1071.0147723907944 67.80608124368958"/></g><g transform="translate(-22,-22) scale(1,1)"><path fill="none" stroke="#000000" d="M 1078.0240819852013 83.11588904199911 L 1093 67 L 1071.0147723907944 67.80608124368958 L 1078.0240819852013 83.11588904199911" stroke-miterlimit="10"/></g><g transform="translate(-22,-22) scale(1,1)"><path fill="#C0C0C0" stroke="none" d="M 767 584 C 767 574.6111584 799.0116368 567 838.5 567 C 877.9883632 567 910 574.6111584 910 584 C 910 593.3888416 877.9883632 601 838.5 601 C 799.0116368 601 767 593.3888416 767 584 Z" opacity="0.2"/></g><g transform="translate(-22,-22) scale(1,1)"><path fill="#ffffff" stroke="none" d="M 760 577 C 760 567.6111584 792.0116368 560 831.5 560 C 870.9883632 560 903 567.6111584 903 577 C 903 586.3888416 870.9883632 594 831.5 594 C 792.0116368 594 760 586.3888416 760 577 Z"/></g><g transform="translate(-22,-22) scale(1,1)"><path fill="none" stroke="#000000" d="M 760 577 C 760 567.6111584 792.0116368 560 831.5 560 C 870.9883632 560 903 567.6111584 903 577 C 903 586.3888416 870.9883632 594 831.5 594 C 792.0116368 594 760 586.3888416 760 577 Z" stroke-miterlimit="10"/></g><g transform="translate(-22,-22) scale(1,1)"><g><path fill="none" stroke="none"/><text fill="#000000" stroke="none" font-family="Arial" font-size="13px" font-style="normal" font-weight="bold" text-decoration="none" x="788.87548828125" y="584">Notify Problem</text></g></g><g transform="translate(-22,-22) scale(1,1)"><path fill="none" stroke="#000000" d="M 861 559 L 1084 427" stroke-miterlimit="10" stroke-dasharray="3"/></g><g transform="translate(-22,-22) scale(1,1)"><path fill="none" stroke="#000000" d="M 1077.3988306622468 435.7991228752818 L 1084 427 L 1073.1103489439085 428.5541878511195" stroke-miterlimit="10"/></g><g transform="translate(-22,-22) scale(1,1)"><g><path fill="none" stroke="none"/><text fill="#000000" stroke="none" font-family="Arial" font-size="13px" font-style="normal" font-weight="normal" text-decoration="none" x="929" y="474">«include»</text></g></g><g transform="translate(-22,-22) scale(1,1)"><path fill="none" stroke="#000000" d="M 821 559 L 748 435" stroke-miterlimit="10" stroke-dasharray="3"/></g><g transform="translate(-22,-22) scale(1,1)"><path fill="none" stroke="#000000" d="M 756.7833420079298 441.62215245760285 L 748 435 L 749.5281917864656 445.89332960410997" stroke-miterlimit="10"/></g><g transform="translate(-22,-22) scale(1,1)"><g><path fill="none" stroke="none"/><text fill="#000000" stroke="none" font-family="Arial" font-size="13px" font-style="normal" font-weight="normal" text-decoration="none" x="732" y="519">«extend»</text></g></g></g></svg>