<svg version="1.1" xmlns="http://www.w3.org/2000/svg" xmlns:xlink="http://www.w3.org/1999/xlink" width="774" height="862"><defs/><g><g transform="translate(-6,-102) scale(1,1)"><path fill="#ffffff" stroke="none" d="M 130.15935031960228 641.6800000000001 C 130.15935031960228 636.8861679360001 134.04519264454774 633 138.838623046875 633 C 143.63205344920226 633 147.51789577414772 636.8861679360001 147.51789577414772 641.6800000000001 C 147.51789577414772 646.473832064 143.63205344920226 650.36 138.838623046875 650.36 C 134.04519264454774 650.36 130.15935031960228 646.473832064 130.15935031960228 641.6800000000001 Z"/></g><g transform="translate(-6,-102) scale(1,1)"><path fill="none" stroke="#000000" d="M 130.15935031960228 641.6800000000001 C 130.15935031960228 636.8861679360001 134.04519264454774 633 138.838623046875 633 C 143.63205344920226 633 147.51789577414772 636.8861679360001 147.51789577414772 641.6800000000001 C 147.51789577414772 646.473832064 143.63205344920226 650.36 138.838623046875 650.36 C 134.04519264454774 650.36 130.15935031960228 646.473832064 130.15935031960228 641.6800000000001 Z" stroke-miterlimit="10"/></g><g transform="translate(-6,-102) scale(1,1)"><path fill="none" stroke="#000000" d="M 138.838623046875 650.36 L 138.838623046875 667.64" stroke-miterlimit="10"/></g><g transform="translate(-6,-102) scale(1,1)"><path fill="none" stroke="#000000" d="M 129.64880486505683 656.84 L 148.02844122869317 656.84" stroke-miterlimit="10"/></g><g transform="translate(-6,-102) scale(1,1)"><path fill="none" stroke="#000000" d="M 138.838623046875 667.64 L 126.07498668323865 685" stroke-miterlimit="10"/></g><g transform="translate(-6,-102) scale(1,1)"><path fill="none" stroke="#000000" d="M 138.838623046875 667.64 L 151.60225941051135 685" stroke-miterlimit="10"/></g><g transform="translate(-6,-102) scale(1,1)"><g><path fill="none" stroke="none"/><text fill="#000000" stroke="none" font-family="Arial" font-size="13px" font-style="normal" font-weight="bold" text-decoration="none" x="110.66455078125" y="705.5">Customer</text></g></g><g transform="translate(-6,-102) scale(1,1)"><path fill="#ffffff" stroke="none" d="M 112.40935031960228 137.68 C 112.40935031960228 132.886167936 116.29519264454774 129 121.088623046875 129 C 125.88205344920226 129 129.76789577414772 132.886167936 129.76789577414772 137.68 C 129.76789577414772 142.47383206400002 125.88205344920226 146.36 121.088623046875 146.36 C 116.29519264454774 146.36 112.40935031960228 142.47383206400002 112.40935031960228 137.68 Z"/></g><g transform="translate(-6,-102) scale(1,1)"><path fill="none" stroke="#000000" d="M 112.40935031960228 137.68 C 112.40935031960228 132.886167936 116.29519264454774 129 121.088623046875 129 C 125.88205344920226 129 129.76789577414772 132.886167936 129.76789577414772 137.68 C 129.76789577414772 142.47383206400002 125.88205344920226 146.36 121.088623046875 146.36 C 116.29519264454774 146.36 112.40935031960228 142.47383206400002 112.40935031960228 137.68 Z" stroke-miterlimit="10"/></g><g transform="translate(-6,-102) scale(1,1)"><path fill="none" stroke="#000000" d="M 121.088623046875 146.36 L 121.088623046875 163.64" stroke-miterlimit="10"/></g><g transform="translate(-6,-102) scale(1,1)"><path fill="none" stroke="#000000" d="M 111.89880486505683 152.84 L 130.27844122869317 152.84" stroke-miterlimit="10"/></g><g transform="translate(-6,-102) scale(1,1)"><path fill="none" stroke="#000000" d="M 121.088623046875 163.64 L 108.32498668323865 181" stroke-miterlimit="10"/></g><g transform="translate(-6,-102) scale(1,1)"><path fill="none" stroke="#000000" d="M 121.088623046875 163.64 L 133.85225941051135 181" stroke-miterlimit="10"/></g><g transform="translate(-6,-102) scale(1,1)"><g><path fill="none" stroke="none"/><text fill="#000000" stroke="none" font-family="Arial" font-size="13px" font-style="normal" font-weight="bold" text-decoration="none" x="103.746826171875" y="201.5">Guest</text></g></g><g transform="translate(-6,-102) scale(1,1)"><path fill="#ffffff" stroke="none" d="M 133.42204563210228 313.68 C 133.42204563210228 308.886167936 137.30788795704774 305 142.101318359375 305 C 146.89474876170226 305 150.78059108664772 308.886167936 150.78059108664772 313.68 C 150.78059108664772 318.473832064 146.89474876170226 322.36 142.101318359375 322.36 C 137.30788795704774 322.36 133.42204563210228 318.473832064 133.42204563210228 313.68 Z"/></g><g transform="translate(-6,-102) scale(1,1)"><path fill="none" stroke="#000000" d="M 133.42204563210228 313.68 C 133.42204563210228 308.886167936 137.30788795704774 305 142.101318359375 305 C 146.89474876170226 305 150.78059108664772 308.886167936 150.78059108664772 313.68 C 150.78059108664772 318.473832064 146.89474876170226 322.36 142.101318359375 322.36 C 137.30788795704774 322.36 133.42204563210228 318.473832064 133.42204563210228 313.68 Z" stroke-miterlimit="10"/></g><g transform="translate(-6,-102) scale(1,1)"><path fill="none" stroke="#000000" d="M 142.101318359375 322.36 L 142.101318359375 339.64" stroke-miterlimit="10"/></g><g transform="translate(-6,-102) scale(1,1)"><path fill="none" stroke="#000000" d="M 132.91150017755683 328.84 L 151.29113654119317 328.84" stroke-miterlimit="10"/></g><g transform="translate(-6,-102) scale(1,1)"><path fill="none" stroke="#000000" d="M 142.101318359375 339.64 L 129.33768199573865 357" stroke-miterlimit="10"/></g><g transform="translate(-6,-102) scale(1,1)"><path fill="none" stroke="#000000" d="M 142.101318359375 339.64 L 154.86495472301135 357" stroke-miterlimit="10"/></g><g transform="translate(-6,-102) scale(1,1)"><g><path fill="none" stroke="none"/><text fill="#000000" stroke="none" font-family="Arial" font-size="13px" font-style="normal" font-weight="bold" text-decoration="none" x="110.68359375" y="377.5">Taxi Driver</text></g></g><g transform="translate(-6,-102) scale(1,1)"><path fill="#C0C0C0" stroke="none" d="M 271 136 C 271 126.6111584 293.6096176 119 321.5 119 C 349.3903824 119 372 126.6111584 372 136 C 372 145.3888416 349.3903824 153 321.5 153 C 293.6096176 153 271 145.3888416 271 136 Z" opacity="0.2"/></g><g transform="translate(-6,-102) scale(1,1)"><path fill="#ffffff" stroke="none" d="M 264 129 C 264 119.6111584 286.6096176 112 314.5 112 C 342.3903824 112 365 119.6111584 365 129 C 365 138.3888416 342.3903824 146 314.5 146 C 286.6096176 146 264 138.3888416 264 129 Z"/></g><g transform="translate(-6,-102) scale(1,1)"><path fill="none" stroke="#000000" d="M 264 129 C 264 119.6111584 286.6096176 112 314.5 112 C 342.3903824 112 365 119.6111584 365 129 C 365 138.3888416 342.3903824 146 314.5 146 C 286.6096176 146 264 138.3888416 264 129 Z" stroke-miterlimit="10"/></g><g transform="translate(-6,-102) scale(1,1)"><g><path fill="none" stroke="none"/><text fill="#000000" stroke="none" font-family="Arial" font-size="13px" font-style="normal" font-weight="bold" text-decoration="none" x="298.595947265625" y="136">Login</text></g></g><g transform="translate(-6,-102) scale(1,1)"><path fill="#C0C0C0" stroke="none" d="M 271 232 C 271 222.6111584 293.6096176 215 321.5 215 C 349.3903824 215 372 222.6111584 372 232 C 372 241.3888416 349.3903824 249 321.5 249 C 293.6096176 249 271 241.3888416 271 232 Z" opacity="0.2"/></g><g transform="translate(-6,-102) scale(1,1)"><path fill="#ffffff" stroke="none" d="M 264 225 C 264 215.6111584 286.6096176 208 314.5 208 C 342.3903824 208 365 215.6111584 365 225 C 365 234.3888416 342.3903824 242 314.5 242 C 286.6096176 242 264 234.3888416 264 225 Z"/></g><g transform="translate(-6,-102) scale(1,1)"><path fill="none" stroke="#000000" d="M 264 225 C 264 215.6111584 286.6096176 208 314.5 208 C 342.3903824 208 365 215.6111584 365 225 C 365 234.3888416 342.3903824 242 314.5 242 C 286.6096176 242 264 234.3888416 264 225 Z" stroke-miterlimit="10"/></g><g transform="translate(-6,-102) scale(1,1)"><g><path fill="none" stroke="none"/><text fill="#000000" stroke="none" font-family="Arial" font-size="13px" font-style="normal" font-weight="bold" text-decoration="none" x="294.260498046875" y="232">Signup</text></g></g><g transform="translate(-6,-102) scale(1,1)"><path fill="none" stroke="#000000" d="M 147 162 L 263 139" stroke-miterlimit="10"/></g><g transform="translate(-6,-102) scale(1,1)"><path fill="none" stroke="#000000" d="M 253.85009371584937 145.10567072411055 L 263 139 L 252.21267804654494 136.84740039196643" stroke-miterlimit="10"/></g><g transform="translate(-6,-102) scale(1,1)"><path fill="none" stroke="#000000" d="M 147 175 L 263 210" stroke-miterlimit="10"/></g><g transform="translate(-6,-102) scale(1,1)"><path fill="none" stroke="#000000" d="M 252.05458281755762 211.0944600048859 L 263 210 L 254.48652119618694 203.03432137857152" stroke-miterlimit="10"/></g><g transform="translate(-6,-102) scale(1,1)"><path fill="#C0C0C0" stroke="none" d="M 439 600 C 439 590.6111584 470.340064 583 509 583 C 547.659936 583 579 590.6111584 579 600 C 579 609.3888416 547.659936 617 509 617 C 470.340064 617 439 609.3888416 439 600 Z" opacity="0.2"/></g><g transform="translate(-6,-102) scale(1,1)"><path fill="#ffffff" stroke="none" d="M 432 593 C 432 583.6111584 463.340064 576 502 576 C 540.659936 576 572 583.6111584 572 593 C 572 602.3888416 540.659936 610 502 610 C 463.340064 610 432 602.3888416 432 593 Z"/></g><g transform="translate(-6,-102) scale(1,1)"><path fill="none" stroke="#000000" d="M 432 593 C 432 583.6111584 463.340064 576 502 576 C 540.659936 576 572 583.6111584 572 593 C 572 602.3888416 540.659936 610 502 610 C 463.340064 610 432 602.3888416 432 593 Z" stroke-miterlimit="10"/></g><g transform="translate(-6,-102) scale(1,1)"><g><path fill="none" stroke="none"/><text fill="#000000" stroke="none" font-family="Arial" font-size="13px" font-style="normal" font-weight="bold" text-decoration="none" x="466.234130859375" y="600">Taxi request</text></g></g><g transform="translate(-6,-102) scale(1,1)"><path fill="none" stroke="#000000" d="M 175 663 L 431 608" stroke-miterlimit="10"/></g><g transform="translate(-6,-102) scale(1,1)"><path fill="none" stroke="#000000" d="M 421.94826149473715 614.2502823962076 L 431 608 L 420.179837254712 606.0190713880905" stroke-miterlimit="10"/></g><g transform="translate(-6,-102) scale(1,1)"><path fill="#C0C0C0" stroke="none" d="M 151 528 C 151 518.6111584 200.6963872 511 262 511 C 323.3036128 511 373 518.6111584 373 528 C 373 537.3888416 323.3036128 545 262 545 C 200.6963872 545 151 537.3888416 151 528 Z" opacity="0.2"/></g><g transform="translate(-6,-102) scale(1,1)"><path fill="#ffffff" stroke="none" d="M 144 521 C 144 511.6111584 193.6963872 504 255 504 C 316.3036128 504 366 511.6111584 366 521 C 366 530.3888416 316.3036128 538 255 538 C 193.6963872 538 144 530.3888416 144 521 Z"/></g><g transform="translate(-6,-102) scale(1,1)"><path fill="none" stroke="#000000" d="M 144 521 C 144 511.6111584 193.6963872 504 255 504 C 316.3036128 504 366 511.6111584 366 521 C 366 530.3888416 316.3036128 538 255 538 C 193.6963872 538 144 530.3888416 144 521 Z" stroke-miterlimit="10"/></g><g transform="translate(-6,-102) scale(1,1)"><g><path fill="none" stroke="none"/><text fill="#000000" stroke="none" font-family="Arial" font-size="13px" font-style="normal" font-weight="bold" text-decoration="none" x="191.40283203125" y="528">Manage Personal Info</text></g></g><g transform="translate(-6,-102) scale(1,1)"><path fill="none" stroke="#000000" d="M 169 631 L 241 539" stroke-miterlimit="10"/></g><g transform="translate(-6,-102) scale(1,1)"><path fill="none" stroke="#000000" d="M 238.05167580939388 549.5975178446222 L 241 539 L 231.42164324000825 544.4087967033639" stroke-miterlimit="10"/></g><g transform="translate(-6,-102) scale(1,1)"><path fill="#C0C0C0" stroke="none" d="M 639 488 C 639 478.6111584 669.4446336 471 707 471 C 744.5553664 471 775 478.6111584 775 488 C 775 497.3888416 744.5553664 505 707 505 C 669.4446336 505 639 497.3888416 639 488 Z" opacity="0.2"/></g><g transform="translate(-6,-102) scale(1,1)"><path fill="#ffffff" stroke="none" d="M 632 481 C 632 471.6111584 662.4446336 464 700 464 C 737.5553664 464 768 471.6111584 768 481 C 768 490.3888416 737.5553664 498 700 498 C 662.4446336 498 632 490.3888416 632 481 Z"/></g><g transform="translate(-6,-102) scale(1,1)"><path fill="none" stroke="#000000" d="M 632 481 C 632 471.6111584 662.4446336 464 700 464 C 737.5553664 464 768 471.6111584 768 481 C 768 490.3888416 737.5553664 498 700 498 C 662.4446336 498 632 490.3888416 632 481 Z" stroke-miterlimit="10"/></g><g transform="translate(-6,-102) scale(1,1)"><g><path fill="none" stroke="none"/><text fill="#000000" stroke="none" font-family="Arial" font-size="13px" font-style="normal" font-weight="bold" text-decoration="none" x="665.31640625" y="488">Car Sharing</text></g></g><g transform="translate(-6,-102) scale(1,1)"><path fill="none" stroke="#000000" d="M 668 499 L 534 575" stroke-miterlimit="10" stroke-dasharray="3"/></g><g transform="translate(-6,-102) scale(1,1)"><path fill="none" stroke="#000000" d="M 540.7631416147341 566.3247527125129 L 534 575 L 544.9165894833558 573.6479371124511" stroke-miterlimit="10"/></g><g transform="translate(-6,-102) scale(1,1)"><g><path fill="none" stroke="none"/><text fill="#000000" stroke="none" font-family="Arial" font-size="13px" font-style="normal" font-weight="normal" text-decoration="none" x="589" y="570">«extend»</text></g></g><g transform="translate(-6,-102) scale(1,1)"><path fill="#C0C0C0" stroke="none" d="M 631 680 C 631 670.6111584 663.6832096 663 704 663 C 744.3167904 663 777 670.6111584 777 680 C 777 689.3888416 744.3167904 697 704 697 C 663.6832096 697 631 689.3888416 631 680 Z" opacity="0.2"/></g><g transform="translate(-6,-102) scale(1,1)"><path fill="#ffffff" stroke="none" d="M 624 673 C 624 663.6111584 656.6832096 656 697 656 C 737.3167904 656 770 663.6111584 770 673 C 770 682.3888416 737.3167904 690 697 690 C 656.6832096 690 624 682.3888416 624 673 Z"/></g><g transform="translate(-6,-102) scale(1,1)"><path fill="none" stroke="#000000" d="M 624 673 C 624 663.6111584 656.6832096 656 697 656 C 737.3167904 656 770 663.6111584 770 673 C 770 682.3888416 737.3167904 690 697 690 C 656.6832096 690 624 682.3888416 624 673 Z" stroke-miterlimit="10"/></g><g transform="translate(-6,-102) scale(1,1)"><g><path fill="none" stroke="none"/><text fill="#000000" stroke="none" font-family="Arial" font-size="13px" font-style="normal" font-weight="bold" text-decoration="none" x="658.7109375" y="680">Reserve Taxi</text></g></g><g transform="translate(-6,-102) scale(1,1)"><path fill="none" stroke="#000000" d="M 653 655 L 546 611" stroke-miterlimit="10" stroke-dasharray="3"/></g><g transform="translate(-6,-102) scale(1,1)"><path fill="none" stroke="#000000" d="M 556.9999638937002 610.9718160100097 L 546 611 L 553.7980781524857 618.7582199715995" stroke-miterlimit="10"/></g><g transform="translate(-6,-102) scale(1,1)"><g><path fill="none" stroke="none"/><text fill="#000000" stroke="none" font-family="Arial" font-size="13px" font-style="normal" font-weight="normal" text-decoration="none" x="561" y="667">«extend»</text></g></g><g transform="translate(-6,-102) scale(1,1)"><path fill="none" stroke="#000000" d="M 700 499 L 697 655" stroke-miterlimit="10" stroke-dasharray="3"/></g><g transform="translate(-6,-102) scale(1,1)"><path fill="none" stroke="#000000" d="M 692.9866603419617 644.7582665144412 L 697 655 L 701.4041395113403 644.9201411138523" stroke-miterlimit="10"/></g><g transform="translate(-6,-102) scale(1,1)"><g><path fill="none" stroke="none"/><text fill="#000000" stroke="none" font-family="Arial" font-size="13px" font-style="normal" font-weight="normal" text-decoration="none" x="701" y="584">«extend»</text></g></g><g transform="translate(-6,-102) scale(1,1)"><path fill="#C0C0C0" stroke="none" d="M 407 272 C 407 262.6111584 443.4887888 255 488.5 255 C 533.5112112 255 570 262.6111584 570 272 C 570 281.3888416 533.5112112 289 488.5 289 C 443.4887888 289 407 281.3888416 407 272 Z" opacity="0.2"/></g><g transform="translate(-6,-102) scale(1,1)"><path fill="#ffffff" stroke="none" d="M 400 265 C 400 255.6111584 436.4887888 248 481.5 248 C 526.5112112 248 563 255.6111584 563 265 C 563 274.3888416 526.5112112 282 481.5 282 C 436.4887888 282 400 274.3888416 400 265 Z"/></g><g transform="translate(-6,-102) scale(1,1)"><path fill="none" stroke="#000000" d="M 400 265 C 400 255.6111584 436.4887888 248 481.5 248 C 526.5112112 248 563 255.6111584 563 265 C 563 274.3888416 526.5112112 282 481.5 282 C 436.4887888 282 400 274.3888416 400 265 Z" stroke-miterlimit="10"/></g><g transform="translate(-6,-102) scale(1,1)"><g><path fill="none" stroke="none"/><text fill="#000000" stroke="none" font-family="Arial" font-size="13px" font-style="normal" font-weight="bold" text-decoration="none" x="432.010498046875" y="272">Report Customer</text></g></g><g transform="translate(-6,-102) scale(1,1)"><path fill="none" stroke="#000000" d="M 181 334 L 403 283" stroke-miterlimit="10"/></g><g transform="translate(-6,-102) scale(1,1)"><path fill="none" stroke="#000000" d="M 394.0378286198477 289.3780470484921 L 403 283 L 392.1528275242227 281.1727481616539" stroke-miterlimit="10"/></g><g transform="translate(-6,-102) scale(1,1)"><path fill="#C0C0C0" stroke="none" d="M 415 344 C 415 334.6111584 440.2959088 327 471.5 327 C 502.7040912 327 528 334.6111584 528 344 C 528 353.3888416 502.7040912 361 471.5 361 C 440.2959088 361 415 353.3888416 415 344 Z" opacity="0.2"/></g><g transform="translate(-6,-102) scale(1,1)"><path fill="#ffffff" stroke="none" d="M 408 337 C 408 327.6111584 433.2959088 320 464.5 320 C 495.7040912 320 521 327.6111584 521 337 C 521 346.3888416 495.7040912 354 464.5 354 C 433.2959088 354 408 346.3888416 408 337 Z"/></g><g transform="translate(-6,-102) scale(1,1)"><path fill="none" stroke="#000000" d="M 408 337 C 408 327.6111584 433.2959088 320 464.5 320 C 495.7040912 320 521 327.6111584 521 337 C 521 346.3888416 495.7040912 354 464.5 354 C 433.2959088 354 408 346.3888416 408 337 Z" stroke-miterlimit="10"/></g><g transform="translate(-6,-102) scale(1,1)"><g><path fill="none" stroke="none"/><text fill="#000000" stroke="none" font-family="Arial" font-size="13px" font-style="normal" font-weight="bold" text-decoration="none" x="438.122314453125" y="344">Available</text></g></g><g transform="translate(-6,-102) scale(1,1)"><path fill="none" stroke="#000000" d="M 181 342 L 407 338" stroke-miterlimit="10"/></g><g transform="translate(-6,-102) scale(1,1)"><path fill="none" stroke="#000000" d="M 396.91340961367536 342.38870076201414 L 407 338 L 396.76442346936005 333.9709836081976" stroke-miterlimit="10"/></g><g transform="translate(-6,-102) scale(1,1)"><path fill="none" stroke="#000000" d="M 181 370 L 476 575" stroke-miterlimit="10"/></g><g transform="translate(-6,-102) scale(1,1)"><path fill="none" stroke="#000000" d="M 465.25233618621996 572.6574111444892 L 476 575 L 470.05671450062664 565.7437935700991" stroke-miterlimit="10"/></g><g transform="translate(-6,-102) scale(1,1)"><path fill="#C0C0C0" stroke="none" d="M 391 432 C 391 422.6111584 423.0116368 415 462.5 415 C 501.9883632 415 534 422.6111584 534 432 C 534 441.3888416 501.9883632 449 462.5 449 C 423.0116368 449 391 441.3888416 391 432 Z" opacity="0.2"/></g><g transform="translate(-6,-102) scale(1,1)"><path fill="#ffffff" stroke="none" d="M 384 425 C 384 415.6111584 416.0116368 408 455.5 408 C 494.9883632 408 527 415.6111584 527 425 C 527 434.3888416 494.9883632 442 455.5 442 C 416.0116368 442 384 434.3888416 384 425 Z"/></g><g transform="translate(-6,-102) scale(1,1)"><path fill="none" stroke="#000000" d="M 384 425 C 384 415.6111584 416.0116368 408 455.5 408 C 494.9883632 408 527 415.6111584 527 425 C 527 434.3888416 494.9883632 442 455.5 442 C 416.0116368 442 384 434.3888416 384 425 Z" stroke-miterlimit="10"/></g><g transform="translate(-6,-102) scale(1,1)"><g><path fill="none" stroke="none"/><text fill="#000000" stroke="none" font-family="Arial" font-size="13px" font-style="normal" font-weight="bold" text-decoration="none" x="412.87548828125" y="432">Notify Problem</text></g></g><g transform="translate(-6,-102) scale(1,1)"><path fill="none" stroke="#000000" d="M 181 353 L 386 407" stroke-miterlimit="10"/></g><g transform="translate(-6,-102) scale(1,1)"><path fill="none" stroke="#000000" d="M 375.10028572384584 408.4819678465477 L 386 407 L 377.24482860854124 400.34064763612986" stroke-miterlimit="10"/></g><g transform="translate(-6,-102) scale(1,1)"><path fill="#ffffff" stroke="none" d="M 124.70158664772728 857.6800000000001 C 124.70158664772728 852.8861679360001 128.58742897267274 849 133.380859375 849 C 138.17428977732726 849 142.06013210227272 852.8861679360001 142.06013210227272 857.6800000000001 C 142.06013210227272 862.473832064 138.17428977732726 866.36 133.380859375 866.36 C 128.58742897267274 866.36 124.70158664772728 862.473832064 124.70158664772728 857.6800000000001 Z"/></g><g transform="translate(-6,-102) scale(1,1)"><path fill="none" stroke="#000000" d="M 124.70158664772728 857.6800000000001 C 124.70158664772728 852.8861679360001 128.58742897267274 849 133.380859375 849 C 138.17428977732726 849 142.06013210227272 852.8861679360001 142.06013210227272 857.6800000000001 C 142.06013210227272 862.473832064 138.17428977732726 866.36 133.380859375 866.36 C 128.58742897267274 866.36 124.70158664772728 862.473832064 124.70158664772728 857.6800000000001 Z" stroke-miterlimit="10"/></g><g transform="translate(-6,-102) scale(1,1)"><path fill="none" stroke="#000000" d="M 133.380859375 866.36 L 133.380859375 883.64" stroke-miterlimit="10"/></g><g transform="translate(-6,-102) scale(1,1)"><path fill="none" stroke="#000000" d="M 124.19104119318183 872.84 L 142.57067755681817 872.84" stroke-miterlimit="10"/></g><g transform="translate(-6,-102) scale(1,1)"><path fill="none" stroke="#000000" d="M 133.380859375 883.64 L 120.61722301136365 901" stroke-miterlimit="10"/></g><g transform="translate(-6,-102) scale(1,1)"><path fill="none" stroke="#000000" d="M 133.380859375 883.64 L 146.14449573863635 901" stroke-miterlimit="10"/></g><g transform="translate(-6,-102) scale(1,1)"><g><path fill="none" stroke="none"/><text fill="#000000" stroke="none" font-family="Arial" font-size="13px" font-style="normal" font-weight="bold" text-decoration="none" x="102.305908203125" y="921.5">Passenger</text></g></g><g transform="translate(-6,-102) scale(1,1)"><path fill="none" stroke="#000000" d="M 134 847 L 137 712" stroke-miterlimit="10"/></g><g transform="translate(-6,-102) scale(1,1)"><path fill="#FFFFFF" stroke="none" d="M 144.96539455257874 732.5073764685235 L 137 712 L 128.13147953771644 732.1332894681932"/></g><g transform="translate(-6,-102) scale(1,1)"><path fill="none" stroke="#000000" d="M 144.96539455257874 732.5073764685235 L 137 712 L 128.13147953771644 732.1332894681932 L 144.96539455257874 732.5073764685235" stroke-miterlimit="10"/></g><g transform="translate(-6,-102) scale(1,1)"><path fill="#C0C0C0" stroke="none" d="M 311 776 C 311 766.6111584 340.7730608 759 377.5 759 C 414.2269392 759 444 766.6111584 444 776 C 444 785.3888416 414.2269392 793 377.5 793 C 340.7730608 793 311 785.3888416 311 776 Z" opacity="0.2"/></g><g transform="translate(-6,-102) scale(1,1)"><path fill="#ffffff" stroke="none" d="M 304 769 C 304 759.6111584 333.7730608 752 370.5 752 C 407.2269392 752 437 759.6111584 437 769 C 437 778.3888416 407.2269392 786 370.5 786 C 333.7730608 786 304 778.3888416 304 769 Z"/></g><g transform="translate(-6,-102) scale(1,1)"><path fill="none" stroke="#000000" d="M 304 769 C 304 759.6111584 333.7730608 752 370.5 752 C 407.2269392 752 437 759.6111584 437 769 C 437 778.3888416 407.2269392 786 370.5 786 C 333.7730608 786 304 778.3888416 304 769 Z" stroke-miterlimit="10"/></g><g transform="translate(-6,-102) scale(1,1)"><g><path fill="none" stroke="none"/><text fill="#000000" stroke="none" font-family="Arial" font-size="13px" font-style="normal" font-weight="bold" text-decoration="none" x="336.905029296875" y="776">Report Taxi</text></g></g><g transform="translate(-6,-102) scale(1,1)"><path fill="none" stroke="#000000" d="M 172 868 L 334 787" stroke-miterlimit="10"/></g><g transform="translate(-6,-102) scale(1,1)"><path fill="none" stroke="#000000" d="M 326.7927808450386 795.3099935049528 L 334 787 L 323.02767370306094 787.7797792209975" stroke-miterlimit="10"/></g><g transform="translate(-6,-102) scale(1,1)"><path fill="#C0C0C0" stroke="none" d="M 335 888 C 335 878.6111584 379.9953776 871 435.5 871 C 491.0046224 871 536 878.6111584 536 888 C 536 897.3888416 491.0046224 905 435.5 905 C 379.9953776 905 335 897.3888416 335 888 Z" opacity="0.2"/></g><g transform="translate(-6,-102) scale(1,1)"><path fill="#ffffff" stroke="none" d="M 328 881 C 328 871.6111584 372.9953776 864 428.5 864 C 484.0046224 864 529 871.6111584 529 881 C 529 890.3888416 484.0046224 898 428.5 898 C 372.9953776 898 328 890.3888416 328 881 Z"/></g><g transform="translate(-6,-102) scale(1,1)"><path fill="none" stroke="#000000" d="M 328 881 C 328 871.6111584 372.9953776 864 428.5 864 C 484.0046224 864 529 871.6111584 529 881 C 529 890.3888416 484.0046224 898 428.5 898 C 372.9953776 898 328 890.3888416 328 881 Z" stroke-miterlimit="10"/></g><g transform="translate(-6,-102) scale(1,1)"><g><path fill="none" stroke="none"/><text fill="#000000" stroke="none" font-family="Arial" font-size="13px" font-style="normal" font-weight="bold" text-decoration="none" x="364.9091796875" y="888">Manage Taxi Request</text></g></g><g transform="translate(-6,-102) scale(1,1)"><path fill="none" stroke="#000000" d="M 172 886 L 327 883" stroke-miterlimit="10"/></g><g transform="translate(-6,-102) scale(1,1)"><path fill="none" stroke="#000000" d="M 316.9206874073592 887.4053896149867 L 327 883 L 316.75776884551885 878.9879305865705" stroke-miterlimit="10"/></g><g transform="translate(-6,-102) scale(1,1)"><path fill="#C0C0C0" stroke="none" d="M 575 808 C 575 798.6111584 616.8613712 791 668.5 791 C 720.1386288 791 762 798.6111584 762 808 C 762 817.3888416 720.1386288 825 668.5 825 C 616.8613712 825 575 817.3888416 575 808 Z" opacity="0.2"/></g><g transform="translate(-6,-102) scale(1,1)"><path fill="#ffffff" stroke="none" d="M 568 801 C 568 791.6111584 609.8613712 784 661.5 784 C 713.1386288 784 755 791.6111584 755 801 C 755 810.3888416 713.1386288 818 661.5 818 C 609.8613712 818 568 810.3888416 568 801 Z"/></g><g transform="translate(-6,-102) scale(1,1)"><path fill="none" stroke="#000000" d="M 568 801 C 568 791.6111584 609.8613712 784 661.5 784 C 713.1386288 784 755 791.6111584 755 801 C 755 810.3888416 713.1386288 818 661.5 818 C 609.8613712 818 568 810.3888416 568 801 Z" stroke-miterlimit="10"/></g><g transform="translate(-6,-102) scale(1,1)"><g><path fill="none" stroke="none"/><text fill="#000000" stroke="none" font-family="Arial" font-size="13px" font-style="normal" font-weight="bold" text-decoration="none" x="602.609619140625" y="808">Delete Taxi Request</text></g></g><g transform="translate(-6,-102) scale(1,1)"><path fill="none" stroke="#000000" d="M 609 819 L 480 863" stroke-miterlimit="10" stroke-dasharray="3"/></g><g transform="translate(-6,-102) scale(1,1)"><path fill="none" stroke="#000000" d="M 488.2596271619668 855.7351146502302 L 480 863 L 490.97748807166437 863.7033886809344" stroke-miterlimit="10"/></g><g transform="translate(-6,-102) scale(1,1)"><g><path fill="none" stroke="none"/><text fill="#000000" stroke="none" font-family="Arial" font-size="13px" font-style="normal" font-weight="normal" text-decoration="none" x="536" y="860">«extend»</text></g></g><g transform="translate(-6,-102) scale(1,1)"><path fill="#C0C0C0" stroke="none" d="M 583 944 C 583 934.6111584 625.7568016 927 678.5 927 C 731.2431984 927 774 934.6111584 774 944 C 774 953.3888416 731.2431984 961 678.5 961 C 625.7568016 961 583 953.3888416 583 944 Z" opacity="0.2"/></g><g transform="translate(-6,-102) scale(1,1)"><path fill="#ffffff" stroke="none" d="M 576 937 C 576 927.6111584 618.7568016 920 671.5 920 C 724.2431984 920 767 927.6111584 767 937 C 767 946.3888416 724.2431984 954 671.5 954 C 618.7568016 954 576 946.3888416 576 937 Z"/></g><g transform="translate(-6,-102) scale(1,1)"><path fill="none" stroke="#000000" d="M 576 937 C 576 927.6111584 618.7568016 920 671.5 920 C 724.2431984 920 767 927.6111584 767 937 C 767 946.3888416 724.2431984 954 671.5 954 C 618.7568016 954 576 946.3888416 576 937 Z" stroke-miterlimit="10"/></g><g transform="translate(-6,-102) scale(1,1)"><g><path fill="none" stroke="none"/><text fill="#000000" stroke="none" font-family="Arial" font-size="13px" font-style="normal" font-weight="bold" text-decoration="none" x="612.254150390625" y="944">Modify Taxi Request</text></g></g><g transform="translate(-6,-102) scale(1,1)"><path fill="none" stroke="#000000" d="M 593 919 L 506 899" stroke-miterlimit="10" stroke-dasharray="3"/></g><g transform="translate(-6,-102) scale(1,1)"><path fill="none" stroke="#000000" d="M 516.8474419434143 897.1743485315492 L 506 899 L 514.9612302901403 905.379369223291" stroke-miterlimit="10"/></g><g transform="translate(-6,-102) scale(1,1)"><g><path fill="none" stroke="none"/><text fill="#000000" stroke="none" font-family="Arial" font-size="13px" font-style="normal" font-weight="normal" text-decoration="none" x="516" y="945">«extend»</text></g></g><g transform="translate(-6,-102) scale(1,1)"><path fill="none" stroke="#000000" d="M 168 384 L 244 503" stroke-miterlimit="10"/></g><g transform="translate(-6,-102) scale(1,1)"><path fill="none" stroke="#000000" d="M 234.98222413185653 496.7008160534932 L 244 503 L 242.07766521693173 492.1692738478989" stroke-miterlimit="10"/></g><g transform="translate(-6,-102) scale(1,1)"><path fill="#ffffff" stroke="none" d="M 32.40935031960227 481.68 C 32.40935031960227 476.886167936 36.295192644547726 473 41.088623046875 473 C 45.882053449202274 473 49.76789577414773 476.886167936 49.76789577414773 481.68 C 49.76789577414773 486.473832064 45.882053449202274 490.36 41.088623046875 490.36 C 36.295192644547726 490.36 32.40935031960227 486.473832064 32.40935031960227 481.68 Z"/></g><g transform="translate(-6,-102) scale(1,1)"><path fill="none" stroke="#000000" d="M 32.40935031960227 481.68 C 32.40935031960227 476.886167936 36.295192644547726 473 41.088623046875 473 C 45.882053449202274 473 49.76789577414773 476.886167936 49.76789577414773 481.68 C 49.76789577414773 486.473832064 45.882053449202274 490.36 41.088623046875 490.36 C 36.295192644547726 490.36 32.40935031960227 486.473832064 32.40935031960227 481.68 Z" stroke-miterlimit="10"/></g><g transform="translate(-6,-102) scale(1,1)"><path fill="none" stroke="#000000" d="M 41.088623046875 490.36 L 41.088623046875 507.64" stroke-miterlimit="10"/></g><g transform="translate(-6,-102) scale(1,1)"><path fill="none" stroke="#000000" d="M 31.898804865056817 496.84 L 50.27844122869318 496.84" stroke-miterlimit="10"/></g><g transform="translate(-6,-102) scale(1,1)"><path fill="none" stroke="#000000" d="M 41.088623046875 507.64 L 28.324986683238635 525" stroke-miterlimit="10"/></g><g transform="translate(-6,-102) scale(1,1)"><path fill="none" stroke="#000000" d="M 41.088623046875 507.64 L 53.852259410511365 525" stroke-miterlimit="10"/></g><g transform="translate(-6,-102) scale(1,1)"><g><path fill="none" stroke="none"/><text fill="#000000" stroke="none" font-family="Arial" font-size="13px" font-style="normal" font-weight="bold" text-decoration="none" x="27.364990234375" y="545.5">User</text></g></g><g transform="translate(-6,-102) scale(1,1)"><path fill="none" stroke="#000000" d="M 117 384 L 65 471" stroke-miterlimit="10"/></g><g transform="translate(-6,-102) scale(1,1)"><path fill="#FFFFFF" stroke="none" d="M 68.20121855009897 449.2341506070978 L 65 471 L 82.65438304884141 457.87282364082887"/></g><g transform="translate(-6,-102) scale(1,1)"><path fill="none" stroke="#000000" d="M 68.20121855009897 449.2341506070978 L 65 471 L 82.65438304884141 457.87282364082887 L 68.20121855009897 449.2341506070978" stroke-miterlimit="10"/></g><g transform="translate(-6,-102) scale(1,1)"><path fill="none" stroke="#000000" d="M 114 631 L 66 552" stroke-miterlimit="10"/></g><g transform="translate(-6,-102) scale(1,1)"><path fill="#FFFFFF" stroke="none" d="M 83.74919231978055 564.9986988577874 L 66 552 L 69.3591061409577 573.7420423588443"/></g><g transform="translate(-6,-102) scale(1,1)"><path fill="none" stroke="#000000" d="M 83.74919231978055 564.9986988577874 L 66 552 L 69.3591061409577 573.7420423588443 L 83.74919231978055 564.9986988577874" stroke-miterlimit="10"/></g></g></svg>