<svg version="1.1" xmlns="http://www.w3.org/2000/svg" xmlns:xlink="http://www.w3.org/1999/xlink" width="799" height="1684"><defs/><g><g transform="translate(-342,-270) scale(1,1)"><path fill="#C0C0C0" stroke="none" d="M 727 315 C 727 299.5360256 739.5360256 287 755 287 C 770.4639744 287 783 299.5360256 783 315 C 783 330.4639744 770.4639744 343 755 343 C 739.5360256 343 727 330.4639744 727 315 Z" opacity="0.2"/></g><g transform="translate(-342,-270) scale(1,1)"><path fill="#000000" stroke="none" d="M 720 308 C 720 292.5360256 732.5360256 280 748 280 C 763.4639744 280 776 292.5360256 776 308 C 776 323.4639744 763.4639744 336 748 336 C 732.5360256 336 720 323.4639744 720 308 Z"/></g><g transform="translate(-342,-270) scale(1,1)"><g><path fill="none" stroke="none"/><text fill="#000000" stroke="none" font-family="Arial" font-size="16px" font-style="normal" font-weight="normal" text-decoration="none" x="781" y="389">The User sends a Taxi request and</text><text fill="#000000" stroke="none" font-family="Arial" font-size="16px" font-style="normal" font-weight="normal" text-decoration="none" x="781" y="405">the Taxi Driver Confirms </text></g></g><g transform="translate(-342,-270) scale(1,1)"><path fill="#C0C0C0" stroke="none" d="M 681 463 L 829 463 Q 839 463 839 473 L 839 534 Q 839 544 829 544 L 681 544 Q 671 544 671 534 L 671 473 Q 671 463 681 463 Z" opacity="0.2"/></g><g transform="translate(-342,-270) scale(1,1)"><path fill="#ffffff" stroke="none" d="M 674 456 L 822 456 Q 832 456 832 466 L 832 527 Q 832 537 822 537 L 674 537 Q 664 537 664 527 L 664 466 Q 664 456 674 456 Z"/></g><g transform="translate(-342,-270) scale(1,1)"><path fill="none" stroke="#000000" d="M 674 456 L 822 456 Q 832 456 832 466 L 832 527 Q 832 537 822 537 L 674 537 Q 664 537 664 527 L 664 466 Q 664 456 674 456 Z" stroke-miterlimit="10"/></g><g transform="translate(-342,-270) scale(1,1)"><path fill="none" stroke="#000000" d="M 664 488 L 832 488" stroke-miterlimit="10"/></g><g transform="translate(-342,-270) scale(1,1)"><g><path fill="none" stroke="none"/><text fill="#000000" stroke="none" font-family="Arial" font-size="20px" font-style="normal" font-weight="bold" text-decoration="none" x="727.9951171875" y="482.5">New</text></g></g><g transform="translate(-342,-270) scale(1,1)"><path fill="none" stroke="#000000" d="M 748 337 L 748 455" stroke-miterlimit="10"/></g><g transform="translate(-342,-270) scale(1,1)"><path fill="none" stroke="#000000" d="M 743.790482243984 444.83732514237585 L 748 455 L 752.209517756016 444.83732514237585" stroke-miterlimit="10"/></g><g transform="translate(-342,-270) scale(1,1)"><path fill="#C0C0C0" stroke="none" d="M 681 631 L 836 631 Q 846 631 846 641 L 846 724 Q 846 734 836 734 L 681 734 Q 671 734 671 724 L 671 641 Q 671 631 681 631 Z" opacity="0.2"/></g><g transform="translate(-342,-270) scale(1,1)"><path fill="#ffffff" stroke="none" d="M 674 624 L 829 624 Q 839 624 839 634 L 839 717 Q 839 727 829 727 L 674 727 Q 664 727 664 717 L 664 634 Q 664 624 674 624 Z"/></g><g transform="translate(-342,-270) scale(1,1)"><path fill="none" stroke="#000000" d="M 674 624 L 829 624 Q 839 624 839 634 L 839 717 Q 839 727 829 727 L 674 727 Q 664 727 664 717 L 664 634 Q 664 624 674 624 Z" stroke-miterlimit="10"/></g><g transform="translate(-342,-270) scale(1,1)"><path fill="none" stroke="#000000" d="M 664 656 L 839 656" stroke-miterlimit="10"/></g><g transform="translate(-342,-270) scale(1,1)"><g><path fill="none" stroke="none"/><text fill="#000000" stroke="none" font-family="Arial" font-size="20px" font-style="normal" font-weight="bold" text-decoration="none" x="725.923828125" y="650.5">Begin</text></g></g><g transform="translate(-342,-270) scale(1,1)"><path fill="none" stroke="#000000" d="M 749 538 L 750 623" stroke-miterlimit="10"/></g><g transform="translate(-342,-270) scale(1,1)"><path fill="none" stroke="#000000" d="M 745.6712209224274 612.887548680089 L 750 623 L 754.0896738627179 612.788508057262" stroke-miterlimit="10"/></g><g transform="translate(-342,-270) scale(1,1)"><path fill="none" stroke="#000000" d="M 784 624 L 784 592 L 872 592 L 872 675 L 839 675" stroke-miterlimit="10"/></g><g transform="translate(-342,-270) scale(1,1)"><path fill="none" stroke="#000000" d="M 849.1626748576241 670.790482243984 L 839 675 L 849.1626748576241 679.209517756016" stroke-miterlimit="10"/></g><g transform="translate(-342,-270) scale(1,1)"><g><path fill="none" stroke="none"/><text fill="#000000" stroke="none" font-family="Arial" font-size="16px" font-style="normal" font-weight="normal" text-decoration="none" x="893" y="621">Ride  adds departure</text><text fill="#000000" stroke="none" font-family="Arial" font-size="16px" font-style="normal" font-weight="normal" text-decoration="none" x="893" y="637">time and User as</text><text fill="#000000" stroke="none" font-family="Arial" font-size="16px" font-style="normal" font-weight="normal" text-decoration="none" x="893" y="653">passenger</text></g></g><g transform="translate(-342,-270) scale(1,1)"><path fill="#C0C0C0" stroke="none" d="M 449 903 L 645 903 Q 655 903 655 913 L 655 1005 Q 655 1015 645 1015 L 449 1015 Q 439 1015 439 1005 L 439 913 Q 439 903 449 903 Z" opacity="0.2"/></g><g transform="translate(-342,-270) scale(1,1)"><path fill="#ffffff" stroke="none" d="M 442 896 L 638 896 Q 648 896 648 906 L 648 998 Q 648 1008 638 1008 L 442 1008 Q 432 1008 432 998 L 432 906 Q 432 896 442 896 Z"/></g><g transform="translate(-342,-270) scale(1,1)"><path fill="none" stroke="#000000" d="M 442 896 L 638 896 Q 648 896 648 906 L 648 998 Q 648 1008 638 1008 L 442 1008 Q 432 1008 432 998 L 432 906 Q 432 896 442 896 Z" stroke-miterlimit="10"/></g><g transform="translate(-342,-270) scale(1,1)"><path fill="none" stroke="#000000" d="M 432 928 L 648 928" stroke-miterlimit="10"/></g><g transform="translate(-342,-270) scale(1,1)"><g><path fill="none" stroke="none"/><text fill="#000000" stroke="none" font-family="Arial" font-size="20px" font-style="normal" font-weight="bold" text-decoration="none" x="471.62109375" y="922.5">Add Passenger</text></g></g><g transform="translate(-342,-270) scale(1,1)"><path fill="#C0C0C0" stroke="none" d="M 711 799.5 L 755.5 775 L 799 799.5 L 755.5 823 L 711 799.5" opacity="0.2"/></g><g transform="translate(-342,-270) scale(1,1)"><path fill="#ffffff" stroke="none" d="M 704 792 L 748 768 L 792 792 L 748 816 L 704 792"/></g><g transform="translate(-342,-270) scale(1,1)"><path fill="none" stroke="#000000" d="M 704 792 L 748 768 L 792 792 L 748 816 L 704 792 L 704 792" stroke-miterlimit="10"/></g><g transform="translate(-342,-270) scale(1,1)"><path fill="none" stroke="#000000" d="M 750 728 L 749 767" stroke-miterlimit="10"/></g><g transform="translate(-342,-270) scale(1,1)"><path fill="none" stroke="#000000" d="M 745.0523611490146 756.732763395042 L 749 767 L 753.4686304262053 756.9485651713802" stroke-miterlimit="10"/></g><g transform="translate(-342,-270) scale(1,1)"><path fill="none" stroke="#000000" d="M 716 817 L 614 895" stroke-miterlimit="10"/></g><g transform="translate(-342,-270) scale(1,1)"><path fill="none" stroke="#000000" d="M 619.5157283634411 885.4828186619812 L 614 895 L 624.6298723908673 892.1705454670771" stroke-miterlimit="10"/></g><g transform="translate(-342,-270) scale(1,1)"><g><path fill="none" stroke="none"/><text fill="#000000" stroke="none" font-family="Arial" font-size="16px" font-style="normal" font-weight="normal" text-decoration="none" x="629" y="821">Car</text><text fill="#000000" stroke="none" font-family="Arial" font-size="16px" font-style="normal" font-weight="normal" text-decoration="none" x="629" y="837">sharing</text></g></g><g transform="translate(-342,-270) scale(1,1)"><path fill="none" stroke="#000000" d="M 536 896 L 536 876 L 384 876 L 384 952 L 432 952" stroke-miterlimit="10"/></g><g transform="translate(-342,-270) scale(1,1)"><path fill="none" stroke="#000000" d="M 421.83732514237585 956.209517756016 L 432 952 L 421.83732514237585 947.790482243984" stroke-miterlimit="10"/></g><g transform="translate(-342,-270) scale(1,1)"><g><path fill="none" stroke="none"/><text fill="#000000" stroke="none" font-family="Arial" font-size="16px" font-style="normal" font-weight="normal" text-decoration="none" x="352" y="861">Ride adds other Users as passenger</text></g></g><g transform="translate(-342,-270) scale(1,1)"><path fill="#C0C0C0" stroke="none" d="M 722 1087 L 785 1087 Q 788 1087 788 1090 L 788 1089 Q 788 1092 785 1092 L 722 1092 Q 719 1092 719 1089 L 719 1090 Q 719 1087 722 1087 Z" opacity="0.2"/></g><g transform="translate(-342,-270) scale(1,1)"><path fill="#000000" stroke="none" d="M 715 1080 L 778 1080 Q 781 1080 781 1083 L 781 1083 Q 781 1086 778 1086 L 715 1086 Q 712 1086 712 1083 L 712 1083 Q 712 1080 715 1080 Z"/></g><g transform="translate(-342,-270) scale(1,1)"><path fill="none" stroke="#000000" d="M 630 1009 L 741 1079" stroke-miterlimit="10"/></g><g transform="translate(-342,-270) scale(1,1)"><path fill="none" stroke="#000000" d="M 730.1584540328549 1077.139655665668 L 741 1079 L 734.6493314222342 1070.018407233938" stroke-miterlimit="10"/></g><g transform="translate(-342,-270) scale(1,1)"><path fill="none" stroke="#000000" d="M 748 817 L 746 1079" stroke-miterlimit="10"/></g><g transform="translate(-342,-270) scale(1,1)"><path fill="none" stroke="#000000" d="M 741.8681802969008 1068.805488440289 L 746 1079 L 750.2869705240547 1068.869754014542" stroke-miterlimit="10"/></g><g transform="translate(-342,-270) scale(1,1)"><g><path fill="none" stroke="none"/><text fill="#000000" stroke="none" font-family="Arial" font-size="16px" font-style="normal" font-weight="normal" text-decoration="none" x="765" y="941">Normal</text><text fill="#000000" stroke="none" font-family="Arial" font-size="16px" font-style="normal" font-weight="normal" text-decoration="none" x="765" y="957">Request</text></g></g><g transform="translate(-342,-270) scale(1,1)"><path fill="#C0C0C0" stroke="none" d="M 657 1207 L 853 1207 Q 863 1207 863 1217 L 863 1309 Q 863 1319 853 1319 L 657 1319 Q 647 1319 647 1309 L 647 1217 Q 647 1207 657 1207 Z" opacity="0.2"/></g><g transform="translate(-342,-270) scale(1,1)"><path fill="#ffffff" stroke="none" d="M 650 1200 L 846 1200 Q 856 1200 856 1210 L 856 1302 Q 856 1312 846 1312 L 650 1312 Q 640 1312 640 1302 L 640 1210 Q 640 1200 650 1200 Z"/></g><g transform="translate(-342,-270) scale(1,1)"><path fill="none" stroke="#000000" d="M 650 1200 L 846 1200 Q 856 1200 856 1210 L 856 1302 Q 856 1312 846 1312 L 650 1312 Q 640 1312 640 1302 L 640 1210 Q 640 1200 650 1200 Z" stroke-miterlimit="10"/></g><g transform="translate(-342,-270) scale(1,1)"><path fill="none" stroke="#000000" d="M 640 1232 L 856 1232" stroke-miterlimit="10"/></g><g transform="translate(-342,-270) scale(1,1)"><g><path fill="none" stroke="none"/><text fill="#000000" stroke="none" font-family="Arial" font-size="20px" font-style="normal" font-weight="bold" text-decoration="none" x="674.0791015625" y="1226.5">Ride in Progress</text></g></g><g transform="translate(-342,-270) scale(1,1)"><path fill="none" stroke="#000000" d="M 746 1086 L 747 1199" stroke-miterlimit="10"/></g><g transform="translate(-342,-270) scale(1,1)"><path fill="none" stroke="#000000" d="M 742.7007154134801 1188.8749739731636 L 747 1199 L 751.1194212778872 1188.8004721513548" stroke-miterlimit="10"/></g><g transform="translate(-342,-270) scale(1,1)"><g><path fill="none" stroke="none"/><text fill="#000000" stroke="none" font-family="Arial" font-size="16px" font-style="normal" font-weight="normal" text-decoration="none" x="768" y="1148">starting time reached</text></g></g><g transform="translate(-342,-270) scale(1,1)"><path fill="#C0C0C0" stroke="none" d="M 695 1424 L 755.5 1391 L 815 1424 L 755.5 1456 L 695 1424" opacity="0.2"/></g><g transform="translate(-342,-270) scale(1,1)"><path fill="#ffffff" stroke="none" d="M 688 1416.5 L 748 1384 L 808 1416.5 L 748 1449 L 688 1416.5"/></g><g transform="translate(-342,-270) scale(1,1)"><path fill="none" stroke="#000000" d="M 688 1416.5 L 748 1384 L 808 1416.5 L 748 1449 L 688 1416.5 L 688 1416.5" stroke-miterlimit="10"/></g><g transform="translate(-342,-270) scale(1,1)"><path fill="none" stroke="#000000" d="M 748 1313 L 748 1383" stroke-miterlimit="10"/></g><g transform="translate(-342,-270) scale(1,1)"><path fill="none" stroke="#000000" d="M 743.790482243984 1372.837325142376 L 748 1383 L 752.209517756016 1372.837325142376" stroke-miterlimit="10"/></g><g transform="translate(-342,-270) scale(1,1)"><path fill="#C0C0C0" stroke="none" d="M 465 1583 L 661 1583 Q 671 1583 671 1593 L 671 1685 Q 671 1695 661 1695 L 465 1695 Q 455 1695 455 1685 L 455 1593 Q 455 1583 465 1583 Z" opacity="0.2"/></g><g transform="translate(-342,-270) scale(1,1)"><path fill="#ffffff" stroke="none" d="M 458 1576 L 654 1576 Q 664 1576 664 1586 L 664 1678 Q 664 1688 654 1688 L 458 1688 Q 448 1688 448 1678 L 448 1586 Q 448 1576 458 1576 Z"/></g><g transform="translate(-342,-270) scale(1,1)"><path fill="none" stroke="#000000" d="M 458 1576 L 654 1576 Q 664 1576 664 1586 L 664 1678 Q 664 1688 654 1688 L 458 1688 Q 448 1688 448 1678 L 448 1586 Q 448 1576 458 1576 Z" stroke-miterlimit="10"/></g><g transform="translate(-342,-270) scale(1,1)"><path fill="none" stroke="#000000" d="M 448 1608 L 664 1608" stroke-miterlimit="10"/></g><g transform="translate(-342,-270) scale(1,1)"><g><path fill="none" stroke="none"/><text fill="#000000" stroke="none" font-family="Arial" font-size="20px" font-style="normal" font-weight="bold" text-decoration="none" x="482.0791015625" y="1602.5">Ride Successfull</text></g></g><g transform="translate(-342,-270) scale(1,1)"><path fill="none" stroke="#000000" d="M 718 1450 L 607 1575" stroke-miterlimit="10"/></g><g transform="translate(-342,-270) scale(1,1)"><path fill="none" stroke="#000000" d="M 610.6003178312513 1564.605880916885 L 607 1575 L 616.8955612410357 1570.1960570647736" stroke-miterlimit="10"/></g><g transform="translate(-342,-270) scale(1,1)"><g><path fill="none" stroke="none"/><text fill="#000000" stroke="none" font-family="Arial" font-size="16px" font-style="normal" font-weight="normal" text-decoration="none" x="565" y="1469">Taxi Driver</text><text fill="#000000" stroke="none" font-family="Arial" font-size="16px" font-style="normal" font-weight="normal" text-decoration="none" x="565" y="1485">reaches the</text><text fill="#000000" stroke="none" font-family="Arial" font-size="16px" font-style="normal" font-weight="normal" text-decoration="none" x="565" y="1501">end point</text></g></g><g transform="translate(-342,-270) scale(1,1)"><path fill="none" stroke="#000000" d="M 556 1576 L 556 1556 L 384 1556 L 384 1632 L 448 1632" stroke-miterlimit="10"/></g><g transform="translate(-342,-270) scale(1,1)"><path fill="none" stroke="#000000" d="M 437.83732514237585 1636.2095177560159 L 448 1632 L 437.83732514237585 1627.7904822439841" stroke-miterlimit="10"/></g><g transform="translate(-342,-270) scale(1,1)"><g><path fill="none" stroke="none"/><text fill="#000000" stroke="none" font-family="Arial" font-size="16px" font-style="normal" font-weight="normal" text-decoration="none" x="387" y="1550">Ride sets end time</text></g></g><g transform="translate(-342,-270) scale(1,1)"><path fill="#C0C0C0" stroke="none" d="M 809 1575 L 1005 1575 Q 1015 1575 1015 1585 L 1015 1677 Q 1015 1687 1005 1687 L 809 1687 Q 799 1687 799 1677 L 799 1585 Q 799 1575 809 1575 Z" opacity="0.2"/></g><g transform="translate(-342,-270) scale(1,1)"><path fill="#ffffff" stroke="none" d="M 802 1568 L 998 1568 Q 1008 1568 1008 1578 L 1008 1670 Q 1008 1680 998 1680 L 802 1680 Q 792 1680 792 1670 L 792 1578 Q 792 1568 802 1568 Z"/></g><g transform="translate(-342,-270) scale(1,1)"><path fill="none" stroke="#000000" d="M 802 1568 L 998 1568 Q 1008 1568 1008 1578 L 1008 1670 Q 1008 1680 998 1680 L 802 1680 Q 792 1680 792 1670 L 792 1578 Q 792 1568 802 1568 Z" stroke-miterlimit="10"/></g><g transform="translate(-342,-270) scale(1,1)"><path fill="none" stroke="#000000" d="M 792 1600 L 1008 1600" stroke-miterlimit="10"/></g><g transform="translate(-342,-270) scale(1,1)"><g><path fill="none" stroke="none"/><text fill="#000000" stroke="none" font-family="Arial" font-size="20px" font-style="normal" font-weight="bold" text-decoration="none" x="846.0888671875" y="1594.5">Ride Failure</text></g></g><g transform="translate(-342,-270) scale(1,1)"><path fill="none" stroke="#000000" d="M 773 1450 L 858 1567" stroke-miterlimit="10"/></g><g transform="translate(-342,-270) scale(1,1)"><path fill="none" stroke="#000000" d="M 848.6211342572781 1561.2522284857523 L 858 1567 L 855.4324286479185 1556.3038522190477" stroke-miterlimit="10"/></g><g transform="translate(-342,-270) scale(1,1)"><g><path fill="none" stroke="none"/><text fill="#000000" stroke="none" font-family="Arial" font-size="16px" font-style="normal" font-weight="normal" text-decoration="none" x="853" y="1477">Taxi Driver sends</text><text fill="#000000" stroke="none" font-family="Arial" font-size="16px" font-style="normal" font-weight="normal" text-decoration="none" x="853" y="1493">report problem </text></g></g><g transform="translate(-342,-270) scale(1,1)"><path fill="none" stroke="#000000" d="M 900 1568 L 900 1548 L 1038 1548 L 1038 1624 L 1008 1624" stroke-miterlimit="10"/></g><g transform="translate(-342,-270) scale(1,1)"><path fill="none" stroke="#000000" d="M 1018.1626748576241 1619.7904822439841 L 1008 1624 L 1018.1626748576241 1628.2095177560159" stroke-miterlimit="10"/></g><g transform="translate(-342,-270) scale(1,1)"><g><path fill="none" stroke="none"/><text fill="#000000" stroke="none" font-family="Arial" font-size="16px" font-style="normal" font-weight="normal" text-decoration="none" x="876" y="1541">Ride sets Completed to false</text></g></g><g transform="translate(-342,-270) scale(1,1)"><path fill="#C0C0C0" stroke="none" d="M 722 1791 L 785 1791 Q 788 1791 788 1794 L 788 1793 Q 788 1796 785 1796 L 722 1796 Q 719 1796 719 1793 L 719 1794 Q 719 1791 722 1791 Z" opacity="0.2"/></g><g transform="translate(-342,-270) scale(1,1)"><path fill="#000000" stroke="none" d="M 715 1784 L 778 1784 Q 781 1784 781 1787 L 781 1787 Q 781 1790 778 1790 L 715 1790 Q 712 1790 712 1787 L 712 1787 Q 712 1784 715 1784 Z"/></g><g transform="translate(-342,-270) scale(1,1)"><path fill="none" stroke="#000000" d="M 626 1689 L 742 1783" stroke-miterlimit="10"/></g><g transform="translate(-342,-270) scale(1,1)"><path fill="none" stroke="#000000" d="M 731.4540413713752 1779.8722601445559 L 742 1783 L 736.7545272011586 1773.3312350780145" stroke-miterlimit="10"/></g><g transform="translate(-342,-270) scale(1,1)"><path fill="none" stroke="#000000" d="M 846 1681 L 749 1783" stroke-miterlimit="10"/></g><g transform="translate(-342,-270) scale(1,1)"><path fill="none" stroke="#000000" d="M 752.9529266277542 1772.7347980499362 L 749 1783 L 759.0537351331573 1778.5365473148784" stroke-miterlimit="10"/></g><g transform="translate(-342,-270) scale(1,1)"><path fill="#C0C0C0" stroke="none" d="M 727 1923 C 727 1907.5360256 739.5360256 1895 755 1895 C 770.4639744 1895 783 1907.5360256 783 1923 C 783 1938.4639744 770.4639744 1951 755 1951 C 739.5360256 1951 727 1938.4639744 727 1923 Z" opacity="0.2"/></g><g transform="translate(-342,-270) scale(1,1)"><path fill="none" stroke="#000000" d="M 720 1916 C 720 1900.5360256 732.5360256 1888 748 1888 C 763.4639744 1888 776 1900.5360256 776 1916 C 776 1931.4639744 763.4639744 1944 748 1944 C 732.5360256 1944 720 1931.4639744 720 1916 Z" stroke-miterlimit="10"/></g><g transform="translate(-342,-270) scale(1,1)"><path fill="#000000" stroke="none" d="M 725 1916 C 725 1903.2974496 735.2974496 1893 748 1893 C 760.7025504 1893 771 1903.2974496 771 1916 C 771 1928.7025504 760.7025504 1939 748 1939 C 735.2974496 1939 725 1928.7025504 725 1916 Z"/></g><g transform="translate(-342,-270) scale(1,1)"><path fill="none" stroke="#000000" d="M 746 1790 L 748 1887" stroke-miterlimit="10"/></g><g transform="translate(-342,-270) scale(1,1)"><path fill="none" stroke="#000000" d="M 743.5818815824397 1876.9262603940535 L 748 1887 L 751.9991280941301 1876.7527089195858" stroke-miterlimit="10"/></g></g></svg>