<svg version="1.1" xmlns="http://www.w3.org/2000/svg" xmlns:xlink="http://www.w3.org/1999/xlink" width="828" height="1372"><defs/><g><g transform="translate(-222,-62) scale(1,1)"><path fill="#C0C0C0" stroke="none" d="M 591 103 C 591 89.7451648 601.7451648 79 615 79 C 628.2548352 79 639 89.7451648 639 103 C 639 116.2548352 628.2548352 127 615 127 C 601.7451648 127 591 116.2548352 591 103 Z" opacity="0.2"/></g><g transform="translate(-222,-62) scale(1,1)"><path fill="#000000" stroke="none" d="M 584 96 C 584 82.7451648 594.7451648 72 608 72 C 621.2548352 72 632 82.7451648 632 96 C 632 109.2548352 621.2548352 120 608 120 C 594.7451648 120 584 109.2548352 584 96 Z"/></g><g transform="translate(-222,-62) scale(1,1)"><path fill="#C0C0C0" stroke="none" d="M 409 271 L 528 271 Q 538 271 538 281 L 538 342 Q 538 352 528 352 L 409 352 Q 399 352 399 342 L 399 281 Q 399 271 409 271 Z" opacity="0.2"/></g><g transform="translate(-222,-62) scale(1,1)"><path fill="#ffffff" stroke="none" d="M 402 264 L 521 264 Q 531 264 531 274 L 531 335 Q 531 345 521 345 L 402 345 Q 392 345 392 335 L 392 274 Q 392 264 402 264 Z"/></g><g transform="translate(-222,-62) scale(1,1)"><path fill="none" stroke="#000000" d="M 402 264 L 521 264 Q 531 264 531 274 L 531 335 Q 531 345 521 345 L 402 345 Q 392 345 392 335 L 392 274 Q 392 264 402 264 Z" stroke-miterlimit="10"/></g><g transform="translate(-222,-62) scale(1,1)"><path fill="none" stroke="#000000" d="M 392 296 L 531 296" stroke-miterlimit="10"/></g><g transform="translate(-222,-62) scale(1,1)"><g><path fill="none" stroke="none"/><text fill="#000000" stroke="none" font-family="Arial" font-size="20px" font-style="normal" font-weight="bold" text-decoration="none" x="441.4951171875" y="290.5">New</text></g></g><g transform="translate(-222,-62) scale(1,1)"><g><path fill="none" stroke="none"/><text fill="#000000" stroke="none" font-family="Arial" font-size="13px" font-style="normal" font-weight="normal" text-decoration="none" x="293" y="202">The System Create a Set of</text><text fill="#000000" stroke="none" font-family="Arial" font-size="13px" font-style="normal" font-weight="normal" text-decoration="none" x="293" y="215">Queue Object needs to</text><text fill="#000000" stroke="none" font-family="Arial" font-size="13px" font-style="normal" font-weight="normal" text-decoration="none" x="293" y="228">manage all the zones</text></g></g><g transform="translate(-222,-62) scale(1,1)"><path fill="#C0C0C0" stroke="none" d="M 551 539.5 L 607.5 511 L 663 539.5 L 607.5 567 L 551 539.5" opacity="0.2"/></g><g transform="translate(-222,-62) scale(1,1)"><path fill="#ffffff" stroke="none" d="M 544 532 L 600 504 L 656 532 L 600 560 L 544 532"/></g><g transform="translate(-222,-62) scale(1,1)"><path fill="none" stroke="#000000" d="M 544 532 L 600 504 L 656 532 L 600 560 L 544 532 L 544 532" stroke-miterlimit="10"/></g><g transform="translate(-222,-62) scale(1,1)"><path fill="none" stroke="#000000" d="M 602 430 L 601 503" stroke-miterlimit="10"/></g><g transform="translate(-222,-62) scale(1,1)"><path fill="none" stroke="#000000" d="M 596.9300788155249 492.7806193166043 L 601 503 L 605.3483245123188 492.895937750807" stroke-miterlimit="10"/></g><g transform="translate(-222,-62) scale(1,1)"><g><path fill="none" stroke="none"/><text fill="#000000" stroke="none" font-family="Arial" font-size="13px" font-style="normal" font-weight="normal" text-decoration="none" x="611" y="475">Manage The Queue Object</text></g></g><g transform="translate(-222,-62) scale(1,1)"><path fill="#C0C0C0" stroke="none" d="M 273 687 L 421 687 Q 431 687 431 697 L 431 758 Q 431 768 421 768 L 273 768 Q 263 768 263 758 L 263 697 Q 263 687 273 687 Z" opacity="0.2"/></g><g transform="translate(-222,-62) scale(1,1)"><path fill="#ffffff" stroke="none" d="M 266 680 L 414 680 Q 424 680 424 690 L 424 751 Q 424 761 414 761 L 266 761 Q 256 761 256 751 L 256 690 Q 256 680 266 680 Z"/></g><g transform="translate(-222,-62) scale(1,1)"><path fill="none" stroke="#000000" d="M 266 680 L 414 680 Q 424 680 424 690 L 424 751 Q 424 761 414 761 L 266 761 Q 256 761 256 751 L 256 690 Q 256 680 266 680 Z" stroke-miterlimit="10"/></g><g transform="translate(-222,-62) scale(1,1)"><path fill="none" stroke="#000000" d="M 256 712 L 424 712" stroke-miterlimit="10"/></g><g transform="translate(-222,-62) scale(1,1)"><g><path fill="none" stroke="none"/><text fill="#000000" stroke="none" font-family="Arial" font-size="20px" font-style="normal" font-weight="bold" text-decoration="none" x="299.4091796875" y="706.5">Dequeue</text></g></g><g transform="translate(-222,-62) scale(1,1)"><path fill="none" stroke="#000000" d="M 560 561 L 397 679" stroke-miterlimit="10"/></g><g transform="translate(-222,-62) scale(1,1)"><path fill="none" stroke="#000000" d="M 402.7635553930943 669.6308255843574 L 397 679 L 407.70045586562173 676.4504423387808" stroke-miterlimit="10"/></g><g transform="translate(-222,-62) scale(1,1)"><g><path fill="none" stroke="none"/><text fill="#000000" stroke="none" font-family="Arial" font-size="13px" font-style="normal" font-weight="normal" text-decoration="none" x="389" y="530">The Taxi Driver</text><text fill="#000000" stroke="none" font-family="Arial" font-size="13px" font-style="normal" font-weight="normal" text-decoration="none" x="389" y="543">closes the application</text><text fill="#000000" stroke="none" font-family="Arial" font-size="13px" font-style="normal" font-weight="normal" text-decoration="none" x="389" y="556">, confirms request</text><text fill="#000000" stroke="none" font-family="Arial" font-size="13px" font-style="normal" font-weight="normal" text-decoration="none" x="389" y="569">with no sharing or</text><text fill="#000000" stroke="none" font-family="Arial" font-size="13px" font-style="normal" font-weight="normal" text-decoration="none" x="389" y="582">request unavailability</text></g></g><g transform="translate(-222,-62) scale(1,1)"><path fill="#C0C0C0" stroke="none" d="M 537 839 L 690.47265625 839 Q 700.47265625 839 700.47265625 849 L 700.47265625 910 Q 700.47265625 920 690.47265625 920 L 537 920 Q 527 920 527 910 L 527 849 Q 527 839 537 839 Z" opacity="0.2"/></g><g transform="translate(-222,-62) scale(1,1)"><path fill="#ffffff" stroke="none" d="M 530 832 L 683.47265625 832 Q 693.47265625 832 693.47265625 842 L 693.47265625 903 Q 693.47265625 913 683.47265625 913 L 530 913 Q 520 913 520 903 L 520 842 Q 520 832 530 832 Z"/></g><g transform="translate(-222,-62) scale(1,1)"><path fill="none" stroke="#000000" d="M 530 832 L 683.47265625 832 Q 693.47265625 832 693.47265625 842 L 693.47265625 903 Q 693.47265625 913 683.47265625 913 L 530 913 Q 520 913 520 903 L 520 842 Q 520 832 530 832 Z" stroke-miterlimit="10"/></g><g transform="translate(-222,-62) scale(1,1)"><path fill="none" stroke="#000000" d="M 520 864 L 693.47265625 864" stroke-miterlimit="10"/></g><g transform="translate(-222,-62) scale(1,1)"><g><path fill="none" stroke="none"/><text fill="#000000" stroke="none" font-family="Arial" font-size="20px" font-style="normal" font-weight="bold" text-decoration="none" x="528.8994140625" y="858.5">Dequeue Sharing</text></g></g><g transform="translate(-222,-62) scale(1,1)"><path fill="none" stroke="#000000" d="M 601 561 L 605 831" stroke-miterlimit="10"/></g><g transform="translate(-222,-62) scale(1,1)"><path fill="none" stroke="#000000" d="M 600.640402491177 820.9007965877964 L 605 831 L 609.0585142556188 820.7760838209158" stroke-miterlimit="10"/></g><g transform="translate(-222,-62) scale(1,1)"><g><path fill="none" stroke="none"/><text fill="#000000" stroke="none" font-family="Arial" font-size="13px" font-style="normal" font-weight="normal" text-decoration="none" x="605" y="618">The Taxi Driver</text><text fill="#000000" stroke="none" font-family="Arial" font-size="13px" font-style="normal" font-weight="normal" text-decoration="none" x="605" y="631">confirm request with </text><text fill="#000000" stroke="none" font-family="Arial" font-size="13px" font-style="normal" font-weight="normal" text-decoration="none" x="605" y="644">sharing option</text></g></g><g transform="translate(-222,-62) scale(1,1)"><path fill="none" stroke="#000000" d="M 328 680 L 328 656 L 232 656 L 232 720 L 256 720" stroke-miterlimit="10"/></g><g transform="translate(-222,-62) scale(1,1)"><path fill="none" stroke="#000000" d="M 245.83732514237585 724.209517756016 L 256 720 L 245.83732514237585 715.790482243984" stroke-miterlimit="10"/></g><g transform="translate(-222,-62) scale(1,1)"><path fill="none" stroke="#000000" d="M 630 832 L 630 812 L 746 812 L 746 872 L 693 872" stroke-miterlimit="10"/></g><g transform="translate(-222,-62) scale(1,1)"><path fill="none" stroke="#000000" d="M 703.1626748576241 867.790482243984 L 693 872 L 703.1626748576241 876.209517756016" stroke-miterlimit="10"/></g><g transform="translate(-222,-62) scale(1,1)"><g><path fill="none" stroke="none"/><text fill="#000000" stroke="none" font-family="Arial" font-size="13px" font-style="normal" font-weight="normal" text-decoration="none" x="637" y="762">Queue Manager deletes</text><text fill="#000000" stroke="none" font-family="Arial" font-size="13px" font-style="normal" font-weight="normal" text-decoration="none" x="637" y="775">Taxi driver from his</text><text fill="#000000" stroke="none" font-family="Arial" font-size="13px" font-style="normal" font-weight="normal" text-decoration="none" x="637" y="788">queue and adds in</text><text fill="#000000" stroke="none" font-family="Arial" font-size="13px" font-style="normal" font-weight="normal" text-decoration="none" x="637" y="801">queue sharing</text></g></g><g transform="translate(-222,-62) scale(1,1)"><path fill="none" stroke="#000000" d="M 630 832 L 630 812 L 746 812 L 746 872 L 693 872" stroke-miterlimit="10"/></g><g transform="translate(-222,-62) scale(1,1)"><path fill="none" stroke="#000000" d="M 703.1626748576241 867.790482243984 L 693 872 L 703.1626748576241 876.209517756016" stroke-miterlimit="10"/></g><g transform="translate(-222,-62) scale(1,1)"><path fill="none" stroke="#000000" d="M 630 832 L 630 812 L 746 812 L 746 872 L 693 872" stroke-miterlimit="10"/></g><g transform="translate(-222,-62) scale(1,1)"><path fill="none" stroke="#000000" d="M 703.1626748576241 867.790482243984 L 693 872 L 703.1626748576241 876.209517756016" stroke-miterlimit="10"/></g><g transform="translate(-222,-62) scale(1,1)"><path fill="none" stroke="#000000" d="M 630 832 L 630 812 L 746 812 L 746 872 L 693 872" stroke-miterlimit="10"/></g><g transform="translate(-222,-62) scale(1,1)"><path fill="none" stroke="#000000" d="M 703.1626748576241 867.790482243984 L 693 872 L 703.1626748576241 876.209517756016" stroke-miterlimit="10"/></g><g transform="translate(-222,-62) scale(1,1)"><path fill="#C0C0C0" stroke="none" d="M 849 687 L 997 687 Q 1007 687 1007 697 L 1007 758 Q 1007 768 997 768 L 849 768 Q 839 768 839 758 L 839 697 Q 839 687 849 687 Z" opacity="0.2"/></g><g transform="translate(-222,-62) scale(1,1)"><path fill="#ffffff" stroke="none" d="M 842 680 L 990 680 Q 1000 680 1000 690 L 1000 751 Q 1000 761 990 761 L 842 761 Q 832 761 832 751 L 832 690 Q 832 680 842 680 Z"/></g><g transform="translate(-222,-62) scale(1,1)"><path fill="none" stroke="#000000" d="M 842 680 L 990 680 Q 1000 680 1000 690 L 1000 751 Q 1000 761 990 761 L 842 761 Q 832 761 832 751 L 832 690 Q 832 680 842 680 Z" stroke-miterlimit="10"/></g><g transform="translate(-222,-62) scale(1,1)"><path fill="none" stroke="#000000" d="M 832 712 L 1000 712" stroke-miterlimit="10"/></g><g transform="translate(-222,-62) scale(1,1)"><g><path fill="none" stroke="none"/><text fill="#000000" stroke="none" font-family="Arial" font-size="20px" font-style="normal" font-weight="bold" text-decoration="none" x="885.9755859375" y="706.5">Queue</text></g></g><g transform="translate(-222,-62) scale(1,1)"><path fill="none" stroke="#000000" d="M 649 561 L 847 679" stroke-miterlimit="10"/></g><g transform="translate(-222,-62) scale(1,1)"><path fill="none" stroke="#000000" d="M 836.1150288772376 677.4133671954017 L 847 679 L 840.4250819214594 670.1812442906904" stroke-miterlimit="10"/></g><g transform="translate(-222,-62) scale(1,1)"><g><path fill="none" stroke="none"/><text fill="#000000" stroke="none" font-family="Arial" font-size="13px" font-style="normal" font-weight="normal" text-decoration="none" x="685" y="538">The Taxi</text><text fill="#000000" stroke="none" font-family="Arial" font-size="13px" font-style="normal" font-weight="normal" text-decoration="none" x="685" y="551">Driver send</text><text fill="#000000" stroke="none" font-family="Arial" font-size="13px" font-style="normal" font-weight="normal" text-decoration="none" x="685" y="564">availability</text></g></g><g transform="translate(-222,-62) scale(1,1)"><path fill="none" stroke="#000000" d="M 916 680 L 916 660 L 1030 660 L 1030 720 L 1000 720" stroke-miterlimit="10"/></g><g transform="translate(-222,-62) scale(1,1)"><path fill="none" stroke="#000000" d="M 1010.1626748576241 715.790482243984 L 1000 720 L 1010.1626748576241 724.209517756016" stroke-miterlimit="10"/></g><g transform="translate(-222,-62) scale(1,1)"><g><path fill="none" stroke="none"/><text fill="#000000" stroke="none" font-family="Arial" font-size="13px" font-style="normal" font-weight="normal" text-decoration="none" x="917" y="626">Queue Manage</text><text fill="#000000" stroke="none" font-family="Arial" font-size="13px" font-style="normal" font-weight="normal" text-decoration="none" x="917" y="639">adds Taxi Driver in</text><text fill="#000000" stroke="none" font-family="Arial" font-size="13px" font-style="normal" font-weight="normal" text-decoration="none" x="917" y="652">correct queue</text></g></g><g transform="translate(-222,-62) scale(1,1)"><g><path fill="none" stroke="none"/><text fill="#000000" stroke="none" font-family="Arial" font-size="13px" font-style="normal" font-weight="normal" text-decoration="none" x="237" y="626">Queue Manager</text><text fill="#000000" stroke="none" font-family="Arial" font-size="13px" font-style="normal" font-weight="normal" text-decoration="none" x="237" y="639">removes Taxi driver</text><text fill="#000000" stroke="none" font-family="Arial" font-size="13px" font-style="normal" font-weight="normal" text-decoration="none" x="237" y="652">from his queue</text></g></g><g transform="translate(-222,-62) scale(1,1)"><path fill="#C0C0C0" stroke="none" d="M 578 1191 L 641 1191 Q 644 1191 644 1194 L 644 1193 Q 644 1196 641 1196 L 578 1196 Q 575 1196 575 1193 L 575 1194 Q 575 1191 578 1191 Z" opacity="0.2"/></g><g transform="translate(-222,-62) scale(1,1)"><path fill="#000000" stroke="none" d="M 571 1184 L 634 1184 Q 637 1184 637 1187 L 637 1187 Q 637 1190 634 1190 L 571 1190 Q 568 1190 568 1187 L 568 1187 Q 568 1184 571 1184 Z"/></g><g transform="translate(-222,-62) scale(1,1)"><path fill="none" stroke="#000000" d="M 364 762 L 600 1183" stroke-miterlimit="10"/></g><g transform="translate(-222,-62) scale(1,1)"><path fill="none" stroke="#000000" d="M 591.3586993223909 1176.1935381732392 L 600 1183 L 598.7025730061806 1172.0767823790006" stroke-miterlimit="10"/></g><g transform="translate(-222,-62) scale(1,1)"><path fill="none" stroke="#000000" d="M 605 914 L 602 1183" stroke-miterlimit="10"/></g><g transform="translate(-222,-62) scale(1,1)"><path fill="none" stroke="#000000" d="M 597.904075335539 1172.7910137063927 L 602 1183 L 606.3225873317806 1172.8849004572803" stroke-miterlimit="10"/></g><g transform="translate(-222,-62) scale(1,1)"><path fill="none" stroke="#000000" d="M 888 762 L 604 1183" stroke-miterlimit="10"/></g><g transform="translate(-222,-62) scale(1,1)"><path fill="none" stroke="#000000" d="M 606.193608870663 1172.2209425216047 L 604 1183 L 613.1730603454896 1176.9291710699438" stroke-miterlimit="10"/></g><g transform="translate(-222,-62) scale(1,1)"><path fill="#C0C0C0" stroke="none" d="M 583 1407 C 583 1393.7451648 593.7451648 1383 607 1383 C 620.2548352 1383 631 1393.7451648 631 1407 C 631 1420.2548352 620.2548352 1431 607 1431 C 593.7451648 1431 583 1420.2548352 583 1407 Z" opacity="0.2"/></g><g transform="translate(-222,-62) scale(1,1)"><path fill="none" stroke="#000000" d="M 576 1400 C 576 1386.7451648 586.7451648 1376 600 1376 C 613.2548352 1376 624 1386.7451648 624 1400 C 624 1413.2548352 613.2548352 1424 600 1424 C 586.7451648 1424 576 1413.2548352 576 1400 Z" stroke-miterlimit="10"/></g><g transform="translate(-222,-62) scale(1,1)"><path fill="#000000" stroke="none" d="M 581 1400 C 581 1389.5065888 589.5065888 1381 600 1381 C 610.4934112 1381 619 1389.5065888 619 1400 C 619 1410.4934112 610.4934112 1419 600 1419 C 589.5065888 1419 581 1410.4934112 581 1400 Z"/></g><g transform="translate(-222,-62) scale(1,1)"><path fill="none" stroke="#000000" d="M 602 1190 L 600 1375" stroke-miterlimit="10"/></g><g transform="translate(-222,-62) scale(1,1)"><path fill="none" stroke="#000000" d="M 595.9005885487519 1364.7924133237393 L 600 1375 L 604.3191321222821 1364.8834246056153" stroke-miterlimit="10"/></g><g transform="translate(-222,-62) scale(1,1)"><path fill="#C0C0C0" stroke="none" d="M 575 175.5 L 615.5 151 L 655 175.5 L 615.5 199 L 575 175.5" opacity="0.2"/></g><g transform="translate(-222,-62) scale(1,1)"><path fill="#ffffff" stroke="none" d="M 568 168 L 608 144 L 648 168 L 608 192 L 568 168"/></g><g transform="translate(-222,-62) scale(1,1)"><path fill="none" stroke="#000000" d="M 568 168 L 608 144 L 648 168 L 608 192 L 568 168 L 568 168" stroke-miterlimit="10"/></g><g transform="translate(-222,-62) scale(1,1)"><path fill="none" stroke="#000000" d="M 608 121 L 608 143" stroke-miterlimit="10"/></g><g transform="translate(-222,-62) scale(1,1)"><path fill="none" stroke="#000000" d="M 603.790482243984 132.83732514237585 L 608 143 L 612.209517756016 132.83732514237585" stroke-miterlimit="10"/></g><g transform="translate(-222,-62) scale(1,1)"><path fill="none" stroke="#000000" d="M 581 193 L 505 263" stroke-miterlimit="10"/></g><g transform="translate(-222,-62) scale(1,1)"><path fill="none" stroke="#000000" d="M 509.6232595279508 253.0187440000162 L 505 263 L 515.3269519657467 259.2113243610519" stroke-miterlimit="10"/></g><g transform="translate(-222,-62) scale(1,1)"><path fill="#C0C0C0" stroke="none" d="M 578 431 L 641 431 Q 644 431 644 434 L 644 433 Q 644 436 641 436 L 578 436 Q 575 436 575 433 L 575 434 Q 575 431 578 431 Z" opacity="0.2"/></g><g transform="translate(-222,-62) scale(1,1)"><path fill="#000000" stroke="none" d="M 571 424 L 634 424 Q 637 424 637 427 L 637 427 Q 637 430 634 430 L 571 430 Q 568 430 568 427 L 568 427 Q 568 424 571 424 Z"/></g><g transform="translate(-222,-62) scale(1,1)"><g><path fill="none" stroke="none"/><text fill="#000000" stroke="none" font-family="Arial" font-size="13px" font-style="normal" font-weight="normal" text-decoration="none" x="621" y="282">If Queue</text><text fill="#000000" stroke="none" font-family="Arial" font-size="13px" font-style="normal" font-weight="normal" text-decoration="none" x="621" y="295">manager is</text><text fill="#000000" stroke="none" font-family="Arial" font-size="13px" font-style="normal" font-weight="normal" text-decoration="none" x="621" y="308">already created</text></g></g><g transform="translate(-222,-62) scale(1,1)"><path fill="none" stroke="#000000" d="M 510 346 L 599 423" stroke-miterlimit="10"/></g><g transform="translate(-222,-62) scale(1,1)"><path fill="none" stroke="#000000" d="M 588.5602646886483 419.5341773517799 L 599 423 L 594.0686990644969 413.16728567060414" stroke-miterlimit="10"/></g><g transform="translate(-222,-62) scale(1,1)"><path fill="none" stroke="#000000" d="M 607 193 L 602 423" stroke-miterlimit="10"/></g><g transform="translate(-222,-62) scale(1,1)"><path fill="none" stroke="#000000" d="M 598.0123521078249 412.74823604017183 L 602 423 L 606.429398949577 412.93121531934037" stroke-miterlimit="10"/></g><g transform="translate(-222,-62) scale(1,1)"><path fill="none" stroke="#000000" d="M 461 264 L 461 244 L 312 244 L 312 304 L 392 304" stroke-miterlimit="10"/></g><g transform="translate(-222,-62) scale(1,1)"><path fill="none" stroke="#000000" d="M 381.83732514237585 308.209517756016 L 392 304 L 381.83732514237585 299.790482243984" stroke-miterlimit="10"/></g></g></svg>