<svg version="1.1" xmlns="http://www.w3.org/2000/svg" xmlns:xlink="http://www.w3.org/1999/xlink" width="1030" height="1604"><defs/><g><g transform="translate(-173,-334) scale(1,1)"><path fill="#C0C0C0" stroke="none" d="M 727 395 C 727 379.5360256 739.5360256 367 755 367 C 770.4639744 367 783 379.5360256 783 395 C 783 410.4639744 770.4639744 423 755 423 C 739.5360256 423 727 410.4639744 727 395 Z" opacity="0.2"/></g><g transform="translate(-173,-334) scale(1,1)"><path fill="#000000" stroke="none" d="M 720 388 C 720 372.5360256 732.5360256 360 748 360 C 763.4639744 360 776 372.5360256 776 388 C 776 403.4639744 763.4639744 416 748 416 C 732.5360256 416 720 403.4639744 720 388 Z"/></g><g transform="translate(-173,-334) scale(1,1)"><g><path fill="none" stroke="none"/><text fill="#000000" stroke="none" font-family="Arial" font-size="16px" font-style="normal" font-weight="normal" text-decoration="none" x="773" y="469">The Custmer sends</text><text fill="#000000" stroke="none" font-family="Arial" font-size="16px" font-style="normal" font-weight="normal" text-decoration="none" x="773" y="485"> a taxi request</text></g></g><g transform="translate(-173,-334) scale(1,1)"><path fill="#C0C0C0" stroke="none" d="M 681 535 L 829 535 Q 839 535 839 545 L 839 606 Q 839 616 829 616 L 681 616 Q 671 616 671 606 L 671 545 Q 671 535 681 535 Z" opacity="0.2"/></g><g transform="translate(-173,-334) scale(1,1)"><path fill="#ffffff" stroke="none" d="M 674 528 L 822 528 Q 832 528 832 538 L 832 599 Q 832 609 822 609 L 674 609 Q 664 609 664 599 L 664 538 Q 664 528 674 528 Z"/></g><g transform="translate(-173,-334) scale(1,1)"><path fill="none" stroke="#000000" d="M 674 528 L 822 528 Q 832 528 832 538 L 832 599 Q 832 609 822 609 L 674 609 Q 664 609 664 599 L 664 538 Q 664 528 674 528 Z" stroke-miterlimit="10"/></g><g transform="translate(-173,-334) scale(1,1)"><path fill="none" stroke="#000000" d="M 664 560 L 832 560" stroke-miterlimit="10"/></g><g transform="translate(-173,-334) scale(1,1)"><g><path fill="none" stroke="none"/><text fill="#000000" stroke="none" font-family="Arial" font-size="20px" font-style="normal" font-weight="bold" text-decoration="none" x="727.9951171875" y="554.5">New</text></g></g><g transform="translate(-173,-334) scale(1,1)"><path fill="none" stroke="#000000" d="M 748 417 L 748 527" stroke-miterlimit="10"/></g><g transform="translate(-173,-334) scale(1,1)"><path fill="none" stroke="#000000" d="M 743.790482243984 516.8373251423759 L 748 527 L 752.209517756016 516.8373251423759" stroke-miterlimit="10"/></g><g transform="translate(-173,-334) scale(1,1)"><path fill="#C0C0C0" stroke="none" d="M 345 687 L 541 687 Q 551 687 551 697 L 551 789 Q 551 799 541 799 L 345 799 Q 335 799 335 789 L 335 697 Q 335 687 345 687 Z" opacity="0.2"/></g><g transform="translate(-173,-334) scale(1,1)"><path fill="#ffffff" stroke="none" d="M 338 680 L 534 680 Q 544 680 544 690 L 544 782 Q 544 792 534 792 L 338 792 Q 328 792 328 782 L 328 690 Q 328 680 338 680 Z"/></g><g transform="translate(-173,-334) scale(1,1)"><path fill="none" stroke="#000000" d="M 338 680 L 534 680 Q 544 680 544 690 L 544 782 Q 544 792 534 792 L 338 792 Q 328 792 328 782 L 328 690 Q 328 680 338 680 Z" stroke-miterlimit="10"/></g><g transform="translate(-173,-334) scale(1,1)"><path fill="none" stroke="#000000" d="M 328 712 L 544 712" stroke-miterlimit="10"/></g><g transform="translate(-173,-334) scale(1,1)"><g><path fill="none" stroke="none"/><text fill="#000000" stroke="none" font-family="Arial" font-size="20px" font-style="normal" font-weight="bold" text-decoration="none" x="354.2861328125" y="706.5">Ride Management</text></g></g><g transform="translate(-173,-334) scale(1,1)"><g><path fill="none" stroke="none"/><text fill="#000000" stroke="none" font-family="Arial" font-size="16px" font-style="normal" font-weight="normal" text-decoration="none" x="525" y="581">Car sharing or</text><text fill="#000000" stroke="none" font-family="Arial" font-size="16px" font-style="normal" font-weight="normal" text-decoration="none" x="525" y="597">Taxi reservation</text></g></g><g transform="translate(-173,-334) scale(1,1)"><path fill="none" stroke="#000000" d="M 432 680 L 432 660 L 280 660 L 280 736 L 328 736" stroke-miterlimit="10"/></g><g transform="translate(-173,-334) scale(1,1)"><path fill="none" stroke="#000000" d="M 317.83732514237585 740.209517756016 L 328 736 L 317.83732514237585 731.790482243984" stroke-miterlimit="10"/></g><g transform="translate(-173,-334) scale(1,1)"><g><path fill="none" stroke="none"/><text fill="#000000" stroke="none" font-family="Arial" font-size="16px" font-style="normal" font-weight="normal" text-decoration="none" x="781" y="789">Taxi</text><text fill="#000000" stroke="none" font-family="Arial" font-size="16px" font-style="normal" font-weight="normal" text-decoration="none" x="781" y="805">Driver</text><text fill="#000000" stroke="none" font-family="Arial" font-size="16px" font-style="normal" font-weight="normal" text-decoration="none" x="781" y="821">accepts</text></g></g><g transform="translate(-173,-334) scale(1,1)"><path fill="#C0C0C0" stroke="none" d="M 649 1039 L 845 1039 Q 855 1039 855 1049 L 855 1141 Q 855 1151 845 1151 L 649 1151 Q 639 1151 639 1141 L 639 1049 Q 639 1039 649 1039 Z" opacity="0.2"/></g><g transform="translate(-173,-334) scale(1,1)"><path fill="#ffffff" stroke="none" d="M 642 1032 L 838 1032 Q 848 1032 848 1042 L 848 1134 Q 848 1144 838 1144 L 642 1144 Q 632 1144 632 1134 L 632 1042 Q 632 1032 642 1032 Z"/></g><g transform="translate(-173,-334) scale(1,1)"><path fill="none" stroke="#000000" d="M 642 1032 L 838 1032 Q 848 1032 848 1042 L 848 1134 Q 848 1144 838 1144 L 642 1144 Q 632 1144 632 1134 L 632 1042 Q 632 1032 642 1032 Z" stroke-miterlimit="10"/></g><g transform="translate(-173,-334) scale(1,1)"><path fill="none" stroke="#000000" d="M 632 1064 L 848 1064" stroke-miterlimit="10"/></g><g transform="translate(-173,-334) scale(1,1)"><g><path fill="none" stroke="none"/><text fill="#000000" stroke="none" font-family="Arial" font-size="20px" font-style="normal" font-weight="bold" text-decoration="none" x="666.0791015625" y="1058.5">Ride in Progress</text></g></g><g transform="translate(-173,-334) scale(1,1)"><path fill="#C0C0C0" stroke="none" d="M 921 1383 L 1117 1383 Q 1127 1383 1127 1393 L 1127 1485 Q 1127 1495 1117 1495 L 921 1495 Q 911 1495 911 1485 L 911 1393 Q 911 1383 921 1383 Z" opacity="0.2"/></g><g transform="translate(-173,-334) scale(1,1)"><path fill="#ffffff" stroke="none" d="M 914 1376 L 1110 1376 Q 1120 1376 1120 1386 L 1120 1478 Q 1120 1488 1110 1488 L 914 1488 Q 904 1488 904 1478 L 904 1386 Q 904 1376 914 1376 Z"/></g><g transform="translate(-173,-334) scale(1,1)"><path fill="none" stroke="#000000" d="M 914 1376 L 1110 1376 Q 1120 1376 1120 1386 L 1120 1478 Q 1120 1488 1110 1488 L 914 1488 Q 904 1488 904 1478 L 904 1386 Q 904 1376 914 1376 Z" stroke-miterlimit="10"/></g><g transform="translate(-173,-334) scale(1,1)"><path fill="none" stroke="#000000" d="M 904 1408 L 1120 1408" stroke-miterlimit="10"/></g><g transform="translate(-173,-334) scale(1,1)"><g><path fill="none" stroke="none"/><text fill="#000000" stroke="none" font-family="Arial" font-size="20px" font-style="normal" font-weight="bold" text-decoration="none" x="938.0791015625" y="1402.5">Ride Successfull</text></g></g><g transform="translate(-173,-334) scale(1,1)"><g><path fill="none" stroke="none"/><text fill="#000000" stroke="none" font-family="Arial" font-size="16px" font-style="normal" font-weight="normal" text-decoration="none" x="909" y="1253">Taxi Driver</text><text fill="#000000" stroke="none" font-family="Arial" font-size="16px" font-style="normal" font-weight="normal" text-decoration="none" x="909" y="1269">reaches the</text><text fill="#000000" stroke="none" font-family="Arial" font-size="16px" font-style="normal" font-weight="normal" text-decoration="none" x="909" y="1285">end point</text></g></g><g transform="translate(-173,-334) scale(1,1)"><path fill="none" stroke="#000000" d="M 1012 1376 L 1012 1356 L 1192 1356 L 1192 1432 L 1120 1432" stroke-miterlimit="10"/></g><g transform="translate(-173,-334) scale(1,1)"><path fill="none" stroke="#000000" d="M 1130.162674857624 1427.7904822439841 L 1120 1432 L 1130.162674857624 1436.2095177560159" stroke-miterlimit="10"/></g><g transform="translate(-173,-334) scale(1,1)"><g><path fill="none" stroke="none"/><text fill="#000000" stroke="none" font-family="Arial" font-size="16px" font-style="normal" font-weight="normal" text-decoration="none" x="1039" y="1342">Ride sets end time</text></g></g><g transform="translate(-173,-334) scale(1,1)"><path fill="#C0C0C0" stroke="none" d="M 337 1375 L 533 1375 Q 543 1375 543 1385 L 543 1477 Q 543 1487 533 1487 L 337 1487 Q 327 1487 327 1477 L 327 1385 Q 327 1375 337 1375 Z" opacity="0.2"/></g><g transform="translate(-173,-334) scale(1,1)"><path fill="#ffffff" stroke="none" d="M 330 1368 L 526 1368 Q 536 1368 536 1378 L 536 1470 Q 536 1480 526 1480 L 330 1480 Q 320 1480 320 1470 L 320 1378 Q 320 1368 330 1368 Z"/></g><g transform="translate(-173,-334) scale(1,1)"><path fill="none" stroke="#000000" d="M 330 1368 L 526 1368 Q 536 1368 536 1378 L 536 1470 Q 536 1480 526 1480 L 330 1480 Q 320 1480 320 1470 L 320 1378 Q 320 1368 330 1368 Z" stroke-miterlimit="10"/></g><g transform="translate(-173,-334) scale(1,1)"><path fill="none" stroke="#000000" d="M 320 1400 L 536 1400" stroke-miterlimit="10"/></g><g transform="translate(-173,-334) scale(1,1)"><g><path fill="none" stroke="none"/><text fill="#000000" stroke="none" font-family="Arial" font-size="20px" font-style="normal" font-weight="bold" text-decoration="none" x="374.0888671875" y="1394.5">Ride Failure</text></g></g><g transform="translate(-173,-334) scale(1,1)"><g><path fill="none" stroke="none"/><text fill="#000000" stroke="none" font-family="Arial" font-size="16px" font-style="normal" font-weight="normal" text-decoration="none" x="605" y="1253">Taxi Driver sends</text><text fill="#000000" stroke="none" font-family="Arial" font-size="16px" font-style="normal" font-weight="normal" text-decoration="none" x="605" y="1269">report problem orTaxi</text><text fill="#000000" stroke="none" font-family="Arial" font-size="16px" font-style="normal" font-weight="normal" text-decoration="none" x="605" y="1285">Driver is not in starting</text><text fill="#000000" stroke="none" font-family="Arial" font-size="16px" font-style="normal" font-weight="normal" text-decoration="none" x="605" y="1301">place</text></g></g><g transform="translate(-173,-334) scale(1,1)"><path fill="none" stroke="#000000" d="M 392 1368 L 392 1348 L 232 1348 L 232 1424 L 320 1424" stroke-miterlimit="10"/></g><g transform="translate(-173,-334) scale(1,1)"><path fill="none" stroke="#000000" d="M 309.83732514237585 1428.2095177560159 L 320 1424 L 309.83732514237585 1419.7904822439841" stroke-miterlimit="10"/></g><g transform="translate(-173,-334) scale(1,1)"><g><path fill="none" stroke="none"/><text fill="#000000" stroke="none" font-family="Arial" font-size="16px" font-style="normal" font-weight="normal" text-decoration="none" x="183" y="1343">Ride sets Completed to false</text></g></g><g transform="translate(-173,-334) scale(1,1)"><path fill="#C0C0C0" stroke="none" d="M 727 1907 C 727 1891.5360256 739.5360256 1879 755 1879 C 770.4639744 1879 783 1891.5360256 783 1907 C 783 1922.4639744 770.4639744 1935 755 1935 C 739.5360256 1935 727 1922.4639744 727 1907 Z" opacity="0.2"/></g><g transform="translate(-173,-334) scale(1,1)"><path fill="none" stroke="#000000" d="M 720 1900 C 720 1884.5360256 732.5360256 1872 748 1872 C 763.4639744 1872 776 1884.5360256 776 1900 C 776 1915.4639744 763.4639744 1928 748 1928 C 732.5360256 1928 720 1915.4639744 720 1900 Z" stroke-miterlimit="10"/></g><g transform="translate(-173,-334) scale(1,1)"><path fill="#000000" stroke="none" d="M 725 1900 C 725 1887.2974496 735.2974496 1877 748 1877 C 760.7025504 1877 771 1887.2974496 771 1900 C 771 1912.7025504 760.7025504 1923 748 1923 C 735.2974496 1923 725 1912.7025504 725 1900 Z"/></g><g transform="translate(-173,-334) scale(1,1)"><g><path fill="none" stroke="none"/><text fill="#000000" stroke="none" font-family="Arial" font-size="16px" font-style="normal" font-weight="normal" text-decoration="none" x="269" y="605">Ride adds or removes </text><text fill="#000000" stroke="none" font-family="Arial" font-size="16px" font-style="normal" font-weight="normal" text-decoration="none" x="269" y="621">Customers as passenger until</text><text fill="#000000" stroke="none" font-family="Arial" font-size="16px" font-style="normal" font-weight="normal" text-decoration="none" x="269" y="637">ride has seats left or starting</text><text fill="#000000" stroke="none" font-family="Arial" font-size="16px" font-style="normal" font-weight="normal" text-decoration="none" x="269" y="653">time reached</text></g></g><g transform="translate(-173,-334) scale(1,1)"><g><path fill="none" stroke="none"/><text fill="#000000" stroke="none" font-family="Arial" font-size="16px" font-style="normal" font-weight="normal" text-decoration="none" x="581" y="853">Ride must start</text><text fill="#000000" stroke="none" font-family="Arial" font-size="16px" font-style="normal" font-weight="normal" text-decoration="none" x="581" y="869">and Taxi Driver</text><text fill="#000000" stroke="none" font-family="Arial" font-size="16px" font-style="normal" font-weight="normal" text-decoration="none" x="581" y="885">accepts</text></g></g><g transform="translate(-173,-334) scale(1,1)"><g><path fill="none" stroke="none"/><text fill="#000000" stroke="none" font-family="Arial" font-size="16px" font-style="normal" font-weight="normal" text-decoration="none" x="333" y="1157">Ride was</text><text fill="#000000" stroke="none" font-family="Arial" font-size="16px" font-style="normal" font-weight="normal" text-decoration="none" x="333" y="1173">canceled by</text><text fill="#000000" stroke="none" font-family="Arial" font-size="16px" font-style="normal" font-weight="normal" text-decoration="none" x="333" y="1189">all itsl</text><text fill="#000000" stroke="none" font-family="Arial" font-size="16px" font-style="normal" font-weight="normal" text-decoration="none" x="333" y="1205">associated</text><text fill="#000000" stroke="none" font-family="Arial" font-size="16px" font-style="normal" font-weight="normal" text-decoration="none" x="333" y="1221">Customers</text></g></g><g transform="translate(-173,-334) scale(1,1)"><path fill="none" stroke="#000000" d="M 466 1481 L 729 1871" stroke-miterlimit="10"/></g><g transform="translate(-173,-334) scale(1,1)"><path fill="none" stroke="#000000" d="M 719.8278800642211 1864.927750344091 L 729 1871 L 726.8080607043053 1860.2206028868036" stroke-miterlimit="10"/></g><g transform="translate(-173,-334) scale(1,1)"><path fill="none" stroke="#000000" d="M 980 1489 L 764 1871" stroke-miterlimit="10"/></g><g transform="translate(-173,-334) scale(1,1)"><path fill="none" stroke="#000000" d="M 765.3378516500544 1860.0816597890316 L 764 1871 L 772.6664363764526 1864.2255715714978" stroke-miterlimit="10"/></g><g transform="translate(-173,-334) scale(1,1)"><path fill="none" stroke="#000000" d="M 747 610 L 741 1031" stroke-miterlimit="10"/></g><g transform="translate(-173,-334) scale(1,1)"><path fill="none" stroke="#000000" d="M 736.9357311977498 1020.778370036875 L 741 1031 L 745.3539118310692 1020.8983441076587" stroke-miterlimit="10"/></g><g transform="translate(-173,-334) scale(1,1)"><path fill="none" stroke="#000000" d="M 670 610 L 542 679" stroke-miterlimit="10"/></g><g transform="translate(-173,-334) scale(1,1)"><path fill="none" stroke="#000000" d="M 548.9482387181498 670.4722817403714 L 542 679 L 552.9431541243384 677.8831393054749" stroke-miterlimit="10"/></g><g transform="translate(-173,-334) scale(1,1)"><path fill="none" stroke="#000000" d="M 687 1145 L 481 1367" stroke-miterlimit="10"/></g><g transform="translate(-173,-334) scale(1,1)"><path fill="none" stroke="#000000" d="M 484.8269315386563 1356.6871635813206 L 481 1367 L 490.9983258070362 1362.4137726772049" stroke-miterlimit="10"/></g><g transform="translate(-173,-334) scale(1,1)"><path fill="none" stroke="#000000" d="M 785 1145 L 967 1375" stroke-miterlimit="10"/></g><g transform="translate(-173,-334) scale(1,1)"><path fill="none" stroke="#000000" d="M 957.3927361598319 1369.6427169660922 L 967 1375 L 963.9948097519807 1364.4184674279568" stroke-miterlimit="10"/></g><g transform="translate(-173,-334) scale(1,1)"><path fill="none" stroke="#000000" d="M 435 793 L 429 1367" stroke-miterlimit="10"/></g><g transform="translate(-173,-334) scale(1,1)"><path fill="none" stroke="#000000" d="M 424.8969364480422 1356.7938807821681 L 429 1367 L 433.31551204729845 1356.881879830244" stroke-miterlimit="10"/></g><g transform="translate(-173,-334) scale(1,1)"><path fill="none" stroke="#000000" d="M 485 793 L 691 1031" stroke-miterlimit="10"/></g><g transform="translate(-173,-334) scale(1,1)"><path fill="none" stroke="#000000" d="M 681.1662209391309 1026.070822646525 L 691 1031 L 687.5319228736826 1020.5610134090557" stroke-miterlimit="10"/></g></g></svg>