<svg version="1.1" xmlns="http://www.w3.org/2000/svg" xmlns:xlink="http://www.w3.org/1999/xlink" width="647" height="716"><defs/><g><g transform="translate(5,10) scale(1,1)"><path fill="none" stroke="#000000" d="M 5 0 L 616 0 L 616 696 L 5 696 L 5 0" stroke-miterlimit="10"/></g><g transform="translate(5,10) scale(1,1)"><path fill="#ffffff" stroke="none" d="M 5 0 L 5 22 L 255.12060546875 22 L 266.12060546875 11 L 266.12060546875 0 L 5 0"/></g><g transform="translate(5,10) scale(1,1)"><path fill="none" stroke="#000000" d="M 5 0 L 5 22 L 255.12060546875 22 L 266.12060546875 11 L 266.12060546875 0 L 5 0 L 5 0" stroke-miterlimit="10"/></g><g transform="translate(5,10) scale(1,1)"><g><path fill="none" stroke="none"/><text fill="#000000" stroke="none" font-family="Arial" font-size="13px" font-style="normal" font-weight="normal" text-decoration="none" x="75.97900390625" y="17.5">Manage reserve Taxi Request</text></g></g><g transform="translate(5,10) scale(1,1)"><g><path fill="none" stroke="none"/><text fill="#000000" stroke="none" font-family="Arial" font-size="13px" font-style="normal" font-weight="bold" text-decoration="none" x="10" y="17.5">interaction</text></g></g><g transform="translate(5,10) scale(1,1)"><rect fill="#C0C0C0" stroke="none" x="47" y="47" width="84.76171875" height="39" opacity="0.2"/></g><g transform="translate(5,10) scale(1,1)"><rect fill="#ffffff" stroke="none" x="40" y="40" width="84.76171875" height="39"/></g><g transform="translate(5,10) scale(1,1)"><path fill="none" stroke="#000000" d="M 40 40 L 124.76171875 40 L 124.76171875 79 L 40 79 L 40 40 Z Z" stroke-miterlimit="10"/></g><g transform="translate(5,10) scale(1,1)"><g><path fill="none" stroke="none"/><text fill="#000000" stroke="none" font-family="Arial" font-size="13px" font-style="normal" font-weight="bold" text-decoration="none" x="51.305908203125" y="59.5">Passenger</text></g></g><g transform="translate(5,10) scale(1,1)"><path fill="none" stroke="#000000" d="M 83.5 80 L 83.5 673" stroke-miterlimit="10" stroke-dasharray="3"/></g><g transform="translate(5,10) scale(1,1)"><rect fill="#C0C0C0" stroke="none" x="311" y="47" width="96" height="39" opacity="0.2"/></g><g transform="translate(5,10) scale(1,1)"><rect fill="#ffffff" stroke="none" x="304" y="40" width="96" height="39"/></g><g transform="translate(5,10) scale(1,1)"><path fill="none" stroke="#000000" d="M 304 40 L 400 40 L 400 79 L 304 79 L 304 40 Z Z" stroke-miterlimit="10"/></g><g transform="translate(5,10) scale(1,1)"><g><path fill="none" stroke="none"/><text fill="#000000" stroke="none" font-family="Arial" font-size="13px" font-style="normal" font-weight="bold" text-decoration="none" x="330.3291015625" y="59.5">System</text></g></g><g transform="translate(5,10) scale(1,1)"><path fill="none" stroke="#000000" d="M 353.5 80 L 353.5 673" stroke-miterlimit="10" stroke-dasharray="3"/></g><g transform="translate(5,10) scale(1,1)"><path fill="none" stroke="#000000" d="M 48 432 L 392 432 L 392 600 L 48 600 L 48 432" stroke-miterlimit="10"/></g><g transform="translate(5,10) scale(1,1)"><path fill="#ffffff" stroke="none" d="M 48 432 L 48 454 L 119.64990234375 454 L 130.64990234375 443 L 130.64990234375 432 L 48 432"/></g><g transform="translate(5,10) scale(1,1)"><path fill="none" stroke="#000000" d="M 48 432 L 48 454 L 119.64990234375 454 L 130.64990234375 443 L 130.64990234375 432 L 48 432 L 48 432" stroke-miterlimit="10"/></g><g transform="translate(5,10) scale(1,1)"><g><path fill="none" stroke="none"/><text fill="#000000" stroke="none" font-family="Arial" font-size="13px" font-style="normal" font-weight="normal" text-decoration="none" x="77.07177734375" y="449.5">Delete</text></g></g><g transform="translate(5,10) scale(1,1)"><g><path fill="none" stroke="none"/><text fill="#000000" stroke="none" font-family="Arial" font-size="13px" font-style="normal" font-weight="bold" text-decoration="none" x="53" y="449.5">opt</text></g></g><g transform="translate(5,10) scale(1,1)"><rect fill="#C0C0C0" stroke="none" x="519" y="47" width="32" height="39" opacity="0.2"/></g><g transform="translate(5,10) scale(1,1)"><rect fill="#ffffff" stroke="none" x="512" y="40" width="32" height="39"/></g><g transform="translate(5,10) scale(1,1)"><path fill="none" stroke="#000000" d="M 512 40 L 544 40 L 544 79 L 512 79 L 512 40 Z Z" stroke-miterlimit="10"/></g><g transform="translate(5,10) scale(1,1)"><g><path fill="none" stroke="none"/><text fill="#000000" stroke="none" font-family="Arial" font-size="13px" font-style="normal" font-weight="bold" text-decoration="none" x="524.385009765625" y="59.5">a</text></g></g><g transform="translate(5,10) scale(1,1)"><path fill="none" stroke="#000000" d="M 529.5 80 L 529.5 656" stroke-miterlimit="10" stroke-dasharray="3"/></g><g transform="translate(5,10) scale(1,1)"><g><path fill="none" stroke="none"/><text fill="#000000" stroke="none" font-family="Arial" font-size="13px" font-style="normal" font-weight="normal" text-decoration="none" x="517" y="26">Ride</text></g></g><g transform="translate(5,10) scale(1,1)"><path fill="none" stroke="#000000" d="M 48 272 L 392 272 L 392 416 L 48 416 L 48 272" stroke-miterlimit="10"/></g><g transform="translate(5,10) scale(1,1)"><path fill="#ffffff" stroke="none" d="M 48 272 L 48 294 L 120.36083984375 294 L 131.36083984375 283 L 131.36083984375 272 L 48 272"/></g><g transform="translate(5,10) scale(1,1)"><path fill="none" stroke="#000000" d="M 48 272 L 48 294 L 120.36083984375 294 L 131.36083984375 283 L 131.36083984375 272 L 48 272 L 48 272" stroke-miterlimit="10"/></g><g transform="translate(5,10) scale(1,1)"><g><path fill="none" stroke="none"/><text fill="#000000" stroke="none" font-family="Arial" font-size="13px" font-style="normal" font-weight="normal" text-decoration="none" x="77.07177734375" y="289.5">Modify</text></g></g><g transform="translate(5,10) scale(1,1)"><g><path fill="none" stroke="none"/><text fill="#000000" stroke="none" font-family="Arial" font-size="13px" font-style="normal" font-weight="bold" text-decoration="none" x="53" y="289.5">opt</text></g></g><g transform="translate(5,10) scale(1,1)"><rect fill="#ffffff" stroke="none" x="504" y="32" width="49" height="49"/></g><g transform="translate(5,10) scale(1,1)"><path fill="none" stroke="#000000" d="M 504 32 L 553 32 L 553 81 L 504 81 L 504 32 Z Z" stroke-miterlimit="10"/></g><g transform="translate(5,10) scale(1,1)"><path fill="none" stroke="#000000" d="M 83 140 L 346 140" stroke-miterlimit="10"/></g><g transform="translate(5,10) scale(1,1)"><path fill="#000000" stroke="none" d="M 335.83732514237585 144.209517756016 L 346 140 L 335.83732514237585 135.790482243984"/></g><g transform="translate(5,10) scale(1,1)"><path fill="none" stroke="#000000" d="M 335.83732514237585 144.209517756016 L 346 140 L 335.83732514237585 135.790482243984 L 335.83732514237585 144.209517756016" stroke-miterlimit="10"/></g><g transform="translate(5,10) scale(1,1)"><g><path fill="none" stroke="none"/><text fill="#000000" stroke="none" font-family="Arial" font-size="13px" font-style="normal" font-weight="normal" text-decoration="none" x="106" y="137">1 : RequestManageTaxiRequestPage</text></g></g><g transform="translate(5,10) scale(1,1)"><rect fill="#ffffff" stroke="none" x="346" y="140" width="13" height="92"/></g><g transform="translate(5,10) scale(1,1)"><path fill="none" stroke="#000000" d="M 346 140 L 359 140 L 359 232 L 346 232 L 346 140 Z Z" stroke-miterlimit="10"/></g><g transform="translate(5,10) scale(1,1)"><path fill="none" stroke="#000000" d="M 359 168 L 389 168 L 389 188 L 366 188" stroke-miterlimit="10"/></g><g transform="translate(5,10) scale(1,1)"><path fill="#000000" stroke="none" d="M 376.16267485762415 183.790482243984 L 366 188 L 376.16267485762415 192.209517756016"/></g><g transform="translate(5,10) scale(1,1)"><path fill="none" stroke="#000000" d="M 376.16267485762415 183.790482243984 L 366 188 L 376.16267485762415 192.209517756016 L 376.16267485762415 183.790482243984" stroke-miterlimit="10"/></g><g transform="translate(5,10) scale(1,1)"><g><path fill="none" stroke="none"/><text fill="#000000" stroke="none" font-family="Arial" font-size="13px" font-style="normal" font-weight="normal" text-decoration="none" x="136" y="183">2 : LoadManageTaxiRequestPage</text></g></g><g transform="translate(5,10) scale(1,1)"><rect fill="#ffffff" stroke="none" x="353" y="188" width="13" height="28"/></g><g transform="translate(5,10) scale(1,1)"><path fill="none" stroke="#000000" d="M 353 188 L 366 188 L 366 216 L 353 216 L 353 188 Z Z" stroke-miterlimit="10"/></g><g transform="translate(5,10) scale(1,1)"><path fill="none" stroke="#000000" d="M 353 232 L 89 232" stroke-miterlimit="10"/></g><g transform="translate(5,10) scale(1,1)"><path fill="#000000" stroke="none" d="M 99.16267485762415 227.790482243984 L 89 232 L 99.16267485762415 236.209517756016"/></g><g transform="translate(5,10) scale(1,1)"><path fill="none" stroke="#000000" d="M 99.16267485762415 227.790482243984 L 89 232 L 99.16267485762415 236.209517756016 L 99.16267485762415 227.790482243984" stroke-miterlimit="10"/></g><g transform="translate(5,10) scale(1,1)"><g><path fill="none" stroke="none"/><text fill="#000000" stroke="none" font-family="Arial" font-size="13px" font-style="normal" font-weight="normal" text-decoration="none" x="120" y="249">3 : ShowManageTaxiRequestPage</text></g></g><g transform="translate(5,10) scale(1,1)"><rect fill="#ffffff" stroke="none" x="76" y="232" width="13" height="32"/></g><g transform="translate(5,10) scale(1,1)"><path fill="none" stroke="#000000" d="M 76 232 L 89 232 L 89 264 L 76 264 L 76 232 Z Z" stroke-miterlimit="10"/></g><g transform="translate(5,10) scale(1,1)"><path fill="none" stroke="#000000" d="M 83 320 L 346 320" stroke-miterlimit="10"/></g><g transform="translate(5,10) scale(1,1)"><path fill="#000000" stroke="none" d="M 335.83732514237585 324.209517756016 L 346 320 L 335.83732514237585 315.790482243984"/></g><g transform="translate(5,10) scale(1,1)"><path fill="none" stroke="#000000" d="M 335.83732514237585 324.209517756016 L 346 320 L 335.83732514237585 315.790482243984 L 335.83732514237585 324.209517756016" stroke-miterlimit="10"/></g><g transform="translate(5,10) scale(1,1)"><g><path fill="none" stroke="none"/><text fill="#000000" stroke="none" font-family="Arial" font-size="13px" font-style="normal" font-weight="normal" text-decoration="none" x="150" y="317">4 : ModifyTaxiRequest</text></g></g><g transform="translate(5,10) scale(1,1)"><rect fill="#ffffff" stroke="none" x="346" y="320" width="13" height="72"/></g><g transform="translate(5,10) scale(1,1)"><path fill="none" stroke="#000000" d="M 346 320 L 359 320 L 359 392 L 346 392 L 346 320 Z Z" stroke-miterlimit="10"/></g><g transform="translate(5,10) scale(1,1)"><path fill="none" stroke="#000000" d="M 359 328 L 389 328 L 389 348 L 366 348" stroke-miterlimit="10"/></g><g transform="translate(5,10) scale(1,1)"><path fill="#000000" stroke="none" d="M 376.16267485762415 343.790482243984 L 366 348 L 376.16267485762415 352.209517756016"/></g><g transform="translate(5,10) scale(1,1)"><path fill="none" stroke="#000000" d="M 376.16267485762415 343.790482243984 L 366 348 L 376.16267485762415 352.209517756016 L 376.16267485762415 343.790482243984" stroke-miterlimit="10"/></g><g transform="translate(5,10) scale(1,1)"><g><path fill="none" stroke="none"/><text fill="#000000" stroke="none" font-family="Arial" font-size="13px" font-style="normal" font-weight="normal" text-decoration="none" x="207" y="343">5 : Update Reservation</text></g></g><g transform="translate(5,10) scale(1,1)"><rect fill="#ffffff" stroke="none" x="353" y="348" width="13" height="28"/></g><g transform="translate(5,10) scale(1,1)"><path fill="none" stroke="#000000" d="M 353 348 L 366 348 L 366 376 L 353 376 L 353 348 Z Z" stroke-miterlimit="10"/></g><g transform="translate(5,10) scale(1,1)"><path fill="none" stroke="#000000" d="M 346 384 L 89 384" stroke-miterlimit="10"/></g><g transform="translate(5,10) scale(1,1)"><path fill="#000000" stroke="none" d="M 99.16267485762415 379.790482243984 L 89 384 L 99.16267485762415 388.209517756016"/></g><g transform="translate(5,10) scale(1,1)"><path fill="none" stroke="#000000" d="M 99.16267485762415 379.790482243984 L 89 384 L 99.16267485762415 388.209517756016 L 99.16267485762415 379.790482243984" stroke-miterlimit="10"/></g><g transform="translate(5,10) scale(1,1)"><g><path fill="none" stroke="none"/><text fill="#000000" stroke="none" font-family="Arial" font-size="13px" font-style="normal" font-weight="normal" text-decoration="none" x="161" y="401">6 : ConfirmRequest</text></g></g><g transform="translate(5,10) scale(1,1)"><rect fill="#ffffff" stroke="none" x="76" y="384" width="13" height="28"/></g><g transform="translate(5,10) scale(1,1)"><path fill="none" stroke="#000000" d="M 76 384 L 89 384 L 89 412 L 76 412 L 76 384 Z Z" stroke-miterlimit="10"/></g><g transform="translate(5,10) scale(1,1)"><path fill="none" stroke="#000000" d="M 353 392 L 522 392" stroke-miterlimit="10"/></g><g transform="translate(5,10) scale(1,1)"><path fill="none" stroke="#000000" d="M 511.83732514237585 396.209517756016 L 522 392 L 511.83732514237585 387.790482243984" stroke-miterlimit="10"/></g><g transform="translate(5,10) scale(1,1)"><g><path fill="none" stroke="none"/><text fill="#000000" stroke="none" font-family="Arial" font-size="13px" font-style="normal" font-weight="normal" text-decoration="none" x="405" y="389">7 : Modify{}</text></g></g><g transform="translate(5,10) scale(1,1)"><rect fill="#ffffff" stroke="none" x="522" y="392" width="13" height="28"/></g><g transform="translate(5,10) scale(1,1)"><path fill="none" stroke="#000000" d="M 522 392 L 535 392 L 535 420 L 522 420 L 522 392 Z Z" stroke-miterlimit="10"/></g><g transform="translate(5,10) scale(1,1)"><path fill="none" stroke="#000000" d="M 83 464 L 346 464" stroke-miterlimit="10"/></g><g transform="translate(5,10) scale(1,1)"><path fill="#000000" stroke="none" d="M 335.83732514237585 468.209517756016 L 346 464 L 335.83732514237585 459.790482243984"/></g><g transform="translate(5,10) scale(1,1)"><path fill="none" stroke="#000000" d="M 335.83732514237585 468.209517756016 L 346 464 L 335.83732514237585 459.790482243984 L 335.83732514237585 468.209517756016" stroke-miterlimit="10"/></g><g transform="translate(5,10) scale(1,1)"><g><path fill="none" stroke="none"/><text fill="#000000" stroke="none" font-family="Arial" font-size="13px" font-style="normal" font-weight="normal" text-decoration="none" x="150" y="461">8 : DeleteTaxiRequest</text></g></g><g transform="translate(5,10) scale(1,1)"><rect fill="#ffffff" stroke="none" x="346" y="464" width="13" height="104"/></g><g transform="translate(5,10) scale(1,1)"><path fill="none" stroke="#000000" d="M 346 464 L 359 464 L 359 568 L 346 568 L 346 464 Z Z" stroke-miterlimit="10"/></g><g transform="translate(5,10) scale(1,1)"><path fill="none" stroke="#000000" d="M 359 480 L 389 480 L 389 500 L 366 500" stroke-miterlimit="10"/></g><g transform="translate(5,10) scale(1,1)"><path fill="#000000" stroke="none" d="M 376.16267485762415 495.790482243984 L 366 500 L 376.16267485762415 504.209517756016"/></g><g transform="translate(5,10) scale(1,1)"><path fill="none" stroke="#000000" d="M 376.16267485762415 495.790482243984 L 366 500 L 376.16267485762415 504.209517756016 L 376.16267485762415 495.790482243984" stroke-miterlimit="10"/></g><g transform="translate(5,10) scale(1,1)"><g><path fill="none" stroke="none"/><text fill="#000000" stroke="none" font-family="Arial" font-size="13px" font-style="normal" font-weight="normal" text-decoration="none" x="200" y="495">9 : Update Reservation</text></g></g><g transform="translate(5,10) scale(1,1)"><rect fill="#ffffff" stroke="none" x="353" y="500" width="13" height="28"/></g><g transform="translate(5,10) scale(1,1)"><path fill="none" stroke="#000000" d="M 353 500 L 366 500 L 366 528 L 353 528 L 353 500 Z Z" stroke-miterlimit="10"/></g><g transform="translate(5,10) scale(1,1)"><path fill="none" stroke="#000000" d="M 366 520 L 522 520" stroke-miterlimit="10"/></g><g transform="translate(5,10) scale(1,1)"><path fill="none" stroke="#000000" d="M 511.83732514237585 524.209517756016 L 522 520 L 511.83732514237585 515.790482243984" stroke-miterlimit="10"/></g><g transform="translate(5,10) scale(1,1)"><g><path fill="none" stroke="none"/><text fill="#000000" stroke="none" font-family="Arial" font-size="13px" font-style="normal" font-weight="normal" text-decoration="none" x="409" y="517">10 : Delete{}</text></g></g><g transform="translate(5,10) scale(1,1)"><rect fill="#ffffff" stroke="none" x="522" y="520" width="13" height="28"/></g><g transform="translate(5,10) scale(1,1)"><path fill="none" stroke="#000000" d="M 522 520 L 535 520 L 535 548 L 522 548 L 522 520 Z Z" stroke-miterlimit="10"/></g><g transform="translate(5,10) scale(1,1)"><path fill="none" stroke="#000000" d="M 346 528 L 89 528" stroke-miterlimit="10"/></g><g transform="translate(5,10) scale(1,1)"><path fill="#000000" stroke="none" d="M 99.16267485762415 523.790482243984 L 89 528 L 99.16267485762415 532.209517756016"/></g><g transform="translate(5,10) scale(1,1)"><path fill="none" stroke="#000000" d="M 99.16267485762415 523.790482243984 L 89 528 L 99.16267485762415 532.209517756016 L 99.16267485762415 523.790482243984" stroke-miterlimit="10"/></g><g transform="translate(5,10) scale(1,1)"><g><path fill="none" stroke="none"/><text fill="#000000" stroke="none" font-family="Arial" font-size="13px" font-style="normal" font-weight="normal" text-decoration="none" x="157" y="545">11 : ConfirmRequest</text></g></g><g transform="translate(5,10) scale(1,1)"><rect fill="#ffffff" stroke="none" x="76" y="528" width="13" height="28"/></g><g transform="translate(5,10) scale(1,1)"><path fill="none" stroke="#000000" d="M 76 528 L 89 528 L 89 556 L 76 556 L 76 528 Z Z" stroke-miterlimit="10"/></g></g></svg>