<svg version="1.1" xmlns="http://www.w3.org/2000/svg" xmlns:xlink="http://www.w3.org/1999/xlink" width="644" height="614"><defs/><g><g transform="translate(2,5) scale(1,1)"><path fill="none" stroke="#000000" d="M 8 5 L 616 5 L 616 599 L 8 599 L 8 5" stroke-miterlimit="10"/></g><g transform="translate(2,5) scale(1,1)"><path fill="#ffffff" stroke="none" d="M 8 5 L 8 27 L 232.10791015625 27 L 243.10791015625 16 L 243.10791015625 5 L 8 5"/></g><g transform="translate(2,5) scale(1,1)"><path fill="none" stroke="#000000" d="M 8 5 L 8 27 L 232.10791015625 27 L 243.10791015625 16 L 243.10791015625 5 L 8 5 L 8 5" stroke-miterlimit="10"/></g><g transform="translate(2,5) scale(1,1)"><g><path fill="none" stroke="none"/><text fill="#000000" stroke="none" font-family="Arial" font-size="13px" font-style="normal" font-weight="normal" text-decoration="none" x="78.97900390625" y="22.5">Manage Taxi Reservation</text></g></g><g transform="translate(2,5) scale(1,1)"><g><path fill="none" stroke="none"/><text fill="#000000" stroke="none" font-family="Arial" font-size="13px" font-style="normal" font-weight="bold" text-decoration="none" x="13" y="22.5">interaction</text></g></g><g transform="translate(2,5) scale(1,1)"><rect fill="#C0C0C0" stroke="none" x="327" y="47" width="79.67724609375" height="39" opacity="0.2"/></g><g transform="translate(2,5) scale(1,1)"><rect fill="#ffffff" stroke="none" x="320" y="40" width="79.67724609375" height="39"/></g><g transform="translate(2,5) scale(1,1)"><path fill="none" stroke="#000000" d="M 320 40 L 399.67724609375 40 L 399.67724609375 79 L 320 79 L 320 40 Z Z" stroke-miterlimit="10"/></g><g transform="translate(2,5) scale(1,1)"><g><path fill="none" stroke="none"/><text fill="#000000" stroke="none" font-family="Arial" font-size="13px" font-style="normal" font-weight="bold" text-decoration="none" x="331.66455078125" y="59.5">Customer</text></g></g><g transform="translate(2,5) scale(1,1)"><path fill="none" stroke="#000000" d="M 360.5 80 L 360.5 517" stroke-miterlimit="10" stroke-dasharray="3"/></g><g transform="translate(2,5) scale(1,1)"><rect fill="#C0C0C0" stroke="none" x="47" y="47" width="86.20263671875" height="39" opacity="0.2"/></g><g transform="translate(2,5) scale(1,1)"><rect fill="#ffffff" stroke="none" x="40" y="40" width="86.20263671875" height="39"/></g><g transform="translate(2,5) scale(1,1)"><path fill="none" stroke="#000000" d="M 40 40 L 126.20263671875 40 L 126.20263671875 79 L 40 79 L 40 40 Z Z" stroke-miterlimit="10"/></g><g transform="translate(2,5) scale(1,1)"><g><path fill="none" stroke="none"/><text fill="#000000" stroke="none" font-family="Arial" font-size="13px" font-style="normal" font-weight="bold" text-decoration="none" x="51.68359375" y="59.5">Taxi Driver</text></g></g><g transform="translate(2,5) scale(1,1)"><path fill="none" stroke="#000000" d="M 84.5 80 L 84.5 390" stroke-miterlimit="10" stroke-dasharray="3"/></g><g transform="translate(2,5) scale(1,1)"><rect fill="#C0C0C0" stroke="none" x="223" y="47" width="71.736328125" height="39" opacity="0.2"/></g><g transform="translate(2,5) scale(1,1)"><rect fill="#ffffff" stroke="none" x="216" y="40" width="71.736328125" height="39"/></g><g transform="translate(2,5) scale(1,1)"><path fill="none" stroke="#000000" d="M 216 40 L 287.736328125 40 L 287.736328125 79 L 216 79 L 216 40 Z Z" stroke-miterlimit="10"/></g><g transform="translate(2,5) scale(1,1)"><g><path fill="none" stroke="none"/><text fill="#000000" stroke="none" font-family="Arial" font-size="13px" font-style="normal" font-weight="bold" text-decoration="none" x="230.197265625" y="59.5">System</text></g></g><g transform="translate(2,5) scale(1,1)"><path fill="none" stroke="#000000" d="M 252.5 80 L 252.5 517" stroke-miterlimit="10" stroke-dasharray="3"/></g><g transform="translate(2,5) scale(1,1)"><rect fill="#C0C0C0" stroke="none" x="543" y="47" width="32" height="39" opacity="0.2"/></g><g transform="translate(2,5) scale(1,1)"><rect fill="#ffffff" stroke="none" x="536" y="40" width="32" height="39"/></g><g transform="translate(2,5) scale(1,1)"><path fill="none" stroke="#000000" d="M 536 40 L 568 40 L 568 79 L 536 79 L 536 40 Z Z" stroke-miterlimit="10"/></g><g transform="translate(2,5) scale(1,1)"><g><path fill="none" stroke="none"/><text fill="#000000" stroke="none" font-family="Arial" font-size="13px" font-style="normal" font-weight="bold" text-decoration="none" x="548.385009765625" y="59.5">a</text></g></g><g transform="translate(2,5) scale(1,1)"><path fill="none" stroke="#000000" d="M 553.5 80 L 553.5 426" stroke-miterlimit="10" stroke-dasharray="3"/></g><g transform="translate(2,5) scale(1,1)"><rect fill="#ffffff" stroke="none" x="528" y="32" width="49" height="49"/></g><g transform="translate(2,5) scale(1,1)"><path fill="none" stroke="#000000" d="M 528 32 L 577 32 L 577 81 L 528 81 L 528 32 Z Z" stroke-miterlimit="10"/></g><g transform="translate(2,5) scale(1,1)"><g><path fill="none" stroke="none"/><text fill="#000000" stroke="none" font-family="Arial" font-size="13px" font-style="normal" font-weight="normal" text-decoration="none" x="501" y="26">Queue Manager</text></g></g><g transform="translate(2,5) scale(1,1)"><path fill="none" stroke="#000000" d="M 40 240 L 320 240 L 320 560 L 40 560 L 40 240" stroke-miterlimit="10"/></g><g transform="translate(2,5) scale(1,1)"><path fill="#ffffff" stroke="none" d="M 40 240 L 40 262 L 187.51708984375 262 L 198.51708984375 251 L 198.51708984375 240 L 40 240"/></g><g transform="translate(2,5) scale(1,1)"><path fill="none" stroke="#000000" d="M 40 240 L 40 262 L 187.51708984375 262 L 198.51708984375 251 L 198.51708984375 240 L 40 240 L 40 240" stroke-miterlimit="10"/></g><g transform="translate(2,5) scale(1,1)"><g><path fill="none" stroke="none"/><text fill="#000000" stroke="none" font-family="Arial" font-size="13px" font-style="normal" font-weight="normal" text-decoration="none" x="69.07177734375" y="257.5">Cancel Reservation</text></g></g><g transform="translate(2,5) scale(1,1)"><g><path fill="none" stroke="none"/><text fill="#000000" stroke="none" font-family="Arial" font-size="13px" font-style="normal" font-weight="bold" text-decoration="none" x="45" y="257.5">opt</text></g></g><g transform="translate(2,5) scale(1,1)"><path fill="none" stroke="#000000" d="M 120 344 L 288 344 L 288 552 L 120 552 L 120 344" stroke-miterlimit="10"/></g><g transform="translate(2,5) scale(1,1)"><path fill="#ffffff" stroke="none" d="M 120 344 L 120 366 L 182.96630859375 366 L 193.96630859375 355 L 193.96630859375 344 L 120 344"/></g><g transform="translate(2,5) scale(1,1)"><path fill="none" stroke="#000000" d="M 120 344 L 120 366 L 182.96630859375 366 L 193.96630859375 355 L 193.96630859375 344 L 120 344 L 120 344" stroke-miterlimit="10"/></g><g transform="translate(2,5) scale(1,1)"><g><path fill="none" stroke="none"/><text fill="#000000" stroke="none" font-family="Arial" font-size="13px" font-style="normal" font-weight="normal" text-decoration="none" x="144.72998046875" y="361.5">Reply</text></g></g><g transform="translate(2,5) scale(1,1)"><g><path fill="none" stroke="none"/><text fill="#000000" stroke="none" font-family="Arial" font-size="13px" font-style="normal" font-weight="bold" text-decoration="none" x="125" y="361.5">alt</text></g></g><g transform="translate(2,5) scale(1,1)"><g><path fill="none" stroke="none"/><text fill="#000000" stroke="none" font-family="Arial" font-size="13px" font-style="normal" font-weight="normal" text-decoration="none" x="139.5" y="394.5">[Driver Found]</text></g></g><g transform="translate(2,5) scale(1,1)"><path fill="none" stroke="#000000" d="M 120 441 L 288 441" stroke-miterlimit="10" stroke-dasharray="10,3"/></g><g transform="translate(2,5) scale(1,1)"><g><path fill="none" stroke="none"/><text fill="#000000" stroke="none" font-family="Arial" font-size="13px" font-style="normal" font-weight="normal" text-decoration="none" x="139.5" y="468.5">[Driver not found]</text></g></g><g transform="translate(2,5) scale(1,1)"><path fill="none" stroke="#000000" d="M 84 132 L 245 132" stroke-miterlimit="10"/></g><g transform="translate(2,5) scale(1,1)"><path fill="#000000" stroke="none" d="M 234.83732514237585 136.209517756016 L 245 132 L 234.83732514237585 127.79048224398402"/></g><g transform="translate(2,5) scale(1,1)"><path fill="none" stroke="#000000" d="M 234.83732514237585 136.209517756016 L 245 132 L 234.83732514237585 127.79048224398402 L 234.83732514237585 136.209517756016" stroke-miterlimit="10"/></g><g transform="translate(2,5) scale(1,1)"><g><path fill="none" stroke="none"/><text fill="#000000" stroke="none" font-family="Arial" font-size="13px" font-style="normal" font-weight="normal" text-decoration="none" x="93" y="129">1 : RequestManagePage</text></g></g><g transform="translate(2,5) scale(1,1)"><rect fill="#ffffff" stroke="none" x="245" y="132" width="13" height="68"/></g><g transform="translate(2,5) scale(1,1)"><path fill="none" stroke="#000000" d="M 245 132 L 258 132 L 258 200 L 245 200 L 245 132 Z Z" stroke-miterlimit="10"/></g><g transform="translate(2,5) scale(1,1)"><path fill="none" stroke="#000000" d="M 258 144 L 288 144 L 288 164 L 265 164" stroke-miterlimit="10"/></g><g transform="translate(2,5) scale(1,1)"><path fill="#000000" stroke="none" d="M 275.16267485762415 159.790482243984 L 265 164 L 275.16267485762415 168.209517756016"/></g><g transform="translate(2,5) scale(1,1)"><path fill="none" stroke="#000000" d="M 275.16267485762415 159.790482243984 L 265 164 L 275.16267485762415 168.209517756016 L 275.16267485762415 159.790482243984" stroke-miterlimit="10"/></g><g transform="translate(2,5) scale(1,1)"><g><path fill="none" stroke="none"/><text fill="#000000" stroke="none" font-family="Arial" font-size="13px" font-style="normal" font-weight="normal" text-decoration="none" x="119" y="159">2 : LoadManagePage</text></g></g><g transform="translate(2,5) scale(1,1)"><rect fill="#ffffff" stroke="none" x="252" y="164" width="13" height="28"/></g><g transform="translate(2,5) scale(1,1)"><path fill="none" stroke="#000000" d="M 252 164 L 265 164 L 265 192 L 252 192 L 252 164 Z Z" stroke-miterlimit="10"/></g><g transform="translate(2,5) scale(1,1)"><path fill="none" stroke="#000000" d="M 252 200 L 90 200" stroke-miterlimit="10"/></g><g transform="translate(2,5) scale(1,1)"><path fill="#000000" stroke="none" d="M 100.16267485762415 195.790482243984 L 90 200 L 100.16267485762415 204.209517756016"/></g><g transform="translate(2,5) scale(1,1)"><path fill="none" stroke="#000000" d="M 100.16267485762415 195.790482243984 L 90 200 L 100.16267485762415 204.209517756016 L 100.16267485762415 195.790482243984" stroke-miterlimit="10"/></g><g transform="translate(2,5) scale(1,1)"><g><path fill="none" stroke="none"/><text fill="#000000" stroke="none" font-family="Arial" font-size="13px" font-style="normal" font-weight="normal" text-decoration="none" x="107" y="217">3 : ShowManagePage</text></g></g><g transform="translate(2,5) scale(1,1)"><rect fill="#ffffff" stroke="none" x="77" y="200" width="13" height="28"/></g><g transform="translate(2,5) scale(1,1)"><path fill="none" stroke="#000000" d="M 77 200 L 90 200 L 90 228 L 77 228 L 77 200 Z Z" stroke-miterlimit="10"/></g><g transform="translate(2,5) scale(1,1)"><path fill="none" stroke="#000000" d="M 84 288 L 245 288" stroke-miterlimit="10"/></g><g transform="translate(2,5) scale(1,1)"><path fill="#000000" stroke="none" d="M 234.83732514237585 292.209517756016 L 245 288 L 234.83732514237585 283.790482243984"/></g><g transform="translate(2,5) scale(1,1)"><path fill="none" stroke="#000000" d="M 234.83732514237585 292.209517756016 L 245 288 L 234.83732514237585 283.790482243984 L 234.83732514237585 292.209517756016" stroke-miterlimit="10"/></g><g transform="translate(2,5) scale(1,1)"><g><path fill="none" stroke="none"/><text fill="#000000" stroke="none" font-family="Arial" font-size="13px" font-style="normal" font-weight="normal" text-decoration="none" x="101" y="285">4 : CancelReservation</text></g></g><g transform="translate(2,5) scale(1,1)"><rect fill="#ffffff" stroke="none" x="245" y="288" width="13" height="88"/></g><g transform="translate(2,5) scale(1,1)"><path fill="none" stroke="#000000" d="M 245 288 L 258 288 L 258 376 L 245 376 L 245 288 Z Z" stroke-miterlimit="10"/></g><g transform="translate(2,5) scale(1,1)"><path fill="none" stroke="#000000" d="M 258 304 L 288 304 L 288 324 L 265 324" stroke-miterlimit="10"/></g><g transform="translate(2,5) scale(1,1)"><path fill="#000000" stroke="none" d="M 275.16267485762415 319.790482243984 L 265 324 L 275.16267485762415 328.209517756016"/></g><g transform="translate(2,5) scale(1,1)"><path fill="none" stroke="#000000" d="M 275.16267485762415 319.790482243984 L 265 324 L 275.16267485762415 328.209517756016 L 275.16267485762415 319.790482243984" stroke-miterlimit="10"/></g><g transform="translate(2,5) scale(1,1)"><g><path fill="none" stroke="none"/><text fill="#000000" stroke="none" font-family="Arial" font-size="13px" font-style="normal" font-weight="normal" text-decoration="none" x="143" y="319">5 : Request Taxi</text></g></g><g transform="translate(2,5) scale(1,1)"><rect fill="#ffffff" stroke="none" x="252" y="324" width="13" height="28"/></g><g transform="translate(2,5) scale(1,1)"><path fill="none" stroke="#000000" d="M 252 324 L 265 324 L 265 352 L 252 352 L 252 324 Z Z" stroke-miterlimit="10"/></g><g transform="translate(2,5) scale(1,1)"><path fill="none" stroke="#000000" d="M 252 384 L 546 384" stroke-miterlimit="10"/></g><g transform="translate(2,5) scale(1,1)"><path fill="#000000" stroke="none" d="M 535.8373251423759 388.209517756016 L 546 384 L 535.8373251423758 379.790482243984"/></g><g transform="translate(2,5) scale(1,1)"><path fill="none" stroke="#000000" d="M 535.8373251423759 388.209517756016 L 546 384 L 535.8373251423758 379.790482243984 L 535.8373251423759 388.209517756016" stroke-miterlimit="10"/></g><g transform="translate(2,5) scale(1,1)"><g><path fill="none" stroke="none"/><text fill="#000000" stroke="none" font-family="Arial" font-size="13px" font-style="normal" font-weight="normal" text-decoration="none" x="367" y="373">6 : Dequeue(Taxi Driver , Time)</text></g></g><g transform="translate(2,5) scale(1,1)"><rect fill="#ffffff" stroke="none" x="546" y="384" width="13" height="28"/></g><g transform="translate(2,5) scale(1,1)"><path fill="none" stroke="#000000" d="M 546 384 L 559 384 L 559 412 L 546 412 L 546 384 Z Z" stroke-miterlimit="10"/></g><g transform="translate(2,5) scale(1,1)"><path fill="none" stroke="#000000" d="M 252 472 L 353 472" stroke-miterlimit="10"/></g><g transform="translate(2,5) scale(1,1)"><path fill="#000000" stroke="none" d="M 342.83732514237585 476.209517756016 L 353 472 L 342.83732514237585 467.790482243984"/></g><g transform="translate(2,5) scale(1,1)"><path fill="none" stroke="#000000" d="M 342.83732514237585 476.209517756016 L 353 472 L 342.83732514237585 467.790482243984 L 342.83732514237585 476.209517756016" stroke-miterlimit="10"/></g><g transform="translate(2,5) scale(1,1)"><g><path fill="none" stroke="none"/><text fill="#000000" stroke="none" font-family="Arial" font-size="13px" font-style="normal" font-weight="normal" text-decoration="none" x="375" y="477">7 : NoTaxiComing</text></g></g><g transform="translate(2,5) scale(1,1)"><rect fill="#ffffff" stroke="none" x="353" y="472" width="13" height="28"/></g><g transform="translate(2,5) scale(1,1)"><path fill="none" stroke="#000000" d="M 353 472 L 366 472 L 366 500 L 353 500 L 353 472 Z Z" stroke-miterlimit="10"/></g></g></svg>