<svg version="1.1" xmlns="http://www.w3.org/2000/svg" xmlns:xlink="http://www.w3.org/1999/xlink" width="775" height="276"><defs/><g><g transform="translate(-86,-214) scale(1,1)"><rect fill="#C0C0C0" stroke="none" x="103" y="423" width="96" height="64" opacity="0.2"/></g><g transform="translate(-86,-214) scale(1,1)"><rect fill="#ffffff" stroke="none" x="96" y="416" width="96" height="64"/></g><g transform="translate(-86,-214) scale(1,1)"><path fill="none" stroke="#000000" d="M 96 416 L 192 416 L 192 480 L 96 480 L 96 416 Z Z" stroke-miterlimit="10"/></g><g transform="translate(-86,-214) scale(1,1)"><path fill="none" stroke="#000000" d="M 96 441 L 192 441" stroke-miterlimit="10"/></g><g transform="translate(-86,-214) scale(1,1)"><path fill="none" stroke="#000000" d="M 96 451 L 192 451" stroke-miterlimit="10"/></g><g transform="translate(-86,-214) scale(1,1)"><g><path fill="none" stroke="none"/><text fill="#000000" stroke="none" font-family="Arial" font-size="13px" font-style="normal" font-weight="bold" text-decoration="none" x="130.2763671875" y="435.5">User</text></g></g><g transform="translate(-86,-214) scale(1,1)"><rect fill="#C0C0C0" stroke="none" x="279" y="231" width="96" height="64" opacity="0.2"/></g><g transform="translate(-86,-214) scale(1,1)"><rect fill="#ffffff" stroke="none" x="272" y="224" width="96" height="64"/></g><g transform="translate(-86,-214) scale(1,1)"><path fill="none" stroke="#000000" d="M 272 224 L 368 224 L 368 288 L 272 288 L 272 224 Z Z" stroke-miterlimit="10"/></g><g transform="translate(-86,-214) scale(1,1)"><path fill="none" stroke="#000000" d="M 272 249 L 368 249" stroke-miterlimit="10"/></g><g transform="translate(-86,-214) scale(1,1)"><path fill="none" stroke="#000000" d="M 272 259 L 368 259" stroke-miterlimit="10"/></g><g transform="translate(-86,-214) scale(1,1)"><g><path fill="none" stroke="none"/><text fill="#000000" stroke="none" font-family="Arial" font-size="13px" font-style="normal" font-weight="bold" text-decoration="none" x="288.925048828125" y="243.5">Passenger</text></g></g><g transform="translate(-86,-214) scale(1,1)"><rect fill="#C0C0C0" stroke="none" x="279" y="423" width="96" height="64" opacity="0.2"/></g><g transform="translate(-86,-214) scale(1,1)"><rect fill="#ffffff" stroke="none" x="272" y="416" width="96" height="64"/></g><g transform="translate(-86,-214) scale(1,1)"><path fill="none" stroke="#000000" d="M 272 416 L 368 416 L 368 480 L 272 480 L 272 416 Z Z" stroke-miterlimit="10"/></g><g transform="translate(-86,-214) scale(1,1)"><path fill="none" stroke="#000000" d="M 272 441 L 368 441" stroke-miterlimit="10"/></g><g transform="translate(-86,-214) scale(1,1)"><path fill="none" stroke="#000000" d="M 272 451 L 368 451" stroke-miterlimit="10"/></g><g transform="translate(-86,-214) scale(1,1)"><g><path fill="none" stroke="none"/><text fill="#000000" stroke="none" font-family="Arial" font-size="13px" font-style="normal" font-weight="bold" text-decoration="none" x="290.38818359375" y="435.5">TaxiDriver</text></g></g><g transform="translate(-86,-214) scale(1,1)"><rect fill="#C0C0C0" stroke="none" x="567" y="231" width="96" height="64" opacity="0.2"/></g><g transform="translate(-86,-214) scale(1,1)"><rect fill="#ffffff" stroke="none" x="560" y="224" width="96" height="64"/></g><g transform="translate(-86,-214) scale(1,1)"><path fill="none" stroke="#000000" d="M 560 224 L 656 224 L 656 288 L 560 288 L 560 224 Z Z" stroke-miterlimit="10"/></g><g transform="translate(-86,-214) scale(1,1)"><path fill="none" stroke="#000000" d="M 560 249 L 656 249" stroke-miterlimit="10"/></g><g transform="translate(-86,-214) scale(1,1)"><path fill="none" stroke="#000000" d="M 560 259 L 656 259" stroke-miterlimit="10"/></g><g transform="translate(-86,-214) scale(1,1)"><g><path fill="none" stroke="none"/><text fill="#000000" stroke="none" font-family="Arial" font-size="13px" font-style="normal" font-weight="bold" text-decoration="none" x="594.6318359375" y="243.5">Ride</text></g></g><g transform="translate(-86,-214) scale(1,1)"><g><path fill="none" stroke="none"/><text fill="#000000" stroke="none" font-family="Arial" font-size="13px" font-style="normal" font-weight="normal" text-decoration="none" x="533" y="274">0..*</text></g></g><g transform="translate(-86,-214) scale(1,1)"><path fill="none" stroke="#000000" d="M 369 256 L 559 256" stroke-miterlimit="10"/></g><g transform="translate(-86,-214) scale(1,1)"><g><path fill="none" stroke="none"/><text fill="#000000" stroke="none" font-family="Arial" font-size="13px" font-style="normal" font-weight="normal" text-decoration="none" x="431" y="243">+partecipant</text></g></g><g transform="translate(-86,-214) scale(1,1)"><g><path fill="none" stroke="none"/><text fill="#000000" stroke="none" font-family="Arial" font-size="13px" font-style="normal" font-weight="normal" text-decoration="none" x="381" y="274">1..4</text></g></g><g transform="translate(-86,-214) scale(1,1)"><path fill="none" stroke="#000000" d="M 369 415 L 559 289" stroke-miterlimit="10"/></g><g transform="translate(-86,-214) scale(1,1)"><g><path fill="none" stroke="none"/><text fill="#000000" stroke="none" font-family="Arial" font-size="13px" font-style="normal" font-weight="normal" text-decoration="none" x="423" y="341">+driver</text></g></g><g transform="translate(-86,-214) scale(1,1)"><g><path fill="none" stroke="none"/><text fill="#000000" stroke="none" font-family="Arial" font-size="13px" font-style="normal" font-weight="normal" text-decoration="none" x="565" y="306">0..*</text></g></g><g transform="translate(-86,-214) scale(1,1)"><g><path fill="none" stroke="none"/><text fill="#000000" stroke="none" font-family="Arial" font-size="13px" font-style="normal" font-weight="normal" text-decoration="none" x="381" y="426">1</text></g></g><g transform="translate(-86,-214) scale(1,1)"><rect fill="#C0C0C0" stroke="none" x="743" y="423" width="106.525390625" height="64" opacity="0.2"/></g><g transform="translate(-86,-214) scale(1,1)"><rect fill="#ffffff" stroke="none" x="736" y="416" width="106.525390625" height="64"/></g><g transform="translate(-86,-214) scale(1,1)"><path fill="none" stroke="#000000" d="M 736 416 L 842.525390625 416 L 842.525390625 480 L 736 480 L 736 416 Z Z" stroke-miterlimit="10"/></g><g transform="translate(-86,-214) scale(1,1)"><path fill="none" stroke="#000000" d="M 736 441 L 842.525390625 441" stroke-miterlimit="10"/></g><g transform="translate(-86,-214) scale(1,1)"><path fill="none" stroke="#000000" d="M 736 451 L 842.525390625 451" stroke-miterlimit="10"/></g><g transform="translate(-86,-214) scale(1,1)"><g><path fill="none" stroke="none"/><text fill="#000000" stroke="none" font-family="Arial" font-size="13px" font-style="normal" font-weight="bold" text-decoration="none" x="769.746826171875" y="435.5">Queue</text></g></g><g transform="translate(-86,-214) scale(1,1)"><path fill="none" stroke="#000000" d="M 369 448 L 735 448" stroke-miterlimit="10"/></g><g transform="translate(-86,-214) scale(1,1)"><g><path fill="none" stroke="none"/><text fill="#000000" stroke="none" font-family="Arial" font-size="13px" font-style="normal" font-weight="normal" text-decoration="none" x="539" y="440">+isIn</text></g></g><g transform="translate(-86,-214) scale(1,1)"><g><path fill="none" stroke="none"/><text fill="#000000" stroke="none" font-family="Arial" font-size="13px" font-style="normal" font-weight="normal" text-decoration="none" x="373" y="466">0..*</text></g></g><g transform="translate(-86,-214) scale(1,1)"><g><path fill="none" stroke="none"/><text fill="#000000" stroke="none" font-family="Arial" font-size="13px" font-style="normal" font-weight="normal" text-decoration="none" x="709" y="466">1</text></g></g><g transform="translate(-86,-214) scale(1,1)"><rect fill="#C0C0C0" stroke="none" x="743" y="279" width="106.525390625" height="60" opacity="0.2"/></g><g transform="translate(-86,-214) scale(1,1)"><rect fill="#ffffff" stroke="none" x="736" y="272" width="106.525390625" height="60"/></g><g transform="translate(-86,-214) scale(1,1)"><path fill="none" stroke="#000000" d="M 736 272 L 842.525390625 272 L 842.525390625 332 L 736 332 L 736 272 Z Z" stroke-miterlimit="10"/></g><g transform="translate(-86,-214) scale(1,1)"><path fill="none" stroke="#000000" d="M 736 297 L 842.525390625 297" stroke-miterlimit="10"/></g><g transform="translate(-86,-214) scale(1,1)"><path fill="none" stroke="#000000" d="M 736 307 L 842.525390625 307" stroke-miterlimit="10"/></g><g transform="translate(-86,-214) scale(1,1)"><g><path fill="none" stroke="none"/><text fill="#000000" stroke="none" font-family="Arial" font-size="13px" font-style="normal" font-weight="bold" text-decoration="none" x="744.0927734375" y="291.5">QueueManager</text></g></g><g transform="translate(-86,-214) scale(1,1)"><path fill="none" stroke="#000000" d="M 789 415 L 789 333" stroke-miterlimit="10"/></g><g transform="translate(-86,-214) scale(1,1)"><g><path fill="none" stroke="none"/><text fill="#000000" stroke="none" font-family="Arial" font-size="13px" font-style="normal" font-weight="normal" text-decoration="none" x="724" y="381">+manage</text></g></g><g transform="translate(-86,-214) scale(1,1)"><g><path fill="none" stroke="none"/><text fill="#000000" stroke="none" font-family="Arial" font-size="13px" font-style="normal" font-weight="normal" text-decoration="none" x="797" y="354">N</text></g></g><g transform="translate(-86,-214) scale(1,1)"><g><path fill="none" stroke="none"/><text fill="#000000" stroke="none" font-family="Arial" font-size="13px" font-style="normal" font-weight="normal" text-decoration="none" x="797" y="410">1</text></g></g><g transform="translate(-86,-214) scale(1,1)"><path fill="none" stroke="#000000" d="M 271 448 L 193 448" stroke-miterlimit="10"/></g><g transform="translate(-86,-214) scale(1,1)"><path fill="#FFFFFF" stroke="none" d="M 213.3253497152483 439.580964487968 L 193 448 L 213.3253497152483 456.419035512032"/></g><g transform="translate(-86,-214) scale(1,1)"><path fill="none" stroke="#000000" d="M 213.3253497152483 439.580964487968 L 193 448 L 213.3253497152483 456.419035512032 L 213.3253497152483 439.580964487968" stroke-miterlimit="10"/></g><g transform="translate(-86,-214) scale(1,1)"><rect fill="#C0C0C0" stroke="none" x="103" y="231" width="96" height="64" opacity="0.2"/></g><g transform="translate(-86,-214) scale(1,1)"><rect fill="#ffffff" stroke="none" x="96" y="224" width="96" height="64"/></g><g transform="translate(-86,-214) scale(1,1)"><path fill="none" stroke="#000000" d="M 96 224 L 192 224 L 192 288 L 96 288 L 96 224 Z Z" stroke-miterlimit="10"/></g><g transform="translate(-86,-214) scale(1,1)"><path fill="none" stroke="#000000" d="M 96 249 L 192 249" stroke-miterlimit="10"/></g><g transform="translate(-86,-214) scale(1,1)"><path fill="none" stroke="#000000" d="M 96 259 L 192 259" stroke-miterlimit="10"/></g><g transform="translate(-86,-214) scale(1,1)"><g><path fill="none" stroke="none"/><text fill="#000000" stroke="none" font-family="Arial" font-size="13px" font-style="normal" font-weight="bold" text-decoration="none" x="115.825927734375" y="243.5">Customer</text></g></g><g transform="translate(-86,-214) scale(1,1)"><path fill="none" stroke="#000000" d="M 271 256 L 193 256" stroke-miterlimit="10"/></g><g transform="translate(-86,-214) scale(1,1)"><path fill="#FFFFFF" stroke="none" d="M 213.3253497152483 247.58096448796803 L 193 256 L 213.3253497152483 264.419035512032"/></g><g transform="translate(-86,-214) scale(1,1)"><path fill="none" stroke="#000000" d="M 213.3253497152483 247.58096448796803 L 193 256 L 213.3253497152483 264.419035512032 L 213.3253497152483 247.58096448796803" stroke-miterlimit="10"/></g><g transform="translate(-86,-214) scale(1,1)"><path fill="none" stroke="#000000" d="M 144 289 L 144 415" stroke-miterlimit="10"/></g><g transform="translate(-86,-214) scale(1,1)"><path fill="#FFFFFF" stroke="none" d="M 135.58096448796803 394.6746502847517 L 144 415 L 152.41903551203197 394.6746502847517"/></g><g transform="translate(-86,-214) scale(1,1)"><path fill="none" stroke="#000000" d="M 135.58096448796803 394.6746502847517 L 144 415 L 152.41903551203197 394.6746502847517 L 135.58096448796803 394.6746502847517" stroke-miterlimit="10"/></g></g></svg>