<svg version="1.1" xmlns="http://www.w3.org/2000/svg" xmlns:xlink="http://www.w3.org/1999/xlink" width="807" height="1094"><defs/><g><g transform="translate(-6,-102) scale(1,1)"><path fill="#ffffff" stroke="none" d="M 130.15935031960228 777.6800000000001 C 130.15935031960228 772.8861679360001 134.04519264454774 769 138.838623046875 769 C 143.63205344920226 769 147.51789577414772 772.8861679360001 147.51789577414772 777.6800000000001 C 147.51789577414772 782.473832064 143.63205344920226 786.36 138.838623046875 786.36 C 134.04519264454774 786.36 130.15935031960228 782.473832064 130.15935031960228 777.6800000000001 Z"/></g><g transform="translate(-6,-102) scale(1,1)"><path fill="none" stroke="#000000" d="M 130.15935031960228 777.6800000000001 C 130.15935031960228 772.8861679360001 134.04519264454774 769 138.838623046875 769 C 143.63205344920226 769 147.51789577414772 772.8861679360001 147.51789577414772 777.6800000000001 C 147.51789577414772 782.473832064 143.63205344920226 786.36 138.838623046875 786.36 C 134.04519264454774 786.36 130.15935031960228 782.473832064 130.15935031960228 777.6800000000001 Z" stroke-miterlimit="10"/></g><g transform="translate(-6,-102) scale(1,1)"><path fill="none" stroke="#000000" d="M 138.838623046875 786.36 L 138.838623046875 803.64" stroke-miterlimit="10"/></g><g transform="translate(-6,-102) scale(1,1)"><path fill="none" stroke="#000000" d="M 129.64880486505683 792.84 L 148.02844122869317 792.84" stroke-miterlimit="10"/></g><g transform="translate(-6,-102) scale(1,1)"><path fill="none" stroke="#000000" d="M 138.838623046875 803.64 L 126.07498668323865 821" stroke-miterlimit="10"/></g><g transform="translate(-6,-102) scale(1,1)"><path fill="none" stroke="#000000" d="M 138.838623046875 803.64 L 151.60225941051135 821" stroke-miterlimit="10"/></g><g transform="translate(-6,-102) scale(1,1)"><g><path fill="none" stroke="none"/><text fill="#000000" stroke="none" font-family="Arial" font-size="13px" font-style="normal" font-weight="bold" text-decoration="none" x="110.66455078125" y="841.5">Customer</text></g></g><g transform="translate(-6,-102) scale(1,1)"><path fill="#ffffff" stroke="none" d="M 112.40935031960228 137.68 C 112.40935031960228 132.886167936 116.29519264454774 129 121.088623046875 129 C 125.88205344920226 129 129.76789577414772 132.886167936 129.76789577414772 137.68 C 129.76789577414772 142.47383206400002 125.88205344920226 146.36 121.088623046875 146.36 C 116.29519264454774 146.36 112.40935031960228 142.47383206400002 112.40935031960228 137.68 Z"/></g><g transform="translate(-6,-102) scale(1,1)"><path fill="none" stroke="#000000" d="M 112.40935031960228 137.68 C 112.40935031960228 132.886167936 116.29519264454774 129 121.088623046875 129 C 125.88205344920226 129 129.76789577414772 132.886167936 129.76789577414772 137.68 C 129.76789577414772 142.47383206400002 125.88205344920226 146.36 121.088623046875 146.36 C 116.29519264454774 146.36 112.40935031960228 142.47383206400002 112.40935031960228 137.68 Z" stroke-miterlimit="10"/></g><g transform="translate(-6,-102) scale(1,1)"><path fill="none" stroke="#000000" d="M 121.088623046875 146.36 L 121.088623046875 163.64" stroke-miterlimit="10"/></g><g transform="translate(-6,-102) scale(1,1)"><path fill="none" stroke="#000000" d="M 111.89880486505683 152.84 L 130.27844122869317 152.84" stroke-miterlimit="10"/></g><g transform="translate(-6,-102) scale(1,1)"><path fill="none" stroke="#000000" d="M 121.088623046875 163.64 L 108.32498668323865 181" stroke-miterlimit="10"/></g><g transform="translate(-6,-102) scale(1,1)"><path fill="none" stroke="#000000" d="M 121.088623046875 163.64 L 133.85225941051135 181" stroke-miterlimit="10"/></g><g transform="translate(-6,-102) scale(1,1)"><g><path fill="none" stroke="none"/><text fill="#000000" stroke="none" font-family="Arial" font-size="13px" font-style="normal" font-weight="bold" text-decoration="none" x="103.746826171875" y="201.5">Guest</text></g></g><g transform="translate(-6,-102) scale(1,1)"><path fill="#ffffff" stroke="none" d="M 149.42204563210228 417.68 C 149.42204563210228 412.886167936 153.30788795704774 409 158.101318359375 409 C 162.89474876170226 409 166.78059108664772 412.886167936 166.78059108664772 417.68 C 166.78059108664772 422.473832064 162.89474876170226 426.36 158.101318359375 426.36 C 153.30788795704774 426.36 149.42204563210228 422.473832064 149.42204563210228 417.68 Z"/></g><g transform="translate(-6,-102) scale(1,1)"><path fill="none" stroke="#000000" d="M 149.42204563210228 417.68 C 149.42204563210228 412.886167936 153.30788795704774 409 158.101318359375 409 C 162.89474876170226 409 166.78059108664772 412.886167936 166.78059108664772 417.68 C 166.78059108664772 422.473832064 162.89474876170226 426.36 158.101318359375 426.36 C 153.30788795704774 426.36 149.42204563210228 422.473832064 149.42204563210228 417.68 Z" stroke-miterlimit="10"/></g><g transform="translate(-6,-102) scale(1,1)"><path fill="none" stroke="#000000" d="M 158.101318359375 426.36 L 158.101318359375 443.64" stroke-miterlimit="10"/></g><g transform="translate(-6,-102) scale(1,1)"><path fill="none" stroke="#000000" d="M 148.91150017755683 432.84 L 167.29113654119317 432.84" stroke-miterlimit="10"/></g><g transform="translate(-6,-102) scale(1,1)"><path fill="none" stroke="#000000" d="M 158.101318359375 443.64 L 145.33768199573865 461" stroke-miterlimit="10"/></g><g transform="translate(-6,-102) scale(1,1)"><path fill="none" stroke="#000000" d="M 158.101318359375 443.64 L 170.86495472301135 461" stroke-miterlimit="10"/></g><g transform="translate(-6,-102) scale(1,1)"><g><path fill="none" stroke="none"/><text fill="#000000" stroke="none" font-family="Arial" font-size="13px" font-style="normal" font-weight="bold" text-decoration="none" x="126.68359375" y="481.5">Taxi Driver</text></g></g><g transform="translate(-6,-102) scale(1,1)"><path fill="#C0C0C0" stroke="none" d="M 271 136 C 271 126.6111584 293.6096176 119 321.5 119 C 349.3903824 119 372 126.6111584 372 136 C 372 145.3888416 349.3903824 153 321.5 153 C 293.6096176 153 271 145.3888416 271 136 Z" opacity="0.2"/></g><g transform="translate(-6,-102) scale(1,1)"><path fill="#ffffff" stroke="none" d="M 264 129 C 264 119.6111584 286.6096176 112 314.5 112 C 342.3903824 112 365 119.6111584 365 129 C 365 138.3888416 342.3903824 146 314.5 146 C 286.6096176 146 264 138.3888416 264 129 Z"/></g><g transform="translate(-6,-102) scale(1,1)"><path fill="none" stroke="#000000" d="M 264 129 C 264 119.6111584 286.6096176 112 314.5 112 C 342.3903824 112 365 119.6111584 365 129 C 365 138.3888416 342.3903824 146 314.5 146 C 286.6096176 146 264 138.3888416 264 129 Z" stroke-miterlimit="10"/></g><g transform="translate(-6,-102) scale(1,1)"><g><path fill="none" stroke="none"/><text fill="#000000" stroke="none" font-family="Arial" font-size="13px" font-style="normal" font-weight="bold" text-decoration="none" x="298.595947265625" y="136">Login</text></g></g><g transform="translate(-6,-102) scale(1,1)"><path fill="#C0C0C0" stroke="none" d="M 271 232 C 271 222.6111584 293.6096176 215 321.5 215 C 349.3903824 215 372 222.6111584 372 232 C 372 241.3888416 349.3903824 249 321.5 249 C 293.6096176 249 271 241.3888416 271 232 Z" opacity="0.2"/></g><g transform="translate(-6,-102) scale(1,1)"><path fill="#ffffff" stroke="none" d="M 264 225 C 264 215.6111584 286.6096176 208 314.5 208 C 342.3903824 208 365 215.6111584 365 225 C 365 234.3888416 342.3903824 242 314.5 242 C 286.6096176 242 264 234.3888416 264 225 Z"/></g><g transform="translate(-6,-102) scale(1,1)"><path fill="none" stroke="#000000" d="M 264 225 C 264 215.6111584 286.6096176 208 314.5 208 C 342.3903824 208 365 215.6111584 365 225 C 365 234.3888416 342.3903824 242 314.5 242 C 286.6096176 242 264 234.3888416 264 225 Z" stroke-miterlimit="10"/></g><g transform="translate(-6,-102) scale(1,1)"><g><path fill="none" stroke="none"/><text fill="#000000" stroke="none" font-family="Arial" font-size="13px" font-style="normal" font-weight="bold" text-decoration="none" x="294.260498046875" y="232">Signup</text></g></g><g transform="translate(-6,-102) scale(1,1)"><path fill="none" stroke="#000000" d="M 147 162 L 263 139" stroke-miterlimit="10"/></g><g transform="translate(-6,-102) scale(1,1)"><path fill="none" stroke="#000000" d="M 253.85009371584937 145.10567072411055 L 263 139 L 252.21267804654494 136.84740039196643" stroke-miterlimit="10"/></g><g transform="translate(-6,-102) scale(1,1)"><path fill="none" stroke="#000000" d="M 147 175 L 263 210" stroke-miterlimit="10"/></g><g transform="translate(-6,-102) scale(1,1)"><path fill="none" stroke="#000000" d="M 252.05458281755762 211.0944600048859 L 263 210 L 254.48652119618694 203.03432137857152" stroke-miterlimit="10"/></g><g transform="translate(-6,-102) scale(1,1)"><path fill="#C0C0C0" stroke="none" d="M 495 712 C 495 702.6111584 526.340064 695 565 695 C 603.659936 695 635 702.6111584 635 712 C 635 721.3888416 603.659936 729 565 729 C 526.340064 729 495 721.3888416 495 712 Z" opacity="0.2"/></g><g transform="translate(-6,-102) scale(1,1)"><path fill="#ffffff" stroke="none" d="M 488 705 C 488 695.6111584 519.340064 688 558 688 C 596.659936 688 628 695.6111584 628 705 C 628 714.3888416 596.659936 722 558 722 C 519.340064 722 488 714.3888416 488 705 Z"/></g><g transform="translate(-6,-102) scale(1,1)"><path fill="none" stroke="#000000" d="M 488 705 C 488 695.6111584 519.340064 688 558 688 C 596.659936 688 628 695.6111584 628 705 C 628 714.3888416 596.659936 722 558 722 C 519.340064 722 488 714.3888416 488 705 Z" stroke-miterlimit="10"/></g><g transform="translate(-6,-102) scale(1,1)"><g><path fill="none" stroke="none"/><text fill="#000000" stroke="none" font-family="Arial" font-size="13px" font-style="normal" font-weight="bold" text-decoration="none" x="522.234130859375" y="712">Taxi request</text></g></g><g transform="translate(-6,-102) scale(1,1)"><path fill="none" stroke="#000000" d="M 175 798 L 487 722" stroke-miterlimit="10"/></g><g transform="translate(-6,-102) scale(1,1)"><path fill="none" stroke="#000000" d="M 478.122308444833 728.4951206802734 L 487 722 L 476.1297802224125 720.3152679777052" stroke-miterlimit="10"/></g><g transform="translate(-6,-102) scale(1,1)"><path fill="#C0C0C0" stroke="none" d="M 111 624 C 111 614.6111584 160.6963872 607 222 607 C 283.3036128 607 333 614.6111584 333 624 C 333 633.3888416 283.3036128 641 222 641 C 160.6963872 641 111 633.3888416 111 624 Z" opacity="0.2"/></g><g transform="translate(-6,-102) scale(1,1)"><path fill="#ffffff" stroke="none" d="M 104 617 C 104 607.6111584 153.6963872 600 215 600 C 276.3036128 600 326 607.6111584 326 617 C 326 626.3888416 276.3036128 634 215 634 C 153.6963872 634 104 626.3888416 104 617 Z"/></g><g transform="translate(-6,-102) scale(1,1)"><path fill="none" stroke="#000000" d="M 104 617 C 104 607.6111584 153.6963872 600 215 600 C 276.3036128 600 326 607.6111584 326 617 C 326 626.3888416 276.3036128 634 215 634 C 153.6963872 634 104 626.3888416 104 617 Z" stroke-miterlimit="10"/></g><g transform="translate(-6,-102) scale(1,1)"><g><path fill="none" stroke="none"/><text fill="#000000" stroke="none" font-family="Arial" font-size="13px" font-style="normal" font-weight="bold" text-decoration="none" x="151.40283203125" y="624">Manage Personal Info</text></g></g><g transform="translate(-6,-102) scale(1,1)"><path fill="#C0C0C0" stroke="none" d="M 663 600 C 663 590.6111584 693.4446336 583 731 583 C 768.5553664 583 799 590.6111584 799 600 C 799 609.3888416 768.5553664 617 731 617 C 693.4446336 617 663 609.3888416 663 600 Z" opacity="0.2"/></g><g transform="translate(-6,-102) scale(1,1)"><path fill="#ffffff" stroke="none" d="M 656 593 C 656 583.6111584 686.4446336 576 724 576 C 761.5553664 576 792 583.6111584 792 593 C 792 602.3888416 761.5553664 610 724 610 C 686.4446336 610 656 602.3888416 656 593 Z"/></g><g transform="translate(-6,-102) scale(1,1)"><path fill="none" stroke="#000000" d="M 656 593 C 656 583.6111584 686.4446336 576 724 576 C 761.5553664 576 792 583.6111584 792 593 C 792 602.3888416 761.5553664 610 724 610 C 686.4446336 610 656 602.3888416 656 593 Z" stroke-miterlimit="10"/></g><g transform="translate(-6,-102) scale(1,1)"><g><path fill="none" stroke="none"/><text fill="#000000" stroke="none" font-family="Arial" font-size="13px" font-style="normal" font-weight="bold" text-decoration="none" x="689.31640625" y="600">Car Sharing</text></g></g><g transform="translate(-6,-102) scale(1,1)"><path fill="none" stroke="#000000" d="M 697 611 L 585 687" stroke-miterlimit="10" stroke-dasharray="3"/></g><g transform="translate(-6,-102) scale(1,1)"><path fill="none" stroke="#000000" d="M 591.0457170571854 677.8103696883684 L 585 687 L 595.7730174382231 684.7769176183187" stroke-miterlimit="10"/></g><g transform="translate(-6,-102) scale(1,1)"><g><path fill="none" stroke="none"/><text fill="#000000" stroke="none" font-family="Arial" font-size="13px" font-style="normal" font-weight="normal" text-decoration="none" x="631" y="680">«extend»</text></g></g><g transform="translate(-6,-102) scale(1,1)"><path fill="#C0C0C0" stroke="none" d="M 655 848 C 655 838.6111584 687.6832096 831 728 831 C 768.3167904 831 801 838.6111584 801 848 C 801 857.3888416 768.3167904 865 728 865 C 687.6832096 865 655 857.3888416 655 848 Z" opacity="0.2"/></g><g transform="translate(-6,-102) scale(1,1)"><path fill="#ffffff" stroke="none" d="M 648 841 C 648 831.6111584 680.6832096 824 721 824 C 761.3167904 824 794 831.6111584 794 841 C 794 850.3888416 761.3167904 858 721 858 C 680.6832096 858 648 850.3888416 648 841 Z"/></g><g transform="translate(-6,-102) scale(1,1)"><path fill="none" stroke="#000000" d="M 648 841 C 648 831.6111584 680.6832096 824 721 824 C 761.3167904 824 794 831.6111584 794 841 C 794 850.3888416 761.3167904 858 721 858 C 680.6832096 858 648 850.3888416 648 841 Z" stroke-miterlimit="10"/></g><g transform="translate(-6,-102) scale(1,1)"><g><path fill="none" stroke="none"/><text fill="#000000" stroke="none" font-family="Arial" font-size="13px" font-style="normal" font-weight="bold" text-decoration="none" x="682.7109375" y="848">Reserve Taxi</text></g></g><g transform="translate(-6,-102) scale(1,1)"><path fill="none" stroke="#000000" d="M 699 823 L 580 723" stroke-miterlimit="10" stroke-dasharray="3"/></g><g transform="translate(-6,-102) scale(1,1)"><path fill="none" stroke="#000000" d="M 590.4884850147222 726.3153705819935 L 580 723 L 585.0721578576096 732.7607998989575" stroke-miterlimit="10"/></g><g transform="translate(-6,-102) scale(1,1)"><g><path fill="none" stroke="none"/><text fill="#000000" stroke="none" font-family="Arial" font-size="13px" font-style="normal" font-weight="normal" text-decoration="none" x="593" y="802">«extend»</text></g></g><g transform="translate(-6,-102) scale(1,1)"><path fill="none" stroke="#000000" d="M 724 611 L 721 823" stroke-miterlimit="10" stroke-dasharray="3"/></g><g transform="translate(-6,-102) scale(1,1)"><path fill="none" stroke="#000000" d="M 716.934700696738 812.7787798392317 L 721 823 L 725.3528933827904 812.8979052074305" stroke-miterlimit="10"/></g><g transform="translate(-6,-102) scale(1,1)"><g><path fill="none" stroke="none"/><text fill="#000000" stroke="none" font-family="Arial" font-size="13px" font-style="normal" font-weight="normal" text-decoration="none" x="725" y="724">«extend»</text></g></g><g transform="translate(-6,-102) scale(1,1)"><path fill="#C0C0C0" stroke="none" d="M 399 408 C 399 398.6111584 435.4887888 391 480.5 391 C 525.5112112 391 562 398.6111584 562 408 C 562 417.3888416 525.5112112 425 480.5 425 C 435.4887888 425 399 417.3888416 399 408 Z" opacity="0.2"/></g><g transform="translate(-6,-102) scale(1,1)"><path fill="#ffffff" stroke="none" d="M 392 401 C 392 391.6111584 428.4887888 384 473.5 384 C 518.5112112 384 555 391.6111584 555 401 C 555 410.3888416 518.5112112 418 473.5 418 C 428.4887888 418 392 410.3888416 392 401 Z"/></g><g transform="translate(-6,-102) scale(1,1)"><path fill="none" stroke="#000000" d="M 392 401 C 392 391.6111584 428.4887888 384 473.5 384 C 518.5112112 384 555 391.6111584 555 401 C 555 410.3888416 518.5112112 418 473.5 418 C 428.4887888 418 392 410.3888416 392 401 Z" stroke-miterlimit="10"/></g><g transform="translate(-6,-102) scale(1,1)"><g><path fill="none" stroke="none"/><text fill="#000000" stroke="none" font-family="Arial" font-size="13px" font-style="normal" font-weight="bold" text-decoration="none" x="424.010498046875" y="408">Report Customer</text></g></g><g transform="translate(-6,-102) scale(1,1)"><path fill="none" stroke="#000000" d="M 197 441 L 391 413" stroke-miterlimit="10"/></g><g transform="translate(-6,-102) scale(1,1)"><path fill="none" stroke="#000000" d="M 381.54287792613843 418.61808170820615 L 391 413 L 380.34022117793086 410.2853885241962" stroke-miterlimit="10"/></g><g transform="translate(-6,-102) scale(1,1)"><path fill="#C0C0C0" stroke="none" d="M 487 488 C 487 478.6111584 512.2959088 471 543.5 471 C 574.7040912 471 600 478.6111584 600 488 C 600 497.3888416 574.7040912 505 543.5 505 C 512.2959088 505 487 497.3888416 487 488 Z" opacity="0.2"/></g><g transform="translate(-6,-102) scale(1,1)"><path fill="#ffffff" stroke="none" d="M 480 481 C 480 471.6111584 505.2959088 464 536.5 464 C 567.7040912 464 593 471.6111584 593 481 C 593 490.3888416 567.7040912 498 536.5 498 C 505.2959088 498 480 490.3888416 480 481 Z"/></g><g transform="translate(-6,-102) scale(1,1)"><path fill="none" stroke="#000000" d="M 480 481 C 480 471.6111584 505.2959088 464 536.5 464 C 567.7040912 464 593 471.6111584 593 481 C 593 490.3888416 567.7040912 498 536.5 498 C 505.2959088 498 480 490.3888416 480 481 Z" stroke-miterlimit="10"/></g><g transform="translate(-6,-102) scale(1,1)"><g><path fill="none" stroke="none"/><text fill="#000000" stroke="none" font-family="Arial" font-size="13px" font-style="normal" font-weight="bold" text-decoration="none" x="510.122314453125" y="488">Available</text></g></g><g transform="translate(-6,-102) scale(1,1)"><path fill="none" stroke="#000000" d="M 197 451 L 479 476" stroke-miterlimit="10"/></g><g transform="translate(-6,-102) scale(1,1)"><path fill="none" stroke="#000000" d="M 468.5053005310055 479.29564607558 L 479 476 L 469.24875315052566 470.9095005273926" stroke-miterlimit="10"/></g><g transform="translate(-6,-102) scale(1,1)"><path fill="none" stroke="#000000" d="M 197 472 L 530 687" stroke-miterlimit="10"/></g><g transform="translate(-6,-102) scale(1,1)"><path fill="none" stroke="#000000" d="M 519.1789206820958 685.0240844158649 L 530 687 L 523.7455247431467 677.9511581259584" stroke-miterlimit="10"/></g><g transform="translate(-6,-102) scale(1,1)"><path fill="#C0C0C0" stroke="none" d="M 383 320 C 383 310.6111584 415.0116368 303 454.5 303 C 493.9883632 303 526 310.6111584 526 320 C 526 329.3888416 493.9883632 337 454.5 337 C 415.0116368 337 383 329.3888416 383 320 Z" opacity="0.2"/></g><g transform="translate(-6,-102) scale(1,1)"><path fill="#ffffff" stroke="none" d="M 376 313 C 376 303.6111584 408.0116368 296 447.5 296 C 486.9883632 296 519 303.6111584 519 313 C 519 322.3888416 486.9883632 330 447.5 330 C 408.0116368 330 376 322.3888416 376 313 Z"/></g><g transform="translate(-6,-102) scale(1,1)"><path fill="none" stroke="#000000" d="M 376 313 C 376 303.6111584 408.0116368 296 447.5 296 C 486.9883632 296 519 303.6111584 519 313 C 519 322.3888416 486.9883632 330 447.5 330 C 408.0116368 330 376 322.3888416 376 313 Z" stroke-miterlimit="10"/></g><g transform="translate(-6,-102) scale(1,1)"><g><path fill="none" stroke="none"/><text fill="#000000" stroke="none" font-family="Arial" font-size="13px" font-style="normal" font-weight="bold" text-decoration="none" x="404.87548828125" y="320">Notify Problem</text></g></g><g transform="translate(-6,-102) scale(1,1)"><path fill="none" stroke="#000000" d="M 197 429 L 408 331" stroke-miterlimit="10"/></g><g transform="translate(-6,-102) scale(1,1)"><path fill="none" stroke="#000000" d="M 400.5561658593428 339.0987241764605 L 408 331 L 397.0097516169787 331.463077185248" stroke-miterlimit="10"/></g><g transform="translate(-6,-102) scale(1,1)"><path fill="#ffffff" stroke="none" d="M 124.70158664772728 977.6800000000001 C 124.70158664772728 972.8861679360001 128.58742897267274 969 133.380859375 969 C 138.17428977732726 969 142.06013210227272 972.8861679360001 142.06013210227272 977.6800000000001 C 142.06013210227272 982.473832064 138.17428977732726 986.36 133.380859375 986.36 C 128.58742897267274 986.36 124.70158664772728 982.473832064 124.70158664772728 977.6800000000001 Z"/></g><g transform="translate(-6,-102) scale(1,1)"><path fill="none" stroke="#000000" d="M 124.70158664772728 977.6800000000001 C 124.70158664772728 972.8861679360001 128.58742897267274 969 133.380859375 969 C 138.17428977732726 969 142.06013210227272 972.8861679360001 142.06013210227272 977.6800000000001 C 142.06013210227272 982.473832064 138.17428977732726 986.36 133.380859375 986.36 C 128.58742897267274 986.36 124.70158664772728 982.473832064 124.70158664772728 977.6800000000001 Z" stroke-miterlimit="10"/></g><g transform="translate(-6,-102) scale(1,1)"><path fill="none" stroke="#000000" d="M 133.380859375 986.36 L 133.380859375 1003.64" stroke-miterlimit="10"/></g><g transform="translate(-6,-102) scale(1,1)"><path fill="none" stroke="#000000" d="M 124.19104119318183 992.84 L 142.57067755681817 992.84" stroke-miterlimit="10"/></g><g transform="translate(-6,-102) scale(1,1)"><path fill="none" stroke="#000000" d="M 133.380859375 1003.64 L 120.61722301136365 1021" stroke-miterlimit="10"/></g><g transform="translate(-6,-102) scale(1,1)"><path fill="none" stroke="#000000" d="M 133.380859375 1003.64 L 146.14449573863635 1021" stroke-miterlimit="10"/></g><g transform="translate(-6,-102) scale(1,1)"><g><path fill="none" stroke="none"/><text fill="#000000" stroke="none" font-family="Arial" font-size="13px" font-style="normal" font-weight="bold" text-decoration="none" x="102.305908203125" y="1041.5">Passenger</text></g></g><g transform="translate(-6,-102) scale(1,1)"><path fill="none" stroke="#000000" d="M 134 967 L 137 848" stroke-miterlimit="10"/></g><g transform="translate(-6,-102) scale(1,1)"><path fill="#FFFFFF" stroke="none" d="M 144.90412041136057 868.5310711002303 L 137 848 L 128.07139754219202 868.1067167421841"/></g><g transform="translate(-6,-102) scale(1,1)"><path fill="none" stroke="#000000" d="M 144.90412041136057 868.5310711002303 L 137 848 L 128.07139754219202 868.1067167421841 L 144.90412041136057 868.5310711002303" stroke-miterlimit="10"/></g><g transform="translate(-6,-102) scale(1,1)"><path fill="#C0C0C0" stroke="none" d="M 263 1176 C 263 1166.6111584 292.7730608 1159 329.5 1159 C 366.2269392 1159 396 1166.6111584 396 1176 C 396 1185.3888416 366.2269392 1193 329.5 1193 C 292.7730608 1193 263 1185.3888416 263 1176 Z" opacity="0.2"/></g><g transform="translate(-6,-102) scale(1,1)"><path fill="#ffffff" stroke="none" d="M 256 1169 C 256 1159.6111584 285.7730608 1152 322.5 1152 C 359.2269392 1152 389 1159.6111584 389 1169 C 389 1178.3888416 359.2269392 1186 322.5 1186 C 285.7730608 1186 256 1178.3888416 256 1169 Z"/></g><g transform="translate(-6,-102) scale(1,1)"><path fill="none" stroke="#000000" d="M 256 1169 C 256 1159.6111584 285.7730608 1152 322.5 1152 C 359.2269392 1152 389 1159.6111584 389 1169 C 389 1178.3888416 359.2269392 1186 322.5 1186 C 285.7730608 1186 256 1178.3888416 256 1169 Z" stroke-miterlimit="10"/></g><g transform="translate(-6,-102) scale(1,1)"><g><path fill="none" stroke="none"/><text fill="#000000" stroke="none" font-family="Arial" font-size="13px" font-style="normal" font-weight="bold" text-decoration="none" x="288.905029296875" y="1176">Report Taxi</text></g></g><g transform="translate(-6,-102) scale(1,1)"><path fill="none" stroke="#000000" d="M 172 1040 L 301 1151" stroke-miterlimit="10"/></g><g transform="translate(-6,-102) scale(1,1)"><path fill="none" stroke="#000000" d="M 290.55095803026177 1147.562337725336 L 301 1151 L 296.0422058721394 1141.180617260451" stroke-miterlimit="10"/></g><g transform="translate(-6,-102) scale(1,1)"><path fill="#C0C0C0" stroke="none" d="M 239 928 C 239 918.6111584 299.6654096 911 374.5 911 C 449.3345904 911 510 918.6111584 510 928 C 510 937.3888416 449.3345904 945 374.5 945 C 299.6654096 945 239 937.3888416 239 928 Z" opacity="0.2"/></g><g transform="translate(-6,-102) scale(1,1)"><path fill="#ffffff" stroke="none" d="M 232 921 C 232 911.6111584 292.6654096 904 367.5 904 C 442.3345904 904 503 911.6111584 503 921 C 503 930.3888416 442.3345904 938 367.5 938 C 292.6654096 938 232 930.3888416 232 921 Z"/></g><g transform="translate(-6,-102) scale(1,1)"><path fill="none" stroke="#000000" d="M 232 921 C 232 911.6111584 292.6654096 904 367.5 904 C 442.3345904 904 503 911.6111584 503 921 C 503 930.3888416 442.3345904 938 367.5 938 C 292.6654096 938 232 930.3888416 232 921 Z" stroke-miterlimit="10"/></g><g transform="translate(-6,-102) scale(1,1)"><g><path fill="none" stroke="none"/><text fill="#000000" stroke="none" font-family="Arial" font-size="13px" font-style="normal" font-weight="bold" text-decoration="none" x="280.42919921875" y="928">Manage reserve Taxi Request</text></g></g><g transform="translate(-6,-102) scale(1,1)"><path fill="none" stroke="#000000" d="M 175 825 L 331 903" stroke-miterlimit="10"/></g><g transform="translate(-6,-102) scale(1,1)"><path fill="none" stroke="#000000" d="M 320.02767370306094 902.2202207790025 L 331 903 L 323.7927808450386 894.6900064950472" stroke-miterlimit="10"/></g><g transform="translate(-6,-102) scale(1,1)"><path fill="#C0C0C0" stroke="none" d="M 623 944 C 623 934.6111584 664.8613712 927 716.5 927 C 768.1386288 927 810 934.6111584 810 944 C 810 953.3888416 768.1386288 961 716.5 961 C 664.8613712 961 623 953.3888416 623 944 Z" opacity="0.2"/></g><g transform="translate(-6,-102) scale(1,1)"><path fill="#ffffff" stroke="none" d="M 616 937 C 616 927.6111584 657.8613712 920 709.5 920 C 761.1386288 920 803 927.6111584 803 937 C 803 946.3888416 761.1386288 954 709.5 954 C 657.8613712 954 616 946.3888416 616 937 Z"/></g><g transform="translate(-6,-102) scale(1,1)"><path fill="none" stroke="#000000" d="M 616 937 C 616 927.6111584 657.8613712 920 709.5 920 C 761.1386288 920 803 927.6111584 803 937 C 803 946.3888416 761.1386288 954 709.5 954 C 657.8613712 954 616 946.3888416 616 937 Z" stroke-miterlimit="10"/></g><g transform="translate(-6,-102) scale(1,1)"><g><path fill="none" stroke="none"/><text fill="#000000" stroke="none" font-family="Arial" font-size="13px" font-style="normal" font-weight="bold" text-decoration="none" x="650.609619140625" y="944">Delete Taxi Request</text></g></g><g transform="translate(-6,-102) scale(1,1)"><path fill="none" stroke="#000000" d="M 615 933 L 504 927" stroke-miterlimit="10" stroke-dasharray="3"/></g><g transform="translate(-6,-102) scale(1,1)"><path fill="none" stroke="#000000" d="M 514.3750702619119 923.3451515680686 L 504 927 L 513.9206506479126 931.751914427057" stroke-miterlimit="10"/></g><g transform="translate(-6,-102) scale(1,1)"><g><path fill="none" stroke="none"/><text fill="#000000" stroke="none" font-family="Arial" font-size="13px" font-style="normal" font-weight="normal" text-decoration="none" x="544" y="955">«extend»</text></g></g><g transform="translate(-6,-102) scale(1,1)"><path fill="#C0C0C0" stroke="none" d="M 575 1096 C 575 1086.6111584 617.7568016 1079 670.5 1079 C 723.2431984 1079 766 1086.6111584 766 1096 C 766 1105.3888416 723.2431984 1113 670.5 1113 C 617.7568016 1113 575 1105.3888416 575 1096 Z" opacity="0.2"/></g><g transform="translate(-6,-102) scale(1,1)"><path fill="#ffffff" stroke="none" d="M 568 1089 C 568 1079.6111584 610.7568016 1072 663.5 1072 C 716.2431984 1072 759 1079.6111584 759 1089 C 759 1098.3888416 716.2431984 1106 663.5 1106 C 610.7568016 1106 568 1098.3888416 568 1089 Z"/></g><g transform="translate(-6,-102) scale(1,1)"><path fill="none" stroke="#000000" d="M 568 1089 C 568 1079.6111584 610.7568016 1072 663.5 1072 C 716.2431984 1072 759 1079.6111584 759 1089 C 759 1098.3888416 716.2431984 1106 663.5 1106 C 610.7568016 1106 568 1098.3888416 568 1089 Z" stroke-miterlimit="10"/></g><g transform="translate(-6,-102) scale(1,1)"><g><path fill="none" stroke="none"/><text fill="#000000" stroke="none" font-family="Arial" font-size="13px" font-style="normal" font-weight="bold" text-decoration="none" x="604.254150390625" y="1096">Modify Taxi Request</text></g></g><g transform="translate(-6,-102) scale(1,1)"><path fill="none" stroke="#000000" d="M 631 1071 L 399 939" stroke-miterlimit="10" stroke-dasharray="3"/></g><g transform="translate(-6,-102) scale(1,1)"><path fill="none" stroke="#000000" d="M 409.91473803088667 940.3669285705978 L 399 939 L 405.75132081484736 947.6844497381819" stroke-miterlimit="10"/></g><g transform="translate(-6,-102) scale(1,1)"><g><path fill="none" stroke="none"/><text fill="#000000" stroke="none" font-family="Arial" font-size="13px" font-style="normal" font-weight="normal" text-decoration="none" x="474" y="1038">«extend»</text></g></g><g transform="translate(-6,-102) scale(1,1)"><path fill="#ffffff" stroke="none" d="M 32.40935031960227 585.6800000000001 C 32.40935031960227 580.8861679360001 36.295192644547726 577 41.088623046875 577 C 45.882053449202274 577 49.76789577414773 580.8861679360001 49.76789577414773 585.6800000000001 C 49.76789577414773 590.473832064 45.882053449202274 594.36 41.088623046875 594.36 C 36.295192644547726 594.36 32.40935031960227 590.473832064 32.40935031960227 585.6800000000001 Z"/></g><g transform="translate(-6,-102) scale(1,1)"><path fill="none" stroke="#000000" d="M 32.40935031960227 585.6800000000001 C 32.40935031960227 580.8861679360001 36.295192644547726 577 41.088623046875 577 C 45.882053449202274 577 49.76789577414773 580.8861679360001 49.76789577414773 585.6800000000001 C 49.76789577414773 590.473832064 45.882053449202274 594.36 41.088623046875 594.36 C 36.295192644547726 594.36 32.40935031960227 590.473832064 32.40935031960227 585.6800000000001 Z" stroke-miterlimit="10"/></g><g transform="translate(-6,-102) scale(1,1)"><path fill="none" stroke="#000000" d="M 41.088623046875 594.36 L 41.088623046875 611.64" stroke-miterlimit="10"/></g><g transform="translate(-6,-102) scale(1,1)"><path fill="none" stroke="#000000" d="M 31.898804865056817 600.84 L 50.27844122869318 600.84" stroke-miterlimit="10"/></g><g transform="translate(-6,-102) scale(1,1)"><path fill="none" stroke="#000000" d="M 41.088623046875 611.64 L 28.324986683238635 629" stroke-miterlimit="10"/></g><g transform="translate(-6,-102) scale(1,1)"><path fill="none" stroke="#000000" d="M 41.088623046875 611.64 L 53.852259410511365 629" stroke-miterlimit="10"/></g><g transform="translate(-6,-102) scale(1,1)"><g><path fill="none" stroke="none"/><text fill="#000000" stroke="none" font-family="Arial" font-size="13px" font-style="normal" font-weight="bold" text-decoration="none" x="27.364990234375" y="649.5">User</text></g></g><g transform="translate(-6,-102) scale(1,1)"><path fill="none" stroke="#000000" d="M 129 488 L 67 577" stroke-miterlimit="10"/></g><g transform="translate(-6,-102) scale(1,1)"><path fill="#FFFFFF" stroke="none" d="M 71.70999914961067 555.5100975337098 L 67 577 L 85.52612809902391 565.1348165771212"/></g><g transform="translate(-6,-102) scale(1,1)"><path fill="none" stroke="#000000" d="M 71.70999914961067 555.5100975337098 L 67 577 L 85.52612809902391 565.1348165771212 L 71.70999914961067 555.5100975337098" stroke-miterlimit="10"/></g><g transform="translate(-6,-102) scale(1,1)"><path fill="none" stroke="#000000" d="M 118 767 L 62 656" stroke-miterlimit="10"/></g><g transform="translate(-6,-102) scale(1,1)"><path fill="#FFFFFF" stroke="none" d="M 78.67172964760933 670.3545613153807 L 62 656 L 63.63848544086959 677.9389007349971"/></g><g transform="translate(-6,-102) scale(1,1)"><path fill="none" stroke="#000000" d="M 78.67172964760933 670.3545613153807 L 62 656 L 63.63848544086959 677.9389007349971 L 78.67172964760933 670.3545613153807" stroke-miterlimit="10"/></g><g transform="translate(-6,-102) scale(1,1)"><path fill="none" stroke="#000000" d="M 67 615 L 103 616" stroke-miterlimit="10"/></g><g transform="translate(-6,-102) scale(1,1)"><path fill="none" stroke="#000000" d="M 92.72435769733333 619.9257069767938 L 103 616 L 92.95812962249484 611.5099176709792" stroke-miterlimit="10"/></g><g transform="translate(-6,-102) scale(1,1)"><path fill="#C0C0C0" stroke="none" d="M 455 152 C 455 142.6111584 495.7420832 135 546 135 C 596.2579168 135 637 142.6111584 637 152 C 637 161.3888416 596.2579168 169 546 169 C 495.7420832 169 455 161.3888416 455 152 Z" opacity="0.2"/></g><g transform="translate(-6,-102) scale(1,1)"><path fill="#ffffff" stroke="none" d="M 448 145 C 448 135.6111584 488.7420832 128 539 128 C 589.2579168 128 630 135.6111584 630 145 C 630 154.3888416 589.2579168 162 539 162 C 488.7420832 162 448 154.3888416 448 145 Z"/></g><g transform="translate(-6,-102) scale(1,1)"><path fill="none" stroke="#000000" d="M 448 145 C 448 135.6111584 488.7420832 128 539 128 C 589.2579168 128 630 135.6111584 630 145 C 630 154.3888416 589.2579168 162 539 162 C 488.7420832 162 448 154.3888416 448 145 Z" stroke-miterlimit="10"/></g><g transform="translate(-6,-102) scale(1,1)"><g><path fill="none" stroke="none"/><text fill="#000000" stroke="none" font-family="Arial" font-size="13px" font-style="normal" font-weight="bold" text-decoration="none" x="483.00732421875" y="152">Password Retrieval</text></g></g><g transform="translate(-6,-102) scale(1,1)"><path fill="none" stroke="#000000" d="M 447 138 L 366 133" stroke-miterlimit="10" stroke-dasharray="3"/></g><g transform="translate(-6,-102) scale(1,1)"><path fill="none" stroke="#000000" d="M 376.40272123934807 129.42461319345495 L 366 133 L 375.8840149874093 137.8276544748634" stroke-miterlimit="10"/></g><g transform="translate(-6,-102) scale(1,1)"><g><path fill="none" stroke="none"/><text fill="#000000" stroke="none" font-family="Arial" font-size="13px" font-style="normal" font-weight="normal" text-decoration="none" x="378" y="171">«extend»</text></g></g></g></svg>