<svg version="1.1" xmlns="http://www.w3.org/2000/svg" xmlns:xlink="http://www.w3.org/1999/xlink" width="1213" height="1396"><defs/><g><g transform="translate(-77,-46) scale(1,1)"><rect fill="#C0C0C0" stroke="none" x="380" y="1359" width="198" height="80" opacity="0.2"/></g><g transform="translate(-77,-46) scale(1,1)"><rect fill="#ffffff" stroke="none" x="373" y="1352" width="198" height="80"/></g><g transform="translate(-77,-46) scale(1,1)"><path fill="none" stroke="#000000" d="M 373 1352 L 571 1352 L 571 1432 L 373 1432 L 373 1352 Z Z" stroke-miterlimit="10"/></g><g transform="translate(-77,-46) scale(1,1)"><rect fill="#ffffff" stroke="none" x="363" y="1359" width="20" height="10"/></g><g transform="translate(-77,-46) scale(1,1)"><path fill="none" stroke="#000000" d="M 363 1359 L 383 1359 L 383 1369 L 363 1369 L 363 1359 Z Z" stroke-miterlimit="10"/></g><g transform="translate(-77,-46) scale(1,1)"><rect fill="#ffffff" stroke="none" x="363" y="1379" width="20" height="10"/></g><g transform="translate(-77,-46) scale(1,1)"><path fill="none" stroke="#000000" d="M 363 1379 L 383 1379 L 383 1389 L 363 1389 L 363 1379 Z Z" stroke-miterlimit="10"/></g><g transform="translate(-77,-46) scale(1,1)"><g><path fill="none" stroke="none"/><text fill="#000000" stroke="none" font-family="Arial" font-size="13px" font-style="normal" font-weight="bold" text-decoration="none" x="415.221435546875" y="1371.5">Customer mobile app</text></g></g><g transform="translate(-77,-46) scale(1,1)"><rect fill="#C0C0C0" stroke="none" x="104" y="1215" width="198" height="80" opacity="0.2"/></g><g transform="translate(-77,-46) scale(1,1)"><rect fill="#ffffff" stroke="none" x="97" y="1208" width="198" height="80"/></g><g transform="translate(-77,-46) scale(1,1)"><path fill="none" stroke="#000000" d="M 97 1208 L 295 1208 L 295 1288 L 97 1288 L 97 1208 Z Z" stroke-miterlimit="10"/></g><g transform="translate(-77,-46) scale(1,1)"><rect fill="#ffffff" stroke="none" x="87" y="1215" width="20" height="10"/></g><g transform="translate(-77,-46) scale(1,1)"><path fill="none" stroke="#000000" d="M 87 1215 L 107 1215 L 107 1225 L 87 1225 L 87 1215 Z Z" stroke-miterlimit="10"/></g><g transform="translate(-77,-46) scale(1,1)"><rect fill="#ffffff" stroke="none" x="87" y="1235" width="20" height="10"/></g><g transform="translate(-77,-46) scale(1,1)"><path fill="none" stroke="#000000" d="M 87 1235 L 107 1235 L 107 1245 L 87 1245 L 87 1235 Z Z" stroke-miterlimit="10"/></g><g transform="translate(-77,-46) scale(1,1)"><g><path fill="none" stroke="none"/><text fill="#000000" stroke="none" font-family="Arial" font-size="13px" font-style="normal" font-weight="bold" text-decoration="none" x="146.445068359375" y="1227.5">Customer web app</text></g></g><g transform="translate(-77,-46) scale(1,1)"><rect fill="#C0C0C0" stroke="none" x="665" y="1215" width="189" height="79" opacity="0.2"/></g><g transform="translate(-77,-46) scale(1,1)"><rect fill="#ffffff" stroke="none" x="658" y="1208" width="189" height="79"/></g><g transform="translate(-77,-46) scale(1,1)"><path fill="none" stroke="#000000" d="M 658 1208 L 847 1208 L 847 1287 L 658 1287 L 658 1208 Z Z" stroke-miterlimit="10"/></g><g transform="translate(-77,-46) scale(1,1)"><rect fill="#ffffff" stroke="none" x="648" y="1215" width="20" height="10"/></g><g transform="translate(-77,-46) scale(1,1)"><path fill="none" stroke="#000000" d="M 648 1215 L 668 1215 L 668 1225 L 648 1225 L 648 1215 Z Z" stroke-miterlimit="10"/></g><g transform="translate(-77,-46) scale(1,1)"><rect fill="#ffffff" stroke="none" x="648" y="1235" width="20" height="10"/></g><g transform="translate(-77,-46) scale(1,1)"><path fill="none" stroke="#000000" d="M 648 1235 L 668 1235 L 668 1245 L 648 1245 L 648 1235 Z Z" stroke-miterlimit="10"/></g><g transform="translate(-77,-46) scale(1,1)"><g><path fill="none" stroke="none"/><text fill="#000000" stroke="none" font-family="Arial" font-size="13px" font-style="normal" font-weight="bold" text-decoration="none" x="711.615966796875" y="1227.5">Taxi mobile app</text></g></g><g transform="translate(-77,-46) scale(1,1)"><path fill="#C0C0C0" stroke="none" d="M 462.7099609375 986.5 C 462.7099609375 980.1487248 467.8586857375 975 474.2099609375 975 C 480.5612361375 975 485.7099609375 980.1487248 485.7099609375 986.5 C 485.7099609375 992.8512752 480.5612361375 998 474.2099609375 998 C 467.8586857375 998 462.7099609375 992.8512752 462.7099609375 986.5 Z" opacity="0.2"/></g><g transform="translate(-77,-46) scale(1,1)"><path fill="#ffffff" stroke="none" d="M 455.7099609375 979.5 C 455.7099609375 973.1487248 460.8586857375 968 467.2099609375 968 C 473.5612361375 968 478.7099609375 973.1487248 478.7099609375 979.5 C 478.7099609375 985.8512752 473.5612361375 991 467.2099609375 991 C 460.8586857375 991 455.7099609375 985.8512752 455.7099609375 979.5 Z"/></g><g transform="translate(-77,-46) scale(1,1)"><path fill="none" stroke="#000000" d="M 455.7099609375 979.5 C 455.7099609375 973.1487248 460.8586857375 968 467.2099609375 968 C 473.5612361375 968 478.7099609375 973.1487248 478.7099609375 979.5 C 478.7099609375 985.8512752 473.5612361375 991 467.2099609375 991 C 460.8586857375 991 455.7099609375 985.8512752 455.7099609375 979.5 Z" stroke-miterlimit="10"/></g><g transform="translate(-77,-46) scale(1,1)"><g><path fill="none" stroke="none"/><text fill="#000000" stroke="none" font-family="Arial" font-size="13px" font-style="normal" font-weight="bold" text-decoration="none" x="445.904052734375" y="1010.5">HTTPS</text></g></g><g transform="translate(-77,-46) scale(1,1)"><path fill="none" stroke="#000000" d="M 467 1351 L 467 991" stroke-miterlimit="10"/></g><g transform="translate(-77,-46) scale(1,1)"><path fill="none" stroke="#000000" d="M 235 1207 L 458.4736842105263 991" stroke-miterlimit="10"/></g><g transform="translate(-77,-46) scale(1,1)"><path fill="none" stroke="#000000" d="M 703 1207 L 475.5263157894737 991" stroke-miterlimit="10"/></g><g transform="translate(-77,-46) scale(1,1)"><rect fill="#C0C0C0" stroke="none" x="384" y="799" width="190" height="88" opacity="0.2"/></g><g transform="translate(-77,-46) scale(1,1)"><rect fill="#ffffff" stroke="none" x="377" y="792" width="190" height="88"/></g><g transform="translate(-77,-46) scale(1,1)"><path fill="none" stroke="#000000" d="M 377 792 L 567 792 L 567 880 L 377 880 L 377 792 Z Z" stroke-miterlimit="10"/></g><g transform="translate(-77,-46) scale(1,1)"><rect fill="#ffffff" stroke="none" x="367" y="799" width="20" height="10"/></g><g transform="translate(-77,-46) scale(1,1)"><path fill="none" stroke="#000000" d="M 367 799 L 387 799 L 387 809 L 367 809 L 367 799 Z Z" stroke-miterlimit="10"/></g><g transform="translate(-77,-46) scale(1,1)"><rect fill="#ffffff" stroke="none" x="367" y="819" width="20" height="10"/></g><g transform="translate(-77,-46) scale(1,1)"><path fill="none" stroke="#000000" d="M 367 819 L 387 819 L 387 829 L 367 829 L 367 819 Z Z" stroke-miterlimit="10"/></g><g transform="translate(-77,-46) scale(1,1)"><g><path fill="none" stroke="none"/><text fill="#000000" stroke="none" font-family="Arial" font-size="13px" font-style="normal" font-weight="bold" text-decoration="none" x="440.516845703125" y="811.5">RESTful API</text></g></g><g transform="translate(-77,-46) scale(1,1)"><path fill="none" stroke="#000000" d="M 467 881 L 467 968" stroke-miterlimit="10"/></g><g transform="translate(-77,-46) scale(1,1)"><rect fill="#C0C0C0" stroke="none" x="320" y="277" width="206" height="96" opacity="0.2"/></g><g transform="translate(-77,-46) scale(1,1)"><rect fill="#ffffff" stroke="none" x="313" y="270" width="206" height="96"/></g><g transform="translate(-77,-46) scale(1,1)"><path fill="none" stroke="#000000" d="M 313 270 L 519 270 L 519 366 L 313 366 L 313 270 Z Z" stroke-miterlimit="10"/></g><g transform="translate(-77,-46) scale(1,1)"><rect fill="#ffffff" stroke="none" x="303" y="277" width="20" height="10"/></g><g transform="translate(-77,-46) scale(1,1)"><path fill="none" stroke="#000000" d="M 303 277 L 323 277 L 323 287 L 303 287 L 303 277 Z Z" stroke-miterlimit="10"/></g><g transform="translate(-77,-46) scale(1,1)"><rect fill="#ffffff" stroke="none" x="303" y="297" width="20" height="10"/></g><g transform="translate(-77,-46) scale(1,1)"><path fill="none" stroke="#000000" d="M 303 297 L 323 297 L 323 307 L 303 307 L 303 297 Z Z" stroke-miterlimit="10"/></g><g transform="translate(-77,-46) scale(1,1)"><g><path fill="none" stroke="none"/><text fill="#000000" stroke="none" font-family="Arial" font-size="13px" font-style="normal" font-weight="bold" text-decoration="none" x="361.385986328125" y="289.5">Notification manager</text></g></g><g transform="translate(-77,-46) scale(1,1)"><rect fill="#C0C0C0" stroke="none" x="321" y="479" width="205" height="103" opacity="0.2"/></g><g transform="translate(-77,-46) scale(1,1)"><rect fill="#ffffff" stroke="none" x="314" y="472" width="205" height="103"/></g><g transform="translate(-77,-46) scale(1,1)"><path fill="none" stroke="#000000" d="M 314 472 L 519 472 L 519 575 L 314 575 L 314 472 Z Z" stroke-miterlimit="10"/></g><g transform="translate(-77,-46) scale(1,1)"><rect fill="#ffffff" stroke="none" x="304" y="479" width="20" height="10"/></g><g transform="translate(-77,-46) scale(1,1)"><path fill="none" stroke="#000000" d="M 304 479 L 324 479 L 324 489 L 304 489 L 304 479 Z Z" stroke-miterlimit="10"/></g><g transform="translate(-77,-46) scale(1,1)"><rect fill="#ffffff" stroke="none" x="304" y="499" width="20" height="10"/></g><g transform="translate(-77,-46) scale(1,1)"><path fill="none" stroke="#000000" d="M 304 499 L 324 499 L 324 509 L 304 509 L 304 499 Z Z" stroke-miterlimit="10"/></g><g transform="translate(-77,-46) scale(1,1)"><g><path fill="none" stroke="none"/><text fill="#000000" stroke="none" font-family="Arial" font-size="13px" font-style="normal" font-weight="bold" text-decoration="none" x="374.524169921875" y="491.5">Queue manager</text></g></g><g transform="translate(-77,-46) scale(1,1)"><rect fill="#C0C0C0" stroke="none" x="324" y="63" width="198" height="103" opacity="0.2"/></g><g transform="translate(-77,-46) scale(1,1)"><rect fill="#ffffff" stroke="none" x="317" y="56" width="198" height="103"/></g><g transform="translate(-77,-46) scale(1,1)"><path fill="none" stroke="#000000" d="M 317 56 L 515 56 L 515 159 L 317 159 L 317 56 Z Z" stroke-miterlimit="10"/></g><g transform="translate(-77,-46) scale(1,1)"><rect fill="#ffffff" stroke="none" x="307" y="63" width="20" height="10"/></g><g transform="translate(-77,-46) scale(1,1)"><path fill="none" stroke="#000000" d="M 307 63 L 327 63 L 327 73 L 307 73 L 307 63 Z Z" stroke-miterlimit="10"/></g><g transform="translate(-77,-46) scale(1,1)"><rect fill="#ffffff" stroke="none" x="307" y="83" width="20" height="10"/></g><g transform="translate(-77,-46) scale(1,1)"><path fill="none" stroke="#000000" d="M 307 83 L 327 83 L 327 93 L 307 93 L 307 83 Z Z" stroke-miterlimit="10"/></g><g transform="translate(-77,-46) scale(1,1)"><g><path fill="none" stroke="none"/><text fill="#000000" stroke="none" font-family="Arial" font-size="13px" font-style="normal" font-weight="bold" text-decoration="none" x="380.171875" y="75.5">Ride manager</text></g></g><g transform="translate(-77,-46) scale(1,1)"><path fill="#C0C0C0" stroke="none" d="M 150.7099609375 322.5 C 150.7099609375 316.1487248 155.8586857375 311 162.2099609375 311 C 168.5612361375 311 173.7099609375 316.1487248 173.7099609375 322.5 C 173.7099609375 328.8512752 168.5612361375 334 162.2099609375 334 C 155.8586857375 334 150.7099609375 328.8512752 150.7099609375 322.5 Z" opacity="0.2"/></g><g transform="translate(-77,-46) scale(1,1)"><path fill="#ffffff" stroke="none" d="M 143.7099609375 315.5 C 143.7099609375 309.1487248 148.8586857375 304 155.2099609375 304 C 161.5612361375 304 166.7099609375 309.1487248 166.7099609375 315.5 C 166.7099609375 321.8512752 161.5612361375 327 155.2099609375 327 C 148.8586857375 327 143.7099609375 321.8512752 143.7099609375 315.5 Z"/></g><g transform="translate(-77,-46) scale(1,1)"><path fill="none" stroke="#000000" d="M 143.7099609375 315.5 C 143.7099609375 309.1487248 148.8586857375 304 155.2099609375 304 C 161.5612361375 304 166.7099609375 309.1487248 166.7099609375 315.5 C 166.7099609375 321.8512752 161.5612361375 327 155.2099609375 327 C 148.8586857375 327 143.7099609375 321.8512752 143.7099609375 315.5 Z" stroke-miterlimit="10"/></g><g transform="translate(-77,-46) scale(1,1)"><g><path fill="none" stroke="none"/><text fill="#000000" stroke="none" font-family="Arial" font-size="13px" font-style="normal" font-weight="bold" text-decoration="none" x="141.483154296875" y="346.5">SOA</text></g></g><g transform="translate(-77,-46) scale(1,1)"><path fill="none" stroke="#000000" d="M 381 791 L 152 672 L 155 327" stroke-miterlimit="10"/></g><g transform="translate(-77,-46) scale(1,1)"><path fill="none" stroke="#000000" d="M 302 322 L 166.7099609375 318.9033203125" stroke-miterlimit="10"/></g><g transform="translate(-77,-46) scale(1,1)"><path fill="none" stroke="#000000" d="M 343 471 L 165.42105263157896 327" stroke-miterlimit="10"/></g><g transform="translate(-77,-46) scale(1,1)"><path fill="none" stroke="#000000" d="M 350 160 L 166.7099609375 310.1544989224138" stroke-miterlimit="10"/></g><g transform="translate(-77,-46) scale(1,1)"><rect fill="#C0C0C0" stroke="none" x="729" y="271" width="197" height="95" opacity="0.2"/></g><g transform="translate(-77,-46) scale(1,1)"><rect fill="#ffffff" stroke="none" x="722" y="264" width="197" height="95"/></g><g transform="translate(-77,-46) scale(1,1)"><path fill="none" stroke="#000000" d="M 722 264 L 919 264 L 919 359 L 722 359 L 722 264 Z Z" stroke-miterlimit="10"/></g><g transform="translate(-77,-46) scale(1,1)"><rect fill="#ffffff" stroke="none" x="712" y="271" width="20" height="10"/></g><g transform="translate(-77,-46) scale(1,1)"><path fill="none" stroke="#000000" d="M 712 271 L 732 271 L 732 281 L 712 281 L 712 271 Z Z" stroke-miterlimit="10"/></g><g transform="translate(-77,-46) scale(1,1)"><rect fill="#ffffff" stroke="none" x="712" y="291" width="20" height="10"/></g><g transform="translate(-77,-46) scale(1,1)"><path fill="none" stroke="#000000" d="M 712 291 L 732 291 L 732 301 L 712 301 L 712 291 Z Z" stroke-miterlimit="10"/></g><g transform="translate(-77,-46) scale(1,1)"><g><path fill="none" stroke="none"/><text fill="#000000" stroke="none" font-family="Arial" font-size="13px" font-style="normal" font-weight="bold" text-decoration="none" x="806.720458984375" y="283.5">DBMS</text></g></g><g transform="translate(-77,-46) scale(1,1)"><path fill="#C0C0C0" stroke="none" d="M 614.7099609375 330.5 C 614.7099609375 324.1487248 619.8586857375 319 626.2099609375 319 C 632.5612361375 319 637.7099609375 324.1487248 637.7099609375 330.5 C 637.7099609375 336.8512752 632.5612361375 342 626.2099609375 342 C 619.8586857375 342 614.7099609375 336.8512752 614.7099609375 330.5 Z" opacity="0.2"/></g><g transform="translate(-77,-46) scale(1,1)"><path fill="#ffffff" stroke="none" d="M 607.7099609375 323.5 C 607.7099609375 317.1487248 612.8586857375 312 619.2099609375 312 C 625.5612361375 312 630.7099609375 317.1487248 630.7099609375 323.5 C 630.7099609375 329.8512752 625.5612361375 335 619.2099609375 335 C 612.8586857375 335 607.7099609375 329.8512752 607.7099609375 323.5 Z"/></g><g transform="translate(-77,-46) scale(1,1)"><path fill="none" stroke="#000000" d="M 607.7099609375 323.5 C 607.7099609375 317.1487248 612.8586857375 312 619.2099609375 312 C 625.5612361375 312 630.7099609375 317.1487248 630.7099609375 323.5 C 630.7099609375 329.8512752 625.5612361375 335 619.2099609375 335 C 612.8586857375 335 607.7099609375 329.8512752 607.7099609375 323.5 Z" stroke-miterlimit="10"/></g><g transform="translate(-77,-46) scale(1,1)"><g><path fill="none" stroke="none"/><text fill="#000000" stroke="none" font-family="Arial" font-size="13px" font-style="normal" font-weight="bold" text-decoration="none" x="602.236328125" y="354.5">JDBC</text></g></g><g transform="translate(-77,-46) scale(1,1)"><path fill="none" stroke="#000000" d="M 520 327 L 607.7099609375 326.13612196180554" stroke-miterlimit="10"/></g><g transform="translate(-77,-46) scale(1,1)"><path fill="none" stroke="#000000" d="M 711 324 L 630.7099609375 325.6022135416667" stroke-miterlimit="10"/></g><g transform="translate(-77,-46) scale(1,1)"><path fill="none" stroke="#000000" d="M 459 160 L 607.7099609375 317.1095448369565" stroke-miterlimit="10"/></g><g transform="translate(-77,-46) scale(1,1)"><path fill="none" stroke="#000000" d="M 469 471 L 610.1578947368421 335" stroke-miterlimit="10"/></g><g transform="translate(-77,-46) scale(1,1)"><rect fill="#C0C0C0" stroke="none" x="107" y="799" width="190" height="88" opacity="0.2"/></g><g transform="translate(-77,-46) scale(1,1)"><rect fill="#ffffff" stroke="none" x="100" y="792" width="190" height="88"/></g><g transform="translate(-77,-46) scale(1,1)"><path fill="none" stroke="#000000" d="M 100 792 L 290 792 L 290 880 L 100 880 L 100 792 Z Z" stroke-miterlimit="10"/></g><g transform="translate(-77,-46) scale(1,1)"><rect fill="#ffffff" stroke="none" x="90" y="799" width="20" height="10"/></g><g transform="translate(-77,-46) scale(1,1)"><path fill="none" stroke="#000000" d="M 90 799 L 110 799 L 110 809 L 90 809 L 90 799 Z Z" stroke-miterlimit="10"/></g><g transform="translate(-77,-46) scale(1,1)"><rect fill="#ffffff" stroke="none" x="90" y="819" width="20" height="10"/></g><g transform="translate(-77,-46) scale(1,1)"><path fill="none" stroke="#000000" d="M 90 819 L 110 819 L 110 829 L 90 829 L 90 819 Z Z" stroke-miterlimit="10"/></g><g transform="translate(-77,-46) scale(1,1)"><g><path fill="none" stroke="none"/><text fill="#000000" stroke="none" font-family="Arial" font-size="13px" font-style="normal" font-weight="bold" text-decoration="none" x="163.504150390625" y="811.5">Presentation</text></g></g><g transform="translate(-77,-46) scale(1,1)"><path fill="#C0C0C0" stroke="none" d="M 185.7099609375 978.5 C 185.7099609375 972.1487248 190.8586857375 967 197.2099609375 967 C 203.5612361375 967 208.7099609375 972.1487248 208.7099609375 978.5 C 208.7099609375 984.8512752 203.5612361375 990 197.2099609375 990 C 190.8586857375 990 185.7099609375 984.8512752 185.7099609375 978.5 Z" opacity="0.2"/></g><g transform="translate(-77,-46) scale(1,1)"><path fill="#ffffff" stroke="none" d="M 178.7099609375 971.5 C 178.7099609375 965.1487248 183.8586857375 960 190.2099609375 960 C 196.5612361375 960 201.7099609375 965.1487248 201.7099609375 971.5 C 201.7099609375 977.8512752 196.5612361375 983 190.2099609375 983 C 183.8586857375 983 178.7099609375 977.8512752 178.7099609375 971.5 Z"/></g><g transform="translate(-77,-46) scale(1,1)"><path fill="none" stroke="#000000" d="M 178.7099609375 971.5 C 178.7099609375 965.1487248 183.8586857375 960 190.2099609375 960 C 196.5612361375 960 201.7099609375 965.1487248 201.7099609375 971.5 C 201.7099609375 977.8512752 196.5612361375 983 190.2099609375 983 C 183.8586857375 983 178.7099609375 977.8512752 178.7099609375 971.5 Z" stroke-miterlimit="10"/></g><g transform="translate(-77,-46) scale(1,1)"><g><path fill="none" stroke="none"/><text fill="#000000" stroke="none" font-family="Arial" font-size="13px" font-style="normal" font-weight="bold" text-decoration="none" x="168.904052734375" y="1002.5">HTTPS</text></g></g><g transform="translate(-77,-46) scale(1,1)"><path fill="none" stroke="#000000" d="M 191 1207 L 190 983" stroke-miterlimit="10"/></g><g transform="translate(-77,-46) scale(1,1)"><path fill="none" stroke="#000000" d="M 190 881 L 190 960" stroke-miterlimit="10"/></g><g transform="translate(-77,-46) scale(1,1)"><rect fill="#C0C0C0" stroke="none" x="1089" y="278" width="198" height="96" opacity="0.2"/></g><g transform="translate(-77,-46) scale(1,1)"><rect fill="#ffffff" stroke="none" x="1082" y="271" width="198" height="96"/></g><g transform="translate(-77,-46) scale(1,1)"><path fill="none" stroke="#000000" d="M 1082 271 L 1280 271 L 1280 367 L 1082 367 L 1082 271 Z Z" stroke-miterlimit="10"/></g><g transform="translate(-77,-46) scale(1,1)"><rect fill="#ffffff" stroke="none" x="1072" y="278" width="20" height="10"/></g><g transform="translate(-77,-46) scale(1,1)"><path fill="none" stroke="#000000" d="M 1072 278 L 1092 278 L 1092 288 L 1072 288 L 1072 278 Z Z" stroke-miterlimit="10"/></g><g transform="translate(-77,-46) scale(1,1)"><rect fill="#ffffff" stroke="none" x="1072" y="298" width="20" height="10"/></g><g transform="translate(-77,-46) scale(1,1)"><path fill="none" stroke="#000000" d="M 1072 298 L 1092 298 L 1092 308 L 1072 308 L 1072 298 Z Z" stroke-miterlimit="10"/></g><g transform="translate(-77,-46) scale(1,1)"><g><path fill="none" stroke="none"/><text fill="#000000" stroke="none" font-family="Arial" font-size="13px" font-style="normal" font-weight="bold" text-decoration="none" x="1126.385986328125" y="290.5">Notification manager</text></g></g><g transform="translate(-77,-46) scale(1,1)"><path fill="#C0C0C0" stroke="none" d="M 990.7099609375 313.5 C 990.7099609375 307.1487248 995.8586857375 302 1002.2099609375 302 C 1008.5612361375 302 1013.7099609375 307.1487248 1013.7099609375 313.5 C 1013.7099609375 319.8512752 1008.5612361375 325 1002.2099609375 325 C 995.8586857375 325 990.7099609375 319.8512752 990.7099609375 313.5 Z" opacity="0.2"/></g><g transform="translate(-77,-46) scale(1,1)"><path fill="#ffffff" stroke="none" d="M 983.7099609375 306.5 C 983.7099609375 300.1487248 988.8586857375 295 995.2099609375 295 C 1001.5612361375 295 1006.7099609375 300.1487248 1006.7099609375 306.5 C 1006.7099609375 312.8512752 1001.5612361375 318 995.2099609375 318 C 988.8586857375 318 983.7099609375 312.8512752 983.7099609375 306.5 Z"/></g><g transform="translate(-77,-46) scale(1,1)"><path fill="none" stroke="#000000" d="M 983.7099609375 306.5 C 983.7099609375 300.1487248 988.8586857375 295 995.2099609375 295 C 1001.5612361375 295 1006.7099609375 300.1487248 1006.7099609375 306.5 C 1006.7099609375 312.8512752 1001.5612361375 318 995.2099609375 318 C 988.8586857375 318 983.7099609375 312.8512752 983.7099609375 306.5 Z" stroke-miterlimit="10"/></g><g transform="translate(-77,-46) scale(1,1)"><g><path fill="none" stroke="none"/><text fill="#000000" stroke="none" font-family="Arial" font-size="13px" font-style="normal" font-weight="bold" text-decoration="none" x="966.674072265625" y="337.5">PUB SUB</text></g></g><g transform="translate(-77,-46) scale(1,1)"><path fill="none" stroke="#000000" d="M 516 106 L 992 104 L 995 295" stroke-miterlimit="10"/></g><g transform="translate(-77,-46) scale(1,1)"><path fill="none" stroke="#000000" d="M 520 524 L 992 528 L 995 318" stroke-miterlimit="10"/></g><g transform="translate(-77,-46) scale(1,1)"><path fill="none" stroke="#000000" d="M 1071 319 L 1006.7099609375 310.2285970052083" stroke-miterlimit="10"/></g><g transform="translate(-77,-46) scale(1,1)"><path fill="#C0C0C0" stroke="none" d="M 1176.107666015625 834.5 C 1176.107666015625 828.1487248 1181.256390815625 823 1187.607666015625 823 C 1193.958941215625 823 1199.107666015625 828.1487248 1199.107666015625 834.5 C 1199.107666015625 840.8512752 1193.958941215625 846 1187.607666015625 846 C 1181.256390815625 846 1176.107666015625 840.8512752 1176.107666015625 834.5 Z" opacity="0.2"/></g><g transform="translate(-77,-46) scale(1,1)"><path fill="#ffffff" stroke="none" d="M 1169.107666015625 827.5 C 1169.107666015625 821.1487248 1174.256390815625 816 1180.607666015625 816 C 1186.958941215625 816 1192.107666015625 821.1487248 1192.107666015625 827.5 C 1192.107666015625 833.8512752 1186.958941215625 839 1180.607666015625 839 C 1174.256390815625 839 1169.107666015625 833.8512752 1169.107666015625 827.5 Z"/></g><g transform="translate(-77,-46) scale(1,1)"><path fill="none" stroke="#000000" d="M 1169.107666015625 827.5 C 1169.107666015625 821.1487248 1174.256390815625 816 1180.607666015625 816 C 1186.958941215625 816 1192.107666015625 821.1487248 1192.107666015625 827.5 C 1192.107666015625 833.8512752 1186.958941215625 839 1180.607666015625 839 C 1174.256390815625 839 1169.107666015625 833.8512752 1169.107666015625 827.5 Z" stroke-miterlimit="10"/></g><g transform="translate(-77,-46) scale(1,1)"><g><path fill="none" stroke="none"/><text fill="#000000" stroke="none" font-family="Arial" font-size="13px" font-style="normal" font-weight="bold" text-decoration="none" x="1143.397705078125" y="858.5">Push service</text></g></g><g transform="translate(-77,-46) scale(1,1)"><path fill="none" stroke="#000000" d="M 1176 368 L 1180 816" stroke-miterlimit="10"/></g><g transform="translate(-77,-46) scale(1,1)"><path fill="none" stroke="#000000" d="M 790 1207 L 1171.4736842105262 839" stroke-miterlimit="10"/></g><g transform="translate(-77,-46) scale(1,1)"><path fill="none" stroke="#000000" d="M 572 1392 L 1176 1392 L 1180 839" stroke-miterlimit="10"/></g></g></svg>