<svg version="1.1" xmlns="http://www.w3.org/2000/svg" xmlns:xlink="http://www.w3.org/1999/xlink" width="1221" height="1341"><defs/><g><g transform="translate(-45,-69) scale(1,1)"><path fill="#C0C0C0" stroke="none" d="M 62 96 L 572 96 L 572 406 L 62 406" opacity="0.2"/></g><g transform="translate(-45,-69) scale(1,1)"><path fill="#C0C0C0" stroke="none" d="M 62 96 L 72 86 L 582 86 L 572 96" opacity="0.2"/></g><g transform="translate(-45,-69) scale(1,1)"><path fill="#C0C0C0" stroke="none" d="M 582 86 L 572 96 L 572 406 L 582 396" opacity="0.2"/></g><g transform="translate(-45,-69) scale(1,1)"><path fill="#ffffff" stroke="none" d="M 55 89 L 565 89 L 565 399 L 55 399"/></g><g transform="translate(-45,-69) scale(1,1)"><path fill="#ffffff" stroke="none" d="M 55 89 L 65 79 L 575 79 L 565 89"/></g><g transform="translate(-45,-69) scale(1,1)"><path fill="#ffffff" stroke="none" d="M 575 79 L 565 89 L 565 399 L 575 389"/></g><g transform="translate(-45,-69) scale(1,1)"><path fill="none" stroke="#000000" d="M 55 89 L 565 89 L 565 399 L 55 399 L 55 89" stroke-miterlimit="10"/></g><g transform="translate(-45,-69) scale(1,1)"><path fill="none" stroke="#000000" d="M 55 89 L 65 79 L 575 79 L 565 89 L 55 89" stroke-miterlimit="10"/></g><g transform="translate(-45,-69) scale(1,1)"><path fill="none" stroke="#000000" d="M 575 79 L 565 89 L 565 399 L 575 389 L 575 79" stroke-miterlimit="10"/></g><g transform="translate(-45,-69) scale(1,1)"><g><path fill="none" stroke="none"/><text fill="#000000" stroke="none" font-family="Arial" font-size="13px" font-style="normal" font-weight="normal" text-decoration="none" x="284.48095703125" y="106.5">«device»</text></g></g><g transform="translate(-45,-69) scale(1,1)"><g><path fill="none" stroke="none"/><text fill="#000000" stroke="none" font-family="Arial" font-size="13px" font-style="normal" font-weight="bold" text-decoration="none" x="258.845947265625" y="121.5">Main Server array</text></g></g><g transform="translate(-45,-69) scale(1,1)"><path fill="#C0C0C0" stroke="none" d="M 158 753 L 475 753 L 475 926 L 158 926" opacity="0.2"/></g><g transform="translate(-45,-69) scale(1,1)"><path fill="#C0C0C0" stroke="none" d="M 158 753 L 168 743 L 485 743 L 475 753" opacity="0.2"/></g><g transform="translate(-45,-69) scale(1,1)"><path fill="#C0C0C0" stroke="none" d="M 485 743 L 475 753 L 475 926 L 485 916" opacity="0.2"/></g><g transform="translate(-45,-69) scale(1,1)"><path fill="#ffffff" stroke="none" d="M 151 746 L 468 746 L 468 919 L 151 919"/></g><g transform="translate(-45,-69) scale(1,1)"><path fill="#ffffff" stroke="none" d="M 151 746 L 161 736 L 478 736 L 468 746"/></g><g transform="translate(-45,-69) scale(1,1)"><path fill="#ffffff" stroke="none" d="M 478 736 L 468 746 L 468 919 L 478 909"/></g><g transform="translate(-45,-69) scale(1,1)"><path fill="none" stroke="#000000" d="M 151 746 L 468 746 L 468 919 L 151 919 L 151 746" stroke-miterlimit="10"/></g><g transform="translate(-45,-69) scale(1,1)"><path fill="none" stroke="#000000" d="M 151 746 L 161 736 L 478 736 L 468 746 L 151 746" stroke-miterlimit="10"/></g><g transform="translate(-45,-69) scale(1,1)"><path fill="none" stroke="#000000" d="M 478 736 L 468 746 L 468 919 L 478 909 L 478 736" stroke-miterlimit="10"/></g><g transform="translate(-45,-69) scale(1,1)"><g><path fill="none" stroke="none"/><text fill="#000000" stroke="none" font-family="Arial" font-size="13px" font-style="normal" font-weight="normal" text-decoration="none" x="283.98095703125" y="763.5">«device»</text></g></g><g transform="translate(-45,-69) scale(1,1)"><g><path fill="none" stroke="none"/><text fill="#000000" stroke="none" font-family="Arial" font-size="13px" font-style="normal" font-weight="bold" text-decoration="none" x="276.77001953125" y="778.5">Web server</text></g></g><g transform="translate(-45,-69) scale(1,1)"><path fill="#C0C0C0" stroke="none" d="M 300.639501953125 815 L 328.079501953125 815 L 339.83950195312497 826.76 L 339.83950195312497 864 L 300.639501953125 864" opacity="0.2"/></g><g transform="translate(-45,-69) scale(1,1)"><path fill="#ffffff" stroke="none" d="M 293.639501953125 808 L 321.07950195312503 808 L 332.839501953125 819.76 L 332.839501953125 857 L 293.639501953125 857"/></g><g transform="translate(-45,-69) scale(1,1)"><path fill="none" stroke="#000000" d="M 293.639501953125 808 L 321.07950195312503 808 L 332.839501953125 819.76 L 332.839501953125 857 L 293.639501953125 857 L 293.639501953125 808" stroke-miterlimit="10"/></g><g transform="translate(-45,-69) scale(1,1)"><path fill="none" stroke="#000000" d="M 321.07950195312503 808 L 321.07950195312503 819.76 L 332.839501953125 819.76 L 321.07950195312503 808" stroke-miterlimit="10"/></g><g transform="translate(-45,-69) scale(1,1)"><g><path fill="none" stroke="none"/><text fill="#000000" stroke="none" font-family="Arial" font-size="13px" font-style="normal" font-weight="bold" text-decoration="none" x="273.128662109375" y="876.5">Presenetation</text><path fill="none" stroke="#000000" d="M 356.225830078125 876.5 L 270.253173828125 876.5" stroke-miterlimit="10"/></g></g><g transform="translate(-45,-69) scale(1,1)"><path fill="#C0C0C0" stroke="none" d="M 196.639501953125 815 L 224.07950195312503 815 L 235.83950195312502 826.76 L 235.83950195312502 864 L 196.639501953125 864" opacity="0.2"/></g><g transform="translate(-45,-69) scale(1,1)"><path fill="#ffffff" stroke="none" d="M 189.63950195312498 808 L 217.079501953125 808 L 228.83950195312502 819.76 L 228.83950195312502 857 L 189.63950195312498 857"/></g><g transform="translate(-45,-69) scale(1,1)"><path fill="none" stroke="#000000" d="M 189.63950195312498 808 L 217.079501953125 808 L 228.83950195312502 819.76 L 228.83950195312502 857 L 189.63950195312498 857 L 189.63950195312498 808" stroke-miterlimit="10"/></g><g transform="translate(-45,-69) scale(1,1)"><path fill="none" stroke="#000000" d="M 217.079501953125 808 L 217.079501953125 819.76 L 228.83950195312502 819.76 L 217.079501953125 808" stroke-miterlimit="10"/></g><g transform="translate(-45,-69) scale(1,1)"><g><path fill="none" stroke="none"/><text fill="#000000" stroke="none" font-family="Arial" font-size="13px" font-style="normal" font-weight="bold" text-decoration="none" x="165.1455078125" y="876.5">Load balancing</text><path fill="none" stroke="#000000" d="M 256.910400390625 876.5 L 161.568603515625 876.5" stroke-miterlimit="10"/></g></g><g transform="translate(-45,-69) scale(1,1)"><path fill="#C0C0C0" stroke="none" d="M 79 156 L 548 156 L 548 345 L 79 345" opacity="0.2"/></g><g transform="translate(-45,-69) scale(1,1)"><path fill="#C0C0C0" stroke="none" d="M 79 156 L 89 146 L 558 146 L 548 156" opacity="0.2"/></g><g transform="translate(-45,-69) scale(1,1)"><path fill="#C0C0C0" stroke="none" d="M 558 146 L 548 156 L 548 345 L 558 335" opacity="0.2"/></g><g transform="translate(-45,-69) scale(1,1)"><path fill="#ffffff" stroke="none" d="M 72 149 L 541 149 L 541 338 L 72 338"/></g><g transform="translate(-45,-69) scale(1,1)"><path fill="#ffffff" stroke="none" d="M 72 149 L 82 139 L 551 139 L 541 149"/></g><g transform="translate(-45,-69) scale(1,1)"><path fill="#ffffff" stroke="none" d="M 551 139 L 541 149 L 541 338 L 551 328"/></g><g transform="translate(-45,-69) scale(1,1)"><path fill="none" stroke="#000000" d="M 72 149 L 541 149 L 541 338 L 72 338 L 72 149" stroke-miterlimit="10"/></g><g transform="translate(-45,-69) scale(1,1)"><path fill="none" stroke="#000000" d="M 72 149 L 82 139 L 551 139 L 541 149 L 72 149" stroke-miterlimit="10"/></g><g transform="translate(-45,-69) scale(1,1)"><path fill="none" stroke="#000000" d="M 551 139 L 541 149 L 541 338 L 551 328 L 551 139" stroke-miterlimit="10"/></g><g transform="translate(-45,-69) scale(1,1)"><g><path fill="none" stroke="none"/><text fill="#000000" stroke="none" font-family="Arial" font-size="13px" font-style="normal" font-weight="normal" text-decoration="none" x="234.3701171875" y="166.5">«execution environment»</text></g></g><g transform="translate(-45,-69) scale(1,1)"><g><path fill="none" stroke="none"/><text fill="#000000" stroke="none" font-family="Arial" font-size="13px" font-style="normal" font-weight="bold" text-decoration="none" x="294.720458984375" y="181.5">JRE</text></g></g><g transform="translate(-45,-69) scale(1,1)"><path fill="#C0C0C0" stroke="none" d="M 220.639501953125 215 L 248.07950195312503 215 L 259.839501953125 226.76 L 259.839501953125 264 L 220.639501953125 264" opacity="0.2"/></g><g transform="translate(-45,-69) scale(1,1)"><path fill="#ffffff" stroke="none" d="M 213.63950195312498 208 L 241.079501953125 208 L 252.83950195312502 219.76000000000002 L 252.83950195312502 257 L 213.63950195312498 257"/></g><g transform="translate(-45,-69) scale(1,1)"><path fill="none" stroke="#000000" d="M 213.63950195312498 208 L 241.079501953125 208 L 252.83950195312502 219.76000000000002 L 252.83950195312502 257 L 213.63950195312498 257 L 213.63950195312498 208" stroke-miterlimit="10"/></g><g transform="translate(-45,-69) scale(1,1)"><path fill="none" stroke="#000000" d="M 241.079501953125 208 L 241.079501953125 219.76000000000002 L 252.83950195312502 219.76000000000002 L 241.079501953125 208" stroke-miterlimit="10"/></g><g transform="translate(-45,-69) scale(1,1)"><g><path fill="none" stroke="none"/><text fill="#000000" stroke="none" font-family="Arial" font-size="13px" font-style="normal" font-weight="bold" text-decoration="none" x="186.263671875" y="276.5">Queue manager</text><path fill="none" stroke="#000000" d="M 282.3671875 276.5 L 184.11181640625 276.5" stroke-miterlimit="10"/></g></g><g transform="translate(-45,-69) scale(1,1)"><path fill="#C0C0C0" stroke="none" d="M 324.639501953125 215 L 352.079501953125 215 L 363.83950195312497 226.76 L 363.83950195312497 264 L 324.639501953125 264" opacity="0.2"/></g><g transform="translate(-45,-69) scale(1,1)"><path fill="#ffffff" stroke="none" d="M 317.639501953125 208 L 345.07950195312503 208 L 356.839501953125 219.76000000000002 L 356.839501953125 257 L 317.639501953125 257"/></g><g transform="translate(-45,-69) scale(1,1)"><path fill="none" stroke="#000000" d="M 317.639501953125 208 L 345.07950195312503 208 L 356.839501953125 219.76000000000002 L 356.839501953125 257 L 317.639501953125 257 L 317.639501953125 208" stroke-miterlimit="10"/></g><g transform="translate(-45,-69) scale(1,1)"><path fill="none" stroke="#000000" d="M 345.07950195312503 208 L 345.07950195312503 219.76000000000002 L 356.839501953125 219.76000000000002 L 345.07950195312503 208" stroke-miterlimit="10"/></g><g transform="translate(-45,-69) scale(1,1)"><g><path fill="none" stroke="none"/><text fill="#000000" stroke="none" font-family="Arial" font-size="13px" font-style="normal" font-weight="bold" text-decoration="none" x="296.411376953125" y="276.5">Ride manager</text><path fill="none" stroke="#000000" d="M 380.225830078125 276.5 L 294.253173828125 276.5" stroke-miterlimit="10"/></g></g><g transform="translate(-45,-69) scale(1,1)"><path fill="#C0C0C0" stroke="none" d="M 289 561 L 345.4072265625 561 L 345.4072265625 594 L 289 594" opacity="0.2"/></g><g transform="translate(-45,-69) scale(1,1)"><path fill="#C0C0C0" stroke="none" d="M 289 561 L 299 551 L 355.4072265625 551 L 345.4072265625 561" opacity="0.2"/></g><g transform="translate(-45,-69) scale(1,1)"><path fill="#C0C0C0" stroke="none" d="M 355.4072265625 551 L 345.4072265625 561 L 345.4072265625 594 L 355.4072265625 584" opacity="0.2"/></g><g transform="translate(-45,-69) scale(1,1)"><path fill="#ffffff" stroke="none" d="M 282 554 L 338.4072265625 554 L 338.4072265625 587 L 282 587"/></g><g transform="translate(-45,-69) scale(1,1)"><path fill="#ffffff" stroke="none" d="M 282 554 L 292 544 L 348.4072265625 544 L 338.4072265625 554"/></g><g transform="translate(-45,-69) scale(1,1)"><path fill="#ffffff" stroke="none" d="M 348.4072265625 544 L 338.4072265625 554 L 338.4072265625 587 L 348.4072265625 577"/></g><g transform="translate(-45,-69) scale(1,1)"><path fill="none" stroke="#000000" d="M 282 554 L 338.4072265625 554 L 338.4072265625 587 L 282 587 L 282 554" stroke-miterlimit="10"/></g><g transform="translate(-45,-69) scale(1,1)"><path fill="none" stroke="#000000" d="M 282 554 L 292 544 L 348.4072265625 544 L 338.4072265625 554 L 282 554" stroke-miterlimit="10"/></g><g transform="translate(-45,-69) scale(1,1)"><path fill="none" stroke="#000000" d="M 348.4072265625 544 L 338.4072265625 554 L 338.4072265625 587 L 348.4072265625 577 L 348.4072265625 544" stroke-miterlimit="10"/></g><g transform="translate(-45,-69) scale(1,1)"><g><path fill="none" stroke="none"/><text fill="#000000" stroke="none" font-family="Arial" font-size="13px" font-style="normal" font-weight="bold" text-decoration="none" x="288.312255859375" y="573.5">Firewall</text></g></g><g transform="translate(-45,-69) scale(1,1)"><path fill="none" stroke="#000000" d="M 315 401 L 315 543" stroke-miterlimit="10"/></g><g transform="translate(-45,-69) scale(1,1)"><g><path fill="none" stroke="none"/><text fill="#000000" stroke="none" font-family="Arial" font-size="13px" font-style="normal" font-weight="normal" text-decoration="none" x="319" y="485">+SOA</text></g></g><g transform="translate(-45,-69) scale(1,1)"><path fill="none" stroke="#000000" d="M 315 589 L 315 735" stroke-miterlimit="10"/></g><g transform="translate(-45,-69) scale(1,1)"><g><path fill="none" stroke="none"/><text fill="#000000" stroke="none" font-family="Arial" font-size="13px" font-style="normal" font-weight="normal" text-decoration="none" x="320" y="661">+SOA</text></g></g><g transform="translate(-45,-69) scale(1,1)"><path fill="#C0C0C0" stroke="none" d="M 718 96 L 1251 96 L 1251 405 L 718 405" opacity="0.2"/></g><g transform="translate(-45,-69) scale(1,1)"><path fill="#C0C0C0" stroke="none" d="M 718 96 L 728 86 L 1261 86 L 1251 96" opacity="0.2"/></g><g transform="translate(-45,-69) scale(1,1)"><path fill="#C0C0C0" stroke="none" d="M 1261 86 L 1251 96 L 1251 405 L 1261 395" opacity="0.2"/></g><g transform="translate(-45,-69) scale(1,1)"><path fill="#ffffff" stroke="none" d="M 711 89 L 1244 89 L 1244 398 L 711 398"/></g><g transform="translate(-45,-69) scale(1,1)"><path fill="#ffffff" stroke="none" d="M 711 89 L 721 79 L 1254 79 L 1244 89"/></g><g transform="translate(-45,-69) scale(1,1)"><path fill="#ffffff" stroke="none" d="M 1254 79 L 1244 89 L 1244 398 L 1254 388"/></g><g transform="translate(-45,-69) scale(1,1)"><path fill="none" stroke="#000000" d="M 711 89 L 1244 89 L 1244 398 L 711 398 L 711 89" stroke-miterlimit="10"/></g><g transform="translate(-45,-69) scale(1,1)"><path fill="none" stroke="#000000" d="M 711 89 L 721 79 L 1254 79 L 1244 89 L 711 89" stroke-miterlimit="10"/></g><g transform="translate(-45,-69) scale(1,1)"><path fill="none" stroke="#000000" d="M 1254 79 L 1244 89 L 1244 398 L 1254 388 L 1254 79" stroke-miterlimit="10"/></g><g transform="translate(-45,-69) scale(1,1)"><g><path fill="none" stroke="none"/><text fill="#000000" stroke="none" font-family="Arial" font-size="13px" font-style="normal" font-weight="normal" text-decoration="none" x="951.98095703125" y="106.5">«device»</text></g></g><g transform="translate(-45,-69) scale(1,1)"><g><path fill="none" stroke="none"/><text fill="#000000" stroke="none" font-family="Arial" font-size="13px" font-style="normal" font-weight="bold" text-decoration="none" x="915.161376953125" y="121.5">Primary DBMS server</text></g></g><g transform="translate(-45,-69) scale(1,1)"><path fill="#C0C0C0" stroke="none" d="M 758 160 L 1211 160 L 1211 341 L 758 341" opacity="0.2"/></g><g transform="translate(-45,-69) scale(1,1)"><path fill="#C0C0C0" stroke="none" d="M 758 160 L 768 150 L 1221 150 L 1211 160" opacity="0.2"/></g><g transform="translate(-45,-69) scale(1,1)"><path fill="#C0C0C0" stroke="none" d="M 1221 150 L 1211 160 L 1211 341 L 1221 331" opacity="0.2"/></g><g transform="translate(-45,-69) scale(1,1)"><path fill="#ffffff" stroke="none" d="M 751 153 L 1204 153 L 1204 334 L 751 334"/></g><g transform="translate(-45,-69) scale(1,1)"><path fill="#ffffff" stroke="none" d="M 751 153 L 761 143 L 1214 143 L 1204 153"/></g><g transform="translate(-45,-69) scale(1,1)"><path fill="#ffffff" stroke="none" d="M 1214 143 L 1204 153 L 1204 334 L 1214 324"/></g><g transform="translate(-45,-69) scale(1,1)"><path fill="none" stroke="#000000" d="M 751 153 L 1204 153 L 1204 334 L 751 334 L 751 153" stroke-miterlimit="10"/></g><g transform="translate(-45,-69) scale(1,1)"><path fill="none" stroke="#000000" d="M 751 153 L 761 143 L 1214 143 L 1204 153 L 751 153" stroke-miterlimit="10"/></g><g transform="translate(-45,-69) scale(1,1)"><path fill="none" stroke="#000000" d="M 1214 143 L 1204 153 L 1204 334 L 1214 324 L 1214 143" stroke-miterlimit="10"/></g><g transform="translate(-45,-69) scale(1,1)"><g><path fill="none" stroke="none"/><text fill="#000000" stroke="none" font-family="Arial" font-size="13px" font-style="normal" font-weight="normal" text-decoration="none" x="905.3701171875" y="170.5">«execution environment»</text></g></g><g transform="translate(-45,-69) scale(1,1)"><g><path fill="none" stroke="none"/><text fill="#000000" stroke="none" font-family="Arial" font-size="13px" font-style="normal" font-weight="bold" text-decoration="none" x="959.220458984375" y="185.5">DBMS</text></g></g><g transform="translate(-45,-69) scale(1,1)"><path fill="#C0C0C0" stroke="none" d="M 852.639501953125 223 L 880.079501953125 223 L 891.839501953125 234.76000000000002 L 891.839501953125 272 L 852.639501953125 272" opacity="0.2"/></g><g transform="translate(-45,-69) scale(1,1)"><path fill="#ffffff" stroke="none" d="M 845.639501953125 216 L 873.079501953125 216 L 884.839501953125 227.76000000000002 L 884.839501953125 265 L 845.639501953125 265"/></g><g transform="translate(-45,-69) scale(1,1)"><path fill="none" stroke="#000000" d="M 845.639501953125 216 L 873.079501953125 216 L 884.839501953125 227.76000000000002 L 884.839501953125 265 L 845.639501953125 265 L 845.639501953125 216" stroke-miterlimit="10"/></g><g transform="translate(-45,-69) scale(1,1)"><path fill="none" stroke="#000000" d="M 873.079501953125 216 L 873.079501953125 227.76000000000002 L 884.839501953125 227.76000000000002 L 873.079501953125 216" stroke-miterlimit="10"/></g><g transform="translate(-45,-69) scale(1,1)"><g><path fill="none" stroke="none"/><text fill="#000000" stroke="none" font-family="Arial" font-size="13px" font-style="normal" font-weight="bold" text-decoration="none" x="826.950439453125" y="284.5">User schema</text><path fill="none" stroke="#000000" d="M 905.708984375 284.5 L 824.77001953125 284.5" stroke-miterlimit="10"/></g></g><g transform="translate(-45,-69) scale(1,1)"><path fill="#C0C0C0" stroke="none" d="M 116.639501953125 215 L 144.07950195312503 215 L 155.83950195312502 226.76 L 155.83950195312502 264 L 116.639501953125 264" opacity="0.2"/></g><g transform="translate(-45,-69) scale(1,1)"><path fill="#ffffff" stroke="none" d="M 109.63950195312499 208 L 137.079501953125 208 L 148.83950195312502 219.76000000000002 L 148.83950195312502 257 L 109.63950195312499 257"/></g><g transform="translate(-45,-69) scale(1,1)"><path fill="none" stroke="#000000" d="M 109.63950195312499 208 L 137.079501953125 208 L 148.83950195312502 219.76000000000002 L 148.83950195312502 257 L 109.63950195312499 257 L 109.63950195312499 208" stroke-miterlimit="10"/></g><g transform="translate(-45,-69) scale(1,1)"><path fill="none" stroke="#000000" d="M 137.079501953125 208 L 137.079501953125 219.76000000000002 L 148.83950195312502 219.76000000000002 L 137.079501953125 208" stroke-miterlimit="10"/></g><g transform="translate(-45,-69) scale(1,1)"><g><path fill="none" stroke="none"/><text fill="#000000" stroke="none" font-family="Arial" font-size="13px" font-style="normal" font-weight="bold" text-decoration="none" x="88.055908203125" y="276.5">User manager</text><path fill="none" stroke="#000000" d="M 172.593994140625 276.5 L 85.885009765625 276.5" stroke-miterlimit="10"/></g></g><g transform="translate(-45,-69) scale(1,1)"><path fill="none" stroke="#000000" d="M 577 239 L 710 239" stroke-miterlimit="10"/></g><g transform="translate(-45,-69) scale(1,1)"><g><path fill="none" stroke="none"/><text fill="#000000" stroke="none" font-family="Arial" font-size="13px" font-style="normal" font-weight="normal" text-decoration="none" x="623" y="231">+JDBC</text></g></g><g transform="translate(-45,-69) scale(1,1)"><path fill="#C0C0C0" stroke="none" d="M 964.639501953125 223 L 992.079501953125 223 L 1003.839501953125 234.76000000000002 L 1003.839501953125 272 L 964.639501953125 272" opacity="0.2"/></g><g transform="translate(-45,-69) scale(1,1)"><path fill="#ffffff" stroke="none" d="M 957.639501953125 216 L 985.079501953125 216 L 996.839501953125 227.76000000000002 L 996.839501953125 265 L 957.639501953125 265"/></g><g transform="translate(-45,-69) scale(1,1)"><path fill="none" stroke="#000000" d="M 957.639501953125 216 L 985.079501953125 216 L 996.839501953125 227.76000000000002 L 996.839501953125 265 L 957.639501953125 265 L 957.639501953125 216" stroke-miterlimit="10"/></g><g transform="translate(-45,-69) scale(1,1)"><path fill="none" stroke="#000000" d="M 985.079501953125 216 L 985.079501953125 227.76000000000002 L 996.839501953125 227.76000000000002 L 985.079501953125 216" stroke-miterlimit="10"/></g><g transform="translate(-45,-69) scale(1,1)"><g><path fill="none" stroke="none"/><text fill="#000000" stroke="none" font-family="Arial" font-size="13px" font-style="normal" font-weight="bold" text-decoration="none" x="933.16455078125" y="284.5">Report schema</text><path fill="none" stroke="#000000" d="M 1024.199462890625 284.5 L 930.279541015625 284.5" stroke-miterlimit="10"/></g></g><g transform="translate(-45,-69) scale(1,1)"><path fill="#ffffff" stroke="none" d="M 520 504 L 637 504 L 647 514 L 647 566 L 520 566 L 520 504"/></g><g transform="translate(-45,-69) scale(1,1)"><path fill="none" stroke="#000000" d="M 520 504 L 637 504 L 647 514 L 647 566 L 520 566 L 520 504 L 520 504" stroke-miterlimit="10"/></g><g transform="translate(-45,-69) scale(1,1)"><path fill="none" stroke="#000000" d="M 637 504 L 637 514 L 647 514 L 637 504" stroke-miterlimit="10"/></g><g transform="translate(-45,-69) scale(1,1)"><g><path fill="none" stroke="none"/><text fill="#000000" stroke="none" font-family="Arial" font-size="13px" font-style="normal" font-weight="normal" text-decoration="none" x="525" y="522">This link is active</text><text fill="#000000" stroke="none" font-family="Arial" font-size="13px" font-style="normal" font-weight="normal" text-decoration="none" x="525" y="535">only if primary</text><text fill="#000000" stroke="none" font-family="Arial" font-size="13px" font-style="normal" font-weight="normal" text-decoration="none" x="525" y="548">DBMS is down</text></g></g><g transform="translate(-45,-69) scale(1,1)"><path fill="#C0C0C0" stroke="none" d="M 719 537 L 1252 537 L 1252 845 L 719 845" opacity="0.2"/></g><g transform="translate(-45,-69) scale(1,1)"><path fill="#C0C0C0" stroke="none" d="M 719 537 L 729 527 L 1262 527 L 1252 537" opacity="0.2"/></g><g transform="translate(-45,-69) scale(1,1)"><path fill="#C0C0C0" stroke="none" d="M 1262 527 L 1252 537 L 1252 845 L 1262 835" opacity="0.2"/></g><g transform="translate(-45,-69) scale(1,1)"><path fill="#ffffff" stroke="none" d="M 712 530 L 1245 530 L 1245 838 L 712 838"/></g><g transform="translate(-45,-69) scale(1,1)"><path fill="#ffffff" stroke="none" d="M 712 530 L 722 520 L 1255 520 L 1245 530"/></g><g transform="translate(-45,-69) scale(1,1)"><path fill="#ffffff" stroke="none" d="M 1255 520 L 1245 530 L 1245 838 L 1255 828"/></g><g transform="translate(-45,-69) scale(1,1)"><path fill="none" stroke="#000000" d="M 712 530 L 1245 530 L 1245 838 L 712 838 L 712 530" stroke-miterlimit="10"/></g><g transform="translate(-45,-69) scale(1,1)"><path fill="none" stroke="#000000" d="M 712 530 L 722 520 L 1255 520 L 1245 530 L 712 530" stroke-miterlimit="10"/></g><g transform="translate(-45,-69) scale(1,1)"><path fill="none" stroke="#000000" d="M 1255 520 L 1245 530 L 1245 838 L 1255 828 L 1255 520" stroke-miterlimit="10"/></g><g transform="translate(-45,-69) scale(1,1)"><g><path fill="none" stroke="none"/><text fill="#000000" stroke="none" font-family="Arial" font-size="13px" font-style="normal" font-weight="normal" text-decoration="none" x="952.98095703125" y="547.5">«device»</text></g></g><g transform="translate(-45,-69) scale(1,1)"><g><path fill="none" stroke="none"/><text fill="#000000" stroke="none" font-family="Arial" font-size="13px" font-style="normal" font-weight="bold" text-decoration="none" x="907.474609375" y="562.5">Secondary DBMS server</text></g></g><g transform="translate(-45,-69) scale(1,1)"><path fill="#C0C0C0" stroke="none" d="M 751 609 L 1204 609 L 1204 790 L 751 790" opacity="0.2"/></g><g transform="translate(-45,-69) scale(1,1)"><path fill="#C0C0C0" stroke="none" d="M 751 609 L 761 599 L 1214 599 L 1204 609" opacity="0.2"/></g><g transform="translate(-45,-69) scale(1,1)"><path fill="#C0C0C0" stroke="none" d="M 1214 599 L 1204 609 L 1204 790 L 1214 780" opacity="0.2"/></g><g transform="translate(-45,-69) scale(1,1)"><path fill="#ffffff" stroke="none" d="M 744 602 L 1197 602 L 1197 783 L 744 783"/></g><g transform="translate(-45,-69) scale(1,1)"><path fill="#ffffff" stroke="none" d="M 744 602 L 754 592 L 1207 592 L 1197 602"/></g><g transform="translate(-45,-69) scale(1,1)"><path fill="#ffffff" stroke="none" d="M 1207 592 L 1197 602 L 1197 783 L 1207 773"/></g><g transform="translate(-45,-69) scale(1,1)"><path fill="none" stroke="#000000" d="M 744 602 L 1197 602 L 1197 783 L 744 783 L 744 602" stroke-miterlimit="10"/></g><g transform="translate(-45,-69) scale(1,1)"><path fill="none" stroke="#000000" d="M 744 602 L 754 592 L 1207 592 L 1197 602 L 744 602" stroke-miterlimit="10"/></g><g transform="translate(-45,-69) scale(1,1)"><path fill="none" stroke="#000000" d="M 1207 592 L 1197 602 L 1197 783 L 1207 773 L 1207 592" stroke-miterlimit="10"/></g><g transform="translate(-45,-69) scale(1,1)"><g><path fill="none" stroke="none"/><text fill="#000000" stroke="none" font-family="Arial" font-size="13px" font-style="normal" font-weight="normal" text-decoration="none" x="898.3701171875" y="619.5">«execution environment»</text></g></g><g transform="translate(-45,-69) scale(1,1)"><g><path fill="none" stroke="none"/><text fill="#000000" stroke="none" font-family="Arial" font-size="13px" font-style="normal" font-weight="bold" text-decoration="none" x="952.220458984375" y="634.5">DBMS</text></g></g><g transform="translate(-45,-69) scale(1,1)"><path fill="#C0C0C0" stroke="none" d="M 839.639501953125 681 L 867.079501953125 681 L 878.839501953125 692.76 L 878.839501953125 730 L 839.639501953125 730" opacity="0.2"/></g><g transform="translate(-45,-69) scale(1,1)"><path fill="#ffffff" stroke="none" d="M 832.639501953125 674 L 860.079501953125 674 L 871.839501953125 685.76 L 871.839501953125 723 L 832.639501953125 723"/></g><g transform="translate(-45,-69) scale(1,1)"><path fill="none" stroke="#000000" d="M 832.639501953125 674 L 860.079501953125 674 L 871.839501953125 685.76 L 871.839501953125 723 L 832.639501953125 723 L 832.639501953125 674" stroke-miterlimit="10"/></g><g transform="translate(-45,-69) scale(1,1)"><path fill="none" stroke="#000000" d="M 860.079501953125 674 L 860.079501953125 685.76 L 871.839501953125 685.76 L 860.079501953125 674" stroke-miterlimit="10"/></g><g transform="translate(-45,-69) scale(1,1)"><g><path fill="none" stroke="none"/><text fill="#000000" stroke="none" font-family="Arial" font-size="13px" font-style="normal" font-weight="bold" text-decoration="none" x="813.950439453125" y="742.5">User schema</text><path fill="none" stroke="#000000" d="M 892.708984375 742.5 L 811.77001953125 742.5" stroke-miterlimit="10"/></g></g><g transform="translate(-45,-69) scale(1,1)"><path fill="#C0C0C0" stroke="none" d="M 964.639501953125 679 L 992.079501953125 679 L 1003.839501953125 690.76 L 1003.839501953125 728 L 964.639501953125 728" opacity="0.2"/></g><g transform="translate(-45,-69) scale(1,1)"><path fill="#ffffff" stroke="none" d="M 957.639501953125 672 L 985.079501953125 672 L 996.839501953125 683.76 L 996.839501953125 721 L 957.639501953125 721"/></g><g transform="translate(-45,-69) scale(1,1)"><path fill="none" stroke="#000000" d="M 957.639501953125 672 L 985.079501953125 672 L 996.839501953125 683.76 L 996.839501953125 721 L 957.639501953125 721 L 957.639501953125 672" stroke-miterlimit="10"/></g><g transform="translate(-45,-69) scale(1,1)"><path fill="none" stroke="#000000" d="M 985.079501953125 672 L 985.079501953125 683.76 L 996.839501953125 683.76 L 985.079501953125 672" stroke-miterlimit="10"/></g><g transform="translate(-45,-69) scale(1,1)"><g><path fill="none" stroke="none"/><text fill="#000000" stroke="none" font-family="Arial" font-size="13px" font-style="normal" font-weight="bold" text-decoration="none" x="933.16455078125" y="740.5">Report schema</text><path fill="none" stroke="#000000" d="M 1024.199462890625 740.5 L 930.279541015625 740.5" stroke-miterlimit="10"/></g></g><g transform="translate(-45,-69) scale(1,1)"><path fill="none" stroke="#000000" d="M 561 401 L 741 519" stroke-miterlimit="10"/></g><g transform="translate(-45,-69) scale(1,1)"><g><path fill="none" stroke="none"/><text fill="#000000" stroke="none" font-family="Arial" font-size="13px" font-style="normal" font-weight="normal" text-decoration="none" x="656" y="454">+JDBC</text></g></g><g transform="translate(-45,-69) scale(1,1)"><path fill="none" stroke="#000000" d="M 613 503 L 651 460" stroke-miterlimit="10" stroke-dasharray="3"/></g><g transform="translate(-45,-69) scale(1,1)"><path fill="none" stroke="#000000" d="M 983 400 L 984 519" stroke-miterlimit="10"/></g><g transform="translate(-45,-69) scale(1,1)"><g><path fill="none" stroke="none"/><text fill="#000000" stroke="none" font-family="Arial" font-size="13px" font-style="normal" font-weight="normal" text-decoration="none" x="991" y="461">+Backup and sync</text></g></g><g transform="translate(-45,-69) scale(1,1)"><path fill="#C0C0C0" stroke="none" d="M 287 1081 L 343.4072265625 1081 L 343.4072265625 1114 L 287 1114" opacity="0.2"/></g><g transform="translate(-45,-69) scale(1,1)"><path fill="#C0C0C0" stroke="none" d="M 287 1081 L 297 1071 L 353.4072265625 1071 L 343.4072265625 1081" opacity="0.2"/></g><g transform="translate(-45,-69) scale(1,1)"><path fill="#C0C0C0" stroke="none" d="M 353.4072265625 1071 L 343.4072265625 1081 L 343.4072265625 1114 L 353.4072265625 1104" opacity="0.2"/></g><g transform="translate(-45,-69) scale(1,1)"><path fill="#ffffff" stroke="none" d="M 280 1074 L 336.4072265625 1074 L 336.4072265625 1107 L 280 1107"/></g><g transform="translate(-45,-69) scale(1,1)"><path fill="#ffffff" stroke="none" d="M 280 1074 L 290 1064 L 346.4072265625 1064 L 336.4072265625 1074"/></g><g transform="translate(-45,-69) scale(1,1)"><path fill="#ffffff" stroke="none" d="M 346.4072265625 1064 L 336.4072265625 1074 L 336.4072265625 1107 L 346.4072265625 1097"/></g><g transform="translate(-45,-69) scale(1,1)"><path fill="none" stroke="#000000" d="M 280 1074 L 336.4072265625 1074 L 336.4072265625 1107 L 280 1107 L 280 1074" stroke-miterlimit="10"/></g><g transform="translate(-45,-69) scale(1,1)"><path fill="none" stroke="#000000" d="M 280 1074 L 290 1064 L 346.4072265625 1064 L 336.4072265625 1074 L 280 1074" stroke-miterlimit="10"/></g><g transform="translate(-45,-69) scale(1,1)"><path fill="none" stroke="#000000" d="M 346.4072265625 1064 L 336.4072265625 1074 L 336.4072265625 1107 L 346.4072265625 1097 L 346.4072265625 1064" stroke-miterlimit="10"/></g><g transform="translate(-45,-69) scale(1,1)"><g><path fill="none" stroke="none"/><text fill="#000000" stroke="none" font-family="Arial" font-size="13px" font-style="normal" font-weight="bold" text-decoration="none" x="286.312255859375" y="1093.5">Firewall</text></g></g><g transform="translate(-45,-69) scale(1,1)"><path fill="#C0C0C0" stroke="none" d="M 79 1265 L 548 1265 L 548 1406 L 79 1406" opacity="0.2"/></g><g transform="translate(-45,-69) scale(1,1)"><path fill="#C0C0C0" stroke="none" d="M 79 1265 L 89 1255 L 558 1255 L 548 1265" opacity="0.2"/></g><g transform="translate(-45,-69) scale(1,1)"><path fill="#C0C0C0" stroke="none" d="M 558 1255 L 548 1265 L 548 1406 L 558 1396" opacity="0.2"/></g><g transform="translate(-45,-69) scale(1,1)"><path fill="#ffffff" stroke="none" d="M 72 1258 L 541 1258 L 541 1399 L 72 1399"/></g><g transform="translate(-45,-69) scale(1,1)"><path fill="#ffffff" stroke="none" d="M 72 1258 L 82 1248 L 551 1248 L 541 1258"/></g><g transform="translate(-45,-69) scale(1,1)"><path fill="#ffffff" stroke="none" d="M 551 1248 L 541 1258 L 541 1399 L 551 1389"/></g><g transform="translate(-45,-69) scale(1,1)"><path fill="none" stroke="#000000" d="M 72 1258 L 541 1258 L 541 1399 L 72 1399 L 72 1258" stroke-miterlimit="10"/></g><g transform="translate(-45,-69) scale(1,1)"><path fill="none" stroke="#000000" d="M 72 1258 L 82 1248 L 551 1248 L 541 1258 L 72 1258" stroke-miterlimit="10"/></g><g transform="translate(-45,-69) scale(1,1)"><path fill="none" stroke="#000000" d="M 551 1248 L 541 1258 L 541 1399 L 551 1389 L 551 1248" stroke-miterlimit="10"/></g><g transform="translate(-45,-69) scale(1,1)"><g><path fill="none" stroke="none"/><text fill="#000000" stroke="none" font-family="Arial" font-size="13px" font-style="normal" font-weight="normal" text-decoration="none" x="280.98095703125" y="1275.5">«device»</text></g></g><g transform="translate(-45,-69) scale(1,1)"><g><path fill="none" stroke="none"/><text fill="#000000" stroke="none" font-family="Arial" font-size="13px" font-style="normal" font-weight="bold" text-decoration="none" x="262.56640625" y="1290.5">User side client</text></g></g><g transform="translate(-45,-69) scale(1,1)"><path fill="#C0C0C0" stroke="none" d="M 154.35361328125 1319 L 181.79361328125003 1319 L 193.55361328125002 1330.76 L 193.55361328125002 1368 L 154.35361328125 1368" opacity="0.2"/></g><g transform="translate(-45,-69) scale(1,1)"><path fill="#ffffff" stroke="none" d="M 147.35361328124998 1312 L 174.79361328125 1312 L 186.55361328125002 1323.76 L 186.55361328125002 1361 L 147.35361328124998 1361"/></g><g transform="translate(-45,-69) scale(1,1)"><path fill="none" stroke="#000000" d="M 147.35361328124998 1312 L 174.79361328125 1312 L 186.55361328125002 1323.76 L 186.55361328125002 1361 L 147.35361328124998 1361 L 147.35361328124998 1312" stroke-miterlimit="10"/></g><g transform="translate(-45,-69) scale(1,1)"><path fill="none" stroke="#000000" d="M 174.79361328125 1312 L 174.79361328125 1323.76 L 186.55361328125002 1323.76 L 174.79361328125 1312" stroke-miterlimit="10"/></g><g transform="translate(-45,-69) scale(1,1)"><g><path fill="none" stroke="none"/><text fill="#000000" stroke="none" font-family="Arial" font-size="13px" font-style="normal" font-weight="bold" text-decoration="none" x="105.175048828125" y="1380.5">Customer mobile app</text><path fill="none" stroke="#000000" d="M 233.4072265625 1380.5 L 100.5 1380.5" stroke-miterlimit="10"/></g></g><g transform="translate(-45,-69) scale(1,1)"><path fill="#C0C0C0" stroke="none" d="M 306.047705078125 1319 L 333.487705078125 1319 L 345.24770507812497 1330.76 L 345.24770507812497 1368 L 306.047705078125 1368" opacity="0.2"/></g><g transform="translate(-45,-69) scale(1,1)"><path fill="#ffffff" stroke="none" d="M 299.047705078125 1312 L 326.48770507812503 1312 L 338.247705078125 1323.76 L 338.247705078125 1361 L 299.047705078125 1361"/></g><g transform="translate(-45,-69) scale(1,1)"><path fill="none" stroke="#000000" d="M 299.047705078125 1312 L 326.48770507812503 1312 L 338.247705078125 1323.76 L 338.247705078125 1361 L 299.047705078125 1361 L 299.047705078125 1312" stroke-miterlimit="10"/></g><g transform="translate(-45,-69) scale(1,1)"><path fill="none" stroke="#000000" d="M 326.48770507812503 1312 L 326.48770507812503 1323.76 L 338.247705078125 1323.76 L 326.48770507812503 1312" stroke-miterlimit="10"/></g><g transform="translate(-45,-69) scale(1,1)"><g><path fill="none" stroke="none"/><text fill="#000000" stroke="none" font-family="Arial" font-size="13px" font-style="normal" font-weight="bold" text-decoration="none" x="264.0927734375" y="1380.5">Customer web app</text><path fill="none" stroke="#000000" d="M 376.79541015625 1380.5 L 260.5 1380.5" stroke-miterlimit="10"/></g></g><g transform="translate(-45,-69) scale(1,1)"><path fill="#C0C0C0" stroke="none" d="M 444.639501953125 1319 L 472.079501953125 1319 L 483.83950195312497 1330.76 L 483.83950195312497 1368 L 444.639501953125 1368" opacity="0.2"/></g><g transform="translate(-45,-69) scale(1,1)"><path fill="#ffffff" stroke="none" d="M 437.639501953125 1312 L 465.07950195312503 1312 L 476.839501953125 1323.76 L 476.839501953125 1361 L 437.639501953125 1361"/></g><g transform="translate(-45,-69) scale(1,1)"><path fill="none" stroke="#000000" d="M 437.639501953125 1312 L 465.07950195312503 1312 L 476.839501953125 1323.76 L 476.839501953125 1361 L 437.639501953125 1361 L 437.639501953125 1312" stroke-miterlimit="10"/></g><g transform="translate(-45,-69) scale(1,1)"><path fill="none" stroke="#000000" d="M 465.07950195312503 1312 L 465.07950195312503 1323.76 L 476.839501953125 1323.76 L 465.07950195312503 1312" stroke-miterlimit="10"/></g><g transform="translate(-45,-69) scale(1,1)"><g><path fill="none" stroke="none"/><text fill="#000000" stroke="none" font-family="Arial" font-size="13px" font-style="normal" font-weight="bold" text-decoration="none" x="411.35546875" y="1380.5">Taxi mobile app</text><path fill="none" stroke="#000000" d="M 506.36083984375 1380.5 L 408.1181640625 1380.5" stroke-miterlimit="10"/></g></g><g transform="translate(-45,-69) scale(1,1)"><path fill="none" stroke="#000000" d="M 314 921 L 313 1063" stroke-miterlimit="10"/></g><g transform="translate(-45,-69) scale(1,1)"><g><path fill="none" stroke="none"/><text fill="#000000" stroke="none" font-family="Arial" font-size="13px" font-style="normal" font-weight="normal" text-decoration="none" x="319" y="998">+HTTPS</text></g></g><g transform="translate(-45,-69) scale(1,1)"><path fill="none" stroke="#000000" d="M 313 1109 L 312 1247" stroke-miterlimit="10"/></g><g transform="translate(-45,-69) scale(1,1)"><g><path fill="none" stroke="none"/><text fill="#000000" stroke="none" font-family="Arial" font-size="13px" font-style="normal" font-weight="normal" text-decoration="none" x="319" y="1184">+HTTPS</text></g></g><g transform="translate(-45,-69) scale(1,1)"><path fill="#ffffff" stroke="none" d="M 176 1152 L 234 1152 L 244 1162 L 244 1190 L 176 1190 L 176 1152"/></g><g transform="translate(-45,-69) scale(1,1)"><path fill="none" stroke="#000000" d="M 176 1152 L 234 1152 L 244 1162 L 244 1190 L 176 1190 L 176 1152 L 176 1152" stroke-miterlimit="10"/></g><g transform="translate(-45,-69) scale(1,1)"><path fill="none" stroke="#000000" d="M 234 1152 L 234 1162 L 244 1162 L 234 1152" stroke-miterlimit="10"/></g><g transform="translate(-45,-69) scale(1,1)"><g><path fill="none" stroke="none"/><text fill="#000000" stroke="none" font-family="Arial" font-size="13px" font-style="normal" font-weight="normal" text-decoration="none" x="181" y="1170">Internet</text></g></g><g transform="translate(-45,-69) scale(1,1)"><path fill="none" stroke="#000000" d="M 246 1173 L 312 1178" stroke-miterlimit="10" stroke-dasharray="3"/></g><g transform="translate(-45,-69) scale(1,1)"><path fill="#C0C0C0" stroke="none" d="M 396.639501953125 815 L 424.079501953125 815 L 435.83950195312497 826.76 L 435.83950195312497 864 L 396.639501953125 864" opacity="0.2"/></g><g transform="translate(-45,-69) scale(1,1)"><path fill="#ffffff" stroke="none" d="M 389.639501953125 808 L 417.07950195312503 808 L 428.839501953125 819.76 L 428.839501953125 857 L 389.639501953125 857"/></g><g transform="translate(-45,-69) scale(1,1)"><path fill="none" stroke="#000000" d="M 389.639501953125 808 L 417.07950195312503 808 L 428.839501953125 819.76 L 428.839501953125 857 L 389.639501953125 857 L 389.639501953125 808" stroke-miterlimit="10"/></g><g transform="translate(-45,-69) scale(1,1)"><path fill="none" stroke="#000000" d="M 417.07950195312503 808 L 417.07950195312503 819.76 L 428.839501953125 819.76 L 417.07950195312503 808" stroke-miterlimit="10"/></g><g transform="translate(-45,-69) scale(1,1)"><g><path fill="none" stroke="none"/><text fill="#000000" stroke="none" font-family="Arial" font-size="13px" font-style="normal" font-weight="bold" text-decoration="none" x="372.75634765625" y="876.5">RESTful API</text><path fill="none" stroke="#000000" d="M 447.1572265625 876.5 L 371.32177734375 876.5" stroke-miterlimit="10"/></g></g><g transform="translate(-45,-69) scale(1,1)"><path fill="#C0C0C0" stroke="none" d="M 1084.639501953125 223 L 1112.0795019531251 223 L 1123.8395019531251 234.76000000000002 L 1123.8395019531251 272 L 1084.639501953125 272" opacity="0.2"/></g><g transform="translate(-45,-69) scale(1,1)"><path fill="#ffffff" stroke="none" d="M 1077.639501953125 216 L 1105.079501953125 216 L 1116.839501953125 227.75999999999993 L 1116.839501953125 265 L 1077.639501953125 265"/></g><g transform="translate(-45,-69) scale(1,1)"><path fill="none" stroke="#000000" d="M 1077.639501953125 216 L 1105.079501953125 216 L 1116.839501953125 227.75999999999993 L 1116.839501953125 265 L 1077.639501953125 265 L 1077.639501953125 216" stroke-miterlimit="10"/></g><g transform="translate(-45,-69) scale(1,1)"><path fill="none" stroke="#000000" d="M 1105.079501953125 216 L 1105.079501953125 227.75999999999993 L 1116.839501953125 227.75999999999993 L 1105.079501953125 216" stroke-miterlimit="10"/></g><g transform="translate(-45,-69) scale(1,1)"><g><path fill="none" stroke="none"/><text fill="#000000" stroke="none" font-family="Arial" font-size="13px" font-style="normal" font-weight="bold" text-decoration="none" x="1059.305908203125" y="284.5">Ride schema</text><path fill="none" stroke="#000000" d="M 1137.3408203125 284.5 L 1057.13818359375 284.5" stroke-miterlimit="10"/></g></g><g transform="translate(-45,-69) scale(1,1)"><path fill="#C0C0C0" stroke="none" d="M 1092.639501953125 679 L 1120.0795019531251 679 L 1131.8395019531251 690.76 L 1131.8395019531251 728 L 1092.639501953125 728" opacity="0.2"/></g><g transform="translate(-45,-69) scale(1,1)"><path fill="#ffffff" stroke="none" d="M 1085.639501953125 672 L 1113.079501953125 672 L 1124.839501953125 683.76 L 1124.839501953125 721 L 1085.639501953125 721"/></g><g transform="translate(-45,-69) scale(1,1)"><path fill="none" stroke="#000000" d="M 1085.639501953125 672 L 1113.079501953125 672 L 1124.839501953125 683.76 L 1124.839501953125 721 L 1085.639501953125 721 L 1085.639501953125 672" stroke-miterlimit="10"/></g><g transform="translate(-45,-69) scale(1,1)"><path fill="none" stroke="#000000" d="M 1113.079501953125 672 L 1113.079501953125 683.76 L 1124.839501953125 683.76 L 1113.079501953125 672" stroke-miterlimit="10"/></g><g transform="translate(-45,-69) scale(1,1)"><g><path fill="none" stroke="none"/><text fill="#000000" stroke="none" font-family="Arial" font-size="13px" font-style="normal" font-weight="bold" text-decoration="none" x="1067.305908203125" y="740.5">Ride schema</text><path fill="none" stroke="#000000" d="M 1145.3408203125 740.5 L 1065.13818359375 740.5" stroke-miterlimit="10"/></g></g><g transform="translate(-45,-69) scale(1,1)"><path fill="#C0C0C0" stroke="none" d="M 448.547705078125 215 L 475.987705078125 215 L 487.74770507812497 226.76 L 487.74770507812497 264 L 448.547705078125 264" opacity="0.2"/></g><g transform="translate(-45,-69) scale(1,1)"><path fill="#ffffff" stroke="none" d="M 441.547705078125 208 L 468.98770507812503 208 L 480.747705078125 219.76000000000002 L 480.747705078125 257 L 441.547705078125 257"/></g><g transform="translate(-45,-69) scale(1,1)"><path fill="none" stroke="#000000" d="M 441.547705078125 208 L 468.98770507812503 208 L 480.747705078125 219.76000000000002 L 480.747705078125 257 L 441.547705078125 257 L 441.547705078125 208" stroke-miterlimit="10"/></g><g transform="translate(-45,-69) scale(1,1)"><path fill="none" stroke="#000000" d="M 468.98770507812503 208 L 468.98770507812503 219.76000000000002 L 480.747705078125 219.76000000000002 L 468.98770507812503 208" stroke-miterlimit="10"/></g><g transform="translate(-45,-69) scale(1,1)"><g><path fill="none" stroke="none"/><text fill="#000000" stroke="none" font-family="Arial" font-size="13px" font-style="normal" font-weight="bold" text-decoration="none" x="401.53369140625" y="276.5">Notification manager</text><path fill="none" stroke="#000000" d="M 525.79541015625 276.5 L 396.5 276.5" stroke-miterlimit="10"/></g></g></g></svg>